%TF.GenerationSoftware,KiCad,Pcbnew,9.0.8*%
%TF.CreationDate,2026-03-20T02:05:03-06:00*%
%TF.ProjectId,afterglo-controller,61667465-7267-46c6-9f2d-636f6e74726f,rev?*%
%TF.SameCoordinates,Original*%
%TF.FileFunction,Legend,Top*%
%TF.FilePolarity,Positive*%
%FSLAX46Y46*%
G04 Gerber Fmt 4.6, Leading zero omitted, Abs format (unit mm)*
G04 Created by KiCad (PCBNEW 9.0.8) date 2026-03-20 02:05:03*
%MOMM*%
%LPD*%
G01*
G04 APERTURE LIST*
%ADD10C,0.150000*%
%ADD11C,0.120000*%
G04 APERTURE END LIST*
D10*
X104364819Y-58941904D02*
X105174342Y-58941904D01*
X105174342Y-58941904D02*
X105269580Y-58894285D01*
X105269580Y-58894285D02*
X105317200Y-58846666D01*
X105317200Y-58846666D02*
X105364819Y-58751428D01*
X105364819Y-58751428D02*
X105364819Y-58560952D01*
X105364819Y-58560952D02*
X105317200Y-58465714D01*
X105317200Y-58465714D02*
X105269580Y-58418095D01*
X105269580Y-58418095D02*
X105174342Y-58370476D01*
X105174342Y-58370476D02*
X104364819Y-58370476D01*
X104364819Y-57418095D02*
X104364819Y-57894285D01*
X104364819Y-57894285D02*
X104841009Y-57941904D01*
X104841009Y-57941904D02*
X104793390Y-57894285D01*
X104793390Y-57894285D02*
X104745771Y-57799047D01*
X104745771Y-57799047D02*
X104745771Y-57560952D01*
X104745771Y-57560952D02*
X104793390Y-57465714D01*
X104793390Y-57465714D02*
X104841009Y-57418095D01*
X104841009Y-57418095D02*
X104936247Y-57370476D01*
X104936247Y-57370476D02*
X105174342Y-57370476D01*
X105174342Y-57370476D02*
X105269580Y-57418095D01*
X105269580Y-57418095D02*
X105317200Y-57465714D01*
X105317200Y-57465714D02*
X105364819Y-57560952D01*
X105364819Y-57560952D02*
X105364819Y-57799047D01*
X105364819Y-57799047D02*
X105317200Y-57894285D01*
X105317200Y-57894285D02*
X105269580Y-57941904D01*
X194066666Y-129104819D02*
X193733333Y-128628628D01*
X193495238Y-129104819D02*
X193495238Y-128104819D01*
X193495238Y-128104819D02*
X193876190Y-128104819D01*
X193876190Y-128104819D02*
X193971428Y-128152438D01*
X193971428Y-128152438D02*
X194019047Y-128200057D01*
X194019047Y-128200057D02*
X194066666Y-128295295D01*
X194066666Y-128295295D02*
X194066666Y-128438152D01*
X194066666Y-128438152D02*
X194019047Y-128533390D01*
X194019047Y-128533390D02*
X193971428Y-128581009D01*
X193971428Y-128581009D02*
X193876190Y-128628628D01*
X193876190Y-128628628D02*
X193495238Y-128628628D01*
X194495238Y-128581009D02*
X194828571Y-128581009D01*
X194971428Y-129104819D02*
X194495238Y-129104819D01*
X194495238Y-129104819D02*
X194495238Y-128104819D01*
X194495238Y-128104819D02*
X194971428Y-128104819D01*
X195733333Y-128581009D02*
X195400000Y-128581009D01*
X195400000Y-129104819D02*
X195400000Y-128104819D01*
X195400000Y-128104819D02*
X195876190Y-128104819D01*
X196400000Y-128104819D02*
X196400000Y-128342914D01*
X196161905Y-128247676D02*
X196400000Y-128342914D01*
X196400000Y-128342914D02*
X196638095Y-128247676D01*
X196257143Y-128533390D02*
X196400000Y-128342914D01*
X196400000Y-128342914D02*
X196542857Y-128533390D01*
X197161905Y-128104819D02*
X197161905Y-128342914D01*
X196923810Y-128247676D02*
X197161905Y-128342914D01*
X197161905Y-128342914D02*
X197400000Y-128247676D01*
X197019048Y-128533390D02*
X197161905Y-128342914D01*
X197161905Y-128342914D02*
X197304762Y-128533390D01*
X30666666Y-128904819D02*
X30333333Y-128428628D01*
X30095238Y-128904819D02*
X30095238Y-127904819D01*
X30095238Y-127904819D02*
X30476190Y-127904819D01*
X30476190Y-127904819D02*
X30571428Y-127952438D01*
X30571428Y-127952438D02*
X30619047Y-128000057D01*
X30619047Y-128000057D02*
X30666666Y-128095295D01*
X30666666Y-128095295D02*
X30666666Y-128238152D01*
X30666666Y-128238152D02*
X30619047Y-128333390D01*
X30619047Y-128333390D02*
X30571428Y-128381009D01*
X30571428Y-128381009D02*
X30476190Y-128428628D01*
X30476190Y-128428628D02*
X30095238Y-128428628D01*
X31095238Y-128381009D02*
X31428571Y-128381009D01*
X31571428Y-128904819D02*
X31095238Y-128904819D01*
X31095238Y-128904819D02*
X31095238Y-127904819D01*
X31095238Y-127904819D02*
X31571428Y-127904819D01*
X32333333Y-128381009D02*
X32000000Y-128381009D01*
X32000000Y-128904819D02*
X32000000Y-127904819D01*
X32000000Y-127904819D02*
X32476190Y-127904819D01*
X33000000Y-127904819D02*
X33000000Y-128142914D01*
X32761905Y-128047676D02*
X33000000Y-128142914D01*
X33000000Y-128142914D02*
X33238095Y-128047676D01*
X32857143Y-128333390D02*
X33000000Y-128142914D01*
X33000000Y-128142914D02*
X33142857Y-128333390D01*
X33761905Y-127904819D02*
X33761905Y-128142914D01*
X33523810Y-128047676D02*
X33761905Y-128142914D01*
X33761905Y-128142914D02*
X34000000Y-128047676D01*
X33619048Y-128333390D02*
X33761905Y-128142914D01*
X33761905Y-128142914D02*
X33904762Y-128333390D01*
X31466666Y-41404819D02*
X31133333Y-40928628D01*
X30895238Y-41404819D02*
X30895238Y-40404819D01*
X30895238Y-40404819D02*
X31276190Y-40404819D01*
X31276190Y-40404819D02*
X31371428Y-40452438D01*
X31371428Y-40452438D02*
X31419047Y-40500057D01*
X31419047Y-40500057D02*
X31466666Y-40595295D01*
X31466666Y-40595295D02*
X31466666Y-40738152D01*
X31466666Y-40738152D02*
X31419047Y-40833390D01*
X31419047Y-40833390D02*
X31371428Y-40881009D01*
X31371428Y-40881009D02*
X31276190Y-40928628D01*
X31276190Y-40928628D02*
X30895238Y-40928628D01*
X31895238Y-40881009D02*
X32228571Y-40881009D01*
X32371428Y-41404819D02*
X31895238Y-41404819D01*
X31895238Y-41404819D02*
X31895238Y-40404819D01*
X31895238Y-40404819D02*
X32371428Y-40404819D01*
X33133333Y-40881009D02*
X32800000Y-40881009D01*
X32800000Y-41404819D02*
X32800000Y-40404819D01*
X32800000Y-40404819D02*
X33276190Y-40404819D01*
X33800000Y-40404819D02*
X33800000Y-40642914D01*
X33561905Y-40547676D02*
X33800000Y-40642914D01*
X33800000Y-40642914D02*
X34038095Y-40547676D01*
X33657143Y-40833390D02*
X33800000Y-40642914D01*
X33800000Y-40642914D02*
X33942857Y-40833390D01*
X34561905Y-40404819D02*
X34561905Y-40642914D01*
X34323810Y-40547676D02*
X34561905Y-40642914D01*
X34561905Y-40642914D02*
X34800000Y-40547676D01*
X34419048Y-40833390D02*
X34561905Y-40642914D01*
X34561905Y-40642914D02*
X34704762Y-40833390D01*
X64858333Y-78189580D02*
X64810714Y-78237200D01*
X64810714Y-78237200D02*
X64667857Y-78284819D01*
X64667857Y-78284819D02*
X64572619Y-78284819D01*
X64572619Y-78284819D02*
X64429762Y-78237200D01*
X64429762Y-78237200D02*
X64334524Y-78141961D01*
X64334524Y-78141961D02*
X64286905Y-78046723D01*
X64286905Y-78046723D02*
X64239286Y-77856247D01*
X64239286Y-77856247D02*
X64239286Y-77713390D01*
X64239286Y-77713390D02*
X64286905Y-77522914D01*
X64286905Y-77522914D02*
X64334524Y-77427676D01*
X64334524Y-77427676D02*
X64429762Y-77332438D01*
X64429762Y-77332438D02*
X64572619Y-77284819D01*
X64572619Y-77284819D02*
X64667857Y-77284819D01*
X64667857Y-77284819D02*
X64810714Y-77332438D01*
X64810714Y-77332438D02*
X64858333Y-77380057D01*
X65191667Y-77284819D02*
X65810714Y-77284819D01*
X65810714Y-77284819D02*
X65477381Y-77665771D01*
X65477381Y-77665771D02*
X65620238Y-77665771D01*
X65620238Y-77665771D02*
X65715476Y-77713390D01*
X65715476Y-77713390D02*
X65763095Y-77761009D01*
X65763095Y-77761009D02*
X65810714Y-77856247D01*
X65810714Y-77856247D02*
X65810714Y-78094342D01*
X65810714Y-78094342D02*
X65763095Y-78189580D01*
X65763095Y-78189580D02*
X65715476Y-78237200D01*
X65715476Y-78237200D02*
X65620238Y-78284819D01*
X65620238Y-78284819D02*
X65334524Y-78284819D01*
X65334524Y-78284819D02*
X65239286Y-78237200D01*
X65239286Y-78237200D02*
X65191667Y-78189580D01*
X183866666Y-101631009D02*
X183533333Y-101631009D01*
X183533333Y-102154819D02*
X183533333Y-101154819D01*
X183533333Y-101154819D02*
X184009523Y-101154819D01*
X184295238Y-101154819D02*
X184914285Y-101154819D01*
X184914285Y-101154819D02*
X184580952Y-101535771D01*
X184580952Y-101535771D02*
X184723809Y-101535771D01*
X184723809Y-101535771D02*
X184819047Y-101583390D01*
X184819047Y-101583390D02*
X184866666Y-101631009D01*
X184866666Y-101631009D02*
X184914285Y-101726247D01*
X184914285Y-101726247D02*
X184914285Y-101964342D01*
X184914285Y-101964342D02*
X184866666Y-102059580D01*
X184866666Y-102059580D02*
X184819047Y-102107200D01*
X184819047Y-102107200D02*
X184723809Y-102154819D01*
X184723809Y-102154819D02*
X184438095Y-102154819D01*
X184438095Y-102154819D02*
X184342857Y-102107200D01*
X184342857Y-102107200D02*
X184295238Y-102059580D01*
X100083333Y-83284819D02*
X99750000Y-82808628D01*
X99511905Y-83284819D02*
X99511905Y-82284819D01*
X99511905Y-82284819D02*
X99892857Y-82284819D01*
X99892857Y-82284819D02*
X99988095Y-82332438D01*
X99988095Y-82332438D02*
X100035714Y-82380057D01*
X100035714Y-82380057D02*
X100083333Y-82475295D01*
X100083333Y-82475295D02*
X100083333Y-82618152D01*
X100083333Y-82618152D02*
X100035714Y-82713390D01*
X100035714Y-82713390D02*
X99988095Y-82761009D01*
X99988095Y-82761009D02*
X99892857Y-82808628D01*
X99892857Y-82808628D02*
X99511905Y-82808628D01*
X100654762Y-82713390D02*
X100559524Y-82665771D01*
X100559524Y-82665771D02*
X100511905Y-82618152D01*
X100511905Y-82618152D02*
X100464286Y-82522914D01*
X100464286Y-82522914D02*
X100464286Y-82475295D01*
X100464286Y-82475295D02*
X100511905Y-82380057D01*
X100511905Y-82380057D02*
X100559524Y-82332438D01*
X100559524Y-82332438D02*
X100654762Y-82284819D01*
X100654762Y-82284819D02*
X100845238Y-82284819D01*
X100845238Y-82284819D02*
X100940476Y-82332438D01*
X100940476Y-82332438D02*
X100988095Y-82380057D01*
X100988095Y-82380057D02*
X101035714Y-82475295D01*
X101035714Y-82475295D02*
X101035714Y-82522914D01*
X101035714Y-82522914D02*
X100988095Y-82618152D01*
X100988095Y-82618152D02*
X100940476Y-82665771D01*
X100940476Y-82665771D02*
X100845238Y-82713390D01*
X100845238Y-82713390D02*
X100654762Y-82713390D01*
X100654762Y-82713390D02*
X100559524Y-82761009D01*
X100559524Y-82761009D02*
X100511905Y-82808628D01*
X100511905Y-82808628D02*
X100464286Y-82903866D01*
X100464286Y-82903866D02*
X100464286Y-83094342D01*
X100464286Y-83094342D02*
X100511905Y-83189580D01*
X100511905Y-83189580D02*
X100559524Y-83237200D01*
X100559524Y-83237200D02*
X100654762Y-83284819D01*
X100654762Y-83284819D02*
X100845238Y-83284819D01*
X100845238Y-83284819D02*
X100940476Y-83237200D01*
X100940476Y-83237200D02*
X100988095Y-83189580D01*
X100988095Y-83189580D02*
X101035714Y-83094342D01*
X101035714Y-83094342D02*
X101035714Y-82903866D01*
X101035714Y-82903866D02*
X100988095Y-82808628D01*
X100988095Y-82808628D02*
X100940476Y-82761009D01*
X100940476Y-82761009D02*
X100845238Y-82713390D01*
X197552319Y-97833333D02*
X198266604Y-97833333D01*
X198266604Y-97833333D02*
X198409461Y-97880952D01*
X198409461Y-97880952D02*
X198504700Y-97976190D01*
X198504700Y-97976190D02*
X198552319Y-98119047D01*
X198552319Y-98119047D02*
X198552319Y-98214285D01*
X197552319Y-97452380D02*
X197552319Y-96785714D01*
X197552319Y-96785714D02*
X198552319Y-97214285D01*
X183866666Y-127231009D02*
X183533333Y-127231009D01*
X183533333Y-127754819D02*
X183533333Y-126754819D01*
X183533333Y-126754819D02*
X184009523Y-126754819D01*
X184819047Y-127088152D02*
X184819047Y-127754819D01*
X184580952Y-126707200D02*
X184342857Y-127421485D01*
X184342857Y-127421485D02*
X184961904Y-127421485D01*
X147054819Y-120809523D02*
X147769104Y-120809523D01*
X147769104Y-120809523D02*
X147911961Y-120857142D01*
X147911961Y-120857142D02*
X148007200Y-120952380D01*
X148007200Y-120952380D02*
X148054819Y-121095237D01*
X148054819Y-121095237D02*
X148054819Y-121190475D01*
X148054819Y-119809523D02*
X148054819Y-120380951D01*
X148054819Y-120095237D02*
X147054819Y-120095237D01*
X147054819Y-120095237D02*
X147197676Y-120190475D01*
X147197676Y-120190475D02*
X147292914Y-120285713D01*
X147292914Y-120285713D02*
X147340533Y-120380951D01*
X147054819Y-118952380D02*
X147054819Y-119142856D01*
X147054819Y-119142856D02*
X147102438Y-119238094D01*
X147102438Y-119238094D02*
X147150057Y-119285713D01*
X147150057Y-119285713D02*
X147292914Y-119380951D01*
X147292914Y-119380951D02*
X147483390Y-119428570D01*
X147483390Y-119428570D02*
X147864342Y-119428570D01*
X147864342Y-119428570D02*
X147959580Y-119380951D01*
X147959580Y-119380951D02*
X148007200Y-119333332D01*
X148007200Y-119333332D02*
X148054819Y-119238094D01*
X148054819Y-119238094D02*
X148054819Y-119047618D01*
X148054819Y-119047618D02*
X148007200Y-118952380D01*
X148007200Y-118952380D02*
X147959580Y-118904761D01*
X147959580Y-118904761D02*
X147864342Y-118857142D01*
X147864342Y-118857142D02*
X147626247Y-118857142D01*
X147626247Y-118857142D02*
X147531009Y-118904761D01*
X147531009Y-118904761D02*
X147483390Y-118952380D01*
X147483390Y-118952380D02*
X147435771Y-119047618D01*
X147435771Y-119047618D02*
X147435771Y-119238094D01*
X147435771Y-119238094D02*
X147483390Y-119333332D01*
X147483390Y-119333332D02*
X147531009Y-119380951D01*
X147531009Y-119380951D02*
X147626247Y-119428570D01*
X99079580Y-88116666D02*
X99127200Y-88164285D01*
X99127200Y-88164285D02*
X99174819Y-88307142D01*
X99174819Y-88307142D02*
X99174819Y-88402380D01*
X99174819Y-88402380D02*
X99127200Y-88545237D01*
X99127200Y-88545237D02*
X99031961Y-88640475D01*
X99031961Y-88640475D02*
X98936723Y-88688094D01*
X98936723Y-88688094D02*
X98746247Y-88735713D01*
X98746247Y-88735713D02*
X98603390Y-88735713D01*
X98603390Y-88735713D02*
X98412914Y-88688094D01*
X98412914Y-88688094D02*
X98317676Y-88640475D01*
X98317676Y-88640475D02*
X98222438Y-88545237D01*
X98222438Y-88545237D02*
X98174819Y-88402380D01*
X98174819Y-88402380D02*
X98174819Y-88307142D01*
X98174819Y-88307142D02*
X98222438Y-88164285D01*
X98222438Y-88164285D02*
X98270057Y-88116666D01*
X98174819Y-87211904D02*
X98174819Y-87688094D01*
X98174819Y-87688094D02*
X98651009Y-87735713D01*
X98651009Y-87735713D02*
X98603390Y-87688094D01*
X98603390Y-87688094D02*
X98555771Y-87592856D01*
X98555771Y-87592856D02*
X98555771Y-87354761D01*
X98555771Y-87354761D02*
X98603390Y-87259523D01*
X98603390Y-87259523D02*
X98651009Y-87211904D01*
X98651009Y-87211904D02*
X98746247Y-87164285D01*
X98746247Y-87164285D02*
X98984342Y-87164285D01*
X98984342Y-87164285D02*
X99079580Y-87211904D01*
X99079580Y-87211904D02*
X99127200Y-87259523D01*
X99127200Y-87259523D02*
X99174819Y-87354761D01*
X99174819Y-87354761D02*
X99174819Y-87592856D01*
X99174819Y-87592856D02*
X99127200Y-87688094D01*
X99127200Y-87688094D02*
X99079580Y-87735713D01*
X158884819Y-68467857D02*
X158408628Y-68801190D01*
X158884819Y-69039285D02*
X157884819Y-69039285D01*
X157884819Y-69039285D02*
X157884819Y-68658333D01*
X157884819Y-68658333D02*
X157932438Y-68563095D01*
X157932438Y-68563095D02*
X157980057Y-68515476D01*
X157980057Y-68515476D02*
X158075295Y-68467857D01*
X158075295Y-68467857D02*
X158218152Y-68467857D01*
X158218152Y-68467857D02*
X158313390Y-68515476D01*
X158313390Y-68515476D02*
X158361009Y-68563095D01*
X158361009Y-68563095D02*
X158408628Y-68658333D01*
X158408628Y-68658333D02*
X158408628Y-69039285D01*
X158884819Y-67515476D02*
X158884819Y-68086904D01*
X158884819Y-67801190D02*
X157884819Y-67801190D01*
X157884819Y-67801190D02*
X158027676Y-67896428D01*
X158027676Y-67896428D02*
X158122914Y-67991666D01*
X158122914Y-67991666D02*
X158170533Y-68086904D01*
X157884819Y-66610714D02*
X157884819Y-67086904D01*
X157884819Y-67086904D02*
X158361009Y-67134523D01*
X158361009Y-67134523D02*
X158313390Y-67086904D01*
X158313390Y-67086904D02*
X158265771Y-66991666D01*
X158265771Y-66991666D02*
X158265771Y-66753571D01*
X158265771Y-66753571D02*
X158313390Y-66658333D01*
X158313390Y-66658333D02*
X158361009Y-66610714D01*
X158361009Y-66610714D02*
X158456247Y-66563095D01*
X158456247Y-66563095D02*
X158694342Y-66563095D01*
X158694342Y-66563095D02*
X158789580Y-66610714D01*
X158789580Y-66610714D02*
X158837200Y-66658333D01*
X158837200Y-66658333D02*
X158884819Y-66753571D01*
X158884819Y-66753571D02*
X158884819Y-66991666D01*
X158884819Y-66991666D02*
X158837200Y-67086904D01*
X158837200Y-67086904D02*
X158789580Y-67134523D01*
X54329166Y-52681009D02*
X53995833Y-52681009D01*
X53995833Y-53204819D02*
X53995833Y-52204819D01*
X53995833Y-52204819D02*
X54472023Y-52204819D01*
X55376785Y-53204819D02*
X54805357Y-53204819D01*
X55091071Y-53204819D02*
X55091071Y-52204819D01*
X55091071Y-52204819D02*
X54995833Y-52347676D01*
X54995833Y-52347676D02*
X54900595Y-52442914D01*
X54900595Y-52442914D02*
X54805357Y-52490533D01*
X69335714Y-47554819D02*
X69335714Y-46554819D01*
X69335714Y-46554819D02*
X69573809Y-46554819D01*
X69573809Y-46554819D02*
X69716666Y-46602438D01*
X69716666Y-46602438D02*
X69811904Y-46697676D01*
X69811904Y-46697676D02*
X69859523Y-46792914D01*
X69859523Y-46792914D02*
X69907142Y-46983390D01*
X69907142Y-46983390D02*
X69907142Y-47126247D01*
X69907142Y-47126247D02*
X69859523Y-47316723D01*
X69859523Y-47316723D02*
X69811904Y-47411961D01*
X69811904Y-47411961D02*
X69716666Y-47507200D01*
X69716666Y-47507200D02*
X69573809Y-47554819D01*
X69573809Y-47554819D02*
X69335714Y-47554819D01*
X70240476Y-46554819D02*
X70907142Y-46554819D01*
X70907142Y-46554819D02*
X70240476Y-47554819D01*
X70240476Y-47554819D02*
X70907142Y-47554819D01*
X71811904Y-47554819D02*
X71240476Y-47554819D01*
X71526190Y-47554819D02*
X71526190Y-46554819D01*
X71526190Y-46554819D02*
X71430952Y-46697676D01*
X71430952Y-46697676D02*
X71335714Y-46792914D01*
X71335714Y-46792914D02*
X71240476Y-46840533D01*
X65183333Y-95584819D02*
X64850000Y-95108628D01*
X64611905Y-95584819D02*
X64611905Y-94584819D01*
X64611905Y-94584819D02*
X64992857Y-94584819D01*
X64992857Y-94584819D02*
X65088095Y-94632438D01*
X65088095Y-94632438D02*
X65135714Y-94680057D01*
X65135714Y-94680057D02*
X65183333Y-94775295D01*
X65183333Y-94775295D02*
X65183333Y-94918152D01*
X65183333Y-94918152D02*
X65135714Y-95013390D01*
X65135714Y-95013390D02*
X65088095Y-95061009D01*
X65088095Y-95061009D02*
X64992857Y-95108628D01*
X64992857Y-95108628D02*
X64611905Y-95108628D01*
X66040476Y-94918152D02*
X66040476Y-95584819D01*
X65802381Y-94537200D02*
X65564286Y-95251485D01*
X65564286Y-95251485D02*
X66183333Y-95251485D01*
X149132142Y-73429580D02*
X149084523Y-73477200D01*
X149084523Y-73477200D02*
X148941666Y-73524819D01*
X148941666Y-73524819D02*
X148846428Y-73524819D01*
X148846428Y-73524819D02*
X148703571Y-73477200D01*
X148703571Y-73477200D02*
X148608333Y-73381961D01*
X148608333Y-73381961D02*
X148560714Y-73286723D01*
X148560714Y-73286723D02*
X148513095Y-73096247D01*
X148513095Y-73096247D02*
X148513095Y-72953390D01*
X148513095Y-72953390D02*
X148560714Y-72762914D01*
X148560714Y-72762914D02*
X148608333Y-72667676D01*
X148608333Y-72667676D02*
X148703571Y-72572438D01*
X148703571Y-72572438D02*
X148846428Y-72524819D01*
X148846428Y-72524819D02*
X148941666Y-72524819D01*
X148941666Y-72524819D02*
X149084523Y-72572438D01*
X149084523Y-72572438D02*
X149132142Y-72620057D01*
X150084523Y-73524819D02*
X149513095Y-73524819D01*
X149798809Y-73524819D02*
X149798809Y-72524819D01*
X149798809Y-72524819D02*
X149703571Y-72667676D01*
X149703571Y-72667676D02*
X149608333Y-72762914D01*
X149608333Y-72762914D02*
X149513095Y-72810533D01*
X150417857Y-72524819D02*
X151036904Y-72524819D01*
X151036904Y-72524819D02*
X150703571Y-72905771D01*
X150703571Y-72905771D02*
X150846428Y-72905771D01*
X150846428Y-72905771D02*
X150941666Y-72953390D01*
X150941666Y-72953390D02*
X150989285Y-73001009D01*
X150989285Y-73001009D02*
X151036904Y-73096247D01*
X151036904Y-73096247D02*
X151036904Y-73334342D01*
X151036904Y-73334342D02*
X150989285Y-73429580D01*
X150989285Y-73429580D02*
X150941666Y-73477200D01*
X150941666Y-73477200D02*
X150846428Y-73524819D01*
X150846428Y-73524819D02*
X150560714Y-73524819D01*
X150560714Y-73524819D02*
X150465476Y-73477200D01*
X150465476Y-73477200D02*
X150417857Y-73429580D01*
X131254819Y-102533333D02*
X131969104Y-102533333D01*
X131969104Y-102533333D02*
X132111961Y-102580952D01*
X132111961Y-102580952D02*
X132207200Y-102676190D01*
X132207200Y-102676190D02*
X132254819Y-102819047D01*
X132254819Y-102819047D02*
X132254819Y-102914285D01*
X132254819Y-102057142D02*
X131254819Y-102057142D01*
X131254819Y-102057142D02*
X131254819Y-101676190D01*
X131254819Y-101676190D02*
X131302438Y-101580952D01*
X131302438Y-101580952D02*
X131350057Y-101533333D01*
X131350057Y-101533333D02*
X131445295Y-101485714D01*
X131445295Y-101485714D02*
X131588152Y-101485714D01*
X131588152Y-101485714D02*
X131683390Y-101533333D01*
X131683390Y-101533333D02*
X131731009Y-101580952D01*
X131731009Y-101580952D02*
X131778628Y-101676190D01*
X131778628Y-101676190D02*
X131778628Y-102057142D01*
X131350057Y-101104761D02*
X131302438Y-101057142D01*
X131302438Y-101057142D02*
X131254819Y-100961904D01*
X131254819Y-100961904D02*
X131254819Y-100723809D01*
X131254819Y-100723809D02*
X131302438Y-100628571D01*
X131302438Y-100628571D02*
X131350057Y-100580952D01*
X131350057Y-100580952D02*
X131445295Y-100533333D01*
X131445295Y-100533333D02*
X131540533Y-100533333D01*
X131540533Y-100533333D02*
X131683390Y-100580952D01*
X131683390Y-100580952D02*
X132254819Y-101152380D01*
X132254819Y-101152380D02*
X132254819Y-100533333D01*
X132832142Y-98784819D02*
X132498809Y-98308628D01*
X132260714Y-98784819D02*
X132260714Y-97784819D01*
X132260714Y-97784819D02*
X132641666Y-97784819D01*
X132641666Y-97784819D02*
X132736904Y-97832438D01*
X132736904Y-97832438D02*
X132784523Y-97880057D01*
X132784523Y-97880057D02*
X132832142Y-97975295D01*
X132832142Y-97975295D02*
X132832142Y-98118152D01*
X132832142Y-98118152D02*
X132784523Y-98213390D01*
X132784523Y-98213390D02*
X132736904Y-98261009D01*
X132736904Y-98261009D02*
X132641666Y-98308628D01*
X132641666Y-98308628D02*
X132260714Y-98308628D01*
X133213095Y-97880057D02*
X133260714Y-97832438D01*
X133260714Y-97832438D02*
X133355952Y-97784819D01*
X133355952Y-97784819D02*
X133594047Y-97784819D01*
X133594047Y-97784819D02*
X133689285Y-97832438D01*
X133689285Y-97832438D02*
X133736904Y-97880057D01*
X133736904Y-97880057D02*
X133784523Y-97975295D01*
X133784523Y-97975295D02*
X133784523Y-98070533D01*
X133784523Y-98070533D02*
X133736904Y-98213390D01*
X133736904Y-98213390D02*
X133165476Y-98784819D01*
X133165476Y-98784819D02*
X133784523Y-98784819D01*
X134117857Y-97784819D02*
X134736904Y-97784819D01*
X134736904Y-97784819D02*
X134403571Y-98165771D01*
X134403571Y-98165771D02*
X134546428Y-98165771D01*
X134546428Y-98165771D02*
X134641666Y-98213390D01*
X134641666Y-98213390D02*
X134689285Y-98261009D01*
X134689285Y-98261009D02*
X134736904Y-98356247D01*
X134736904Y-98356247D02*
X134736904Y-98594342D01*
X134736904Y-98594342D02*
X134689285Y-98689580D01*
X134689285Y-98689580D02*
X134641666Y-98737200D01*
X134641666Y-98737200D02*
X134546428Y-98784819D01*
X134546428Y-98784819D02*
X134260714Y-98784819D01*
X134260714Y-98784819D02*
X134165476Y-98737200D01*
X134165476Y-98737200D02*
X134117857Y-98689580D01*
X97663095Y-70959819D02*
X97663095Y-71769342D01*
X97663095Y-71769342D02*
X97710714Y-71864580D01*
X97710714Y-71864580D02*
X97758333Y-71912200D01*
X97758333Y-71912200D02*
X97853571Y-71959819D01*
X97853571Y-71959819D02*
X98044047Y-71959819D01*
X98044047Y-71959819D02*
X98139285Y-71912200D01*
X98139285Y-71912200D02*
X98186904Y-71864580D01*
X98186904Y-71864580D02*
X98234523Y-71769342D01*
X98234523Y-71769342D02*
X98234523Y-70959819D01*
X98853571Y-71388390D02*
X98758333Y-71340771D01*
X98758333Y-71340771D02*
X98710714Y-71293152D01*
X98710714Y-71293152D02*
X98663095Y-71197914D01*
X98663095Y-71197914D02*
X98663095Y-71150295D01*
X98663095Y-71150295D02*
X98710714Y-71055057D01*
X98710714Y-71055057D02*
X98758333Y-71007438D01*
X98758333Y-71007438D02*
X98853571Y-70959819D01*
X98853571Y-70959819D02*
X99044047Y-70959819D01*
X99044047Y-70959819D02*
X99139285Y-71007438D01*
X99139285Y-71007438D02*
X99186904Y-71055057D01*
X99186904Y-71055057D02*
X99234523Y-71150295D01*
X99234523Y-71150295D02*
X99234523Y-71197914D01*
X99234523Y-71197914D02*
X99186904Y-71293152D01*
X99186904Y-71293152D02*
X99139285Y-71340771D01*
X99139285Y-71340771D02*
X99044047Y-71388390D01*
X99044047Y-71388390D02*
X98853571Y-71388390D01*
X98853571Y-71388390D02*
X98758333Y-71436009D01*
X98758333Y-71436009D02*
X98710714Y-71483628D01*
X98710714Y-71483628D02*
X98663095Y-71578866D01*
X98663095Y-71578866D02*
X98663095Y-71769342D01*
X98663095Y-71769342D02*
X98710714Y-71864580D01*
X98710714Y-71864580D02*
X98758333Y-71912200D01*
X98758333Y-71912200D02*
X98853571Y-71959819D01*
X98853571Y-71959819D02*
X99044047Y-71959819D01*
X99044047Y-71959819D02*
X99139285Y-71912200D01*
X99139285Y-71912200D02*
X99186904Y-71864580D01*
X99186904Y-71864580D02*
X99234523Y-71769342D01*
X99234523Y-71769342D02*
X99234523Y-71578866D01*
X99234523Y-71578866D02*
X99186904Y-71483628D01*
X99186904Y-71483628D02*
X99139285Y-71436009D01*
X99139285Y-71436009D02*
X99044047Y-71388390D01*
X73258333Y-98484819D02*
X72925000Y-98008628D01*
X72686905Y-98484819D02*
X72686905Y-97484819D01*
X72686905Y-97484819D02*
X73067857Y-97484819D01*
X73067857Y-97484819D02*
X73163095Y-97532438D01*
X73163095Y-97532438D02*
X73210714Y-97580057D01*
X73210714Y-97580057D02*
X73258333Y-97675295D01*
X73258333Y-97675295D02*
X73258333Y-97818152D01*
X73258333Y-97818152D02*
X73210714Y-97913390D01*
X73210714Y-97913390D02*
X73163095Y-97961009D01*
X73163095Y-97961009D02*
X73067857Y-98008628D01*
X73067857Y-98008628D02*
X72686905Y-98008628D01*
X74163095Y-97484819D02*
X73686905Y-97484819D01*
X73686905Y-97484819D02*
X73639286Y-97961009D01*
X73639286Y-97961009D02*
X73686905Y-97913390D01*
X73686905Y-97913390D02*
X73782143Y-97865771D01*
X73782143Y-97865771D02*
X74020238Y-97865771D01*
X74020238Y-97865771D02*
X74115476Y-97913390D01*
X74115476Y-97913390D02*
X74163095Y-97961009D01*
X74163095Y-97961009D02*
X74210714Y-98056247D01*
X74210714Y-98056247D02*
X74210714Y-98294342D01*
X74210714Y-98294342D02*
X74163095Y-98389580D01*
X74163095Y-98389580D02*
X74115476Y-98437200D01*
X74115476Y-98437200D02*
X74020238Y-98484819D01*
X74020238Y-98484819D02*
X73782143Y-98484819D01*
X73782143Y-98484819D02*
X73686905Y-98437200D01*
X73686905Y-98437200D02*
X73639286Y-98389580D01*
X172289819Y-120709523D02*
X173004104Y-120709523D01*
X173004104Y-120709523D02*
X173146961Y-120757142D01*
X173146961Y-120757142D02*
X173242200Y-120852380D01*
X173242200Y-120852380D02*
X173289819Y-120995237D01*
X173289819Y-120995237D02*
X173289819Y-121090475D01*
X173289819Y-119709523D02*
X173289819Y-120280951D01*
X173289819Y-119995237D02*
X172289819Y-119995237D01*
X172289819Y-119995237D02*
X172432676Y-120090475D01*
X172432676Y-120090475D02*
X172527914Y-120185713D01*
X172527914Y-120185713D02*
X172575533Y-120280951D01*
X172289819Y-119376189D02*
X172289819Y-118709523D01*
X172289819Y-118709523D02*
X173289819Y-119138094D01*
X172131009Y-107933333D02*
X172131009Y-108266666D01*
X172654819Y-108266666D02*
X171654819Y-108266666D01*
X171654819Y-108266666D02*
X171654819Y-107790476D01*
X171654819Y-107504761D02*
X171654819Y-106838095D01*
X171654819Y-106838095D02*
X172654819Y-107266666D01*
X126154819Y-104633333D02*
X126869104Y-104633333D01*
X126869104Y-104633333D02*
X127011961Y-104680952D01*
X127011961Y-104680952D02*
X127107200Y-104776190D01*
X127107200Y-104776190D02*
X127154819Y-104919047D01*
X127154819Y-104919047D02*
X127154819Y-105014285D01*
X127154819Y-104157142D02*
X126154819Y-104157142D01*
X126154819Y-104157142D02*
X126154819Y-103776190D01*
X126154819Y-103776190D02*
X126202438Y-103680952D01*
X126202438Y-103680952D02*
X126250057Y-103633333D01*
X126250057Y-103633333D02*
X126345295Y-103585714D01*
X126345295Y-103585714D02*
X126488152Y-103585714D01*
X126488152Y-103585714D02*
X126583390Y-103633333D01*
X126583390Y-103633333D02*
X126631009Y-103680952D01*
X126631009Y-103680952D02*
X126678628Y-103776190D01*
X126678628Y-103776190D02*
X126678628Y-104157142D01*
X127154819Y-102633333D02*
X127154819Y-103204761D01*
X127154819Y-102919047D02*
X126154819Y-102919047D01*
X126154819Y-102919047D02*
X126297676Y-103014285D01*
X126297676Y-103014285D02*
X126392914Y-103109523D01*
X126392914Y-103109523D02*
X126440533Y-103204761D01*
X58032142Y-88784819D02*
X57698809Y-88308628D01*
X57460714Y-88784819D02*
X57460714Y-87784819D01*
X57460714Y-87784819D02*
X57841666Y-87784819D01*
X57841666Y-87784819D02*
X57936904Y-87832438D01*
X57936904Y-87832438D02*
X57984523Y-87880057D01*
X57984523Y-87880057D02*
X58032142Y-87975295D01*
X58032142Y-87975295D02*
X58032142Y-88118152D01*
X58032142Y-88118152D02*
X57984523Y-88213390D01*
X57984523Y-88213390D02*
X57936904Y-88261009D01*
X57936904Y-88261009D02*
X57841666Y-88308628D01*
X57841666Y-88308628D02*
X57460714Y-88308628D01*
X58413095Y-87880057D02*
X58460714Y-87832438D01*
X58460714Y-87832438D02*
X58555952Y-87784819D01*
X58555952Y-87784819D02*
X58794047Y-87784819D01*
X58794047Y-87784819D02*
X58889285Y-87832438D01*
X58889285Y-87832438D02*
X58936904Y-87880057D01*
X58936904Y-87880057D02*
X58984523Y-87975295D01*
X58984523Y-87975295D02*
X58984523Y-88070533D01*
X58984523Y-88070533D02*
X58936904Y-88213390D01*
X58936904Y-88213390D02*
X58365476Y-88784819D01*
X58365476Y-88784819D02*
X58984523Y-88784819D01*
X59841666Y-88118152D02*
X59841666Y-88784819D01*
X59603571Y-87737200D02*
X59365476Y-88451485D01*
X59365476Y-88451485D02*
X59984523Y-88451485D01*
X55150057Y-119095238D02*
X55102438Y-119190476D01*
X55102438Y-119190476D02*
X55007200Y-119285714D01*
X55007200Y-119285714D02*
X54864342Y-119428571D01*
X54864342Y-119428571D02*
X54816723Y-119523809D01*
X54816723Y-119523809D02*
X54816723Y-119619047D01*
X55054819Y-119571428D02*
X55007200Y-119666666D01*
X55007200Y-119666666D02*
X54911961Y-119761904D01*
X54911961Y-119761904D02*
X54721485Y-119809523D01*
X54721485Y-119809523D02*
X54388152Y-119809523D01*
X54388152Y-119809523D02*
X54197676Y-119761904D01*
X54197676Y-119761904D02*
X54102438Y-119666666D01*
X54102438Y-119666666D02*
X54054819Y-119571428D01*
X54054819Y-119571428D02*
X54054819Y-119380952D01*
X54054819Y-119380952D02*
X54102438Y-119285714D01*
X54102438Y-119285714D02*
X54197676Y-119190476D01*
X54197676Y-119190476D02*
X54388152Y-119142857D01*
X54388152Y-119142857D02*
X54721485Y-119142857D01*
X54721485Y-119142857D02*
X54911961Y-119190476D01*
X54911961Y-119190476D02*
X55007200Y-119285714D01*
X55007200Y-119285714D02*
X55054819Y-119380952D01*
X55054819Y-119380952D02*
X55054819Y-119571428D01*
X54054819Y-118238095D02*
X54054819Y-118714285D01*
X54054819Y-118714285D02*
X54531009Y-118761904D01*
X54531009Y-118761904D02*
X54483390Y-118714285D01*
X54483390Y-118714285D02*
X54435771Y-118619047D01*
X54435771Y-118619047D02*
X54435771Y-118380952D01*
X54435771Y-118380952D02*
X54483390Y-118285714D01*
X54483390Y-118285714D02*
X54531009Y-118238095D01*
X54531009Y-118238095D02*
X54626247Y-118190476D01*
X54626247Y-118190476D02*
X54864342Y-118190476D01*
X54864342Y-118190476D02*
X54959580Y-118238095D01*
X54959580Y-118238095D02*
X55007200Y-118285714D01*
X55007200Y-118285714D02*
X55054819Y-118380952D01*
X55054819Y-118380952D02*
X55054819Y-118619047D01*
X55054819Y-118619047D02*
X55007200Y-118714285D01*
X55007200Y-118714285D02*
X54959580Y-118761904D01*
X151932142Y-58684819D02*
X151598809Y-58208628D01*
X151360714Y-58684819D02*
X151360714Y-57684819D01*
X151360714Y-57684819D02*
X151741666Y-57684819D01*
X151741666Y-57684819D02*
X151836904Y-57732438D01*
X151836904Y-57732438D02*
X151884523Y-57780057D01*
X151884523Y-57780057D02*
X151932142Y-57875295D01*
X151932142Y-57875295D02*
X151932142Y-58018152D01*
X151932142Y-58018152D02*
X151884523Y-58113390D01*
X151884523Y-58113390D02*
X151836904Y-58161009D01*
X151836904Y-58161009D02*
X151741666Y-58208628D01*
X151741666Y-58208628D02*
X151360714Y-58208628D01*
X152313095Y-57780057D02*
X152360714Y-57732438D01*
X152360714Y-57732438D02*
X152455952Y-57684819D01*
X152455952Y-57684819D02*
X152694047Y-57684819D01*
X152694047Y-57684819D02*
X152789285Y-57732438D01*
X152789285Y-57732438D02*
X152836904Y-57780057D01*
X152836904Y-57780057D02*
X152884523Y-57875295D01*
X152884523Y-57875295D02*
X152884523Y-57970533D01*
X152884523Y-57970533D02*
X152836904Y-58113390D01*
X152836904Y-58113390D02*
X152265476Y-58684819D01*
X152265476Y-58684819D02*
X152884523Y-58684819D01*
X153741666Y-57684819D02*
X153551190Y-57684819D01*
X153551190Y-57684819D02*
X153455952Y-57732438D01*
X153455952Y-57732438D02*
X153408333Y-57780057D01*
X153408333Y-57780057D02*
X153313095Y-57922914D01*
X153313095Y-57922914D02*
X153265476Y-58113390D01*
X153265476Y-58113390D02*
X153265476Y-58494342D01*
X153265476Y-58494342D02*
X153313095Y-58589580D01*
X153313095Y-58589580D02*
X153360714Y-58637200D01*
X153360714Y-58637200D02*
X153455952Y-58684819D01*
X153455952Y-58684819D02*
X153646428Y-58684819D01*
X153646428Y-58684819D02*
X153741666Y-58637200D01*
X153741666Y-58637200D02*
X153789285Y-58589580D01*
X153789285Y-58589580D02*
X153836904Y-58494342D01*
X153836904Y-58494342D02*
X153836904Y-58256247D01*
X153836904Y-58256247D02*
X153789285Y-58161009D01*
X153789285Y-58161009D02*
X153741666Y-58113390D01*
X153741666Y-58113390D02*
X153646428Y-58065771D01*
X153646428Y-58065771D02*
X153455952Y-58065771D01*
X153455952Y-58065771D02*
X153360714Y-58113390D01*
X153360714Y-58113390D02*
X153313095Y-58161009D01*
X153313095Y-58161009D02*
X153265476Y-58256247D01*
X148032142Y-68784819D02*
X147698809Y-68308628D01*
X147460714Y-68784819D02*
X147460714Y-67784819D01*
X147460714Y-67784819D02*
X147841666Y-67784819D01*
X147841666Y-67784819D02*
X147936904Y-67832438D01*
X147936904Y-67832438D02*
X147984523Y-67880057D01*
X147984523Y-67880057D02*
X148032142Y-67975295D01*
X148032142Y-67975295D02*
X148032142Y-68118152D01*
X148032142Y-68118152D02*
X147984523Y-68213390D01*
X147984523Y-68213390D02*
X147936904Y-68261009D01*
X147936904Y-68261009D02*
X147841666Y-68308628D01*
X147841666Y-68308628D02*
X147460714Y-68308628D01*
X148413095Y-67880057D02*
X148460714Y-67832438D01*
X148460714Y-67832438D02*
X148555952Y-67784819D01*
X148555952Y-67784819D02*
X148794047Y-67784819D01*
X148794047Y-67784819D02*
X148889285Y-67832438D01*
X148889285Y-67832438D02*
X148936904Y-67880057D01*
X148936904Y-67880057D02*
X148984523Y-67975295D01*
X148984523Y-67975295D02*
X148984523Y-68070533D01*
X148984523Y-68070533D02*
X148936904Y-68213390D01*
X148936904Y-68213390D02*
X148365476Y-68784819D01*
X148365476Y-68784819D02*
X148984523Y-68784819D01*
X149317857Y-67784819D02*
X149984523Y-67784819D01*
X149984523Y-67784819D02*
X149555952Y-68784819D01*
X40574819Y-121573333D02*
X41289104Y-121573333D01*
X41289104Y-121573333D02*
X41431961Y-121620952D01*
X41431961Y-121620952D02*
X41527200Y-121716190D01*
X41527200Y-121716190D02*
X41574819Y-121859047D01*
X41574819Y-121859047D02*
X41574819Y-121954285D01*
X41574819Y-120573333D02*
X41574819Y-121144761D01*
X41574819Y-120859047D02*
X40574819Y-120859047D01*
X40574819Y-120859047D02*
X40717676Y-120954285D01*
X40717676Y-120954285D02*
X40812914Y-121049523D01*
X40812914Y-121049523D02*
X40860533Y-121144761D01*
X75639580Y-89741666D02*
X75687200Y-89789285D01*
X75687200Y-89789285D02*
X75734819Y-89932142D01*
X75734819Y-89932142D02*
X75734819Y-90027380D01*
X75734819Y-90027380D02*
X75687200Y-90170237D01*
X75687200Y-90170237D02*
X75591961Y-90265475D01*
X75591961Y-90265475D02*
X75496723Y-90313094D01*
X75496723Y-90313094D02*
X75306247Y-90360713D01*
X75306247Y-90360713D02*
X75163390Y-90360713D01*
X75163390Y-90360713D02*
X74972914Y-90313094D01*
X74972914Y-90313094D02*
X74877676Y-90265475D01*
X74877676Y-90265475D02*
X74782438Y-90170237D01*
X74782438Y-90170237D02*
X74734819Y-90027380D01*
X74734819Y-90027380D02*
X74734819Y-89932142D01*
X74734819Y-89932142D02*
X74782438Y-89789285D01*
X74782438Y-89789285D02*
X74830057Y-89741666D01*
X75734819Y-89265475D02*
X75734819Y-89074999D01*
X75734819Y-89074999D02*
X75687200Y-88979761D01*
X75687200Y-88979761D02*
X75639580Y-88932142D01*
X75639580Y-88932142D02*
X75496723Y-88836904D01*
X75496723Y-88836904D02*
X75306247Y-88789285D01*
X75306247Y-88789285D02*
X74925295Y-88789285D01*
X74925295Y-88789285D02*
X74830057Y-88836904D01*
X74830057Y-88836904D02*
X74782438Y-88884523D01*
X74782438Y-88884523D02*
X74734819Y-88979761D01*
X74734819Y-88979761D02*
X74734819Y-89170237D01*
X74734819Y-89170237D02*
X74782438Y-89265475D01*
X74782438Y-89265475D02*
X74830057Y-89313094D01*
X74830057Y-89313094D02*
X74925295Y-89360713D01*
X74925295Y-89360713D02*
X75163390Y-89360713D01*
X75163390Y-89360713D02*
X75258628Y-89313094D01*
X75258628Y-89313094D02*
X75306247Y-89265475D01*
X75306247Y-89265475D02*
X75353866Y-89170237D01*
X75353866Y-89170237D02*
X75353866Y-88979761D01*
X75353866Y-88979761D02*
X75306247Y-88884523D01*
X75306247Y-88884523D02*
X75258628Y-88836904D01*
X75258628Y-88836904D02*
X75163390Y-88789285D01*
X175357142Y-62929580D02*
X175309523Y-62977200D01*
X175309523Y-62977200D02*
X175166666Y-63024819D01*
X175166666Y-63024819D02*
X175071428Y-63024819D01*
X175071428Y-63024819D02*
X174928571Y-62977200D01*
X174928571Y-62977200D02*
X174833333Y-62881961D01*
X174833333Y-62881961D02*
X174785714Y-62786723D01*
X174785714Y-62786723D02*
X174738095Y-62596247D01*
X174738095Y-62596247D02*
X174738095Y-62453390D01*
X174738095Y-62453390D02*
X174785714Y-62262914D01*
X174785714Y-62262914D02*
X174833333Y-62167676D01*
X174833333Y-62167676D02*
X174928571Y-62072438D01*
X174928571Y-62072438D02*
X175071428Y-62024819D01*
X175071428Y-62024819D02*
X175166666Y-62024819D01*
X175166666Y-62024819D02*
X175309523Y-62072438D01*
X175309523Y-62072438D02*
X175357142Y-62120057D01*
X176309523Y-63024819D02*
X175738095Y-63024819D01*
X176023809Y-63024819D02*
X176023809Y-62024819D01*
X176023809Y-62024819D02*
X175928571Y-62167676D01*
X175928571Y-62167676D02*
X175833333Y-62262914D01*
X175833333Y-62262914D02*
X175738095Y-62310533D01*
X177214285Y-62024819D02*
X176738095Y-62024819D01*
X176738095Y-62024819D02*
X176690476Y-62501009D01*
X176690476Y-62501009D02*
X176738095Y-62453390D01*
X176738095Y-62453390D02*
X176833333Y-62405771D01*
X176833333Y-62405771D02*
X177071428Y-62405771D01*
X177071428Y-62405771D02*
X177166666Y-62453390D01*
X177166666Y-62453390D02*
X177214285Y-62501009D01*
X177214285Y-62501009D02*
X177261904Y-62596247D01*
X177261904Y-62596247D02*
X177261904Y-62834342D01*
X177261904Y-62834342D02*
X177214285Y-62929580D01*
X177214285Y-62929580D02*
X177166666Y-62977200D01*
X177166666Y-62977200D02*
X177071428Y-63024819D01*
X177071428Y-63024819D02*
X176833333Y-63024819D01*
X176833333Y-63024819D02*
X176738095Y-62977200D01*
X176738095Y-62977200D02*
X176690476Y-62929580D01*
X80208333Y-70484819D02*
X79875000Y-70008628D01*
X79636905Y-70484819D02*
X79636905Y-69484819D01*
X79636905Y-69484819D02*
X80017857Y-69484819D01*
X80017857Y-69484819D02*
X80113095Y-69532438D01*
X80113095Y-69532438D02*
X80160714Y-69580057D01*
X80160714Y-69580057D02*
X80208333Y-69675295D01*
X80208333Y-69675295D02*
X80208333Y-69818152D01*
X80208333Y-69818152D02*
X80160714Y-69913390D01*
X80160714Y-69913390D02*
X80113095Y-69961009D01*
X80113095Y-69961009D02*
X80017857Y-70008628D01*
X80017857Y-70008628D02*
X79636905Y-70008628D01*
X81160714Y-70484819D02*
X80589286Y-70484819D01*
X80875000Y-70484819D02*
X80875000Y-69484819D01*
X80875000Y-69484819D02*
X80779762Y-69627676D01*
X80779762Y-69627676D02*
X80684524Y-69722914D01*
X80684524Y-69722914D02*
X80589286Y-69770533D01*
X146514580Y-77417857D02*
X146562200Y-77465476D01*
X146562200Y-77465476D02*
X146609819Y-77608333D01*
X146609819Y-77608333D02*
X146609819Y-77703571D01*
X146609819Y-77703571D02*
X146562200Y-77846428D01*
X146562200Y-77846428D02*
X146466961Y-77941666D01*
X146466961Y-77941666D02*
X146371723Y-77989285D01*
X146371723Y-77989285D02*
X146181247Y-78036904D01*
X146181247Y-78036904D02*
X146038390Y-78036904D01*
X146038390Y-78036904D02*
X145847914Y-77989285D01*
X145847914Y-77989285D02*
X145752676Y-77941666D01*
X145752676Y-77941666D02*
X145657438Y-77846428D01*
X145657438Y-77846428D02*
X145609819Y-77703571D01*
X145609819Y-77703571D02*
X145609819Y-77608333D01*
X145609819Y-77608333D02*
X145657438Y-77465476D01*
X145657438Y-77465476D02*
X145705057Y-77417857D01*
X146609819Y-76465476D02*
X146609819Y-77036904D01*
X146609819Y-76751190D02*
X145609819Y-76751190D01*
X145609819Y-76751190D02*
X145752676Y-76846428D01*
X145752676Y-76846428D02*
X145847914Y-76941666D01*
X145847914Y-76941666D02*
X145895533Y-77036904D01*
X146038390Y-75894047D02*
X145990771Y-75989285D01*
X145990771Y-75989285D02*
X145943152Y-76036904D01*
X145943152Y-76036904D02*
X145847914Y-76084523D01*
X145847914Y-76084523D02*
X145800295Y-76084523D01*
X145800295Y-76084523D02*
X145705057Y-76036904D01*
X145705057Y-76036904D02*
X145657438Y-75989285D01*
X145657438Y-75989285D02*
X145609819Y-75894047D01*
X145609819Y-75894047D02*
X145609819Y-75703571D01*
X145609819Y-75703571D02*
X145657438Y-75608333D01*
X145657438Y-75608333D02*
X145705057Y-75560714D01*
X145705057Y-75560714D02*
X145800295Y-75513095D01*
X145800295Y-75513095D02*
X145847914Y-75513095D01*
X145847914Y-75513095D02*
X145943152Y-75560714D01*
X145943152Y-75560714D02*
X145990771Y-75608333D01*
X145990771Y-75608333D02*
X146038390Y-75703571D01*
X146038390Y-75703571D02*
X146038390Y-75894047D01*
X146038390Y-75894047D02*
X146086009Y-75989285D01*
X146086009Y-75989285D02*
X146133628Y-76036904D01*
X146133628Y-76036904D02*
X146228866Y-76084523D01*
X146228866Y-76084523D02*
X146419342Y-76084523D01*
X146419342Y-76084523D02*
X146514580Y-76036904D01*
X146514580Y-76036904D02*
X146562200Y-75989285D01*
X146562200Y-75989285D02*
X146609819Y-75894047D01*
X146609819Y-75894047D02*
X146609819Y-75703571D01*
X146609819Y-75703571D02*
X146562200Y-75608333D01*
X146562200Y-75608333D02*
X146514580Y-75560714D01*
X146514580Y-75560714D02*
X146419342Y-75513095D01*
X146419342Y-75513095D02*
X146228866Y-75513095D01*
X146228866Y-75513095D02*
X146133628Y-75560714D01*
X146133628Y-75560714D02*
X146086009Y-75608333D01*
X146086009Y-75608333D02*
X146038390Y-75703571D01*
X132238095Y-52306819D02*
X132809523Y-52306819D01*
X132523809Y-53306819D02*
X132523809Y-52306819D01*
X133142857Y-53306819D02*
X133142857Y-52306819D01*
X133142857Y-52306819D02*
X133523809Y-52306819D01*
X133523809Y-52306819D02*
X133619047Y-52354438D01*
X133619047Y-52354438D02*
X133666666Y-52402057D01*
X133666666Y-52402057D02*
X133714285Y-52497295D01*
X133714285Y-52497295D02*
X133714285Y-52640152D01*
X133714285Y-52640152D02*
X133666666Y-52735390D01*
X133666666Y-52735390D02*
X133619047Y-52783009D01*
X133619047Y-52783009D02*
X133523809Y-52830628D01*
X133523809Y-52830628D02*
X133142857Y-52830628D01*
X134047619Y-52306819D02*
X134666666Y-52306819D01*
X134666666Y-52306819D02*
X134333333Y-52687771D01*
X134333333Y-52687771D02*
X134476190Y-52687771D01*
X134476190Y-52687771D02*
X134571428Y-52735390D01*
X134571428Y-52735390D02*
X134619047Y-52783009D01*
X134619047Y-52783009D02*
X134666666Y-52878247D01*
X134666666Y-52878247D02*
X134666666Y-53116342D01*
X134666666Y-53116342D02*
X134619047Y-53211580D01*
X134619047Y-53211580D02*
X134571428Y-53259200D01*
X134571428Y-53259200D02*
X134476190Y-53306819D01*
X134476190Y-53306819D02*
X134190476Y-53306819D01*
X134190476Y-53306819D02*
X134095238Y-53259200D01*
X134095238Y-53259200D02*
X134047619Y-53211580D01*
X44754819Y-50388094D02*
X43754819Y-50388094D01*
X43754819Y-50388094D02*
X43754819Y-50149999D01*
X43754819Y-50149999D02*
X43802438Y-50007142D01*
X43802438Y-50007142D02*
X43897676Y-49911904D01*
X43897676Y-49911904D02*
X43992914Y-49864285D01*
X43992914Y-49864285D02*
X44183390Y-49816666D01*
X44183390Y-49816666D02*
X44326247Y-49816666D01*
X44326247Y-49816666D02*
X44516723Y-49864285D01*
X44516723Y-49864285D02*
X44611961Y-49911904D01*
X44611961Y-49911904D02*
X44707200Y-50007142D01*
X44707200Y-50007142D02*
X44754819Y-50149999D01*
X44754819Y-50149999D02*
X44754819Y-50388094D01*
X44754819Y-48864285D02*
X44754819Y-49435713D01*
X44754819Y-49149999D02*
X43754819Y-49149999D01*
X43754819Y-49149999D02*
X43897676Y-49245237D01*
X43897676Y-49245237D02*
X43992914Y-49340475D01*
X43992914Y-49340475D02*
X44040533Y-49435713D01*
X72611905Y-100584819D02*
X72611905Y-99584819D01*
X72611905Y-99584819D02*
X72850000Y-99584819D01*
X72850000Y-99584819D02*
X72992857Y-99632438D01*
X72992857Y-99632438D02*
X73088095Y-99727676D01*
X73088095Y-99727676D02*
X73135714Y-99822914D01*
X73135714Y-99822914D02*
X73183333Y-100013390D01*
X73183333Y-100013390D02*
X73183333Y-100156247D01*
X73183333Y-100156247D02*
X73135714Y-100346723D01*
X73135714Y-100346723D02*
X73088095Y-100441961D01*
X73088095Y-100441961D02*
X72992857Y-100537200D01*
X72992857Y-100537200D02*
X72850000Y-100584819D01*
X72850000Y-100584819D02*
X72611905Y-100584819D01*
X73516667Y-99584819D02*
X74183333Y-99584819D01*
X74183333Y-99584819D02*
X73754762Y-100584819D01*
X120782142Y-89329580D02*
X120734523Y-89377200D01*
X120734523Y-89377200D02*
X120591666Y-89424819D01*
X120591666Y-89424819D02*
X120496428Y-89424819D01*
X120496428Y-89424819D02*
X120353571Y-89377200D01*
X120353571Y-89377200D02*
X120258333Y-89281961D01*
X120258333Y-89281961D02*
X120210714Y-89186723D01*
X120210714Y-89186723D02*
X120163095Y-88996247D01*
X120163095Y-88996247D02*
X120163095Y-88853390D01*
X120163095Y-88853390D02*
X120210714Y-88662914D01*
X120210714Y-88662914D02*
X120258333Y-88567676D01*
X120258333Y-88567676D02*
X120353571Y-88472438D01*
X120353571Y-88472438D02*
X120496428Y-88424819D01*
X120496428Y-88424819D02*
X120591666Y-88424819D01*
X120591666Y-88424819D02*
X120734523Y-88472438D01*
X120734523Y-88472438D02*
X120782142Y-88520057D01*
X121734523Y-89424819D02*
X121163095Y-89424819D01*
X121448809Y-89424819D02*
X121448809Y-88424819D01*
X121448809Y-88424819D02*
X121353571Y-88567676D01*
X121353571Y-88567676D02*
X121258333Y-88662914D01*
X121258333Y-88662914D02*
X121163095Y-88710533D01*
X122591666Y-88424819D02*
X122401190Y-88424819D01*
X122401190Y-88424819D02*
X122305952Y-88472438D01*
X122305952Y-88472438D02*
X122258333Y-88520057D01*
X122258333Y-88520057D02*
X122163095Y-88662914D01*
X122163095Y-88662914D02*
X122115476Y-88853390D01*
X122115476Y-88853390D02*
X122115476Y-89234342D01*
X122115476Y-89234342D02*
X122163095Y-89329580D01*
X122163095Y-89329580D02*
X122210714Y-89377200D01*
X122210714Y-89377200D02*
X122305952Y-89424819D01*
X122305952Y-89424819D02*
X122496428Y-89424819D01*
X122496428Y-89424819D02*
X122591666Y-89377200D01*
X122591666Y-89377200D02*
X122639285Y-89329580D01*
X122639285Y-89329580D02*
X122686904Y-89234342D01*
X122686904Y-89234342D02*
X122686904Y-88996247D01*
X122686904Y-88996247D02*
X122639285Y-88901009D01*
X122639285Y-88901009D02*
X122591666Y-88853390D01*
X122591666Y-88853390D02*
X122496428Y-88805771D01*
X122496428Y-88805771D02*
X122305952Y-88805771D01*
X122305952Y-88805771D02*
X122210714Y-88853390D01*
X122210714Y-88853390D02*
X122163095Y-88901009D01*
X122163095Y-88901009D02*
X122115476Y-88996247D01*
X142384819Y-77467857D02*
X141908628Y-77801190D01*
X142384819Y-78039285D02*
X141384819Y-78039285D01*
X141384819Y-78039285D02*
X141384819Y-77658333D01*
X141384819Y-77658333D02*
X141432438Y-77563095D01*
X141432438Y-77563095D02*
X141480057Y-77515476D01*
X141480057Y-77515476D02*
X141575295Y-77467857D01*
X141575295Y-77467857D02*
X141718152Y-77467857D01*
X141718152Y-77467857D02*
X141813390Y-77515476D01*
X141813390Y-77515476D02*
X141861009Y-77563095D01*
X141861009Y-77563095D02*
X141908628Y-77658333D01*
X141908628Y-77658333D02*
X141908628Y-78039285D01*
X142384819Y-76515476D02*
X142384819Y-77086904D01*
X142384819Y-76801190D02*
X141384819Y-76801190D01*
X141384819Y-76801190D02*
X141527676Y-76896428D01*
X141527676Y-76896428D02*
X141622914Y-76991666D01*
X141622914Y-76991666D02*
X141670533Y-77086904D01*
X141480057Y-76134523D02*
X141432438Y-76086904D01*
X141432438Y-76086904D02*
X141384819Y-75991666D01*
X141384819Y-75991666D02*
X141384819Y-75753571D01*
X141384819Y-75753571D02*
X141432438Y-75658333D01*
X141432438Y-75658333D02*
X141480057Y-75610714D01*
X141480057Y-75610714D02*
X141575295Y-75563095D01*
X141575295Y-75563095D02*
X141670533Y-75563095D01*
X141670533Y-75563095D02*
X141813390Y-75610714D01*
X141813390Y-75610714D02*
X142384819Y-76182142D01*
X142384819Y-76182142D02*
X142384819Y-75563095D01*
X58767261Y-79950057D02*
X58672023Y-79902438D01*
X58672023Y-79902438D02*
X58576785Y-79807200D01*
X58576785Y-79807200D02*
X58433928Y-79664342D01*
X58433928Y-79664342D02*
X58338690Y-79616723D01*
X58338690Y-79616723D02*
X58243452Y-79616723D01*
X58291071Y-79854819D02*
X58195833Y-79807200D01*
X58195833Y-79807200D02*
X58100595Y-79711961D01*
X58100595Y-79711961D02*
X58052976Y-79521485D01*
X58052976Y-79521485D02*
X58052976Y-79188152D01*
X58052976Y-79188152D02*
X58100595Y-78997676D01*
X58100595Y-78997676D02*
X58195833Y-78902438D01*
X58195833Y-78902438D02*
X58291071Y-78854819D01*
X58291071Y-78854819D02*
X58481547Y-78854819D01*
X58481547Y-78854819D02*
X58576785Y-78902438D01*
X58576785Y-78902438D02*
X58672023Y-78997676D01*
X58672023Y-78997676D02*
X58719642Y-79188152D01*
X58719642Y-79188152D02*
X58719642Y-79521485D01*
X58719642Y-79521485D02*
X58672023Y-79711961D01*
X58672023Y-79711961D02*
X58576785Y-79807200D01*
X58576785Y-79807200D02*
X58481547Y-79854819D01*
X58481547Y-79854819D02*
X58291071Y-79854819D01*
X59052976Y-78854819D02*
X59672023Y-78854819D01*
X59672023Y-78854819D02*
X59338690Y-79235771D01*
X59338690Y-79235771D02*
X59481547Y-79235771D01*
X59481547Y-79235771D02*
X59576785Y-79283390D01*
X59576785Y-79283390D02*
X59624404Y-79331009D01*
X59624404Y-79331009D02*
X59672023Y-79426247D01*
X59672023Y-79426247D02*
X59672023Y-79664342D01*
X59672023Y-79664342D02*
X59624404Y-79759580D01*
X59624404Y-79759580D02*
X59576785Y-79807200D01*
X59576785Y-79807200D02*
X59481547Y-79854819D01*
X59481547Y-79854819D02*
X59195833Y-79854819D01*
X59195833Y-79854819D02*
X59100595Y-79807200D01*
X59100595Y-79807200D02*
X59052976Y-79759580D01*
X106954819Y-100063333D02*
X107669104Y-100063333D01*
X107669104Y-100063333D02*
X107811961Y-100110952D01*
X107811961Y-100110952D02*
X107907200Y-100206190D01*
X107907200Y-100206190D02*
X107954819Y-100349047D01*
X107954819Y-100349047D02*
X107954819Y-100444285D01*
X106954819Y-99110952D02*
X106954819Y-99587142D01*
X106954819Y-99587142D02*
X107431009Y-99634761D01*
X107431009Y-99634761D02*
X107383390Y-99587142D01*
X107383390Y-99587142D02*
X107335771Y-99491904D01*
X107335771Y-99491904D02*
X107335771Y-99253809D01*
X107335771Y-99253809D02*
X107383390Y-99158571D01*
X107383390Y-99158571D02*
X107431009Y-99110952D01*
X107431009Y-99110952D02*
X107526247Y-99063333D01*
X107526247Y-99063333D02*
X107764342Y-99063333D01*
X107764342Y-99063333D02*
X107859580Y-99110952D01*
X107859580Y-99110952D02*
X107907200Y-99158571D01*
X107907200Y-99158571D02*
X107954819Y-99253809D01*
X107954819Y-99253809D02*
X107954819Y-99491904D01*
X107954819Y-99491904D02*
X107907200Y-99587142D01*
X107907200Y-99587142D02*
X107859580Y-99634761D01*
X91706667Y-51907200D02*
X91849524Y-51954819D01*
X91849524Y-51954819D02*
X92087619Y-51954819D01*
X92087619Y-51954819D02*
X92182857Y-51907200D01*
X92182857Y-51907200D02*
X92230476Y-51859580D01*
X92230476Y-51859580D02*
X92278095Y-51764342D01*
X92278095Y-51764342D02*
X92278095Y-51669104D01*
X92278095Y-51669104D02*
X92230476Y-51573866D01*
X92230476Y-51573866D02*
X92182857Y-51526247D01*
X92182857Y-51526247D02*
X92087619Y-51478628D01*
X92087619Y-51478628D02*
X91897143Y-51431009D01*
X91897143Y-51431009D02*
X91801905Y-51383390D01*
X91801905Y-51383390D02*
X91754286Y-51335771D01*
X91754286Y-51335771D02*
X91706667Y-51240533D01*
X91706667Y-51240533D02*
X91706667Y-51145295D01*
X91706667Y-51145295D02*
X91754286Y-51050057D01*
X91754286Y-51050057D02*
X91801905Y-51002438D01*
X91801905Y-51002438D02*
X91897143Y-50954819D01*
X91897143Y-50954819D02*
X92135238Y-50954819D01*
X92135238Y-50954819D02*
X92278095Y-51002438D01*
X92611429Y-50954819D02*
X92849524Y-51954819D01*
X92849524Y-51954819D02*
X93040000Y-51240533D01*
X93040000Y-51240533D02*
X93230476Y-51954819D01*
X93230476Y-51954819D02*
X93468572Y-50954819D01*
X94373333Y-51954819D02*
X93801905Y-51954819D01*
X94087619Y-51954819D02*
X94087619Y-50954819D01*
X94087619Y-50954819D02*
X93992381Y-51097676D01*
X93992381Y-51097676D02*
X93897143Y-51192914D01*
X93897143Y-51192914D02*
X93801905Y-51240533D01*
X139299405Y-80004819D02*
X139299405Y-80814342D01*
X139299405Y-80814342D02*
X139347024Y-80909580D01*
X139347024Y-80909580D02*
X139394643Y-80957200D01*
X139394643Y-80957200D02*
X139489881Y-81004819D01*
X139489881Y-81004819D02*
X139680357Y-81004819D01*
X139680357Y-81004819D02*
X139775595Y-80957200D01*
X139775595Y-80957200D02*
X139823214Y-80909580D01*
X139823214Y-80909580D02*
X139870833Y-80814342D01*
X139870833Y-80814342D02*
X139870833Y-80004819D01*
X140870833Y-81004819D02*
X140299405Y-81004819D01*
X140585119Y-81004819D02*
X140585119Y-80004819D01*
X140585119Y-80004819D02*
X140489881Y-80147676D01*
X140489881Y-80147676D02*
X140394643Y-80242914D01*
X140394643Y-80242914D02*
X140299405Y-80290533D01*
X141251786Y-80100057D02*
X141299405Y-80052438D01*
X141299405Y-80052438D02*
X141394643Y-80004819D01*
X141394643Y-80004819D02*
X141632738Y-80004819D01*
X141632738Y-80004819D02*
X141727976Y-80052438D01*
X141727976Y-80052438D02*
X141775595Y-80100057D01*
X141775595Y-80100057D02*
X141823214Y-80195295D01*
X141823214Y-80195295D02*
X141823214Y-80290533D01*
X141823214Y-80290533D02*
X141775595Y-80433390D01*
X141775595Y-80433390D02*
X141204167Y-81004819D01*
X141204167Y-81004819D02*
X141823214Y-81004819D01*
X67882142Y-62174819D02*
X67548809Y-61698628D01*
X67310714Y-62174819D02*
X67310714Y-61174819D01*
X67310714Y-61174819D02*
X67691666Y-61174819D01*
X67691666Y-61174819D02*
X67786904Y-61222438D01*
X67786904Y-61222438D02*
X67834523Y-61270057D01*
X67834523Y-61270057D02*
X67882142Y-61365295D01*
X67882142Y-61365295D02*
X67882142Y-61508152D01*
X67882142Y-61508152D02*
X67834523Y-61603390D01*
X67834523Y-61603390D02*
X67786904Y-61651009D01*
X67786904Y-61651009D02*
X67691666Y-61698628D01*
X67691666Y-61698628D02*
X67310714Y-61698628D01*
X68834523Y-62174819D02*
X68263095Y-62174819D01*
X68548809Y-62174819D02*
X68548809Y-61174819D01*
X68548809Y-61174819D02*
X68453571Y-61317676D01*
X68453571Y-61317676D02*
X68358333Y-61412914D01*
X68358333Y-61412914D02*
X68263095Y-61460533D01*
X69167857Y-61174819D02*
X69834523Y-61174819D01*
X69834523Y-61174819D02*
X69405952Y-62174819D01*
X185008333Y-46024819D02*
X184675000Y-45548628D01*
X184436905Y-46024819D02*
X184436905Y-45024819D01*
X184436905Y-45024819D02*
X184817857Y-45024819D01*
X184817857Y-45024819D02*
X184913095Y-45072438D01*
X184913095Y-45072438D02*
X184960714Y-45120057D01*
X184960714Y-45120057D02*
X185008333Y-45215295D01*
X185008333Y-45215295D02*
X185008333Y-45358152D01*
X185008333Y-45358152D02*
X184960714Y-45453390D01*
X184960714Y-45453390D02*
X184913095Y-45501009D01*
X184913095Y-45501009D02*
X184817857Y-45548628D01*
X184817857Y-45548628D02*
X184436905Y-45548628D01*
X185865476Y-45024819D02*
X185675000Y-45024819D01*
X185675000Y-45024819D02*
X185579762Y-45072438D01*
X185579762Y-45072438D02*
X185532143Y-45120057D01*
X185532143Y-45120057D02*
X185436905Y-45262914D01*
X185436905Y-45262914D02*
X185389286Y-45453390D01*
X185389286Y-45453390D02*
X185389286Y-45834342D01*
X185389286Y-45834342D02*
X185436905Y-45929580D01*
X185436905Y-45929580D02*
X185484524Y-45977200D01*
X185484524Y-45977200D02*
X185579762Y-46024819D01*
X185579762Y-46024819D02*
X185770238Y-46024819D01*
X185770238Y-46024819D02*
X185865476Y-45977200D01*
X185865476Y-45977200D02*
X185913095Y-45929580D01*
X185913095Y-45929580D02*
X185960714Y-45834342D01*
X185960714Y-45834342D02*
X185960714Y-45596247D01*
X185960714Y-45596247D02*
X185913095Y-45501009D01*
X185913095Y-45501009D02*
X185865476Y-45453390D01*
X185865476Y-45453390D02*
X185770238Y-45405771D01*
X185770238Y-45405771D02*
X185579762Y-45405771D01*
X185579762Y-45405771D02*
X185484524Y-45453390D01*
X185484524Y-45453390D02*
X185436905Y-45501009D01*
X185436905Y-45501009D02*
X185389286Y-45596247D01*
X134932142Y-94484819D02*
X134598809Y-94008628D01*
X134360714Y-94484819D02*
X134360714Y-93484819D01*
X134360714Y-93484819D02*
X134741666Y-93484819D01*
X134741666Y-93484819D02*
X134836904Y-93532438D01*
X134836904Y-93532438D02*
X134884523Y-93580057D01*
X134884523Y-93580057D02*
X134932142Y-93675295D01*
X134932142Y-93675295D02*
X134932142Y-93818152D01*
X134932142Y-93818152D02*
X134884523Y-93913390D01*
X134884523Y-93913390D02*
X134836904Y-93961009D01*
X134836904Y-93961009D02*
X134741666Y-94008628D01*
X134741666Y-94008628D02*
X134360714Y-94008628D01*
X135313095Y-93580057D02*
X135360714Y-93532438D01*
X135360714Y-93532438D02*
X135455952Y-93484819D01*
X135455952Y-93484819D02*
X135694047Y-93484819D01*
X135694047Y-93484819D02*
X135789285Y-93532438D01*
X135789285Y-93532438D02*
X135836904Y-93580057D01*
X135836904Y-93580057D02*
X135884523Y-93675295D01*
X135884523Y-93675295D02*
X135884523Y-93770533D01*
X135884523Y-93770533D02*
X135836904Y-93913390D01*
X135836904Y-93913390D02*
X135265476Y-94484819D01*
X135265476Y-94484819D02*
X135884523Y-94484819D01*
X136265476Y-93580057D02*
X136313095Y-93532438D01*
X136313095Y-93532438D02*
X136408333Y-93484819D01*
X136408333Y-93484819D02*
X136646428Y-93484819D01*
X136646428Y-93484819D02*
X136741666Y-93532438D01*
X136741666Y-93532438D02*
X136789285Y-93580057D01*
X136789285Y-93580057D02*
X136836904Y-93675295D01*
X136836904Y-93675295D02*
X136836904Y-93770533D01*
X136836904Y-93770533D02*
X136789285Y-93913390D01*
X136789285Y-93913390D02*
X136217857Y-94484819D01*
X136217857Y-94484819D02*
X136836904Y-94484819D01*
X197954819Y-123773333D02*
X198669104Y-123773333D01*
X198669104Y-123773333D02*
X198811961Y-123820952D01*
X198811961Y-123820952D02*
X198907200Y-123916190D01*
X198907200Y-123916190D02*
X198954819Y-124059047D01*
X198954819Y-124059047D02*
X198954819Y-124154285D01*
X198383390Y-123154285D02*
X198335771Y-123249523D01*
X198335771Y-123249523D02*
X198288152Y-123297142D01*
X198288152Y-123297142D02*
X198192914Y-123344761D01*
X198192914Y-123344761D02*
X198145295Y-123344761D01*
X198145295Y-123344761D02*
X198050057Y-123297142D01*
X198050057Y-123297142D02*
X198002438Y-123249523D01*
X198002438Y-123249523D02*
X197954819Y-123154285D01*
X197954819Y-123154285D02*
X197954819Y-122963809D01*
X197954819Y-122963809D02*
X198002438Y-122868571D01*
X198002438Y-122868571D02*
X198050057Y-122820952D01*
X198050057Y-122820952D02*
X198145295Y-122773333D01*
X198145295Y-122773333D02*
X198192914Y-122773333D01*
X198192914Y-122773333D02*
X198288152Y-122820952D01*
X198288152Y-122820952D02*
X198335771Y-122868571D01*
X198335771Y-122868571D02*
X198383390Y-122963809D01*
X198383390Y-122963809D02*
X198383390Y-123154285D01*
X198383390Y-123154285D02*
X198431009Y-123249523D01*
X198431009Y-123249523D02*
X198478628Y-123297142D01*
X198478628Y-123297142D02*
X198573866Y-123344761D01*
X198573866Y-123344761D02*
X198764342Y-123344761D01*
X198764342Y-123344761D02*
X198859580Y-123297142D01*
X198859580Y-123297142D02*
X198907200Y-123249523D01*
X198907200Y-123249523D02*
X198954819Y-123154285D01*
X198954819Y-123154285D02*
X198954819Y-122963809D01*
X198954819Y-122963809D02*
X198907200Y-122868571D01*
X198907200Y-122868571D02*
X198859580Y-122820952D01*
X198859580Y-122820952D02*
X198764342Y-122773333D01*
X198764342Y-122773333D02*
X198573866Y-122773333D01*
X198573866Y-122773333D02*
X198478628Y-122820952D01*
X198478628Y-122820952D02*
X198431009Y-122868571D01*
X198431009Y-122868571D02*
X198383390Y-122963809D01*
X124232142Y-102084819D02*
X123898809Y-101608628D01*
X123660714Y-102084819D02*
X123660714Y-101084819D01*
X123660714Y-101084819D02*
X124041666Y-101084819D01*
X124041666Y-101084819D02*
X124136904Y-101132438D01*
X124136904Y-101132438D02*
X124184523Y-101180057D01*
X124184523Y-101180057D02*
X124232142Y-101275295D01*
X124232142Y-101275295D02*
X124232142Y-101418152D01*
X124232142Y-101418152D02*
X124184523Y-101513390D01*
X124184523Y-101513390D02*
X124136904Y-101561009D01*
X124136904Y-101561009D02*
X124041666Y-101608628D01*
X124041666Y-101608628D02*
X123660714Y-101608628D01*
X124613095Y-101180057D02*
X124660714Y-101132438D01*
X124660714Y-101132438D02*
X124755952Y-101084819D01*
X124755952Y-101084819D02*
X124994047Y-101084819D01*
X124994047Y-101084819D02*
X125089285Y-101132438D01*
X125089285Y-101132438D02*
X125136904Y-101180057D01*
X125136904Y-101180057D02*
X125184523Y-101275295D01*
X125184523Y-101275295D02*
X125184523Y-101370533D01*
X125184523Y-101370533D02*
X125136904Y-101513390D01*
X125136904Y-101513390D02*
X124565476Y-102084819D01*
X124565476Y-102084819D02*
X125184523Y-102084819D01*
X125803571Y-101084819D02*
X125898809Y-101084819D01*
X125898809Y-101084819D02*
X125994047Y-101132438D01*
X125994047Y-101132438D02*
X126041666Y-101180057D01*
X126041666Y-101180057D02*
X126089285Y-101275295D01*
X126089285Y-101275295D02*
X126136904Y-101465771D01*
X126136904Y-101465771D02*
X126136904Y-101703866D01*
X126136904Y-101703866D02*
X126089285Y-101894342D01*
X126089285Y-101894342D02*
X126041666Y-101989580D01*
X126041666Y-101989580D02*
X125994047Y-102037200D01*
X125994047Y-102037200D02*
X125898809Y-102084819D01*
X125898809Y-102084819D02*
X125803571Y-102084819D01*
X125803571Y-102084819D02*
X125708333Y-102037200D01*
X125708333Y-102037200D02*
X125660714Y-101989580D01*
X125660714Y-101989580D02*
X125613095Y-101894342D01*
X125613095Y-101894342D02*
X125565476Y-101703866D01*
X125565476Y-101703866D02*
X125565476Y-101465771D01*
X125565476Y-101465771D02*
X125613095Y-101275295D01*
X125613095Y-101275295D02*
X125660714Y-101180057D01*
X125660714Y-101180057D02*
X125708333Y-101132438D01*
X125708333Y-101132438D02*
X125803571Y-101084819D01*
X103589580Y-43367857D02*
X103637200Y-43415476D01*
X103637200Y-43415476D02*
X103684819Y-43558333D01*
X103684819Y-43558333D02*
X103684819Y-43653571D01*
X103684819Y-43653571D02*
X103637200Y-43796428D01*
X103637200Y-43796428D02*
X103541961Y-43891666D01*
X103541961Y-43891666D02*
X103446723Y-43939285D01*
X103446723Y-43939285D02*
X103256247Y-43986904D01*
X103256247Y-43986904D02*
X103113390Y-43986904D01*
X103113390Y-43986904D02*
X102922914Y-43939285D01*
X102922914Y-43939285D02*
X102827676Y-43891666D01*
X102827676Y-43891666D02*
X102732438Y-43796428D01*
X102732438Y-43796428D02*
X102684819Y-43653571D01*
X102684819Y-43653571D02*
X102684819Y-43558333D01*
X102684819Y-43558333D02*
X102732438Y-43415476D01*
X102732438Y-43415476D02*
X102780057Y-43367857D01*
X103684819Y-42415476D02*
X103684819Y-42986904D01*
X103684819Y-42701190D02*
X102684819Y-42701190D01*
X102684819Y-42701190D02*
X102827676Y-42796428D01*
X102827676Y-42796428D02*
X102922914Y-42891666D01*
X102922914Y-42891666D02*
X102970533Y-42986904D01*
X102684819Y-41796428D02*
X102684819Y-41701190D01*
X102684819Y-41701190D02*
X102732438Y-41605952D01*
X102732438Y-41605952D02*
X102780057Y-41558333D01*
X102780057Y-41558333D02*
X102875295Y-41510714D01*
X102875295Y-41510714D02*
X103065771Y-41463095D01*
X103065771Y-41463095D02*
X103303866Y-41463095D01*
X103303866Y-41463095D02*
X103494342Y-41510714D01*
X103494342Y-41510714D02*
X103589580Y-41558333D01*
X103589580Y-41558333D02*
X103637200Y-41605952D01*
X103637200Y-41605952D02*
X103684819Y-41701190D01*
X103684819Y-41701190D02*
X103684819Y-41796428D01*
X103684819Y-41796428D02*
X103637200Y-41891666D01*
X103637200Y-41891666D02*
X103589580Y-41939285D01*
X103589580Y-41939285D02*
X103494342Y-41986904D01*
X103494342Y-41986904D02*
X103303866Y-42034523D01*
X103303866Y-42034523D02*
X103065771Y-42034523D01*
X103065771Y-42034523D02*
X102875295Y-41986904D01*
X102875295Y-41986904D02*
X102780057Y-41939285D01*
X102780057Y-41939285D02*
X102732438Y-41891666D01*
X102732438Y-41891666D02*
X102684819Y-41796428D01*
X175132142Y-68024819D02*
X174798809Y-67548628D01*
X174560714Y-68024819D02*
X174560714Y-67024819D01*
X174560714Y-67024819D02*
X174941666Y-67024819D01*
X174941666Y-67024819D02*
X175036904Y-67072438D01*
X175036904Y-67072438D02*
X175084523Y-67120057D01*
X175084523Y-67120057D02*
X175132142Y-67215295D01*
X175132142Y-67215295D02*
X175132142Y-67358152D01*
X175132142Y-67358152D02*
X175084523Y-67453390D01*
X175084523Y-67453390D02*
X175036904Y-67501009D01*
X175036904Y-67501009D02*
X174941666Y-67548628D01*
X174941666Y-67548628D02*
X174560714Y-67548628D01*
X176084523Y-68024819D02*
X175513095Y-68024819D01*
X175798809Y-68024819D02*
X175798809Y-67024819D01*
X175798809Y-67024819D02*
X175703571Y-67167676D01*
X175703571Y-67167676D02*
X175608333Y-67262914D01*
X175608333Y-67262914D02*
X175513095Y-67310533D01*
X176941666Y-67358152D02*
X176941666Y-68024819D01*
X176703571Y-66977200D02*
X176465476Y-67691485D01*
X176465476Y-67691485D02*
X177084523Y-67691485D01*
X75238095Y-50506819D02*
X75809523Y-50506819D01*
X75523809Y-51506819D02*
X75523809Y-50506819D01*
X76142857Y-51506819D02*
X76142857Y-50506819D01*
X76142857Y-50506819D02*
X76523809Y-50506819D01*
X76523809Y-50506819D02*
X76619047Y-50554438D01*
X76619047Y-50554438D02*
X76666666Y-50602057D01*
X76666666Y-50602057D02*
X76714285Y-50697295D01*
X76714285Y-50697295D02*
X76714285Y-50840152D01*
X76714285Y-50840152D02*
X76666666Y-50935390D01*
X76666666Y-50935390D02*
X76619047Y-50983009D01*
X76619047Y-50983009D02*
X76523809Y-51030628D01*
X76523809Y-51030628D02*
X76142857Y-51030628D01*
X77666666Y-51506819D02*
X77095238Y-51506819D01*
X77380952Y-51506819D02*
X77380952Y-50506819D01*
X77380952Y-50506819D02*
X77285714Y-50649676D01*
X77285714Y-50649676D02*
X77190476Y-50744914D01*
X77190476Y-50744914D02*
X77095238Y-50792533D01*
X197552319Y-84833333D02*
X198266604Y-84833333D01*
X198266604Y-84833333D02*
X198409461Y-84880952D01*
X198409461Y-84880952D02*
X198504700Y-84976190D01*
X198504700Y-84976190D02*
X198552319Y-85119047D01*
X198552319Y-85119047D02*
X198552319Y-85214285D01*
X197552319Y-83928571D02*
X197552319Y-84119047D01*
X197552319Y-84119047D02*
X197599938Y-84214285D01*
X197599938Y-84214285D02*
X197647557Y-84261904D01*
X197647557Y-84261904D02*
X197790414Y-84357142D01*
X197790414Y-84357142D02*
X197980890Y-84404761D01*
X197980890Y-84404761D02*
X198361842Y-84404761D01*
X198361842Y-84404761D02*
X198457080Y-84357142D01*
X198457080Y-84357142D02*
X198504700Y-84309523D01*
X198504700Y-84309523D02*
X198552319Y-84214285D01*
X198552319Y-84214285D02*
X198552319Y-84023809D01*
X198552319Y-84023809D02*
X198504700Y-83928571D01*
X198504700Y-83928571D02*
X198457080Y-83880952D01*
X198457080Y-83880952D02*
X198361842Y-83833333D01*
X198361842Y-83833333D02*
X198123747Y-83833333D01*
X198123747Y-83833333D02*
X198028509Y-83880952D01*
X198028509Y-83880952D02*
X197980890Y-83928571D01*
X197980890Y-83928571D02*
X197933271Y-84023809D01*
X197933271Y-84023809D02*
X197933271Y-84214285D01*
X197933271Y-84214285D02*
X197980890Y-84309523D01*
X197980890Y-84309523D02*
X198028509Y-84357142D01*
X198028509Y-84357142D02*
X198123747Y-84404761D01*
X56454819Y-100414285D02*
X55454819Y-100414285D01*
X55454819Y-100414285D02*
X55454819Y-100176190D01*
X55454819Y-100176190D02*
X55502438Y-100033333D01*
X55502438Y-100033333D02*
X55597676Y-99938095D01*
X55597676Y-99938095D02*
X55692914Y-99890476D01*
X55692914Y-99890476D02*
X55883390Y-99842857D01*
X55883390Y-99842857D02*
X56026247Y-99842857D01*
X56026247Y-99842857D02*
X56216723Y-99890476D01*
X56216723Y-99890476D02*
X56311961Y-99938095D01*
X56311961Y-99938095D02*
X56407200Y-100033333D01*
X56407200Y-100033333D02*
X56454819Y-100176190D01*
X56454819Y-100176190D02*
X56454819Y-100414285D01*
X56454819Y-98890476D02*
X56454819Y-99461904D01*
X56454819Y-99176190D02*
X55454819Y-99176190D01*
X55454819Y-99176190D02*
X55597676Y-99271428D01*
X55597676Y-99271428D02*
X55692914Y-99366666D01*
X55692914Y-99366666D02*
X55740533Y-99461904D01*
X55454819Y-98271428D02*
X55454819Y-98176190D01*
X55454819Y-98176190D02*
X55502438Y-98080952D01*
X55502438Y-98080952D02*
X55550057Y-98033333D01*
X55550057Y-98033333D02*
X55645295Y-97985714D01*
X55645295Y-97985714D02*
X55835771Y-97938095D01*
X55835771Y-97938095D02*
X56073866Y-97938095D01*
X56073866Y-97938095D02*
X56264342Y-97985714D01*
X56264342Y-97985714D02*
X56359580Y-98033333D01*
X56359580Y-98033333D02*
X56407200Y-98080952D01*
X56407200Y-98080952D02*
X56454819Y-98176190D01*
X56454819Y-98176190D02*
X56454819Y-98271428D01*
X56454819Y-98271428D02*
X56407200Y-98366666D01*
X56407200Y-98366666D02*
X56359580Y-98414285D01*
X56359580Y-98414285D02*
X56264342Y-98461904D01*
X56264342Y-98461904D02*
X56073866Y-98509523D01*
X56073866Y-98509523D02*
X55835771Y-98509523D01*
X55835771Y-98509523D02*
X55645295Y-98461904D01*
X55645295Y-98461904D02*
X55550057Y-98414285D01*
X55550057Y-98414285D02*
X55502438Y-98366666D01*
X55502438Y-98366666D02*
X55454819Y-98271428D01*
X166238095Y-61454819D02*
X166238095Y-62264342D01*
X166238095Y-62264342D02*
X166285714Y-62359580D01*
X166285714Y-62359580D02*
X166333333Y-62407200D01*
X166333333Y-62407200D02*
X166428571Y-62454819D01*
X166428571Y-62454819D02*
X166619047Y-62454819D01*
X166619047Y-62454819D02*
X166714285Y-62407200D01*
X166714285Y-62407200D02*
X166761904Y-62359580D01*
X166761904Y-62359580D02*
X166809523Y-62264342D01*
X166809523Y-62264342D02*
X166809523Y-61454819D01*
X167333333Y-62454819D02*
X167523809Y-62454819D01*
X167523809Y-62454819D02*
X167619047Y-62407200D01*
X167619047Y-62407200D02*
X167666666Y-62359580D01*
X167666666Y-62359580D02*
X167761904Y-62216723D01*
X167761904Y-62216723D02*
X167809523Y-62026247D01*
X167809523Y-62026247D02*
X167809523Y-61645295D01*
X167809523Y-61645295D02*
X167761904Y-61550057D01*
X167761904Y-61550057D02*
X167714285Y-61502438D01*
X167714285Y-61502438D02*
X167619047Y-61454819D01*
X167619047Y-61454819D02*
X167428571Y-61454819D01*
X167428571Y-61454819D02*
X167333333Y-61502438D01*
X167333333Y-61502438D02*
X167285714Y-61550057D01*
X167285714Y-61550057D02*
X167238095Y-61645295D01*
X167238095Y-61645295D02*
X167238095Y-61883390D01*
X167238095Y-61883390D02*
X167285714Y-61978628D01*
X167285714Y-61978628D02*
X167333333Y-62026247D01*
X167333333Y-62026247D02*
X167428571Y-62073866D01*
X167428571Y-62073866D02*
X167619047Y-62073866D01*
X167619047Y-62073866D02*
X167714285Y-62026247D01*
X167714285Y-62026247D02*
X167761904Y-61978628D01*
X167761904Y-61978628D02*
X167809523Y-61883390D01*
X181838095Y-49854819D02*
X181838095Y-50664342D01*
X181838095Y-50664342D02*
X181885714Y-50759580D01*
X181885714Y-50759580D02*
X181933333Y-50807200D01*
X181933333Y-50807200D02*
X182028571Y-50854819D01*
X182028571Y-50854819D02*
X182219047Y-50854819D01*
X182219047Y-50854819D02*
X182314285Y-50807200D01*
X182314285Y-50807200D02*
X182361904Y-50759580D01*
X182361904Y-50759580D02*
X182409523Y-50664342D01*
X182409523Y-50664342D02*
X182409523Y-49854819D01*
X182790476Y-49854819D02*
X183457142Y-49854819D01*
X183457142Y-49854819D02*
X183028571Y-50854819D01*
X131582142Y-63884819D02*
X131248809Y-63408628D01*
X131010714Y-63884819D02*
X131010714Y-62884819D01*
X131010714Y-62884819D02*
X131391666Y-62884819D01*
X131391666Y-62884819D02*
X131486904Y-62932438D01*
X131486904Y-62932438D02*
X131534523Y-62980057D01*
X131534523Y-62980057D02*
X131582142Y-63075295D01*
X131582142Y-63075295D02*
X131582142Y-63218152D01*
X131582142Y-63218152D02*
X131534523Y-63313390D01*
X131534523Y-63313390D02*
X131486904Y-63361009D01*
X131486904Y-63361009D02*
X131391666Y-63408628D01*
X131391666Y-63408628D02*
X131010714Y-63408628D01*
X131963095Y-62980057D02*
X132010714Y-62932438D01*
X132010714Y-62932438D02*
X132105952Y-62884819D01*
X132105952Y-62884819D02*
X132344047Y-62884819D01*
X132344047Y-62884819D02*
X132439285Y-62932438D01*
X132439285Y-62932438D02*
X132486904Y-62980057D01*
X132486904Y-62980057D02*
X132534523Y-63075295D01*
X132534523Y-63075295D02*
X132534523Y-63170533D01*
X132534523Y-63170533D02*
X132486904Y-63313390D01*
X132486904Y-63313390D02*
X131915476Y-63884819D01*
X131915476Y-63884819D02*
X132534523Y-63884819D01*
X133105952Y-63313390D02*
X133010714Y-63265771D01*
X133010714Y-63265771D02*
X132963095Y-63218152D01*
X132963095Y-63218152D02*
X132915476Y-63122914D01*
X132915476Y-63122914D02*
X132915476Y-63075295D01*
X132915476Y-63075295D02*
X132963095Y-62980057D01*
X132963095Y-62980057D02*
X133010714Y-62932438D01*
X133010714Y-62932438D02*
X133105952Y-62884819D01*
X133105952Y-62884819D02*
X133296428Y-62884819D01*
X133296428Y-62884819D02*
X133391666Y-62932438D01*
X133391666Y-62932438D02*
X133439285Y-62980057D01*
X133439285Y-62980057D02*
X133486904Y-63075295D01*
X133486904Y-63075295D02*
X133486904Y-63122914D01*
X133486904Y-63122914D02*
X133439285Y-63218152D01*
X133439285Y-63218152D02*
X133391666Y-63265771D01*
X133391666Y-63265771D02*
X133296428Y-63313390D01*
X133296428Y-63313390D02*
X133105952Y-63313390D01*
X133105952Y-63313390D02*
X133010714Y-63361009D01*
X133010714Y-63361009D02*
X132963095Y-63408628D01*
X132963095Y-63408628D02*
X132915476Y-63503866D01*
X132915476Y-63503866D02*
X132915476Y-63694342D01*
X132915476Y-63694342D02*
X132963095Y-63789580D01*
X132963095Y-63789580D02*
X133010714Y-63837200D01*
X133010714Y-63837200D02*
X133105952Y-63884819D01*
X133105952Y-63884819D02*
X133296428Y-63884819D01*
X133296428Y-63884819D02*
X133391666Y-63837200D01*
X133391666Y-63837200D02*
X133439285Y-63789580D01*
X133439285Y-63789580D02*
X133486904Y-63694342D01*
X133486904Y-63694342D02*
X133486904Y-63503866D01*
X133486904Y-63503866D02*
X133439285Y-63408628D01*
X133439285Y-63408628D02*
X133391666Y-63361009D01*
X133391666Y-63361009D02*
X133296428Y-63313390D01*
X147954819Y-83338094D02*
X146954819Y-83338094D01*
X146954819Y-83338094D02*
X146954819Y-83099999D01*
X146954819Y-83099999D02*
X147002438Y-82957142D01*
X147002438Y-82957142D02*
X147097676Y-82861904D01*
X147097676Y-82861904D02*
X147192914Y-82814285D01*
X147192914Y-82814285D02*
X147383390Y-82766666D01*
X147383390Y-82766666D02*
X147526247Y-82766666D01*
X147526247Y-82766666D02*
X147716723Y-82814285D01*
X147716723Y-82814285D02*
X147811961Y-82861904D01*
X147811961Y-82861904D02*
X147907200Y-82957142D01*
X147907200Y-82957142D02*
X147954819Y-83099999D01*
X147954819Y-83099999D02*
X147954819Y-83338094D01*
X147288152Y-81909523D02*
X147954819Y-81909523D01*
X146907200Y-82147618D02*
X147621485Y-82385713D01*
X147621485Y-82385713D02*
X147621485Y-81766666D01*
X183694819Y-66059523D02*
X184409104Y-66059523D01*
X184409104Y-66059523D02*
X184551961Y-66107142D01*
X184551961Y-66107142D02*
X184647200Y-66202380D01*
X184647200Y-66202380D02*
X184694819Y-66345237D01*
X184694819Y-66345237D02*
X184694819Y-66440475D01*
X184694819Y-65059523D02*
X184694819Y-65630951D01*
X184694819Y-65345237D02*
X183694819Y-65345237D01*
X183694819Y-65345237D02*
X183837676Y-65440475D01*
X183837676Y-65440475D02*
X183932914Y-65535713D01*
X183932914Y-65535713D02*
X183980533Y-65630951D01*
X183694819Y-64154761D02*
X183694819Y-64630951D01*
X183694819Y-64630951D02*
X184171009Y-64678570D01*
X184171009Y-64678570D02*
X184123390Y-64630951D01*
X184123390Y-64630951D02*
X184075771Y-64535713D01*
X184075771Y-64535713D02*
X184075771Y-64297618D01*
X184075771Y-64297618D02*
X184123390Y-64202380D01*
X184123390Y-64202380D02*
X184171009Y-64154761D01*
X184171009Y-64154761D02*
X184266247Y-64107142D01*
X184266247Y-64107142D02*
X184504342Y-64107142D01*
X184504342Y-64107142D02*
X184599580Y-64154761D01*
X184599580Y-64154761D02*
X184647200Y-64202380D01*
X184647200Y-64202380D02*
X184694819Y-64297618D01*
X184694819Y-64297618D02*
X184694819Y-64535713D01*
X184694819Y-64535713D02*
X184647200Y-64630951D01*
X184647200Y-64630951D02*
X184599580Y-64678570D01*
X163731009Y-107933333D02*
X163731009Y-108266666D01*
X164254819Y-108266666D02*
X163254819Y-108266666D01*
X163254819Y-108266666D02*
X163254819Y-107790476D01*
X163254819Y-106980952D02*
X163254819Y-107171428D01*
X163254819Y-107171428D02*
X163302438Y-107266666D01*
X163302438Y-107266666D02*
X163350057Y-107314285D01*
X163350057Y-107314285D02*
X163492914Y-107409523D01*
X163492914Y-107409523D02*
X163683390Y-107457142D01*
X163683390Y-107457142D02*
X164064342Y-107457142D01*
X164064342Y-107457142D02*
X164159580Y-107409523D01*
X164159580Y-107409523D02*
X164207200Y-107361904D01*
X164207200Y-107361904D02*
X164254819Y-107266666D01*
X164254819Y-107266666D02*
X164254819Y-107076190D01*
X164254819Y-107076190D02*
X164207200Y-106980952D01*
X164207200Y-106980952D02*
X164159580Y-106933333D01*
X164159580Y-106933333D02*
X164064342Y-106885714D01*
X164064342Y-106885714D02*
X163826247Y-106885714D01*
X163826247Y-106885714D02*
X163731009Y-106933333D01*
X163731009Y-106933333D02*
X163683390Y-106980952D01*
X163683390Y-106980952D02*
X163635771Y-107076190D01*
X163635771Y-107076190D02*
X163635771Y-107266666D01*
X163635771Y-107266666D02*
X163683390Y-107361904D01*
X163683390Y-107361904D02*
X163731009Y-107409523D01*
X163731009Y-107409523D02*
X163826247Y-107457142D01*
X36839819Y-83504523D02*
X37554104Y-83504523D01*
X37554104Y-83504523D02*
X37696961Y-83552142D01*
X37696961Y-83552142D02*
X37792200Y-83647380D01*
X37792200Y-83647380D02*
X37839819Y-83790237D01*
X37839819Y-83790237D02*
X37839819Y-83885475D01*
X37839819Y-82504523D02*
X37839819Y-83075951D01*
X37839819Y-82790237D02*
X36839819Y-82790237D01*
X36839819Y-82790237D02*
X36982676Y-82885475D01*
X36982676Y-82885475D02*
X37077914Y-82980713D01*
X37077914Y-82980713D02*
X37125533Y-83075951D01*
X36839819Y-82171189D02*
X36839819Y-81552142D01*
X36839819Y-81552142D02*
X37220771Y-81885475D01*
X37220771Y-81885475D02*
X37220771Y-81742618D01*
X37220771Y-81742618D02*
X37268390Y-81647380D01*
X37268390Y-81647380D02*
X37316009Y-81599761D01*
X37316009Y-81599761D02*
X37411247Y-81552142D01*
X37411247Y-81552142D02*
X37649342Y-81552142D01*
X37649342Y-81552142D02*
X37744580Y-81599761D01*
X37744580Y-81599761D02*
X37792200Y-81647380D01*
X37792200Y-81647380D02*
X37839819Y-81742618D01*
X37839819Y-81742618D02*
X37839819Y-82028332D01*
X37839819Y-82028332D02*
X37792200Y-82123570D01*
X37792200Y-82123570D02*
X37744580Y-82171189D01*
X78754819Y-63538094D02*
X77754819Y-63538094D01*
X77754819Y-63538094D02*
X77754819Y-63299999D01*
X77754819Y-63299999D02*
X77802438Y-63157142D01*
X77802438Y-63157142D02*
X77897676Y-63061904D01*
X77897676Y-63061904D02*
X77992914Y-63014285D01*
X77992914Y-63014285D02*
X78183390Y-62966666D01*
X78183390Y-62966666D02*
X78326247Y-62966666D01*
X78326247Y-62966666D02*
X78516723Y-63014285D01*
X78516723Y-63014285D02*
X78611961Y-63061904D01*
X78611961Y-63061904D02*
X78707200Y-63157142D01*
X78707200Y-63157142D02*
X78754819Y-63299999D01*
X78754819Y-63299999D02*
X78754819Y-63538094D01*
X77850057Y-62585713D02*
X77802438Y-62538094D01*
X77802438Y-62538094D02*
X77754819Y-62442856D01*
X77754819Y-62442856D02*
X77754819Y-62204761D01*
X77754819Y-62204761D02*
X77802438Y-62109523D01*
X77802438Y-62109523D02*
X77850057Y-62061904D01*
X77850057Y-62061904D02*
X77945295Y-62014285D01*
X77945295Y-62014285D02*
X78040533Y-62014285D01*
X78040533Y-62014285D02*
X78183390Y-62061904D01*
X78183390Y-62061904D02*
X78754819Y-62633332D01*
X78754819Y-62633332D02*
X78754819Y-62014285D01*
X28854819Y-94013333D02*
X29569104Y-94013333D01*
X29569104Y-94013333D02*
X29711961Y-94060952D01*
X29711961Y-94060952D02*
X29807200Y-94156190D01*
X29807200Y-94156190D02*
X29854819Y-94299047D01*
X29854819Y-94299047D02*
X29854819Y-94394285D01*
X28854819Y-93632380D02*
X28854819Y-93013333D01*
X28854819Y-93013333D02*
X29235771Y-93346666D01*
X29235771Y-93346666D02*
X29235771Y-93203809D01*
X29235771Y-93203809D02*
X29283390Y-93108571D01*
X29283390Y-93108571D02*
X29331009Y-93060952D01*
X29331009Y-93060952D02*
X29426247Y-93013333D01*
X29426247Y-93013333D02*
X29664342Y-93013333D01*
X29664342Y-93013333D02*
X29759580Y-93060952D01*
X29759580Y-93060952D02*
X29807200Y-93108571D01*
X29807200Y-93108571D02*
X29854819Y-93203809D01*
X29854819Y-93203809D02*
X29854819Y-93489523D01*
X29854819Y-93489523D02*
X29807200Y-93584761D01*
X29807200Y-93584761D02*
X29759580Y-93632380D01*
X135854819Y-99233333D02*
X136569104Y-99233333D01*
X136569104Y-99233333D02*
X136711961Y-99280952D01*
X136711961Y-99280952D02*
X136807200Y-99376190D01*
X136807200Y-99376190D02*
X136854819Y-99519047D01*
X136854819Y-99519047D02*
X136854819Y-99614285D01*
X136854819Y-98757142D02*
X135854819Y-98757142D01*
X135854819Y-98757142D02*
X135854819Y-98376190D01*
X135854819Y-98376190D02*
X135902438Y-98280952D01*
X135902438Y-98280952D02*
X135950057Y-98233333D01*
X135950057Y-98233333D02*
X136045295Y-98185714D01*
X136045295Y-98185714D02*
X136188152Y-98185714D01*
X136188152Y-98185714D02*
X136283390Y-98233333D01*
X136283390Y-98233333D02*
X136331009Y-98280952D01*
X136331009Y-98280952D02*
X136378628Y-98376190D01*
X136378628Y-98376190D02*
X136378628Y-98757142D01*
X136188152Y-97328571D02*
X136854819Y-97328571D01*
X135807200Y-97566666D02*
X136521485Y-97804761D01*
X136521485Y-97804761D02*
X136521485Y-97185714D01*
X64611905Y-100584819D02*
X64611905Y-99584819D01*
X64611905Y-99584819D02*
X64850000Y-99584819D01*
X64850000Y-99584819D02*
X64992857Y-99632438D01*
X64992857Y-99632438D02*
X65088095Y-99727676D01*
X65088095Y-99727676D02*
X65135714Y-99822914D01*
X65135714Y-99822914D02*
X65183333Y-100013390D01*
X65183333Y-100013390D02*
X65183333Y-100156247D01*
X65183333Y-100156247D02*
X65135714Y-100346723D01*
X65135714Y-100346723D02*
X65088095Y-100441961D01*
X65088095Y-100441961D02*
X64992857Y-100537200D01*
X64992857Y-100537200D02*
X64850000Y-100584819D01*
X64850000Y-100584819D02*
X64611905Y-100584819D01*
X66040476Y-99584819D02*
X65850000Y-99584819D01*
X65850000Y-99584819D02*
X65754762Y-99632438D01*
X65754762Y-99632438D02*
X65707143Y-99680057D01*
X65707143Y-99680057D02*
X65611905Y-99822914D01*
X65611905Y-99822914D02*
X65564286Y-100013390D01*
X65564286Y-100013390D02*
X65564286Y-100394342D01*
X65564286Y-100394342D02*
X65611905Y-100489580D01*
X65611905Y-100489580D02*
X65659524Y-100537200D01*
X65659524Y-100537200D02*
X65754762Y-100584819D01*
X65754762Y-100584819D02*
X65945238Y-100584819D01*
X65945238Y-100584819D02*
X66040476Y-100537200D01*
X66040476Y-100537200D02*
X66088095Y-100489580D01*
X66088095Y-100489580D02*
X66135714Y-100394342D01*
X66135714Y-100394342D02*
X66135714Y-100156247D01*
X66135714Y-100156247D02*
X66088095Y-100061009D01*
X66088095Y-100061009D02*
X66040476Y-100013390D01*
X66040476Y-100013390D02*
X65945238Y-99965771D01*
X65945238Y-99965771D02*
X65754762Y-99965771D01*
X65754762Y-99965771D02*
X65659524Y-100013390D01*
X65659524Y-100013390D02*
X65611905Y-100061009D01*
X65611905Y-100061009D02*
X65564286Y-100156247D01*
X64063095Y-66259819D02*
X64063095Y-67069342D01*
X64063095Y-67069342D02*
X64110714Y-67164580D01*
X64110714Y-67164580D02*
X64158333Y-67212200D01*
X64158333Y-67212200D02*
X64253571Y-67259819D01*
X64253571Y-67259819D02*
X64444047Y-67259819D01*
X64444047Y-67259819D02*
X64539285Y-67212200D01*
X64539285Y-67212200D02*
X64586904Y-67164580D01*
X64586904Y-67164580D02*
X64634523Y-67069342D01*
X64634523Y-67069342D02*
X64634523Y-66259819D01*
X65634523Y-67259819D02*
X65063095Y-67259819D01*
X65348809Y-67259819D02*
X65348809Y-66259819D01*
X65348809Y-66259819D02*
X65253571Y-66402676D01*
X65253571Y-66402676D02*
X65158333Y-66497914D01*
X65158333Y-66497914D02*
X65063095Y-66545533D01*
X64933333Y-45559580D02*
X64885714Y-45607200D01*
X64885714Y-45607200D02*
X64742857Y-45654819D01*
X64742857Y-45654819D02*
X64647619Y-45654819D01*
X64647619Y-45654819D02*
X64504762Y-45607200D01*
X64504762Y-45607200D02*
X64409524Y-45511961D01*
X64409524Y-45511961D02*
X64361905Y-45416723D01*
X64361905Y-45416723D02*
X64314286Y-45226247D01*
X64314286Y-45226247D02*
X64314286Y-45083390D01*
X64314286Y-45083390D02*
X64361905Y-44892914D01*
X64361905Y-44892914D02*
X64409524Y-44797676D01*
X64409524Y-44797676D02*
X64504762Y-44702438D01*
X64504762Y-44702438D02*
X64647619Y-44654819D01*
X64647619Y-44654819D02*
X64742857Y-44654819D01*
X64742857Y-44654819D02*
X64885714Y-44702438D01*
X64885714Y-44702438D02*
X64933333Y-44750057D01*
X65790476Y-44988152D02*
X65790476Y-45654819D01*
X65552381Y-44607200D02*
X65314286Y-45321485D01*
X65314286Y-45321485D02*
X65933333Y-45321485D01*
X99732142Y-46124819D02*
X99398809Y-45648628D01*
X99160714Y-46124819D02*
X99160714Y-45124819D01*
X99160714Y-45124819D02*
X99541666Y-45124819D01*
X99541666Y-45124819D02*
X99636904Y-45172438D01*
X99636904Y-45172438D02*
X99684523Y-45220057D01*
X99684523Y-45220057D02*
X99732142Y-45315295D01*
X99732142Y-45315295D02*
X99732142Y-45458152D01*
X99732142Y-45458152D02*
X99684523Y-45553390D01*
X99684523Y-45553390D02*
X99636904Y-45601009D01*
X99636904Y-45601009D02*
X99541666Y-45648628D01*
X99541666Y-45648628D02*
X99160714Y-45648628D01*
X100684523Y-46124819D02*
X100113095Y-46124819D01*
X100398809Y-46124819D02*
X100398809Y-45124819D01*
X100398809Y-45124819D02*
X100303571Y-45267676D01*
X100303571Y-45267676D02*
X100208333Y-45362914D01*
X100208333Y-45362914D02*
X100113095Y-45410533D01*
X101160714Y-46124819D02*
X101351190Y-46124819D01*
X101351190Y-46124819D02*
X101446428Y-46077200D01*
X101446428Y-46077200D02*
X101494047Y-46029580D01*
X101494047Y-46029580D02*
X101589285Y-45886723D01*
X101589285Y-45886723D02*
X101636904Y-45696247D01*
X101636904Y-45696247D02*
X101636904Y-45315295D01*
X101636904Y-45315295D02*
X101589285Y-45220057D01*
X101589285Y-45220057D02*
X101541666Y-45172438D01*
X101541666Y-45172438D02*
X101446428Y-45124819D01*
X101446428Y-45124819D02*
X101255952Y-45124819D01*
X101255952Y-45124819D02*
X101160714Y-45172438D01*
X101160714Y-45172438D02*
X101113095Y-45220057D01*
X101113095Y-45220057D02*
X101065476Y-45315295D01*
X101065476Y-45315295D02*
X101065476Y-45553390D01*
X101065476Y-45553390D02*
X101113095Y-45648628D01*
X101113095Y-45648628D02*
X101160714Y-45696247D01*
X101160714Y-45696247D02*
X101255952Y-45743866D01*
X101255952Y-45743866D02*
X101446428Y-45743866D01*
X101446428Y-45743866D02*
X101541666Y-45696247D01*
X101541666Y-45696247D02*
X101589285Y-45648628D01*
X101589285Y-45648628D02*
X101636904Y-45553390D01*
X95607142Y-83284819D02*
X95273809Y-82808628D01*
X95035714Y-83284819D02*
X95035714Y-82284819D01*
X95035714Y-82284819D02*
X95416666Y-82284819D01*
X95416666Y-82284819D02*
X95511904Y-82332438D01*
X95511904Y-82332438D02*
X95559523Y-82380057D01*
X95559523Y-82380057D02*
X95607142Y-82475295D01*
X95607142Y-82475295D02*
X95607142Y-82618152D01*
X95607142Y-82618152D02*
X95559523Y-82713390D01*
X95559523Y-82713390D02*
X95511904Y-82761009D01*
X95511904Y-82761009D02*
X95416666Y-82808628D01*
X95416666Y-82808628D02*
X95035714Y-82808628D01*
X96559523Y-83284819D02*
X95988095Y-83284819D01*
X96273809Y-83284819D02*
X96273809Y-82284819D01*
X96273809Y-82284819D02*
X96178571Y-82427676D01*
X96178571Y-82427676D02*
X96083333Y-82522914D01*
X96083333Y-82522914D02*
X95988095Y-82570533D01*
X97178571Y-82284819D02*
X97273809Y-82284819D01*
X97273809Y-82284819D02*
X97369047Y-82332438D01*
X97369047Y-82332438D02*
X97416666Y-82380057D01*
X97416666Y-82380057D02*
X97464285Y-82475295D01*
X97464285Y-82475295D02*
X97511904Y-82665771D01*
X97511904Y-82665771D02*
X97511904Y-82903866D01*
X97511904Y-82903866D02*
X97464285Y-83094342D01*
X97464285Y-83094342D02*
X97416666Y-83189580D01*
X97416666Y-83189580D02*
X97369047Y-83237200D01*
X97369047Y-83237200D02*
X97273809Y-83284819D01*
X97273809Y-83284819D02*
X97178571Y-83284819D01*
X97178571Y-83284819D02*
X97083333Y-83237200D01*
X97083333Y-83237200D02*
X97035714Y-83189580D01*
X97035714Y-83189580D02*
X96988095Y-83094342D01*
X96988095Y-83094342D02*
X96940476Y-82903866D01*
X96940476Y-82903866D02*
X96940476Y-82665771D01*
X96940476Y-82665771D02*
X96988095Y-82475295D01*
X96988095Y-82475295D02*
X97035714Y-82380057D01*
X97035714Y-82380057D02*
X97083333Y-82332438D01*
X97083333Y-82332438D02*
X97178571Y-82284819D01*
X107888095Y-78754819D02*
X107888095Y-79564342D01*
X107888095Y-79564342D02*
X107935714Y-79659580D01*
X107935714Y-79659580D02*
X107983333Y-79707200D01*
X107983333Y-79707200D02*
X108078571Y-79754819D01*
X108078571Y-79754819D02*
X108269047Y-79754819D01*
X108269047Y-79754819D02*
X108364285Y-79707200D01*
X108364285Y-79707200D02*
X108411904Y-79659580D01*
X108411904Y-79659580D02*
X108459523Y-79564342D01*
X108459523Y-79564342D02*
X108459523Y-78754819D01*
X108888095Y-78850057D02*
X108935714Y-78802438D01*
X108935714Y-78802438D02*
X109030952Y-78754819D01*
X109030952Y-78754819D02*
X109269047Y-78754819D01*
X109269047Y-78754819D02*
X109364285Y-78802438D01*
X109364285Y-78802438D02*
X109411904Y-78850057D01*
X109411904Y-78850057D02*
X109459523Y-78945295D01*
X109459523Y-78945295D02*
X109459523Y-79040533D01*
X109459523Y-79040533D02*
X109411904Y-79183390D01*
X109411904Y-79183390D02*
X108840476Y-79754819D01*
X108840476Y-79754819D02*
X109459523Y-79754819D01*
X44267261Y-85000057D02*
X44172023Y-84952438D01*
X44172023Y-84952438D02*
X44076785Y-84857200D01*
X44076785Y-84857200D02*
X43933928Y-84714342D01*
X43933928Y-84714342D02*
X43838690Y-84666723D01*
X43838690Y-84666723D02*
X43743452Y-84666723D01*
X43791071Y-84904819D02*
X43695833Y-84857200D01*
X43695833Y-84857200D02*
X43600595Y-84761961D01*
X43600595Y-84761961D02*
X43552976Y-84571485D01*
X43552976Y-84571485D02*
X43552976Y-84238152D01*
X43552976Y-84238152D02*
X43600595Y-84047676D01*
X43600595Y-84047676D02*
X43695833Y-83952438D01*
X43695833Y-83952438D02*
X43791071Y-83904819D01*
X43791071Y-83904819D02*
X43981547Y-83904819D01*
X43981547Y-83904819D02*
X44076785Y-83952438D01*
X44076785Y-83952438D02*
X44172023Y-84047676D01*
X44172023Y-84047676D02*
X44219642Y-84238152D01*
X44219642Y-84238152D02*
X44219642Y-84571485D01*
X44219642Y-84571485D02*
X44172023Y-84761961D01*
X44172023Y-84761961D02*
X44076785Y-84857200D01*
X44076785Y-84857200D02*
X43981547Y-84904819D01*
X43981547Y-84904819D02*
X43791071Y-84904819D01*
X45076785Y-83904819D02*
X44886309Y-83904819D01*
X44886309Y-83904819D02*
X44791071Y-83952438D01*
X44791071Y-83952438D02*
X44743452Y-84000057D01*
X44743452Y-84000057D02*
X44648214Y-84142914D01*
X44648214Y-84142914D02*
X44600595Y-84333390D01*
X44600595Y-84333390D02*
X44600595Y-84714342D01*
X44600595Y-84714342D02*
X44648214Y-84809580D01*
X44648214Y-84809580D02*
X44695833Y-84857200D01*
X44695833Y-84857200D02*
X44791071Y-84904819D01*
X44791071Y-84904819D02*
X44981547Y-84904819D01*
X44981547Y-84904819D02*
X45076785Y-84857200D01*
X45076785Y-84857200D02*
X45124404Y-84809580D01*
X45124404Y-84809580D02*
X45172023Y-84714342D01*
X45172023Y-84714342D02*
X45172023Y-84476247D01*
X45172023Y-84476247D02*
X45124404Y-84381009D01*
X45124404Y-84381009D02*
X45076785Y-84333390D01*
X45076785Y-84333390D02*
X44981547Y-84285771D01*
X44981547Y-84285771D02*
X44791071Y-84285771D01*
X44791071Y-84285771D02*
X44695833Y-84333390D01*
X44695833Y-84333390D02*
X44648214Y-84381009D01*
X44648214Y-84381009D02*
X44600595Y-84476247D01*
X70532142Y-58784819D02*
X70198809Y-58308628D01*
X69960714Y-58784819D02*
X69960714Y-57784819D01*
X69960714Y-57784819D02*
X70341666Y-57784819D01*
X70341666Y-57784819D02*
X70436904Y-57832438D01*
X70436904Y-57832438D02*
X70484523Y-57880057D01*
X70484523Y-57880057D02*
X70532142Y-57975295D01*
X70532142Y-57975295D02*
X70532142Y-58118152D01*
X70532142Y-58118152D02*
X70484523Y-58213390D01*
X70484523Y-58213390D02*
X70436904Y-58261009D01*
X70436904Y-58261009D02*
X70341666Y-58308628D01*
X70341666Y-58308628D02*
X69960714Y-58308628D01*
X70913095Y-57880057D02*
X70960714Y-57832438D01*
X70960714Y-57832438D02*
X71055952Y-57784819D01*
X71055952Y-57784819D02*
X71294047Y-57784819D01*
X71294047Y-57784819D02*
X71389285Y-57832438D01*
X71389285Y-57832438D02*
X71436904Y-57880057D01*
X71436904Y-57880057D02*
X71484523Y-57975295D01*
X71484523Y-57975295D02*
X71484523Y-58070533D01*
X71484523Y-58070533D02*
X71436904Y-58213390D01*
X71436904Y-58213390D02*
X70865476Y-58784819D01*
X70865476Y-58784819D02*
X71484523Y-58784819D01*
X72389285Y-57784819D02*
X71913095Y-57784819D01*
X71913095Y-57784819D02*
X71865476Y-58261009D01*
X71865476Y-58261009D02*
X71913095Y-58213390D01*
X71913095Y-58213390D02*
X72008333Y-58165771D01*
X72008333Y-58165771D02*
X72246428Y-58165771D01*
X72246428Y-58165771D02*
X72341666Y-58213390D01*
X72341666Y-58213390D02*
X72389285Y-58261009D01*
X72389285Y-58261009D02*
X72436904Y-58356247D01*
X72436904Y-58356247D02*
X72436904Y-58594342D01*
X72436904Y-58594342D02*
X72389285Y-58689580D01*
X72389285Y-58689580D02*
X72341666Y-58737200D01*
X72341666Y-58737200D02*
X72246428Y-58784819D01*
X72246428Y-58784819D02*
X72008333Y-58784819D01*
X72008333Y-58784819D02*
X71913095Y-58737200D01*
X71913095Y-58737200D02*
X71865476Y-58689580D01*
X60467261Y-48050057D02*
X60372023Y-48002438D01*
X60372023Y-48002438D02*
X60276785Y-47907200D01*
X60276785Y-47907200D02*
X60133928Y-47764342D01*
X60133928Y-47764342D02*
X60038690Y-47716723D01*
X60038690Y-47716723D02*
X59943452Y-47716723D01*
X59991071Y-47954819D02*
X59895833Y-47907200D01*
X59895833Y-47907200D02*
X59800595Y-47811961D01*
X59800595Y-47811961D02*
X59752976Y-47621485D01*
X59752976Y-47621485D02*
X59752976Y-47288152D01*
X59752976Y-47288152D02*
X59800595Y-47097676D01*
X59800595Y-47097676D02*
X59895833Y-47002438D01*
X59895833Y-47002438D02*
X59991071Y-46954819D01*
X59991071Y-46954819D02*
X60181547Y-46954819D01*
X60181547Y-46954819D02*
X60276785Y-47002438D01*
X60276785Y-47002438D02*
X60372023Y-47097676D01*
X60372023Y-47097676D02*
X60419642Y-47288152D01*
X60419642Y-47288152D02*
X60419642Y-47621485D01*
X60419642Y-47621485D02*
X60372023Y-47811961D01*
X60372023Y-47811961D02*
X60276785Y-47907200D01*
X60276785Y-47907200D02*
X60181547Y-47954819D01*
X60181547Y-47954819D02*
X59991071Y-47954819D01*
X61372023Y-47954819D02*
X60800595Y-47954819D01*
X61086309Y-47954819D02*
X61086309Y-46954819D01*
X61086309Y-46954819D02*
X60991071Y-47097676D01*
X60991071Y-47097676D02*
X60895833Y-47192914D01*
X60895833Y-47192914D02*
X60800595Y-47240533D01*
X137884819Y-77467857D02*
X137408628Y-77801190D01*
X137884819Y-78039285D02*
X136884819Y-78039285D01*
X136884819Y-78039285D02*
X136884819Y-77658333D01*
X136884819Y-77658333D02*
X136932438Y-77563095D01*
X136932438Y-77563095D02*
X136980057Y-77515476D01*
X136980057Y-77515476D02*
X137075295Y-77467857D01*
X137075295Y-77467857D02*
X137218152Y-77467857D01*
X137218152Y-77467857D02*
X137313390Y-77515476D01*
X137313390Y-77515476D02*
X137361009Y-77563095D01*
X137361009Y-77563095D02*
X137408628Y-77658333D01*
X137408628Y-77658333D02*
X137408628Y-78039285D01*
X137884819Y-76515476D02*
X137884819Y-77086904D01*
X137884819Y-76801190D02*
X136884819Y-76801190D01*
X136884819Y-76801190D02*
X137027676Y-76896428D01*
X137027676Y-76896428D02*
X137122914Y-76991666D01*
X137122914Y-76991666D02*
X137170533Y-77086904D01*
X137884819Y-75563095D02*
X137884819Y-76134523D01*
X137884819Y-75848809D02*
X136884819Y-75848809D01*
X136884819Y-75848809D02*
X137027676Y-75944047D01*
X137027676Y-75944047D02*
X137122914Y-76039285D01*
X137122914Y-76039285D02*
X137170533Y-76134523D01*
X183866666Y-114231009D02*
X183533333Y-114231009D01*
X183533333Y-114754819D02*
X183533333Y-113754819D01*
X183533333Y-113754819D02*
X184009523Y-113754819D01*
X184866666Y-113754819D02*
X184390476Y-113754819D01*
X184390476Y-113754819D02*
X184342857Y-114231009D01*
X184342857Y-114231009D02*
X184390476Y-114183390D01*
X184390476Y-114183390D02*
X184485714Y-114135771D01*
X184485714Y-114135771D02*
X184723809Y-114135771D01*
X184723809Y-114135771D02*
X184819047Y-114183390D01*
X184819047Y-114183390D02*
X184866666Y-114231009D01*
X184866666Y-114231009D02*
X184914285Y-114326247D01*
X184914285Y-114326247D02*
X184914285Y-114564342D01*
X184914285Y-114564342D02*
X184866666Y-114659580D01*
X184866666Y-114659580D02*
X184819047Y-114707200D01*
X184819047Y-114707200D02*
X184723809Y-114754819D01*
X184723809Y-114754819D02*
X184485714Y-114754819D01*
X184485714Y-114754819D02*
X184390476Y-114707200D01*
X184390476Y-114707200D02*
X184342857Y-114659580D01*
X99979580Y-70017857D02*
X100027200Y-70065476D01*
X100027200Y-70065476D02*
X100074819Y-70208333D01*
X100074819Y-70208333D02*
X100074819Y-70303571D01*
X100074819Y-70303571D02*
X100027200Y-70446428D01*
X100027200Y-70446428D02*
X99931961Y-70541666D01*
X99931961Y-70541666D02*
X99836723Y-70589285D01*
X99836723Y-70589285D02*
X99646247Y-70636904D01*
X99646247Y-70636904D02*
X99503390Y-70636904D01*
X99503390Y-70636904D02*
X99312914Y-70589285D01*
X99312914Y-70589285D02*
X99217676Y-70541666D01*
X99217676Y-70541666D02*
X99122438Y-70446428D01*
X99122438Y-70446428D02*
X99074819Y-70303571D01*
X99074819Y-70303571D02*
X99074819Y-70208333D01*
X99074819Y-70208333D02*
X99122438Y-70065476D01*
X99122438Y-70065476D02*
X99170057Y-70017857D01*
X100074819Y-69065476D02*
X100074819Y-69636904D01*
X100074819Y-69351190D02*
X99074819Y-69351190D01*
X99074819Y-69351190D02*
X99217676Y-69446428D01*
X99217676Y-69446428D02*
X99312914Y-69541666D01*
X99312914Y-69541666D02*
X99360533Y-69636904D01*
X99170057Y-68684523D02*
X99122438Y-68636904D01*
X99122438Y-68636904D02*
X99074819Y-68541666D01*
X99074819Y-68541666D02*
X99074819Y-68303571D01*
X99074819Y-68303571D02*
X99122438Y-68208333D01*
X99122438Y-68208333D02*
X99170057Y-68160714D01*
X99170057Y-68160714D02*
X99265295Y-68113095D01*
X99265295Y-68113095D02*
X99360533Y-68113095D01*
X99360533Y-68113095D02*
X99503390Y-68160714D01*
X99503390Y-68160714D02*
X100074819Y-68732142D01*
X100074819Y-68732142D02*
X100074819Y-68113095D01*
X142482142Y-58289580D02*
X142434523Y-58337200D01*
X142434523Y-58337200D02*
X142291666Y-58384819D01*
X142291666Y-58384819D02*
X142196428Y-58384819D01*
X142196428Y-58384819D02*
X142053571Y-58337200D01*
X142053571Y-58337200D02*
X141958333Y-58241961D01*
X141958333Y-58241961D02*
X141910714Y-58146723D01*
X141910714Y-58146723D02*
X141863095Y-57956247D01*
X141863095Y-57956247D02*
X141863095Y-57813390D01*
X141863095Y-57813390D02*
X141910714Y-57622914D01*
X141910714Y-57622914D02*
X141958333Y-57527676D01*
X141958333Y-57527676D02*
X142053571Y-57432438D01*
X142053571Y-57432438D02*
X142196428Y-57384819D01*
X142196428Y-57384819D02*
X142291666Y-57384819D01*
X142291666Y-57384819D02*
X142434523Y-57432438D01*
X142434523Y-57432438D02*
X142482142Y-57480057D01*
X143434523Y-58384819D02*
X142863095Y-58384819D01*
X143148809Y-58384819D02*
X143148809Y-57384819D01*
X143148809Y-57384819D02*
X143053571Y-57527676D01*
X143053571Y-57527676D02*
X142958333Y-57622914D01*
X142958333Y-57622914D02*
X142863095Y-57670533D01*
X143767857Y-57384819D02*
X144434523Y-57384819D01*
X144434523Y-57384819D02*
X144005952Y-58384819D01*
X128432142Y-100184819D02*
X128098809Y-99708628D01*
X127860714Y-100184819D02*
X127860714Y-99184819D01*
X127860714Y-99184819D02*
X128241666Y-99184819D01*
X128241666Y-99184819D02*
X128336904Y-99232438D01*
X128336904Y-99232438D02*
X128384523Y-99280057D01*
X128384523Y-99280057D02*
X128432142Y-99375295D01*
X128432142Y-99375295D02*
X128432142Y-99518152D01*
X128432142Y-99518152D02*
X128384523Y-99613390D01*
X128384523Y-99613390D02*
X128336904Y-99661009D01*
X128336904Y-99661009D02*
X128241666Y-99708628D01*
X128241666Y-99708628D02*
X127860714Y-99708628D01*
X128813095Y-99280057D02*
X128860714Y-99232438D01*
X128860714Y-99232438D02*
X128955952Y-99184819D01*
X128955952Y-99184819D02*
X129194047Y-99184819D01*
X129194047Y-99184819D02*
X129289285Y-99232438D01*
X129289285Y-99232438D02*
X129336904Y-99280057D01*
X129336904Y-99280057D02*
X129384523Y-99375295D01*
X129384523Y-99375295D02*
X129384523Y-99470533D01*
X129384523Y-99470533D02*
X129336904Y-99613390D01*
X129336904Y-99613390D02*
X128765476Y-100184819D01*
X128765476Y-100184819D02*
X129384523Y-100184819D01*
X130336904Y-100184819D02*
X129765476Y-100184819D01*
X130051190Y-100184819D02*
X130051190Y-99184819D01*
X130051190Y-99184819D02*
X129955952Y-99327676D01*
X129955952Y-99327676D02*
X129860714Y-99422914D01*
X129860714Y-99422914D02*
X129765476Y-99470533D01*
X190833333Y-49024819D02*
X190500000Y-48548628D01*
X190261905Y-49024819D02*
X190261905Y-48024819D01*
X190261905Y-48024819D02*
X190642857Y-48024819D01*
X190642857Y-48024819D02*
X190738095Y-48072438D01*
X190738095Y-48072438D02*
X190785714Y-48120057D01*
X190785714Y-48120057D02*
X190833333Y-48215295D01*
X190833333Y-48215295D02*
X190833333Y-48358152D01*
X190833333Y-48358152D02*
X190785714Y-48453390D01*
X190785714Y-48453390D02*
X190738095Y-48501009D01*
X190738095Y-48501009D02*
X190642857Y-48548628D01*
X190642857Y-48548628D02*
X190261905Y-48548628D01*
X191166667Y-48024819D02*
X191833333Y-48024819D01*
X191833333Y-48024819D02*
X191404762Y-49024819D01*
X70931009Y-90195833D02*
X70931009Y-90529166D01*
X71454819Y-90529166D02*
X70454819Y-90529166D01*
X70454819Y-90529166D02*
X70454819Y-90052976D01*
X70931009Y-89338690D02*
X70978628Y-89195833D01*
X70978628Y-89195833D02*
X71026247Y-89148214D01*
X71026247Y-89148214D02*
X71121485Y-89100595D01*
X71121485Y-89100595D02*
X71264342Y-89100595D01*
X71264342Y-89100595D02*
X71359580Y-89148214D01*
X71359580Y-89148214D02*
X71407200Y-89195833D01*
X71407200Y-89195833D02*
X71454819Y-89291071D01*
X71454819Y-89291071D02*
X71454819Y-89672023D01*
X71454819Y-89672023D02*
X70454819Y-89672023D01*
X70454819Y-89672023D02*
X70454819Y-89338690D01*
X70454819Y-89338690D02*
X70502438Y-89243452D01*
X70502438Y-89243452D02*
X70550057Y-89195833D01*
X70550057Y-89195833D02*
X70645295Y-89148214D01*
X70645295Y-89148214D02*
X70740533Y-89148214D01*
X70740533Y-89148214D02*
X70835771Y-89195833D01*
X70835771Y-89195833D02*
X70883390Y-89243452D01*
X70883390Y-89243452D02*
X70931009Y-89338690D01*
X70931009Y-89338690D02*
X70931009Y-89672023D01*
X70550057Y-88719642D02*
X70502438Y-88672023D01*
X70502438Y-88672023D02*
X70454819Y-88576785D01*
X70454819Y-88576785D02*
X70454819Y-88338690D01*
X70454819Y-88338690D02*
X70502438Y-88243452D01*
X70502438Y-88243452D02*
X70550057Y-88195833D01*
X70550057Y-88195833D02*
X70645295Y-88148214D01*
X70645295Y-88148214D02*
X70740533Y-88148214D01*
X70740533Y-88148214D02*
X70883390Y-88195833D01*
X70883390Y-88195833D02*
X71454819Y-88767261D01*
X71454819Y-88767261D02*
X71454819Y-88148214D01*
X86761905Y-92854819D02*
X86761905Y-91854819D01*
X86761905Y-91854819D02*
X87000000Y-91854819D01*
X87000000Y-91854819D02*
X87142857Y-91902438D01*
X87142857Y-91902438D02*
X87238095Y-91997676D01*
X87238095Y-91997676D02*
X87285714Y-92092914D01*
X87285714Y-92092914D02*
X87333333Y-92283390D01*
X87333333Y-92283390D02*
X87333333Y-92426247D01*
X87333333Y-92426247D02*
X87285714Y-92616723D01*
X87285714Y-92616723D02*
X87238095Y-92711961D01*
X87238095Y-92711961D02*
X87142857Y-92807200D01*
X87142857Y-92807200D02*
X87000000Y-92854819D01*
X87000000Y-92854819D02*
X86761905Y-92854819D01*
X87666667Y-91854819D02*
X88285714Y-91854819D01*
X88285714Y-91854819D02*
X87952381Y-92235771D01*
X87952381Y-92235771D02*
X88095238Y-92235771D01*
X88095238Y-92235771D02*
X88190476Y-92283390D01*
X88190476Y-92283390D02*
X88238095Y-92331009D01*
X88238095Y-92331009D02*
X88285714Y-92426247D01*
X88285714Y-92426247D02*
X88285714Y-92664342D01*
X88285714Y-92664342D02*
X88238095Y-92759580D01*
X88238095Y-92759580D02*
X88190476Y-92807200D01*
X88190476Y-92807200D02*
X88095238Y-92854819D01*
X88095238Y-92854819D02*
X87809524Y-92854819D01*
X87809524Y-92854819D02*
X87714286Y-92807200D01*
X87714286Y-92807200D02*
X87666667Y-92759580D01*
X128496904Y-77749819D02*
X128496904Y-78559342D01*
X128496904Y-78559342D02*
X128544523Y-78654580D01*
X128544523Y-78654580D02*
X128592142Y-78702200D01*
X128592142Y-78702200D02*
X128687380Y-78749819D01*
X128687380Y-78749819D02*
X128877856Y-78749819D01*
X128877856Y-78749819D02*
X128973094Y-78702200D01*
X128973094Y-78702200D02*
X129020713Y-78654580D01*
X129020713Y-78654580D02*
X129068332Y-78559342D01*
X129068332Y-78559342D02*
X129068332Y-77749819D01*
X130068332Y-78749819D02*
X129496904Y-78749819D01*
X129782618Y-78749819D02*
X129782618Y-77749819D01*
X129782618Y-77749819D02*
X129687380Y-77892676D01*
X129687380Y-77892676D02*
X129592142Y-77987914D01*
X129592142Y-77987914D02*
X129496904Y-78035533D01*
X131020713Y-78749819D02*
X130449285Y-78749819D01*
X130734999Y-78749819D02*
X130734999Y-77749819D01*
X130734999Y-77749819D02*
X130639761Y-77892676D01*
X130639761Y-77892676D02*
X130544523Y-77987914D01*
X130544523Y-77987914D02*
X130449285Y-78035533D01*
X134804819Y-43809523D02*
X135519104Y-43809523D01*
X135519104Y-43809523D02*
X135661961Y-43857142D01*
X135661961Y-43857142D02*
X135757200Y-43952380D01*
X135757200Y-43952380D02*
X135804819Y-44095237D01*
X135804819Y-44095237D02*
X135804819Y-44190475D01*
X135804819Y-42809523D02*
X135804819Y-43380951D01*
X135804819Y-43095237D02*
X134804819Y-43095237D01*
X134804819Y-43095237D02*
X134947676Y-43190475D01*
X134947676Y-43190475D02*
X135042914Y-43285713D01*
X135042914Y-43285713D02*
X135090533Y-43380951D01*
X135138152Y-41952380D02*
X135804819Y-41952380D01*
X134757200Y-42190475D02*
X135471485Y-42428570D01*
X135471485Y-42428570D02*
X135471485Y-41809523D01*
X96090476Y-97854819D02*
X96090476Y-98569104D01*
X96090476Y-98569104D02*
X96042857Y-98711961D01*
X96042857Y-98711961D02*
X95947619Y-98807200D01*
X95947619Y-98807200D02*
X95804762Y-98854819D01*
X95804762Y-98854819D02*
X95709524Y-98854819D01*
X97090476Y-98854819D02*
X96519048Y-98854819D01*
X96804762Y-98854819D02*
X96804762Y-97854819D01*
X96804762Y-97854819D02*
X96709524Y-97997676D01*
X96709524Y-97997676D02*
X96614286Y-98092914D01*
X96614286Y-98092914D02*
X96519048Y-98140533D01*
X98042857Y-98854819D02*
X97471429Y-98854819D01*
X97757143Y-98854819D02*
X97757143Y-97854819D01*
X97757143Y-97854819D02*
X97661905Y-97997676D01*
X97661905Y-97997676D02*
X97566667Y-98092914D01*
X97566667Y-98092914D02*
X97471429Y-98140533D01*
X175357142Y-56929580D02*
X175309523Y-56977200D01*
X175309523Y-56977200D02*
X175166666Y-57024819D01*
X175166666Y-57024819D02*
X175071428Y-57024819D01*
X175071428Y-57024819D02*
X174928571Y-56977200D01*
X174928571Y-56977200D02*
X174833333Y-56881961D01*
X174833333Y-56881961D02*
X174785714Y-56786723D01*
X174785714Y-56786723D02*
X174738095Y-56596247D01*
X174738095Y-56596247D02*
X174738095Y-56453390D01*
X174738095Y-56453390D02*
X174785714Y-56262914D01*
X174785714Y-56262914D02*
X174833333Y-56167676D01*
X174833333Y-56167676D02*
X174928571Y-56072438D01*
X174928571Y-56072438D02*
X175071428Y-56024819D01*
X175071428Y-56024819D02*
X175166666Y-56024819D01*
X175166666Y-56024819D02*
X175309523Y-56072438D01*
X175309523Y-56072438D02*
X175357142Y-56120057D01*
X176309523Y-57024819D02*
X175738095Y-57024819D01*
X176023809Y-57024819D02*
X176023809Y-56024819D01*
X176023809Y-56024819D02*
X175928571Y-56167676D01*
X175928571Y-56167676D02*
X175833333Y-56262914D01*
X175833333Y-56262914D02*
X175738095Y-56310533D01*
X177261904Y-57024819D02*
X176690476Y-57024819D01*
X176976190Y-57024819D02*
X176976190Y-56024819D01*
X176976190Y-56024819D02*
X176880952Y-56167676D01*
X176880952Y-56167676D02*
X176785714Y-56262914D01*
X176785714Y-56262914D02*
X176690476Y-56310533D01*
X29409580Y-108166666D02*
X29457200Y-108214285D01*
X29457200Y-108214285D02*
X29504819Y-108357142D01*
X29504819Y-108357142D02*
X29504819Y-108452380D01*
X29504819Y-108452380D02*
X29457200Y-108595237D01*
X29457200Y-108595237D02*
X29361961Y-108690475D01*
X29361961Y-108690475D02*
X29266723Y-108738094D01*
X29266723Y-108738094D02*
X29076247Y-108785713D01*
X29076247Y-108785713D02*
X28933390Y-108785713D01*
X28933390Y-108785713D02*
X28742914Y-108738094D01*
X28742914Y-108738094D02*
X28647676Y-108690475D01*
X28647676Y-108690475D02*
X28552438Y-108595237D01*
X28552438Y-108595237D02*
X28504819Y-108452380D01*
X28504819Y-108452380D02*
X28504819Y-108357142D01*
X28504819Y-108357142D02*
X28552438Y-108214285D01*
X28552438Y-108214285D02*
X28600057Y-108166666D01*
X29504819Y-107214285D02*
X29504819Y-107785713D01*
X29504819Y-107499999D02*
X28504819Y-107499999D01*
X28504819Y-107499999D02*
X28647676Y-107595237D01*
X28647676Y-107595237D02*
X28742914Y-107690475D01*
X28742914Y-107690475D02*
X28790533Y-107785713D01*
X196809819Y-46723333D02*
X197524104Y-46723333D01*
X197524104Y-46723333D02*
X197666961Y-46770952D01*
X197666961Y-46770952D02*
X197762200Y-46866190D01*
X197762200Y-46866190D02*
X197809819Y-47009047D01*
X197809819Y-47009047D02*
X197809819Y-47104285D01*
X197143152Y-45818571D02*
X197809819Y-45818571D01*
X196762200Y-46056666D02*
X197476485Y-46294761D01*
X197476485Y-46294761D02*
X197476485Y-45675714D01*
X157304166Y-71681009D02*
X156970833Y-71681009D01*
X156970833Y-72204819D02*
X156970833Y-71204819D01*
X156970833Y-71204819D02*
X157447023Y-71204819D01*
X158161309Y-71681009D02*
X158304166Y-71728628D01*
X158304166Y-71728628D02*
X158351785Y-71776247D01*
X158351785Y-71776247D02*
X158399404Y-71871485D01*
X158399404Y-71871485D02*
X158399404Y-72014342D01*
X158399404Y-72014342D02*
X158351785Y-72109580D01*
X158351785Y-72109580D02*
X158304166Y-72157200D01*
X158304166Y-72157200D02*
X158208928Y-72204819D01*
X158208928Y-72204819D02*
X157827976Y-72204819D01*
X157827976Y-72204819D02*
X157827976Y-71204819D01*
X157827976Y-71204819D02*
X158161309Y-71204819D01*
X158161309Y-71204819D02*
X158256547Y-71252438D01*
X158256547Y-71252438D02*
X158304166Y-71300057D01*
X158304166Y-71300057D02*
X158351785Y-71395295D01*
X158351785Y-71395295D02*
X158351785Y-71490533D01*
X158351785Y-71490533D02*
X158304166Y-71585771D01*
X158304166Y-71585771D02*
X158256547Y-71633390D01*
X158256547Y-71633390D02*
X158161309Y-71681009D01*
X158161309Y-71681009D02*
X157827976Y-71681009D01*
X159351785Y-72204819D02*
X158780357Y-72204819D01*
X159066071Y-72204819D02*
X159066071Y-71204819D01*
X159066071Y-71204819D02*
X158970833Y-71347676D01*
X158970833Y-71347676D02*
X158875595Y-71442914D01*
X158875595Y-71442914D02*
X158780357Y-71490533D01*
X183866666Y-89231009D02*
X183533333Y-89231009D01*
X183533333Y-89754819D02*
X183533333Y-88754819D01*
X183533333Y-88754819D02*
X184009523Y-88754819D01*
X184342857Y-88850057D02*
X184390476Y-88802438D01*
X184390476Y-88802438D02*
X184485714Y-88754819D01*
X184485714Y-88754819D02*
X184723809Y-88754819D01*
X184723809Y-88754819D02*
X184819047Y-88802438D01*
X184819047Y-88802438D02*
X184866666Y-88850057D01*
X184866666Y-88850057D02*
X184914285Y-88945295D01*
X184914285Y-88945295D02*
X184914285Y-89040533D01*
X184914285Y-89040533D02*
X184866666Y-89183390D01*
X184866666Y-89183390D02*
X184295238Y-89754819D01*
X184295238Y-89754819D02*
X184914285Y-89754819D01*
X78034819Y-72466666D02*
X78034819Y-72942856D01*
X78034819Y-72942856D02*
X77034819Y-72942856D01*
X78034819Y-71609523D02*
X78034819Y-72180951D01*
X78034819Y-71895237D02*
X77034819Y-71895237D01*
X77034819Y-71895237D02*
X77177676Y-71990475D01*
X77177676Y-71990475D02*
X77272914Y-72085713D01*
X77272914Y-72085713D02*
X77320533Y-72180951D01*
X36757319Y-71433333D02*
X37471604Y-71433333D01*
X37471604Y-71433333D02*
X37614461Y-71480952D01*
X37614461Y-71480952D02*
X37709700Y-71576190D01*
X37709700Y-71576190D02*
X37757319Y-71719047D01*
X37757319Y-71719047D02*
X37757319Y-71814285D01*
X36852557Y-71004761D02*
X36804938Y-70957142D01*
X36804938Y-70957142D02*
X36757319Y-70861904D01*
X36757319Y-70861904D02*
X36757319Y-70623809D01*
X36757319Y-70623809D02*
X36804938Y-70528571D01*
X36804938Y-70528571D02*
X36852557Y-70480952D01*
X36852557Y-70480952D02*
X36947795Y-70433333D01*
X36947795Y-70433333D02*
X37043033Y-70433333D01*
X37043033Y-70433333D02*
X37185890Y-70480952D01*
X37185890Y-70480952D02*
X37757319Y-71052380D01*
X37757319Y-71052380D02*
X37757319Y-70433333D01*
X55682142Y-43624819D02*
X55348809Y-43148628D01*
X55110714Y-43624819D02*
X55110714Y-42624819D01*
X55110714Y-42624819D02*
X55491666Y-42624819D01*
X55491666Y-42624819D02*
X55586904Y-42672438D01*
X55586904Y-42672438D02*
X55634523Y-42720057D01*
X55634523Y-42720057D02*
X55682142Y-42815295D01*
X55682142Y-42815295D02*
X55682142Y-42958152D01*
X55682142Y-42958152D02*
X55634523Y-43053390D01*
X55634523Y-43053390D02*
X55586904Y-43101009D01*
X55586904Y-43101009D02*
X55491666Y-43148628D01*
X55491666Y-43148628D02*
X55110714Y-43148628D01*
X56063095Y-42720057D02*
X56110714Y-42672438D01*
X56110714Y-42672438D02*
X56205952Y-42624819D01*
X56205952Y-42624819D02*
X56444047Y-42624819D01*
X56444047Y-42624819D02*
X56539285Y-42672438D01*
X56539285Y-42672438D02*
X56586904Y-42720057D01*
X56586904Y-42720057D02*
X56634523Y-42815295D01*
X56634523Y-42815295D02*
X56634523Y-42910533D01*
X56634523Y-42910533D02*
X56586904Y-43053390D01*
X56586904Y-43053390D02*
X56015476Y-43624819D01*
X56015476Y-43624819D02*
X56634523Y-43624819D01*
X57110714Y-43624819D02*
X57301190Y-43624819D01*
X57301190Y-43624819D02*
X57396428Y-43577200D01*
X57396428Y-43577200D02*
X57444047Y-43529580D01*
X57444047Y-43529580D02*
X57539285Y-43386723D01*
X57539285Y-43386723D02*
X57586904Y-43196247D01*
X57586904Y-43196247D02*
X57586904Y-42815295D01*
X57586904Y-42815295D02*
X57539285Y-42720057D01*
X57539285Y-42720057D02*
X57491666Y-42672438D01*
X57491666Y-42672438D02*
X57396428Y-42624819D01*
X57396428Y-42624819D02*
X57205952Y-42624819D01*
X57205952Y-42624819D02*
X57110714Y-42672438D01*
X57110714Y-42672438D02*
X57063095Y-42720057D01*
X57063095Y-42720057D02*
X57015476Y-42815295D01*
X57015476Y-42815295D02*
X57015476Y-43053390D01*
X57015476Y-43053390D02*
X57063095Y-43148628D01*
X57063095Y-43148628D02*
X57110714Y-43196247D01*
X57110714Y-43196247D02*
X57205952Y-43243866D01*
X57205952Y-43243866D02*
X57396428Y-43243866D01*
X57396428Y-43243866D02*
X57491666Y-43196247D01*
X57491666Y-43196247D02*
X57539285Y-43148628D01*
X57539285Y-43148628D02*
X57586904Y-43053390D01*
X140667261Y-70400057D02*
X140572023Y-70352438D01*
X140572023Y-70352438D02*
X140476785Y-70257200D01*
X140476785Y-70257200D02*
X140333928Y-70114342D01*
X140333928Y-70114342D02*
X140238690Y-70066723D01*
X140238690Y-70066723D02*
X140143452Y-70066723D01*
X140191071Y-70304819D02*
X140095833Y-70257200D01*
X140095833Y-70257200D02*
X140000595Y-70161961D01*
X140000595Y-70161961D02*
X139952976Y-69971485D01*
X139952976Y-69971485D02*
X139952976Y-69638152D01*
X139952976Y-69638152D02*
X140000595Y-69447676D01*
X140000595Y-69447676D02*
X140095833Y-69352438D01*
X140095833Y-69352438D02*
X140191071Y-69304819D01*
X140191071Y-69304819D02*
X140381547Y-69304819D01*
X140381547Y-69304819D02*
X140476785Y-69352438D01*
X140476785Y-69352438D02*
X140572023Y-69447676D01*
X140572023Y-69447676D02*
X140619642Y-69638152D01*
X140619642Y-69638152D02*
X140619642Y-69971485D01*
X140619642Y-69971485D02*
X140572023Y-70161961D01*
X140572023Y-70161961D02*
X140476785Y-70257200D01*
X140476785Y-70257200D02*
X140381547Y-70304819D01*
X140381547Y-70304819D02*
X140191071Y-70304819D01*
X141191071Y-69733390D02*
X141095833Y-69685771D01*
X141095833Y-69685771D02*
X141048214Y-69638152D01*
X141048214Y-69638152D02*
X141000595Y-69542914D01*
X141000595Y-69542914D02*
X141000595Y-69495295D01*
X141000595Y-69495295D02*
X141048214Y-69400057D01*
X141048214Y-69400057D02*
X141095833Y-69352438D01*
X141095833Y-69352438D02*
X141191071Y-69304819D01*
X141191071Y-69304819D02*
X141381547Y-69304819D01*
X141381547Y-69304819D02*
X141476785Y-69352438D01*
X141476785Y-69352438D02*
X141524404Y-69400057D01*
X141524404Y-69400057D02*
X141572023Y-69495295D01*
X141572023Y-69495295D02*
X141572023Y-69542914D01*
X141572023Y-69542914D02*
X141524404Y-69638152D01*
X141524404Y-69638152D02*
X141476785Y-69685771D01*
X141476785Y-69685771D02*
X141381547Y-69733390D01*
X141381547Y-69733390D02*
X141191071Y-69733390D01*
X141191071Y-69733390D02*
X141095833Y-69781009D01*
X141095833Y-69781009D02*
X141048214Y-69828628D01*
X141048214Y-69828628D02*
X141000595Y-69923866D01*
X141000595Y-69923866D02*
X141000595Y-70114342D01*
X141000595Y-70114342D02*
X141048214Y-70209580D01*
X141048214Y-70209580D02*
X141095833Y-70257200D01*
X141095833Y-70257200D02*
X141191071Y-70304819D01*
X141191071Y-70304819D02*
X141381547Y-70304819D01*
X141381547Y-70304819D02*
X141476785Y-70257200D01*
X141476785Y-70257200D02*
X141524404Y-70209580D01*
X141524404Y-70209580D02*
X141572023Y-70114342D01*
X141572023Y-70114342D02*
X141572023Y-69923866D01*
X141572023Y-69923866D02*
X141524404Y-69828628D01*
X141524404Y-69828628D02*
X141476785Y-69781009D01*
X141476785Y-69781009D02*
X141381547Y-69733390D01*
X45650057Y-119095238D02*
X45602438Y-119190476D01*
X45602438Y-119190476D02*
X45507200Y-119285714D01*
X45507200Y-119285714D02*
X45364342Y-119428571D01*
X45364342Y-119428571D02*
X45316723Y-119523809D01*
X45316723Y-119523809D02*
X45316723Y-119619047D01*
X45554819Y-119571428D02*
X45507200Y-119666666D01*
X45507200Y-119666666D02*
X45411961Y-119761904D01*
X45411961Y-119761904D02*
X45221485Y-119809523D01*
X45221485Y-119809523D02*
X44888152Y-119809523D01*
X44888152Y-119809523D02*
X44697676Y-119761904D01*
X44697676Y-119761904D02*
X44602438Y-119666666D01*
X44602438Y-119666666D02*
X44554819Y-119571428D01*
X44554819Y-119571428D02*
X44554819Y-119380952D01*
X44554819Y-119380952D02*
X44602438Y-119285714D01*
X44602438Y-119285714D02*
X44697676Y-119190476D01*
X44697676Y-119190476D02*
X44888152Y-119142857D01*
X44888152Y-119142857D02*
X45221485Y-119142857D01*
X45221485Y-119142857D02*
X45411961Y-119190476D01*
X45411961Y-119190476D02*
X45507200Y-119285714D01*
X45507200Y-119285714D02*
X45554819Y-119380952D01*
X45554819Y-119380952D02*
X45554819Y-119571428D01*
X44888152Y-118285714D02*
X45554819Y-118285714D01*
X44507200Y-118523809D02*
X45221485Y-118761904D01*
X45221485Y-118761904D02*
X45221485Y-118142857D01*
X139054819Y-93933333D02*
X139769104Y-93933333D01*
X139769104Y-93933333D02*
X139911961Y-93980952D01*
X139911961Y-93980952D02*
X140007200Y-94076190D01*
X140007200Y-94076190D02*
X140054819Y-94219047D01*
X140054819Y-94219047D02*
X140054819Y-94314285D01*
X140054819Y-93457142D02*
X139054819Y-93457142D01*
X139054819Y-93457142D02*
X139054819Y-93076190D01*
X139054819Y-93076190D02*
X139102438Y-92980952D01*
X139102438Y-92980952D02*
X139150057Y-92933333D01*
X139150057Y-92933333D02*
X139245295Y-92885714D01*
X139245295Y-92885714D02*
X139388152Y-92885714D01*
X139388152Y-92885714D02*
X139483390Y-92933333D01*
X139483390Y-92933333D02*
X139531009Y-92980952D01*
X139531009Y-92980952D02*
X139578628Y-93076190D01*
X139578628Y-93076190D02*
X139578628Y-93457142D01*
X139054819Y-92552380D02*
X139054819Y-91933333D01*
X139054819Y-91933333D02*
X139435771Y-92266666D01*
X139435771Y-92266666D02*
X139435771Y-92123809D01*
X139435771Y-92123809D02*
X139483390Y-92028571D01*
X139483390Y-92028571D02*
X139531009Y-91980952D01*
X139531009Y-91980952D02*
X139626247Y-91933333D01*
X139626247Y-91933333D02*
X139864342Y-91933333D01*
X139864342Y-91933333D02*
X139959580Y-91980952D01*
X139959580Y-91980952D02*
X140007200Y-92028571D01*
X140007200Y-92028571D02*
X140054819Y-92123809D01*
X140054819Y-92123809D02*
X140054819Y-92409523D01*
X140054819Y-92409523D02*
X140007200Y-92504761D01*
X140007200Y-92504761D02*
X139959580Y-92552380D01*
X153469642Y-62179580D02*
X153422023Y-62227200D01*
X153422023Y-62227200D02*
X153279166Y-62274819D01*
X153279166Y-62274819D02*
X153183928Y-62274819D01*
X153183928Y-62274819D02*
X153041071Y-62227200D01*
X153041071Y-62227200D02*
X152945833Y-62131961D01*
X152945833Y-62131961D02*
X152898214Y-62036723D01*
X152898214Y-62036723D02*
X152850595Y-61846247D01*
X152850595Y-61846247D02*
X152850595Y-61703390D01*
X152850595Y-61703390D02*
X152898214Y-61512914D01*
X152898214Y-61512914D02*
X152945833Y-61417676D01*
X152945833Y-61417676D02*
X153041071Y-61322438D01*
X153041071Y-61322438D02*
X153183928Y-61274819D01*
X153183928Y-61274819D02*
X153279166Y-61274819D01*
X153279166Y-61274819D02*
X153422023Y-61322438D01*
X153422023Y-61322438D02*
X153469642Y-61370057D01*
X154422023Y-62274819D02*
X153850595Y-62274819D01*
X154136309Y-62274819D02*
X154136309Y-61274819D01*
X154136309Y-61274819D02*
X154041071Y-61417676D01*
X154041071Y-61417676D02*
X153945833Y-61512914D01*
X153945833Y-61512914D02*
X153850595Y-61560533D01*
X155279166Y-61608152D02*
X155279166Y-62274819D01*
X155041071Y-61227200D02*
X154802976Y-61941485D01*
X154802976Y-61941485D02*
X155422023Y-61941485D01*
X64817261Y-61900057D02*
X64722023Y-61852438D01*
X64722023Y-61852438D02*
X64626785Y-61757200D01*
X64626785Y-61757200D02*
X64483928Y-61614342D01*
X64483928Y-61614342D02*
X64388690Y-61566723D01*
X64388690Y-61566723D02*
X64293452Y-61566723D01*
X64341071Y-61804819D02*
X64245833Y-61757200D01*
X64245833Y-61757200D02*
X64150595Y-61661961D01*
X64150595Y-61661961D02*
X64102976Y-61471485D01*
X64102976Y-61471485D02*
X64102976Y-61138152D01*
X64102976Y-61138152D02*
X64150595Y-60947676D01*
X64150595Y-60947676D02*
X64245833Y-60852438D01*
X64245833Y-60852438D02*
X64341071Y-60804819D01*
X64341071Y-60804819D02*
X64531547Y-60804819D01*
X64531547Y-60804819D02*
X64626785Y-60852438D01*
X64626785Y-60852438D02*
X64722023Y-60947676D01*
X64722023Y-60947676D02*
X64769642Y-61138152D01*
X64769642Y-61138152D02*
X64769642Y-61471485D01*
X64769642Y-61471485D02*
X64722023Y-61661961D01*
X64722023Y-61661961D02*
X64626785Y-61757200D01*
X64626785Y-61757200D02*
X64531547Y-61804819D01*
X64531547Y-61804819D02*
X64341071Y-61804819D01*
X65150595Y-60900057D02*
X65198214Y-60852438D01*
X65198214Y-60852438D02*
X65293452Y-60804819D01*
X65293452Y-60804819D02*
X65531547Y-60804819D01*
X65531547Y-60804819D02*
X65626785Y-60852438D01*
X65626785Y-60852438D02*
X65674404Y-60900057D01*
X65674404Y-60900057D02*
X65722023Y-60995295D01*
X65722023Y-60995295D02*
X65722023Y-61090533D01*
X65722023Y-61090533D02*
X65674404Y-61233390D01*
X65674404Y-61233390D02*
X65102976Y-61804819D01*
X65102976Y-61804819D02*
X65722023Y-61804819D01*
X121358333Y-83709580D02*
X121310714Y-83757200D01*
X121310714Y-83757200D02*
X121167857Y-83804819D01*
X121167857Y-83804819D02*
X121072619Y-83804819D01*
X121072619Y-83804819D02*
X120929762Y-83757200D01*
X120929762Y-83757200D02*
X120834524Y-83661961D01*
X120834524Y-83661961D02*
X120786905Y-83566723D01*
X120786905Y-83566723D02*
X120739286Y-83376247D01*
X120739286Y-83376247D02*
X120739286Y-83233390D01*
X120739286Y-83233390D02*
X120786905Y-83042914D01*
X120786905Y-83042914D02*
X120834524Y-82947676D01*
X120834524Y-82947676D02*
X120929762Y-82852438D01*
X120929762Y-82852438D02*
X121072619Y-82804819D01*
X121072619Y-82804819D02*
X121167857Y-82804819D01*
X121167857Y-82804819D02*
X121310714Y-82852438D01*
X121310714Y-82852438D02*
X121358333Y-82900057D01*
X122215476Y-82804819D02*
X122025000Y-82804819D01*
X122025000Y-82804819D02*
X121929762Y-82852438D01*
X121929762Y-82852438D02*
X121882143Y-82900057D01*
X121882143Y-82900057D02*
X121786905Y-83042914D01*
X121786905Y-83042914D02*
X121739286Y-83233390D01*
X121739286Y-83233390D02*
X121739286Y-83614342D01*
X121739286Y-83614342D02*
X121786905Y-83709580D01*
X121786905Y-83709580D02*
X121834524Y-83757200D01*
X121834524Y-83757200D02*
X121929762Y-83804819D01*
X121929762Y-83804819D02*
X122120238Y-83804819D01*
X122120238Y-83804819D02*
X122215476Y-83757200D01*
X122215476Y-83757200D02*
X122263095Y-83709580D01*
X122263095Y-83709580D02*
X122310714Y-83614342D01*
X122310714Y-83614342D02*
X122310714Y-83376247D01*
X122310714Y-83376247D02*
X122263095Y-83281009D01*
X122263095Y-83281009D02*
X122215476Y-83233390D01*
X122215476Y-83233390D02*
X122120238Y-83185771D01*
X122120238Y-83185771D02*
X121929762Y-83185771D01*
X121929762Y-83185771D02*
X121834524Y-83233390D01*
X121834524Y-83233390D02*
X121786905Y-83281009D01*
X121786905Y-83281009D02*
X121739286Y-83376247D01*
X147504761Y-58850057D02*
X147409523Y-58802438D01*
X147409523Y-58802438D02*
X147314285Y-58707200D01*
X147314285Y-58707200D02*
X147171428Y-58564342D01*
X147171428Y-58564342D02*
X147076190Y-58516723D01*
X147076190Y-58516723D02*
X146980952Y-58516723D01*
X147028571Y-58754819D02*
X146933333Y-58707200D01*
X146933333Y-58707200D02*
X146838095Y-58611961D01*
X146838095Y-58611961D02*
X146790476Y-58421485D01*
X146790476Y-58421485D02*
X146790476Y-58088152D01*
X146790476Y-58088152D02*
X146838095Y-57897676D01*
X146838095Y-57897676D02*
X146933333Y-57802438D01*
X146933333Y-57802438D02*
X147028571Y-57754819D01*
X147028571Y-57754819D02*
X147219047Y-57754819D01*
X147219047Y-57754819D02*
X147314285Y-57802438D01*
X147314285Y-57802438D02*
X147409523Y-57897676D01*
X147409523Y-57897676D02*
X147457142Y-58088152D01*
X147457142Y-58088152D02*
X147457142Y-58421485D01*
X147457142Y-58421485D02*
X147409523Y-58611961D01*
X147409523Y-58611961D02*
X147314285Y-58707200D01*
X147314285Y-58707200D02*
X147219047Y-58754819D01*
X147219047Y-58754819D02*
X147028571Y-58754819D01*
X147790476Y-57754819D02*
X148457142Y-57754819D01*
X148457142Y-57754819D02*
X148028571Y-58754819D01*
X56611905Y-100584819D02*
X56611905Y-99584819D01*
X56611905Y-99584819D02*
X56850000Y-99584819D01*
X56850000Y-99584819D02*
X56992857Y-99632438D01*
X56992857Y-99632438D02*
X57088095Y-99727676D01*
X57088095Y-99727676D02*
X57135714Y-99822914D01*
X57135714Y-99822914D02*
X57183333Y-100013390D01*
X57183333Y-100013390D02*
X57183333Y-100156247D01*
X57183333Y-100156247D02*
X57135714Y-100346723D01*
X57135714Y-100346723D02*
X57088095Y-100441961D01*
X57088095Y-100441961D02*
X56992857Y-100537200D01*
X56992857Y-100537200D02*
X56850000Y-100584819D01*
X56850000Y-100584819D02*
X56611905Y-100584819D01*
X58088095Y-99584819D02*
X57611905Y-99584819D01*
X57611905Y-99584819D02*
X57564286Y-100061009D01*
X57564286Y-100061009D02*
X57611905Y-100013390D01*
X57611905Y-100013390D02*
X57707143Y-99965771D01*
X57707143Y-99965771D02*
X57945238Y-99965771D01*
X57945238Y-99965771D02*
X58040476Y-100013390D01*
X58040476Y-100013390D02*
X58088095Y-100061009D01*
X58088095Y-100061009D02*
X58135714Y-100156247D01*
X58135714Y-100156247D02*
X58135714Y-100394342D01*
X58135714Y-100394342D02*
X58088095Y-100489580D01*
X58088095Y-100489580D02*
X58040476Y-100537200D01*
X58040476Y-100537200D02*
X57945238Y-100584819D01*
X57945238Y-100584819D02*
X57707143Y-100584819D01*
X57707143Y-100584819D02*
X57611905Y-100537200D01*
X57611905Y-100537200D02*
X57564286Y-100489580D01*
X106734819Y-74191666D02*
X106258628Y-74524999D01*
X106734819Y-74763094D02*
X105734819Y-74763094D01*
X105734819Y-74763094D02*
X105734819Y-74382142D01*
X105734819Y-74382142D02*
X105782438Y-74286904D01*
X105782438Y-74286904D02*
X105830057Y-74239285D01*
X105830057Y-74239285D02*
X105925295Y-74191666D01*
X105925295Y-74191666D02*
X106068152Y-74191666D01*
X106068152Y-74191666D02*
X106163390Y-74239285D01*
X106163390Y-74239285D02*
X106211009Y-74286904D01*
X106211009Y-74286904D02*
X106258628Y-74382142D01*
X106258628Y-74382142D02*
X106258628Y-74763094D01*
X106734819Y-73715475D02*
X106734819Y-73524999D01*
X106734819Y-73524999D02*
X106687200Y-73429761D01*
X106687200Y-73429761D02*
X106639580Y-73382142D01*
X106639580Y-73382142D02*
X106496723Y-73286904D01*
X106496723Y-73286904D02*
X106306247Y-73239285D01*
X106306247Y-73239285D02*
X105925295Y-73239285D01*
X105925295Y-73239285D02*
X105830057Y-73286904D01*
X105830057Y-73286904D02*
X105782438Y-73334523D01*
X105782438Y-73334523D02*
X105734819Y-73429761D01*
X105734819Y-73429761D02*
X105734819Y-73620237D01*
X105734819Y-73620237D02*
X105782438Y-73715475D01*
X105782438Y-73715475D02*
X105830057Y-73763094D01*
X105830057Y-73763094D02*
X105925295Y-73810713D01*
X105925295Y-73810713D02*
X106163390Y-73810713D01*
X106163390Y-73810713D02*
X106258628Y-73763094D01*
X106258628Y-73763094D02*
X106306247Y-73715475D01*
X106306247Y-73715475D02*
X106353866Y-73620237D01*
X106353866Y-73620237D02*
X106353866Y-73429761D01*
X106353866Y-73429761D02*
X106306247Y-73334523D01*
X106306247Y-73334523D02*
X106258628Y-73286904D01*
X106258628Y-73286904D02*
X106163390Y-73239285D01*
X88658333Y-66124819D02*
X88325000Y-65648628D01*
X88086905Y-66124819D02*
X88086905Y-65124819D01*
X88086905Y-65124819D02*
X88467857Y-65124819D01*
X88467857Y-65124819D02*
X88563095Y-65172438D01*
X88563095Y-65172438D02*
X88610714Y-65220057D01*
X88610714Y-65220057D02*
X88658333Y-65315295D01*
X88658333Y-65315295D02*
X88658333Y-65458152D01*
X88658333Y-65458152D02*
X88610714Y-65553390D01*
X88610714Y-65553390D02*
X88563095Y-65601009D01*
X88563095Y-65601009D02*
X88467857Y-65648628D01*
X88467857Y-65648628D02*
X88086905Y-65648628D01*
X89039286Y-65220057D02*
X89086905Y-65172438D01*
X89086905Y-65172438D02*
X89182143Y-65124819D01*
X89182143Y-65124819D02*
X89420238Y-65124819D01*
X89420238Y-65124819D02*
X89515476Y-65172438D01*
X89515476Y-65172438D02*
X89563095Y-65220057D01*
X89563095Y-65220057D02*
X89610714Y-65315295D01*
X89610714Y-65315295D02*
X89610714Y-65410533D01*
X89610714Y-65410533D02*
X89563095Y-65553390D01*
X89563095Y-65553390D02*
X88991667Y-66124819D01*
X88991667Y-66124819D02*
X89610714Y-66124819D01*
X86838095Y-94106819D02*
X87409523Y-94106819D01*
X87123809Y-95106819D02*
X87123809Y-94106819D01*
X87742857Y-95106819D02*
X87742857Y-94106819D01*
X87742857Y-94106819D02*
X88123809Y-94106819D01*
X88123809Y-94106819D02*
X88219047Y-94154438D01*
X88219047Y-94154438D02*
X88266666Y-94202057D01*
X88266666Y-94202057D02*
X88314285Y-94297295D01*
X88314285Y-94297295D02*
X88314285Y-94440152D01*
X88314285Y-94440152D02*
X88266666Y-94535390D01*
X88266666Y-94535390D02*
X88219047Y-94583009D01*
X88219047Y-94583009D02*
X88123809Y-94630628D01*
X88123809Y-94630628D02*
X87742857Y-94630628D01*
X88695238Y-94202057D02*
X88742857Y-94154438D01*
X88742857Y-94154438D02*
X88838095Y-94106819D01*
X88838095Y-94106819D02*
X89076190Y-94106819D01*
X89076190Y-94106819D02*
X89171428Y-94154438D01*
X89171428Y-94154438D02*
X89219047Y-94202057D01*
X89219047Y-94202057D02*
X89266666Y-94297295D01*
X89266666Y-94297295D02*
X89266666Y-94392533D01*
X89266666Y-94392533D02*
X89219047Y-94535390D01*
X89219047Y-94535390D02*
X88647619Y-95106819D01*
X88647619Y-95106819D02*
X89266666Y-95106819D01*
X79733333Y-87459580D02*
X79685714Y-87507200D01*
X79685714Y-87507200D02*
X79542857Y-87554819D01*
X79542857Y-87554819D02*
X79447619Y-87554819D01*
X79447619Y-87554819D02*
X79304762Y-87507200D01*
X79304762Y-87507200D02*
X79209524Y-87411961D01*
X79209524Y-87411961D02*
X79161905Y-87316723D01*
X79161905Y-87316723D02*
X79114286Y-87126247D01*
X79114286Y-87126247D02*
X79114286Y-86983390D01*
X79114286Y-86983390D02*
X79161905Y-86792914D01*
X79161905Y-86792914D02*
X79209524Y-86697676D01*
X79209524Y-86697676D02*
X79304762Y-86602438D01*
X79304762Y-86602438D02*
X79447619Y-86554819D01*
X79447619Y-86554819D02*
X79542857Y-86554819D01*
X79542857Y-86554819D02*
X79685714Y-86602438D01*
X79685714Y-86602438D02*
X79733333Y-86650057D01*
X80066667Y-86554819D02*
X80733333Y-86554819D01*
X80733333Y-86554819D02*
X80304762Y-87554819D01*
X177644819Y-43809523D02*
X178359104Y-43809523D01*
X178359104Y-43809523D02*
X178501961Y-43857142D01*
X178501961Y-43857142D02*
X178597200Y-43952380D01*
X178597200Y-43952380D02*
X178644819Y-44095237D01*
X178644819Y-44095237D02*
X178644819Y-44190475D01*
X178644819Y-42809523D02*
X178644819Y-43380951D01*
X178644819Y-43095237D02*
X177644819Y-43095237D01*
X177644819Y-43095237D02*
X177787676Y-43190475D01*
X177787676Y-43190475D02*
X177882914Y-43285713D01*
X177882914Y-43285713D02*
X177930533Y-43380951D01*
X177740057Y-42428570D02*
X177692438Y-42380951D01*
X177692438Y-42380951D02*
X177644819Y-42285713D01*
X177644819Y-42285713D02*
X177644819Y-42047618D01*
X177644819Y-42047618D02*
X177692438Y-41952380D01*
X177692438Y-41952380D02*
X177740057Y-41904761D01*
X177740057Y-41904761D02*
X177835295Y-41857142D01*
X177835295Y-41857142D02*
X177930533Y-41857142D01*
X177930533Y-41857142D02*
X178073390Y-41904761D01*
X178073390Y-41904761D02*
X178644819Y-42476189D01*
X178644819Y-42476189D02*
X178644819Y-41857142D01*
X36954819Y-94333333D02*
X37669104Y-94333333D01*
X37669104Y-94333333D02*
X37811961Y-94380952D01*
X37811961Y-94380952D02*
X37907200Y-94476190D01*
X37907200Y-94476190D02*
X37954819Y-94619047D01*
X37954819Y-94619047D02*
X37954819Y-94714285D01*
X37954819Y-93857142D02*
X36954819Y-93857142D01*
X36954819Y-93857142D02*
X36954819Y-93476190D01*
X36954819Y-93476190D02*
X37002438Y-93380952D01*
X37002438Y-93380952D02*
X37050057Y-93333333D01*
X37050057Y-93333333D02*
X37145295Y-93285714D01*
X37145295Y-93285714D02*
X37288152Y-93285714D01*
X37288152Y-93285714D02*
X37383390Y-93333333D01*
X37383390Y-93333333D02*
X37431009Y-93380952D01*
X37431009Y-93380952D02*
X37478628Y-93476190D01*
X37478628Y-93476190D02*
X37478628Y-93857142D01*
X36954819Y-92380952D02*
X36954819Y-92857142D01*
X36954819Y-92857142D02*
X37431009Y-92904761D01*
X37431009Y-92904761D02*
X37383390Y-92857142D01*
X37383390Y-92857142D02*
X37335771Y-92761904D01*
X37335771Y-92761904D02*
X37335771Y-92523809D01*
X37335771Y-92523809D02*
X37383390Y-92428571D01*
X37383390Y-92428571D02*
X37431009Y-92380952D01*
X37431009Y-92380952D02*
X37526247Y-92333333D01*
X37526247Y-92333333D02*
X37764342Y-92333333D01*
X37764342Y-92333333D02*
X37859580Y-92380952D01*
X37859580Y-92380952D02*
X37907200Y-92428571D01*
X37907200Y-92428571D02*
X37954819Y-92523809D01*
X37954819Y-92523809D02*
X37954819Y-92761904D01*
X37954819Y-92761904D02*
X37907200Y-92857142D01*
X37907200Y-92857142D02*
X37859580Y-92904761D01*
X175132142Y-73929580D02*
X175084523Y-73977200D01*
X175084523Y-73977200D02*
X174941666Y-74024819D01*
X174941666Y-74024819D02*
X174846428Y-74024819D01*
X174846428Y-74024819D02*
X174703571Y-73977200D01*
X174703571Y-73977200D02*
X174608333Y-73881961D01*
X174608333Y-73881961D02*
X174560714Y-73786723D01*
X174560714Y-73786723D02*
X174513095Y-73596247D01*
X174513095Y-73596247D02*
X174513095Y-73453390D01*
X174513095Y-73453390D02*
X174560714Y-73262914D01*
X174560714Y-73262914D02*
X174608333Y-73167676D01*
X174608333Y-73167676D02*
X174703571Y-73072438D01*
X174703571Y-73072438D02*
X174846428Y-73024819D01*
X174846428Y-73024819D02*
X174941666Y-73024819D01*
X174941666Y-73024819D02*
X175084523Y-73072438D01*
X175084523Y-73072438D02*
X175132142Y-73120057D01*
X176084523Y-74024819D02*
X175513095Y-74024819D01*
X175798809Y-74024819D02*
X175798809Y-73024819D01*
X175798809Y-73024819D02*
X175703571Y-73167676D01*
X175703571Y-73167676D02*
X175608333Y-73262914D01*
X175608333Y-73262914D02*
X175513095Y-73310533D01*
X176560714Y-74024819D02*
X176751190Y-74024819D01*
X176751190Y-74024819D02*
X176846428Y-73977200D01*
X176846428Y-73977200D02*
X176894047Y-73929580D01*
X176894047Y-73929580D02*
X176989285Y-73786723D01*
X176989285Y-73786723D02*
X177036904Y-73596247D01*
X177036904Y-73596247D02*
X177036904Y-73215295D01*
X177036904Y-73215295D02*
X176989285Y-73120057D01*
X176989285Y-73120057D02*
X176941666Y-73072438D01*
X176941666Y-73072438D02*
X176846428Y-73024819D01*
X176846428Y-73024819D02*
X176655952Y-73024819D01*
X176655952Y-73024819D02*
X176560714Y-73072438D01*
X176560714Y-73072438D02*
X176513095Y-73120057D01*
X176513095Y-73120057D02*
X176465476Y-73215295D01*
X176465476Y-73215295D02*
X176465476Y-73453390D01*
X176465476Y-73453390D02*
X176513095Y-73548628D01*
X176513095Y-73548628D02*
X176560714Y-73596247D01*
X176560714Y-73596247D02*
X176655952Y-73643866D01*
X176655952Y-73643866D02*
X176846428Y-73643866D01*
X176846428Y-73643866D02*
X176941666Y-73596247D01*
X176941666Y-73596247D02*
X176989285Y-73548628D01*
X176989285Y-73548628D02*
X177036904Y-73453390D01*
X57183333Y-95584819D02*
X56850000Y-95108628D01*
X56611905Y-95584819D02*
X56611905Y-94584819D01*
X56611905Y-94584819D02*
X56992857Y-94584819D01*
X56992857Y-94584819D02*
X57088095Y-94632438D01*
X57088095Y-94632438D02*
X57135714Y-94680057D01*
X57135714Y-94680057D02*
X57183333Y-94775295D01*
X57183333Y-94775295D02*
X57183333Y-94918152D01*
X57183333Y-94918152D02*
X57135714Y-95013390D01*
X57135714Y-95013390D02*
X57088095Y-95061009D01*
X57088095Y-95061009D02*
X56992857Y-95108628D01*
X56992857Y-95108628D02*
X56611905Y-95108628D01*
X57516667Y-94584819D02*
X58135714Y-94584819D01*
X58135714Y-94584819D02*
X57802381Y-94965771D01*
X57802381Y-94965771D02*
X57945238Y-94965771D01*
X57945238Y-94965771D02*
X58040476Y-95013390D01*
X58040476Y-95013390D02*
X58088095Y-95061009D01*
X58088095Y-95061009D02*
X58135714Y-95156247D01*
X58135714Y-95156247D02*
X58135714Y-95394342D01*
X58135714Y-95394342D02*
X58088095Y-95489580D01*
X58088095Y-95489580D02*
X58040476Y-95537200D01*
X58040476Y-95537200D02*
X57945238Y-95584819D01*
X57945238Y-95584819D02*
X57659524Y-95584819D01*
X57659524Y-95584819D02*
X57564286Y-95537200D01*
X57564286Y-95537200D02*
X57516667Y-95489580D01*
X46832142Y-85224819D02*
X46498809Y-84748628D01*
X46260714Y-85224819D02*
X46260714Y-84224819D01*
X46260714Y-84224819D02*
X46641666Y-84224819D01*
X46641666Y-84224819D02*
X46736904Y-84272438D01*
X46736904Y-84272438D02*
X46784523Y-84320057D01*
X46784523Y-84320057D02*
X46832142Y-84415295D01*
X46832142Y-84415295D02*
X46832142Y-84558152D01*
X46832142Y-84558152D02*
X46784523Y-84653390D01*
X46784523Y-84653390D02*
X46736904Y-84701009D01*
X46736904Y-84701009D02*
X46641666Y-84748628D01*
X46641666Y-84748628D02*
X46260714Y-84748628D01*
X47784523Y-85224819D02*
X47213095Y-85224819D01*
X47498809Y-85224819D02*
X47498809Y-84224819D01*
X47498809Y-84224819D02*
X47403571Y-84367676D01*
X47403571Y-84367676D02*
X47308333Y-84462914D01*
X47308333Y-84462914D02*
X47213095Y-84510533D01*
X48641666Y-84224819D02*
X48451190Y-84224819D01*
X48451190Y-84224819D02*
X48355952Y-84272438D01*
X48355952Y-84272438D02*
X48308333Y-84320057D01*
X48308333Y-84320057D02*
X48213095Y-84462914D01*
X48213095Y-84462914D02*
X48165476Y-84653390D01*
X48165476Y-84653390D02*
X48165476Y-85034342D01*
X48165476Y-85034342D02*
X48213095Y-85129580D01*
X48213095Y-85129580D02*
X48260714Y-85177200D01*
X48260714Y-85177200D02*
X48355952Y-85224819D01*
X48355952Y-85224819D02*
X48546428Y-85224819D01*
X48546428Y-85224819D02*
X48641666Y-85177200D01*
X48641666Y-85177200D02*
X48689285Y-85129580D01*
X48689285Y-85129580D02*
X48736904Y-85034342D01*
X48736904Y-85034342D02*
X48736904Y-84796247D01*
X48736904Y-84796247D02*
X48689285Y-84701009D01*
X48689285Y-84701009D02*
X48641666Y-84653390D01*
X48641666Y-84653390D02*
X48546428Y-84605771D01*
X48546428Y-84605771D02*
X48355952Y-84605771D01*
X48355952Y-84605771D02*
X48260714Y-84653390D01*
X48260714Y-84653390D02*
X48213095Y-84701009D01*
X48213095Y-84701009D02*
X48165476Y-84796247D01*
X87133333Y-70809580D02*
X87085714Y-70857200D01*
X87085714Y-70857200D02*
X86942857Y-70904819D01*
X86942857Y-70904819D02*
X86847619Y-70904819D01*
X86847619Y-70904819D02*
X86704762Y-70857200D01*
X86704762Y-70857200D02*
X86609524Y-70761961D01*
X86609524Y-70761961D02*
X86561905Y-70666723D01*
X86561905Y-70666723D02*
X86514286Y-70476247D01*
X86514286Y-70476247D02*
X86514286Y-70333390D01*
X86514286Y-70333390D02*
X86561905Y-70142914D01*
X86561905Y-70142914D02*
X86609524Y-70047676D01*
X86609524Y-70047676D02*
X86704762Y-69952438D01*
X86704762Y-69952438D02*
X86847619Y-69904819D01*
X86847619Y-69904819D02*
X86942857Y-69904819D01*
X86942857Y-69904819D02*
X87085714Y-69952438D01*
X87085714Y-69952438D02*
X87133333Y-70000057D01*
X87514286Y-70000057D02*
X87561905Y-69952438D01*
X87561905Y-69952438D02*
X87657143Y-69904819D01*
X87657143Y-69904819D02*
X87895238Y-69904819D01*
X87895238Y-69904819D02*
X87990476Y-69952438D01*
X87990476Y-69952438D02*
X88038095Y-70000057D01*
X88038095Y-70000057D02*
X88085714Y-70095295D01*
X88085714Y-70095295D02*
X88085714Y-70190533D01*
X88085714Y-70190533D02*
X88038095Y-70333390D01*
X88038095Y-70333390D02*
X87466667Y-70904819D01*
X87466667Y-70904819D02*
X88085714Y-70904819D01*
X197372319Y-110773333D02*
X198086604Y-110773333D01*
X198086604Y-110773333D02*
X198229461Y-110820952D01*
X198229461Y-110820952D02*
X198324700Y-110916190D01*
X198324700Y-110916190D02*
X198372319Y-111059047D01*
X198372319Y-111059047D02*
X198372319Y-111154285D01*
X198372319Y-110249523D02*
X198372319Y-110059047D01*
X198372319Y-110059047D02*
X198324700Y-109963809D01*
X198324700Y-109963809D02*
X198277080Y-109916190D01*
X198277080Y-109916190D02*
X198134223Y-109820952D01*
X198134223Y-109820952D02*
X197943747Y-109773333D01*
X197943747Y-109773333D02*
X197562795Y-109773333D01*
X197562795Y-109773333D02*
X197467557Y-109820952D01*
X197467557Y-109820952D02*
X197419938Y-109868571D01*
X197419938Y-109868571D02*
X197372319Y-109963809D01*
X197372319Y-109963809D02*
X197372319Y-110154285D01*
X197372319Y-110154285D02*
X197419938Y-110249523D01*
X197419938Y-110249523D02*
X197467557Y-110297142D01*
X197467557Y-110297142D02*
X197562795Y-110344761D01*
X197562795Y-110344761D02*
X197800890Y-110344761D01*
X197800890Y-110344761D02*
X197896128Y-110297142D01*
X197896128Y-110297142D02*
X197943747Y-110249523D01*
X197943747Y-110249523D02*
X197991366Y-110154285D01*
X197991366Y-110154285D02*
X197991366Y-109963809D01*
X197991366Y-109963809D02*
X197943747Y-109868571D01*
X197943747Y-109868571D02*
X197896128Y-109820952D01*
X197896128Y-109820952D02*
X197800890Y-109773333D01*
D11*
%TO.C,U5*%
X106400000Y-33890000D02*
X106400000Y-40050000D01*
X106400000Y-33890000D02*
X124640000Y-33890000D01*
X106400000Y-58850000D02*
X106400000Y-59630000D01*
X106400000Y-59630000D02*
X107400000Y-59630000D01*
X124640000Y-33890000D02*
X124640000Y-40305000D01*
X124640000Y-58850000D02*
X124640000Y-59630000D01*
X124640000Y-59630000D02*
X123640000Y-59630000D01*
X106395000Y-40775000D02*
X105895000Y-40775000D01*
X106395000Y-40275000D01*
X106395000Y-40775000D01*
G36*
X106395000Y-40775000D02*
G01*
X105895000Y-40775000D01*
X106395000Y-40275000D01*
X106395000Y-40775000D01*
G37*
%TO.C,C3*%
X65165580Y-75890000D02*
X64884420Y-75890000D01*
X65165580Y-76910000D02*
X64884420Y-76910000D01*
%TO.C,F3*%
X173890000Y-94340000D02*
X194510000Y-94340000D01*
X173890000Y-100960000D02*
X173890000Y-94340000D01*
X194510000Y-94340000D02*
X194510000Y-100960000D01*
X194510000Y-100960000D02*
X173890000Y-100960000D01*
%TO.C,R8*%
X100487258Y-80877500D02*
X100012742Y-80877500D01*
X100487258Y-81922500D02*
X100012742Y-81922500D01*
%TO.C,J7*%
X199097500Y-91670000D02*
X206637500Y-91670000D01*
X199097500Y-103330000D02*
X199097500Y-91670000D01*
X206637500Y-91670000D02*
X206637500Y-101010000D01*
X206637500Y-101610000D02*
X206637500Y-103330000D01*
X206637500Y-103330000D02*
X199097500Y-103330000D01*
X207247500Y-101750000D02*
X206637500Y-101310000D01*
X207247500Y-100870000D01*
X207247500Y-101750000D01*
G36*
X207247500Y-101750000D02*
G01*
X206637500Y-101310000D01*
X207247500Y-100870000D01*
X207247500Y-101750000D01*
G37*
%TO.C,F4*%
X173890000Y-119940000D02*
X194510000Y-119940000D01*
X173890000Y-126560000D02*
X173890000Y-119940000D01*
X194510000Y-119940000D02*
X194510000Y-126560000D01*
X194510000Y-126560000D02*
X173890000Y-126560000D01*
%TO.C,J16*%
X148960000Y-119180000D02*
X159360000Y-119180000D01*
X148960000Y-122200000D02*
X159360000Y-122200000D01*
X148960000Y-127100000D02*
X159360000Y-127100000D01*
X148960000Y-128600000D02*
X159360000Y-128600000D01*
X148960000Y-129220000D02*
X148960000Y-119180000D01*
X151320000Y-129220000D02*
X148960000Y-129220000D01*
X159360000Y-119180000D02*
X159360000Y-129220000D01*
X159360000Y-129220000D02*
X151920000Y-129220000D01*
X152060000Y-129830000D02*
X151180000Y-129830000D01*
X151620000Y-129220000D01*
X152060000Y-129830000D01*
G36*
X152060000Y-129830000D02*
G01*
X151180000Y-129830000D01*
X151620000Y-129220000D01*
X152060000Y-129830000D01*
G37*
%TO.C,C5*%
X99665000Y-88211252D02*
X99665000Y-87688748D01*
X101135000Y-88211252D02*
X101135000Y-87688748D01*
%TO.C,R15*%
X156477500Y-67587742D02*
X156477500Y-68062258D01*
X157522500Y-67587742D02*
X157522500Y-68062258D01*
%TO.C,F1*%
X56048752Y-48390000D02*
X53276248Y-48390000D01*
X56048752Y-51810000D02*
X53276248Y-51810000D01*
%TO.C,DZ1*%
X68190000Y-48100000D02*
X68190000Y-50100000D01*
X68190000Y-48100000D02*
X72200000Y-48100000D01*
X68190000Y-50100000D02*
X72200000Y-50100000D01*
%TO.C,R4*%
X65112742Y-96037500D02*
X65587258Y-96037500D01*
X65112742Y-97082500D02*
X65587258Y-97082500D01*
%TO.C,C13*%
X149634420Y-73990000D02*
X149915580Y-73990000D01*
X149634420Y-75010000D02*
X149915580Y-75010000D01*
%TO.C,JP2*%
X132600000Y-103100000D02*
X132600000Y-100300000D01*
X133300000Y-99650000D02*
X133900000Y-99650000D01*
X133900000Y-103750000D02*
X133300000Y-103750000D01*
X134600000Y-100300000D02*
X134600000Y-103100000D01*
X134800000Y-102900000D02*
X135100000Y-102600000D01*
X134800000Y-102900000D02*
X135100000Y-103200000D01*
X135100000Y-103200000D02*
X135100000Y-102600000D01*
X132600000Y-100350000D02*
G75*
G02*
X133300000Y-99650000I700000J0D01*
G01*
X133300000Y-103750000D02*
G75*
G02*
X132600000Y-103050000I-1J699999D01*
G01*
X133900000Y-99650000D02*
G75*
G02*
X134600000Y-100350000I0J-700000D01*
G01*
X134600000Y-103050000D02*
G75*
G02*
X133900000Y-103750000I-699999J-1D01*
G01*
%TO.C,R23*%
X133712258Y-96377500D02*
X133237742Y-96377500D01*
X133712258Y-97422500D02*
X133237742Y-97422500D01*
%TO.C,U8*%
X96365000Y-72345000D02*
X100485000Y-72345000D01*
X96365000Y-72440000D02*
X96365000Y-72345000D01*
X96365000Y-77465000D02*
X96365000Y-77370000D01*
X100485000Y-72345000D02*
X100485000Y-72440000D01*
X100485000Y-77370000D02*
X100485000Y-77465000D01*
X100485000Y-77465000D02*
X96365000Y-77465000D01*
X95825000Y-72435000D02*
X95585000Y-72105000D01*
X96065000Y-72105000D01*
X95825000Y-72435000D01*
G36*
X95825000Y-72435000D02*
G01*
X95585000Y-72105000D01*
X96065000Y-72105000D01*
X95825000Y-72435000D01*
G37*
%TO.C,R5*%
X73662258Y-96077500D02*
X73187742Y-96077500D01*
X73662258Y-97122500D02*
X73187742Y-97122500D01*
%TO.C,J17*%
X160860000Y-119180000D02*
X171260000Y-119180000D01*
X160860000Y-122200000D02*
X171260000Y-122200000D01*
X160860000Y-127100000D02*
X171260000Y-127100000D01*
X160860000Y-128600000D02*
X171260000Y-128600000D01*
X160860000Y-129220000D02*
X160860000Y-119180000D01*
X163220000Y-129220000D02*
X160860000Y-129220000D01*
X171260000Y-119180000D02*
X171260000Y-129220000D01*
X171260000Y-129220000D02*
X163820000Y-129220000D01*
X163960000Y-129830000D02*
X163080000Y-129830000D01*
X163520000Y-129220000D01*
X163960000Y-129830000D01*
G36*
X163960000Y-129830000D02*
G01*
X163080000Y-129830000D01*
X163520000Y-129220000D01*
X163960000Y-129830000D01*
G37*
%TO.C,F7*%
X164840000Y-97290000D02*
X171460000Y-97290000D01*
X164840000Y-117910000D02*
X164840000Y-97290000D01*
X171460000Y-97290000D02*
X171460000Y-117910000D01*
X171460000Y-117910000D02*
X164840000Y-117910000D01*
%TO.C,JP1*%
X127500000Y-105200000D02*
X127500000Y-102400000D01*
X128200000Y-101750000D02*
X128800000Y-101750000D01*
X128800000Y-105850000D02*
X128200000Y-105850000D01*
X129500000Y-102400000D02*
X129500000Y-105200000D01*
X129700000Y-105000000D02*
X130000000Y-104700000D01*
X129700000Y-105000000D02*
X130000000Y-105300000D01*
X130000000Y-105300000D02*
X130000000Y-104700000D01*
X127500000Y-102450000D02*
G75*
G02*
X128200000Y-101750000I700000J0D01*
G01*
X128200000Y-105850000D02*
G75*
G02*
X127500000Y-105150000I-1J699999D01*
G01*
X128800000Y-101750000D02*
G75*
G02*
X129500000Y-102450000I0J-700000D01*
G01*
X129500000Y-105150000D02*
G75*
G02*
X128800000Y-105850000I-699999J-1D01*
G01*
%TO.C,R24*%
X58912258Y-86377500D02*
X58437742Y-86377500D01*
X58912258Y-87422500D02*
X58437742Y-87422500D01*
%TO.C,Q5*%
X55440000Y-113890000D02*
X60060000Y-113890000D01*
X55440000Y-117150000D02*
X56820000Y-117150000D01*
X55440000Y-120850000D02*
X56820000Y-120850000D01*
X55440000Y-124110000D02*
X55440000Y-113890000D01*
X56820000Y-124110000D02*
X56820000Y-113890000D01*
X60060000Y-113890000D02*
X60060000Y-124110000D01*
X60060000Y-124110000D02*
X55440000Y-124110000D01*
%TO.C,R26*%
X152812258Y-56277500D02*
X152337742Y-56277500D01*
X152812258Y-57322500D02*
X152337742Y-57322500D01*
%TO.C,R27*%
X148912258Y-66377500D02*
X148437742Y-66377500D01*
X148912258Y-67422500D02*
X148437742Y-67422500D01*
%TO.C,J1*%
X28680000Y-116040000D02*
X40120000Y-116040000D01*
X28680000Y-118400000D02*
X28680000Y-116040000D01*
X28680000Y-126440000D02*
X28680000Y-119000000D01*
X29300000Y-116040000D02*
X29300000Y-126440000D01*
X31800000Y-116040000D02*
X31800000Y-126440000D01*
X38000000Y-116040000D02*
X38000000Y-126440000D01*
X40120000Y-116040000D02*
X40120000Y-126440000D01*
X40120000Y-126440000D02*
X28680000Y-126440000D01*
X28680000Y-118700000D02*
X28070000Y-119140000D01*
X28070000Y-118260000D01*
X28680000Y-118700000D01*
G36*
X28680000Y-118700000D02*
G01*
X28070000Y-119140000D01*
X28070000Y-118260000D01*
X28680000Y-118700000D01*
G37*
%TO.C,C9*%
X73340000Y-89434420D02*
X73340000Y-89715580D01*
X74360000Y-89434420D02*
X74360000Y-89715580D01*
%TO.C,C15*%
X175859420Y-63490000D02*
X176140580Y-63490000D01*
X175859420Y-64510000D02*
X176140580Y-64510000D01*
%TO.C,R1*%
X80612258Y-68077500D02*
X80137742Y-68077500D01*
X80612258Y-69122500D02*
X80137742Y-69122500D01*
%TO.C,C18*%
X144215000Y-76634420D02*
X144215000Y-76915580D01*
X145235000Y-76634420D02*
X145235000Y-76915580D01*
%TO.C,TP3*%
X134450000Y-54500000D02*
G75*
G02*
X132550000Y-54500000I-950000J0D01*
G01*
X132550000Y-54500000D02*
G75*
G02*
X134450000Y-54500000I950000J0D01*
G01*
%TO.C,D1*%
X45150000Y-53310000D02*
X45150000Y-47500000D01*
X45150000Y-53310000D02*
X49450000Y-53310000D01*
X49450000Y-53310000D02*
X49450000Y-47500000D01*
%TO.C,D7*%
X71865000Y-100825000D02*
X71865000Y-102295000D01*
X71865000Y-102295000D02*
X74150000Y-102295000D01*
X74150000Y-100825000D02*
X71865000Y-100825000D01*
%TO.C,C16*%
X121284420Y-89890000D02*
X121565580Y-89890000D01*
X121284420Y-90910000D02*
X121565580Y-90910000D01*
%TO.C,R12*%
X139977500Y-76587742D02*
X139977500Y-77062258D01*
X141022500Y-76587742D02*
X141022500Y-77062258D01*
%TO.C,Q3*%
X58102500Y-80240000D02*
X59622500Y-80240000D01*
X58102500Y-80290000D02*
X58102500Y-80240000D01*
X58102500Y-82190000D02*
X58102500Y-81410000D01*
X58102500Y-83360000D02*
X58102500Y-83310000D01*
X59622500Y-80240000D02*
X59622500Y-81240000D01*
X59622500Y-82360000D02*
X59622500Y-83360000D01*
X59622500Y-83360000D02*
X58102500Y-83360000D01*
X57802500Y-81750000D02*
X57322500Y-81750000D01*
X57562500Y-81420000D01*
X57802500Y-81750000D01*
G36*
X57802500Y-81750000D02*
G01*
X57322500Y-81750000D01*
X57562500Y-81420000D01*
X57802500Y-81750000D01*
G37*
%TO.C,J5*%
X103620000Y-102540000D02*
X103620000Y-94810000D01*
X106380000Y-94810000D02*
X103620000Y-94810000D01*
X106380000Y-102540000D02*
X103620000Y-102540000D01*
X106380000Y-102540000D02*
X106380000Y-94810000D01*
X106380000Y-103810000D02*
X106380000Y-105190000D01*
X106380000Y-105190000D02*
X105000000Y-105190000D01*
%TO.C,SW1*%
X89790000Y-43520000D02*
X89790000Y-43550000D01*
X89790000Y-48050000D02*
X89790000Y-45450000D01*
X89790000Y-49980000D02*
X89790000Y-49950000D01*
X96250000Y-43520000D02*
X89790000Y-43520000D01*
X96250000Y-43520000D02*
X96250000Y-43550000D01*
X96250000Y-48050000D02*
X96250000Y-45450000D01*
X96250000Y-49950000D02*
X96250000Y-49980000D01*
X96250000Y-49980000D02*
X89790000Y-49980000D01*
%TO.C,U12*%
X139627500Y-81390000D02*
X141447500Y-81390000D01*
X139627500Y-81440000D02*
X139627500Y-81390000D01*
X139627500Y-84510000D02*
X139627500Y-84460000D01*
X141447500Y-81390000D02*
X141447500Y-81440000D01*
X141447500Y-84460000D02*
X141447500Y-84510000D01*
X141447500Y-84510000D02*
X139627500Y-84510000D01*
X139087500Y-81440000D02*
X138847500Y-81110000D01*
X139327500Y-81110000D01*
X139087500Y-81440000D01*
G36*
X139087500Y-81440000D02*
G01*
X138847500Y-81110000D01*
X139327500Y-81110000D01*
X139087500Y-81440000D01*
G37*
%TO.C,R17*%
X68287742Y-62627500D02*
X68762258Y-62627500D01*
X68287742Y-63672500D02*
X68762258Y-63672500D01*
%TO.C,R6*%
X184937742Y-46477500D02*
X185412258Y-46477500D01*
X184937742Y-47522500D02*
X185412258Y-47522500D01*
%TO.C,R22*%
X135812258Y-92077500D02*
X135337742Y-92077500D01*
X135812258Y-93122500D02*
X135337742Y-93122500D01*
%TO.C,J8*%
X199180000Y-117670000D02*
X206720000Y-117670000D01*
X199180000Y-129330000D02*
X199180000Y-117670000D01*
X206720000Y-117670000D02*
X206720000Y-127010000D01*
X206720000Y-127610000D02*
X206720000Y-129330000D01*
X206720000Y-129330000D02*
X199180000Y-129330000D01*
X207330000Y-127750000D02*
X206720000Y-127310000D01*
X207330000Y-126870000D01*
X207330000Y-127750000D01*
G36*
X207330000Y-127750000D02*
G01*
X206720000Y-127310000D01*
X207330000Y-126870000D01*
X207330000Y-127750000D01*
G37*
%TO.C,R20*%
X125112258Y-99677500D02*
X124637742Y-99677500D01*
X125112258Y-100722500D02*
X124637742Y-100722500D01*
%TO.C,C10*%
X101290000Y-42584420D02*
X101290000Y-42865580D01*
X102310000Y-42584420D02*
X102310000Y-42865580D01*
%TO.C,R14*%
X175537742Y-68477500D02*
X176012258Y-68477500D01*
X175537742Y-69522500D02*
X176012258Y-69522500D01*
%TO.C,TP1*%
X77450000Y-52700000D02*
G75*
G02*
X75550000Y-52700000I-950000J0D01*
G01*
X75550000Y-52700000D02*
G75*
G02*
X77450000Y-52700000I950000J0D01*
G01*
%TO.C,J6*%
X199097500Y-78670000D02*
X206637500Y-78670000D01*
X199097500Y-90330000D02*
X199097500Y-78670000D01*
X206637500Y-78670000D02*
X206637500Y-88010000D01*
X206637500Y-88610000D02*
X206637500Y-90330000D01*
X206637500Y-90330000D02*
X199097500Y-90330000D01*
X207247500Y-88750000D02*
X206637500Y-88310000D01*
X207247500Y-87870000D01*
X207247500Y-88750000D01*
G36*
X207247500Y-88750000D02*
G01*
X206637500Y-88310000D01*
X207247500Y-87870000D01*
X207247500Y-88750000D01*
G37*
%TO.C,D10*%
X52700000Y-79640000D02*
X52700000Y-83650000D01*
X54700000Y-79640000D02*
X52700000Y-79640000D01*
X54700000Y-79640000D02*
X54700000Y-83650000D01*
%TO.C,U9*%
X164940000Y-64140000D02*
X165390000Y-64140000D01*
X164940000Y-64590000D02*
X164940000Y-64140000D01*
X164940000Y-68360000D02*
X164940000Y-67910000D01*
X165390000Y-68360000D02*
X164940000Y-68360000D01*
X168710000Y-64140000D02*
X169160000Y-64140000D01*
X169160000Y-64140000D02*
X169160000Y-64590000D01*
X169160000Y-67910000D02*
X169160000Y-68360000D01*
X169160000Y-68360000D02*
X168710000Y-68360000D01*
X166040000Y-69220000D02*
X165560000Y-69220000D01*
X165800000Y-68890000D01*
X166040000Y-69220000D01*
G36*
X166040000Y-69220000D02*
G01*
X165560000Y-69220000D01*
X165800000Y-68890000D01*
X166040000Y-69220000D01*
G37*
%TO.C,U7*%
X176740000Y-48240000D02*
X177215000Y-48240000D01*
X176740000Y-48715000D02*
X176740000Y-48240000D01*
X176740000Y-52460000D02*
X176740000Y-51985000D01*
X177215000Y-52460000D02*
X176740000Y-52460000D01*
X180485000Y-48240000D02*
X180960000Y-48240000D01*
X180960000Y-48240000D02*
X180960000Y-48715000D01*
X180960000Y-51985000D02*
X180960000Y-52460000D01*
X180960000Y-52460000D02*
X180485000Y-52460000D01*
X176240000Y-49100000D02*
X175910000Y-49340000D01*
X175910000Y-48860000D01*
X176240000Y-49100000D01*
G36*
X176240000Y-49100000D02*
G01*
X175910000Y-49340000D01*
X175910000Y-48860000D01*
X176240000Y-49100000D01*
G37*
%TO.C,R28*%
X132462258Y-61477500D02*
X131987742Y-61477500D01*
X132462258Y-62522500D02*
X131987742Y-62522500D01*
%TO.C,D4*%
X148350000Y-86110000D02*
X148350000Y-80600000D01*
X148350000Y-86110000D02*
X151650000Y-86110000D01*
X151650000Y-86110000D02*
X151650000Y-80600000D01*
%TO.C,J15*%
X185090000Y-57120000D02*
X190890000Y-57120000D01*
X185090000Y-73380000D02*
X185090000Y-57120000D01*
X185090000Y-73380000D02*
X190890000Y-73380000D01*
X188340000Y-73610000D02*
X190140000Y-73610000D01*
X194170000Y-57120000D02*
X201190000Y-57120000D01*
X194170000Y-73380000D02*
X201190000Y-73380000D01*
%TO.C,F6*%
X156440000Y-97290000D02*
X163060000Y-97290000D01*
X156440000Y-117910000D02*
X156440000Y-97290000D01*
X163060000Y-97290000D02*
X163060000Y-117910000D01*
X163060000Y-117910000D02*
X156440000Y-117910000D01*
%TO.C,J13*%
X28845000Y-78770000D02*
X36385000Y-78770000D01*
X28845000Y-80490000D02*
X28845000Y-78770000D01*
X28845000Y-86620000D02*
X28845000Y-81090000D01*
X36385000Y-78770000D02*
X36385000Y-86620000D01*
X36385000Y-86620000D02*
X28845000Y-86620000D01*
X28845000Y-80790000D02*
X28235000Y-81230000D01*
X28235000Y-80350000D01*
X28845000Y-80790000D01*
G36*
X28845000Y-80790000D02*
G01*
X28235000Y-81230000D01*
X28235000Y-80350000D01*
X28845000Y-80790000D01*
G37*
%TO.C,D2*%
X74150000Y-59290000D02*
X74150000Y-64800000D01*
X77450000Y-59290000D02*
X74150000Y-59290000D01*
X77450000Y-59290000D02*
X77450000Y-64800000D01*
%TO.C,J3*%
X30520000Y-88180000D02*
X31900000Y-88180000D01*
X30520000Y-89560000D02*
X30520000Y-88180000D01*
X30520000Y-90830000D02*
X30520000Y-98560000D01*
X30520000Y-90830000D02*
X33280000Y-90830000D01*
X30520000Y-98560000D02*
X33280000Y-98560000D01*
X33280000Y-90830000D02*
X33280000Y-98560000D01*
%TO.C,JP4*%
X137200000Y-99800000D02*
X137200000Y-97000000D01*
X137900000Y-96350000D02*
X138500000Y-96350000D01*
X138500000Y-100450000D02*
X137900000Y-100450000D01*
X139200000Y-97000000D02*
X139200000Y-99800000D01*
X139400000Y-99600000D02*
X139700000Y-99300000D01*
X139400000Y-99600000D02*
X139700000Y-99900000D01*
X139700000Y-99900000D02*
X139700000Y-99300000D01*
X137200000Y-97050000D02*
G75*
G02*
X137900000Y-96350000I700000J0D01*
G01*
X137900000Y-100450000D02*
G75*
G02*
X137200000Y-99750000I-1J699999D01*
G01*
X138500000Y-96350000D02*
G75*
G02*
X139200000Y-97050000I0J-700000D01*
G01*
X139200000Y-99750000D02*
G75*
G02*
X138500000Y-100450000I-699999J-1D01*
G01*
%TO.C,D6*%
X63865000Y-100825000D02*
X63865000Y-102295000D01*
X63865000Y-102295000D02*
X66150000Y-102295000D01*
X66150000Y-100825000D02*
X63865000Y-100825000D01*
%TO.C,U1*%
X62765000Y-67645000D02*
X66885000Y-67645000D01*
X62765000Y-67740000D02*
X62765000Y-67645000D01*
X62765000Y-72765000D02*
X62765000Y-72670000D01*
X66885000Y-67645000D02*
X66885000Y-67740000D01*
X66885000Y-72670000D02*
X66885000Y-72765000D01*
X66885000Y-72765000D02*
X62765000Y-72765000D01*
X62225000Y-67735000D02*
X61985000Y-67405000D01*
X62465000Y-67405000D01*
X62225000Y-67735000D01*
G36*
X62225000Y-67735000D02*
G01*
X61985000Y-67405000D01*
X62465000Y-67405000D01*
X62225000Y-67735000D01*
G37*
%TO.C,C4*%
X64984420Y-46290000D02*
X65265580Y-46290000D01*
X64984420Y-47310000D02*
X65265580Y-47310000D01*
%TO.C,R19*%
X100137742Y-46577500D02*
X100612258Y-46577500D01*
X100137742Y-47622500D02*
X100612258Y-47622500D01*
%TO.C,R10*%
X96487258Y-80877500D02*
X96012742Y-80877500D01*
X96487258Y-81922500D02*
X96012742Y-81922500D01*
%TO.C,U2*%
X106800000Y-80390000D02*
X110560000Y-80390000D01*
X106800000Y-87210000D02*
X110560000Y-87210000D01*
X110560000Y-80390000D02*
X110560000Y-81650000D01*
X110560000Y-87210000D02*
X110560000Y-85950000D01*
X105520000Y-80490000D02*
X105280000Y-80160000D01*
X105760000Y-80160000D01*
X105520000Y-80490000D01*
G36*
X105520000Y-80490000D02*
G01*
X105280000Y-80160000D01*
X105760000Y-80160000D01*
X105520000Y-80490000D01*
G37*
%TO.C,Q6*%
X43602500Y-80490000D02*
X45122500Y-80490000D01*
X43602500Y-81490000D02*
X43602500Y-80490000D01*
X43602500Y-83610000D02*
X43602500Y-82610000D01*
X45122500Y-80490000D02*
X45122500Y-80540000D01*
X45122500Y-81660000D02*
X45122500Y-82440000D01*
X45122500Y-83560000D02*
X45122500Y-83610000D01*
X45122500Y-83610000D02*
X43602500Y-83610000D01*
X45662500Y-82430000D02*
X45422500Y-82100000D01*
X45902500Y-82100000D01*
X45662500Y-82430000D01*
G36*
X45662500Y-82430000D02*
G01*
X45422500Y-82100000D01*
X45902500Y-82100000D01*
X45662500Y-82430000D01*
G37*
%TO.C,R25*%
X71412258Y-56377500D02*
X70937742Y-56377500D01*
X71412258Y-57422500D02*
X70937742Y-57422500D01*
%TO.C,Q1*%
X59802500Y-48340000D02*
X61322500Y-48340000D01*
X59802500Y-48390000D02*
X59802500Y-48340000D01*
X59802500Y-50290000D02*
X59802500Y-49510000D01*
X59802500Y-51460000D02*
X59802500Y-51410000D01*
X61322500Y-48340000D02*
X61322500Y-49340000D01*
X61322500Y-50460000D02*
X61322500Y-51460000D01*
X61322500Y-51460000D02*
X59802500Y-51460000D01*
X59502500Y-49850000D02*
X59022500Y-49850000D01*
X59262500Y-49520000D01*
X59502500Y-49850000D01*
G36*
X59502500Y-49850000D02*
G01*
X59022500Y-49850000D01*
X59262500Y-49520000D01*
X59502500Y-49850000D01*
G37*
%TO.C,R11*%
X135477500Y-76587742D02*
X135477500Y-77062258D01*
X136522500Y-76587742D02*
X136522500Y-77062258D01*
%TO.C,F5*%
X173890000Y-106940000D02*
X194510000Y-106940000D01*
X173890000Y-113560000D02*
X173890000Y-106940000D01*
X194510000Y-106940000D02*
X194510000Y-113560000D01*
X194510000Y-113560000D02*
X173890000Y-113560000D01*
%TO.C,C12*%
X100540000Y-69515580D02*
X100540000Y-69234420D01*
X101560000Y-69515580D02*
X101560000Y-69234420D01*
%TO.C,C17*%
X143265580Y-55990000D02*
X142984420Y-55990000D01*
X143265580Y-57010000D02*
X142984420Y-57010000D01*
%TO.C,R21*%
X129312258Y-97777500D02*
X128837742Y-97777500D01*
X129312258Y-98822500D02*
X128837742Y-98822500D01*
%TO.C,R7*%
X190762742Y-49477500D02*
X191237258Y-49477500D01*
X190762742Y-50522500D02*
X191237258Y-50522500D01*
%TO.C,FB2*%
X68890000Y-88962878D02*
X68890000Y-89762122D01*
X70010000Y-88962878D02*
X70010000Y-89762122D01*
%TO.C,D3*%
X91010000Y-88250000D02*
X85500000Y-88250000D01*
X91010000Y-91550000D02*
X85500000Y-91550000D01*
X91010000Y-91550000D02*
X91010000Y-88250000D01*
%TO.C,U11*%
X127674999Y-79140000D02*
X131794999Y-79140000D01*
X127674999Y-79205000D02*
X127674999Y-79140000D01*
X127674999Y-88010000D02*
X127674999Y-87945000D01*
X131794999Y-79140000D02*
X131794999Y-79205000D01*
X131794999Y-87945000D02*
X131794999Y-88010000D01*
X131794999Y-88010000D02*
X127674999Y-88010000D01*
X127134999Y-79205000D02*
X126894999Y-78875000D01*
X127374999Y-78875000D01*
X127134999Y-79205000D01*
G36*
X127134999Y-79205000D02*
G01*
X126894999Y-78875000D01*
X127374999Y-78875000D01*
X127134999Y-79205000D01*
G37*
%TO.C,J14*%
X136850000Y-44380000D02*
X136850000Y-43000000D01*
X138230000Y-44380000D02*
X136850000Y-44380000D01*
X139500000Y-41620000D02*
X162470000Y-41620000D01*
X139500000Y-44380000D02*
X139500000Y-41620000D01*
X139500000Y-44380000D02*
X162470000Y-44380000D01*
X162470000Y-44380000D02*
X162470000Y-41620000D01*
%TO.C,J11*%
X91520000Y-97280000D02*
X91520000Y-95900000D01*
X92900000Y-97280000D02*
X91520000Y-97280000D01*
X94170000Y-94520000D02*
X101900000Y-94520000D01*
X94170000Y-97280000D02*
X94170000Y-94520000D01*
X94170000Y-97280000D02*
X101900000Y-97280000D01*
X101900000Y-97280000D02*
X101900000Y-94520000D01*
%TO.C,C11*%
X175859420Y-57490000D02*
X176140580Y-57490000D01*
X175859420Y-58510000D02*
X176140580Y-58510000D01*
%TO.C,C1*%
X30220000Y-107960000D02*
X40380000Y-107960000D01*
X30220000Y-108000000D02*
X40380000Y-108000000D01*
X30221000Y-107880000D02*
X40379000Y-107880000D01*
X30221000Y-107920000D02*
X40379000Y-107920000D01*
X30223000Y-107840000D02*
X40377000Y-107840000D01*
X30224000Y-107800000D02*
X40376000Y-107800000D01*
X30226000Y-107760000D02*
X40374000Y-107760000D01*
X30228000Y-107720000D02*
X40372000Y-107720000D01*
X30230000Y-107680000D02*
X40370000Y-107680000D01*
X30233000Y-107640000D02*
X40367000Y-107640000D01*
X30236000Y-107600000D02*
X40364000Y-107600000D01*
X30239000Y-107560000D02*
X40361000Y-107560000D01*
X30243000Y-107520000D02*
X40357000Y-107520000D01*
X30246000Y-107480000D02*
X40354000Y-107480000D01*
X30251000Y-107440000D02*
X40349000Y-107440000D01*
X30255000Y-107400000D02*
X40345000Y-107400000D01*
X30260000Y-107360000D02*
X40340000Y-107360000D01*
X30265000Y-107320000D02*
X40335000Y-107320000D01*
X30271000Y-107280000D02*
X40329000Y-107280000D01*
X30277000Y-107240000D02*
X40323000Y-107240000D01*
X30283000Y-107200000D02*
X40317000Y-107200000D01*
X30289000Y-107160000D02*
X40311000Y-107160000D01*
X30296000Y-107120000D02*
X40304000Y-107120000D01*
X30303000Y-107080000D02*
X40297000Y-107080000D01*
X30311000Y-107040000D02*
X40289000Y-107040000D01*
X30319000Y-107000000D02*
X40281000Y-107000000D01*
X30327000Y-106960000D02*
X40273000Y-106960000D01*
X30335000Y-106920000D02*
X40265000Y-106920000D01*
X30344000Y-106880000D02*
X40256000Y-106880000D01*
X30353000Y-106840000D02*
X40247000Y-106840000D01*
X30363000Y-106800000D02*
X40237000Y-106800000D01*
X30372000Y-106760000D02*
X40228000Y-106760000D01*
X30383000Y-106720000D02*
X34060000Y-106720000D01*
X30393000Y-106680000D02*
X34060000Y-106680000D01*
X30404000Y-106640000D02*
X34060000Y-106640000D01*
X30415000Y-106600000D02*
X34060000Y-106600000D01*
X30427000Y-106560000D02*
X34060000Y-106560000D01*
X30439000Y-106520000D02*
X34060000Y-106520000D01*
X30451000Y-106480000D02*
X34060000Y-106480000D01*
X30463000Y-106440000D02*
X34060000Y-106440000D01*
X30476000Y-106400000D02*
X34060000Y-106400000D01*
X30490000Y-106360000D02*
X34060000Y-106360000D01*
X30503000Y-106320000D02*
X34060000Y-106320000D01*
X30518000Y-106280000D02*
X34060000Y-106280000D01*
X30532000Y-106240000D02*
X34060000Y-106240000D01*
X30547000Y-106200000D02*
X34060000Y-106200000D01*
X30562000Y-106160000D02*
X34060000Y-106160000D01*
X30578000Y-106120000D02*
X34060000Y-106120000D01*
X30594000Y-106080000D02*
X34060000Y-106080000D01*
X30610000Y-106040000D02*
X34060000Y-106040000D01*
X30627000Y-106000000D02*
X34060000Y-106000000D01*
X30644000Y-105960000D02*
X34060000Y-105960000D01*
X30662000Y-105920000D02*
X34060000Y-105920000D01*
X30680000Y-105880000D02*
X34060000Y-105880000D01*
X30698000Y-105840000D02*
X34060000Y-105840000D01*
X30717000Y-105800000D02*
X34060000Y-105800000D01*
X30736000Y-105760000D02*
X34060000Y-105760000D01*
X30756000Y-105720000D02*
X34060000Y-105720000D01*
X30776000Y-105680000D02*
X34060000Y-105680000D01*
X30796000Y-105640000D02*
X34060000Y-105640000D01*
X30817000Y-105600000D02*
X34060000Y-105600000D01*
X30839000Y-105560000D02*
X34060000Y-105560000D01*
X30861000Y-105520000D02*
X34060000Y-105520000D01*
X30883000Y-105480000D02*
X34060000Y-105480000D01*
X30906000Y-105440000D02*
X34060000Y-105440000D01*
X30929000Y-105400000D02*
X34060000Y-105400000D01*
X30953000Y-105360000D02*
X34060000Y-105360000D01*
X30977000Y-105320000D02*
X34060000Y-105320000D01*
X31002000Y-105280000D02*
X34060000Y-105280000D01*
X31028000Y-105240000D02*
X34060000Y-105240000D01*
X31053000Y-105200000D02*
X34060000Y-105200000D01*
X31080000Y-105160000D02*
X34060000Y-105160000D01*
X31107000Y-105120000D02*
X34060000Y-105120000D01*
X31134000Y-105080000D02*
X34060000Y-105080000D01*
X31162000Y-105040000D02*
X34060000Y-105040000D01*
X31191000Y-105000000D02*
X34060000Y-105000000D01*
X31220000Y-104960000D02*
X34060000Y-104960000D01*
X31250000Y-104920000D02*
X34060000Y-104920000D01*
X31280000Y-104880000D02*
X34060000Y-104880000D01*
X31312000Y-104840000D02*
X34060000Y-104840000D01*
X31343000Y-104800000D02*
X34060000Y-104800000D01*
X31376000Y-104760000D02*
X34060000Y-104760000D01*
X31409000Y-104720000D02*
X34060000Y-104720000D01*
X31442000Y-104680000D02*
X34060000Y-104680000D01*
X31477000Y-104640000D02*
X34060000Y-104640000D01*
X31512000Y-104600000D02*
X34060000Y-104600000D01*
X31548000Y-104560000D02*
X34060000Y-104560000D01*
X31584000Y-104520000D02*
X34060000Y-104520000D01*
X31622000Y-104480000D02*
X34060000Y-104480000D01*
X31660000Y-104440000D02*
X34060000Y-104440000D01*
X31699000Y-104400000D02*
X34060000Y-104400000D01*
X31739000Y-104360000D02*
X34060000Y-104360000D01*
X31780000Y-104320000D02*
X34060000Y-104320000D01*
X31822000Y-104280000D02*
X34060000Y-104280000D01*
X31865000Y-104240000D02*
X38735000Y-104240000D01*
X31909000Y-104200000D02*
X38691000Y-104200000D01*
X31925000Y-112979646D02*
X32925000Y-112979646D01*
X31953000Y-104160000D02*
X38647000Y-104160000D01*
X31999000Y-104120000D02*
X38601000Y-104120000D01*
X32046000Y-104080000D02*
X38554000Y-104080000D01*
X32095000Y-104040000D02*
X38505000Y-104040000D01*
X32144000Y-104000000D02*
X38456000Y-104000000D01*
X32195000Y-103960000D02*
X38405000Y-103960000D01*
X32247000Y-103920000D02*
X38353000Y-103920000D01*
X32300000Y-103880000D02*
X38300000Y-103880000D01*
X32355000Y-103840000D02*
X38245000Y-103840000D01*
X32412000Y-103800000D02*
X38188000Y-103800000D01*
X32425000Y-113479646D02*
X32425000Y-112479646D01*
X32470000Y-103760000D02*
X38130000Y-103760000D01*
X32530000Y-103720000D02*
X38070000Y-103720000D01*
X32592000Y-103680000D02*
X38008000Y-103680000D01*
X32656000Y-103640000D02*
X37944000Y-103640000D01*
X32722000Y-103600000D02*
X37878000Y-103600000D01*
X32790000Y-103560000D02*
X37810000Y-103560000D01*
X32861000Y-103520000D02*
X37739000Y-103520000D01*
X32935000Y-103480000D02*
X37665000Y-103480000D01*
X33012000Y-103440000D02*
X37588000Y-103440000D01*
X33092000Y-103400000D02*
X37508000Y-103400000D01*
X33176000Y-103360000D02*
X37424000Y-103360000D01*
X33263000Y-103320000D02*
X37337000Y-103320000D01*
X33356000Y-103280000D02*
X37244000Y-103280000D01*
X33454000Y-103240000D02*
X37146000Y-103240000D01*
X33558000Y-103200000D02*
X37042000Y-103200000D01*
X33670000Y-103160000D02*
X36930000Y-103160000D01*
X33791000Y-103120000D02*
X36809000Y-103120000D01*
X33923000Y-103080000D02*
X36677000Y-103080000D01*
X34070000Y-103040000D02*
X36530000Y-103040000D01*
X34238000Y-103000000D02*
X36362000Y-103000000D01*
X34438000Y-102960000D02*
X36162000Y-102960000D01*
X34701000Y-102920000D02*
X35899000Y-102920000D01*
X36540000Y-104280000D02*
X38778000Y-104280000D01*
X36540000Y-104320000D02*
X38820000Y-104320000D01*
X36540000Y-104360000D02*
X38861000Y-104360000D01*
X36540000Y-104400000D02*
X38901000Y-104400000D01*
X36540000Y-104440000D02*
X38940000Y-104440000D01*
X36540000Y-104480000D02*
X38978000Y-104480000D01*
X36540000Y-104520000D02*
X39016000Y-104520000D01*
X36540000Y-104560000D02*
X39052000Y-104560000D01*
X36540000Y-104600000D02*
X39088000Y-104600000D01*
X36540000Y-104640000D02*
X39123000Y-104640000D01*
X36540000Y-104680000D02*
X39158000Y-104680000D01*
X36540000Y-104720000D02*
X39191000Y-104720000D01*
X36540000Y-104760000D02*
X39224000Y-104760000D01*
X36540000Y-104800000D02*
X39257000Y-104800000D01*
X36540000Y-104840000D02*
X39288000Y-104840000D01*
X36540000Y-104880000D02*
X39320000Y-104880000D01*
X36540000Y-104920000D02*
X39350000Y-104920000D01*
X36540000Y-104960000D02*
X39380000Y-104960000D01*
X36540000Y-105000000D02*
X39409000Y-105000000D01*
X36540000Y-105040000D02*
X39438000Y-105040000D01*
X36540000Y-105080000D02*
X39466000Y-105080000D01*
X36540000Y-105120000D02*
X39493000Y-105120000D01*
X36540000Y-105160000D02*
X39520000Y-105160000D01*
X36540000Y-105200000D02*
X39547000Y-105200000D01*
X36540000Y-105240000D02*
X39572000Y-105240000D01*
X36540000Y-105280000D02*
X39598000Y-105280000D01*
X36540000Y-105320000D02*
X39623000Y-105320000D01*
X36540000Y-105360000D02*
X39647000Y-105360000D01*
X36540000Y-105400000D02*
X39671000Y-105400000D01*
X36540000Y-105440000D02*
X39694000Y-105440000D01*
X36540000Y-105480000D02*
X39717000Y-105480000D01*
X36540000Y-105520000D02*
X39739000Y-105520000D01*
X36540000Y-105560000D02*
X39761000Y-105560000D01*
X36540000Y-105600000D02*
X39783000Y-105600000D01*
X36540000Y-105640000D02*
X39804000Y-105640000D01*
X36540000Y-105680000D02*
X39824000Y-105680000D01*
X36540000Y-105720000D02*
X39844000Y-105720000D01*
X36540000Y-105760000D02*
X39864000Y-105760000D01*
X36540000Y-105800000D02*
X39883000Y-105800000D01*
X36540000Y-105840000D02*
X39902000Y-105840000D01*
X36540000Y-105880000D02*
X39920000Y-105880000D01*
X36540000Y-105920000D02*
X39938000Y-105920000D01*
X36540000Y-105960000D02*
X39956000Y-105960000D01*
X36540000Y-106000000D02*
X39973000Y-106000000D01*
X36540000Y-106040000D02*
X39990000Y-106040000D01*
X36540000Y-106080000D02*
X40006000Y-106080000D01*
X36540000Y-106120000D02*
X40022000Y-106120000D01*
X36540000Y-106160000D02*
X40038000Y-106160000D01*
X36540000Y-106200000D02*
X40053000Y-106200000D01*
X36540000Y-106240000D02*
X40068000Y-106240000D01*
X36540000Y-106280000D02*
X40082000Y-106280000D01*
X36540000Y-106320000D02*
X40097000Y-106320000D01*
X36540000Y-106360000D02*
X40110000Y-106360000D01*
X36540000Y-106400000D02*
X40124000Y-106400000D01*
X36540000Y-106440000D02*
X40137000Y-106440000D01*
X36540000Y-106480000D02*
X40149000Y-106480000D01*
X36540000Y-106520000D02*
X40161000Y-106520000D01*
X36540000Y-106560000D02*
X40173000Y-106560000D01*
X36540000Y-106600000D02*
X40185000Y-106600000D01*
X36540000Y-106640000D02*
X40196000Y-106640000D01*
X36540000Y-106680000D02*
X40207000Y-106680000D01*
X36540000Y-106720000D02*
X40217000Y-106720000D01*
X40420000Y-108000000D02*
G75*
G02*
X30180000Y-108000000I-5120000J0D01*
G01*
X30180000Y-108000000D02*
G75*
G02*
X40420000Y-108000000I5120000J0D01*
G01*
%TO.C,J4*%
X201100000Y-41690000D02*
X203100000Y-41690000D01*
X201100000Y-51090000D02*
X203100000Y-51090000D01*
X205000000Y-41690000D02*
X206900000Y-41690000D01*
X205000000Y-51090000D02*
X206900000Y-51090000D01*
X206900000Y-51090000D02*
X206900000Y-41690000D01*
%TO.C,FB1*%
X157737878Y-72740000D02*
X158537122Y-72740000D01*
X157737878Y-73860000D02*
X158537122Y-73860000D01*
%TO.C,F2*%
X173890000Y-81940000D02*
X194510000Y-81940000D01*
X173890000Y-88560000D02*
X173890000Y-81940000D01*
X194510000Y-81940000D02*
X194510000Y-88560000D01*
X194510000Y-88560000D02*
X173890000Y-88560000D01*
%TO.C,L1*%
X73940000Y-71697936D02*
X73940000Y-72902064D01*
X76660000Y-71697936D02*
X76660000Y-72902064D01*
%TO.C,J2*%
X28762500Y-67175000D02*
X36302500Y-67175000D01*
X28762500Y-68895000D02*
X28762500Y-67175000D01*
X28762500Y-75025000D02*
X28762500Y-69495000D01*
X36302500Y-67175000D02*
X36302500Y-75025000D01*
X36302500Y-75025000D02*
X28762500Y-75025000D01*
X28762500Y-69195000D02*
X28152500Y-69635000D01*
X28152500Y-68755000D01*
X28762500Y-69195000D01*
G36*
X28762500Y-69195000D02*
G01*
X28152500Y-69635000D01*
X28152500Y-68755000D01*
X28762500Y-69195000D01*
G37*
%TO.C,R29*%
X56087742Y-44077500D02*
X56562258Y-44077500D01*
X56087742Y-45122500D02*
X56562258Y-45122500D01*
%TO.C,Q8*%
X140002500Y-65890000D02*
X141522500Y-65890000D01*
X140002500Y-66890000D02*
X140002500Y-65890000D01*
X140002500Y-69010000D02*
X140002500Y-68010000D01*
X141522500Y-65890000D02*
X141522500Y-65940000D01*
X141522500Y-67060000D02*
X141522500Y-67840000D01*
X141522500Y-68960000D02*
X141522500Y-69010000D01*
X141522500Y-69010000D02*
X140002500Y-69010000D01*
X142062500Y-67830000D02*
X141822500Y-67500000D01*
X142302500Y-67500000D01*
X142062500Y-67830000D01*
G36*
X142062500Y-67830000D02*
G01*
X141822500Y-67500000D01*
X142302500Y-67500000D01*
X142062500Y-67830000D01*
G37*
%TO.C,Q4*%
X45940000Y-113890000D02*
X50560000Y-113890000D01*
X45940000Y-117150000D02*
X47320000Y-117150000D01*
X45940000Y-120850000D02*
X47320000Y-120850000D01*
X45940000Y-124110000D02*
X45940000Y-113890000D01*
X47320000Y-124110000D02*
X47320000Y-113890000D01*
X50560000Y-113890000D02*
X50560000Y-124110000D01*
X50560000Y-124110000D02*
X45940000Y-124110000D01*
%TO.C,JP3*%
X140400000Y-94500000D02*
X140400000Y-91700000D01*
X141100000Y-91050000D02*
X141700000Y-91050000D01*
X141700000Y-95150000D02*
X141100000Y-95150000D01*
X142400000Y-91700000D02*
X142400000Y-94500000D01*
X142600000Y-94300000D02*
X142900000Y-94000000D01*
X142600000Y-94300000D02*
X142900000Y-94600000D01*
X142900000Y-94600000D02*
X142900000Y-94000000D01*
X140400000Y-91750000D02*
G75*
G02*
X141100000Y-91050000I700000J0D01*
G01*
X141100000Y-95150000D02*
G75*
G02*
X140400000Y-94450000I-1J699999D01*
G01*
X141700000Y-91050000D02*
G75*
G02*
X142400000Y-91750000I0J-700000D01*
G01*
X142400000Y-94450000D02*
G75*
G02*
X141700000Y-95150000I-699999J-1D01*
G01*
%TO.C,C14*%
X153851248Y-62765000D02*
X154373752Y-62765000D01*
X153851248Y-64235000D02*
X154373752Y-64235000D01*
%TO.C,Q2*%
X64152500Y-57390000D02*
X65672500Y-57390000D01*
X64152500Y-58390000D02*
X64152500Y-57390000D01*
X64152500Y-60510000D02*
X64152500Y-59510000D01*
X65672500Y-57390000D02*
X65672500Y-57440000D01*
X65672500Y-58560000D02*
X65672500Y-59340000D01*
X65672500Y-60460000D02*
X65672500Y-60510000D01*
X65672500Y-60510000D02*
X64152500Y-60510000D01*
X66212500Y-59330000D02*
X65972500Y-59000000D01*
X66452500Y-59000000D01*
X66212500Y-59330000D01*
G36*
X66212500Y-59330000D02*
G01*
X65972500Y-59000000D01*
X66452500Y-59000000D01*
X66212500Y-59330000D01*
G37*
%TO.C,C6*%
X120813748Y-84290000D02*
X122236252Y-84290000D01*
X120813748Y-86110000D02*
X122236252Y-86110000D01*
%TO.C,Q7*%
X146840000Y-54340000D02*
X148360000Y-54340000D01*
X146840000Y-55340000D02*
X146840000Y-54340000D01*
X146840000Y-57460000D02*
X146840000Y-56460000D01*
X148360000Y-54340000D02*
X148360000Y-54390000D01*
X148360000Y-55510000D02*
X148360000Y-56290000D01*
X148360000Y-57410000D02*
X148360000Y-57460000D01*
X148360000Y-57460000D02*
X146840000Y-57460000D01*
X148900000Y-56280000D02*
X148660000Y-55950000D01*
X149140000Y-55950000D01*
X148900000Y-56280000D01*
G36*
X148900000Y-56280000D02*
G01*
X148660000Y-55950000D01*
X149140000Y-55950000D01*
X148900000Y-56280000D01*
G37*
%TO.C,D5*%
X55865000Y-100825000D02*
X55865000Y-102295000D01*
X55865000Y-102295000D02*
X58150000Y-102295000D01*
X58150000Y-100825000D02*
X55865000Y-100825000D01*
%TO.C,R9*%
X104327500Y-73787742D02*
X104327500Y-74262258D01*
X105372500Y-73787742D02*
X105372500Y-74262258D01*
%TO.C,R2*%
X88587742Y-66577500D02*
X89062258Y-66577500D01*
X88587742Y-67622500D02*
X89062258Y-67622500D01*
%TO.C,TP2*%
X89050000Y-96300000D02*
G75*
G02*
X87150000Y-96300000I-950000J0D01*
G01*
X87150000Y-96300000D02*
G75*
G02*
X89050000Y-96300000I950000J0D01*
G01*
%TO.C,C7*%
X76399759Y-89661000D02*
X77029759Y-89661000D01*
X76714759Y-89346000D02*
X76714759Y-89976000D01*
X79900000Y-88270000D02*
X79900000Y-94730000D01*
X79940000Y-88270000D02*
X79940000Y-94730000D01*
X79980000Y-88271000D02*
X79980000Y-94729000D01*
X80020000Y-88272000D02*
X80020000Y-94728000D01*
X80060000Y-88274000D02*
X80060000Y-94726000D01*
X80100000Y-88276000D02*
X80100000Y-94724000D01*
X80140000Y-88279000D02*
X80140000Y-90460000D01*
X80140000Y-92540000D02*
X80140000Y-94721000D01*
X80180000Y-88282000D02*
X80180000Y-90460000D01*
X80180000Y-92540000D02*
X80180000Y-94718000D01*
X80220000Y-88286000D02*
X80220000Y-90460000D01*
X80220000Y-92540000D02*
X80220000Y-94714000D01*
X80260000Y-88290000D02*
X80260000Y-90460000D01*
X80260000Y-92540000D02*
X80260000Y-94710000D01*
X80300000Y-88295000D02*
X80300000Y-90460000D01*
X80300000Y-92540000D02*
X80300000Y-94705000D01*
X80340000Y-88300000D02*
X80340000Y-90460000D01*
X80340000Y-92540000D02*
X80340000Y-94700000D01*
X80380000Y-88305000D02*
X80380000Y-90460000D01*
X80380000Y-92540000D02*
X80380000Y-94695000D01*
X80420000Y-88312000D02*
X80420000Y-90460000D01*
X80420000Y-92540000D02*
X80420000Y-94688000D01*
X80460000Y-88318000D02*
X80460000Y-90460000D01*
X80460000Y-92540000D02*
X80460000Y-94682000D01*
X80500000Y-88326000D02*
X80500000Y-90460000D01*
X80500000Y-92540000D02*
X80500000Y-94674000D01*
X80540000Y-88333000D02*
X80540000Y-90460000D01*
X80540000Y-92540000D02*
X80540000Y-94667000D01*
X80580000Y-88341000D02*
X80580000Y-90460000D01*
X80580000Y-92540000D02*
X80580000Y-94659000D01*
X80620000Y-88350000D02*
X80620000Y-90460000D01*
X80620000Y-92540000D02*
X80620000Y-94650000D01*
X80660000Y-88360000D02*
X80660000Y-90460000D01*
X80660000Y-92540000D02*
X80660000Y-94640000D01*
X80700000Y-88369000D02*
X80700000Y-90460000D01*
X80700000Y-92540000D02*
X80700000Y-94631000D01*
X80740000Y-88380000D02*
X80740000Y-90460000D01*
X80740000Y-92540000D02*
X80740000Y-94620000D01*
X80780000Y-88391000D02*
X80780000Y-90460000D01*
X80780000Y-92540000D02*
X80780000Y-94609000D01*
X80820000Y-88402000D02*
X80820000Y-90460000D01*
X80820000Y-92540000D02*
X80820000Y-94598000D01*
X80860000Y-88414000D02*
X80860000Y-90460000D01*
X80860000Y-92540000D02*
X80860000Y-94586000D01*
X80900000Y-88427000D02*
X80900000Y-90460000D01*
X80900000Y-92540000D02*
X80900000Y-94573000D01*
X80940000Y-88440000D02*
X80940000Y-90460000D01*
X80940000Y-92540000D02*
X80940000Y-94560000D01*
X80980000Y-88453000D02*
X80980000Y-90460000D01*
X80980000Y-92540000D02*
X80980000Y-94547000D01*
X81020000Y-88468000D02*
X81020000Y-90460000D01*
X81020000Y-92540000D02*
X81020000Y-94532000D01*
X81060000Y-88483000D02*
X81060000Y-90460000D01*
X81060000Y-92540000D02*
X81060000Y-94517000D01*
X81100000Y-88498000D02*
X81100000Y-90460000D01*
X81100000Y-92540000D02*
X81100000Y-94502000D01*
X81140000Y-88514000D02*
X81140000Y-90460000D01*
X81140000Y-92540000D02*
X81140000Y-94486000D01*
X81180000Y-88531000D02*
X81180000Y-90460000D01*
X81180000Y-92540000D02*
X81180000Y-94469000D01*
X81220000Y-88548000D02*
X81220000Y-90460000D01*
X81220000Y-92540000D02*
X81220000Y-94452000D01*
X81260000Y-88566000D02*
X81260000Y-90460000D01*
X81260000Y-92540000D02*
X81260000Y-94434000D01*
X81300000Y-88585000D02*
X81300000Y-90460000D01*
X81300000Y-92540000D02*
X81300000Y-94415000D01*
X81340000Y-88604000D02*
X81340000Y-90460000D01*
X81340000Y-92540000D02*
X81340000Y-94396000D01*
X81380000Y-88624000D02*
X81380000Y-90460000D01*
X81380000Y-92540000D02*
X81380000Y-94376000D01*
X81420000Y-88645000D02*
X81420000Y-90460000D01*
X81420000Y-92540000D02*
X81420000Y-94355000D01*
X81460000Y-88666000D02*
X81460000Y-90460000D01*
X81460000Y-92540000D02*
X81460000Y-94334000D01*
X81500000Y-88688000D02*
X81500000Y-90460000D01*
X81500000Y-92540000D02*
X81500000Y-94312000D01*
X81540000Y-88711000D02*
X81540000Y-90460000D01*
X81540000Y-92540000D02*
X81540000Y-94289000D01*
X81580000Y-88735000D02*
X81580000Y-90460000D01*
X81580000Y-92540000D02*
X81580000Y-94265000D01*
X81620000Y-88759000D02*
X81620000Y-90460000D01*
X81620000Y-92540000D02*
X81620000Y-94241000D01*
X81660000Y-88784000D02*
X81660000Y-90460000D01*
X81660000Y-92540000D02*
X81660000Y-94216000D01*
X81700000Y-88810000D02*
X81700000Y-90460000D01*
X81700000Y-92540000D02*
X81700000Y-94190000D01*
X81740000Y-88837000D02*
X81740000Y-90460000D01*
X81740000Y-92540000D02*
X81740000Y-94163000D01*
X81780000Y-88864000D02*
X81780000Y-90460000D01*
X81780000Y-92540000D02*
X81780000Y-94136000D01*
X81820000Y-88893000D02*
X81820000Y-90460000D01*
X81820000Y-92540000D02*
X81820000Y-94107000D01*
X81860000Y-88923000D02*
X81860000Y-90460000D01*
X81860000Y-92540000D02*
X81860000Y-94077000D01*
X81900000Y-88953000D02*
X81900000Y-90460000D01*
X81900000Y-92540000D02*
X81900000Y-94047000D01*
X81940000Y-88984000D02*
X81940000Y-90460000D01*
X81940000Y-92540000D02*
X81940000Y-94016000D01*
X81980000Y-89017000D02*
X81980000Y-90460000D01*
X81980000Y-92540000D02*
X81980000Y-93983000D01*
X82020000Y-89050000D02*
X82020000Y-90460000D01*
X82020000Y-92540000D02*
X82020000Y-93950000D01*
X82060000Y-89085000D02*
X82060000Y-90460000D01*
X82060000Y-92540000D02*
X82060000Y-93915000D01*
X82100000Y-89121000D02*
X82100000Y-90460000D01*
X82100000Y-92540000D02*
X82100000Y-93879000D01*
X82140000Y-89158000D02*
X82140000Y-90460000D01*
X82140000Y-92540000D02*
X82140000Y-93842000D01*
X82180000Y-89196000D02*
X82180000Y-90460000D01*
X82180000Y-92540000D02*
X82180000Y-93804000D01*
X82220000Y-89236000D02*
X82220000Y-93764000D01*
X82260000Y-89277000D02*
X82260000Y-93723000D01*
X82300000Y-89319000D02*
X82300000Y-93681000D01*
X82340000Y-89363000D02*
X82340000Y-93637000D01*
X82380000Y-89409000D02*
X82380000Y-93591000D01*
X82420000Y-89456000D02*
X82420000Y-93544000D01*
X82460000Y-89505000D02*
X82460000Y-93495000D01*
X82500000Y-89557000D02*
X82500000Y-93443000D01*
X82540000Y-89610000D02*
X82540000Y-93390000D01*
X82580000Y-89666000D02*
X82580000Y-93334000D01*
X82620000Y-89725000D02*
X82620000Y-93275000D01*
X82660000Y-89786000D02*
X82660000Y-93214000D01*
X82700000Y-89851000D02*
X82700000Y-93149000D01*
X82740000Y-89919000D02*
X82740000Y-93081000D01*
X82780000Y-89991000D02*
X82780000Y-93009000D01*
X82820000Y-90068000D02*
X82820000Y-92932000D01*
X82860000Y-90150000D02*
X82860000Y-92850000D01*
X82900000Y-90239000D02*
X82900000Y-92761000D01*
X82940000Y-90335000D02*
X82940000Y-92665000D01*
X82980000Y-90442000D02*
X82980000Y-92558000D01*
X83020000Y-90561000D02*
X83020000Y-92439000D01*
X83060000Y-90699000D02*
X83060000Y-92301000D01*
X83100000Y-90867000D02*
X83100000Y-92133000D01*
X83140000Y-91098000D02*
X83140000Y-91902000D01*
X83170000Y-91500000D02*
G75*
G02*
X76630000Y-91500000I-3270000J0D01*
G01*
X76630000Y-91500000D02*
G75*
G02*
X83170000Y-91500000I3270000J0D01*
G01*
%TO.C,J12*%
X166810000Y-41620000D02*
X166810000Y-44380000D01*
X174540000Y-41620000D02*
X166810000Y-41620000D01*
X174540000Y-41620000D02*
X174540000Y-44380000D01*
X174540000Y-44380000D02*
X166810000Y-44380000D01*
X175810000Y-41620000D02*
X177190000Y-41620000D01*
X177190000Y-41620000D02*
X177190000Y-43000000D01*
%TO.C,JP5*%
X38620000Y-89540000D02*
X40000000Y-89540000D01*
X38620000Y-90920000D02*
X38620000Y-89540000D01*
X38620000Y-92190000D02*
X38620000Y-97380000D01*
X38620000Y-92190000D02*
X41380000Y-92190000D01*
X38620000Y-97380000D02*
X41380000Y-97380000D01*
X41380000Y-92190000D02*
X41380000Y-97380000D01*
%TO.C,C19*%
X175634420Y-74490000D02*
X175915580Y-74490000D01*
X175634420Y-75510000D02*
X175915580Y-75510000D01*
%TO.C,R3*%
X57112742Y-96037500D02*
X57587258Y-96037500D01*
X57112742Y-97082500D02*
X57587258Y-97082500D01*
%TO.C,R16*%
X47237742Y-85677500D02*
X47712258Y-85677500D01*
X47237742Y-86722500D02*
X47712258Y-86722500D01*
%TO.C,C2*%
X86588748Y-71390000D02*
X88011252Y-71390000D01*
X86588748Y-73210000D02*
X88011252Y-73210000D01*
%TO.C,J9*%
X199097500Y-104670000D02*
X206637500Y-104670000D01*
X199097500Y-116330000D02*
X199097500Y-104670000D01*
X206637500Y-104670000D02*
X206637500Y-114010000D01*
X206637500Y-114610000D02*
X206637500Y-116330000D01*
X206637500Y-116330000D02*
X199097500Y-116330000D01*
X207247500Y-114750000D02*
X206637500Y-114310000D01*
X207247500Y-113870000D01*
X207247500Y-114750000D01*
G36*
X207247500Y-114750000D02*
G01*
X206637500Y-114310000D01*
X207247500Y-113870000D01*
X207247500Y-114750000D01*
G37*
%TD*%
M02*
