%TF.GenerationSoftware,KiCad,Pcbnew,9.0.8*%
%TF.CreationDate,2026-03-21T06:29:11-06:00*%
%TF.ProjectId,afterglo-controller,61667465-7267-46c6-9f2d-636f6e74726f,rev?*%
%TF.SameCoordinates,Original*%
%TF.FileFunction,Copper,L1,Top*%
%TF.FilePolarity,Positive*%
%FSLAX46Y46*%
G04 Gerber Fmt 4.6, Leading zero omitted, Abs format (unit mm)*
G04 Created by KiCad (PCBNEW 9.0.8) date 2026-03-21 06:29:11*
%MOMM*%
%LPD*%
G01*
G04 APERTURE LIST*
G04 Aperture macros list*
%AMRoundRect*
0 Rectangle with rounded corners*
0 $1 Rounding radius*
0 $2 $3 $4 $5 $6 $7 $8 $9 X,Y pos of 4 corners*
0 Add a 4 corners polygon primitive as box body*
4,1,4,$2,$3,$4,$5,$6,$7,$8,$9,$2,$3,0*
0 Add four circle primitives for the rounded corners*
1,1,$1+$1,$2,$3*
1,1,$1+$1,$4,$5*
1,1,$1+$1,$6,$7*
1,1,$1+$1,$8,$9*
0 Add four rect primitives between the rounded corners*
20,1,$1+$1,$2,$3,$4,$5,0*
20,1,$1+$1,$4,$5,$6,$7,0*
20,1,$1+$1,$6,$7,$8,$9,0*
20,1,$1+$1,$8,$9,$2,$3,0*%
%AMFreePoly0*
4,1,23,0.550000,-0.750000,0.000000,-0.750000,0.000000,-0.745722,-0.065263,-0.745722,-0.191342,-0.711940,-0.304381,-0.646677,-0.396677,-0.554381,-0.461940,-0.441342,-0.495722,-0.315263,-0.495722,-0.250000,-0.500000,-0.250000,-0.500000,0.250000,-0.495722,0.250000,-0.495722,0.315263,-0.461940,0.441342,-0.396677,0.554381,-0.304381,0.646677,-0.191342,0.711940,-0.065263,0.745722,0.000000,0.745722,
0.000000,0.750000,0.550000,0.750000,0.550000,-0.750000,0.550000,-0.750000,$1*%
%AMFreePoly1*
4,1,23,0.000000,0.745722,0.065263,0.745722,0.191342,0.711940,0.304381,0.646677,0.396677,0.554381,0.461940,0.441342,0.495722,0.315263,0.495722,0.250000,0.500000,0.250000,0.500000,-0.250000,0.495722,-0.250000,0.495722,-0.315263,0.461940,-0.441342,0.396677,-0.554381,0.304381,-0.646677,0.191342,-0.711940,0.065263,-0.745722,0.000000,-0.745722,0.000000,-0.750000,-0.550000,-0.750000,
-0.550000,0.750000,0.000000,0.750000,0.000000,0.745722,0.000000,0.745722,$1*%
G04 Aperture macros list end*
%TA.AperFunction,SMDPad,CuDef*%
%ADD10C,1.500000*%
%TD*%
%TA.AperFunction,SMDPad,CuDef*%
%ADD11RoundRect,0.225000X0.225000X0.250000X-0.225000X0.250000X-0.225000X-0.250000X0.225000X-0.250000X0*%
%TD*%
%TA.AperFunction,SMDPad,CuDef*%
%ADD12RoundRect,0.225000X-0.250000X0.225000X-0.250000X-0.225000X0.250000X-0.225000X0.250000X0.225000X0*%
%TD*%
%TA.AperFunction,SMDPad,CuDef*%
%ADD13RoundRect,0.200000X-0.200000X-0.275000X0.200000X-0.275000X0.200000X0.275000X-0.200000X0.275000X0*%
%TD*%
%TA.AperFunction,SMDPad,CuDef*%
%ADD14R,1.500000X0.900000*%
%TD*%
%TA.AperFunction,SMDPad,CuDef*%
%ADD15R,0.900000X1.500000*%
%TD*%
%TA.AperFunction,SMDPad,CuDef*%
%ADD16R,1.050000X1.050000*%
%TD*%
%TA.AperFunction,HeatsinkPad*%
%ADD17R,4.200000X4.200000*%
%TD*%
%TA.AperFunction,SMDPad,CuDef*%
%ADD18RoundRect,0.225000X-0.225000X-0.250000X0.225000X-0.250000X0.225000X0.250000X-0.225000X0.250000X0*%
%TD*%
%TA.AperFunction,ComponentPad*%
%ADD19C,2.200000*%
%TD*%
%TA.AperFunction,SMDPad,CuDef*%
%ADD20RoundRect,0.225000X0.250000X-0.225000X0.250000X0.225000X-0.250000X0.225000X-0.250000X-0.225000X0*%
%TD*%
%TA.AperFunction,SMDPad,CuDef*%
%ADD21RoundRect,0.200000X0.275000X-0.200000X0.275000X0.200000X-0.275000X0.200000X-0.275000X-0.200000X0*%
%TD*%
%TA.AperFunction,SMDPad,CuDef*%
%ADD22RoundRect,0.200000X-0.275000X0.200000X-0.275000X-0.200000X0.275000X-0.200000X0.275000X0.200000X0*%
%TD*%
%TA.AperFunction,SMDPad,CuDef*%
%ADD23RoundRect,0.200000X0.200000X0.275000X-0.200000X0.275000X-0.200000X-0.275000X0.200000X-0.275000X0*%
%TD*%
%TA.AperFunction,ComponentPad*%
%ADD24R,1.700000X1.700000*%
%TD*%
%TA.AperFunction,ComponentPad*%
%ADD25C,1.700000*%
%TD*%
%TA.AperFunction,SMDPad,CuDef*%
%ADD26RoundRect,0.218750X0.218750X0.256250X-0.218750X0.256250X-0.218750X-0.256250X0.218750X-0.256250X0*%
%TD*%
%TA.AperFunction,ComponentPad*%
%ADD27R,2.000000X1.905000*%
%TD*%
%TA.AperFunction,ComponentPad*%
%ADD28O,2.000000X1.905000*%
%TD*%
%TA.AperFunction,SMDPad,CuDef*%
%ADD29RoundRect,0.250000X0.650000X-0.325000X0.650000X0.325000X-0.650000X0.325000X-0.650000X-0.325000X0*%
%TD*%
%TA.AperFunction,ComponentPad*%
%ADD30RoundRect,0.250000X0.550000X0.550000X-0.550000X0.550000X-0.550000X-0.550000X0.550000X-0.550000X0*%
%TD*%
%TA.AperFunction,ComponentPad*%
%ADD31C,1.600000*%
%TD*%
%TA.AperFunction,ComponentPad*%
%ADD32RoundRect,0.250000X-0.750000X0.750000X-0.750000X-0.750000X0.750000X-0.750000X0.750000X0.750000X0*%
%TD*%
%TA.AperFunction,ComponentPad*%
%ADD33C,2.000000*%
%TD*%
%TA.AperFunction,SMDPad,CuDef*%
%ADD34RoundRect,0.150000X0.150000X-0.587500X0.150000X0.587500X-0.150000X0.587500X-0.150000X-0.587500X0*%
%TD*%
%TA.AperFunction,SMDPad,CuDef*%
%ADD35FreePoly0,90.000000*%
%TD*%
%TA.AperFunction,SMDPad,CuDef*%
%ADD36R,1.500000X1.000000*%
%TD*%
%TA.AperFunction,SMDPad,CuDef*%
%ADD37FreePoly1,90.000000*%
%TD*%
%TA.AperFunction,SMDPad,CuDef*%
%ADD38RoundRect,0.150000X0.587500X0.150000X-0.587500X0.150000X-0.587500X-0.150000X0.587500X-0.150000X0*%
%TD*%
%TA.AperFunction,ComponentPad*%
%ADD39RoundRect,0.250000X-0.750000X-0.750000X0.750000X-0.750000X0.750000X0.750000X-0.750000X0.750000X0*%
%TD*%
%TA.AperFunction,SMDPad,CuDef*%
%ADD40RoundRect,0.250000X-1.075000X0.375000X-1.075000X-0.375000X1.075000X-0.375000X1.075000X0.375000X0*%
%TD*%
%TA.AperFunction,SMDPad,CuDef*%
%ADD41R,0.600000X1.450000*%
%TD*%
%TA.AperFunction,SMDPad,CuDef*%
%ADD42R,0.300000X1.450000*%
%TD*%
%TA.AperFunction,HeatsinkPad*%
%ADD43O,1.000000X2.100000*%
%TD*%
%TA.AperFunction,HeatsinkPad*%
%ADD44O,1.000000X1.600000*%
%TD*%
%TA.AperFunction,SMDPad,CuDef*%
%ADD45RoundRect,0.150000X0.825000X0.150000X-0.825000X0.150000X-0.825000X-0.150000X0.825000X-0.150000X0*%
%TD*%
%TA.AperFunction,ComponentPad*%
%ADD46RoundRect,0.250000X-1.050000X-1.050000X1.050000X-1.050000X1.050000X1.050000X-1.050000X1.050000X0*%
%TD*%
%TA.AperFunction,ComponentPad*%
%ADD47C,2.600000*%
%TD*%
%TA.AperFunction,SMDPad,CuDef*%
%ADD48RoundRect,0.250000X-1.450000X0.312500X-1.450000X-0.312500X1.450000X-0.312500X1.450000X0.312500X0*%
%TD*%
%TA.AperFunction,SMDPad,CuDef*%
%ADD49RoundRect,0.250000X-0.475000X0.250000X-0.475000X-0.250000X0.475000X-0.250000X0.475000X0.250000X0*%
%TD*%
%TA.AperFunction,SMDPad,CuDef*%
%ADD50RoundRect,0.150000X-0.587500X-0.150000X0.587500X-0.150000X0.587500X0.150000X-0.587500X0.150000X0*%
%TD*%
%TA.AperFunction,SMDPad,CuDef*%
%ADD51RoundRect,0.250000X-0.325000X-0.650000X0.325000X-0.650000X0.325000X0.650000X-0.325000X0.650000X0*%
%TD*%
%TA.AperFunction,SMDPad,CuDef*%
%ADD52RoundRect,0.250000X-0.650000X1.000000X-0.650000X-1.000000X0.650000X-1.000000X0.650000X1.000000X0*%
%TD*%
%TA.AperFunction,ComponentPad*%
%ADD53RoundRect,0.250500X0.499500X0.499500X-0.499500X0.499500X-0.499500X-0.499500X0.499500X-0.499500X0*%
%TD*%
%TA.AperFunction,ComponentPad*%
%ADD54C,1.500000*%
%TD*%
%TA.AperFunction,ComponentPad*%
%ADD55C,2.500000*%
%TD*%
%TA.AperFunction,SMDPad,CuDef*%
%ADD56RoundRect,0.375000X-0.375000X0.625000X-0.375000X-0.625000X0.375000X-0.625000X0.375000X0.625000X0*%
%TD*%
%TA.AperFunction,SMDPad,CuDef*%
%ADD57RoundRect,0.500000X-1.400000X0.500000X-1.400000X-0.500000X1.400000X-0.500000X1.400000X0.500000X0*%
%TD*%
%TA.AperFunction,SMDPad,CuDef*%
%ADD58RoundRect,0.150000X-0.512500X-0.150000X0.512500X-0.150000X0.512500X0.150000X-0.512500X0.150000X0*%
%TD*%
%TA.AperFunction,SMDPad,CuDef*%
%ADD59RoundRect,0.225000X0.225000X0.375000X-0.225000X0.375000X-0.225000X-0.375000X0.225000X-0.375000X0*%
%TD*%
%TA.AperFunction,ComponentPad*%
%ADD60RoundRect,0.250000X-0.550000X-0.550000X0.550000X-0.550000X0.550000X0.550000X-0.550000X0.550000X0*%
%TD*%
%TA.AperFunction,SMDPad,CuDef*%
%ADD61RoundRect,0.150000X-0.150000X0.587500X-0.150000X-0.587500X0.150000X-0.587500X0.150000X0.587500X0*%
%TD*%
%TA.AperFunction,SMDPad,CuDef*%
%ADD62RoundRect,0.250000X0.900000X-1.000000X0.900000X1.000000X-0.900000X1.000000X-0.900000X-1.000000X0*%
%TD*%
%TA.AperFunction,SMDPad,CuDef*%
%ADD63RoundRect,0.250000X0.650000X-1.000000X0.650000X1.000000X-0.650000X1.000000X-0.650000X-1.000000X0*%
%TD*%
%TA.AperFunction,SMDPad,CuDef*%
%ADD64RoundRect,0.062500X-0.062500X0.350000X-0.062500X-0.350000X0.062500X-0.350000X0.062500X0.350000X0*%
%TD*%
%TA.AperFunction,SMDPad,CuDef*%
%ADD65RoundRect,0.062500X-0.350000X0.062500X-0.350000X-0.062500X0.350000X-0.062500X0.350000X0.062500X0*%
%TD*%
%TA.AperFunction,HeatsinkPad*%
%ADD66R,2.600000X2.600000*%
%TD*%
%TA.AperFunction,SMDPad,CuDef*%
%ADD67RoundRect,0.250000X0.525000X0.400000X-0.525000X0.400000X-0.525000X-0.400000X0.525000X-0.400000X0*%
%TD*%
%TA.AperFunction,ComponentPad*%
%ADD68RoundRect,0.250000X0.750000X0.750000X-0.750000X0.750000X-0.750000X-0.750000X0.750000X-0.750000X0*%
%TD*%
%TA.AperFunction,SMDPad,CuDef*%
%ADD69RoundRect,0.218750X0.218750X0.381250X-0.218750X0.381250X-0.218750X-0.381250X0.218750X-0.381250X0*%
%TD*%
%TA.AperFunction,SMDPad,CuDef*%
%ADD70RoundRect,0.150000X-0.825000X-0.150000X0.825000X-0.150000X0.825000X0.150000X-0.825000X0.150000X0*%
%TD*%
%TA.AperFunction,SMDPad,CuDef*%
%ADD71RoundRect,0.075000X-0.075000X0.350000X-0.075000X-0.350000X0.075000X-0.350000X0.075000X0.350000X0*%
%TD*%
%TA.AperFunction,SMDPad,CuDef*%
%ADD72RoundRect,0.075000X-0.350000X0.075000X-0.350000X-0.075000X0.350000X-0.075000X0.350000X0.075000X0*%
%TD*%
%TA.AperFunction,HeatsinkPad*%
%ADD73R,2.650000X2.650000*%
%TD*%
%TA.AperFunction,SMDPad,CuDef*%
%ADD74RoundRect,0.250000X-1.000000X-0.650000X1.000000X-0.650000X1.000000X0.650000X-1.000000X0.650000X0*%
%TD*%
%TA.AperFunction,ViaPad*%
%ADD75C,0.900000*%
%TD*%
%TA.AperFunction,ViaPad*%
%ADD76C,2.000000*%
%TD*%
%TA.AperFunction,ViaPad*%
%ADD77C,1.600000*%
%TD*%
%TA.AperFunction,Conductor*%
%ADD78C,0.250000*%
%TD*%
%TA.AperFunction,Conductor*%
%ADD79C,0.800000*%
%TD*%
%TA.AperFunction,Conductor*%
%ADD80C,0.500000*%
%TD*%
%TA.AperFunction,Conductor*%
%ADD81C,1.000000*%
%TD*%
%TA.AperFunction,Conductor*%
%ADD82C,1.200000*%
%TD*%
%TA.AperFunction,Conductor*%
%ADD83C,0.900000*%
%TD*%
%TA.AperFunction,Conductor*%
%ADD84C,2.000000*%
%TD*%
%TA.AperFunction,Conductor*%
%ADD85C,0.600000*%
%TD*%
%TA.AperFunction,Conductor*%
%ADD86C,0.550000*%
%TD*%
G04 APERTURE END LIST*
D10*
%TO.P,TP1,1,1*%
%TO.N,+24V*%
X108300000Y-93100000D03*
%TD*%
D11*
%TO.P,C13,1*%
%TO.N,+3V3*%
X180350000Y-63900000D03*
%TO.P,C13,2*%
%TO.N,GND*%
X178800000Y-63900000D03*
%TD*%
D12*
%TO.P,C12,1*%
%TO.N,+3V3*%
X128290000Y-53500000D03*
%TO.P,C12,2*%
%TO.N,GND*%
X128290000Y-55050000D03*
%TD*%
D13*
%TO.P,R14,1*%
%TO.N,GND*%
X164050000Y-46500000D03*
%TO.P,R14,2*%
%TO.N,Net-(U9-RBIAS)*%
X165700000Y-46500000D03*
%TD*%
D14*
%TO.P,U5,1,GND*%
%TO.N,GND*%
X141000000Y-45360000D03*
%TO.P,U5,2,VDD*%
%TO.N,+3V3*%
X141000000Y-46630000D03*
%TO.P,U5,3,EN*%
%TO.N,ESP32_EN*%
X141000000Y-47900000D03*
%TO.P,U5,4,SENSOR_VP*%
%TO.N,unconnected-(U5-SENSOR_VP-Pad4)*%
X141000000Y-49170000D03*
%TO.P,U5,5,SENSOR_VN*%
%TO.N,unconnected-(U5-SENSOR_VN-Pad5)*%
X141000000Y-50440000D03*
%TO.P,U5,6,IO34*%
%TO.N,SENS_IO34*%
X141000000Y-51710000D03*
%TO.P,U5,7,IO35*%
%TO.N,unconnected-(U5-IO35-Pad7)*%
X141000000Y-52980000D03*
%TO.P,U5,8,IO32*%
%TO.N,I2C_SCL*%
X141000000Y-54250000D03*
%TO.P,U5,9,IO33*%
%TO.N,I2C_SDA*%
X141000000Y-55520000D03*
%TO.P,U5,10,IO25*%
%TO.N,/MCU and Communications/ETH_RXD0*%
X141000000Y-56790000D03*
%TO.P,U5,11,IO26*%
%TO.N,/MCU and Communications/ETH_RXD1*%
X141000000Y-58060000D03*
%TO.P,U5,12,IO27*%
%TO.N,/MCU and Communications/ETH_CRS_DV*%
X141000000Y-59330000D03*
%TO.P,U5,13,IO14*%
%TO.N,/MCU and Communications/RS485_RX*%
X141000000Y-60600000D03*
%TO.P,U5,14,IO12*%
%TO.N,/MCU and Communications/RS485_DE*%
X141000000Y-61870000D03*
D15*
%TO.P,U5,15,GND*%
%TO.N,GND*%
X144040000Y-63120000D03*
%TO.P,U5,16,IO13*%
%TO.N,/MCU and Communications/RS485_TX*%
X145310000Y-63120000D03*
%TO.P,U5,17,SHD/SD2*%
%TO.N,unconnected-(U5-SHD{slash}SD2-Pad17)*%
X146580000Y-63120000D03*
%TO.P,U5,18,SWP/SD3*%
%TO.N,unconnected-(U5-SWP{slash}SD3-Pad18)*%
X147850000Y-63120000D03*
%TO.P,U5,19,SCS/CMD*%
%TO.N,unconnected-(U5-SCS{slash}CMD-Pad19)*%
X149120000Y-63120000D03*
%TO.P,U5,20,SCK/CLK*%
%TO.N,unconnected-(U5-SCK{slash}CLK-Pad20)*%
X150390000Y-63120000D03*
%TO.P,U5,21,SDO/SD0*%
%TO.N,unconnected-(U5-SDO{slash}SD0-Pad21)*%
X151660000Y-63120000D03*
%TO.P,U5,22,SDI/SD1*%
%TO.N,unconnected-(U5-SDI{slash}SD1-Pad22)*%
X152930000Y-63120000D03*
%TO.P,U5,23,IO15*%
%TO.N,FAN_PWM*%
X154200000Y-63120000D03*
%TO.P,U5,24,IO2*%
%TO.N,LED_CH1*%
X155470000Y-63120000D03*
D14*
%TO.P,U5,25,IO0*%
%TO.N,LED_CH4*%
X158500000Y-61870000D03*
%TO.P,U5,26,IO4*%
%TO.N,LED_CH2*%
X158500000Y-60600000D03*
%TO.P,U5,27,IO16*%
%TO.N,LED_CH3*%
X158500000Y-59330000D03*
%TO.P,U5,28,IO17*%
%TO.N,/MCU and Communications/ETH_CLK_OUT*%
X158500000Y-58060000D03*
%TO.P,U5,29,IO5*%
%TO.N,RELAY_CTRL*%
X158500000Y-56790000D03*
%TO.P,U5,30,IO18*%
%TO.N,/MCU and Communications/ETH_MDIO*%
X158500000Y-55520000D03*
%TO.P,U5,31,IO19*%
%TO.N,/MCU and Communications/ETH_TXD0*%
X158500000Y-54250000D03*
%TO.P,U5,32,NC*%
%TO.N,unconnected-(U5-NC-Pad32)*%
X158500000Y-52980000D03*
%TO.P,U5,33,IO21*%
%TO.N,/MCU and Communications/ETH_TXEN*%
X158500000Y-51710000D03*
%TO.P,U5,34,RXD0/IO3*%
%TO.N,ESP_UART_RX*%
X158500000Y-50440000D03*
%TO.P,U5,35,TXD0/IO1*%
%TO.N,ESP_UART_TX*%
X158500000Y-49170000D03*
%TO.P,U5,36,IO22*%
%TO.N,/MCU and Communications/ETH_TXD1*%
X158500000Y-47900000D03*
%TO.P,U5,37,IO23*%
%TO.N,/MCU and Communications/ETH_MDC*%
X158500000Y-46630000D03*
%TO.P,U5,38,GND*%
%TO.N,GND*%
X158500000Y-45360000D03*
D16*
%TO.P,U5,39,GND*%
X147545000Y-51175000D03*
X147545000Y-52700000D03*
X147545000Y-54225000D03*
X149070000Y-51175000D03*
X149070000Y-52700000D03*
D17*
X149070000Y-52700000D03*
D16*
X149070000Y-54225000D03*
X150595000Y-51175000D03*
X150595000Y-52700000D03*
X150595000Y-54225000D03*
%TD*%
D18*
%TO.P,C16,1*%
%TO.N,+5V*%
X169600000Y-67600000D03*
%TO.P,C16,2*%
%TO.N,GND*%
X171150000Y-67600000D03*
%TD*%
D19*
%TO.P,F7,1*%
%TO.N,+24V_SW*%
X144800000Y-83900000D03*
X142300000Y-83900000D03*
X144800000Y-87400000D03*
X142300000Y-87400000D03*
%TO.P,F7,2*%
%TO.N,Net-(J17-Pin_1)*%
X144800000Y-93200000D03*
X142300000Y-93200000D03*
X144800000Y-96700000D03*
X142300000Y-96700000D03*
%TD*%
%TO.P,F6,1*%
%TO.N,+24V_SW*%
X137500000Y-83900000D03*
X135000000Y-83900000D03*
X137500000Y-87400000D03*
X135000000Y-87400000D03*
%TO.P,F6,2*%
%TO.N,Net-(J16-Pin_1)*%
X137500000Y-93200000D03*
X135000000Y-93200000D03*
X137500000Y-96700000D03*
X135000000Y-96700000D03*
%TD*%
D20*
%TO.P,C11,1*%
%TO.N,+3V3*%
X173000000Y-46500000D03*
%TO.P,C11,2*%
%TO.N,GND*%
X173000000Y-44950000D03*
%TD*%
D18*
%TO.P,C10,1*%
%TO.N,+3V3*%
X127290000Y-45500000D03*
%TO.P,C10,2*%
%TO.N,GND*%
X128840000Y-45500000D03*
%TD*%
D13*
%TO.P,R5,1*%
%TO.N,+3V3*%
X136375000Y-77000000D03*
%TO.P,R5,2*%
%TO.N,Net-(D7-K)*%
X138025000Y-77000000D03*
%TD*%
D21*
%TO.P,R11,1*%
%TO.N,+3V3*%
X153600000Y-73900000D03*
%TO.P,R11,2*%
%TO.N,I2C_SCL*%
X153600000Y-72250000D03*
%TD*%
D13*
%TO.P,R3,1*%
%TO.N,+24V*%
X136350000Y-71000000D03*
%TO.P,R3,2*%
%TO.N,Net-(D5-K)*%
X138000000Y-71000000D03*
%TD*%
D22*
%TO.P,R1,1*%
%TO.N,/Power System/V5V_BUCK*%
X107500000Y-77650000D03*
%TO.P,R1,2*%
%TO.N,Net-(U1-FB)*%
X107500000Y-79300000D03*
%TD*%
%TO.P,R6,1*%
%TO.N,/MCU and Communications/USB_CC1*%
X201300000Y-56450000D03*
%TO.P,R6,2*%
%TO.N,GND*%
X201300000Y-58100000D03*
%TD*%
D23*
%TO.P,R21,1*%
%TO.N,Net-(JP2-A)*%
X188400000Y-77500000D03*
%TO.P,R21,2*%
%TO.N,Net-(R21-Pad2)*%
X186750000Y-77500000D03*
%TD*%
D13*
%TO.P,R24,1*%
%TO.N,FAN_PWM*%
X119450000Y-62200000D03*
%TO.P,R24,2*%
%TO.N,GND*%
X121100000Y-62200000D03*
%TD*%
D24*
%TO.P,J11,1,Pin_1*%
%TO.N,GND*%
X155940000Y-66900000D03*
D25*
%TO.P,J11,2,Pin_2*%
%TO.N,/Breakout and Expansion/SENS34_H*%
X153400000Y-66900000D03*
%TO.P,J11,3,Pin_3*%
%TO.N,+3V3*%
X150860000Y-66900000D03*
%TD*%
D26*
%TO.P,D5,1,K*%
%TO.N,Net-(D5-K)*%
X138000000Y-72500000D03*
%TO.P,D5,2,A*%
%TO.N,GND*%
X136425000Y-72500000D03*
%TD*%
D27*
%TO.P,Q5,1,G*%
%TO.N,Net-(Q4-G)*%
X125450000Y-90660000D03*
D28*
%TO.P,Q5,2,D*%
%TO.N,+24V_SW*%
X125450000Y-93200000D03*
%TO.P,Q5,3,S*%
%TO.N,+24V*%
X125450000Y-95740000D03*
%TD*%
D29*
%TO.P,C2,1*%
%TO.N,/Power System/V5V_BUCK*%
X113000000Y-74450000D03*
%TO.P,C2,2*%
%TO.N,GND*%
X113000000Y-71500000D03*
%TD*%
D22*
%TO.P,R17,1*%
%TO.N,RELAY_CTRL*%
X136800000Y-61700000D03*
%TO.P,R17,2*%
%TO.N,GND*%
X136800000Y-63350000D03*
%TD*%
D26*
%TO.P,D7,1,K*%
%TO.N,Net-(D7-K)*%
X137975000Y-78500000D03*
%TO.P,D7,2,A*%
%TO.N,GND*%
X136400000Y-78500000D03*
%TD*%
D23*
%TO.P,R22,1*%
%TO.N,Net-(JP3-A)*%
X188350000Y-71500000D03*
%TO.P,R22,2*%
%TO.N,Net-(R22-Pad2)*%
X186700000Y-71500000D03*
%TD*%
D30*
%TO.P,C7,1*%
%TO.N,+5V*%
X111382379Y-55200000D03*
D31*
%TO.P,C7,2*%
%TO.N,GND*%
X108882379Y-55200000D03*
%TD*%
D32*
%TO.P,C1,1*%
%TO.N,+24V*%
X111800000Y-104000000D03*
D33*
%TO.P,C1,2*%
%TO.N,GND*%
X111800000Y-109000000D03*
%TD*%
D34*
%TO.P,Q1,1,G*%
%TO.N,Net-(DZ1-A)*%
X116300000Y-79500000D03*
%TO.P,Q1,2,S*%
%TO.N,Net-(Q1-S)*%
X118200000Y-79500000D03*
%TO.P,Q1,3,D*%
%TO.N,/Power System/+24V_CTRL*%
X117250000Y-77625000D03*
%TD*%
D24*
%TO.P,J5,1,Pin_1*%
%TO.N,GND*%
X158700000Y-79200000D03*
D25*
%TO.P,J5,2,Pin_2*%
%TO.N,+3V3*%
X158700000Y-76660000D03*
%TO.P,J5,3,Pin_3*%
%TO.N,I2C_SCL*%
X158700000Y-74120000D03*
%TO.P,J5,4,Pin_4*%
%TO.N,I2C_SDA*%
X158700000Y-71580000D03*
%TD*%
D35*
%TO.P,JP2,1,A*%
%TO.N,Net-(JP2-A)*%
X191600000Y-78700000D03*
D36*
%TO.P,JP2,2,C*%
%TO.N,/Signal Outputs/SIG_CH2*%
X191600000Y-77400000D03*
D37*
%TO.P,JP2,3,B*%
%TO.N,+3V3*%
X191600000Y-76100000D03*
%TD*%
D38*
%TO.P,Q6,1,G*%
%TO.N,RELAY_CTRL*%
X131900000Y-65800000D03*
%TO.P,Q6,2,S*%
%TO.N,GND*%
X131900000Y-63900000D03*
%TO.P,Q6,3,D*%
%TO.N,Net-(Q6-D)*%
X130025000Y-64850000D03*
%TD*%
D19*
%TO.P,F5,1*%
%TO.N,/Signal Outputs/LED_24V_CH4*%
X166200000Y-99200000D03*
X168700000Y-99200000D03*
X166200000Y-95700000D03*
X168700000Y-95700000D03*
%TO.P,F5,2*%
%TO.N,+24V_SW*%
X166200000Y-89900000D03*
X168700000Y-89900000D03*
X166200000Y-86400000D03*
X168700000Y-86400000D03*
%TD*%
D39*
%TO.P,J6,1,Pin_1*%
%TO.N,/Signal Outputs/LED_24V_CH1*%
X191280000Y-107700000D03*
D33*
%TO.P,J6,2,Pin_2*%
%TO.N,/Signal Outputs/SIG_CH1*%
X195090000Y-107700000D03*
%TO.P,J6,3,Pin_3*%
%TO.N,GND*%
X198900000Y-107700000D03*
%TD*%
D40*
%TO.P,L2,1,1*%
%TO.N,+5V*%
X115300000Y-54500000D03*
%TO.P,L2,2,2*%
%TO.N,Net-(Q9-D)*%
X115300000Y-57300000D03*
%TD*%
D39*
%TO.P,J8,1,Pin_1*%
%TO.N,/Signal Outputs/LED_24V_CH3*%
X153780000Y-107700000D03*
D33*
%TO.P,J8,2,Pin_2*%
%TO.N,/Signal Outputs/SIG_CH3*%
X157590000Y-107700000D03*
%TO.P,J8,3,Pin_3*%
%TO.N,GND*%
X161400000Y-107700000D03*
%TD*%
D41*
%TO.P,J2,A1,GND*%
%TO.N,GND*%
X114960000Y-50445000D03*
%TO.P,J2,A4,VBUS*%
%TO.N,+5V*%
X114160000Y-50445000D03*
D42*
%TO.P,J2,A5,CC1*%
%TO.N,Net-(J2-CC1)*%
X112960000Y-50445000D03*
%TO.P,J2,A6,D+*%
%TO.N,unconnected-(J2-D+-PadA6)*%
X111960000Y-50445000D03*
%TO.P,J2,A7,D-*%
%TO.N,unconnected-(J2-D--PadA7)*%
X111460000Y-50445000D03*
%TO.P,J2,A8,SBU1*%
%TO.N,unconnected-(J2-SBU1-PadA8)*%
X110460000Y-50445000D03*
D41*
%TO.P,J2,A9,VBUS*%
%TO.N,+5V*%
X109260000Y-50445000D03*
%TO.P,J2,A12,GND*%
%TO.N,GND*%
X108460000Y-50445000D03*
%TO.P,J2,B1,GND*%
X108460000Y-50445000D03*
%TO.P,J2,B4,VBUS*%
%TO.N,+5V*%
X109260000Y-50445000D03*
D42*
%TO.P,J2,B5,CC2*%
%TO.N,Net-(J2-CC2)*%
X109960000Y-50445000D03*
%TO.P,J2,B6,D+*%
%TO.N,unconnected-(J2-D+-PadB6)*%
X110960000Y-50445000D03*
%TO.P,J2,B7,D-*%
%TO.N,unconnected-(J2-D--PadB7)*%
X112460000Y-50445000D03*
%TO.P,J2,B8,SBU2*%
%TO.N,unconnected-(J2-SBU2-PadB8)*%
X113460000Y-50445000D03*
D41*
%TO.P,J2,B9,VBUS*%
%TO.N,+5V*%
X114160000Y-50445000D03*
%TO.P,J2,B12,GND*%
%TO.N,GND*%
X114960000Y-50445000D03*
D43*
%TO.P,J2,S1,SHIELD*%
X116030000Y-49530000D03*
D44*
X116030000Y-45350000D03*
D43*
X107390000Y-49530000D03*
D44*
X107390000Y-45350000D03*
%TD*%
D41*
%TO.P,J4,A1,GND*%
%TO.N,GND*%
X199560000Y-50445000D03*
%TO.P,J4,A4,VBUS*%
%TO.N,VBUS*%
X198760000Y-50445000D03*
D42*
%TO.P,J4,A5,CC1*%
%TO.N,/MCU and Communications/USB_CC1*%
X197560000Y-50445000D03*
%TO.P,J4,A6,D+*%
%TO.N,/MCU and Communications/USB_DP*%
X196560000Y-50445000D03*
%TO.P,J4,A7,D-*%
%TO.N,/MCU and Communications/USB_DM*%
X196060000Y-50445000D03*
%TO.P,J4,A8,SBU1*%
%TO.N,unconnected-(J4-SBU1-PadA8)*%
X195060000Y-50445000D03*
D41*
%TO.P,J4,A9,VBUS*%
%TO.N,VBUS*%
X193860000Y-50445000D03*
%TO.P,J4,A12,GND*%
%TO.N,GND*%
X193060000Y-50445000D03*
%TO.P,J4,B1,GND*%
X193060000Y-50445000D03*
%TO.P,J4,B4,VBUS*%
%TO.N,VBUS*%
X193860000Y-50445000D03*
D42*
%TO.P,J4,B5,CC2*%
%TO.N,/MCU and Communications/USB_CC2*%
X194560000Y-50445000D03*
%TO.P,J4,B6,D+*%
%TO.N,/MCU and Communications/USB_DP*%
X195560000Y-50445000D03*
%TO.P,J4,B7,D-*%
%TO.N,/MCU and Communications/USB_DM*%
X197060000Y-50445000D03*
%TO.P,J4,B8,SBU2*%
%TO.N,unconnected-(J4-SBU2-PadB8)*%
X198060000Y-50445000D03*
D41*
%TO.P,J4,B9,VBUS*%
%TO.N,VBUS*%
X198760000Y-50445000D03*
%TO.P,J4,B12,GND*%
%TO.N,GND*%
X199560000Y-50445000D03*
D43*
%TO.P,J4,S1,SHIELD*%
X200630000Y-49530000D03*
D44*
X200630000Y-45350000D03*
D43*
X191990000Y-49530000D03*
D44*
X191990000Y-45350000D03*
%TD*%
D10*
%TO.P,TP2,1,1*%
%TO.N,+5V*%
X112300000Y-67700000D03*
%TD*%
D35*
%TO.P,JP4,1,A*%
%TO.N,Net-(JP4-A)*%
X194700000Y-76100000D03*
D36*
%TO.P,JP4,2,C*%
%TO.N,/Signal Outputs/SIG_CH4*%
X194700000Y-74800000D03*
D37*
%TO.P,JP4,3,B*%
%TO.N,+3V3*%
X194700000Y-73500000D03*
%TD*%
D23*
%TO.P,R23,1*%
%TO.N,Net-(JP4-A)*%
X188350000Y-73600000D03*
%TO.P,R23,2*%
%TO.N,Net-(R23-Pad2)*%
X186700000Y-73600000D03*
%TD*%
D18*
%TO.P,C9,1*%
%TO.N,+5V*%
X113800000Y-52800000D03*
%TO.P,C9,2*%
%TO.N,GND*%
X115350000Y-52800000D03*
%TD*%
D45*
%TO.P,U1,1,BS*%
%TO.N,Net-(U1-BS)*%
X112975000Y-89705000D03*
%TO.P,U1,2,IN*%
%TO.N,/Power System/+24V_CTRL*%
X112975000Y-88435000D03*
%TO.P,U1,3,SW*%
%TO.N,Net-(D2-K)*%
X112975000Y-87165000D03*
%TO.P,U1,4,GND*%
%TO.N,GND*%
X112975000Y-85895000D03*
%TO.P,U1,5,FB*%
%TO.N,Net-(U1-FB)*%
X108025000Y-85895000D03*
%TO.P,U1,6,COMP*%
%TO.N,unconnected-(U1-COMP-Pad6)*%
X108025000Y-87165000D03*
%TO.P,U1,7,EN*%
%TO.N,unconnected-(U1-EN-Pad7)*%
X108025000Y-88435000D03*
%TO.P,U1,8,SS*%
%TO.N,unconnected-(U1-SS-Pad8)*%
X108025000Y-89705000D03*
%TD*%
D21*
%TO.P,R31,1*%
%TO.N,+5V*%
X119900000Y-66200000D03*
%TO.P,R31,2*%
%TO.N,Net-(Q6-D)*%
X119900000Y-64550000D03*
%TD*%
D46*
%TO.P,J17,1,Pin_1*%
%TO.N,Net-(J17-Pin_1)*%
X143020000Y-106700000D03*
D47*
%TO.P,J17,2,Pin_2*%
%TO.N,GND*%
X148100000Y-106700000D03*
%TD*%
D23*
%TO.P,R29,1*%
%TO.N,GND*%
X126500000Y-77300000D03*
%TO.P,R29,2*%
%TO.N,Net-(DZ1-A)*%
X124850000Y-77300000D03*
%TD*%
D48*
%TO.P,F1,1*%
%TO.N,Net-(Q1-S)*%
X108900000Y-95225000D03*
%TO.P,F1,2*%
%TO.N,+24V*%
X108900000Y-99500000D03*
%TD*%
D49*
%TO.P,C5,1*%
%TO.N,+5V*%
X121500000Y-70400000D03*
%TO.P,C5,2*%
%TO.N,GND*%
X121500000Y-72300000D03*
%TD*%
D21*
%TO.P,R30,1*%
%TO.N,Net-(Q4-G)*%
X134100000Y-65100000D03*
%TO.P,R30,2*%
%TO.N,Net-(Q2-D)*%
X134100000Y-63450000D03*
%TD*%
D46*
%TO.P,J16,1,Pin_1*%
%TO.N,Net-(J16-Pin_1)*%
X131720000Y-106700000D03*
D47*
%TO.P,J16,2,Pin_2*%
%TO.N,GND*%
X136800000Y-106700000D03*
%TD*%
D12*
%TO.P,C4,1*%
%TO.N,/Power System/+24V_CTRL*%
X113500000Y-82700000D03*
%TO.P,C4,2*%
%TO.N,GND*%
X113500000Y-84250000D03*
%TD*%
D50*
%TO.P,Q2,1,G*%
%TO.N,RELAY_CTRL*%
X132825000Y-60050000D03*
%TO.P,Q2,2,S*%
%TO.N,GND*%
X132825000Y-61950000D03*
%TO.P,Q2,3,D*%
%TO.N,Net-(Q2-D)*%
X134700000Y-61000000D03*
%TD*%
D22*
%TO.P,R26,1*%
%TO.N,CP_RTS*%
X193500000Y-63000000D03*
%TO.P,R26,2*%
%TO.N,Net-(Q7-G)*%
X193500000Y-64650000D03*
%TD*%
D13*
%TO.P,R19,1*%
%TO.N,+3V3*%
X127340000Y-50100000D03*
%TO.P,R19,2*%
%TO.N,ESP32_EN*%
X128990000Y-50100000D03*
%TD*%
D35*
%TO.P,JP3,1,A*%
%TO.N,Net-(JP3-A)*%
X191600000Y-73300000D03*
D36*
%TO.P,JP3,2,C*%
%TO.N,/Signal Outputs/SIG_CH3*%
X191600000Y-72000000D03*
D37*
%TO.P,JP3,3,B*%
%TO.N,+3V3*%
X191600000Y-70700000D03*
%TD*%
D22*
%TO.P,R8,1*%
%TO.N,/MCU and Communications/RS485_A*%
X126490000Y-54450000D03*
%TO.P,R8,2*%
%TO.N,/MCU and Communications/RS485_B*%
X126490000Y-56100000D03*
%TD*%
D13*
%TO.P,R4,1*%
%TO.N,+5V*%
X136350000Y-74000000D03*
%TO.P,R4,2*%
%TO.N,Net-(D6-K)*%
X138000000Y-74000000D03*
%TD*%
D39*
%TO.P,J7,1,Pin_1*%
%TO.N,/Signal Outputs/LED_24V_CH2*%
X178780000Y-107700000D03*
D33*
%TO.P,J7,2,Pin_2*%
%TO.N,/Signal Outputs/SIG_CH2*%
X182590000Y-107700000D03*
%TO.P,J7,3,Pin_3*%
%TO.N,GND*%
X186400000Y-107700000D03*
%TD*%
D40*
%TO.P,L1,1,1*%
%TO.N,/Power System/V5V_BUCK*%
X112500000Y-76500000D03*
%TO.P,L1,2,2*%
%TO.N,Net-(D2-K)*%
X112500000Y-79300000D03*
%TD*%
D21*
%TO.P,R12,1*%
%TO.N,+3V3*%
X161600000Y-73150000D03*
%TO.P,R12,2*%
%TO.N,I2C_SDA*%
X161600000Y-71500000D03*
%TD*%
D23*
%TO.P,R34,1*%
%TO.N,/Breakout and Expansion/SENS34_H*%
X148100000Y-66400000D03*
%TO.P,R34,2*%
%TO.N,SENS_IO34*%
X146450000Y-66400000D03*
%TD*%
D51*
%TO.P,C6,1*%
%TO.N,+3V3*%
X138000000Y-66600000D03*
%TO.P,C6,2*%
%TO.N,GND*%
X140950000Y-66600000D03*
%TD*%
D52*
%TO.P,D3,1,K*%
%TO.N,+5V*%
X108500000Y-70100000D03*
%TO.P,D3,2,A*%
%TO.N,/Power System/V5V_BUCK*%
X108500000Y-74100000D03*
%TD*%
D38*
%TO.P,Q7,1,G*%
%TO.N,Net-(Q7-G)*%
X189400000Y-66000000D03*
%TO.P,Q7,2,S*%
%TO.N,GND*%
X189400000Y-64100000D03*
%TO.P,Q7,3,D*%
%TO.N,ESP32_EN*%
X187525000Y-65050000D03*
%TD*%
D19*
%TO.P,F3,1*%
%TO.N,/Signal Outputs/LED_24V_CH2*%
X184000000Y-99200000D03*
X186500000Y-99200000D03*
X184000000Y-95700000D03*
X186500000Y-95700000D03*
%TO.P,F3,2*%
%TO.N,+24V_SW*%
X184000000Y-89900000D03*
X186500000Y-89900000D03*
X184000000Y-86400000D03*
X186500000Y-86400000D03*
%TD*%
D27*
%TO.P,Q4,1,G*%
%TO.N,Net-(Q4-G)*%
X119300000Y-90660000D03*
D28*
%TO.P,Q4,2,D*%
%TO.N,+24V_SW*%
X119300000Y-93200000D03*
%TO.P,Q4,3,S*%
%TO.N,+24V*%
X119300000Y-95740000D03*
%TD*%
D53*
%TO.P,J15,1,TD+*%
%TO.N,/MCU and Communications/ETH_TXP*%
X186740000Y-56710000D03*
D54*
%TO.P,J15,2,TD-*%
%TO.N,/MCU and Communications/ETH_TXN*%
X185480000Y-59250000D03*
%TO.P,J15,3,RD+*%
%TO.N,/MCU and Communications/ETH_RXP*%
X184200000Y-56710000D03*
%TO.P,J15,4,TCT*%
%TO.N,+3V3*%
X182940000Y-59250000D03*
%TO.P,J15,5,RCT*%
X181660000Y-56710000D03*
%TO.P,J15,6,RD-*%
%TO.N,/MCU and Communications/ETH_RXN*%
X180400000Y-59250000D03*
%TO.P,J15,7,NC*%
%TO.N,unconnected-(J15-NC-Pad7)*%
X179120000Y-56710000D03*
%TO.P,J15,8*%
%TO.N,GND*%
X177860000Y-59250000D03*
%TO.P,J15,9*%
%TO.N,unconnected-(J15-Pad9)*%
X188925000Y-45450000D03*
%TO.P,J15,10*%
%TO.N,unconnected-(J15-Pad10)*%
X186385000Y-45450000D03*
%TO.P,J15,11*%
%TO.N,unconnected-(J15-Pad11)*%
X178215000Y-45450000D03*
%TO.P,J15,12*%
%TO.N,unconnected-(J15-Pad12)*%
X175675000Y-45450000D03*
D55*
%TO.P,J15,SH*%
%TO.N,GND*%
X190045000Y-53400000D03*
X174555000Y-53400000D03*
%TD*%
D56*
%TO.P,U2,1,GND*%
%TO.N,GND*%
X130700000Y-68800000D03*
%TO.P,U2,2,VO*%
%TO.N,+3V3*%
X128400000Y-68800000D03*
D57*
X128400000Y-75100000D03*
D56*
%TO.P,U2,3,VI*%
%TO.N,+5V*%
X126100000Y-68800000D03*
%TD*%
D21*
%TO.P,R33,1*%
%TO.N,+5V*%
X115300000Y-66150000D03*
%TO.P,R33,2*%
%TO.N,Net-(J2-CC2)*%
X115300000Y-64500000D03*
%TD*%
D11*
%TO.P,C17,1*%
%TO.N,ESP32_EN*%
X186700000Y-66500000D03*
%TO.P,C17,2*%
%TO.N,GND*%
X185150000Y-66500000D03*
%TD*%
D35*
%TO.P,JP1,1,A*%
%TO.N,Net-(JP1-A)*%
X194657500Y-81100000D03*
D36*
%TO.P,JP1,2,C*%
%TO.N,/Signal Outputs/SIG_CH1*%
X194657500Y-79800000D03*
D37*
%TO.P,JP1,3,B*%
%TO.N,+3V3*%
X194657500Y-78500000D03*
%TD*%
D39*
%TO.P,J9,1,Pin_1*%
%TO.N,/Signal Outputs/LED_24V_CH4*%
X166280000Y-107700000D03*
D33*
%TO.P,J9,2,Pin_2*%
%TO.N,/Signal Outputs/SIG_CH4*%
X170090000Y-107700000D03*
%TO.P,J9,3,Pin_3*%
%TO.N,GND*%
X173900000Y-107700000D03*
%TD*%
D22*
%TO.P,R27,1*%
%TO.N,CP_DTR*%
X193500000Y-66100000D03*
%TO.P,R27,2*%
%TO.N,Net-(Q8-G)*%
X193500000Y-67750000D03*
%TD*%
D58*
%TO.P,U12,1,SCL*%
%TO.N,I2C_SCL*%
X152000000Y-78200000D03*
%TO.P,U12,2,GND*%
%TO.N,GND*%
X152000000Y-79150000D03*
%TO.P,U12,3,ALERT*%
%TO.N,unconnected-(U12-ALERT-Pad3)*%
X152000000Y-80100000D03*
%TO.P,U12,4,ADD0*%
%TO.N,GND*%
X154275000Y-80100000D03*
%TO.P,U12,5,V+*%
%TO.N,+3V3*%
X154275000Y-79150000D03*
%TO.P,U12,6,SDA*%
%TO.N,I2C_SDA*%
X154275000Y-78200000D03*
%TD*%
D59*
%TO.P,D10,1,K*%
%TO.N,+24V*%
X122250000Y-54800000D03*
%TO.P,D10,2,A*%
%TO.N,Net-(D10-A)*%
X118950000Y-54800000D03*
%TD*%
D34*
%TO.P,Q3,1,G*%
%TO.N,FAN_PWM*%
X119400000Y-60400000D03*
%TO.P,Q3,2,S*%
%TO.N,GND*%
X121300000Y-60400000D03*
%TO.P,Q3,3,D*%
%TO.N,Net-(D10-A)*%
X120350000Y-58525000D03*
%TD*%
D60*
%TO.P,C20,1*%
%TO.N,+5V*%
X109000000Y-62500000D03*
D31*
%TO.P,C20,2*%
%TO.N,GND*%
X111500000Y-62500000D03*
%TD*%
D24*
%TO.P,J3,1,Pin_1*%
%TO.N,+24V*%
X133775000Y-70380000D03*
D25*
%TO.P,J3,2,Pin_2*%
%TO.N,+5V*%
X133775000Y-72920000D03*
%TO.P,J3,3,Pin_3*%
%TO.N,+3V3*%
X133775000Y-75460000D03*
%TO.P,J3,4,Pin_4*%
%TO.N,GND*%
X133775000Y-78000000D03*
%TD*%
D21*
%TO.P,R32,1*%
%TO.N,+5V*%
X118200000Y-66150000D03*
%TO.P,R32,2*%
%TO.N,Net-(J2-CC1)*%
X118200000Y-64500000D03*
%TD*%
D61*
%TO.P,Q9,1,G*%
%TO.N,Net-(Q6-D)*%
X116300000Y-59300000D03*
%TO.P,Q9,2,S*%
%TO.N,+5V*%
X114400000Y-59300000D03*
%TO.P,Q9,3,D*%
%TO.N,Net-(Q9-D)*%
X115350000Y-61175000D03*
%TD*%
D22*
%TO.P,R7,1*%
%TO.N,/MCU and Communications/USB_CC2*%
X201300000Y-53415981D03*
%TO.P,R7,2*%
%TO.N,GND*%
X201300000Y-55065981D03*
%TD*%
D62*
%TO.P,D1,1,A1*%
%TO.N,+24V*%
X113700000Y-99250000D03*
%TO.P,D1,2,A2*%
%TO.N,GND*%
X113700000Y-94950000D03*
%TD*%
D10*
%TO.P,TP3,1,1*%
%TO.N,+3V3*%
X143200000Y-66500000D03*
%TD*%
D13*
%TO.P,R25,1*%
%TO.N,+24V*%
X114150000Y-92600000D03*
%TO.P,R25,2*%
%TO.N,Net-(Q4-G)*%
X115800000Y-92600000D03*
%TD*%
D63*
%TO.P,D2,1,K*%
%TO.N,Net-(D2-K)*%
X117500000Y-74500000D03*
%TO.P,D2,2,A*%
%TO.N,GND*%
X117500000Y-70500000D03*
%TD*%
D23*
%TO.P,R20,1*%
%TO.N,Net-(JP1-A)*%
X188450000Y-79100000D03*
%TO.P,R20,2*%
%TO.N,Net-(R20-Pad2)*%
X186800000Y-79100000D03*
%TD*%
D64*
%TO.P,U7,1,~{RI}/CLK*%
%TO.N,unconnected-(U7-~{RI}{slash}CLK-Pad1)*%
X196600000Y-53212500D03*
%TO.P,U7,2,GND*%
%TO.N,GND*%
X196100000Y-53212500D03*
%TO.P,U7,3,D+*%
%TO.N,/MCU and Communications/USB_DP*%
X195600000Y-53212500D03*
%TO.P,U7,4,D-*%
%TO.N,/MCU and Communications/USB_DM*%
X195100000Y-53212500D03*
%TO.P,U7,5,VIO*%
%TO.N,+3V3*%
X194600000Y-53212500D03*
%TO.P,U7,6,VDD*%
X194100000Y-53212500D03*
D65*
%TO.P,U7,7,VREGIN*%
X193412500Y-53900000D03*
%TO.P,U7,8,VBUS*%
%TO.N,VBUS*%
X193412500Y-54400000D03*
%TO.P,U7,9,~{RST}*%
%TO.N,unconnected-(U7-~{RST}-Pad9)*%
X193412500Y-54900000D03*
%TO.P,U7,10,NC*%
%TO.N,unconnected-(U7-NC-Pad10)*%
X193412500Y-55400000D03*
%TO.P,U7,11,~{WAKEUP}/GPIO.3*%
%TO.N,unconnected-(U7-~{WAKEUP}{slash}GPIO.3-Pad11)*%
X193412500Y-55900000D03*
%TO.P,U7,12,RS485/GPIO.2*%
%TO.N,unconnected-(U7-RS485{slash}GPIO.2-Pad12)*%
X193412500Y-56400000D03*
D64*
%TO.P,U7,13,~{RXT}/GPIO.1*%
%TO.N,unconnected-(U7-~{RXT}{slash}GPIO.1-Pad13)*%
X194100000Y-57087500D03*
%TO.P,U7,14,~{TXT}/GPIO.0*%
%TO.N,unconnected-(U7-~{TXT}{slash}GPIO.0-Pad14)*%
X194600000Y-57087500D03*
%TO.P,U7,15,~{SUSPEND}*%
%TO.N,unconnected-(U7-~{SUSPEND}-Pad15)*%
X195100000Y-57087500D03*
%TO.P,U7,16,NC*%
%TO.N,unconnected-(U7-NC-Pad16)*%
X195600000Y-57087500D03*
%TO.P,U7,17,SUSPEND*%
%TO.N,unconnected-(U7-SUSPEND-Pad17)*%
X196100000Y-57087500D03*
%TO.P,U7,18,~{CTS}*%
%TO.N,unconnected-(U7-~{CTS}-Pad18)*%
X196600000Y-57087500D03*
D65*
%TO.P,U7,19,~{RTS}*%
%TO.N,CP_RTS*%
X197287500Y-56400000D03*
%TO.P,U7,20,RXD*%
%TO.N,ESP_UART_TX*%
X197287500Y-55900000D03*
%TO.P,U7,21,TXD*%
%TO.N,ESP_UART_RX*%
X197287500Y-55400000D03*
%TO.P,U7,22,~{DSR}*%
%TO.N,unconnected-(U7-~{DSR}-Pad22)*%
X197287500Y-54900000D03*
%TO.P,U7,23,~{DTR}*%
%TO.N,CP_DTR*%
X197287500Y-54400000D03*
%TO.P,U7,24,~{DCD}*%
%TO.N,unconnected-(U7-~{DCD}-Pad24)*%
X197287500Y-53900000D03*
D66*
%TO.P,U7,25,GND*%
%TO.N,GND*%
X195350000Y-55150000D03*
%TD*%
D22*
%TO.P,R10,1*%
%TO.N,/MCU and Communications/RS485_B*%
X129390000Y-57500000D03*
%TO.P,R10,2*%
%TO.N,GND*%
X129390000Y-59150000D03*
%TD*%
D46*
%TO.P,J1,1,Pin_1*%
%TO.N,+24V*%
X120320000Y-106300000D03*
D47*
%TO.P,J1,2,Pin_2*%
%TO.N,GND*%
X125400000Y-106300000D03*
%TD*%
D67*
%TO.P,SW1,1,1*%
%TO.N,ESP32_EN*%
X138790000Y-50000000D03*
X130830000Y-50000000D03*
%TO.P,SW1,2,2*%
%TO.N,GND*%
X138790000Y-45500000D03*
X130830000Y-45500000D03*
%TD*%
D45*
%TO.P,U8,1,RO*%
%TO.N,/MCU and Communications/RS485_RX*%
X136565000Y-57305000D03*
%TO.P,U8,2,~{RE}*%
%TO.N,/MCU and Communications/RS485_DE*%
X136565000Y-56035000D03*
%TO.P,U8,3,DE*%
X136565000Y-54765000D03*
%TO.P,U8,4,DI*%
%TO.N,/MCU and Communications/RS485_TX*%
X136565000Y-53495000D03*
%TO.P,U8,5,GND*%
%TO.N,GND*%
X131615000Y-53495000D03*
%TO.P,U8,6,A*%
%TO.N,/MCU and Communications/RS485_A*%
X131615000Y-54765000D03*
%TO.P,U8,7,B*%
%TO.N,/MCU and Communications/RS485_B*%
X131615000Y-56035000D03*
%TO.P,U8,8,VCC*%
%TO.N,+3V3*%
X131615000Y-57305000D03*
%TD*%
D26*
%TO.P,D6,1,K*%
%TO.N,Net-(D6-K)*%
X137987500Y-75500000D03*
%TO.P,D6,2,A*%
%TO.N,GND*%
X136412500Y-75500000D03*
%TD*%
D21*
%TO.P,R9,1*%
%TO.N,+3V3*%
X126490000Y-59150000D03*
%TO.P,R9,2*%
%TO.N,/MCU and Communications/RS485_A*%
X126490000Y-57500000D03*
%TD*%
D68*
%TO.P,J13,1,Pin_1*%
%TO.N,+24V*%
X123305000Y-48382500D03*
D33*
%TO.P,J13,2,Pin_2*%
%TO.N,Net-(D10-A)*%
X119495000Y-48382500D03*
%TD*%
D19*
%TO.P,F4,1*%
%TO.N,/Signal Outputs/LED_24V_CH3*%
X159000000Y-99200000D03*
X161500000Y-99200000D03*
X159000000Y-95700000D03*
X161500000Y-95700000D03*
%TO.P,F4,2*%
%TO.N,+24V_SW*%
X159000000Y-89900000D03*
X161500000Y-89900000D03*
X159000000Y-86400000D03*
X161500000Y-86400000D03*
%TD*%
D49*
%TO.P,C14,1*%
%TO.N,+3V3*%
X191900000Y-57600000D03*
%TO.P,C14,2*%
%TO.N,GND*%
X191900000Y-59500000D03*
%TD*%
D23*
%TO.P,R28,1*%
%TO.N,+3V3*%
X175950000Y-74100000D03*
%TO.P,R28,2*%
%TO.N,LED_CH4*%
X174300000Y-74100000D03*
%TD*%
D69*
%TO.P,FB1,1*%
%TO.N,Net-(U9-VDDIO)*%
X165100000Y-48100000D03*
%TO.P,FB1,2*%
%TO.N,+3V3*%
X162975000Y-48100000D03*
%TD*%
D70*
%TO.P,U11,1*%
%TO.N,GND*%
X164425000Y-71230000D03*
%TO.P,U11,2*%
%TO.N,LED_CH1*%
X164425000Y-72500000D03*
%TO.P,U11,3*%
%TO.N,Net-(R20-Pad2)*%
X164425000Y-73770000D03*
%TO.P,U11,4*%
%TO.N,GND*%
X164425000Y-75040000D03*
%TO.P,U11,5*%
%TO.N,LED_CH2*%
X164425000Y-76310000D03*
%TO.P,U11,6*%
%TO.N,Net-(R21-Pad2)*%
X164425000Y-77580000D03*
%TO.P,U11,7,GND*%
%TO.N,GND*%
X164425000Y-78850000D03*
%TO.P,U11,8*%
%TO.N,Net-(R22-Pad2)*%
X169375000Y-78850000D03*
%TO.P,U11,9*%
%TO.N,LED_CH3*%
X169375000Y-77580000D03*
%TO.P,U11,10*%
%TO.N,GND*%
X169375000Y-76310000D03*
%TO.P,U11,11*%
%TO.N,Net-(R23-Pad2)*%
X169375000Y-75040000D03*
%TO.P,U11,12*%
%TO.N,LED_CH4*%
X169375000Y-73770000D03*
%TO.P,U11,13*%
%TO.N,GND*%
X169375000Y-72500000D03*
%TO.P,U11,14,VCC*%
%TO.N,+5V*%
X169375000Y-71230000D03*
%TD*%
D59*
%TO.P,DZ1,1,K*%
%TO.N,+24V*%
X123450000Y-78500000D03*
%TO.P,DZ1,2,A*%
%TO.N,Net-(DZ1-A)*%
X120150000Y-78500000D03*
%TD*%
D13*
%TO.P,R15,1*%
%TO.N,Net-(U9-~{RST})*%
X169650000Y-57800000D03*
%TO.P,R15,2*%
%TO.N,+3V3*%
X171300000Y-57800000D03*
%TD*%
D71*
%TO.P,U9,1,VDD2A*%
%TO.N,+3V3*%
X171390000Y-47510000D03*
%TO.P,U9,2,LED2/~{INTSEL}*%
%TO.N,unconnected-(U9-LED2{slash}~{INTSEL}-Pad2)*%
X170890000Y-47510000D03*
%TO.P,U9,3,LED1/REGOFF*%
%TO.N,unconnected-(U9-LED1{slash}REGOFF-Pad3)*%
X170390000Y-47510000D03*
%TO.P,U9,4,XTAL2*%
%TO.N,unconnected-(U9-XTAL2-Pad4)*%
X169890000Y-47510000D03*
%TO.P,U9,5,XTAL1/CLKIN*%
%TO.N,/MCU and Communications/ETH_CLK_OUT*%
X169390000Y-47510000D03*
%TO.P,U9,6,VDDCR*%
%TO.N,+3V3*%
X168890000Y-47510000D03*
D72*
%TO.P,U9,7,RXD1/MODE1*%
%TO.N,/MCU and Communications/ETH_RXD1*%
X168190000Y-48210000D03*
%TO.P,U9,8,RXD0/MODE0*%
%TO.N,/MCU and Communications/ETH_RXD0*%
X168190000Y-48710000D03*
%TO.P,U9,9,VDDIO*%
%TO.N,Net-(U9-VDDIO)*%
X168190000Y-49210000D03*
%TO.P,U9,10,RXER/PHYAD0*%
%TO.N,unconnected-(U9-RXER{slash}PHYAD0-Pad10)*%
X168190000Y-49710000D03*
%TO.P,U9,11,CRS_DV/MODE2*%
%TO.N,/MCU and Communications/ETH_CRS_DV*%
X168190000Y-50210000D03*
%TO.P,U9,12,MDIO*%
%TO.N,/MCU and Communications/ETH_MDIO*%
X168190000Y-50710000D03*
D71*
%TO.P,U9,13,MDC*%
%TO.N,/MCU and Communications/ETH_MDC*%
X168890000Y-51410000D03*
%TO.P,U9,14,~{INT}/REFCLKO*%
%TO.N,unconnected-(U9-~{INT}{slash}REFCLKO-Pad14)*%
X169390000Y-51410000D03*
%TO.P,U9,15,~{RST}*%
%TO.N,Net-(U9-~{RST})*%
X169890000Y-51410000D03*
%TO.P,U9,16,TXEN*%
%TO.N,/MCU and Communications/ETH_TXEN*%
X170390000Y-51410000D03*
%TO.P,U9,17,TXD0*%
%TO.N,/MCU and Communications/ETH_TXD0*%
X170890000Y-51410000D03*
%TO.P,U9,18,TXD1*%
%TO.N,/MCU and Communications/ETH_TXD1*%
X171390000Y-51410000D03*
D72*
%TO.P,U9,19,VDD1A*%
%TO.N,+3V3*%
X172090000Y-50710000D03*
%TO.P,U9,20,TXN*%
%TO.N,/MCU and Communications/ETH_TXN*%
X172090000Y-50210000D03*
%TO.P,U9,21,TXP*%
%TO.N,/MCU and Communications/ETH_TXP*%
X172090000Y-49710000D03*
%TO.P,U9,22,RXN*%
%TO.N,/MCU and Communications/ETH_RXN*%
X172090000Y-49210000D03*
%TO.P,U9,23,RXP*%
%TO.N,/MCU and Communications/ETH_RXP*%
X172090000Y-48710000D03*
%TO.P,U9,24,RBIAS*%
%TO.N,Net-(U9-RBIAS)*%
X172090000Y-48210000D03*
D73*
%TO.P,U9,25,VSS*%
%TO.N,GND*%
X170140000Y-49460000D03*
%TD*%
D38*
%TO.P,Q8,1,G*%
%TO.N,Net-(Q8-G)*%
X175575000Y-72350000D03*
%TO.P,Q8,2,S*%
%TO.N,GND*%
X175575000Y-70450000D03*
%TO.P,Q8,3,D*%
%TO.N,LED_CH4*%
X173700000Y-71400000D03*
%TD*%
D20*
%TO.P,C3,1*%
%TO.N,Net-(U1-BS)*%
X110500000Y-84050000D03*
%TO.P,C3,2*%
%TO.N,Net-(D2-K)*%
X110500000Y-82500000D03*
%TD*%
D11*
%TO.P,C18,1*%
%TO.N,+3V3*%
X150200000Y-77200000D03*
%TO.P,C18,2*%
%TO.N,GND*%
X148650000Y-77200000D03*
%TD*%
D19*
%TO.P,F2,1*%
%TO.N,/Signal Outputs/LED_24V_CH1*%
X191200000Y-99200000D03*
X193700000Y-99200000D03*
X191200000Y-95700000D03*
X193700000Y-95700000D03*
%TO.P,F2,2*%
%TO.N,+24V_SW*%
X191200000Y-89900000D03*
X193700000Y-89900000D03*
X191200000Y-86400000D03*
X193700000Y-86400000D03*
%TD*%
D74*
%TO.P,D4,1,K*%
%TO.N,+5V*%
X142300000Y-72100000D03*
%TO.P,D4,2,A*%
%TO.N,VBUS*%
X146300000Y-72100000D03*
%TD*%
D21*
%TO.P,R2,1*%
%TO.N,Net-(U1-FB)*%
X107400000Y-84050000D03*
%TO.P,R2,2*%
%TO.N,GND*%
X107400000Y-82400000D03*
%TD*%
D75*
%TO.N,+24V*%
X125355976Y-72376886D03*
X123200000Y-66300000D03*
%TO.N,GND*%
X162700000Y-74900000D03*
X124940000Y-60400000D03*
X131100000Y-62500000D03*
X154800000Y-81300000D03*
X150595000Y-52700000D03*
X135700000Y-62200000D03*
X130490000Y-59200000D03*
X144100000Y-46200000D03*
D76*
X127900000Y-64300000D03*
D75*
X131000000Y-78400000D03*
X147470000Y-54215000D03*
X170800000Y-48800000D03*
X121400000Y-59000000D03*
X156300000Y-45600000D03*
X147300000Y-65300000D03*
X119900000Y-72600000D03*
X107600000Y-52600000D03*
X150520000Y-51165000D03*
X144000000Y-61800000D03*
X173100000Y-70300000D03*
X165875000Y-70500000D03*
X131200000Y-73800000D03*
X112585252Y-84909128D03*
X114200000Y-68900000D03*
X108600000Y-81100000D03*
X171200000Y-75800000D03*
X177131821Y-63068178D03*
X197560617Y-52307426D03*
X188000000Y-63900000D03*
X125800000Y-79000000D03*
X172200000Y-44900000D03*
X171200000Y-71900000D03*
X150500000Y-64900000D03*
X200448354Y-54248354D03*
X172200000Y-67800000D03*
X155300000Y-68250000D03*
X200500000Y-57900000D03*
X113200000Y-97100000D03*
X128290000Y-56000000D03*
X195100000Y-58800000D03*
X127240000Y-60400000D03*
X148650000Y-78600000D03*
D76*
X123700000Y-64200000D03*
D75*
X141000000Y-68500000D03*
X147470000Y-51165000D03*
X150520000Y-54215000D03*
X150200000Y-78600000D03*
X166200000Y-79600000D03*
X119700000Y-68900000D03*
%TO.N,+5V*%
X172600000Y-78075000D03*
X168500000Y-67600000D03*
X169500000Y-70000000D03*
X171100000Y-70400000D03*
X172500000Y-80700000D03*
X172500000Y-74100000D03*
%TO.N,+3V3*%
X155198008Y-76098008D03*
X173125000Y-47435000D03*
X172189998Y-51174825D03*
X161100000Y-76000000D03*
X165000000Y-44800000D03*
X194100000Y-70100000D03*
X171600000Y-55400000D03*
X190000000Y-75300000D03*
X153900000Y-45600000D03*
X126100000Y-71500000D03*
X181780178Y-63248250D03*
X174200000Y-80700000D03*
X192700000Y-80200000D03*
X196600000Y-73300000D03*
X161800000Y-47500000D03*
X147500000Y-46200000D03*
X163600000Y-63400000D03*
X167567236Y-46740000D03*
X123900000Y-62000000D03*
X174127619Y-77569078D03*
X169806767Y-46327411D03*
X137400000Y-68300000D03*
X172431821Y-58368179D03*
X180400000Y-61800000D03*
%TO.N,VBUS*%
X199600000Y-51820002D03*
X192100000Y-51700000D03*
X191934404Y-62334404D03*
X192200000Y-55619420D03*
X167900000Y-68800000D03*
X159300000Y-69200000D03*
%TO.N,ESP32_EN*%
X156100000Y-61700000D03*
X144892350Y-52192350D03*
X160298008Y-61601992D03*
X153425000Y-57700000D03*
X147677880Y-55899999D03*
X154975000Y-58000000D03*
%TO.N,/MCU and Communications/USB_DM*%
X196031230Y-48875000D03*
X194900000Y-51900000D03*
%TO.N,I2C_SDA*%
X148875000Y-71180000D03*
X160700000Y-70500000D03*
X148100000Y-61719998D03*
%TO.N,I2C_SCL*%
X149975003Y-71180000D03*
X152200000Y-75600000D03*
X149200000Y-61700000D03*
X156080000Y-74120000D03*
%TO.N,/Signal Outputs/SIG_CH3*%
X200400000Y-72000000D03*
%TO.N,/Signal Outputs/SIG_CH4*%
X200600000Y-75100000D03*
%TO.N,RELAY_CTRL*%
X142500000Y-53000000D03*
X132800000Y-64800000D03*
X131500000Y-61000000D03*
X139500000Y-52900000D03*
%TO.N,Net-(U9-~{RST})*%
X169615000Y-53593800D03*
X168700000Y-57700000D03*
%TO.N,/Signal Outputs/SIG_CH1*%
X199700000Y-80000000D03*
%TO.N,/Signal Outputs/SIG_CH2*%
X200150000Y-77500000D03*
%TO.N,FAN_PWM*%
X145600000Y-45000000D03*
X154500000Y-54350000D03*
X154500000Y-56375000D03*
X125900000Y-45300000D03*
%TO.N,/MCU and Communications/ETH_CRS_DV*%
X153400000Y-50100000D03*
X145800006Y-56825000D03*
X146100000Y-54350000D03*
X166300000Y-53100000D03*
%TO.N,/MCU and Communications/ETH_TXEN*%
X165198308Y-54390341D03*
X157000000Y-54400000D03*
%TO.N,/MCU and Communications/ETH_RXD1*%
X154248008Y-48751992D03*
X164300000Y-51300000D03*
X144999997Y-54350000D03*
X144700003Y-56825000D03*
%TO.N,/MCU and Communications/ETH_MDIO*%
X159967207Y-56176625D03*
X168000000Y-53000000D03*
%TO.N,LED_CH3*%
X162700000Y-69900000D03*
X166600000Y-73100000D03*
%TO.N,/MCU and Communications/ETH_CLK_OUT*%
X152012168Y-54186825D03*
X156414492Y-47810508D03*
X152000000Y-55900000D03*
X161800000Y-48600000D03*
%TO.N,/MCU and Communications/RS485_TX*%
X142700000Y-60600000D03*
X138700000Y-60650000D03*
%TO.N,/MCU and Communications/ETH_TXD0*%
X166061907Y-55165341D03*
X160400000Y-55165341D03*
%TO.N,/MCU and Communications/ETH_RXD0*%
X143600000Y-56825000D03*
X165200000Y-52200000D03*
X152700000Y-48300000D03*
X144195656Y-53599640D03*
%TO.N,CP_RTS*%
X193500000Y-62000000D03*
X193311969Y-58725000D03*
%TO.N,Net-(U9-VDDIO)*%
X166500000Y-51200000D03*
X164100000Y-48100000D03*
D77*
%TO.N,+24V_SW*%
X128200000Y-82200000D03*
X125000000Y-83800000D03*
X123400000Y-85400000D03*
X128200000Y-83800000D03*
X126600000Y-85400000D03*
X121800000Y-85400000D03*
X125000000Y-87000000D03*
X118600000Y-85400000D03*
X120200000Y-82200000D03*
X121800000Y-82200000D03*
X118600000Y-83800000D03*
X118600000Y-87000000D03*
X120200000Y-85400000D03*
X125000000Y-85400000D03*
X125000000Y-82200000D03*
X123400000Y-87000000D03*
X120200000Y-87000000D03*
X126600000Y-83800000D03*
X121800000Y-87000000D03*
X128200000Y-87000000D03*
X126600000Y-82200000D03*
X121800000Y-83800000D03*
X120200000Y-83800000D03*
X128200000Y-85400000D03*
X126600000Y-87000000D03*
X123400000Y-82200000D03*
X123400000Y-83800000D03*
D75*
%TO.N,SENS_IO34*%
X145800000Y-64600000D03*
X145800007Y-58446015D03*
X143500000Y-52200000D03*
X145640000Y-61719998D03*
%TO.N,Net-(Q4-G)*%
X136708275Y-66650000D03*
X132700000Y-90700000D03*
%TO.N,Net-(J2-CC2)*%
X110200000Y-48600000D03*
X110200000Y-53000000D03*
X110100000Y-65700003D03*
X107900000Y-65700000D03*
%TO.N,Net-(J2-CC1)*%
X113100000Y-48800000D03*
X107900000Y-64600000D03*
X110100000Y-64600000D03*
X112200000Y-53200000D03*
%TD*%
D78*
%TO.N,+24V*%
X106875000Y-97475000D02*
X108900000Y-99500000D01*
X106875000Y-94525000D02*
X106875000Y-97475000D01*
X108300000Y-93100000D02*
X106875000Y-94525000D01*
X114150000Y-92600000D02*
X113329900Y-92600000D01*
D79*
X123200000Y-66300000D02*
X122100000Y-65200000D01*
D78*
X112225000Y-97775000D02*
X113700000Y-99250000D01*
D79*
X123400000Y-54800000D02*
X123500000Y-54900000D01*
X122250000Y-54800000D02*
X123400000Y-54800000D01*
X122500000Y-59200000D02*
X123500000Y-58200000D01*
X122500000Y-61284365D02*
X122500000Y-59200000D01*
X123500000Y-58200000D02*
X123500000Y-54900000D01*
X122100000Y-61684365D02*
X122500000Y-61284365D01*
X124800000Y-49877500D02*
X123305000Y-48382500D01*
D78*
X136350000Y-71000000D02*
X134395000Y-71000000D01*
X125500000Y-72520910D02*
X125355976Y-72376886D01*
D79*
X123305000Y-48505000D02*
X123305000Y-48382500D01*
D78*
X134395000Y-71000000D02*
X133775000Y-70380000D01*
D79*
X123500000Y-52900000D02*
X124800000Y-51600000D01*
D78*
X124526996Y-76400000D02*
X125500000Y-76400000D01*
D79*
X122100000Y-65200000D02*
X122100000Y-61684365D01*
D78*
X113329900Y-92600000D02*
X112225000Y-93704900D01*
D79*
X123500000Y-54900000D02*
X123500000Y-52900000D01*
D78*
X112225000Y-93704900D02*
X112225000Y-97775000D01*
X123450000Y-77476996D02*
X124526996Y-76400000D01*
X125500000Y-76400000D02*
X125500000Y-72520910D01*
X123450000Y-78500000D02*
X123450000Y-77476996D01*
X124979090Y-72000000D02*
X125355976Y-72376886D01*
D79*
X124800000Y-51600000D02*
X124800000Y-49877500D01*
D80*
%TO.N,GND*%
X155940000Y-67610000D02*
X155300000Y-68250000D01*
D78*
X172000000Y-67600000D02*
X172200000Y-67800000D01*
X164050000Y-46500000D02*
X162910000Y-45360000D01*
X165145000Y-71230000D02*
X165875000Y-70500000D01*
D79*
X112975000Y-85895000D02*
X112582301Y-85895000D01*
D78*
X197560617Y-52307426D02*
X197297151Y-52307426D01*
X164425000Y-75040000D02*
X162840000Y-75040000D01*
X165450000Y-78850000D02*
X166200000Y-79600000D01*
X164425000Y-71230000D02*
X165145000Y-71230000D01*
D81*
X140950000Y-68450000D02*
X141000000Y-68500000D01*
X117500000Y-70500000D02*
X118100000Y-70500000D01*
D78*
X173000000Y-44950000D02*
X172250000Y-44950000D01*
X129390000Y-59150000D02*
X130440000Y-59150000D01*
X129845000Y-53495000D02*
X128290000Y-55050000D01*
X137100000Y-77800000D02*
X136400000Y-78500000D01*
X169375000Y-76310000D02*
X170690000Y-76310000D01*
X178800000Y-63900000D02*
X177963643Y-63900000D01*
X193909010Y-59500000D02*
X194140812Y-59268198D01*
D82*
X131000000Y-78400000D02*
X130400000Y-79000000D01*
D79*
X113500000Y-85370000D02*
X112975000Y-85895000D01*
D81*
X121500000Y-72300000D02*
X120200000Y-72300000D01*
D79*
X108882379Y-53882379D02*
X107600000Y-52600000D01*
D81*
X130700000Y-73300000D02*
X131200000Y-73800000D01*
D78*
X126500000Y-78300000D02*
X125800000Y-79000000D01*
X196125000Y-52725260D02*
X196125000Y-53187500D01*
X144100000Y-46200000D02*
X144080000Y-46180000D01*
X107400000Y-82300000D02*
X108600000Y-81100000D01*
X196125000Y-53187500D02*
X196100000Y-53212500D01*
X188200000Y-64100000D02*
X188000000Y-63900000D01*
X136412500Y-75500000D02*
X137100000Y-76187500D01*
D83*
X156840000Y-45600000D02*
X157080000Y-45360000D01*
D79*
X113046124Y-85370000D02*
X112585252Y-84909128D01*
D78*
X136800000Y-63300000D02*
X135700000Y-62200000D01*
X121100000Y-62200000D02*
X121100000Y-60600000D01*
D80*
X108305000Y-50445000D02*
X107390000Y-49530000D01*
D78*
X130440000Y-59150000D02*
X130490000Y-59200000D01*
X169375000Y-72500000D02*
X170600000Y-72500000D01*
X200700000Y-58100000D02*
X200500000Y-57900000D01*
D79*
X113700000Y-95500000D02*
X113700000Y-94950000D01*
D78*
X170140000Y-49460000D02*
X170800000Y-48800000D01*
X175575000Y-70450000D02*
X173250000Y-70450000D01*
X185150000Y-66011592D02*
X187261592Y-63900000D01*
X196100000Y-53212500D02*
X196100000Y-54400000D01*
D81*
X120200000Y-72300000D02*
X119900000Y-72600000D01*
D78*
X192905000Y-50445000D02*
X191990000Y-49530000D01*
D83*
X147300000Y-65300000D02*
X147700000Y-64900000D01*
D78*
X137075000Y-73150000D02*
X136425000Y-72500000D01*
D79*
X113200000Y-97100000D02*
X113200000Y-96000000D01*
D78*
X131900000Y-63900000D02*
X131900000Y-63300000D01*
D80*
X155940000Y-66900000D02*
X155940000Y-67610000D01*
D78*
X136800000Y-63350000D02*
X136800000Y-63300000D01*
X201300000Y-58100000D02*
X200700000Y-58100000D01*
D81*
X124940000Y-60400000D02*
X127240000Y-60400000D01*
D78*
X189400000Y-64100000D02*
X188200000Y-64100000D01*
X143300000Y-46180000D02*
X142480000Y-45360000D01*
X193060000Y-50445000D02*
X192905000Y-50445000D01*
D84*
X123700000Y-64200000D02*
X124100000Y-64200000D01*
D78*
X142480000Y-45360000D02*
X141000000Y-45360000D01*
X162910000Y-45360000D02*
X158500000Y-45360000D01*
X173250000Y-70450000D02*
X173100000Y-70300000D01*
D79*
X113500000Y-85370000D02*
X113046124Y-85370000D01*
D81*
X114200000Y-68900000D02*
X113000000Y-70100000D01*
D78*
X191900000Y-59500000D02*
X193909010Y-59500000D01*
D79*
X128840000Y-45500000D02*
X130830000Y-45500000D01*
D78*
X121100000Y-60600000D02*
X121300000Y-60400000D01*
X200500000Y-55065981D02*
X200500000Y-54300000D01*
X200500000Y-55065981D02*
X201300000Y-55065981D01*
X137100000Y-76187500D02*
X137100000Y-77800000D01*
X170690000Y-76310000D02*
X171200000Y-75800000D01*
D81*
X118100000Y-70500000D02*
X119700000Y-68900000D01*
D78*
X187261592Y-63900000D02*
X188000000Y-63900000D01*
D81*
X115350000Y-52800000D02*
X115350000Y-50635000D01*
D78*
X194140812Y-59268198D02*
X194531802Y-59268198D01*
X162840000Y-75040000D02*
X162700000Y-74900000D01*
D81*
X130700000Y-68800000D02*
X130700000Y-73300000D01*
D83*
X147700000Y-64900000D02*
X150500000Y-64900000D01*
D78*
X154275000Y-80100000D02*
X154275000Y-80775000D01*
D83*
X156300000Y-45600000D02*
X156840000Y-45600000D01*
D78*
X196100000Y-54400000D02*
X195350000Y-55150000D01*
X195000000Y-58800000D02*
X195100000Y-58800000D01*
X199715000Y-50445000D02*
X200630000Y-49530000D01*
X136400000Y-78500000D02*
X134275000Y-78500000D01*
X200500000Y-54300000D02*
X200448354Y-54248354D01*
X126500000Y-77300000D02*
X126500000Y-78300000D01*
D81*
X144040000Y-61840000D02*
X144040000Y-63120000D01*
D79*
X130830000Y-45500000D02*
X138790000Y-45500000D01*
D81*
X144000000Y-61800000D02*
X144040000Y-61840000D01*
D78*
X131650000Y-61950000D02*
X131100000Y-62500000D01*
D81*
X140950000Y-66600000D02*
X140950000Y-68450000D01*
D78*
X199560000Y-50445000D02*
X199715000Y-50445000D01*
D80*
X108460000Y-50445000D02*
X108305000Y-50445000D01*
D78*
X131900000Y-63300000D02*
X131100000Y-62500000D01*
X154275000Y-80775000D02*
X154800000Y-81300000D01*
X150750000Y-79150000D02*
X150200000Y-78600000D01*
X148650000Y-77200000D02*
X148650000Y-78600000D01*
X172250000Y-44950000D02*
X172200000Y-44900000D01*
X144080000Y-46180000D02*
X143300000Y-46180000D01*
D79*
X121300000Y-59100000D02*
X121400000Y-59000000D01*
D78*
X131615000Y-53495000D02*
X129845000Y-53495000D01*
D83*
X157080000Y-45360000D02*
X158500000Y-45360000D01*
D79*
X113200000Y-96000000D02*
X113700000Y-95500000D01*
D78*
X196664965Y-52185295D02*
X196125000Y-52725260D01*
D81*
X115350000Y-50635000D02*
X115160000Y-50445000D01*
D79*
X108882379Y-55200000D02*
X108882379Y-53882379D01*
D78*
X177963643Y-63900000D02*
X177131821Y-63068178D01*
X152000000Y-79150000D02*
X150750000Y-79150000D01*
X136412500Y-75500000D02*
X137075000Y-74837500D01*
X164425000Y-78850000D02*
X165450000Y-78850000D01*
X171150000Y-67600000D02*
X172000000Y-67600000D01*
D79*
X107400000Y-45400000D02*
X107400000Y-49580000D01*
D84*
X124100000Y-64200000D02*
X124200000Y-64300000D01*
D79*
X113500000Y-84250000D02*
X113500000Y-85370000D01*
X116040000Y-45400000D02*
X116040000Y-49580000D01*
D78*
X137075000Y-74837500D02*
X137075000Y-73150000D01*
X132825000Y-61950000D02*
X131650000Y-61950000D01*
D82*
X130400000Y-79000000D02*
X125800000Y-79000000D01*
D81*
X113000000Y-70100000D02*
X113000000Y-71500000D01*
D80*
X115115000Y-50445000D02*
X116030000Y-49530000D01*
D78*
X185150000Y-66500000D02*
X185150000Y-66011592D01*
X194531802Y-59268198D02*
X195000000Y-58800000D01*
X134275000Y-78500000D02*
X133775000Y-78000000D01*
X128290000Y-55050000D02*
X128290000Y-56000000D01*
D84*
X124200000Y-64300000D02*
X127900000Y-64300000D01*
D79*
X121300000Y-60400000D02*
X121300000Y-59100000D01*
D78*
X170600000Y-72500000D02*
X171200000Y-71900000D01*
X107400000Y-82400000D02*
X107400000Y-82300000D01*
X197297151Y-52307426D02*
X197175020Y-52185295D01*
D80*
X114960000Y-50445000D02*
X115115000Y-50445000D01*
D78*
X197175020Y-52185295D02*
X196664965Y-52185295D01*
D81*
%TO.N,Net-(D2-K)*%
X114600000Y-74700000D02*
X115500000Y-74700000D01*
X115500000Y-74700000D02*
X115700000Y-74500000D01*
X112500000Y-79300000D02*
X112700000Y-79300000D01*
X115700000Y-74500000D02*
X117500000Y-74500000D01*
D78*
X110500000Y-81300000D02*
X112500000Y-79300000D01*
D81*
X114675000Y-86376238D02*
X114675000Y-81475000D01*
X114600000Y-77200000D02*
X114600000Y-74700000D01*
X112500000Y-79300000D02*
X114600000Y-77200000D01*
X113886238Y-87165000D02*
X114675000Y-86376238D01*
X112975000Y-87165000D02*
X113886238Y-87165000D01*
X114675000Y-81475000D02*
X112500000Y-79300000D01*
D78*
X110500000Y-82500000D02*
X110500000Y-81300000D01*
D81*
%TO.N,+5V*%
X141400000Y-70300000D02*
X142100000Y-71000000D01*
X121500000Y-70400000D02*
X122600000Y-69300000D01*
D78*
X160325000Y-71543299D02*
X159186701Y-70405000D01*
X172500000Y-77975000D02*
X172600000Y-78075000D01*
D79*
X109000000Y-62500000D02*
X112100000Y-59400000D01*
D85*
X109260000Y-50445000D02*
X109260000Y-51570000D01*
D81*
X142100000Y-71000000D02*
X142100000Y-72100000D01*
X108500000Y-70100000D02*
X110900000Y-67700000D01*
D79*
X115300000Y-54500000D02*
X112082379Y-54500000D01*
D78*
X118200000Y-66150000D02*
X118200000Y-67700000D01*
D79*
X109000000Y-69600000D02*
X108500000Y-70100000D01*
D81*
X132478858Y-67778858D02*
X131700000Y-67000000D01*
D79*
X113800000Y-53000000D02*
X113800000Y-52800000D01*
D78*
X169375000Y-71230000D02*
X170270000Y-71230000D01*
D79*
X132572919Y-72920000D02*
X133775000Y-72920000D01*
D78*
X115300000Y-66150000D02*
X115300000Y-67700000D01*
D81*
X132478858Y-68200000D02*
X132478858Y-67778858D01*
D79*
X112082379Y-54500000D02*
X111382379Y-55200000D01*
D81*
X141400000Y-69700000D02*
X141400000Y-70300000D01*
D78*
X169600000Y-67600000D02*
X168500000Y-67600000D01*
X147545100Y-73325000D02*
X143525000Y-73325000D01*
D81*
X115300000Y-67700000D02*
X118200000Y-67700000D01*
D79*
X132325000Y-71830000D02*
X132400000Y-71830000D01*
X112100000Y-59400000D02*
X114400000Y-59400000D01*
D78*
X170270000Y-71230000D02*
X171100000Y-70400000D01*
X172500000Y-80700000D02*
X164401701Y-80700000D01*
D86*
X114160000Y-51570000D02*
X114160000Y-50445000D01*
D81*
X121500000Y-67700000D02*
X123100000Y-69300000D01*
D78*
X134855000Y-74000000D02*
X133775000Y-72920000D01*
D79*
X132400000Y-68930000D02*
X132325000Y-68930000D01*
D81*
X125650000Y-69250000D02*
X126100000Y-68800000D01*
D78*
X159186701Y-70405000D02*
X148105000Y-70405000D01*
D86*
X114085000Y-51645000D02*
X114160000Y-51570000D01*
D81*
X110900000Y-67700000D02*
X115300000Y-67700000D01*
X136100000Y-68200000D02*
X136100000Y-69700000D01*
X127679720Y-67000000D02*
X126100000Y-68579720D01*
D85*
X114160000Y-50445000D02*
X114160000Y-52440000D01*
D78*
X160325000Y-76623299D02*
X160325000Y-71543299D01*
D79*
X132400000Y-68278858D02*
X132400000Y-68930000D01*
D81*
X131700000Y-67000000D02*
X127679720Y-67000000D01*
D78*
X119900000Y-66200000D02*
X119900000Y-67700000D01*
X143525000Y-73325000D02*
X142300000Y-72100000D01*
D81*
X118200000Y-67700000D02*
X119900000Y-67700000D01*
D78*
X169500000Y-70000000D02*
X169500000Y-71105000D01*
X148100000Y-70400000D02*
X148100000Y-72770100D01*
X136350000Y-74000000D02*
X134855000Y-74000000D01*
D81*
X122600000Y-69300000D02*
X123100000Y-69300000D01*
D79*
X132400000Y-71830000D02*
X132400000Y-72747081D01*
D81*
X119900000Y-67700000D02*
X121500000Y-67700000D01*
D79*
X115300000Y-54500000D02*
X113800000Y-53000000D01*
D78*
X172500000Y-74100000D02*
X172500000Y-77975000D01*
D86*
X109260000Y-51570000D02*
X109335000Y-51645000D01*
D79*
X132400000Y-72747081D02*
X132572919Y-72920000D01*
D86*
X109335000Y-51645000D02*
X114085000Y-51645000D01*
D85*
X114160000Y-52440000D02*
X113800000Y-52800000D01*
D81*
X132478858Y-68200000D02*
X136100000Y-68200000D01*
X126100000Y-68579720D02*
X126100000Y-68800000D01*
D78*
X148100000Y-72770100D02*
X147545100Y-73325000D01*
X164401701Y-80700000D02*
X160325000Y-76623299D01*
D79*
X132325000Y-68930000D02*
X132325000Y-71830000D01*
X132478858Y-68200000D02*
X132400000Y-68278858D01*
D81*
X126100000Y-68800000D02*
X125600000Y-69300000D01*
D78*
X169500000Y-71105000D02*
X169375000Y-71230000D01*
D79*
X109000000Y-62500000D02*
X109000000Y-69600000D01*
D81*
X123100000Y-69300000D02*
X125600000Y-69300000D01*
X136100000Y-69700000D02*
X141400000Y-69700000D01*
D78*
X148105000Y-70405000D02*
X148100000Y-70400000D01*
D81*
%TO.N,/Power System/V5V_BUCK*%
X112500000Y-76500000D02*
X112500000Y-74950000D01*
X108500000Y-74100000D02*
X110100000Y-74100000D01*
X112500000Y-74950000D02*
X113000000Y-74450000D01*
D78*
X107500000Y-77650000D02*
X107500000Y-75100000D01*
D81*
X110100000Y-74100000D02*
X112500000Y-76500000D01*
D78*
X107500000Y-75100000D02*
X108500000Y-74100000D01*
%TO.N,Net-(U1-BS)*%
X110472960Y-88177959D02*
X112000001Y-89705000D01*
X110500000Y-84050000D02*
X110472960Y-84077040D01*
X112000001Y-89705000D02*
X112975000Y-89705000D01*
X110472960Y-84077040D02*
X110472960Y-88177959D01*
%TO.N,+3V3*%
X168890000Y-47510000D02*
X168337236Y-47510000D01*
D81*
X133415000Y-75100000D02*
X133775000Y-75460000D01*
D78*
X191600000Y-70700000D02*
X193500000Y-70700000D01*
X152987500Y-79150000D02*
X152987500Y-80450908D01*
D81*
X123900000Y-62000000D02*
X123740000Y-61840000D01*
D78*
X132400000Y-79400000D02*
X132400000Y-76835000D01*
X192172387Y-53900000D02*
X193412500Y-53900000D01*
X169806767Y-46327411D02*
X170700175Y-46327411D01*
X191600000Y-76100000D02*
X190800000Y-76100000D01*
D81*
X139740000Y-46850000D02*
X139960000Y-46630000D01*
D78*
X141345000Y-46975000D02*
X146725000Y-46975000D01*
X191236193Y-54436193D02*
X190284887Y-55387500D01*
D81*
X123740000Y-61840000D02*
X123740000Y-59902944D01*
D78*
X135315000Y-77000000D02*
X133775000Y-75460000D01*
X193500000Y-70700000D02*
X194100000Y-70100000D01*
D81*
X127290000Y-47800000D02*
X133190000Y-47800000D01*
D78*
X172090000Y-51074827D02*
X172189998Y-51174825D01*
X190800000Y-76100000D02*
X190000000Y-75300000D01*
X161100000Y-73650000D02*
X161100000Y-76000000D01*
X171600000Y-55400000D02*
X171853324Y-55400000D01*
X170272589Y-46500000D02*
X173000000Y-46500000D01*
D81*
X128400000Y-69200000D02*
X126100000Y-71500000D01*
D78*
X153600000Y-74500000D02*
X155198008Y-76098008D01*
X194100000Y-53212500D02*
X194600000Y-53212500D01*
D81*
X123740000Y-59902944D02*
X124642944Y-59000000D01*
D80*
X139350000Y-65250000D02*
X141950000Y-65250000D01*
D78*
X154275000Y-79150000D02*
X152987500Y-79150000D01*
X176600000Y-71961592D02*
X176600000Y-71961396D01*
D79*
X127290000Y-45500000D02*
X127290000Y-47800000D01*
D78*
X153900000Y-45600000D02*
X155000000Y-44500000D01*
X182982500Y-55387500D02*
X190284887Y-55387500D01*
X128920000Y-52870000D02*
X132660000Y-52870000D01*
X132400000Y-76835000D02*
X133775000Y-75460000D01*
D81*
X128400000Y-68800000D02*
X128400000Y-75100000D01*
D78*
X194657500Y-73500000D02*
X196400000Y-73500000D01*
D80*
X143200000Y-66500000D02*
X144300000Y-67600000D01*
D78*
X171853324Y-55400000D02*
X178253324Y-61800000D01*
D81*
X137400000Y-68300000D02*
X138000000Y-67700000D01*
D78*
X178253324Y-61800000D02*
X180400000Y-61800000D01*
X176637500Y-73412500D02*
X176637500Y-71999092D01*
X196400000Y-73500000D02*
X196600000Y-73300000D01*
X163540000Y-81500000D02*
X158700000Y-76660000D01*
X194657500Y-78500000D02*
X193902500Y-78500000D01*
D81*
X133190000Y-47800000D02*
X134190000Y-46800000D01*
D79*
X127340000Y-47850000D02*
X127290000Y-47800000D01*
D78*
X172090000Y-50710000D02*
X172090000Y-51074827D01*
X152713408Y-80725000D02*
X150925000Y-80725000D01*
D81*
X139960000Y-46630000D02*
X141000000Y-46630000D01*
D78*
X175950000Y-74100000D02*
X176637500Y-73412500D01*
X146725000Y-46975000D02*
X147500000Y-46200000D01*
X174200000Y-80700000D02*
X173400000Y-81500000D01*
X178686396Y-69875000D02*
X190775000Y-69875000D01*
X171300000Y-57800000D02*
X171863642Y-57800000D01*
D81*
X128400000Y-68800000D02*
X128400000Y-69200000D01*
X134190000Y-46800000D02*
X134240000Y-46850000D01*
D78*
X163600000Y-63400000D02*
X170000000Y-63400000D01*
X172189998Y-51174825D02*
X172080000Y-51284823D01*
X131615000Y-57305000D02*
X130495000Y-58425000D01*
D79*
X127340000Y-50100000D02*
X127340000Y-47850000D01*
D78*
X132660000Y-52870000D02*
X132915000Y-53125000D01*
X168337236Y-47510000D02*
X167567236Y-46740000D01*
X153600000Y-73900000D02*
X153600000Y-74500000D01*
X162975000Y-47775000D02*
X162975000Y-48100000D01*
X172080000Y-54920000D02*
X171600000Y-55400000D01*
X155000000Y-44500000D02*
X164700000Y-44500000D01*
X152987500Y-80450908D02*
X152713408Y-80725000D01*
X180350000Y-63900000D02*
X181128428Y-63900000D01*
D81*
X126090000Y-51350000D02*
X127340000Y-50100000D01*
D78*
X181128428Y-63900000D02*
X181780178Y-63248250D01*
X149425000Y-77975000D02*
X149425000Y-79225000D01*
X173125000Y-46625000D02*
X173000000Y-46500000D01*
X161800000Y-47500000D02*
X162700000Y-47500000D01*
X170700175Y-46327411D02*
X171390000Y-47017236D01*
D81*
X124642944Y-59000000D02*
X124642944Y-53447056D01*
D78*
X193902500Y-78500000D02*
X192700000Y-79702500D01*
X174750000Y-75300000D02*
X174000000Y-75300000D01*
X170100000Y-46327411D02*
X170272589Y-46500000D01*
X171863642Y-57800000D02*
X172431821Y-58368179D01*
X175950000Y-74100000D02*
X174750000Y-75300000D01*
X128490000Y-58800000D02*
X126840000Y-58800000D01*
X174000000Y-77441459D02*
X174127619Y-77569078D01*
X171390000Y-47017236D02*
X171390000Y-47510000D01*
X132589999Y-57305000D02*
X131615000Y-57305000D01*
X162700000Y-47500000D02*
X162975000Y-47775000D01*
D81*
X134240000Y-46850000D02*
X139740000Y-46850000D01*
D78*
X172080000Y-51284823D02*
X172080000Y-54920000D01*
X156210000Y-79150000D02*
X158700000Y-76660000D01*
X192700000Y-79702500D02*
X192700000Y-80200000D01*
X150925000Y-80725000D02*
X149600000Y-79400000D01*
X149425000Y-79225000D02*
X149600000Y-79400000D01*
X191972387Y-53700000D02*
X191236193Y-54436193D01*
X181660000Y-56710000D02*
X182982500Y-55387500D01*
X191972387Y-53700000D02*
X192172387Y-53900000D01*
D80*
X138000000Y-66600000D02*
X139350000Y-65250000D01*
D78*
X170000000Y-63400000D02*
X170000000Y-60800000D01*
X173125000Y-47435000D02*
X173125000Y-46625000D01*
X149600000Y-79400000D02*
X132400000Y-79400000D01*
X191236193Y-56936193D02*
X191236193Y-54436193D01*
D80*
X144300000Y-67600000D02*
X150160000Y-67600000D01*
D78*
X132915000Y-53125000D02*
X132915000Y-56979999D01*
X161600000Y-73150000D02*
X161100000Y-73650000D01*
X132915000Y-56979999D02*
X132589999Y-57305000D01*
X150200000Y-77200000D02*
X149425000Y-77975000D01*
D80*
X150160000Y-67600000D02*
X150860000Y-66900000D01*
D78*
X170000000Y-60800000D02*
X172431821Y-58368179D01*
X136375000Y-77000000D02*
X135315000Y-77000000D01*
X128865000Y-58425000D02*
X128490000Y-58800000D01*
X169806767Y-46327411D02*
X170100000Y-46327411D01*
X128290000Y-53500000D02*
X128920000Y-52870000D01*
X174000000Y-75300000D02*
X174000000Y-77441459D01*
D81*
X124642944Y-53447056D02*
X126090000Y-52000000D01*
D78*
X191900000Y-57600000D02*
X191236193Y-56936193D01*
X130495000Y-58425000D02*
X128865000Y-58425000D01*
D81*
X138000000Y-67700000D02*
X138000000Y-66600000D01*
D78*
X164700000Y-44500000D02*
X165000000Y-44800000D01*
X176600000Y-71961396D02*
X178686396Y-69875000D01*
D80*
X141950000Y-65250000D02*
X143200000Y-66500000D01*
D78*
X154275000Y-79150000D02*
X156210000Y-79150000D01*
X173400000Y-81500000D02*
X163540000Y-81500000D01*
X176637500Y-71999092D02*
X176600000Y-71961592D01*
D81*
X128400000Y-75100000D02*
X133415000Y-75100000D01*
D78*
X141000000Y-46630000D02*
X141345000Y-46975000D01*
X190775000Y-69875000D02*
X191600000Y-70700000D01*
D81*
X126090000Y-52000000D02*
X126090000Y-51350000D01*
D78*
X193412500Y-53900000D02*
X194100000Y-53212500D01*
X126840000Y-58800000D02*
X126490000Y-59150000D01*
%TO.N,VBUS*%
X192367282Y-54716299D02*
X192350000Y-54699017D01*
D85*
X198934999Y-51703244D02*
X198760000Y-51528245D01*
X146300000Y-69700000D02*
X158800000Y-69700000D01*
X199187127Y-51703244D02*
X198934999Y-51703244D01*
X193860000Y-51670000D02*
X193830000Y-51700000D01*
X199303885Y-51820002D02*
X199187127Y-51703244D01*
X192200000Y-68800000D02*
X167900000Y-68800000D01*
X191934404Y-63742801D02*
X192200000Y-64008397D01*
D78*
X192550507Y-54400000D02*
X193412500Y-54400000D01*
D85*
X192200000Y-64008397D02*
X192200000Y-68800000D01*
X198760000Y-51528245D02*
X198760000Y-50445000D01*
X158800000Y-69700000D02*
X159300000Y-69200000D01*
X199600000Y-51820002D02*
X199303885Y-51820002D01*
D78*
X192350000Y-54699017D02*
X192350000Y-54600507D01*
D85*
X193860000Y-50445000D02*
X193860000Y-51670000D01*
D78*
X192367282Y-55452138D02*
X192367282Y-54716299D01*
D85*
X193830000Y-51700000D02*
X192100000Y-51700000D01*
X191934404Y-62334404D02*
X191934404Y-63742801D01*
D78*
X192200000Y-55619420D02*
X192367282Y-55452138D01*
D85*
X146300000Y-72100000D02*
X146300000Y-69700000D01*
D78*
X192350000Y-54600507D02*
X192550507Y-54400000D01*
%TO.N,ESP32_EN*%
X162871016Y-64175000D02*
X160298008Y-61601992D01*
D79*
X128990000Y-50100000D02*
X130730000Y-50100000D01*
D78*
X141580000Y-47900000D02*
X141000000Y-47900000D01*
X153425000Y-57700000D02*
X149477881Y-57700000D01*
D79*
X140780000Y-48120000D02*
X139650000Y-48120000D01*
D78*
X171525000Y-64175000D02*
X162871016Y-64175000D01*
X186700000Y-65875000D02*
X187525000Y-65050000D01*
X144892350Y-52192350D02*
X144892350Y-51212350D01*
X149477881Y-57700000D02*
X147677880Y-55899999D01*
D79*
X138790000Y-48980000D02*
X138790000Y-50000000D01*
D78*
X156100000Y-61700000D02*
X156100000Y-59125000D01*
X185900000Y-67300000D02*
X174650000Y-67300000D01*
D79*
X139650000Y-48120000D02*
X138790000Y-48980000D01*
X141000000Y-47900000D02*
X140780000Y-48120000D01*
D78*
X174650000Y-67300000D02*
X171525000Y-64175000D01*
X156100000Y-59125000D02*
X154975000Y-58000000D01*
X186700000Y-66500000D02*
X185900000Y-67300000D01*
X186700000Y-66500000D02*
X186700000Y-65875000D01*
X144892350Y-51212350D02*
X141580000Y-47900000D01*
D79*
X130730000Y-50100000D02*
X130830000Y-50000000D01*
X138790000Y-50000000D02*
X130830000Y-50000000D01*
%TO.N,Net-(D10-A)*%
X118950000Y-54800000D02*
X118950000Y-48927500D01*
X118950000Y-54800000D02*
X118950000Y-57125000D01*
X118950000Y-57125000D02*
X120350000Y-58525000D01*
X118950000Y-48927500D02*
X119495000Y-48382500D01*
D78*
%TO.N,/MCU and Communications/USB_DM*%
X196031230Y-48875000D02*
X195800000Y-49106230D01*
X195134799Y-53177701D02*
X195100000Y-53212500D01*
X195800000Y-49106230D02*
X195800000Y-49110000D01*
X194900000Y-51900000D02*
X195134799Y-52134799D01*
X195134799Y-52134799D02*
X195134799Y-53177701D01*
X195800000Y-49110000D02*
X196085000Y-49395000D01*
X196060000Y-49420000D02*
X196060000Y-50445000D01*
X197035000Y-49395000D02*
X196085000Y-49395000D01*
X196085000Y-49395000D02*
X196060000Y-49420000D01*
X197060000Y-49420000D02*
X197035000Y-49395000D01*
X197060000Y-50445000D02*
X197060000Y-49420000D01*
%TO.N,I2C_SDA*%
X157180000Y-75295000D02*
X159186701Y-75295000D01*
X161600000Y-71400000D02*
X160700000Y-70500000D01*
X142913604Y-56050000D02*
X146121022Y-56050000D01*
X161600000Y-71500000D02*
X161600000Y-71400000D01*
X154275000Y-76578984D02*
X154275000Y-78200000D01*
X141000000Y-55520000D02*
X142383604Y-55520000D01*
X146575006Y-61775006D02*
X146600000Y-61800000D01*
X146121022Y-56050000D02*
X146575006Y-56503984D01*
X148100000Y-61719998D02*
X148100000Y-61650000D01*
X148875000Y-71180000D02*
X148876016Y-71180000D01*
X146600000Y-61800000D02*
X148019998Y-61800000D01*
X142383604Y-55520000D02*
X142913604Y-56050000D01*
X154275000Y-78200000D02*
X157180000Y-75295000D01*
X146575006Y-56503984D02*
X146575006Y-61775006D01*
X148876016Y-71180000D02*
X154275000Y-76578984D01*
X159875000Y-74606701D02*
X159875000Y-72755000D01*
X148019998Y-61800000D02*
X148100000Y-61719998D01*
X159186701Y-75295000D02*
X159875000Y-74606701D01*
X159875000Y-72755000D02*
X158700000Y-71580000D01*
%TO.N,I2C_SCL*%
X141000000Y-54250000D02*
X141750000Y-54250000D01*
X143100000Y-55600000D02*
X146307418Y-55600000D01*
X154210000Y-72250000D02*
X156080000Y-74120000D01*
X149975003Y-71180000D02*
X155760000Y-71180000D01*
X152000000Y-75800000D02*
X152200000Y-75600000D01*
X153600000Y-72250000D02*
X154210000Y-72250000D01*
X147025006Y-61350000D02*
X147430008Y-60944998D01*
X148444998Y-60944998D02*
X149200000Y-61700000D01*
X156080000Y-74120000D02*
X158700000Y-74120000D01*
X141750000Y-54250000D02*
X143100000Y-55600000D01*
X146307418Y-55600000D02*
X147025006Y-56317588D01*
X152000000Y-78200000D02*
X152000000Y-75800000D01*
X155760000Y-71180000D02*
X158700000Y-74120000D01*
X147430008Y-60944998D02*
X148444998Y-60944998D01*
X147025006Y-56317588D02*
X147025006Y-61350000D01*
%TO.N,/MCU and Communications/USB_DP*%
X195667500Y-51571484D02*
X195667500Y-51432500D01*
X196535000Y-51495000D02*
X195730000Y-51495000D01*
X195560000Y-51325000D02*
X195560000Y-50445000D01*
X196560000Y-51470000D02*
X196535000Y-51495000D01*
X195730000Y-51495000D02*
X195560000Y-51325000D01*
X195667500Y-52228516D02*
X195675000Y-52221016D01*
X195667500Y-51432500D02*
X195730000Y-51495000D01*
X196560000Y-50445000D02*
X196560000Y-51470000D01*
X195675000Y-51578984D02*
X195667500Y-51571484D01*
X195600000Y-52750260D02*
X195667500Y-52682760D01*
X195600000Y-53212500D02*
X195600000Y-52750260D01*
X195675000Y-52221016D02*
X195675000Y-51578984D01*
X195667500Y-52682760D02*
X195667500Y-52228516D01*
%TO.N,/MCU and Communications/USB_CC2*%
X194570000Y-49200000D02*
X194570000Y-50435000D01*
X201455000Y-48638274D02*
X199841726Y-47025000D01*
X194570000Y-50435000D02*
X194560000Y-50445000D01*
X199841726Y-47025000D02*
X196745000Y-47025000D01*
X201300000Y-53415981D02*
X201455000Y-53260981D01*
X196745000Y-47025000D02*
X194570000Y-49200000D01*
X201455000Y-53260981D02*
X201455000Y-48638274D01*
%TO.N,/MCU and Communications/USB_CC1*%
X197585000Y-51495000D02*
X197585000Y-50985000D01*
X198676115Y-52328244D02*
X198135000Y-51787128D01*
X199673354Y-53126646D02*
X199700000Y-53100000D01*
X199700000Y-53100000D02*
X198928244Y-52328244D01*
X201300000Y-56450000D02*
X200825000Y-56450000D01*
X197560000Y-50960000D02*
X197560000Y-50445000D01*
X197585000Y-50985000D02*
X197560000Y-50960000D01*
X198135000Y-51787128D02*
X198135000Y-51495000D01*
X199673354Y-55298354D02*
X199673354Y-53126646D01*
X200825000Y-56450000D02*
X199673354Y-55298354D01*
X198928244Y-52328244D02*
X198676115Y-52328244D01*
X198135000Y-51495000D02*
X197585000Y-51495000D01*
%TO.N,Net-(D5-K)*%
X138000000Y-71000000D02*
X138000000Y-72500000D01*
D79*
%TO.N,/Power System/+24V_CTRL*%
X111575000Y-83072960D02*
X111575000Y-82625000D01*
X111575000Y-84622960D02*
X111575000Y-83477040D01*
X112000001Y-88435000D02*
X111197960Y-87632959D01*
X111197960Y-87632959D02*
X111197960Y-85000000D01*
X117200000Y-77675000D02*
X117200000Y-81100000D01*
X113025000Y-82700000D02*
X113500000Y-82700000D01*
X112825000Y-82500000D02*
X113025000Y-82700000D01*
X117200000Y-81100000D02*
X115775000Y-82525000D01*
X111372960Y-83275000D02*
X111575000Y-83072960D01*
X115775000Y-82525000D02*
X115775000Y-86831872D01*
X112975000Y-88435000D02*
X112000001Y-88435000D01*
X114171872Y-88435000D02*
X112975000Y-88435000D01*
X111575000Y-82625000D02*
X111700000Y-82500000D01*
X111197960Y-85000000D02*
X111575000Y-84622960D01*
X115775000Y-86831872D02*
X114171872Y-88435000D01*
X117250000Y-77625000D02*
X117200000Y-77675000D01*
X111575000Y-83477040D02*
X111372960Y-83275000D01*
X111700000Y-82500000D02*
X112825000Y-82500000D01*
D78*
%TO.N,Net-(D6-K)*%
X138000000Y-75487500D02*
X137987500Y-75500000D01*
X138000000Y-74000000D02*
X138000000Y-75487500D01*
D79*
%TO.N,Net-(Q1-S)*%
X114550000Y-90169816D02*
X114550000Y-89550000D01*
X116775001Y-87246085D02*
X116775000Y-83225000D01*
X114700000Y-89321086D02*
X116775001Y-87246085D01*
X113495000Y-90605000D02*
X114114816Y-90605000D01*
X116775000Y-83225000D02*
X118200000Y-81800000D01*
X111425000Y-92700000D02*
X111425000Y-92675000D01*
X108900000Y-95225000D02*
X111425000Y-92700000D01*
X111425000Y-92675000D02*
X113495000Y-90605000D01*
X114114816Y-90605000D02*
X114550000Y-90169816D01*
X114700000Y-89400000D02*
X114700000Y-89321086D01*
X118200000Y-81800000D02*
X118200000Y-79500000D01*
X114550000Y-89550000D02*
X114700000Y-89400000D01*
D78*
%TO.N,Net-(D7-K)*%
X138025000Y-78450000D02*
X137975000Y-78500000D01*
X138025000Y-77000000D02*
X138025000Y-78450000D01*
%TO.N,ESP_UART_TX*%
X162400000Y-53324445D02*
X162400000Y-50800000D01*
X172100000Y-56300000D02*
X172009659Y-56390341D01*
X180721016Y-62575000D02*
X178375000Y-62575000D01*
X198025000Y-57275000D02*
X195581802Y-59718198D01*
X193800000Y-60600000D02*
X191300000Y-60600000D01*
X161130000Y-50800000D02*
X159500000Y-49170000D01*
X165465896Y-56390341D02*
X162400000Y-53324445D01*
X191300000Y-60600000D02*
X190500000Y-61400000D01*
X194327208Y-59718198D02*
X193800000Y-60245406D01*
X197287500Y-55900000D02*
X197749740Y-55900000D01*
X178375000Y-62575000D02*
X172100000Y-56300000D01*
X172009659Y-56390341D02*
X165465896Y-56390341D01*
X198025000Y-56175260D02*
X198025000Y-57275000D01*
X181896016Y-61400000D02*
X180721016Y-62575000D01*
X162400000Y-50800000D02*
X161130000Y-50800000D01*
X195581802Y-59718198D02*
X194327208Y-59718198D01*
X193800000Y-60245406D02*
X193800000Y-60600000D01*
X190500000Y-61400000D02*
X181896016Y-61400000D01*
X197749740Y-55900000D02*
X198025000Y-56175260D01*
X159500000Y-49170000D02*
X158500000Y-49170000D01*
%TO.N,ESP_UART_RX*%
X165279500Y-56840341D02*
X172000000Y-56840341D01*
X198475000Y-55988864D02*
X197886136Y-55400000D01*
X194250000Y-61050000D02*
X194250000Y-60431802D01*
X178184659Y-63025000D02*
X180907412Y-63025000D01*
X190636396Y-61900000D02*
X191486396Y-61050000D01*
X159590000Y-50440000D02*
X160450000Y-51300000D01*
X161900000Y-51300000D02*
X161900000Y-53460841D01*
X158500000Y-50440000D02*
X159590000Y-50440000D01*
X195768198Y-60168198D02*
X198475000Y-57461396D01*
X194250000Y-60431802D02*
X194513604Y-60168198D01*
X182066206Y-61866206D02*
X182100000Y-61900000D01*
X198475000Y-57461396D02*
X198475000Y-55988864D01*
X194513604Y-60168198D02*
X195768198Y-60168198D01*
X172000000Y-56840341D02*
X178184659Y-63025000D01*
X182100000Y-61900000D02*
X190636396Y-61900000D01*
X180907412Y-63025000D02*
X182066206Y-61866206D01*
X160450000Y-51300000D02*
X161900000Y-51300000D01*
X191486396Y-61050000D02*
X194250000Y-61050000D01*
X161900000Y-53460841D02*
X165279500Y-56840341D01*
X197886136Y-55400000D02*
X197287500Y-55400000D01*
%TO.N,/MCU and Communications/ETH_TXN*%
X172530000Y-51930840D02*
X172530000Y-55440280D01*
X173685000Y-50775840D02*
X172530000Y-51930840D01*
X173119160Y-50210000D02*
X173685000Y-50775840D01*
X172530000Y-55440280D02*
X177864720Y-60775000D01*
X172390000Y-50210000D02*
X173119160Y-50210000D01*
X183955000Y-60775000D02*
X185480000Y-59250000D01*
X177864720Y-60775000D02*
X183955000Y-60775000D01*
%TO.N,/MCU and Communications/ETH_RXP*%
X183125000Y-57785000D02*
X184200000Y-56710000D01*
X177812500Y-48350000D02*
X180585000Y-51122500D01*
X175396573Y-48710000D02*
X175756573Y-48350000D01*
X181214720Y-57785000D02*
X183125000Y-57785000D01*
X180585000Y-57155280D02*
X181214720Y-57785000D01*
X175756573Y-48350000D02*
X177812500Y-48350000D01*
X180585000Y-51122500D02*
X180585000Y-57155280D01*
X172390000Y-48710000D02*
X175396573Y-48710000D01*
%TO.N,/Signal Outputs/SIG_CH3*%
X191600000Y-72000000D02*
X200400000Y-72000000D01*
%TO.N,/Signal Outputs/SIG_CH4*%
X200300000Y-74800000D02*
X200600000Y-75100000D01*
X194657500Y-74800000D02*
X200300000Y-74800000D01*
%TO.N,/MCU and Communications/ETH_RXN*%
X174585000Y-49685000D02*
X174585000Y-51202613D01*
X174585000Y-51202613D02*
X178045000Y-54662613D01*
X180139720Y-59250000D02*
X180400000Y-59250000D01*
X178045000Y-57155280D02*
X180139720Y-59250000D01*
X172390000Y-49210000D02*
X174110000Y-49210000D01*
X174110000Y-49210000D02*
X174585000Y-49685000D01*
X178045000Y-54662613D02*
X178045000Y-57155280D01*
%TO.N,/MCU and Communications/RS485_A*%
X130621016Y-54765000D02*
X127886016Y-57500000D01*
X126490000Y-54450000D02*
X127290000Y-55250000D01*
X127290000Y-56700000D02*
X126490000Y-57500000D01*
X131615000Y-54765000D02*
X130621016Y-54765000D01*
X127290000Y-55250000D02*
X127290000Y-56700000D01*
X127886016Y-57500000D02*
X126490000Y-57500000D01*
%TO.N,RELAY_CTRL*%
X131900000Y-65800000D02*
X131900000Y-65700000D01*
X136800000Y-61300000D02*
X135550000Y-60050000D01*
X131500000Y-61000000D02*
X131875000Y-61000000D01*
X131875000Y-61000000D02*
X132825000Y-60050000D01*
X135539092Y-52870000D02*
X139470000Y-52870000D01*
X144625000Y-55125000D02*
X155835000Y-55125000D01*
X134815000Y-58551396D02*
X134815000Y-53594092D01*
X157500000Y-56790000D02*
X158500000Y-56790000D01*
X136800000Y-61700000D02*
X136800000Y-61300000D01*
X155835000Y-55125000D02*
X157500000Y-56790000D01*
X136800000Y-60536396D02*
X134815000Y-58551396D01*
X136800000Y-61700000D02*
X136800000Y-60536396D01*
X131900000Y-65700000D02*
X132800000Y-64800000D01*
X134815000Y-53594092D02*
X135539092Y-52870000D01*
X139470000Y-52870000D02*
X139500000Y-52900000D01*
X142500000Y-53000000D02*
X144625000Y-55125000D01*
X135550000Y-60050000D02*
X132825000Y-60050000D01*
%TO.N,Net-(U9-RBIAS)*%
X173990000Y-48210000D02*
X174000000Y-48200000D01*
X166250000Y-46324824D02*
X166250000Y-46913604D01*
X173900000Y-45700000D02*
X173875000Y-45725000D01*
X166181802Y-46981802D02*
X165700000Y-46500000D01*
X172090000Y-48210000D02*
X173990000Y-48210000D01*
X170090372Y-45515000D02*
X167059824Y-45515000D01*
X170300372Y-45725000D02*
X170090372Y-45515000D01*
X166250000Y-46913604D02*
X166181802Y-46981802D01*
X174000000Y-48200000D02*
X173900000Y-48100000D01*
X173875000Y-45725000D02*
X170300372Y-45725000D01*
X167059824Y-45515000D02*
X166250000Y-46324824D01*
X173900000Y-48100000D02*
X173900000Y-45700000D01*
%TO.N,Net-(U9-~{RST})*%
X168700000Y-57700000D02*
X169550000Y-57700000D01*
X169890000Y-53318800D02*
X169615000Y-53593800D01*
X169550000Y-57700000D02*
X169650000Y-57800000D01*
X169890000Y-51410000D02*
X169890000Y-53318800D01*
%TO.N,Net-(JP3-A)*%
X188350000Y-71500000D02*
X190150000Y-73300000D01*
X190150000Y-73300000D02*
X191600000Y-73300000D01*
%TO.N,/MCU and Communications/ETH_TXP*%
X172980000Y-54052387D02*
X176269289Y-57341676D01*
X184015000Y-59695280D02*
X184015000Y-58685000D01*
X184015000Y-58685000D02*
X185990000Y-56710000D01*
X172980000Y-52117236D02*
X172980000Y-54052387D01*
X177595000Y-57341676D02*
X179325000Y-59071676D01*
X179954720Y-60325000D02*
X183385280Y-60325000D01*
X174135000Y-49871396D02*
X174135000Y-50962236D01*
X172390000Y-49710000D02*
X173973604Y-49710000D01*
X179325000Y-59071676D02*
X179325000Y-59695280D01*
X179325000Y-59695280D02*
X179954720Y-60325000D01*
X176269289Y-57341676D02*
X177595000Y-57341676D01*
X183385280Y-60325000D02*
X184015000Y-59695280D01*
X173973604Y-49710000D02*
X174135000Y-49871396D01*
X185990000Y-56710000D02*
X186740000Y-56710000D01*
X174135000Y-50962236D02*
X172980000Y-52117236D01*
%TO.N,Net-(U1-FB)*%
X109400000Y-80700000D02*
X109400000Y-84000000D01*
X109400000Y-84000000D02*
X109400000Y-84520000D01*
X109400000Y-84000000D02*
X109350000Y-84050000D01*
X108000000Y-79300000D02*
X109400000Y-80700000D01*
X107500000Y-79300000D02*
X108000000Y-79300000D01*
X109350000Y-84050000D02*
X107400000Y-84050000D01*
X109400000Y-84520000D02*
X108025000Y-85895000D01*
%TO.N,/MCU and Communications/RS485_B*%
X130855000Y-56035000D02*
X129390000Y-57500000D01*
X131615000Y-56035000D02*
X130855000Y-56035000D01*
X128428604Y-58225000D02*
X129153604Y-57500000D01*
X126490000Y-56100000D02*
X125690000Y-56900000D01*
X125690000Y-57923004D02*
X125991996Y-58225000D01*
X125991996Y-58225000D02*
X128428604Y-58225000D01*
X125690000Y-56900000D02*
X125690000Y-57923004D01*
X129153604Y-57500000D02*
X129390000Y-57500000D01*
%TO.N,Net-(JP1-A)*%
X188450000Y-79100000D02*
X190450000Y-81100000D01*
X190450000Y-81100000D02*
X194657500Y-81100000D01*
%TO.N,Net-(JP2-A)*%
X188400000Y-77500000D02*
X189600000Y-78700000D01*
X189600000Y-78700000D02*
X191600000Y-78700000D01*
%TO.N,Net-(JP4-A)*%
X188880000Y-74130000D02*
X191932500Y-74130000D01*
X191932500Y-74130000D02*
X193902500Y-76100000D01*
X188350000Y-73600000D02*
X188880000Y-74130000D01*
X193902500Y-76100000D02*
X194657500Y-76100000D01*
%TO.N,/Signal Outputs/SIG_CH1*%
X199500000Y-79800000D02*
X199700000Y-80000000D01*
X194657500Y-79800000D02*
X199500000Y-79800000D01*
%TO.N,/Signal Outputs/SIG_CH2*%
X200050000Y-77400000D02*
X200150000Y-77500000D01*
X191600000Y-77400000D02*
X200050000Y-77400000D01*
%TO.N,LED_CH4*%
X174300000Y-74100000D02*
X174300000Y-72000000D01*
X168870000Y-73770000D02*
X169375000Y-73770000D01*
X158500000Y-61870000D02*
X159470000Y-61870000D01*
X174300000Y-72000000D02*
X173700000Y-71400000D01*
X159470000Y-61870000D02*
X167100000Y-69500000D01*
X167100000Y-72000000D02*
X168870000Y-73770000D01*
X170983603Y-73770000D02*
X173353603Y-71400000D01*
X167100000Y-69500000D02*
X167100000Y-72000000D01*
X173353603Y-71400000D02*
X173700000Y-71400000D01*
X169375000Y-73770000D02*
X170983603Y-73770000D01*
%TO.N,FAN_PWM*%
X157300000Y-50500000D02*
X157300000Y-47600000D01*
X154500000Y-52600000D02*
X155600000Y-51500000D01*
X154200000Y-56675000D02*
X154200000Y-63120000D01*
X156700000Y-47000000D02*
X152500000Y-47000000D01*
X155600000Y-51500000D02*
X156300000Y-51500000D01*
X117700000Y-58700000D02*
X117700000Y-46600000D01*
X124800000Y-46000000D02*
X125500000Y-45300000D01*
X150800000Y-45300000D02*
X145900000Y-45300000D01*
X119450000Y-60450000D02*
X119400000Y-60400000D01*
X145900000Y-45300000D02*
X145600000Y-45000000D01*
X119450000Y-62200000D02*
X119450000Y-60450000D01*
X152500000Y-47000000D02*
X150800000Y-45300000D01*
X119400000Y-60400000D02*
X117700000Y-58700000D01*
X118300000Y-46000000D02*
X124800000Y-46000000D01*
X154500000Y-56375000D02*
X154200000Y-56675000D01*
X117700000Y-46600000D02*
X118300000Y-46000000D01*
X157300000Y-47600000D02*
X156700000Y-47000000D01*
X125500000Y-45300000D02*
X125900000Y-45300000D01*
X154500000Y-54350000D02*
X154500000Y-52600000D01*
X156300000Y-51500000D02*
X157300000Y-50500000D01*
%TO.N,Net-(Q2-D)*%
X134100000Y-61600000D02*
X134700000Y-61000000D01*
X134100000Y-63450000D02*
X134100000Y-61600000D01*
%TO.N,Net-(R20-Pad2)*%
X182236396Y-76600000D02*
X179361396Y-79475000D01*
X165800000Y-74170001D02*
X165399999Y-73770000D01*
X187500000Y-76600000D02*
X182236396Y-76600000D01*
X187500000Y-78400000D02*
X187500000Y-76600000D01*
X165399999Y-73770000D02*
X164425000Y-73770000D01*
X186800000Y-79100000D02*
X187500000Y-78400000D01*
X165800000Y-76925908D02*
X165800000Y-74170001D01*
X179361396Y-79475000D02*
X168349092Y-79475000D01*
X168349092Y-79475000D02*
X165800000Y-76925908D01*
%TO.N,/MCU and Communications/ETH_CRS_DV*%
X167300000Y-52100000D02*
X167300000Y-50400000D01*
X143820006Y-59330000D02*
X141000000Y-59330000D01*
X146100000Y-53353509D02*
X146645000Y-52808509D01*
X146700000Y-50275000D02*
X146700000Y-50220000D01*
X167300000Y-50400000D02*
X167490000Y-50210000D01*
X146645000Y-50275000D02*
X146700000Y-50275000D01*
X147395000Y-49525000D02*
X152825000Y-49525000D01*
X166300000Y-53100000D02*
X167300000Y-52100000D01*
X145800006Y-56825000D02*
X145800006Y-57350000D01*
X146100000Y-54350000D02*
X146100000Y-53353509D01*
X167490000Y-50210000D02*
X168190000Y-50210000D01*
X145800006Y-57350000D02*
X143820006Y-59330000D01*
X146645000Y-52808509D02*
X146645000Y-50275000D01*
X152825000Y-49525000D02*
X153400000Y-50100000D01*
X146700000Y-50220000D02*
X147395000Y-49525000D01*
%TO.N,/MCU and Communications/ETH_MDC*%
X165778984Y-53875000D02*
X168775000Y-53875000D01*
X161603984Y-49500000D02*
X163500000Y-49500000D01*
X168800000Y-53900000D02*
X168800000Y-51500000D01*
X160255000Y-46630000D02*
X161025000Y-47400000D01*
X163500000Y-49500000D02*
X163500000Y-51596016D01*
X158500000Y-46630000D02*
X160255000Y-46630000D01*
X161025000Y-47400000D02*
X161025000Y-48921016D01*
X168775000Y-53875000D02*
X168800000Y-53900000D01*
X168800000Y-51500000D02*
X168890000Y-51410000D01*
X163500000Y-51596016D02*
X165778984Y-53875000D01*
X161025000Y-48921016D02*
X161603984Y-49500000D01*
%TO.N,/MCU and Communications/ETH_TXEN*%
X170400000Y-54200000D02*
X170209659Y-54390341D01*
X170390000Y-54190000D02*
X170400000Y-54200000D01*
X157000000Y-54400000D02*
X157000000Y-52630000D01*
X170390000Y-51410000D02*
X170390000Y-54190000D01*
X170209659Y-54390341D02*
X165198308Y-54390341D01*
X157920000Y-51710000D02*
X158500000Y-51710000D01*
X157000000Y-52630000D02*
X157920000Y-51710000D01*
%TO.N,/MCU and Communications/ETH_RXD1*%
X165400000Y-49600000D02*
X164300000Y-50700000D01*
X146195000Y-52622113D02*
X146195000Y-50088604D01*
X144700003Y-56825000D02*
X144700003Y-57350000D01*
X153925000Y-49075000D02*
X154248008Y-48751992D01*
X145650000Y-53699997D02*
X145650000Y-53167113D01*
X164300000Y-50700000D02*
X164300000Y-51300000D01*
X166000000Y-49600000D02*
X165400000Y-49600000D01*
X166750000Y-48850000D02*
X166000000Y-49600000D01*
X144999997Y-54350000D02*
X145650000Y-53699997D01*
X143925003Y-58125000D02*
X141065000Y-58125000D01*
X145650000Y-53167113D02*
X146195000Y-52622113D01*
X144700003Y-57350000D02*
X143925003Y-58125000D01*
X146195000Y-50088604D02*
X147208604Y-49075000D01*
X168190000Y-48210000D02*
X167160000Y-48210000D01*
X141065000Y-58125000D02*
X141000000Y-58060000D01*
X166750000Y-47800000D02*
X166750000Y-48850000D01*
X147208604Y-49075000D02*
X153925000Y-49075000D01*
X167160000Y-48210000D02*
X166750000Y-47800000D01*
%TO.N,/MCU and Communications/ETH_MDIO*%
X159310582Y-55520000D02*
X158500000Y-55520000D01*
X168190000Y-52810000D02*
X168000000Y-53000000D01*
X168190000Y-50710000D02*
X168190000Y-52810000D01*
X159967207Y-56176625D02*
X159310582Y-55520000D01*
%TO.N,LED_CH2*%
X163378984Y-73125000D02*
X161925000Y-74578984D01*
X157425000Y-60675000D02*
X157425000Y-60825000D01*
X166650000Y-69686396D02*
X166650000Y-71925908D01*
X165450908Y-73125000D02*
X163378984Y-73125000D01*
X166650000Y-71925908D02*
X165450908Y-73125000D01*
X157500000Y-60600000D02*
X157425000Y-60675000D01*
X159608604Y-62645000D02*
X166650000Y-69686396D01*
X158500000Y-60600000D02*
X157500000Y-60600000D01*
X157425000Y-60825000D02*
X157695000Y-61095000D01*
X157425000Y-61095000D02*
X157425000Y-62645000D01*
X161925000Y-74578984D02*
X161925000Y-75599092D01*
X161925000Y-75599092D02*
X162635908Y-76310000D01*
X157695000Y-61095000D02*
X157425000Y-61095000D01*
X157425000Y-62645000D02*
X159608604Y-62645000D01*
X162635908Y-76310000D02*
X164425000Y-76310000D01*
%TO.N,/MCU and Communications/ETH_TXD1*%
X161767588Y-50300000D02*
X160500000Y-49032412D01*
X160400000Y-47900000D02*
X158500000Y-47900000D01*
X171390000Y-51410000D02*
X171390000Y-54482792D01*
X165652292Y-55940341D02*
X162900000Y-53188049D01*
X160500000Y-48000000D02*
X160400000Y-47900000D01*
X171390000Y-54482792D02*
X169932451Y-55940341D01*
X162900000Y-53188049D02*
X162900000Y-50300000D01*
X160500000Y-49032412D02*
X160500000Y-48000000D01*
X162900000Y-50300000D02*
X161767588Y-50300000D01*
X169932451Y-55940341D02*
X165652292Y-55940341D01*
%TO.N,LED_CH3*%
X158500000Y-59330000D02*
X157920000Y-59330000D01*
X168400001Y-77580000D02*
X169375000Y-77580000D01*
X156975000Y-60275000D02*
X156975000Y-64175000D01*
X157920000Y-59330000D02*
X156975000Y-60275000D01*
X166600000Y-73100000D02*
X166600000Y-75779999D01*
X156975000Y-64175000D02*
X162700000Y-69900000D01*
X166600000Y-75779999D02*
X168400001Y-77580000D01*
%TO.N,Net-(R21-Pad2)*%
X167744999Y-79925000D02*
X165399999Y-77580000D01*
X186750000Y-77500000D02*
X184325000Y-79925000D01*
X184325000Y-79925000D02*
X167744999Y-79925000D01*
X165399999Y-77580000D02*
X164425000Y-77580000D01*
%TO.N,Net-(R22-Pad2)*%
X186700000Y-71500000D02*
X179350000Y-78850000D01*
X179350000Y-78850000D02*
X169375000Y-78850000D01*
%TO.N,Net-(R23-Pad2)*%
X186276996Y-70700000D02*
X187123004Y-70700000D01*
X172950000Y-77328984D02*
X173375000Y-77753984D01*
X185975000Y-71001996D02*
X186276996Y-70700000D01*
X170463984Y-75040000D02*
X172178984Y-73325000D01*
X187425000Y-72875000D02*
X186700000Y-73600000D01*
X172178984Y-73325000D02*
X172821016Y-73325000D01*
X172950000Y-74746016D02*
X172950000Y-77328984D01*
X173275000Y-73778984D02*
X173275000Y-74421016D01*
X173371016Y-78400000D02*
X179163604Y-78400000D01*
X169375000Y-75040000D02*
X170463984Y-75040000D01*
X173375000Y-78396016D02*
X173371016Y-78400000D01*
X179163604Y-78400000D02*
X185975000Y-71588604D01*
X172821016Y-73325000D02*
X173275000Y-73778984D01*
X187123004Y-70700000D02*
X187425000Y-71001996D01*
X173375000Y-77753984D02*
X173375000Y-78396016D01*
X173275000Y-74421016D02*
X172950000Y-74746016D01*
X187425000Y-71001996D02*
X187425000Y-72875000D01*
X185975000Y-71588604D02*
X185975000Y-71001996D01*
%TO.N,/MCU and Communications/ETH_CLK_OUT*%
X152000000Y-55900000D02*
X152300000Y-55600000D01*
X167246220Y-45965000D02*
X166700000Y-46511220D01*
X152300000Y-55600000D02*
X155400000Y-55600000D01*
X156414492Y-47810508D02*
X155000000Y-49225000D01*
X152012168Y-52887832D02*
X152012168Y-54186825D01*
X162225000Y-49025000D02*
X161800000Y-48600000D01*
X155000000Y-49900000D02*
X152012168Y-52887832D01*
X169390000Y-47017236D02*
X168337764Y-45965000D01*
X169390000Y-47510000D02*
X169390000Y-47017236D01*
X166062500Y-48512540D02*
X165550040Y-49025000D01*
X155400000Y-55600000D02*
X157860000Y-58060000D01*
X168337764Y-45965000D02*
X167246220Y-45965000D01*
X157860000Y-58060000D02*
X158500000Y-58060000D01*
X165550040Y-49025000D02*
X162225000Y-49025000D01*
X166062500Y-47737500D02*
X166062500Y-48512540D01*
X155000000Y-49225000D02*
X155000000Y-49900000D01*
X166700000Y-47100000D02*
X166062500Y-47737500D01*
X166700000Y-46511220D02*
X166700000Y-47100000D01*
%TO.N,LED_CH1*%
X155470000Y-63120000D02*
X155470000Y-64120000D01*
X163850000Y-72500000D02*
X164425000Y-72500000D01*
X155470000Y-64120000D02*
X163850000Y-72500000D01*
%TO.N,/MCU and Communications/RS485_TX*%
X144865000Y-62065000D02*
X145200000Y-62400000D01*
X138700000Y-60650000D02*
X137550000Y-60650000D01*
X143400000Y-60600000D02*
X143775000Y-60975000D01*
X144865000Y-61498274D02*
X144865000Y-62065000D01*
X145200000Y-63010000D02*
X145310000Y-63120000D01*
X135265000Y-53820001D02*
X135590001Y-53495000D01*
X137550000Y-60650000D02*
X135265000Y-58365000D01*
X145200000Y-62400000D02*
X145200000Y-63010000D01*
X144341726Y-60975000D02*
X144865000Y-61498274D01*
X142700000Y-60600000D02*
X143400000Y-60600000D01*
X135590001Y-53495000D02*
X136565000Y-53495000D01*
X135265000Y-58365000D02*
X135265000Y-53820001D01*
X143775000Y-60975000D02*
X144341726Y-60975000D01*
%TO.N,/MCU and Communications/RS485_RX*%
X138955000Y-57305000D02*
X136565000Y-57305000D01*
X139475000Y-62075000D02*
X139475000Y-57825000D01*
X139475000Y-57825000D02*
X138955000Y-57305000D01*
X140045000Y-62645000D02*
X139475000Y-62075000D01*
X141000000Y-60600000D02*
X141580000Y-60600000D01*
X142075000Y-61095000D02*
X142075000Y-62645000D01*
X141580000Y-60600000D02*
X142075000Y-61095000D01*
X142075000Y-62645000D02*
X140045000Y-62645000D01*
%TO.N,/MCU and Communications/RS485_DE*%
X141000000Y-61870000D02*
X140420000Y-61870000D01*
X139735000Y-54765000D02*
X136565000Y-54765000D01*
X136565000Y-56035000D02*
X136565000Y-54765000D01*
X139925000Y-54700000D02*
X139800000Y-54700000D01*
X139925000Y-61375000D02*
X139925000Y-54700000D01*
X139800000Y-54700000D02*
X139735000Y-54765000D01*
X140420000Y-61870000D02*
X139925000Y-61375000D01*
%TO.N,/MCU and Communications/ETH_TXD0*%
X159484659Y-54250000D02*
X158500000Y-54250000D01*
X160400000Y-55165341D02*
X159484659Y-54250000D01*
X170890000Y-51410000D02*
X170890000Y-54346396D01*
X170071055Y-55165341D02*
X166061907Y-55165341D01*
X170890000Y-54346396D02*
X170071055Y-55165341D01*
%TO.N,/MCU and Communications/ETH_RXD0*%
X166300000Y-49970840D02*
X166300000Y-50400000D01*
X143075000Y-57350000D02*
X142075000Y-57350000D01*
X145745000Y-52435717D02*
X145745000Y-49902208D01*
X167290000Y-48980840D02*
X166300000Y-49970840D01*
X166203984Y-50400000D02*
X165200000Y-51403984D01*
X145200000Y-52980717D02*
X145745000Y-52435717D01*
X141515000Y-56790000D02*
X141000000Y-56790000D01*
X144678981Y-53575000D02*
X145125000Y-53575000D01*
X144195656Y-53599640D02*
X144654341Y-53599640D01*
X167290000Y-48710000D02*
X167290000Y-48980840D01*
X142075000Y-57350000D02*
X141515000Y-56790000D01*
X165200000Y-51403984D02*
X165200000Y-52200000D01*
X143600000Y-56825000D02*
X143075000Y-57350000D01*
X147022208Y-48625000D02*
X152375000Y-48625000D01*
X168190000Y-48710000D02*
X167290000Y-48710000D01*
X166300000Y-50400000D02*
X166203984Y-50400000D01*
X144654341Y-53599640D02*
X144678981Y-53575000D01*
X145745000Y-49902208D02*
X147022208Y-48625000D01*
X145200000Y-53500000D02*
X145200000Y-52980717D01*
X152375000Y-48625000D02*
X152700000Y-48300000D01*
X145125000Y-53575000D02*
X145200000Y-53500000D01*
%TO.N,CP_RTS*%
X193311969Y-58725000D02*
X193500000Y-58536969D01*
X194778984Y-58025000D02*
X195421016Y-58025000D01*
X193600000Y-58200000D02*
X194603984Y-58200000D01*
X193500000Y-63000000D02*
X193500000Y-62000000D01*
X196449740Y-58200000D02*
X197287500Y-57362240D01*
X193500000Y-58536969D02*
X193500000Y-58100000D01*
X195596016Y-58200000D02*
X196449740Y-58200000D01*
X197287500Y-57362240D02*
X197287500Y-56400000D01*
X194603984Y-58200000D02*
X194778984Y-58025000D01*
X195421016Y-58025000D02*
X195596016Y-58200000D01*
X193500000Y-58100000D02*
X193600000Y-58200000D01*
%TO.N,CP_DTR*%
X197749740Y-54400000D02*
X198025000Y-54675260D01*
X198025000Y-54675260D02*
X198025000Y-54825000D01*
X197287500Y-54400000D02*
X197749740Y-54400000D01*
X198925000Y-57647792D02*
X195954594Y-60618198D01*
X194700000Y-64900000D02*
X193500000Y-66100000D01*
X198925000Y-55725000D02*
X198925000Y-57647792D01*
X195954594Y-60618198D02*
X194700000Y-60618198D01*
X194700000Y-60618198D02*
X194700000Y-64900000D01*
X198025000Y-54825000D02*
X198925000Y-55725000D01*
%TO.N,Net-(DZ1-A)*%
X123909052Y-79425000D02*
X121075000Y-79425000D01*
X121075000Y-79425000D02*
X120150000Y-78500000D01*
X116300000Y-77161592D02*
X117386592Y-76075000D01*
X120150000Y-78500000D02*
X119811592Y-78500000D01*
X124850000Y-77300000D02*
X124850000Y-78484052D01*
X124850000Y-78484052D02*
X123909052Y-79425000D01*
X116300000Y-79500000D02*
X116300000Y-77161592D01*
X119811592Y-78500000D02*
X117386592Y-76075000D01*
%TO.N,Net-(Q8-G)*%
X192458883Y-69425000D02*
X193500000Y-68383883D01*
X178500000Y-69425000D02*
X192458883Y-69425000D01*
X193500000Y-68383883D02*
X193500000Y-67750000D01*
X175575000Y-72350000D02*
X178500000Y-69425000D01*
%TO.N,Net-(U9-VDDIO)*%
X166800000Y-50800000D02*
X166500000Y-51100000D01*
X168190000Y-49210000D02*
X167697236Y-49210000D01*
X167697236Y-49210000D02*
X166800000Y-50107236D01*
X166800000Y-50107236D02*
X166800000Y-50800000D01*
X166500000Y-51100000D02*
X166500000Y-51200000D01*
X164100000Y-48100000D02*
X165100000Y-48100000D01*
%TO.N,Net-(Q7-G)*%
X191672792Y-61500000D02*
X192500000Y-61500000D01*
X192725000Y-62321016D02*
X192840490Y-62436506D01*
X192840490Y-62436506D02*
X192700000Y-62576996D01*
X192725000Y-61725000D02*
X192725000Y-62321016D01*
X192700000Y-62576996D02*
X192700000Y-63423004D01*
X193001996Y-63725000D02*
X193500000Y-63725000D01*
X190900000Y-64100000D02*
X190900000Y-62272792D01*
X192700000Y-63423004D02*
X193001996Y-63725000D01*
X193500000Y-63725000D02*
X193500000Y-64650000D01*
X190900000Y-62272792D02*
X191672792Y-61500000D01*
X189400000Y-65600000D02*
X190900000Y-64100000D01*
X192500000Y-61500000D02*
X192725000Y-61725000D01*
X189400000Y-66000000D02*
X189400000Y-65600000D01*
%TO.N,SENS_IO34*%
X145800000Y-65750000D02*
X146450000Y-66400000D01*
X141000000Y-51710000D02*
X143010000Y-51710000D01*
X145800000Y-64600000D02*
X145800000Y-65750000D01*
X145800007Y-61559991D02*
X145640000Y-61719998D01*
X145800007Y-58446015D02*
X145800007Y-61559991D01*
X143010000Y-51710000D02*
X143500000Y-52200000D01*
%TO.N,/Breakout and Expansion/SENS34_H*%
X148100000Y-66400000D02*
X148775000Y-65725000D01*
X148775000Y-65725000D02*
X152225000Y-65725000D01*
X152225000Y-65725000D02*
X153400000Y-66900000D01*
%TO.N,Net-(Q4-G)*%
X115800000Y-91700000D02*
X116840000Y-90660000D01*
X127700000Y-90600000D02*
X127640000Y-90660000D01*
X136708275Y-66650000D02*
X136650000Y-66650000D01*
X132600000Y-90600000D02*
X127700000Y-90600000D01*
X115800000Y-92600000D02*
X115800000Y-91700000D01*
X116840000Y-90660000D02*
X119300000Y-90660000D01*
X125450000Y-90660000D02*
X119300000Y-90660000D01*
X135200000Y-65200000D02*
X134200000Y-65200000D01*
X132700000Y-90700000D02*
X132600000Y-90600000D01*
X134200000Y-65200000D02*
X134100000Y-65100000D01*
X127640000Y-90660000D02*
X125450000Y-90660000D01*
X136650000Y-66650000D02*
X135200000Y-65200000D01*
%TO.N,Net-(Q6-D)*%
X119900000Y-64550000D02*
X116300000Y-60950000D01*
X127887994Y-65625000D02*
X129250000Y-65625000D01*
X126437994Y-67075000D02*
X127887994Y-65625000D01*
X116300000Y-60950000D02*
X116300000Y-59300000D01*
X129250000Y-65625000D02*
X130025000Y-64850000D01*
X122425000Y-67075000D02*
X126437994Y-67075000D01*
X119900000Y-64550000D02*
X122425000Y-67075000D01*
D79*
%TO.N,Net-(Q9-D)*%
X115400000Y-61225000D02*
X115400000Y-57400000D01*
X115350000Y-61275000D02*
X115400000Y-61225000D01*
X115400000Y-57400000D02*
X115300000Y-57300000D01*
D78*
%TO.N,Net-(J2-CC2)*%
X112600000Y-65300000D02*
X110500003Y-65300000D01*
X115300000Y-64500000D02*
X113400000Y-64500000D01*
X109960000Y-48840000D02*
X109960000Y-50445000D01*
X110200000Y-48600000D02*
X109960000Y-48840000D01*
X107278984Y-51825000D02*
X108631117Y-51825000D01*
X113400000Y-64500000D02*
X112600000Y-65300000D01*
X110500003Y-65300000D02*
X110100000Y-65700003D01*
X106825000Y-52278984D02*
X107278984Y-51825000D01*
X108631117Y-51825000D02*
X109806117Y-53000000D01*
X106825000Y-64625000D02*
X106825000Y-52278984D01*
X107900000Y-65700000D02*
X106825000Y-64625000D01*
X109806117Y-53000000D02*
X110200000Y-53000000D01*
%TO.N,Net-(J2-CC1)*%
X107900000Y-64600000D02*
X107875000Y-64575000D01*
X111462279Y-53200000D02*
X112200000Y-53200000D01*
X117475000Y-63775000D02*
X113325000Y-63775000D01*
X112960000Y-48940000D02*
X112960000Y-50445000D01*
X110257379Y-58245100D02*
X110257379Y-54404900D01*
X112500000Y-64600000D02*
X110100000Y-64600000D01*
X107875000Y-64575000D02*
X107875000Y-60627479D01*
X110257379Y-54404900D02*
X111462279Y-53200000D01*
X107875000Y-60627479D02*
X110257379Y-58245100D01*
X113325000Y-63775000D02*
X112500000Y-64600000D01*
X118200000Y-64500000D02*
X117475000Y-63775000D01*
X113100000Y-48800000D02*
X112960000Y-48940000D01*
%TD*%
%TA.AperFunction,Conductor*%
%TO.N,Net-(J16-Pin_1)*%
G36*
X134776685Y-90902295D02*
G01*
X134871948Y-90921372D01*
X134952659Y-90975453D01*
X134998221Y-91038248D01*
X135000163Y-91042059D01*
X135009421Y-91060228D01*
X135143621Y-91244937D01*
X135305063Y-91406379D01*
X135489772Y-91540579D01*
X135489774Y-91540580D01*
X135489775Y-91540581D01*
X135589473Y-91591379D01*
X135693201Y-91644231D01*
X135910340Y-91714784D01*
X136135843Y-91750500D01*
X136135847Y-91750500D01*
X136364153Y-91750500D01*
X136364157Y-91750500D01*
X136589660Y-91714784D01*
X136806799Y-91644231D01*
X137010228Y-91540579D01*
X137194937Y-91406379D01*
X137356379Y-91244937D01*
X137490579Y-91060228D01*
X137499837Y-91042057D01*
X137559983Y-90965761D01*
X137644749Y-90918287D01*
X137722013Y-90906100D01*
X139318580Y-90908162D01*
X139413840Y-90927239D01*
X139494552Y-90981320D01*
X139548424Y-91062171D01*
X139567255Y-91157484D01*
X139567244Y-91159489D01*
X139423154Y-106577263D01*
X139423154Y-106577264D01*
X139422800Y-106615118D01*
X139375805Y-111643446D01*
X139375788Y-111646053D01*
X139375762Y-111651672D01*
X139356360Y-111746870D01*
X139302004Y-111827397D01*
X139220969Y-111880992D01*
X139126765Y-111899500D01*
X128778539Y-111899500D01*
X128683251Y-111880546D01*
X128602469Y-111826570D01*
X128548493Y-111745788D01*
X128529539Y-111650500D01*
X128529542Y-111649331D01*
X128553322Y-106581989D01*
X134999500Y-106581989D01*
X134999500Y-106818011D01*
X135030307Y-107052014D01*
X135047761Y-107117152D01*
X135091393Y-107279989D01*
X135091394Y-107279992D01*
X135181713Y-107498043D01*
X135181718Y-107498054D01*
X135284293Y-107675718D01*
X135299727Y-107702450D01*
X135443408Y-107889699D01*
X135610301Y-108056592D01*
X135797550Y-108200273D01*
X135797559Y-108200278D01*
X136001945Y-108318281D01*
X136001948Y-108318282D01*
X136001951Y-108318284D01*
X136220007Y-108408606D01*
X136447986Y-108469693D01*
X136681989Y-108500500D01*
X136918011Y-108500500D01*
X137152014Y-108469693D01*
X137379993Y-108408606D01*
X137598049Y-108318284D01*
X137802450Y-108200273D01*
X137989699Y-108056592D01*
X138156592Y-107889699D01*
X138300273Y-107702450D01*
X138418284Y-107498049D01*
X138508606Y-107279993D01*
X138569693Y-107052014D01*
X138600500Y-106818011D01*
X138600500Y-106581989D01*
X138569693Y-106347986D01*
X138508606Y-106120007D01*
X138418284Y-105901951D01*
X138300273Y-105697550D01*
X138156592Y-105510301D01*
X137989699Y-105343408D01*
X137802450Y-105199727D01*
X137802440Y-105199721D01*
X137598054Y-105081718D01*
X137598043Y-105081713D01*
X137477222Y-105031667D01*
X137379993Y-104991394D01*
X137152014Y-104930307D01*
X137152007Y-104930306D01*
X136918011Y-104899500D01*
X136681989Y-104899500D01*
X136447992Y-104930306D01*
X136447990Y-104930306D01*
X136447986Y-104930307D01*
X136275640Y-104976487D01*
X136220010Y-104991393D01*
X136220007Y-104991394D01*
X136001956Y-105081713D01*
X136001945Y-105081718D01*
X135797559Y-105199721D01*
X135797549Y-105199727D01*
X135610301Y-105343408D01*
X135610297Y-105343411D01*
X135443411Y-105510297D01*
X135443408Y-105510301D01*
X135299727Y-105697549D01*
X135299721Y-105697559D01*
X135181718Y-105901945D01*
X135181713Y-105901956D01*
X135091394Y-106120007D01*
X135091393Y-106120010D01*
X135089786Y-106126008D01*
X135030307Y-106347986D01*
X134999500Y-106581989D01*
X128553322Y-106581989D01*
X128553366Y-106572669D01*
X128553366Y-106572668D01*
X128568681Y-103309140D01*
X128624224Y-91473329D01*
X128643625Y-91378133D01*
X128697980Y-91297606D01*
X128779013Y-91244009D01*
X128873221Y-91225500D01*
X131778151Y-91225500D01*
X131873439Y-91244454D01*
X131954221Y-91298430D01*
X131961695Y-91305904D01*
X131961698Y-91305908D01*
X132094092Y-91438302D01*
X132249769Y-91542322D01*
X132249771Y-91542322D01*
X132249773Y-91542324D01*
X132422746Y-91613972D01*
X132422747Y-91613972D01*
X132422749Y-91613973D01*
X132606384Y-91650500D01*
X132606386Y-91650500D01*
X132793614Y-91650500D01*
X132793616Y-91650500D01*
X132977251Y-91613973D01*
X133150231Y-91542322D01*
X133305908Y-91438302D01*
X133438302Y-91305908D01*
X133542322Y-91150231D01*
X133581869Y-91054756D01*
X133635842Y-90973980D01*
X133716623Y-90920003D01*
X133811906Y-90901048D01*
X134776685Y-90902295D01*
G37*
%TD.AperFunction*%
%TD*%
%TA.AperFunction,Conductor*%
%TO.N,Net-(J17-Pin_1)*%
G36*
X149157468Y-90828561D02*
G01*
X149238836Y-90881649D01*
X149274417Y-90925390D01*
X150988250Y-93602620D01*
X151023661Y-93693092D01*
X151021754Y-93790228D01*
X151021638Y-93790756D01*
X151001163Y-93883119D01*
X150989302Y-93981499D01*
X150989301Y-93981513D01*
X150786431Y-103288984D01*
X150693099Y-107570896D01*
X150691992Y-107621683D01*
X150604535Y-111634079D01*
X150604444Y-111639638D01*
X150604317Y-111651445D01*
X150602449Y-111651424D01*
X150589167Y-111736267D01*
X150538551Y-111819196D01*
X150460052Y-111876442D01*
X150365622Y-111899290D01*
X150355404Y-111899500D01*
X140130273Y-111899500D01*
X140034985Y-111880546D01*
X139954203Y-111826570D01*
X139900227Y-111745788D01*
X139881273Y-111650500D01*
X139881284Y-111648173D01*
X139881416Y-111634079D01*
X139928632Y-106581989D01*
X146299500Y-106581989D01*
X146299500Y-106818011D01*
X146330307Y-107052014D01*
X146391394Y-107279993D01*
X146407160Y-107318055D01*
X146481713Y-107498043D01*
X146481718Y-107498054D01*
X146553096Y-107621683D01*
X146599727Y-107702450D01*
X146743408Y-107889699D01*
X146910301Y-108056592D01*
X147097550Y-108200273D01*
X147097559Y-108200278D01*
X147301945Y-108318281D01*
X147301948Y-108318282D01*
X147301951Y-108318284D01*
X147520007Y-108408606D01*
X147747986Y-108469693D01*
X147981989Y-108500500D01*
X148218011Y-108500500D01*
X148452014Y-108469693D01*
X148679993Y-108408606D01*
X148898049Y-108318284D01*
X149102450Y-108200273D01*
X149289699Y-108056592D01*
X149456592Y-107889699D01*
X149600273Y-107702450D01*
X149718284Y-107498049D01*
X149808606Y-107279993D01*
X149869693Y-107052014D01*
X149900500Y-106818011D01*
X149900500Y-106581989D01*
X149869693Y-106347986D01*
X149808606Y-106120007D01*
X149718284Y-105901951D01*
X149600273Y-105697550D01*
X149456592Y-105510301D01*
X149289699Y-105343408D01*
X149102450Y-105199727D01*
X149102440Y-105199721D01*
X148898054Y-105081718D01*
X148898043Y-105081713D01*
X148777222Y-105031667D01*
X148679993Y-104991394D01*
X148452014Y-104930307D01*
X148452007Y-104930306D01*
X148218011Y-104899500D01*
X147981989Y-104899500D01*
X147747992Y-104930306D01*
X147747990Y-104930306D01*
X147747986Y-104930307D01*
X147575640Y-104976487D01*
X147520010Y-104991393D01*
X147520007Y-104991394D01*
X147301956Y-105081713D01*
X147301945Y-105081718D01*
X147097559Y-105199721D01*
X147097549Y-105199727D01*
X146910301Y-105343408D01*
X146910297Y-105343411D01*
X146743411Y-105510297D01*
X146743408Y-105510301D01*
X146599727Y-105697549D01*
X146599721Y-105697559D01*
X146481718Y-105901945D01*
X146481713Y-105901956D01*
X146391394Y-106120007D01*
X146330307Y-106347986D01*
X146299500Y-106581989D01*
X139928632Y-106581989D01*
X140072826Y-91153120D01*
X140092670Y-91058017D01*
X140147399Y-90977744D01*
X140228681Y-90924525D01*
X140319084Y-90906466D01*
X142065999Y-90887321D01*
X142161486Y-90905230D01*
X142242855Y-90958317D01*
X142290585Y-91023261D01*
X142309421Y-91060228D01*
X142443621Y-91244937D01*
X142605063Y-91406379D01*
X142789772Y-91540579D01*
X142789774Y-91540580D01*
X142789775Y-91540581D01*
X142889473Y-91591379D01*
X142993201Y-91644231D01*
X143210340Y-91714784D01*
X143435843Y-91750500D01*
X143435847Y-91750500D01*
X143664153Y-91750500D01*
X143664157Y-91750500D01*
X143889660Y-91714784D01*
X144106799Y-91644231D01*
X144310228Y-91540579D01*
X144494937Y-91406379D01*
X144656379Y-91244937D01*
X144790579Y-91060228D01*
X144826049Y-90990612D01*
X144886194Y-90914318D01*
X144970961Y-90866845D01*
X145045174Y-90854672D01*
X149061980Y-90810652D01*
X149157468Y-90828561D01*
G37*
%TD.AperFunction*%
%TD*%
%TA.AperFunction,Conductor*%
%TO.N,+24V_SW*%
G36*
X120557558Y-79818954D02*
G01*
X120638337Y-79872928D01*
X120676267Y-79910858D01*
X120778715Y-79979312D01*
X120825602Y-79998733D01*
X120892548Y-80026463D01*
X120912597Y-80030451D01*
X121013394Y-80050501D01*
X121148895Y-80050501D01*
X121148915Y-80050500D01*
X123970658Y-80050500D01*
X123970659Y-80050500D01*
X124031521Y-80038394D01*
X124091504Y-80026463D01*
X124124844Y-80012652D01*
X124205338Y-79979312D01*
X124262327Y-79941232D01*
X124307785Y-79910858D01*
X124354422Y-79864220D01*
X124363944Y-79856417D01*
X124396143Y-79839233D01*
X124426494Y-79818954D01*
X124438688Y-79816528D01*
X124449657Y-79810675D01*
X124485981Y-79807121D01*
X124521782Y-79800000D01*
X124947917Y-79800000D01*
X125043205Y-79818954D01*
X125094275Y-79847555D01*
X125197772Y-79922749D01*
X125223212Y-79941232D01*
X125377555Y-80019873D01*
X125542299Y-80073402D01*
X125713389Y-80100500D01*
X125713393Y-80100500D01*
X130486607Y-80100500D01*
X130486611Y-80100500D01*
X130657701Y-80073402D01*
X130822445Y-80019873D01*
X130976788Y-79941232D01*
X131006840Y-79919397D01*
X131105725Y-79847555D01*
X131193955Y-79806880D01*
X131252083Y-79800000D01*
X131812270Y-79800000D01*
X131907558Y-79818954D01*
X131988336Y-79872927D01*
X132001267Y-79885858D01*
X132103714Y-79954311D01*
X132103716Y-79954311D01*
X132103718Y-79954313D01*
X132217545Y-80001462D01*
X132217546Y-80001462D01*
X132217548Y-80001463D01*
X132338394Y-80025500D01*
X149237770Y-80025500D01*
X149333058Y-80044454D01*
X149413840Y-80098430D01*
X150439139Y-81123729D01*
X150439142Y-81123733D01*
X150526267Y-81210858D01*
X150526270Y-81210860D01*
X150589128Y-81252861D01*
X150589130Y-81252862D01*
X150601097Y-81260858D01*
X150628715Y-81279312D01*
X150682193Y-81301463D01*
X150691495Y-81305316D01*
X150691499Y-81305318D01*
X150713226Y-81314317D01*
X150742548Y-81326463D01*
X150802971Y-81338481D01*
X150832767Y-81344408D01*
X150863392Y-81350500D01*
X151338758Y-81350500D01*
X151434046Y-81369454D01*
X151473404Y-81390045D01*
X153200000Y-82500000D01*
X201747960Y-82698967D01*
X201843170Y-82718311D01*
X201923730Y-82772618D01*
X201977375Y-82853620D01*
X201995938Y-82948985D01*
X201995907Y-82952008D01*
X201830299Y-93149543D01*
X201809800Y-93244511D01*
X201754519Y-93324405D01*
X201672872Y-93377063D01*
X201581332Y-93394500D01*
X194115963Y-93394500D01*
X194020675Y-93375546D01*
X193939893Y-93321570D01*
X193885917Y-93240788D01*
X193866963Y-93145500D01*
X193870029Y-93106548D01*
X193900498Y-92914168D01*
X193900500Y-92914157D01*
X193900500Y-92685843D01*
X193864784Y-92460340D01*
X193794231Y-92243201D01*
X193741379Y-92139473D01*
X193690581Y-92039775D01*
X193690580Y-92039774D01*
X193690579Y-92039772D01*
X193556379Y-91855063D01*
X193394937Y-91693621D01*
X193210228Y-91559421D01*
X193210224Y-91559419D01*
X193210224Y-91559418D01*
X193006799Y-91455769D01*
X193006794Y-91455767D01*
X192886048Y-91416534D01*
X192789660Y-91385216D01*
X192789658Y-91385215D01*
X192789656Y-91385215D01*
X192564168Y-91349501D01*
X192564159Y-91349500D01*
X192564157Y-91349500D01*
X192335843Y-91349500D01*
X192335840Y-91349500D01*
X192335831Y-91349501D01*
X192110343Y-91385215D01*
X191893205Y-91455767D01*
X191893200Y-91455769D01*
X191689775Y-91559418D01*
X191689774Y-91559419D01*
X191689772Y-91559421D01*
X191606083Y-91620225D01*
X191505065Y-91693619D01*
X191343619Y-91855065D01*
X191209420Y-92039774D01*
X191209418Y-92039775D01*
X191105769Y-92243200D01*
X191105767Y-92243205D01*
X191035215Y-92460343D01*
X190999501Y-92685831D01*
X190999500Y-92685847D01*
X190999500Y-92914152D01*
X190999501Y-92914168D01*
X191029971Y-93106548D01*
X191026157Y-93203628D01*
X190985482Y-93291859D01*
X190914139Y-93357808D01*
X190822989Y-93391434D01*
X190784037Y-93394500D01*
X189654499Y-93394500D01*
X189555887Y-93404212D01*
X189460586Y-93423168D01*
X189408165Y-93436549D01*
X189408160Y-93436550D01*
X189278369Y-93498645D01*
X189275940Y-93500029D01*
X189274423Y-93500533D01*
X189270351Y-93502482D01*
X189270106Y-93501970D01*
X189183755Y-93530705D01*
X189086848Y-93523768D01*
X189025686Y-93497789D01*
X188980591Y-93471034D01*
X188980588Y-93471032D01*
X188844907Y-93423167D01*
X188844903Y-93423166D01*
X188749614Y-93404212D01*
X188651000Y-93394500D01*
X186915963Y-93394500D01*
X186820675Y-93375546D01*
X186739893Y-93321570D01*
X186685917Y-93240788D01*
X186666963Y-93145500D01*
X186670029Y-93106548D01*
X186700498Y-92914168D01*
X186700500Y-92914157D01*
X186700500Y-92685843D01*
X186664784Y-92460340D01*
X186594231Y-92243201D01*
X186541379Y-92139473D01*
X186490581Y-92039775D01*
X186490580Y-92039774D01*
X186490579Y-92039772D01*
X186356379Y-91855063D01*
X186194937Y-91693621D01*
X186010228Y-91559421D01*
X186010224Y-91559419D01*
X186010224Y-91559418D01*
X185806799Y-91455769D01*
X185806794Y-91455767D01*
X185686048Y-91416534D01*
X185589660Y-91385216D01*
X185589658Y-91385215D01*
X185589656Y-91385215D01*
X185364168Y-91349501D01*
X185364159Y-91349500D01*
X185364157Y-91349500D01*
X185135843Y-91349500D01*
X185135840Y-91349500D01*
X185135831Y-91349501D01*
X184910343Y-91385215D01*
X184693205Y-91455767D01*
X184693200Y-91455769D01*
X184489775Y-91559418D01*
X184489774Y-91559419D01*
X184489772Y-91559421D01*
X184406083Y-91620225D01*
X184305065Y-91693619D01*
X184143619Y-91855065D01*
X184009420Y-92039774D01*
X184009418Y-92039775D01*
X183905769Y-92243200D01*
X183905767Y-92243205D01*
X183835215Y-92460343D01*
X183799501Y-92685831D01*
X183799500Y-92685847D01*
X183799500Y-92914152D01*
X183799501Y-92914168D01*
X183829971Y-93106548D01*
X183826157Y-93203628D01*
X183785482Y-93291859D01*
X183714139Y-93357808D01*
X183622989Y-93391434D01*
X183584037Y-93394500D01*
X177199443Y-93394500D01*
X177130565Y-93401190D01*
X177102187Y-93403946D01*
X177102183Y-93403946D01*
X177102180Y-93403947D01*
X177008158Y-93422382D01*
X176957006Y-93435214D01*
X176826875Y-93496603D01*
X176819642Y-93500670D01*
X176727291Y-93530841D01*
X176630423Y-93523374D01*
X176570573Y-93497759D01*
X176525529Y-93471034D01*
X176389844Y-93423167D01*
X176389840Y-93423166D01*
X176294551Y-93404212D01*
X176195937Y-93394500D01*
X169115963Y-93394500D01*
X169020675Y-93375546D01*
X168939893Y-93321570D01*
X168885917Y-93240788D01*
X168866963Y-93145500D01*
X168870029Y-93106548D01*
X168900498Y-92914168D01*
X168900500Y-92914157D01*
X168900500Y-92685843D01*
X168864784Y-92460340D01*
X168794231Y-92243201D01*
X168741379Y-92139473D01*
X168690581Y-92039775D01*
X168690580Y-92039774D01*
X168690579Y-92039772D01*
X168556379Y-91855063D01*
X168394937Y-91693621D01*
X168210228Y-91559421D01*
X168210224Y-91559419D01*
X168210224Y-91559418D01*
X168006799Y-91455769D01*
X168006794Y-91455767D01*
X167886048Y-91416534D01*
X167789660Y-91385216D01*
X167789658Y-91385215D01*
X167789656Y-91385215D01*
X167564168Y-91349501D01*
X167564159Y-91349500D01*
X167564157Y-91349500D01*
X167335843Y-91349500D01*
X167335840Y-91349500D01*
X167335831Y-91349501D01*
X167110343Y-91385215D01*
X166893205Y-91455767D01*
X166893200Y-91455769D01*
X166689775Y-91559418D01*
X166689774Y-91559419D01*
X166689772Y-91559421D01*
X166606083Y-91620225D01*
X166505065Y-91693619D01*
X166343619Y-91855065D01*
X166209420Y-92039774D01*
X166209418Y-92039775D01*
X166105769Y-92243200D01*
X166105767Y-92243205D01*
X166035215Y-92460343D01*
X165999501Y-92685831D01*
X165999500Y-92685847D01*
X165999500Y-92914152D01*
X165999501Y-92914168D01*
X166029971Y-93106548D01*
X166026157Y-93203628D01*
X165985482Y-93291859D01*
X165914139Y-93357808D01*
X165822989Y-93391434D01*
X165784037Y-93394500D01*
X164195836Y-93394500D01*
X164137478Y-93400168D01*
X164098570Y-93403947D01*
X164004553Y-93422383D01*
X164004528Y-93422388D01*
X164004497Y-93422395D01*
X163953382Y-93435220D01*
X163953375Y-93435222D01*
X163815211Y-93500406D01*
X163814641Y-93499198D01*
X163731859Y-93526237D01*
X163634992Y-93518765D01*
X163572511Y-93491564D01*
X163530338Y-93465830D01*
X163395259Y-93416286D01*
X163300210Y-93396153D01*
X163300206Y-93396152D01*
X163201728Y-93385222D01*
X163201726Y-93385221D01*
X163201718Y-93385221D01*
X162216604Y-93373027D01*
X161916866Y-93369317D01*
X161821820Y-93349185D01*
X161741713Y-93294213D01*
X161688740Y-93212770D01*
X161670967Y-93117254D01*
X161674014Y-93081383D01*
X161700500Y-92914157D01*
X161700500Y-92685843D01*
X161664784Y-92460340D01*
X161594231Y-92243201D01*
X161541379Y-92139473D01*
X161490581Y-92039775D01*
X161490580Y-92039774D01*
X161490579Y-92039772D01*
X161356379Y-91855063D01*
X161194937Y-91693621D01*
X161010228Y-91559421D01*
X161010224Y-91559419D01*
X161010224Y-91559418D01*
X160806799Y-91455769D01*
X160806794Y-91455767D01*
X160686048Y-91416534D01*
X160589660Y-91385216D01*
X160589658Y-91385215D01*
X160589656Y-91385215D01*
X160364168Y-91349501D01*
X160364159Y-91349500D01*
X160364157Y-91349500D01*
X160135843Y-91349500D01*
X160135840Y-91349500D01*
X160135831Y-91349501D01*
X159910343Y-91385215D01*
X159693205Y-91455767D01*
X159693200Y-91455769D01*
X159489775Y-91559418D01*
X159489774Y-91559419D01*
X159489772Y-91559421D01*
X159406083Y-91620225D01*
X159305065Y-91693619D01*
X159143619Y-91855065D01*
X159009420Y-92039774D01*
X159009418Y-92039775D01*
X158905769Y-92243200D01*
X158905767Y-92243205D01*
X158835215Y-92460343D01*
X158799501Y-92685831D01*
X158799500Y-92685847D01*
X158799500Y-92914158D01*
X158819425Y-93039962D01*
X158815610Y-93137042D01*
X158774934Y-93225273D01*
X158703591Y-93291221D01*
X158612441Y-93324848D01*
X158570408Y-93327894D01*
X151752968Y-93243508D01*
X151752960Y-93243509D01*
X151656576Y-93251569D01*
X151656575Y-93251569D01*
X151619567Y-93258275D01*
X151563237Y-93268483D01*
X151563223Y-93268486D01*
X151560101Y-93269052D01*
X151559955Y-93268250D01*
X151467383Y-93269010D01*
X151377322Y-93232567D01*
X151308062Y-93164434D01*
X151304246Y-93158651D01*
X149700156Y-90652853D01*
X149666561Y-90606402D01*
X149666556Y-90606395D01*
X149646355Y-90581562D01*
X149630980Y-90562661D01*
X149623140Y-90553258D01*
X149570828Y-90507294D01*
X149515058Y-90458292D01*
X149515057Y-90458291D01*
X149433684Y-90405199D01*
X149386849Y-90378100D01*
X149250649Y-90331723D01*
X149250646Y-90331722D01*
X149155167Y-90313815D01*
X149155153Y-90313813D01*
X149056447Y-90305182D01*
X149056443Y-90305181D01*
X145241420Y-90346990D01*
X145145929Y-90329081D01*
X145064561Y-90275993D01*
X145009703Y-90195808D01*
X144992758Y-90136964D01*
X144964784Y-89960340D01*
X144894231Y-89743201D01*
X144790579Y-89539772D01*
X144656379Y-89355063D01*
X144494937Y-89193621D01*
X144310228Y-89059421D01*
X144310224Y-89059419D01*
X144310224Y-89059418D01*
X144106799Y-88955769D01*
X144106794Y-88955767D01*
X143986048Y-88916534D01*
X143889660Y-88885216D01*
X143889658Y-88885215D01*
X143889656Y-88885215D01*
X143664168Y-88849501D01*
X143664159Y-88849500D01*
X143664157Y-88849500D01*
X143435843Y-88849500D01*
X143435840Y-88849500D01*
X143435831Y-88849501D01*
X143210343Y-88885215D01*
X142993205Y-88955767D01*
X142993200Y-88955769D01*
X142789775Y-89059418D01*
X142789774Y-89059419D01*
X142789772Y-89059421D01*
X142706083Y-89120225D01*
X142605065Y-89193619D01*
X142443619Y-89355065D01*
X142309420Y-89539774D01*
X142309418Y-89539775D01*
X142205769Y-89743200D01*
X142205767Y-89743205D01*
X142135215Y-89960342D01*
X142101369Y-90174035D01*
X142067742Y-90265185D01*
X142001793Y-90336528D01*
X141913562Y-90377202D01*
X141858164Y-90384067D01*
X140313558Y-90400995D01*
X140313543Y-90400996D01*
X140220074Y-90410758D01*
X140220054Y-90410761D01*
X140129650Y-90428820D01*
X140082146Y-90440729D01*
X139951772Y-90501614D01*
X139944009Y-90505940D01*
X139943078Y-90504270D01*
X139865040Y-90535732D01*
X139767889Y-90534811D01*
X139691449Y-90505048D01*
X139648724Y-90479623D01*
X139513102Y-90431580D01*
X139513098Y-90431579D01*
X139513095Y-90431578D01*
X139417847Y-90412503D01*
X139319233Y-90402662D01*
X137946904Y-90400889D01*
X137851641Y-90381812D01*
X137770929Y-90327731D01*
X137717057Y-90246880D01*
X137701292Y-90190841D01*
X137673528Y-90015547D01*
X137664784Y-89960340D01*
X137594231Y-89743201D01*
X137490579Y-89539772D01*
X137356379Y-89355063D01*
X137194937Y-89193621D01*
X137010228Y-89059421D01*
X137010224Y-89059419D01*
X137010224Y-89059418D01*
X136806799Y-88955769D01*
X136806794Y-88955767D01*
X136686048Y-88916534D01*
X136589660Y-88885216D01*
X136589658Y-88885215D01*
X136589656Y-88885215D01*
X136364168Y-88849501D01*
X136364159Y-88849500D01*
X136364157Y-88849500D01*
X136135843Y-88849500D01*
X136135840Y-88849500D01*
X136135831Y-88849501D01*
X135910343Y-88885215D01*
X135693205Y-88955767D01*
X135693200Y-88955769D01*
X135489775Y-89059418D01*
X135489774Y-89059419D01*
X135489772Y-89059421D01*
X135406083Y-89120225D01*
X135305065Y-89193619D01*
X135143619Y-89355065D01*
X135009420Y-89539774D01*
X135009418Y-89539775D01*
X134905769Y-89743200D01*
X134905767Y-89743205D01*
X134835215Y-89960343D01*
X134799402Y-90186457D01*
X134765775Y-90277607D01*
X134699826Y-90348950D01*
X134611596Y-90389625D01*
X134553146Y-90396505D01*
X133812558Y-90395547D01*
X133812557Y-90395547D01*
X133794548Y-90397310D01*
X133697867Y-90387724D01*
X133612213Y-90341870D01*
X133550628Y-90266728D01*
X133544842Y-90254484D01*
X133542321Y-90249768D01*
X133540391Y-90246880D01*
X133438302Y-90094092D01*
X133305908Y-89961698D01*
X133305716Y-89961570D01*
X133150231Y-89857678D01*
X133150226Y-89857675D01*
X132977253Y-89786027D01*
X132885433Y-89767763D01*
X132793616Y-89749500D01*
X132606384Y-89749500D01*
X132532930Y-89764110D01*
X132422746Y-89786027D01*
X132249773Y-89857675D01*
X132249768Y-89857678D01*
X132137736Y-89932536D01*
X132047976Y-89969716D01*
X131999399Y-89974500D01*
X127638387Y-89974500D01*
X127577973Y-89986516D01*
X127577974Y-89986517D01*
X127517549Y-89998536D01*
X127517543Y-89998538D01*
X127476482Y-90015545D01*
X127476482Y-90015546D01*
X127476480Y-90015546D01*
X127476479Y-90015547D01*
X127381194Y-90034500D01*
X127199499Y-90034500D01*
X127104211Y-90015546D01*
X127023429Y-89961570D01*
X126969453Y-89880788D01*
X126950499Y-89785500D01*
X126950499Y-89659634D01*
X126950499Y-89659628D01*
X126944091Y-89600017D01*
X126893796Y-89465169D01*
X126807546Y-89349954D01*
X126692331Y-89263704D01*
X126612117Y-89233786D01*
X126557481Y-89213408D01*
X126497873Y-89207000D01*
X124402134Y-89207000D01*
X124402130Y-89207000D01*
X124402128Y-89207001D01*
X124389314Y-89208378D01*
X124342519Y-89213408D01*
X124342515Y-89213409D01*
X124207670Y-89263703D01*
X124092455Y-89349953D01*
X124092453Y-89349955D01*
X124006204Y-89465169D01*
X123955908Y-89600018D01*
X123949500Y-89659623D01*
X123949500Y-89785500D01*
X123930546Y-89880788D01*
X123876570Y-89961570D01*
X123795788Y-90015546D01*
X123700500Y-90034500D01*
X121049499Y-90034500D01*
X120954211Y-90015546D01*
X120873429Y-89961570D01*
X120819453Y-89880788D01*
X120800499Y-89785500D01*
X120800499Y-89659634D01*
X120800499Y-89659628D01*
X120794091Y-89600017D01*
X120743796Y-89465169D01*
X120657546Y-89349954D01*
X120542331Y-89263704D01*
X120462117Y-89233786D01*
X120407481Y-89213408D01*
X120347873Y-89207000D01*
X118252134Y-89207000D01*
X118252130Y-89207000D01*
X118252128Y-89207001D01*
X118239314Y-89208378D01*
X118192519Y-89213408D01*
X118192515Y-89213409D01*
X118057670Y-89263703D01*
X117942455Y-89349953D01*
X117942453Y-89349955D01*
X117856204Y-89465169D01*
X117805908Y-89600018D01*
X117799500Y-89659623D01*
X117799500Y-89785500D01*
X117780546Y-89880788D01*
X117726570Y-89961570D01*
X117645788Y-90015546D01*
X117550500Y-90034500D01*
X117350982Y-90034500D01*
X117255694Y-90015546D01*
X117174912Y-89961570D01*
X117120936Y-89880788D01*
X117101982Y-89785500D01*
X117101982Y-89785057D01*
X117104635Y-88292640D01*
X117123759Y-88197391D01*
X117177563Y-88117021D01*
X117474465Y-87820120D01*
X117573014Y-87672632D01*
X117592896Y-87624632D01*
X117640896Y-87508751D01*
X117675501Y-87334776D01*
X117675501Y-87157393D01*
X117675501Y-87107867D01*
X117675500Y-87107861D01*
X117675500Y-83701138D01*
X117694454Y-83605850D01*
X117748427Y-83525071D01*
X118899463Y-82374036D01*
X118932562Y-82324500D01*
X118998013Y-82226547D01*
X119065894Y-82062666D01*
X119088113Y-81950964D01*
X119093177Y-81925507D01*
X119093178Y-81925500D01*
X119100500Y-81888692D01*
X119100500Y-81711309D01*
X119100500Y-80049000D01*
X119119454Y-79953712D01*
X119173430Y-79872930D01*
X119254212Y-79818954D01*
X119349500Y-79800000D01*
X120462270Y-79800000D01*
X120557558Y-79818954D01*
G37*
%TD.AperFunction*%
%TD*%
%TA.AperFunction,Conductor*%
%TO.N,/Signal Outputs/LED_24V_CH1*%
G36*
X191510666Y-93918954D02*
G01*
X191561734Y-93947553D01*
X191689772Y-94040579D01*
X191689774Y-94040580D01*
X191689775Y-94040581D01*
X191789473Y-94091379D01*
X191893201Y-94144231D01*
X192110340Y-94214784D01*
X192335843Y-94250500D01*
X192335847Y-94250500D01*
X192564153Y-94250500D01*
X192564157Y-94250500D01*
X192789660Y-94214784D01*
X193006799Y-94144231D01*
X193210228Y-94040579D01*
X193338264Y-93947554D01*
X193426493Y-93906880D01*
X193484622Y-93900000D01*
X201648365Y-93900000D01*
X201743653Y-93918954D01*
X201824435Y-93972930D01*
X201878411Y-94053712D01*
X201897365Y-94149000D01*
X201897351Y-94151621D01*
X201800000Y-103399980D01*
X201800000Y-111650500D01*
X201781046Y-111745788D01*
X201727070Y-111826570D01*
X201646288Y-111880546D01*
X201551000Y-111899500D01*
X189654500Y-111899500D01*
X189559212Y-111880546D01*
X189478430Y-111826570D01*
X189424454Y-111745788D01*
X189405500Y-111650500D01*
X189405500Y-107581912D01*
X193589500Y-107581912D01*
X193589500Y-107818087D01*
X193589501Y-107818103D01*
X193626446Y-108051364D01*
X193626447Y-108051368D01*
X193699432Y-108275992D01*
X193792648Y-108458939D01*
X193806659Y-108486437D01*
X193945478Y-108677504D01*
X193945480Y-108677506D01*
X193945483Y-108677510D01*
X194112490Y-108844517D01*
X194112493Y-108844519D01*
X194112495Y-108844521D01*
X194303562Y-108983340D01*
X194303564Y-108983341D01*
X194303567Y-108983343D01*
X194514008Y-109090568D01*
X194738632Y-109163553D01*
X194971908Y-109200500D01*
X194971912Y-109200500D01*
X195208088Y-109200500D01*
X195208092Y-109200500D01*
X195441368Y-109163553D01*
X195665992Y-109090568D01*
X195876433Y-108983343D01*
X196067510Y-108844517D01*
X196234517Y-108677510D01*
X196373343Y-108486433D01*
X196480568Y-108275992D01*
X196553553Y-108051368D01*
X196590500Y-107818092D01*
X196590500Y-107581912D01*
X197399500Y-107581912D01*
X197399500Y-107818087D01*
X197399501Y-107818103D01*
X197436446Y-108051364D01*
X197436447Y-108051368D01*
X197509432Y-108275992D01*
X197602648Y-108458939D01*
X197616659Y-108486437D01*
X197755478Y-108677504D01*
X197755480Y-108677506D01*
X197755483Y-108677510D01*
X197922490Y-108844517D01*
X197922493Y-108844519D01*
X197922495Y-108844521D01*
X198113562Y-108983340D01*
X198113564Y-108983341D01*
X198113567Y-108983343D01*
X198324008Y-109090568D01*
X198548632Y-109163553D01*
X198781908Y-109200500D01*
X198781912Y-109200500D01*
X199018088Y-109200500D01*
X199018092Y-109200500D01*
X199251368Y-109163553D01*
X199475992Y-109090568D01*
X199686433Y-108983343D01*
X199877510Y-108844517D01*
X200044517Y-108677510D01*
X200183343Y-108486433D01*
X200290568Y-108275992D01*
X200363553Y-108051368D01*
X200400500Y-107818092D01*
X200400500Y-107581908D01*
X200363553Y-107348632D01*
X200290568Y-107124008D01*
X200183343Y-106913567D01*
X200183341Y-106913564D01*
X200183340Y-106913562D01*
X200044521Y-106722495D01*
X200044519Y-106722493D01*
X200044517Y-106722490D01*
X199877510Y-106555483D01*
X199877506Y-106555480D01*
X199877504Y-106555478D01*
X199686437Y-106416659D01*
X199672747Y-106409683D01*
X199475992Y-106309432D01*
X199475989Y-106309431D01*
X199475987Y-106309430D01*
X199351079Y-106268845D01*
X199251368Y-106236447D01*
X199251366Y-106236446D01*
X199251364Y-106236446D01*
X199018103Y-106199501D01*
X199018094Y-106199500D01*
X199018092Y-106199500D01*
X198781908Y-106199500D01*
X198781905Y-106199500D01*
X198781896Y-106199501D01*
X198548635Y-106236446D01*
X198324012Y-106309430D01*
X198113562Y-106416659D01*
X197922495Y-106555478D01*
X197755478Y-106722495D01*
X197616659Y-106913562D01*
X197509430Y-107124012D01*
X197436446Y-107348635D01*
X197399501Y-107581896D01*
X197399500Y-107581912D01*
X196590500Y-107581912D01*
X196590500Y-107581908D01*
X196553553Y-107348632D01*
X196480568Y-107124008D01*
X196373343Y-106913567D01*
X196373341Y-106913564D01*
X196373340Y-106913562D01*
X196234521Y-106722495D01*
X196234519Y-106722493D01*
X196234517Y-106722490D01*
X196067510Y-106555483D01*
X196067506Y-106555480D01*
X196067504Y-106555478D01*
X195876437Y-106416659D01*
X195862747Y-106409683D01*
X195665992Y-106309432D01*
X195665989Y-106309431D01*
X195665987Y-106309430D01*
X195541079Y-106268845D01*
X195441368Y-106236447D01*
X195441366Y-106236446D01*
X195441364Y-106236446D01*
X195208103Y-106199501D01*
X195208094Y-106199500D01*
X195208092Y-106199500D01*
X194971908Y-106199500D01*
X194971905Y-106199500D01*
X194971896Y-106199501D01*
X194738635Y-106236446D01*
X194514012Y-106309430D01*
X194303562Y-106416659D01*
X194112495Y-106555478D01*
X193945478Y-106722495D01*
X193806659Y-106913562D01*
X193699430Y-107124012D01*
X193626446Y-107348635D01*
X193589501Y-107581896D01*
X193589500Y-107581912D01*
X189405500Y-107581912D01*
X189405500Y-94149000D01*
X189424454Y-94053712D01*
X189478430Y-93972930D01*
X189559212Y-93918954D01*
X189654500Y-93900000D01*
X191415378Y-93900000D01*
X191510666Y-93918954D01*
G37*
%TD.AperFunction*%
%TD*%
%TA.AperFunction,Conductor*%
%TO.N,/Signal Outputs/LED_24V_CH3*%
G36*
X159139100Y-93840473D02*
G01*
X159234141Y-93860604D01*
X159297726Y-93900113D01*
X159305056Y-93906373D01*
X159305059Y-93906375D01*
X159305063Y-93906379D01*
X159489772Y-94040579D01*
X159489774Y-94040580D01*
X159489775Y-94040581D01*
X159589473Y-94091379D01*
X159693201Y-94144231D01*
X159910340Y-94214784D01*
X160135843Y-94250500D01*
X160135847Y-94250500D01*
X160364153Y-94250500D01*
X160364157Y-94250500D01*
X160589660Y-94214784D01*
X160806799Y-94144231D01*
X161010228Y-94040579D01*
X161182859Y-93915153D01*
X161271087Y-93874480D01*
X161332286Y-93867620D01*
X163195462Y-93890682D01*
X163290505Y-93910814D01*
X163370612Y-93965786D01*
X163423585Y-94047230D01*
X163441373Y-94141016D01*
X163369422Y-107380102D01*
X163349951Y-107475286D01*
X163295536Y-107555773D01*
X163214463Y-107609309D01*
X163119073Y-107627745D01*
X163023889Y-107608274D01*
X162943402Y-107553859D01*
X162889866Y-107472786D01*
X162874493Y-107417705D01*
X162863553Y-107348632D01*
X162790568Y-107124008D01*
X162683343Y-106913567D01*
X162683341Y-106913564D01*
X162683340Y-106913562D01*
X162544521Y-106722495D01*
X162544519Y-106722493D01*
X162544517Y-106722490D01*
X162377510Y-106555483D01*
X162377506Y-106555480D01*
X162377504Y-106555478D01*
X162186437Y-106416659D01*
X162172747Y-106409683D01*
X161975992Y-106309432D01*
X161975989Y-106309431D01*
X161975987Y-106309430D01*
X161851079Y-106268845D01*
X161751368Y-106236447D01*
X161751366Y-106236446D01*
X161751364Y-106236446D01*
X161518103Y-106199501D01*
X161518094Y-106199500D01*
X161518092Y-106199500D01*
X161281908Y-106199500D01*
X161281905Y-106199500D01*
X161281896Y-106199501D01*
X161048635Y-106236446D01*
X160824012Y-106309430D01*
X160613562Y-106416659D01*
X160422495Y-106555478D01*
X160255478Y-106722495D01*
X160116659Y-106913562D01*
X160009430Y-107124012D01*
X159936446Y-107348635D01*
X159899501Y-107581896D01*
X159899500Y-107581912D01*
X159899500Y-107818087D01*
X159899501Y-107818103D01*
X159935507Y-108045433D01*
X159936447Y-108051368D01*
X160009432Y-108275992D01*
X160102648Y-108458939D01*
X160116659Y-108486437D01*
X160255478Y-108677504D01*
X160255480Y-108677506D01*
X160255483Y-108677510D01*
X160422490Y-108844517D01*
X160422493Y-108844519D01*
X160422495Y-108844521D01*
X160613562Y-108983340D01*
X160613564Y-108983341D01*
X160613567Y-108983343D01*
X160824008Y-109090568D01*
X161048632Y-109163553D01*
X161281908Y-109200500D01*
X161281912Y-109200500D01*
X161518088Y-109200500D01*
X161518092Y-109200500D01*
X161751368Y-109163553D01*
X161975992Y-109090568D01*
X162186433Y-108983343D01*
X162377510Y-108844517D01*
X162544517Y-108677510D01*
X162683343Y-108486433D01*
X162790568Y-108275992D01*
X162863553Y-108051368D01*
X162870876Y-108005126D01*
X162904503Y-107913978D01*
X162970452Y-107842635D01*
X163058682Y-107801960D01*
X163155762Y-107798145D01*
X163246913Y-107831772D01*
X163318256Y-107897721D01*
X163358931Y-107985951D01*
X163365807Y-108045433D01*
X163346236Y-111646580D01*
X163346231Y-111647525D01*
X163346232Y-111647526D01*
X163346221Y-111651238D01*
X163326985Y-111746469D01*
X163272769Y-111827091D01*
X163191828Y-111880827D01*
X163097222Y-111899500D01*
X151358857Y-111899500D01*
X151263569Y-111880546D01*
X151182787Y-111826570D01*
X151128811Y-111745788D01*
X151109857Y-111650500D01*
X151109916Y-111645074D01*
X151198479Y-107581912D01*
X156089500Y-107581912D01*
X156089500Y-107818087D01*
X156089501Y-107818103D01*
X156125507Y-108045433D01*
X156126447Y-108051368D01*
X156199432Y-108275992D01*
X156292648Y-108458939D01*
X156306659Y-108486437D01*
X156445478Y-108677504D01*
X156445480Y-108677506D01*
X156445483Y-108677510D01*
X156612490Y-108844517D01*
X156612493Y-108844519D01*
X156612495Y-108844521D01*
X156803562Y-108983340D01*
X156803564Y-108983341D01*
X156803567Y-108983343D01*
X157014008Y-109090568D01*
X157238632Y-109163553D01*
X157471908Y-109200500D01*
X157471912Y-109200500D01*
X157708088Y-109200500D01*
X157708092Y-109200500D01*
X157941368Y-109163553D01*
X158165992Y-109090568D01*
X158376433Y-108983343D01*
X158567510Y-108844517D01*
X158734517Y-108677510D01*
X158873343Y-108486433D01*
X158980568Y-108275992D01*
X159053553Y-108051368D01*
X159090500Y-107818092D01*
X159090500Y-107581908D01*
X159053553Y-107348632D01*
X158980568Y-107124008D01*
X158873343Y-106913567D01*
X158873341Y-106913564D01*
X158873340Y-106913562D01*
X158734521Y-106722495D01*
X158734519Y-106722493D01*
X158734517Y-106722490D01*
X158567510Y-106555483D01*
X158567506Y-106555480D01*
X158567504Y-106555478D01*
X158376437Y-106416659D01*
X158362747Y-106409683D01*
X158165992Y-106309432D01*
X158165989Y-106309431D01*
X158165987Y-106309430D01*
X158041079Y-106268845D01*
X157941368Y-106236447D01*
X157941366Y-106236446D01*
X157941364Y-106236446D01*
X157708103Y-106199501D01*
X157708094Y-106199500D01*
X157708092Y-106199500D01*
X157471908Y-106199500D01*
X157471905Y-106199500D01*
X157471896Y-106199501D01*
X157238635Y-106236446D01*
X157014012Y-106309430D01*
X156803562Y-106416659D01*
X156612495Y-106555478D01*
X156445478Y-106722495D01*
X156306659Y-106913562D01*
X156199430Y-107124012D01*
X156126446Y-107348635D01*
X156089501Y-107581896D01*
X156089500Y-107581912D01*
X151198479Y-107581912D01*
X151198811Y-107566699D01*
X151291811Y-103300000D01*
X151494682Y-93992521D01*
X151515708Y-93897672D01*
X151571432Y-93818086D01*
X151653370Y-93765883D01*
X151746705Y-93748970D01*
X159139100Y-93840473D01*
G37*
%TD.AperFunction*%
%TD*%
%TA.AperFunction,Conductor*%
%TO.N,/Signal Outputs/LED_24V_CH4*%
G36*
X166510666Y-93918954D02*
G01*
X166561734Y-93947553D01*
X166689772Y-94040579D01*
X166689774Y-94040580D01*
X166689775Y-94040581D01*
X166789473Y-94091379D01*
X166893201Y-94144231D01*
X167110340Y-94214784D01*
X167335843Y-94250500D01*
X167335847Y-94250500D01*
X167564153Y-94250500D01*
X167564157Y-94250500D01*
X167789660Y-94214784D01*
X168006799Y-94144231D01*
X168210228Y-94040579D01*
X168338264Y-93947554D01*
X168426493Y-93906880D01*
X168484622Y-93900000D01*
X176195937Y-93900000D01*
X176291225Y-93918954D01*
X176372007Y-93972930D01*
X176425983Y-94053712D01*
X176444937Y-94149000D01*
X176444933Y-94150361D01*
X176371551Y-107579152D01*
X176371319Y-107621680D01*
X176371319Y-107621683D01*
X176349326Y-111646206D01*
X176349326Y-111646377D01*
X176349320Y-111647653D01*
X176349320Y-111647798D01*
X176349310Y-111651221D01*
X176330080Y-111746454D01*
X176275870Y-111827079D01*
X176194933Y-111880821D01*
X176100311Y-111899500D01*
X164100726Y-111899500D01*
X164005438Y-111880546D01*
X163924656Y-111826570D01*
X163870680Y-111745788D01*
X163851726Y-111650500D01*
X163851730Y-111649147D01*
X163873834Y-107581912D01*
X168589500Y-107581912D01*
X168589500Y-107818087D01*
X168589501Y-107818103D01*
X168626446Y-108051364D01*
X168626447Y-108051368D01*
X168699432Y-108275992D01*
X168792648Y-108458939D01*
X168806659Y-108486437D01*
X168945478Y-108677504D01*
X168945480Y-108677506D01*
X168945483Y-108677510D01*
X169112490Y-108844517D01*
X169112493Y-108844519D01*
X169112495Y-108844521D01*
X169303562Y-108983340D01*
X169303564Y-108983341D01*
X169303567Y-108983343D01*
X169514008Y-109090568D01*
X169738632Y-109163553D01*
X169971908Y-109200500D01*
X169971912Y-109200500D01*
X170208088Y-109200500D01*
X170208092Y-109200500D01*
X170441368Y-109163553D01*
X170665992Y-109090568D01*
X170876433Y-108983343D01*
X171067510Y-108844517D01*
X171234517Y-108677510D01*
X171373343Y-108486433D01*
X171480568Y-108275992D01*
X171553553Y-108051368D01*
X171590500Y-107818092D01*
X171590500Y-107581912D01*
X172399500Y-107581912D01*
X172399500Y-107818087D01*
X172399501Y-107818103D01*
X172436446Y-108051364D01*
X172436447Y-108051368D01*
X172509432Y-108275992D01*
X172602648Y-108458939D01*
X172616659Y-108486437D01*
X172755478Y-108677504D01*
X172755480Y-108677506D01*
X172755483Y-108677510D01*
X172922490Y-108844517D01*
X172922493Y-108844519D01*
X172922495Y-108844521D01*
X173113562Y-108983340D01*
X173113564Y-108983341D01*
X173113567Y-108983343D01*
X173324008Y-109090568D01*
X173548632Y-109163553D01*
X173781908Y-109200500D01*
X173781912Y-109200500D01*
X174018088Y-109200500D01*
X174018092Y-109200500D01*
X174251368Y-109163553D01*
X174475992Y-109090568D01*
X174686433Y-108983343D01*
X174877510Y-108844517D01*
X175044517Y-108677510D01*
X175183343Y-108486433D01*
X175290568Y-108275992D01*
X175363553Y-108051368D01*
X175400500Y-107818092D01*
X175400500Y-107581908D01*
X175363553Y-107348632D01*
X175290568Y-107124008D01*
X175183343Y-106913567D01*
X175183341Y-106913564D01*
X175183340Y-106913562D01*
X175044521Y-106722495D01*
X175044519Y-106722493D01*
X175044517Y-106722490D01*
X174877510Y-106555483D01*
X174877506Y-106555480D01*
X174877504Y-106555478D01*
X174686437Y-106416659D01*
X174672747Y-106409683D01*
X174475992Y-106309432D01*
X174475989Y-106309431D01*
X174475987Y-106309430D01*
X174351079Y-106268845D01*
X174251368Y-106236447D01*
X174251366Y-106236446D01*
X174251364Y-106236446D01*
X174018103Y-106199501D01*
X174018094Y-106199500D01*
X174018092Y-106199500D01*
X173781908Y-106199500D01*
X173781905Y-106199500D01*
X173781896Y-106199501D01*
X173548635Y-106236446D01*
X173324012Y-106309430D01*
X173113562Y-106416659D01*
X172922495Y-106555478D01*
X172755478Y-106722495D01*
X172616659Y-106913562D01*
X172509430Y-107124012D01*
X172436446Y-107348635D01*
X172399501Y-107581896D01*
X172399500Y-107581912D01*
X171590500Y-107581912D01*
X171590500Y-107581908D01*
X171553553Y-107348632D01*
X171480568Y-107124008D01*
X171373343Y-106913567D01*
X171373341Y-106913564D01*
X171373340Y-106913562D01*
X171234521Y-106722495D01*
X171234519Y-106722493D01*
X171234517Y-106722490D01*
X171067510Y-106555483D01*
X171067506Y-106555480D01*
X171067504Y-106555478D01*
X170876437Y-106416659D01*
X170862747Y-106409683D01*
X170665992Y-106309432D01*
X170665989Y-106309431D01*
X170665987Y-106309430D01*
X170541079Y-106268845D01*
X170441368Y-106236447D01*
X170441366Y-106236446D01*
X170441364Y-106236446D01*
X170208103Y-106199501D01*
X170208094Y-106199500D01*
X170208092Y-106199500D01*
X169971908Y-106199500D01*
X169971905Y-106199500D01*
X169971896Y-106199501D01*
X169738635Y-106236446D01*
X169514012Y-106309430D01*
X169303562Y-106416659D01*
X169112495Y-106555478D01*
X168945478Y-106722495D01*
X168806659Y-106913562D01*
X168699430Y-107124012D01*
X168626446Y-107348635D01*
X168589501Y-107581896D01*
X168589500Y-107581912D01*
X163873834Y-107581912D01*
X163873895Y-107570772D01*
X163946846Y-94147647D01*
X163966317Y-94052463D01*
X164020732Y-93971976D01*
X164101805Y-93918440D01*
X164195842Y-93900000D01*
X166415378Y-93900000D01*
X166510666Y-93918954D01*
G37*
%TD.AperFunction*%
%TD*%
%TA.AperFunction,Conductor*%
%TO.N,/Signal Outputs/LED_24V_CH2*%
G36*
X184310666Y-93918954D02*
G01*
X184361734Y-93947553D01*
X184489772Y-94040579D01*
X184489774Y-94040580D01*
X184489775Y-94040581D01*
X184589473Y-94091379D01*
X184693201Y-94144231D01*
X184910340Y-94214784D01*
X185135843Y-94250500D01*
X185135847Y-94250500D01*
X185364153Y-94250500D01*
X185364157Y-94250500D01*
X185589660Y-94214784D01*
X185806799Y-94144231D01*
X186010228Y-94040579D01*
X186138264Y-93947554D01*
X186226493Y-93906880D01*
X186284622Y-93900000D01*
X188651000Y-93900000D01*
X188746288Y-93918954D01*
X188827070Y-93972930D01*
X188881046Y-94053712D01*
X188900000Y-94149000D01*
X188900000Y-111650500D01*
X188881046Y-111745788D01*
X188827070Y-111826570D01*
X188746288Y-111880546D01*
X188651000Y-111899500D01*
X177103814Y-111899500D01*
X177008526Y-111880546D01*
X176927744Y-111826570D01*
X176873768Y-111745788D01*
X176854814Y-111650500D01*
X176854818Y-111649139D01*
X176877043Y-107581912D01*
X181089500Y-107581912D01*
X181089500Y-107818087D01*
X181089501Y-107818103D01*
X181126446Y-108051364D01*
X181126447Y-108051368D01*
X181199432Y-108275992D01*
X181299683Y-108472747D01*
X181306659Y-108486437D01*
X181445478Y-108677504D01*
X181445480Y-108677506D01*
X181445483Y-108677510D01*
X181612490Y-108844517D01*
X181612493Y-108844519D01*
X181612495Y-108844521D01*
X181803562Y-108983340D01*
X181803564Y-108983341D01*
X181803567Y-108983343D01*
X182014008Y-109090568D01*
X182238632Y-109163553D01*
X182471908Y-109200500D01*
X182471912Y-109200500D01*
X182708088Y-109200500D01*
X182708092Y-109200500D01*
X182941368Y-109163553D01*
X183165992Y-109090568D01*
X183376433Y-108983343D01*
X183567510Y-108844517D01*
X183734517Y-108677510D01*
X183873343Y-108486433D01*
X183980568Y-108275992D01*
X184053553Y-108051368D01*
X184090500Y-107818092D01*
X184090500Y-107581912D01*
X184899500Y-107581912D01*
X184899500Y-107818087D01*
X184899501Y-107818103D01*
X184936446Y-108051364D01*
X184936447Y-108051368D01*
X185009432Y-108275992D01*
X185109683Y-108472747D01*
X185116659Y-108486437D01*
X185255478Y-108677504D01*
X185255480Y-108677506D01*
X185255483Y-108677510D01*
X185422490Y-108844517D01*
X185422493Y-108844519D01*
X185422495Y-108844521D01*
X185613562Y-108983340D01*
X185613564Y-108983341D01*
X185613567Y-108983343D01*
X185824008Y-109090568D01*
X186048632Y-109163553D01*
X186281908Y-109200500D01*
X186281912Y-109200500D01*
X186518088Y-109200500D01*
X186518092Y-109200500D01*
X186751368Y-109163553D01*
X186975992Y-109090568D01*
X187186433Y-108983343D01*
X187377510Y-108844517D01*
X187544517Y-108677510D01*
X187683343Y-108486433D01*
X187790568Y-108275992D01*
X187863553Y-108051368D01*
X187900500Y-107818092D01*
X187900500Y-107581908D01*
X187863553Y-107348632D01*
X187790568Y-107124008D01*
X187683343Y-106913567D01*
X187683341Y-106913564D01*
X187683340Y-106913562D01*
X187544521Y-106722495D01*
X187544519Y-106722493D01*
X187544517Y-106722490D01*
X187377510Y-106555483D01*
X187377506Y-106555480D01*
X187377504Y-106555478D01*
X187186437Y-106416659D01*
X187172747Y-106409683D01*
X186975992Y-106309432D01*
X186975989Y-106309431D01*
X186975987Y-106309430D01*
X186851079Y-106268845D01*
X186751368Y-106236447D01*
X186751366Y-106236446D01*
X186751364Y-106236446D01*
X186518103Y-106199501D01*
X186518094Y-106199500D01*
X186518092Y-106199500D01*
X186281908Y-106199500D01*
X186281905Y-106199500D01*
X186281896Y-106199501D01*
X186048635Y-106236446D01*
X185824012Y-106309430D01*
X185613562Y-106416659D01*
X185422495Y-106555478D01*
X185255478Y-106722495D01*
X185116659Y-106913562D01*
X185009430Y-107124012D01*
X184936446Y-107348635D01*
X184899501Y-107581896D01*
X184899500Y-107581912D01*
X184090500Y-107581912D01*
X184090500Y-107581908D01*
X184053553Y-107348632D01*
X183980568Y-107124008D01*
X183873343Y-106913567D01*
X183873341Y-106913564D01*
X183873340Y-106913562D01*
X183734521Y-106722495D01*
X183734519Y-106722493D01*
X183734517Y-106722490D01*
X183567510Y-106555483D01*
X183567506Y-106555480D01*
X183567504Y-106555478D01*
X183376437Y-106416659D01*
X183362747Y-106409683D01*
X183165992Y-106309432D01*
X183165989Y-106309431D01*
X183165987Y-106309430D01*
X183041079Y-106268845D01*
X182941368Y-106236447D01*
X182941366Y-106236446D01*
X182941364Y-106236446D01*
X182708103Y-106199501D01*
X182708094Y-106199500D01*
X182708092Y-106199500D01*
X182471908Y-106199500D01*
X182471905Y-106199500D01*
X182471896Y-106199501D01*
X182238635Y-106236446D01*
X182014012Y-106309430D01*
X181803562Y-106416659D01*
X181612495Y-106555478D01*
X181445478Y-106722495D01*
X181306659Y-106913562D01*
X181199430Y-107124012D01*
X181126446Y-107348635D01*
X181089501Y-107581896D01*
X181089500Y-107581912D01*
X176877043Y-107581912D01*
X176950088Y-94214784D01*
X176950455Y-94147639D01*
X176969929Y-94052456D01*
X177024346Y-93971971D01*
X177105421Y-93918437D01*
X177199451Y-93900000D01*
X184215378Y-93900000D01*
X184310666Y-93918954D01*
G37*
%TD.AperFunction*%
%TD*%
%TA.AperFunction,Conductor*%
%TO.N,+24V*%
G36*
X117636496Y-91710635D02*
G01*
X117644090Y-91709599D01*
X117683900Y-91720064D01*
X117724268Y-91728094D01*
X117730639Y-91732351D01*
X117738053Y-91734300D01*
X117770829Y-91759205D01*
X117805050Y-91782070D01*
X117809307Y-91788442D01*
X117815410Y-91793079D01*
X117846100Y-91827743D01*
X117856204Y-91854831D01*
X117942454Y-91970046D01*
X118030348Y-92035843D01*
X118047199Y-92054876D01*
X118096173Y-92138785D01*
X118109310Y-92235047D01*
X118084609Y-92329010D01*
X118062215Y-92366295D01*
X118009784Y-92438459D01*
X117905952Y-92642241D01*
X117905949Y-92642248D01*
X117835277Y-92859757D01*
X117799500Y-93085636D01*
X117799500Y-93314363D01*
X117835277Y-93540242D01*
X117905949Y-93757751D01*
X117905952Y-93757758D01*
X118003974Y-93950138D01*
X118009785Y-93961541D01*
X118144211Y-94146562D01*
X118144214Y-94146566D01*
X118305934Y-94308286D01*
X118490962Y-94442717D01*
X118694742Y-94546548D01*
X118912255Y-94617222D01*
X118991703Y-94629805D01*
X119138136Y-94652999D01*
X119138143Y-94652999D01*
X119138146Y-94653000D01*
X119138149Y-94653000D01*
X119461851Y-94653000D01*
X119461854Y-94653000D01*
X119461857Y-94652999D01*
X119461863Y-94652999D01*
X119568572Y-94636097D01*
X119687745Y-94617222D01*
X119905258Y-94546548D01*
X120109038Y-94442717D01*
X120294066Y-94308286D01*
X120455786Y-94146566D01*
X120590217Y-93961538D01*
X120694048Y-93757758D01*
X120764722Y-93540245D01*
X120800500Y-93314354D01*
X120800500Y-93085646D01*
X120800499Y-93085643D01*
X120800499Y-93085636D01*
X120764722Y-92859757D01*
X120764722Y-92859755D01*
X120694048Y-92642242D01*
X120590217Y-92438462D01*
X120537786Y-92366297D01*
X120497110Y-92278066D01*
X120493295Y-92180986D01*
X120526922Y-92089836D01*
X120552801Y-92054876D01*
X120569652Y-92035843D01*
X120657546Y-91970046D01*
X120743796Y-91854831D01*
X120753898Y-91827744D01*
X120784591Y-91793079D01*
X120787207Y-91791090D01*
X120788937Y-91788297D01*
X120825792Y-91761772D01*
X120861948Y-91734300D01*
X120865125Y-91733464D01*
X120867793Y-91731545D01*
X120912004Y-91721140D01*
X120955910Y-91709599D01*
X120959164Y-91710043D01*
X120962365Y-91709290D01*
X120971020Y-91709140D01*
X123778980Y-91709140D01*
X123874268Y-91728094D01*
X123955050Y-91782070D01*
X123994412Y-91840980D01*
X123997670Y-91839202D01*
X124006202Y-91854827D01*
X124006203Y-91854828D01*
X124006204Y-91854831D01*
X124092454Y-91970046D01*
X124159991Y-92020604D01*
X124224913Y-92092880D01*
X124257235Y-92184501D01*
X124252034Y-92281517D01*
X124212215Y-92366295D01*
X124159784Y-92438459D01*
X124055952Y-92642241D01*
X124055949Y-92642248D01*
X123985277Y-92859757D01*
X123949500Y-93085636D01*
X123949500Y-93314363D01*
X123985277Y-93540242D01*
X124055949Y-93757751D01*
X124055952Y-93757758D01*
X124153974Y-93950138D01*
X124159785Y-93961541D01*
X124294211Y-94146562D01*
X124294214Y-94146566D01*
X124455934Y-94308286D01*
X124640962Y-94442717D01*
X124844742Y-94546548D01*
X125062255Y-94617222D01*
X125141703Y-94629805D01*
X125288136Y-94652999D01*
X125288143Y-94652999D01*
X125288146Y-94653000D01*
X125288149Y-94653000D01*
X125611851Y-94653000D01*
X125611854Y-94653000D01*
X125611857Y-94652999D01*
X125611863Y-94652999D01*
X125718572Y-94636097D01*
X125837745Y-94617222D01*
X126055258Y-94546548D01*
X126259038Y-94442717D01*
X126444066Y-94308286D01*
X126605786Y-94146566D01*
X126740217Y-93961538D01*
X126844048Y-93757758D01*
X126914722Y-93540245D01*
X126950500Y-93314354D01*
X126950500Y-93085646D01*
X126950499Y-93085643D01*
X126950499Y-93085636D01*
X126914722Y-92859757D01*
X126914722Y-92859755D01*
X126844048Y-92642242D01*
X126740217Y-92438462D01*
X126687786Y-92366297D01*
X126647110Y-92278066D01*
X126643295Y-92180986D01*
X126676922Y-92089836D01*
X126702801Y-92054876D01*
X126719652Y-92035843D01*
X126807546Y-91970046D01*
X126893796Y-91854831D01*
X126903898Y-91827744D01*
X126934591Y-91793079D01*
X126937207Y-91791090D01*
X126938937Y-91788297D01*
X126975792Y-91761772D01*
X127011948Y-91734300D01*
X127015125Y-91733464D01*
X127017793Y-91731545D01*
X127062004Y-91721140D01*
X127105910Y-91709599D01*
X127109164Y-91710043D01*
X127112365Y-91709290D01*
X127121020Y-91709140D01*
X127867441Y-91709140D01*
X127962729Y-91728094D01*
X128043511Y-91782070D01*
X128097487Y-91862852D01*
X128116441Y-91958140D01*
X128116438Y-91959308D01*
X128047828Y-106579614D01*
X128047828Y-106579617D01*
X128047661Y-106615119D01*
X128024047Y-111647080D01*
X128024043Y-111648181D01*
X128024036Y-111651113D01*
X128004848Y-111746354D01*
X127950673Y-111827003D01*
X127869758Y-111880780D01*
X127775037Y-111899500D01*
X106849500Y-111899500D01*
X106754212Y-111880546D01*
X106673430Y-111826570D01*
X106619454Y-111745788D01*
X106600500Y-111650500D01*
X106600500Y-108881912D01*
X110299500Y-108881912D01*
X110299500Y-109118087D01*
X110299501Y-109118103D01*
X110336446Y-109351364D01*
X110336447Y-109351368D01*
X110409432Y-109575992D01*
X110509683Y-109772747D01*
X110516659Y-109786437D01*
X110655478Y-109977504D01*
X110655480Y-109977506D01*
X110655483Y-109977510D01*
X110822490Y-110144517D01*
X110822493Y-110144519D01*
X110822495Y-110144521D01*
X111013562Y-110283340D01*
X111013564Y-110283341D01*
X111013567Y-110283343D01*
X111224008Y-110390568D01*
X111448632Y-110463553D01*
X111681908Y-110500500D01*
X111681912Y-110500500D01*
X111918088Y-110500500D01*
X111918092Y-110500500D01*
X112151368Y-110463553D01*
X112375992Y-110390568D01*
X112586433Y-110283343D01*
X112777510Y-110144517D01*
X112944517Y-109977510D01*
X113083343Y-109786433D01*
X113190568Y-109575992D01*
X113263553Y-109351368D01*
X113300500Y-109118092D01*
X113300500Y-108881908D01*
X113263553Y-108648632D01*
X113190568Y-108424008D01*
X113083343Y-108213567D01*
X113083341Y-108213564D01*
X113083340Y-108213562D01*
X112944521Y-108022495D01*
X112944519Y-108022493D01*
X112944517Y-108022490D01*
X112777510Y-107855483D01*
X112777506Y-107855480D01*
X112777504Y-107855478D01*
X112586437Y-107716659D01*
X112572747Y-107709683D01*
X112375992Y-107609432D01*
X112375989Y-107609431D01*
X112375987Y-107609430D01*
X112251079Y-107568845D01*
X112151368Y-107536447D01*
X112151366Y-107536446D01*
X112151364Y-107536446D01*
X111918103Y-107499501D01*
X111918094Y-107499500D01*
X111918092Y-107499500D01*
X111681908Y-107499500D01*
X111681905Y-107499500D01*
X111681896Y-107499501D01*
X111448635Y-107536446D01*
X111224012Y-107609430D01*
X111013562Y-107716659D01*
X110822495Y-107855478D01*
X110655478Y-108022495D01*
X110516659Y-108213562D01*
X110409430Y-108424012D01*
X110336446Y-108648635D01*
X110299501Y-108881896D01*
X110299500Y-108881912D01*
X106600500Y-108881912D01*
X106600500Y-106181989D01*
X123599500Y-106181989D01*
X123599500Y-106418011D01*
X123630307Y-106652014D01*
X123665909Y-106784881D01*
X123691393Y-106879989D01*
X123691394Y-106879992D01*
X123781713Y-107098043D01*
X123781718Y-107098054D01*
X123883296Y-107273991D01*
X123899727Y-107302450D01*
X124043408Y-107489699D01*
X124210301Y-107656592D01*
X124397550Y-107800273D01*
X124397559Y-107800278D01*
X124601945Y-107918281D01*
X124601948Y-107918282D01*
X124601951Y-107918284D01*
X124820007Y-108008606D01*
X125047986Y-108069693D01*
X125281989Y-108100500D01*
X125518011Y-108100500D01*
X125752014Y-108069693D01*
X125979993Y-108008606D01*
X126198049Y-107918284D01*
X126402450Y-107800273D01*
X126589699Y-107656592D01*
X126756592Y-107489699D01*
X126900273Y-107302450D01*
X127018284Y-107098049D01*
X127108606Y-106879993D01*
X127169693Y-106652014D01*
X127200500Y-106418011D01*
X127200500Y-106181989D01*
X127169693Y-105947986D01*
X127108606Y-105720007D01*
X127018284Y-105501951D01*
X126900273Y-105297550D01*
X126756592Y-105110301D01*
X126589699Y-104943408D01*
X126402450Y-104799727D01*
X126402440Y-104799721D01*
X126198054Y-104681718D01*
X126198043Y-104681713D01*
X126077222Y-104631667D01*
X125979993Y-104591394D01*
X125752014Y-104530307D01*
X125752007Y-104530306D01*
X125518011Y-104499500D01*
X125281989Y-104499500D01*
X125047992Y-104530306D01*
X125047990Y-104530306D01*
X125047986Y-104530307D01*
X124875640Y-104576487D01*
X124820010Y-104591393D01*
X124820007Y-104591394D01*
X124601956Y-104681713D01*
X124601945Y-104681718D01*
X124397559Y-104799721D01*
X124397549Y-104799727D01*
X124210301Y-104943408D01*
X124210297Y-104943411D01*
X124043411Y-105110297D01*
X124043408Y-105110301D01*
X123899727Y-105297549D01*
X123899721Y-105297559D01*
X123781718Y-105501945D01*
X123781713Y-105501956D01*
X123732432Y-105620932D01*
X123691394Y-105720007D01*
X123630307Y-105947986D01*
X123599500Y-106181989D01*
X106600500Y-106181989D01*
X106600500Y-96341446D01*
X106619454Y-96246158D01*
X106673430Y-96165376D01*
X106754212Y-96111400D01*
X106849500Y-96092446D01*
X106944788Y-96111400D01*
X106980218Y-96129517D01*
X106981342Y-96130210D01*
X106981344Y-96130212D01*
X107130666Y-96222314D01*
X107130669Y-96222315D01*
X107130667Y-96222315D01*
X107294310Y-96276540D01*
X107297203Y-96277499D01*
X107399991Y-96288000D01*
X110400008Y-96287999D01*
X110502797Y-96277499D01*
X110669334Y-96222314D01*
X110818656Y-96130212D01*
X110942712Y-96006156D01*
X111034814Y-95856834D01*
X111089999Y-95690297D01*
X111100500Y-95587509D01*
X111100499Y-94862492D01*
X111089999Y-94759703D01*
X111042785Y-94617222D01*
X111030253Y-94579401D01*
X111031668Y-94578932D01*
X111012428Y-94500324D01*
X111027201Y-94404299D01*
X111077598Y-94321237D01*
X111085097Y-94313401D01*
X111624433Y-93774065D01*
X111705212Y-93720092D01*
X111800500Y-93701138D01*
X111895788Y-93720092D01*
X111976570Y-93774068D01*
X112030546Y-93854850D01*
X112049500Y-93950138D01*
X112049500Y-96000006D01*
X112060001Y-96102800D01*
X112099605Y-96222314D01*
X112115186Y-96269334D01*
X112207288Y-96418656D01*
X112226572Y-96437940D01*
X112280546Y-96518719D01*
X112299500Y-96614007D01*
X112299500Y-96741400D01*
X112288777Y-96813684D01*
X112286028Y-96822745D01*
X112286027Y-96822748D01*
X112286027Y-96822749D01*
X112249501Y-97006380D01*
X112249500Y-97006385D01*
X112249500Y-97193614D01*
X112286027Y-97377253D01*
X112357675Y-97550226D01*
X112357678Y-97550231D01*
X112461698Y-97705908D01*
X112594092Y-97838302D01*
X112749769Y-97942322D01*
X112749771Y-97942322D01*
X112749773Y-97942324D01*
X112922746Y-98013972D01*
X112922747Y-98013972D01*
X112922749Y-98013973D01*
X113106384Y-98050500D01*
X113106386Y-98050500D01*
X113293614Y-98050500D01*
X113293616Y-98050500D01*
X113477251Y-98013973D01*
X113650231Y-97942322D01*
X113805908Y-97838302D01*
X113938302Y-97705908D01*
X114042322Y-97550231D01*
X114113973Y-97377251D01*
X114150500Y-97193616D01*
X114150500Y-97006384D01*
X114148848Y-96998077D01*
X114148847Y-96900922D01*
X114186027Y-96811163D01*
X114254725Y-96742464D01*
X114344485Y-96705284D01*
X114393063Y-96700499D01*
X114650006Y-96700499D01*
X114650008Y-96700499D01*
X114752797Y-96689999D01*
X114919334Y-96634814D01*
X115068656Y-96542712D01*
X115192712Y-96418656D01*
X115284814Y-96269334D01*
X115339999Y-96102797D01*
X115350500Y-96000009D01*
X115350499Y-93899992D01*
X115345372Y-93849802D01*
X115354544Y-93753083D01*
X115400032Y-93667235D01*
X115474910Y-93605328D01*
X115567779Y-93576789D01*
X115593083Y-93575500D01*
X116056610Y-93575500D01*
X116056616Y-93575500D01*
X116056623Y-93575499D01*
X116056630Y-93575499D01*
X116127188Y-93569087D01*
X116127189Y-93569086D01*
X116127196Y-93569086D01*
X116289606Y-93518478D01*
X116435185Y-93430472D01*
X116555472Y-93310185D01*
X116643478Y-93164606D01*
X116694086Y-93002196D01*
X116700500Y-92931616D01*
X116700500Y-92268384D01*
X116700499Y-92268369D01*
X116694087Y-92197811D01*
X116694086Y-92197808D01*
X116694086Y-92197804D01*
X116643478Y-92035394D01*
X116642488Y-92032216D01*
X116632236Y-91935604D01*
X116659736Y-91842422D01*
X116720802Y-91766858D01*
X116806138Y-91720414D01*
X116880214Y-91709140D01*
X117628980Y-91709140D01*
X117636496Y-91710635D01*
G37*
%TD.AperFunction*%
%TA.AperFunction,Conductor*%
G36*
X108845647Y-93518954D02*
G01*
X108926429Y-93572930D01*
X108980405Y-93653712D01*
X108999359Y-93749000D01*
X108980405Y-93844288D01*
X108926429Y-93925070D01*
X108926428Y-93925070D01*
X108762427Y-94089070D01*
X108681645Y-94143046D01*
X108586358Y-94162000D01*
X107399993Y-94162000D01*
X107297199Y-94172501D01*
X107130665Y-94227685D01*
X107130664Y-94227686D01*
X106980217Y-94320482D01*
X106889165Y-94354373D01*
X106792075Y-94350841D01*
X106703726Y-94310422D01*
X106637571Y-94239270D01*
X106603680Y-94148218D01*
X106600500Y-94108553D01*
X106600500Y-93749000D01*
X106619454Y-93653712D01*
X106673430Y-93572930D01*
X106754212Y-93518954D01*
X106849500Y-93500000D01*
X108750359Y-93500000D01*
X108845647Y-93518954D01*
G37*
%TD.AperFunction*%
%TD*%
M02*
