%TF.GenerationSoftware,KiCad,Pcbnew,9.0.8*%
%TF.CreationDate,2026-03-21T06:29:11-06:00*%
%TF.ProjectId,afterglo-controller,61667465-7267-46c6-9f2d-636f6e74726f,rev?*%
%TF.SameCoordinates,Original*%
%TF.FileFunction,Legend,Top*%
%TF.FilePolarity,Positive*%
%FSLAX46Y46*%
G04 Gerber Fmt 4.6, Leading zero omitted, Abs format (unit mm)*
G04 Created by KiCad (PCBNEW 9.0.8) date 2026-03-21 06:29:11*
%MOMM*%
%LPD*%
G01*
G04 APERTURE LIST*
%ADD10C,0.150000*%
%ADD11C,0.120000*%
G04 APERTURE END LIST*
D10*
X107038095Y-90906819D02*
X107609523Y-90906819D01*
X107323809Y-91906819D02*
X107323809Y-90906819D01*
X107942857Y-91906819D02*
X107942857Y-90906819D01*
X107942857Y-90906819D02*
X108323809Y-90906819D01*
X108323809Y-90906819D02*
X108419047Y-90954438D01*
X108419047Y-90954438D02*
X108466666Y-91002057D01*
X108466666Y-91002057D02*
X108514285Y-91097295D01*
X108514285Y-91097295D02*
X108514285Y-91240152D01*
X108514285Y-91240152D02*
X108466666Y-91335390D01*
X108466666Y-91335390D02*
X108419047Y-91383009D01*
X108419047Y-91383009D02*
X108323809Y-91430628D01*
X108323809Y-91430628D02*
X107942857Y-91430628D01*
X109466666Y-91906819D02*
X108895238Y-91906819D01*
X109180952Y-91906819D02*
X109180952Y-90906819D01*
X109180952Y-90906819D02*
X109085714Y-91049676D01*
X109085714Y-91049676D02*
X108990476Y-91144914D01*
X108990476Y-91144914D02*
X108895238Y-91192533D01*
X179007142Y-62759580D02*
X178959523Y-62807200D01*
X178959523Y-62807200D02*
X178816666Y-62854819D01*
X178816666Y-62854819D02*
X178721428Y-62854819D01*
X178721428Y-62854819D02*
X178578571Y-62807200D01*
X178578571Y-62807200D02*
X178483333Y-62711961D01*
X178483333Y-62711961D02*
X178435714Y-62616723D01*
X178435714Y-62616723D02*
X178388095Y-62426247D01*
X178388095Y-62426247D02*
X178388095Y-62283390D01*
X178388095Y-62283390D02*
X178435714Y-62092914D01*
X178435714Y-62092914D02*
X178483333Y-61997676D01*
X178483333Y-61997676D02*
X178578571Y-61902438D01*
X178578571Y-61902438D02*
X178721428Y-61854819D01*
X178721428Y-61854819D02*
X178816666Y-61854819D01*
X178816666Y-61854819D02*
X178959523Y-61902438D01*
X178959523Y-61902438D02*
X179007142Y-61950057D01*
X179959523Y-62854819D02*
X179388095Y-62854819D01*
X179673809Y-62854819D02*
X179673809Y-61854819D01*
X179673809Y-61854819D02*
X179578571Y-61997676D01*
X179578571Y-61997676D02*
X179483333Y-62092914D01*
X179483333Y-62092914D02*
X179388095Y-62140533D01*
X180292857Y-61854819D02*
X180911904Y-61854819D01*
X180911904Y-61854819D02*
X180578571Y-62235771D01*
X180578571Y-62235771D02*
X180721428Y-62235771D01*
X180721428Y-62235771D02*
X180816666Y-62283390D01*
X180816666Y-62283390D02*
X180864285Y-62331009D01*
X180864285Y-62331009D02*
X180911904Y-62426247D01*
X180911904Y-62426247D02*
X180911904Y-62664342D01*
X180911904Y-62664342D02*
X180864285Y-62759580D01*
X180864285Y-62759580D02*
X180816666Y-62807200D01*
X180816666Y-62807200D02*
X180721428Y-62854819D01*
X180721428Y-62854819D02*
X180435714Y-62854819D01*
X180435714Y-62854819D02*
X180340476Y-62807200D01*
X180340476Y-62807200D02*
X180292857Y-62759580D01*
X127547142Y-52359580D02*
X127499523Y-52407200D01*
X127499523Y-52407200D02*
X127356666Y-52454819D01*
X127356666Y-52454819D02*
X127261428Y-52454819D01*
X127261428Y-52454819D02*
X127118571Y-52407200D01*
X127118571Y-52407200D02*
X127023333Y-52311961D01*
X127023333Y-52311961D02*
X126975714Y-52216723D01*
X126975714Y-52216723D02*
X126928095Y-52026247D01*
X126928095Y-52026247D02*
X126928095Y-51883390D01*
X126928095Y-51883390D02*
X126975714Y-51692914D01*
X126975714Y-51692914D02*
X127023333Y-51597676D01*
X127023333Y-51597676D02*
X127118571Y-51502438D01*
X127118571Y-51502438D02*
X127261428Y-51454819D01*
X127261428Y-51454819D02*
X127356666Y-51454819D01*
X127356666Y-51454819D02*
X127499523Y-51502438D01*
X127499523Y-51502438D02*
X127547142Y-51550057D01*
X128499523Y-52454819D02*
X127928095Y-52454819D01*
X128213809Y-52454819D02*
X128213809Y-51454819D01*
X128213809Y-51454819D02*
X128118571Y-51597676D01*
X128118571Y-51597676D02*
X128023333Y-51692914D01*
X128023333Y-51692914D02*
X127928095Y-51740533D01*
X128880476Y-51550057D02*
X128928095Y-51502438D01*
X128928095Y-51502438D02*
X129023333Y-51454819D01*
X129023333Y-51454819D02*
X129261428Y-51454819D01*
X129261428Y-51454819D02*
X129356666Y-51502438D01*
X129356666Y-51502438D02*
X129404285Y-51550057D01*
X129404285Y-51550057D02*
X129451904Y-51645295D01*
X129451904Y-51645295D02*
X129451904Y-51740533D01*
X129451904Y-51740533D02*
X129404285Y-51883390D01*
X129404285Y-51883390D02*
X128832857Y-52454819D01*
X128832857Y-52454819D02*
X129451904Y-52454819D01*
X164232142Y-45524819D02*
X163898809Y-45048628D01*
X163660714Y-45524819D02*
X163660714Y-44524819D01*
X163660714Y-44524819D02*
X164041666Y-44524819D01*
X164041666Y-44524819D02*
X164136904Y-44572438D01*
X164136904Y-44572438D02*
X164184523Y-44620057D01*
X164184523Y-44620057D02*
X164232142Y-44715295D01*
X164232142Y-44715295D02*
X164232142Y-44858152D01*
X164232142Y-44858152D02*
X164184523Y-44953390D01*
X164184523Y-44953390D02*
X164136904Y-45001009D01*
X164136904Y-45001009D02*
X164041666Y-45048628D01*
X164041666Y-45048628D02*
X163660714Y-45048628D01*
X165184523Y-45524819D02*
X164613095Y-45524819D01*
X164898809Y-45524819D02*
X164898809Y-44524819D01*
X164898809Y-44524819D02*
X164803571Y-44667676D01*
X164803571Y-44667676D02*
X164708333Y-44762914D01*
X164708333Y-44762914D02*
X164613095Y-44810533D01*
X166041666Y-44858152D02*
X166041666Y-45524819D01*
X165803571Y-44477200D02*
X165565476Y-45191485D01*
X165565476Y-45191485D02*
X166184523Y-45191485D01*
X149204819Y-54371904D02*
X150014342Y-54371904D01*
X150014342Y-54371904D02*
X150109580Y-54324285D01*
X150109580Y-54324285D02*
X150157200Y-54276666D01*
X150157200Y-54276666D02*
X150204819Y-54181428D01*
X150204819Y-54181428D02*
X150204819Y-53990952D01*
X150204819Y-53990952D02*
X150157200Y-53895714D01*
X150157200Y-53895714D02*
X150109580Y-53848095D01*
X150109580Y-53848095D02*
X150014342Y-53800476D01*
X150014342Y-53800476D02*
X149204819Y-53800476D01*
X149204819Y-52848095D02*
X149204819Y-53324285D01*
X149204819Y-53324285D02*
X149681009Y-53371904D01*
X149681009Y-53371904D02*
X149633390Y-53324285D01*
X149633390Y-53324285D02*
X149585771Y-53229047D01*
X149585771Y-53229047D02*
X149585771Y-52990952D01*
X149585771Y-52990952D02*
X149633390Y-52895714D01*
X149633390Y-52895714D02*
X149681009Y-52848095D01*
X149681009Y-52848095D02*
X149776247Y-52800476D01*
X149776247Y-52800476D02*
X150014342Y-52800476D01*
X150014342Y-52800476D02*
X150109580Y-52848095D01*
X150109580Y-52848095D02*
X150157200Y-52895714D01*
X150157200Y-52895714D02*
X150204819Y-52990952D01*
X150204819Y-52990952D02*
X150204819Y-53229047D01*
X150204819Y-53229047D02*
X150157200Y-53324285D01*
X150157200Y-53324285D02*
X150109580Y-53371904D01*
X169732142Y-66529580D02*
X169684523Y-66577200D01*
X169684523Y-66577200D02*
X169541666Y-66624819D01*
X169541666Y-66624819D02*
X169446428Y-66624819D01*
X169446428Y-66624819D02*
X169303571Y-66577200D01*
X169303571Y-66577200D02*
X169208333Y-66481961D01*
X169208333Y-66481961D02*
X169160714Y-66386723D01*
X169160714Y-66386723D02*
X169113095Y-66196247D01*
X169113095Y-66196247D02*
X169113095Y-66053390D01*
X169113095Y-66053390D02*
X169160714Y-65862914D01*
X169160714Y-65862914D02*
X169208333Y-65767676D01*
X169208333Y-65767676D02*
X169303571Y-65672438D01*
X169303571Y-65672438D02*
X169446428Y-65624819D01*
X169446428Y-65624819D02*
X169541666Y-65624819D01*
X169541666Y-65624819D02*
X169684523Y-65672438D01*
X169684523Y-65672438D02*
X169732142Y-65720057D01*
X170684523Y-66624819D02*
X170113095Y-66624819D01*
X170398809Y-66624819D02*
X170398809Y-65624819D01*
X170398809Y-65624819D02*
X170303571Y-65767676D01*
X170303571Y-65767676D02*
X170208333Y-65862914D01*
X170208333Y-65862914D02*
X170113095Y-65910533D01*
X171541666Y-65624819D02*
X171351190Y-65624819D01*
X171351190Y-65624819D02*
X171255952Y-65672438D01*
X171255952Y-65672438D02*
X171208333Y-65720057D01*
X171208333Y-65720057D02*
X171113095Y-65862914D01*
X171113095Y-65862914D02*
X171065476Y-66053390D01*
X171065476Y-66053390D02*
X171065476Y-66434342D01*
X171065476Y-66434342D02*
X171113095Y-66529580D01*
X171113095Y-66529580D02*
X171160714Y-66577200D01*
X171160714Y-66577200D02*
X171255952Y-66624819D01*
X171255952Y-66624819D02*
X171446428Y-66624819D01*
X171446428Y-66624819D02*
X171541666Y-66577200D01*
X171541666Y-66577200D02*
X171589285Y-66529580D01*
X171589285Y-66529580D02*
X171636904Y-66434342D01*
X171636904Y-66434342D02*
X171636904Y-66196247D01*
X171636904Y-66196247D02*
X171589285Y-66101009D01*
X171589285Y-66101009D02*
X171541666Y-66053390D01*
X171541666Y-66053390D02*
X171446428Y-66005771D01*
X171446428Y-66005771D02*
X171255952Y-66005771D01*
X171255952Y-66005771D02*
X171160714Y-66053390D01*
X171160714Y-66053390D02*
X171113095Y-66101009D01*
X171113095Y-66101009D02*
X171065476Y-66196247D01*
X147666666Y-82731009D02*
X147333333Y-82731009D01*
X147333333Y-83254819D02*
X147333333Y-82254819D01*
X147333333Y-82254819D02*
X147809523Y-82254819D01*
X148095238Y-82254819D02*
X148761904Y-82254819D01*
X148761904Y-82254819D02*
X148333333Y-83254819D01*
X131566666Y-82831009D02*
X131233333Y-82831009D01*
X131233333Y-83354819D02*
X131233333Y-82354819D01*
X131233333Y-82354819D02*
X131709523Y-82354819D01*
X132519047Y-82354819D02*
X132328571Y-82354819D01*
X132328571Y-82354819D02*
X132233333Y-82402438D01*
X132233333Y-82402438D02*
X132185714Y-82450057D01*
X132185714Y-82450057D02*
X132090476Y-82592914D01*
X132090476Y-82592914D02*
X132042857Y-82783390D01*
X132042857Y-82783390D02*
X132042857Y-83164342D01*
X132042857Y-83164342D02*
X132090476Y-83259580D01*
X132090476Y-83259580D02*
X132138095Y-83307200D01*
X132138095Y-83307200D02*
X132233333Y-83354819D01*
X132233333Y-83354819D02*
X132423809Y-83354819D01*
X132423809Y-83354819D02*
X132519047Y-83307200D01*
X132519047Y-83307200D02*
X132566666Y-83259580D01*
X132566666Y-83259580D02*
X132614285Y-83164342D01*
X132614285Y-83164342D02*
X132614285Y-82926247D01*
X132614285Y-82926247D02*
X132566666Y-82831009D01*
X132566666Y-82831009D02*
X132519047Y-82783390D01*
X132519047Y-82783390D02*
X132423809Y-82735771D01*
X132423809Y-82735771D02*
X132233333Y-82735771D01*
X132233333Y-82735771D02*
X132138095Y-82783390D01*
X132138095Y-82783390D02*
X132090476Y-82831009D01*
X132090476Y-82831009D02*
X132042857Y-82926247D01*
X169957142Y-45359580D02*
X169909523Y-45407200D01*
X169909523Y-45407200D02*
X169766666Y-45454819D01*
X169766666Y-45454819D02*
X169671428Y-45454819D01*
X169671428Y-45454819D02*
X169528571Y-45407200D01*
X169528571Y-45407200D02*
X169433333Y-45311961D01*
X169433333Y-45311961D02*
X169385714Y-45216723D01*
X169385714Y-45216723D02*
X169338095Y-45026247D01*
X169338095Y-45026247D02*
X169338095Y-44883390D01*
X169338095Y-44883390D02*
X169385714Y-44692914D01*
X169385714Y-44692914D02*
X169433333Y-44597676D01*
X169433333Y-44597676D02*
X169528571Y-44502438D01*
X169528571Y-44502438D02*
X169671428Y-44454819D01*
X169671428Y-44454819D02*
X169766666Y-44454819D01*
X169766666Y-44454819D02*
X169909523Y-44502438D01*
X169909523Y-44502438D02*
X169957142Y-44550057D01*
X170909523Y-45454819D02*
X170338095Y-45454819D01*
X170623809Y-45454819D02*
X170623809Y-44454819D01*
X170623809Y-44454819D02*
X170528571Y-44597676D01*
X170528571Y-44597676D02*
X170433333Y-44692914D01*
X170433333Y-44692914D02*
X170338095Y-44740533D01*
X171861904Y-45454819D02*
X171290476Y-45454819D01*
X171576190Y-45454819D02*
X171576190Y-44454819D01*
X171576190Y-44454819D02*
X171480952Y-44597676D01*
X171480952Y-44597676D02*
X171385714Y-44692914D01*
X171385714Y-44692914D02*
X171290476Y-44740533D01*
X127497142Y-47359580D02*
X127449523Y-47407200D01*
X127449523Y-47407200D02*
X127306666Y-47454819D01*
X127306666Y-47454819D02*
X127211428Y-47454819D01*
X127211428Y-47454819D02*
X127068571Y-47407200D01*
X127068571Y-47407200D02*
X126973333Y-47311961D01*
X126973333Y-47311961D02*
X126925714Y-47216723D01*
X126925714Y-47216723D02*
X126878095Y-47026247D01*
X126878095Y-47026247D02*
X126878095Y-46883390D01*
X126878095Y-46883390D02*
X126925714Y-46692914D01*
X126925714Y-46692914D02*
X126973333Y-46597676D01*
X126973333Y-46597676D02*
X127068571Y-46502438D01*
X127068571Y-46502438D02*
X127211428Y-46454819D01*
X127211428Y-46454819D02*
X127306666Y-46454819D01*
X127306666Y-46454819D02*
X127449523Y-46502438D01*
X127449523Y-46502438D02*
X127497142Y-46550057D01*
X128449523Y-47454819D02*
X127878095Y-47454819D01*
X128163809Y-47454819D02*
X128163809Y-46454819D01*
X128163809Y-46454819D02*
X128068571Y-46597676D01*
X128068571Y-46597676D02*
X127973333Y-46692914D01*
X127973333Y-46692914D02*
X127878095Y-46740533D01*
X129068571Y-46454819D02*
X129163809Y-46454819D01*
X129163809Y-46454819D02*
X129259047Y-46502438D01*
X129259047Y-46502438D02*
X129306666Y-46550057D01*
X129306666Y-46550057D02*
X129354285Y-46645295D01*
X129354285Y-46645295D02*
X129401904Y-46835771D01*
X129401904Y-46835771D02*
X129401904Y-47073866D01*
X129401904Y-47073866D02*
X129354285Y-47264342D01*
X129354285Y-47264342D02*
X129306666Y-47359580D01*
X129306666Y-47359580D02*
X129259047Y-47407200D01*
X129259047Y-47407200D02*
X129163809Y-47454819D01*
X129163809Y-47454819D02*
X129068571Y-47454819D01*
X129068571Y-47454819D02*
X128973333Y-47407200D01*
X128973333Y-47407200D02*
X128925714Y-47359580D01*
X128925714Y-47359580D02*
X128878095Y-47264342D01*
X128878095Y-47264342D02*
X128830476Y-47073866D01*
X128830476Y-47073866D02*
X128830476Y-46835771D01*
X128830476Y-46835771D02*
X128878095Y-46645295D01*
X128878095Y-46645295D02*
X128925714Y-46550057D01*
X128925714Y-46550057D02*
X128973333Y-46502438D01*
X128973333Y-46502438D02*
X129068571Y-46454819D01*
X139508333Y-77624819D02*
X139175000Y-77148628D01*
X138936905Y-77624819D02*
X138936905Y-76624819D01*
X138936905Y-76624819D02*
X139317857Y-76624819D01*
X139317857Y-76624819D02*
X139413095Y-76672438D01*
X139413095Y-76672438D02*
X139460714Y-76720057D01*
X139460714Y-76720057D02*
X139508333Y-76815295D01*
X139508333Y-76815295D02*
X139508333Y-76958152D01*
X139508333Y-76958152D02*
X139460714Y-77053390D01*
X139460714Y-77053390D02*
X139413095Y-77101009D01*
X139413095Y-77101009D02*
X139317857Y-77148628D01*
X139317857Y-77148628D02*
X138936905Y-77148628D01*
X140413095Y-76624819D02*
X139936905Y-76624819D01*
X139936905Y-76624819D02*
X139889286Y-77101009D01*
X139889286Y-77101009D02*
X139936905Y-77053390D01*
X139936905Y-77053390D02*
X140032143Y-77005771D01*
X140032143Y-77005771D02*
X140270238Y-77005771D01*
X140270238Y-77005771D02*
X140365476Y-77053390D01*
X140365476Y-77053390D02*
X140413095Y-77101009D01*
X140413095Y-77101009D02*
X140460714Y-77196247D01*
X140460714Y-77196247D02*
X140460714Y-77434342D01*
X140460714Y-77434342D02*
X140413095Y-77529580D01*
X140413095Y-77529580D02*
X140365476Y-77577200D01*
X140365476Y-77577200D02*
X140270238Y-77624819D01*
X140270238Y-77624819D02*
X140032143Y-77624819D01*
X140032143Y-77624819D02*
X139936905Y-77577200D01*
X139936905Y-77577200D02*
X139889286Y-77529580D01*
X152624819Y-73717857D02*
X152148628Y-74051190D01*
X152624819Y-74289285D02*
X151624819Y-74289285D01*
X151624819Y-74289285D02*
X151624819Y-73908333D01*
X151624819Y-73908333D02*
X151672438Y-73813095D01*
X151672438Y-73813095D02*
X151720057Y-73765476D01*
X151720057Y-73765476D02*
X151815295Y-73717857D01*
X151815295Y-73717857D02*
X151958152Y-73717857D01*
X151958152Y-73717857D02*
X152053390Y-73765476D01*
X152053390Y-73765476D02*
X152101009Y-73813095D01*
X152101009Y-73813095D02*
X152148628Y-73908333D01*
X152148628Y-73908333D02*
X152148628Y-74289285D01*
X152624819Y-72765476D02*
X152624819Y-73336904D01*
X152624819Y-73051190D02*
X151624819Y-73051190D01*
X151624819Y-73051190D02*
X151767676Y-73146428D01*
X151767676Y-73146428D02*
X151862914Y-73241666D01*
X151862914Y-73241666D02*
X151910533Y-73336904D01*
X152624819Y-71813095D02*
X152624819Y-72384523D01*
X152624819Y-72098809D02*
X151624819Y-72098809D01*
X151624819Y-72098809D02*
X151767676Y-72194047D01*
X151767676Y-72194047D02*
X151862914Y-72289285D01*
X151862914Y-72289285D02*
X151910533Y-72384523D01*
X139495833Y-71554819D02*
X139162500Y-71078628D01*
X138924405Y-71554819D02*
X138924405Y-70554819D01*
X138924405Y-70554819D02*
X139305357Y-70554819D01*
X139305357Y-70554819D02*
X139400595Y-70602438D01*
X139400595Y-70602438D02*
X139448214Y-70650057D01*
X139448214Y-70650057D02*
X139495833Y-70745295D01*
X139495833Y-70745295D02*
X139495833Y-70888152D01*
X139495833Y-70888152D02*
X139448214Y-70983390D01*
X139448214Y-70983390D02*
X139400595Y-71031009D01*
X139400595Y-71031009D02*
X139305357Y-71078628D01*
X139305357Y-71078628D02*
X138924405Y-71078628D01*
X139829167Y-70554819D02*
X140448214Y-70554819D01*
X140448214Y-70554819D02*
X140114881Y-70935771D01*
X140114881Y-70935771D02*
X140257738Y-70935771D01*
X140257738Y-70935771D02*
X140352976Y-70983390D01*
X140352976Y-70983390D02*
X140400595Y-71031009D01*
X140400595Y-71031009D02*
X140448214Y-71126247D01*
X140448214Y-71126247D02*
X140448214Y-71364342D01*
X140448214Y-71364342D02*
X140400595Y-71459580D01*
X140400595Y-71459580D02*
X140352976Y-71507200D01*
X140352976Y-71507200D02*
X140257738Y-71554819D01*
X140257738Y-71554819D02*
X139972024Y-71554819D01*
X139972024Y-71554819D02*
X139876786Y-71507200D01*
X139876786Y-71507200D02*
X139829167Y-71459580D01*
X107433333Y-76854819D02*
X107100000Y-76378628D01*
X106861905Y-76854819D02*
X106861905Y-75854819D01*
X106861905Y-75854819D02*
X107242857Y-75854819D01*
X107242857Y-75854819D02*
X107338095Y-75902438D01*
X107338095Y-75902438D02*
X107385714Y-75950057D01*
X107385714Y-75950057D02*
X107433333Y-76045295D01*
X107433333Y-76045295D02*
X107433333Y-76188152D01*
X107433333Y-76188152D02*
X107385714Y-76283390D01*
X107385714Y-76283390D02*
X107338095Y-76331009D01*
X107338095Y-76331009D02*
X107242857Y-76378628D01*
X107242857Y-76378628D02*
X106861905Y-76378628D01*
X108385714Y-76854819D02*
X107814286Y-76854819D01*
X108100000Y-76854819D02*
X108100000Y-75854819D01*
X108100000Y-75854819D02*
X108004762Y-75997676D01*
X108004762Y-75997676D02*
X107909524Y-76092914D01*
X107909524Y-76092914D02*
X107814286Y-76140533D01*
X201033333Y-60004819D02*
X200700000Y-59528628D01*
X200461905Y-60004819D02*
X200461905Y-59004819D01*
X200461905Y-59004819D02*
X200842857Y-59004819D01*
X200842857Y-59004819D02*
X200938095Y-59052438D01*
X200938095Y-59052438D02*
X200985714Y-59100057D01*
X200985714Y-59100057D02*
X201033333Y-59195295D01*
X201033333Y-59195295D02*
X201033333Y-59338152D01*
X201033333Y-59338152D02*
X200985714Y-59433390D01*
X200985714Y-59433390D02*
X200938095Y-59481009D01*
X200938095Y-59481009D02*
X200842857Y-59528628D01*
X200842857Y-59528628D02*
X200461905Y-59528628D01*
X201890476Y-59004819D02*
X201700000Y-59004819D01*
X201700000Y-59004819D02*
X201604762Y-59052438D01*
X201604762Y-59052438D02*
X201557143Y-59100057D01*
X201557143Y-59100057D02*
X201461905Y-59242914D01*
X201461905Y-59242914D02*
X201414286Y-59433390D01*
X201414286Y-59433390D02*
X201414286Y-59814342D01*
X201414286Y-59814342D02*
X201461905Y-59909580D01*
X201461905Y-59909580D02*
X201509524Y-59957200D01*
X201509524Y-59957200D02*
X201604762Y-60004819D01*
X201604762Y-60004819D02*
X201795238Y-60004819D01*
X201795238Y-60004819D02*
X201890476Y-59957200D01*
X201890476Y-59957200D02*
X201938095Y-59909580D01*
X201938095Y-59909580D02*
X201985714Y-59814342D01*
X201985714Y-59814342D02*
X201985714Y-59576247D01*
X201985714Y-59576247D02*
X201938095Y-59481009D01*
X201938095Y-59481009D02*
X201890476Y-59433390D01*
X201890476Y-59433390D02*
X201795238Y-59385771D01*
X201795238Y-59385771D02*
X201604762Y-59385771D01*
X201604762Y-59385771D02*
X201509524Y-59433390D01*
X201509524Y-59433390D02*
X201461905Y-59481009D01*
X201461905Y-59481009D02*
X201414286Y-59576247D01*
X186932142Y-76654819D02*
X186598809Y-76178628D01*
X186360714Y-76654819D02*
X186360714Y-75654819D01*
X186360714Y-75654819D02*
X186741666Y-75654819D01*
X186741666Y-75654819D02*
X186836904Y-75702438D01*
X186836904Y-75702438D02*
X186884523Y-75750057D01*
X186884523Y-75750057D02*
X186932142Y-75845295D01*
X186932142Y-75845295D02*
X186932142Y-75988152D01*
X186932142Y-75988152D02*
X186884523Y-76083390D01*
X186884523Y-76083390D02*
X186836904Y-76131009D01*
X186836904Y-76131009D02*
X186741666Y-76178628D01*
X186741666Y-76178628D02*
X186360714Y-76178628D01*
X187313095Y-75750057D02*
X187360714Y-75702438D01*
X187360714Y-75702438D02*
X187455952Y-75654819D01*
X187455952Y-75654819D02*
X187694047Y-75654819D01*
X187694047Y-75654819D02*
X187789285Y-75702438D01*
X187789285Y-75702438D02*
X187836904Y-75750057D01*
X187836904Y-75750057D02*
X187884523Y-75845295D01*
X187884523Y-75845295D02*
X187884523Y-75940533D01*
X187884523Y-75940533D02*
X187836904Y-76083390D01*
X187836904Y-76083390D02*
X187265476Y-76654819D01*
X187265476Y-76654819D02*
X187884523Y-76654819D01*
X188836904Y-76654819D02*
X188265476Y-76654819D01*
X188551190Y-76654819D02*
X188551190Y-75654819D01*
X188551190Y-75654819D02*
X188455952Y-75797676D01*
X188455952Y-75797676D02*
X188360714Y-75892914D01*
X188360714Y-75892914D02*
X188265476Y-75940533D01*
X119632142Y-63954819D02*
X119298809Y-63478628D01*
X119060714Y-63954819D02*
X119060714Y-62954819D01*
X119060714Y-62954819D02*
X119441666Y-62954819D01*
X119441666Y-62954819D02*
X119536904Y-63002438D01*
X119536904Y-63002438D02*
X119584523Y-63050057D01*
X119584523Y-63050057D02*
X119632142Y-63145295D01*
X119632142Y-63145295D02*
X119632142Y-63288152D01*
X119632142Y-63288152D02*
X119584523Y-63383390D01*
X119584523Y-63383390D02*
X119536904Y-63431009D01*
X119536904Y-63431009D02*
X119441666Y-63478628D01*
X119441666Y-63478628D02*
X119060714Y-63478628D01*
X120013095Y-63050057D02*
X120060714Y-63002438D01*
X120060714Y-63002438D02*
X120155952Y-62954819D01*
X120155952Y-62954819D02*
X120394047Y-62954819D01*
X120394047Y-62954819D02*
X120489285Y-63002438D01*
X120489285Y-63002438D02*
X120536904Y-63050057D01*
X120536904Y-63050057D02*
X120584523Y-63145295D01*
X120584523Y-63145295D02*
X120584523Y-63240533D01*
X120584523Y-63240533D02*
X120536904Y-63383390D01*
X120536904Y-63383390D02*
X119965476Y-63954819D01*
X119965476Y-63954819D02*
X120584523Y-63954819D01*
X121441666Y-63288152D02*
X121441666Y-63954819D01*
X121203571Y-62907200D02*
X120965476Y-63621485D01*
X120965476Y-63621485D02*
X121584523Y-63621485D01*
X157774819Y-67709523D02*
X158489104Y-67709523D01*
X158489104Y-67709523D02*
X158631961Y-67757142D01*
X158631961Y-67757142D02*
X158727200Y-67852380D01*
X158727200Y-67852380D02*
X158774819Y-67995237D01*
X158774819Y-67995237D02*
X158774819Y-68090475D01*
X158774819Y-66709523D02*
X158774819Y-67280951D01*
X158774819Y-66995237D02*
X157774819Y-66995237D01*
X157774819Y-66995237D02*
X157917676Y-67090475D01*
X157917676Y-67090475D02*
X158012914Y-67185713D01*
X158012914Y-67185713D02*
X158060533Y-67280951D01*
X158774819Y-65757142D02*
X158774819Y-66328570D01*
X158774819Y-66042856D02*
X157774819Y-66042856D01*
X157774819Y-66042856D02*
X157917676Y-66138094D01*
X157917676Y-66138094D02*
X158012914Y-66233332D01*
X158012914Y-66233332D02*
X158060533Y-66328570D01*
X138961905Y-73054819D02*
X138961905Y-72054819D01*
X138961905Y-72054819D02*
X139200000Y-72054819D01*
X139200000Y-72054819D02*
X139342857Y-72102438D01*
X139342857Y-72102438D02*
X139438095Y-72197676D01*
X139438095Y-72197676D02*
X139485714Y-72292914D01*
X139485714Y-72292914D02*
X139533333Y-72483390D01*
X139533333Y-72483390D02*
X139533333Y-72626247D01*
X139533333Y-72626247D02*
X139485714Y-72816723D01*
X139485714Y-72816723D02*
X139438095Y-72911961D01*
X139438095Y-72911961D02*
X139342857Y-73007200D01*
X139342857Y-73007200D02*
X139200000Y-73054819D01*
X139200000Y-73054819D02*
X138961905Y-73054819D01*
X140438095Y-72054819D02*
X139961905Y-72054819D01*
X139961905Y-72054819D02*
X139914286Y-72531009D01*
X139914286Y-72531009D02*
X139961905Y-72483390D01*
X139961905Y-72483390D02*
X140057143Y-72435771D01*
X140057143Y-72435771D02*
X140295238Y-72435771D01*
X140295238Y-72435771D02*
X140390476Y-72483390D01*
X140390476Y-72483390D02*
X140438095Y-72531009D01*
X140438095Y-72531009D02*
X140485714Y-72626247D01*
X140485714Y-72626247D02*
X140485714Y-72864342D01*
X140485714Y-72864342D02*
X140438095Y-72959580D01*
X140438095Y-72959580D02*
X140390476Y-73007200D01*
X140390476Y-73007200D02*
X140295238Y-73054819D01*
X140295238Y-73054819D02*
X140057143Y-73054819D01*
X140057143Y-73054819D02*
X139961905Y-73007200D01*
X139961905Y-73007200D02*
X139914286Y-72959580D01*
X130150057Y-89295238D02*
X130102438Y-89390476D01*
X130102438Y-89390476D02*
X130007200Y-89485714D01*
X130007200Y-89485714D02*
X129864342Y-89628571D01*
X129864342Y-89628571D02*
X129816723Y-89723809D01*
X129816723Y-89723809D02*
X129816723Y-89819047D01*
X130054819Y-89771428D02*
X130007200Y-89866666D01*
X130007200Y-89866666D02*
X129911961Y-89961904D01*
X129911961Y-89961904D02*
X129721485Y-90009523D01*
X129721485Y-90009523D02*
X129388152Y-90009523D01*
X129388152Y-90009523D02*
X129197676Y-89961904D01*
X129197676Y-89961904D02*
X129102438Y-89866666D01*
X129102438Y-89866666D02*
X129054819Y-89771428D01*
X129054819Y-89771428D02*
X129054819Y-89580952D01*
X129054819Y-89580952D02*
X129102438Y-89485714D01*
X129102438Y-89485714D02*
X129197676Y-89390476D01*
X129197676Y-89390476D02*
X129388152Y-89342857D01*
X129388152Y-89342857D02*
X129721485Y-89342857D01*
X129721485Y-89342857D02*
X129911961Y-89390476D01*
X129911961Y-89390476D02*
X130007200Y-89485714D01*
X130007200Y-89485714D02*
X130054819Y-89580952D01*
X130054819Y-89580952D02*
X130054819Y-89771428D01*
X129054819Y-88438095D02*
X129054819Y-88914285D01*
X129054819Y-88914285D02*
X129531009Y-88961904D01*
X129531009Y-88961904D02*
X129483390Y-88914285D01*
X129483390Y-88914285D02*
X129435771Y-88819047D01*
X129435771Y-88819047D02*
X129435771Y-88580952D01*
X129435771Y-88580952D02*
X129483390Y-88485714D01*
X129483390Y-88485714D02*
X129531009Y-88438095D01*
X129531009Y-88438095D02*
X129626247Y-88390476D01*
X129626247Y-88390476D02*
X129864342Y-88390476D01*
X129864342Y-88390476D02*
X129959580Y-88438095D01*
X129959580Y-88438095D02*
X130007200Y-88485714D01*
X130007200Y-88485714D02*
X130054819Y-88580952D01*
X130054819Y-88580952D02*
X130054819Y-88819047D01*
X130054819Y-88819047D02*
X130007200Y-88914285D01*
X130007200Y-88914285D02*
X129959580Y-88961904D01*
X112633333Y-70259580D02*
X112585714Y-70307200D01*
X112585714Y-70307200D02*
X112442857Y-70354819D01*
X112442857Y-70354819D02*
X112347619Y-70354819D01*
X112347619Y-70354819D02*
X112204762Y-70307200D01*
X112204762Y-70307200D02*
X112109524Y-70211961D01*
X112109524Y-70211961D02*
X112061905Y-70116723D01*
X112061905Y-70116723D02*
X112014286Y-69926247D01*
X112014286Y-69926247D02*
X112014286Y-69783390D01*
X112014286Y-69783390D02*
X112061905Y-69592914D01*
X112061905Y-69592914D02*
X112109524Y-69497676D01*
X112109524Y-69497676D02*
X112204762Y-69402438D01*
X112204762Y-69402438D02*
X112347619Y-69354819D01*
X112347619Y-69354819D02*
X112442857Y-69354819D01*
X112442857Y-69354819D02*
X112585714Y-69402438D01*
X112585714Y-69402438D02*
X112633333Y-69450057D01*
X113014286Y-69450057D02*
X113061905Y-69402438D01*
X113061905Y-69402438D02*
X113157143Y-69354819D01*
X113157143Y-69354819D02*
X113395238Y-69354819D01*
X113395238Y-69354819D02*
X113490476Y-69402438D01*
X113490476Y-69402438D02*
X113538095Y-69450057D01*
X113538095Y-69450057D02*
X113585714Y-69545295D01*
X113585714Y-69545295D02*
X113585714Y-69640533D01*
X113585714Y-69640533D02*
X113538095Y-69783390D01*
X113538095Y-69783390D02*
X112966667Y-70354819D01*
X112966667Y-70354819D02*
X113585714Y-70354819D01*
X136157142Y-65154819D02*
X135823809Y-64678628D01*
X135585714Y-65154819D02*
X135585714Y-64154819D01*
X135585714Y-64154819D02*
X135966666Y-64154819D01*
X135966666Y-64154819D02*
X136061904Y-64202438D01*
X136061904Y-64202438D02*
X136109523Y-64250057D01*
X136109523Y-64250057D02*
X136157142Y-64345295D01*
X136157142Y-64345295D02*
X136157142Y-64488152D01*
X136157142Y-64488152D02*
X136109523Y-64583390D01*
X136109523Y-64583390D02*
X136061904Y-64631009D01*
X136061904Y-64631009D02*
X135966666Y-64678628D01*
X135966666Y-64678628D02*
X135585714Y-64678628D01*
X137109523Y-65154819D02*
X136538095Y-65154819D01*
X136823809Y-65154819D02*
X136823809Y-64154819D01*
X136823809Y-64154819D02*
X136728571Y-64297676D01*
X136728571Y-64297676D02*
X136633333Y-64392914D01*
X136633333Y-64392914D02*
X136538095Y-64440533D01*
X137442857Y-64154819D02*
X138109523Y-64154819D01*
X138109523Y-64154819D02*
X137680952Y-65154819D01*
X139036905Y-79154819D02*
X139036905Y-78154819D01*
X139036905Y-78154819D02*
X139275000Y-78154819D01*
X139275000Y-78154819D02*
X139417857Y-78202438D01*
X139417857Y-78202438D02*
X139513095Y-78297676D01*
X139513095Y-78297676D02*
X139560714Y-78392914D01*
X139560714Y-78392914D02*
X139608333Y-78583390D01*
X139608333Y-78583390D02*
X139608333Y-78726247D01*
X139608333Y-78726247D02*
X139560714Y-78916723D01*
X139560714Y-78916723D02*
X139513095Y-79011961D01*
X139513095Y-79011961D02*
X139417857Y-79107200D01*
X139417857Y-79107200D02*
X139275000Y-79154819D01*
X139275000Y-79154819D02*
X139036905Y-79154819D01*
X139941667Y-78154819D02*
X140608333Y-78154819D01*
X140608333Y-78154819D02*
X140179762Y-79154819D01*
X186807142Y-70554819D02*
X186473809Y-70078628D01*
X186235714Y-70554819D02*
X186235714Y-69554819D01*
X186235714Y-69554819D02*
X186616666Y-69554819D01*
X186616666Y-69554819D02*
X186711904Y-69602438D01*
X186711904Y-69602438D02*
X186759523Y-69650057D01*
X186759523Y-69650057D02*
X186807142Y-69745295D01*
X186807142Y-69745295D02*
X186807142Y-69888152D01*
X186807142Y-69888152D02*
X186759523Y-69983390D01*
X186759523Y-69983390D02*
X186711904Y-70031009D01*
X186711904Y-70031009D02*
X186616666Y-70078628D01*
X186616666Y-70078628D02*
X186235714Y-70078628D01*
X187188095Y-69650057D02*
X187235714Y-69602438D01*
X187235714Y-69602438D02*
X187330952Y-69554819D01*
X187330952Y-69554819D02*
X187569047Y-69554819D01*
X187569047Y-69554819D02*
X187664285Y-69602438D01*
X187664285Y-69602438D02*
X187711904Y-69650057D01*
X187711904Y-69650057D02*
X187759523Y-69745295D01*
X187759523Y-69745295D02*
X187759523Y-69840533D01*
X187759523Y-69840533D02*
X187711904Y-69983390D01*
X187711904Y-69983390D02*
X187140476Y-70554819D01*
X187140476Y-70554819D02*
X187759523Y-70554819D01*
X188140476Y-69650057D02*
X188188095Y-69602438D01*
X188188095Y-69602438D02*
X188283333Y-69554819D01*
X188283333Y-69554819D02*
X188521428Y-69554819D01*
X188521428Y-69554819D02*
X188616666Y-69602438D01*
X188616666Y-69602438D02*
X188664285Y-69650057D01*
X188664285Y-69650057D02*
X188711904Y-69745295D01*
X188711904Y-69745295D02*
X188711904Y-69840533D01*
X188711904Y-69840533D02*
X188664285Y-69983390D01*
X188664285Y-69983390D02*
X188092857Y-70554819D01*
X188092857Y-70554819D02*
X188711904Y-70554819D01*
X112633333Y-58859580D02*
X112585714Y-58907200D01*
X112585714Y-58907200D02*
X112442857Y-58954819D01*
X112442857Y-58954819D02*
X112347619Y-58954819D01*
X112347619Y-58954819D02*
X112204762Y-58907200D01*
X112204762Y-58907200D02*
X112109524Y-58811961D01*
X112109524Y-58811961D02*
X112061905Y-58716723D01*
X112061905Y-58716723D02*
X112014286Y-58526247D01*
X112014286Y-58526247D02*
X112014286Y-58383390D01*
X112014286Y-58383390D02*
X112061905Y-58192914D01*
X112061905Y-58192914D02*
X112109524Y-58097676D01*
X112109524Y-58097676D02*
X112204762Y-58002438D01*
X112204762Y-58002438D02*
X112347619Y-57954819D01*
X112347619Y-57954819D02*
X112442857Y-57954819D01*
X112442857Y-57954819D02*
X112585714Y-58002438D01*
X112585714Y-58002438D02*
X112633333Y-58050057D01*
X112966667Y-57954819D02*
X113633333Y-57954819D01*
X113633333Y-57954819D02*
X113204762Y-58954819D01*
X107459580Y-102566666D02*
X107507200Y-102614285D01*
X107507200Y-102614285D02*
X107554819Y-102757142D01*
X107554819Y-102757142D02*
X107554819Y-102852380D01*
X107554819Y-102852380D02*
X107507200Y-102995237D01*
X107507200Y-102995237D02*
X107411961Y-103090475D01*
X107411961Y-103090475D02*
X107316723Y-103138094D01*
X107316723Y-103138094D02*
X107126247Y-103185713D01*
X107126247Y-103185713D02*
X106983390Y-103185713D01*
X106983390Y-103185713D02*
X106792914Y-103138094D01*
X106792914Y-103138094D02*
X106697676Y-103090475D01*
X106697676Y-103090475D02*
X106602438Y-102995237D01*
X106602438Y-102995237D02*
X106554819Y-102852380D01*
X106554819Y-102852380D02*
X106554819Y-102757142D01*
X106554819Y-102757142D02*
X106602438Y-102614285D01*
X106602438Y-102614285D02*
X106650057Y-102566666D01*
X107554819Y-101614285D02*
X107554819Y-102185713D01*
X107554819Y-101899999D02*
X106554819Y-101899999D01*
X106554819Y-101899999D02*
X106697676Y-101995237D01*
X106697676Y-101995237D02*
X106792914Y-102090475D01*
X106792914Y-102090475D02*
X106840533Y-102185713D01*
X118804761Y-77375057D02*
X118709523Y-77327438D01*
X118709523Y-77327438D02*
X118614285Y-77232200D01*
X118614285Y-77232200D02*
X118471428Y-77089342D01*
X118471428Y-77089342D02*
X118376190Y-77041723D01*
X118376190Y-77041723D02*
X118280952Y-77041723D01*
X118328571Y-77279819D02*
X118233333Y-77232200D01*
X118233333Y-77232200D02*
X118138095Y-77136961D01*
X118138095Y-77136961D02*
X118090476Y-76946485D01*
X118090476Y-76946485D02*
X118090476Y-76613152D01*
X118090476Y-76613152D02*
X118138095Y-76422676D01*
X118138095Y-76422676D02*
X118233333Y-76327438D01*
X118233333Y-76327438D02*
X118328571Y-76279819D01*
X118328571Y-76279819D02*
X118519047Y-76279819D01*
X118519047Y-76279819D02*
X118614285Y-76327438D01*
X118614285Y-76327438D02*
X118709523Y-76422676D01*
X118709523Y-76422676D02*
X118757142Y-76613152D01*
X118757142Y-76613152D02*
X118757142Y-76946485D01*
X118757142Y-76946485D02*
X118709523Y-77136961D01*
X118709523Y-77136961D02*
X118614285Y-77232200D01*
X118614285Y-77232200D02*
X118519047Y-77279819D01*
X118519047Y-77279819D02*
X118328571Y-77279819D01*
X119709523Y-77279819D02*
X119138095Y-77279819D01*
X119423809Y-77279819D02*
X119423809Y-76279819D01*
X119423809Y-76279819D02*
X119328571Y-76422676D01*
X119328571Y-76422676D02*
X119233333Y-76517914D01*
X119233333Y-76517914D02*
X119138095Y-76565533D01*
X160354819Y-79833333D02*
X161069104Y-79833333D01*
X161069104Y-79833333D02*
X161211961Y-79880952D01*
X161211961Y-79880952D02*
X161307200Y-79976190D01*
X161307200Y-79976190D02*
X161354819Y-80119047D01*
X161354819Y-80119047D02*
X161354819Y-80214285D01*
X160354819Y-78880952D02*
X160354819Y-79357142D01*
X160354819Y-79357142D02*
X160831009Y-79404761D01*
X160831009Y-79404761D02*
X160783390Y-79357142D01*
X160783390Y-79357142D02*
X160735771Y-79261904D01*
X160735771Y-79261904D02*
X160735771Y-79023809D01*
X160735771Y-79023809D02*
X160783390Y-78928571D01*
X160783390Y-78928571D02*
X160831009Y-78880952D01*
X160831009Y-78880952D02*
X160926247Y-78833333D01*
X160926247Y-78833333D02*
X161164342Y-78833333D01*
X161164342Y-78833333D02*
X161259580Y-78880952D01*
X161259580Y-78880952D02*
X161307200Y-78928571D01*
X161307200Y-78928571D02*
X161354819Y-79023809D01*
X161354819Y-79023809D02*
X161354819Y-79261904D01*
X161354819Y-79261904D02*
X161307200Y-79357142D01*
X161307200Y-79357142D02*
X161259580Y-79404761D01*
X189254819Y-78233333D02*
X189969104Y-78233333D01*
X189969104Y-78233333D02*
X190111961Y-78280952D01*
X190111961Y-78280952D02*
X190207200Y-78376190D01*
X190207200Y-78376190D02*
X190254819Y-78519047D01*
X190254819Y-78519047D02*
X190254819Y-78614285D01*
X190254819Y-77757142D02*
X189254819Y-77757142D01*
X189254819Y-77757142D02*
X189254819Y-77376190D01*
X189254819Y-77376190D02*
X189302438Y-77280952D01*
X189302438Y-77280952D02*
X189350057Y-77233333D01*
X189350057Y-77233333D02*
X189445295Y-77185714D01*
X189445295Y-77185714D02*
X189588152Y-77185714D01*
X189588152Y-77185714D02*
X189683390Y-77233333D01*
X189683390Y-77233333D02*
X189731009Y-77280952D01*
X189731009Y-77280952D02*
X189778628Y-77376190D01*
X189778628Y-77376190D02*
X189778628Y-77757142D01*
X189350057Y-76804761D02*
X189302438Y-76757142D01*
X189302438Y-76757142D02*
X189254819Y-76661904D01*
X189254819Y-76661904D02*
X189254819Y-76423809D01*
X189254819Y-76423809D02*
X189302438Y-76328571D01*
X189302438Y-76328571D02*
X189350057Y-76280952D01*
X189350057Y-76280952D02*
X189445295Y-76233333D01*
X189445295Y-76233333D02*
X189540533Y-76233333D01*
X189540533Y-76233333D02*
X189683390Y-76280952D01*
X189683390Y-76280952D02*
X190254819Y-76852380D01*
X190254819Y-76852380D02*
X190254819Y-76233333D01*
X129104761Y-63450057D02*
X129009523Y-63402438D01*
X129009523Y-63402438D02*
X128914285Y-63307200D01*
X128914285Y-63307200D02*
X128771428Y-63164342D01*
X128771428Y-63164342D02*
X128676190Y-63116723D01*
X128676190Y-63116723D02*
X128580952Y-63116723D01*
X128628571Y-63354819D02*
X128533333Y-63307200D01*
X128533333Y-63307200D02*
X128438095Y-63211961D01*
X128438095Y-63211961D02*
X128390476Y-63021485D01*
X128390476Y-63021485D02*
X128390476Y-62688152D01*
X128390476Y-62688152D02*
X128438095Y-62497676D01*
X128438095Y-62497676D02*
X128533333Y-62402438D01*
X128533333Y-62402438D02*
X128628571Y-62354819D01*
X128628571Y-62354819D02*
X128819047Y-62354819D01*
X128819047Y-62354819D02*
X128914285Y-62402438D01*
X128914285Y-62402438D02*
X129009523Y-62497676D01*
X129009523Y-62497676D02*
X129057142Y-62688152D01*
X129057142Y-62688152D02*
X129057142Y-63021485D01*
X129057142Y-63021485D02*
X129009523Y-63211961D01*
X129009523Y-63211961D02*
X128914285Y-63307200D01*
X128914285Y-63307200D02*
X128819047Y-63354819D01*
X128819047Y-63354819D02*
X128628571Y-63354819D01*
X129914285Y-62354819D02*
X129723809Y-62354819D01*
X129723809Y-62354819D02*
X129628571Y-62402438D01*
X129628571Y-62402438D02*
X129580952Y-62450057D01*
X129580952Y-62450057D02*
X129485714Y-62592914D01*
X129485714Y-62592914D02*
X129438095Y-62783390D01*
X129438095Y-62783390D02*
X129438095Y-63164342D01*
X129438095Y-63164342D02*
X129485714Y-63259580D01*
X129485714Y-63259580D02*
X129533333Y-63307200D01*
X129533333Y-63307200D02*
X129628571Y-63354819D01*
X129628571Y-63354819D02*
X129819047Y-63354819D01*
X129819047Y-63354819D02*
X129914285Y-63307200D01*
X129914285Y-63307200D02*
X129961904Y-63259580D01*
X129961904Y-63259580D02*
X130009523Y-63164342D01*
X130009523Y-63164342D02*
X130009523Y-62926247D01*
X130009523Y-62926247D02*
X129961904Y-62831009D01*
X129961904Y-62831009D02*
X129914285Y-62783390D01*
X129914285Y-62783390D02*
X129819047Y-62735771D01*
X129819047Y-62735771D02*
X129628571Y-62735771D01*
X129628571Y-62735771D02*
X129533333Y-62783390D01*
X129533333Y-62783390D02*
X129485714Y-62831009D01*
X129485714Y-62831009D02*
X129438095Y-62926247D01*
X164566666Y-81431009D02*
X164233333Y-81431009D01*
X164233333Y-81954819D02*
X164233333Y-80954819D01*
X164233333Y-80954819D02*
X164709523Y-80954819D01*
X165566666Y-80954819D02*
X165090476Y-80954819D01*
X165090476Y-80954819D02*
X165042857Y-81431009D01*
X165042857Y-81431009D02*
X165090476Y-81383390D01*
X165090476Y-81383390D02*
X165185714Y-81335771D01*
X165185714Y-81335771D02*
X165423809Y-81335771D01*
X165423809Y-81335771D02*
X165519047Y-81383390D01*
X165519047Y-81383390D02*
X165566666Y-81431009D01*
X165566666Y-81431009D02*
X165614285Y-81526247D01*
X165614285Y-81526247D02*
X165614285Y-81764342D01*
X165614285Y-81764342D02*
X165566666Y-81859580D01*
X165566666Y-81859580D02*
X165519047Y-81907200D01*
X165519047Y-81907200D02*
X165423809Y-81954819D01*
X165423809Y-81954819D02*
X165185714Y-81954819D01*
X165185714Y-81954819D02*
X165090476Y-81907200D01*
X165090476Y-81907200D02*
X165042857Y-81859580D01*
X199866666Y-102054819D02*
X199866666Y-102769104D01*
X199866666Y-102769104D02*
X199819047Y-102911961D01*
X199819047Y-102911961D02*
X199723809Y-103007200D01*
X199723809Y-103007200D02*
X199580952Y-103054819D01*
X199580952Y-103054819D02*
X199485714Y-103054819D01*
X200771428Y-102054819D02*
X200580952Y-102054819D01*
X200580952Y-102054819D02*
X200485714Y-102102438D01*
X200485714Y-102102438D02*
X200438095Y-102150057D01*
X200438095Y-102150057D02*
X200342857Y-102292914D01*
X200342857Y-102292914D02*
X200295238Y-102483390D01*
X200295238Y-102483390D02*
X200295238Y-102864342D01*
X200295238Y-102864342D02*
X200342857Y-102959580D01*
X200342857Y-102959580D02*
X200390476Y-103007200D01*
X200390476Y-103007200D02*
X200485714Y-103054819D01*
X200485714Y-103054819D02*
X200676190Y-103054819D01*
X200676190Y-103054819D02*
X200771428Y-103007200D01*
X200771428Y-103007200D02*
X200819047Y-102959580D01*
X200819047Y-102959580D02*
X200866666Y-102864342D01*
X200866666Y-102864342D02*
X200866666Y-102626247D01*
X200866666Y-102626247D02*
X200819047Y-102531009D01*
X200819047Y-102531009D02*
X200771428Y-102483390D01*
X200771428Y-102483390D02*
X200676190Y-102435771D01*
X200676190Y-102435771D02*
X200485714Y-102435771D01*
X200485714Y-102435771D02*
X200390476Y-102483390D01*
X200390476Y-102483390D02*
X200342857Y-102531009D01*
X200342857Y-102531009D02*
X200295238Y-102626247D01*
X118054819Y-54566666D02*
X118054819Y-55042856D01*
X118054819Y-55042856D02*
X117054819Y-55042856D01*
X117150057Y-54280951D02*
X117102438Y-54233332D01*
X117102438Y-54233332D02*
X117054819Y-54138094D01*
X117054819Y-54138094D02*
X117054819Y-53899999D01*
X117054819Y-53899999D02*
X117102438Y-53804761D01*
X117102438Y-53804761D02*
X117150057Y-53757142D01*
X117150057Y-53757142D02*
X117245295Y-53709523D01*
X117245295Y-53709523D02*
X117340533Y-53709523D01*
X117340533Y-53709523D02*
X117483390Y-53757142D01*
X117483390Y-53757142D02*
X118054819Y-54328570D01*
X118054819Y-54328570D02*
X118054819Y-53709523D01*
X151966666Y-101954819D02*
X151966666Y-102669104D01*
X151966666Y-102669104D02*
X151919047Y-102811961D01*
X151919047Y-102811961D02*
X151823809Y-102907200D01*
X151823809Y-102907200D02*
X151680952Y-102954819D01*
X151680952Y-102954819D02*
X151585714Y-102954819D01*
X152585714Y-102383390D02*
X152490476Y-102335771D01*
X152490476Y-102335771D02*
X152442857Y-102288152D01*
X152442857Y-102288152D02*
X152395238Y-102192914D01*
X152395238Y-102192914D02*
X152395238Y-102145295D01*
X152395238Y-102145295D02*
X152442857Y-102050057D01*
X152442857Y-102050057D02*
X152490476Y-102002438D01*
X152490476Y-102002438D02*
X152585714Y-101954819D01*
X152585714Y-101954819D02*
X152776190Y-101954819D01*
X152776190Y-101954819D02*
X152871428Y-102002438D01*
X152871428Y-102002438D02*
X152919047Y-102050057D01*
X152919047Y-102050057D02*
X152966666Y-102145295D01*
X152966666Y-102145295D02*
X152966666Y-102192914D01*
X152966666Y-102192914D02*
X152919047Y-102288152D01*
X152919047Y-102288152D02*
X152871428Y-102335771D01*
X152871428Y-102335771D02*
X152776190Y-102383390D01*
X152776190Y-102383390D02*
X152585714Y-102383390D01*
X152585714Y-102383390D02*
X152490476Y-102431009D01*
X152490476Y-102431009D02*
X152442857Y-102478628D01*
X152442857Y-102478628D02*
X152395238Y-102573866D01*
X152395238Y-102573866D02*
X152395238Y-102764342D01*
X152395238Y-102764342D02*
X152442857Y-102859580D01*
X152442857Y-102859580D02*
X152490476Y-102907200D01*
X152490476Y-102907200D02*
X152585714Y-102954819D01*
X152585714Y-102954819D02*
X152776190Y-102954819D01*
X152776190Y-102954819D02*
X152871428Y-102907200D01*
X152871428Y-102907200D02*
X152919047Y-102859580D01*
X152919047Y-102859580D02*
X152966666Y-102764342D01*
X152966666Y-102764342D02*
X152966666Y-102573866D01*
X152966666Y-102573866D02*
X152919047Y-102478628D01*
X152919047Y-102478628D02*
X152871428Y-102431009D01*
X152871428Y-102431009D02*
X152776190Y-102383390D01*
X106566666Y-51854819D02*
X106566666Y-52569104D01*
X106566666Y-52569104D02*
X106519047Y-52711961D01*
X106519047Y-52711961D02*
X106423809Y-52807200D01*
X106423809Y-52807200D02*
X106280952Y-52854819D01*
X106280952Y-52854819D02*
X106185714Y-52854819D01*
X106995238Y-51950057D02*
X107042857Y-51902438D01*
X107042857Y-51902438D02*
X107138095Y-51854819D01*
X107138095Y-51854819D02*
X107376190Y-51854819D01*
X107376190Y-51854819D02*
X107471428Y-51902438D01*
X107471428Y-51902438D02*
X107519047Y-51950057D01*
X107519047Y-51950057D02*
X107566666Y-52045295D01*
X107566666Y-52045295D02*
X107566666Y-52140533D01*
X107566666Y-52140533D02*
X107519047Y-52283390D01*
X107519047Y-52283390D02*
X106947619Y-52854819D01*
X106947619Y-52854819D02*
X107566666Y-52854819D01*
X113538095Y-67156819D02*
X114109523Y-67156819D01*
X113823809Y-68156819D02*
X113823809Y-67156819D01*
X114442857Y-68156819D02*
X114442857Y-67156819D01*
X114442857Y-67156819D02*
X114823809Y-67156819D01*
X114823809Y-67156819D02*
X114919047Y-67204438D01*
X114919047Y-67204438D02*
X114966666Y-67252057D01*
X114966666Y-67252057D02*
X115014285Y-67347295D01*
X115014285Y-67347295D02*
X115014285Y-67490152D01*
X115014285Y-67490152D02*
X114966666Y-67585390D01*
X114966666Y-67585390D02*
X114919047Y-67633009D01*
X114919047Y-67633009D02*
X114823809Y-67680628D01*
X114823809Y-67680628D02*
X114442857Y-67680628D01*
X115395238Y-67252057D02*
X115442857Y-67204438D01*
X115442857Y-67204438D02*
X115538095Y-67156819D01*
X115538095Y-67156819D02*
X115776190Y-67156819D01*
X115776190Y-67156819D02*
X115871428Y-67204438D01*
X115871428Y-67204438D02*
X115919047Y-67252057D01*
X115919047Y-67252057D02*
X115966666Y-67347295D01*
X115966666Y-67347295D02*
X115966666Y-67442533D01*
X115966666Y-67442533D02*
X115919047Y-67585390D01*
X115919047Y-67585390D02*
X115347619Y-68156819D01*
X115347619Y-68156819D02*
X115966666Y-68156819D01*
X196454819Y-75933333D02*
X197169104Y-75933333D01*
X197169104Y-75933333D02*
X197311961Y-75980952D01*
X197311961Y-75980952D02*
X197407200Y-76076190D01*
X197407200Y-76076190D02*
X197454819Y-76219047D01*
X197454819Y-76219047D02*
X197454819Y-76314285D01*
X197454819Y-75457142D02*
X196454819Y-75457142D01*
X196454819Y-75457142D02*
X196454819Y-75076190D01*
X196454819Y-75076190D02*
X196502438Y-74980952D01*
X196502438Y-74980952D02*
X196550057Y-74933333D01*
X196550057Y-74933333D02*
X196645295Y-74885714D01*
X196645295Y-74885714D02*
X196788152Y-74885714D01*
X196788152Y-74885714D02*
X196883390Y-74933333D01*
X196883390Y-74933333D02*
X196931009Y-74980952D01*
X196931009Y-74980952D02*
X196978628Y-75076190D01*
X196978628Y-75076190D02*
X196978628Y-75457142D01*
X196788152Y-74028571D02*
X197454819Y-74028571D01*
X196407200Y-74266666D02*
X197121485Y-74504761D01*
X197121485Y-74504761D02*
X197121485Y-73885714D01*
X186882142Y-75484819D02*
X186548809Y-75008628D01*
X186310714Y-75484819D02*
X186310714Y-74484819D01*
X186310714Y-74484819D02*
X186691666Y-74484819D01*
X186691666Y-74484819D02*
X186786904Y-74532438D01*
X186786904Y-74532438D02*
X186834523Y-74580057D01*
X186834523Y-74580057D02*
X186882142Y-74675295D01*
X186882142Y-74675295D02*
X186882142Y-74818152D01*
X186882142Y-74818152D02*
X186834523Y-74913390D01*
X186834523Y-74913390D02*
X186786904Y-74961009D01*
X186786904Y-74961009D02*
X186691666Y-75008628D01*
X186691666Y-75008628D02*
X186310714Y-75008628D01*
X187263095Y-74580057D02*
X187310714Y-74532438D01*
X187310714Y-74532438D02*
X187405952Y-74484819D01*
X187405952Y-74484819D02*
X187644047Y-74484819D01*
X187644047Y-74484819D02*
X187739285Y-74532438D01*
X187739285Y-74532438D02*
X187786904Y-74580057D01*
X187786904Y-74580057D02*
X187834523Y-74675295D01*
X187834523Y-74675295D02*
X187834523Y-74770533D01*
X187834523Y-74770533D02*
X187786904Y-74913390D01*
X187786904Y-74913390D02*
X187215476Y-75484819D01*
X187215476Y-75484819D02*
X187834523Y-75484819D01*
X188167857Y-74484819D02*
X188786904Y-74484819D01*
X188786904Y-74484819D02*
X188453571Y-74865771D01*
X188453571Y-74865771D02*
X188596428Y-74865771D01*
X188596428Y-74865771D02*
X188691666Y-74913390D01*
X188691666Y-74913390D02*
X188739285Y-74961009D01*
X188739285Y-74961009D02*
X188786904Y-75056247D01*
X188786904Y-75056247D02*
X188786904Y-75294342D01*
X188786904Y-75294342D02*
X188739285Y-75389580D01*
X188739285Y-75389580D02*
X188691666Y-75437200D01*
X188691666Y-75437200D02*
X188596428Y-75484819D01*
X188596428Y-75484819D02*
X188310714Y-75484819D01*
X188310714Y-75484819D02*
X188215476Y-75437200D01*
X188215476Y-75437200D02*
X188167857Y-75389580D01*
X116833333Y-53259580D02*
X116785714Y-53307200D01*
X116785714Y-53307200D02*
X116642857Y-53354819D01*
X116642857Y-53354819D02*
X116547619Y-53354819D01*
X116547619Y-53354819D02*
X116404762Y-53307200D01*
X116404762Y-53307200D02*
X116309524Y-53211961D01*
X116309524Y-53211961D02*
X116261905Y-53116723D01*
X116261905Y-53116723D02*
X116214286Y-52926247D01*
X116214286Y-52926247D02*
X116214286Y-52783390D01*
X116214286Y-52783390D02*
X116261905Y-52592914D01*
X116261905Y-52592914D02*
X116309524Y-52497676D01*
X116309524Y-52497676D02*
X116404762Y-52402438D01*
X116404762Y-52402438D02*
X116547619Y-52354819D01*
X116547619Y-52354819D02*
X116642857Y-52354819D01*
X116642857Y-52354819D02*
X116785714Y-52402438D01*
X116785714Y-52402438D02*
X116833333Y-52450057D01*
X117309524Y-53354819D02*
X117500000Y-53354819D01*
X117500000Y-53354819D02*
X117595238Y-53307200D01*
X117595238Y-53307200D02*
X117642857Y-53259580D01*
X117642857Y-53259580D02*
X117738095Y-53116723D01*
X117738095Y-53116723D02*
X117785714Y-52926247D01*
X117785714Y-52926247D02*
X117785714Y-52545295D01*
X117785714Y-52545295D02*
X117738095Y-52450057D01*
X117738095Y-52450057D02*
X117690476Y-52402438D01*
X117690476Y-52402438D02*
X117595238Y-52354819D01*
X117595238Y-52354819D02*
X117404762Y-52354819D01*
X117404762Y-52354819D02*
X117309524Y-52402438D01*
X117309524Y-52402438D02*
X117261905Y-52450057D01*
X117261905Y-52450057D02*
X117214286Y-52545295D01*
X117214286Y-52545295D02*
X117214286Y-52783390D01*
X117214286Y-52783390D02*
X117261905Y-52878628D01*
X117261905Y-52878628D02*
X117309524Y-52926247D01*
X117309524Y-52926247D02*
X117404762Y-52973866D01*
X117404762Y-52973866D02*
X117595238Y-52973866D01*
X117595238Y-52973866D02*
X117690476Y-52926247D01*
X117690476Y-52926247D02*
X117738095Y-52878628D01*
X117738095Y-52878628D02*
X117785714Y-52783390D01*
X114538095Y-89454819D02*
X114538095Y-90264342D01*
X114538095Y-90264342D02*
X114585714Y-90359580D01*
X114585714Y-90359580D02*
X114633333Y-90407200D01*
X114633333Y-90407200D02*
X114728571Y-90454819D01*
X114728571Y-90454819D02*
X114919047Y-90454819D01*
X114919047Y-90454819D02*
X115014285Y-90407200D01*
X115014285Y-90407200D02*
X115061904Y-90359580D01*
X115061904Y-90359580D02*
X115109523Y-90264342D01*
X115109523Y-90264342D02*
X115109523Y-89454819D01*
X116109523Y-90454819D02*
X115538095Y-90454819D01*
X115823809Y-90454819D02*
X115823809Y-89454819D01*
X115823809Y-89454819D02*
X115728571Y-89597676D01*
X115728571Y-89597676D02*
X115633333Y-89692914D01*
X115633333Y-89692914D02*
X115538095Y-89740533D01*
X121754819Y-66042857D02*
X121278628Y-66376190D01*
X121754819Y-66614285D02*
X120754819Y-66614285D01*
X120754819Y-66614285D02*
X120754819Y-66233333D01*
X120754819Y-66233333D02*
X120802438Y-66138095D01*
X120802438Y-66138095D02*
X120850057Y-66090476D01*
X120850057Y-66090476D02*
X120945295Y-66042857D01*
X120945295Y-66042857D02*
X121088152Y-66042857D01*
X121088152Y-66042857D02*
X121183390Y-66090476D01*
X121183390Y-66090476D02*
X121231009Y-66138095D01*
X121231009Y-66138095D02*
X121278628Y-66233333D01*
X121278628Y-66233333D02*
X121278628Y-66614285D01*
X120754819Y-65709523D02*
X120754819Y-65090476D01*
X120754819Y-65090476D02*
X121135771Y-65423809D01*
X121135771Y-65423809D02*
X121135771Y-65280952D01*
X121135771Y-65280952D02*
X121183390Y-65185714D01*
X121183390Y-65185714D02*
X121231009Y-65138095D01*
X121231009Y-65138095D02*
X121326247Y-65090476D01*
X121326247Y-65090476D02*
X121564342Y-65090476D01*
X121564342Y-65090476D02*
X121659580Y-65138095D01*
X121659580Y-65138095D02*
X121707200Y-65185714D01*
X121707200Y-65185714D02*
X121754819Y-65280952D01*
X121754819Y-65280952D02*
X121754819Y-65566666D01*
X121754819Y-65566666D02*
X121707200Y-65661904D01*
X121707200Y-65661904D02*
X121659580Y-65709523D01*
X121754819Y-64138095D02*
X121754819Y-64709523D01*
X121754819Y-64423809D02*
X120754819Y-64423809D01*
X120754819Y-64423809D02*
X120897676Y-64519047D01*
X120897676Y-64519047D02*
X120992914Y-64614285D01*
X120992914Y-64614285D02*
X121040533Y-64709523D01*
X147690476Y-98254819D02*
X147690476Y-98969104D01*
X147690476Y-98969104D02*
X147642857Y-99111961D01*
X147642857Y-99111961D02*
X147547619Y-99207200D01*
X147547619Y-99207200D02*
X147404762Y-99254819D01*
X147404762Y-99254819D02*
X147309524Y-99254819D01*
X148690476Y-99254819D02*
X148119048Y-99254819D01*
X148404762Y-99254819D02*
X148404762Y-98254819D01*
X148404762Y-98254819D02*
X148309524Y-98397676D01*
X148309524Y-98397676D02*
X148214286Y-98492914D01*
X148214286Y-98492914D02*
X148119048Y-98540533D01*
X149023810Y-98254819D02*
X149690476Y-98254819D01*
X149690476Y-98254819D02*
X149261905Y-99254819D01*
X125032142Y-79184819D02*
X124698809Y-78708628D01*
X124460714Y-79184819D02*
X124460714Y-78184819D01*
X124460714Y-78184819D02*
X124841666Y-78184819D01*
X124841666Y-78184819D02*
X124936904Y-78232438D01*
X124936904Y-78232438D02*
X124984523Y-78280057D01*
X124984523Y-78280057D02*
X125032142Y-78375295D01*
X125032142Y-78375295D02*
X125032142Y-78518152D01*
X125032142Y-78518152D02*
X124984523Y-78613390D01*
X124984523Y-78613390D02*
X124936904Y-78661009D01*
X124936904Y-78661009D02*
X124841666Y-78708628D01*
X124841666Y-78708628D02*
X124460714Y-78708628D01*
X125413095Y-78280057D02*
X125460714Y-78232438D01*
X125460714Y-78232438D02*
X125555952Y-78184819D01*
X125555952Y-78184819D02*
X125794047Y-78184819D01*
X125794047Y-78184819D02*
X125889285Y-78232438D01*
X125889285Y-78232438D02*
X125936904Y-78280057D01*
X125936904Y-78280057D02*
X125984523Y-78375295D01*
X125984523Y-78375295D02*
X125984523Y-78470533D01*
X125984523Y-78470533D02*
X125936904Y-78613390D01*
X125936904Y-78613390D02*
X125365476Y-79184819D01*
X125365476Y-79184819D02*
X125984523Y-79184819D01*
X126460714Y-79184819D02*
X126651190Y-79184819D01*
X126651190Y-79184819D02*
X126746428Y-79137200D01*
X126746428Y-79137200D02*
X126794047Y-79089580D01*
X126794047Y-79089580D02*
X126889285Y-78946723D01*
X126889285Y-78946723D02*
X126936904Y-78756247D01*
X126936904Y-78756247D02*
X126936904Y-78375295D01*
X126936904Y-78375295D02*
X126889285Y-78280057D01*
X126889285Y-78280057D02*
X126841666Y-78232438D01*
X126841666Y-78232438D02*
X126746428Y-78184819D01*
X126746428Y-78184819D02*
X126555952Y-78184819D01*
X126555952Y-78184819D02*
X126460714Y-78232438D01*
X126460714Y-78232438D02*
X126413095Y-78280057D01*
X126413095Y-78280057D02*
X126365476Y-78375295D01*
X126365476Y-78375295D02*
X126365476Y-78613390D01*
X126365476Y-78613390D02*
X126413095Y-78708628D01*
X126413095Y-78708628D02*
X126460714Y-78756247D01*
X126460714Y-78756247D02*
X126555952Y-78803866D01*
X126555952Y-78803866D02*
X126746428Y-78803866D01*
X126746428Y-78803866D02*
X126841666Y-78756247D01*
X126841666Y-78756247D02*
X126889285Y-78708628D01*
X126889285Y-78708628D02*
X126936904Y-78613390D01*
X108366666Y-101031009D02*
X108033333Y-101031009D01*
X108033333Y-101554819D02*
X108033333Y-100554819D01*
X108033333Y-100554819D02*
X108509523Y-100554819D01*
X109414285Y-101554819D02*
X108842857Y-101554819D01*
X109128571Y-101554819D02*
X109128571Y-100554819D01*
X109128571Y-100554819D02*
X109033333Y-100697676D01*
X109033333Y-100697676D02*
X108938095Y-100792914D01*
X108938095Y-100792914D02*
X108842857Y-100840533D01*
X121433333Y-74059580D02*
X121385714Y-74107200D01*
X121385714Y-74107200D02*
X121242857Y-74154819D01*
X121242857Y-74154819D02*
X121147619Y-74154819D01*
X121147619Y-74154819D02*
X121004762Y-74107200D01*
X121004762Y-74107200D02*
X120909524Y-74011961D01*
X120909524Y-74011961D02*
X120861905Y-73916723D01*
X120861905Y-73916723D02*
X120814286Y-73726247D01*
X120814286Y-73726247D02*
X120814286Y-73583390D01*
X120814286Y-73583390D02*
X120861905Y-73392914D01*
X120861905Y-73392914D02*
X120909524Y-73297676D01*
X120909524Y-73297676D02*
X121004762Y-73202438D01*
X121004762Y-73202438D02*
X121147619Y-73154819D01*
X121147619Y-73154819D02*
X121242857Y-73154819D01*
X121242857Y-73154819D02*
X121385714Y-73202438D01*
X121385714Y-73202438D02*
X121433333Y-73250057D01*
X122338095Y-73154819D02*
X121861905Y-73154819D01*
X121861905Y-73154819D02*
X121814286Y-73631009D01*
X121814286Y-73631009D02*
X121861905Y-73583390D01*
X121861905Y-73583390D02*
X121957143Y-73535771D01*
X121957143Y-73535771D02*
X122195238Y-73535771D01*
X122195238Y-73535771D02*
X122290476Y-73583390D01*
X122290476Y-73583390D02*
X122338095Y-73631009D01*
X122338095Y-73631009D02*
X122385714Y-73726247D01*
X122385714Y-73726247D02*
X122385714Y-73964342D01*
X122385714Y-73964342D02*
X122338095Y-74059580D01*
X122338095Y-74059580D02*
X122290476Y-74107200D01*
X122290476Y-74107200D02*
X122195238Y-74154819D01*
X122195238Y-74154819D02*
X121957143Y-74154819D01*
X121957143Y-74154819D02*
X121861905Y-74107200D01*
X121861905Y-74107200D02*
X121814286Y-74059580D01*
X133557142Y-66954819D02*
X133223809Y-66478628D01*
X132985714Y-66954819D02*
X132985714Y-65954819D01*
X132985714Y-65954819D02*
X133366666Y-65954819D01*
X133366666Y-65954819D02*
X133461904Y-66002438D01*
X133461904Y-66002438D02*
X133509523Y-66050057D01*
X133509523Y-66050057D02*
X133557142Y-66145295D01*
X133557142Y-66145295D02*
X133557142Y-66288152D01*
X133557142Y-66288152D02*
X133509523Y-66383390D01*
X133509523Y-66383390D02*
X133461904Y-66431009D01*
X133461904Y-66431009D02*
X133366666Y-66478628D01*
X133366666Y-66478628D02*
X132985714Y-66478628D01*
X133890476Y-65954819D02*
X134509523Y-65954819D01*
X134509523Y-65954819D02*
X134176190Y-66335771D01*
X134176190Y-66335771D02*
X134319047Y-66335771D01*
X134319047Y-66335771D02*
X134414285Y-66383390D01*
X134414285Y-66383390D02*
X134461904Y-66431009D01*
X134461904Y-66431009D02*
X134509523Y-66526247D01*
X134509523Y-66526247D02*
X134509523Y-66764342D01*
X134509523Y-66764342D02*
X134461904Y-66859580D01*
X134461904Y-66859580D02*
X134414285Y-66907200D01*
X134414285Y-66907200D02*
X134319047Y-66954819D01*
X134319047Y-66954819D02*
X134033333Y-66954819D01*
X134033333Y-66954819D02*
X133938095Y-66907200D01*
X133938095Y-66907200D02*
X133890476Y-66859580D01*
X135128571Y-65954819D02*
X135223809Y-65954819D01*
X135223809Y-65954819D02*
X135319047Y-66002438D01*
X135319047Y-66002438D02*
X135366666Y-66050057D01*
X135366666Y-66050057D02*
X135414285Y-66145295D01*
X135414285Y-66145295D02*
X135461904Y-66335771D01*
X135461904Y-66335771D02*
X135461904Y-66573866D01*
X135461904Y-66573866D02*
X135414285Y-66764342D01*
X135414285Y-66764342D02*
X135366666Y-66859580D01*
X135366666Y-66859580D02*
X135319047Y-66907200D01*
X135319047Y-66907200D02*
X135223809Y-66954819D01*
X135223809Y-66954819D02*
X135128571Y-66954819D01*
X135128571Y-66954819D02*
X135033333Y-66907200D01*
X135033333Y-66907200D02*
X134985714Y-66859580D01*
X134985714Y-66859580D02*
X134938095Y-66764342D01*
X134938095Y-66764342D02*
X134890476Y-66573866D01*
X134890476Y-66573866D02*
X134890476Y-66335771D01*
X134890476Y-66335771D02*
X134938095Y-66145295D01*
X134938095Y-66145295D02*
X134985714Y-66050057D01*
X134985714Y-66050057D02*
X135033333Y-66002438D01*
X135033333Y-66002438D02*
X135128571Y-65954819D01*
X128890476Y-99654819D02*
X128890476Y-100369104D01*
X128890476Y-100369104D02*
X128842857Y-100511961D01*
X128842857Y-100511961D02*
X128747619Y-100607200D01*
X128747619Y-100607200D02*
X128604762Y-100654819D01*
X128604762Y-100654819D02*
X128509524Y-100654819D01*
X129890476Y-100654819D02*
X129319048Y-100654819D01*
X129604762Y-100654819D02*
X129604762Y-99654819D01*
X129604762Y-99654819D02*
X129509524Y-99797676D01*
X129509524Y-99797676D02*
X129414286Y-99892914D01*
X129414286Y-99892914D02*
X129319048Y-99940533D01*
X130747619Y-99654819D02*
X130557143Y-99654819D01*
X130557143Y-99654819D02*
X130461905Y-99702438D01*
X130461905Y-99702438D02*
X130414286Y-99750057D01*
X130414286Y-99750057D02*
X130319048Y-99892914D01*
X130319048Y-99892914D02*
X130271429Y-100083390D01*
X130271429Y-100083390D02*
X130271429Y-100464342D01*
X130271429Y-100464342D02*
X130319048Y-100559580D01*
X130319048Y-100559580D02*
X130366667Y-100607200D01*
X130366667Y-100607200D02*
X130461905Y-100654819D01*
X130461905Y-100654819D02*
X130652381Y-100654819D01*
X130652381Y-100654819D02*
X130747619Y-100607200D01*
X130747619Y-100607200D02*
X130795238Y-100559580D01*
X130795238Y-100559580D02*
X130842857Y-100464342D01*
X130842857Y-100464342D02*
X130842857Y-100226247D01*
X130842857Y-100226247D02*
X130795238Y-100131009D01*
X130795238Y-100131009D02*
X130747619Y-100083390D01*
X130747619Y-100083390D02*
X130652381Y-100035771D01*
X130652381Y-100035771D02*
X130461905Y-100035771D01*
X130461905Y-100035771D02*
X130366667Y-100083390D01*
X130366667Y-100083390D02*
X130319048Y-100131009D01*
X130319048Y-100131009D02*
X130271429Y-100226247D01*
X113333333Y-81759580D02*
X113285714Y-81807200D01*
X113285714Y-81807200D02*
X113142857Y-81854819D01*
X113142857Y-81854819D02*
X113047619Y-81854819D01*
X113047619Y-81854819D02*
X112904762Y-81807200D01*
X112904762Y-81807200D02*
X112809524Y-81711961D01*
X112809524Y-81711961D02*
X112761905Y-81616723D01*
X112761905Y-81616723D02*
X112714286Y-81426247D01*
X112714286Y-81426247D02*
X112714286Y-81283390D01*
X112714286Y-81283390D02*
X112761905Y-81092914D01*
X112761905Y-81092914D02*
X112809524Y-80997676D01*
X112809524Y-80997676D02*
X112904762Y-80902438D01*
X112904762Y-80902438D02*
X113047619Y-80854819D01*
X113047619Y-80854819D02*
X113142857Y-80854819D01*
X113142857Y-80854819D02*
X113285714Y-80902438D01*
X113285714Y-80902438D02*
X113333333Y-80950057D01*
X114190476Y-81188152D02*
X114190476Y-81854819D01*
X113952381Y-80807200D02*
X113714286Y-81521485D01*
X113714286Y-81521485D02*
X114333333Y-81521485D01*
X135504761Y-60350057D02*
X135409523Y-60302438D01*
X135409523Y-60302438D02*
X135314285Y-60207200D01*
X135314285Y-60207200D02*
X135171428Y-60064342D01*
X135171428Y-60064342D02*
X135076190Y-60016723D01*
X135076190Y-60016723D02*
X134980952Y-60016723D01*
X135028571Y-60254819D02*
X134933333Y-60207200D01*
X134933333Y-60207200D02*
X134838095Y-60111961D01*
X134838095Y-60111961D02*
X134790476Y-59921485D01*
X134790476Y-59921485D02*
X134790476Y-59588152D01*
X134790476Y-59588152D02*
X134838095Y-59397676D01*
X134838095Y-59397676D02*
X134933333Y-59302438D01*
X134933333Y-59302438D02*
X135028571Y-59254819D01*
X135028571Y-59254819D02*
X135219047Y-59254819D01*
X135219047Y-59254819D02*
X135314285Y-59302438D01*
X135314285Y-59302438D02*
X135409523Y-59397676D01*
X135409523Y-59397676D02*
X135457142Y-59588152D01*
X135457142Y-59588152D02*
X135457142Y-59921485D01*
X135457142Y-59921485D02*
X135409523Y-60111961D01*
X135409523Y-60111961D02*
X135314285Y-60207200D01*
X135314285Y-60207200D02*
X135219047Y-60254819D01*
X135219047Y-60254819D02*
X135028571Y-60254819D01*
X135838095Y-59350057D02*
X135885714Y-59302438D01*
X135885714Y-59302438D02*
X135980952Y-59254819D01*
X135980952Y-59254819D02*
X136219047Y-59254819D01*
X136219047Y-59254819D02*
X136314285Y-59302438D01*
X136314285Y-59302438D02*
X136361904Y-59350057D01*
X136361904Y-59350057D02*
X136409523Y-59445295D01*
X136409523Y-59445295D02*
X136409523Y-59540533D01*
X136409523Y-59540533D02*
X136361904Y-59683390D01*
X136361904Y-59683390D02*
X135790476Y-60254819D01*
X135790476Y-60254819D02*
X136409523Y-60254819D01*
X195384819Y-64467857D02*
X194908628Y-64801190D01*
X195384819Y-65039285D02*
X194384819Y-65039285D01*
X194384819Y-65039285D02*
X194384819Y-64658333D01*
X194384819Y-64658333D02*
X194432438Y-64563095D01*
X194432438Y-64563095D02*
X194480057Y-64515476D01*
X194480057Y-64515476D02*
X194575295Y-64467857D01*
X194575295Y-64467857D02*
X194718152Y-64467857D01*
X194718152Y-64467857D02*
X194813390Y-64515476D01*
X194813390Y-64515476D02*
X194861009Y-64563095D01*
X194861009Y-64563095D02*
X194908628Y-64658333D01*
X194908628Y-64658333D02*
X194908628Y-65039285D01*
X194480057Y-64086904D02*
X194432438Y-64039285D01*
X194432438Y-64039285D02*
X194384819Y-63944047D01*
X194384819Y-63944047D02*
X194384819Y-63705952D01*
X194384819Y-63705952D02*
X194432438Y-63610714D01*
X194432438Y-63610714D02*
X194480057Y-63563095D01*
X194480057Y-63563095D02*
X194575295Y-63515476D01*
X194575295Y-63515476D02*
X194670533Y-63515476D01*
X194670533Y-63515476D02*
X194813390Y-63563095D01*
X194813390Y-63563095D02*
X195384819Y-64134523D01*
X195384819Y-64134523D02*
X195384819Y-63515476D01*
X194384819Y-62658333D02*
X194384819Y-62848809D01*
X194384819Y-62848809D02*
X194432438Y-62944047D01*
X194432438Y-62944047D02*
X194480057Y-62991666D01*
X194480057Y-62991666D02*
X194622914Y-63086904D01*
X194622914Y-63086904D02*
X194813390Y-63134523D01*
X194813390Y-63134523D02*
X195194342Y-63134523D01*
X195194342Y-63134523D02*
X195289580Y-63086904D01*
X195289580Y-63086904D02*
X195337200Y-63039285D01*
X195337200Y-63039285D02*
X195384819Y-62944047D01*
X195384819Y-62944047D02*
X195384819Y-62753571D01*
X195384819Y-62753571D02*
X195337200Y-62658333D01*
X195337200Y-62658333D02*
X195289580Y-62610714D01*
X195289580Y-62610714D02*
X195194342Y-62563095D01*
X195194342Y-62563095D02*
X194956247Y-62563095D01*
X194956247Y-62563095D02*
X194861009Y-62610714D01*
X194861009Y-62610714D02*
X194813390Y-62658333D01*
X194813390Y-62658333D02*
X194765771Y-62753571D01*
X194765771Y-62753571D02*
X194765771Y-62944047D01*
X194765771Y-62944047D02*
X194813390Y-63039285D01*
X194813390Y-63039285D02*
X194861009Y-63086904D01*
X194861009Y-63086904D02*
X194956247Y-63134523D01*
X127522142Y-49124819D02*
X127188809Y-48648628D01*
X126950714Y-49124819D02*
X126950714Y-48124819D01*
X126950714Y-48124819D02*
X127331666Y-48124819D01*
X127331666Y-48124819D02*
X127426904Y-48172438D01*
X127426904Y-48172438D02*
X127474523Y-48220057D01*
X127474523Y-48220057D02*
X127522142Y-48315295D01*
X127522142Y-48315295D02*
X127522142Y-48458152D01*
X127522142Y-48458152D02*
X127474523Y-48553390D01*
X127474523Y-48553390D02*
X127426904Y-48601009D01*
X127426904Y-48601009D02*
X127331666Y-48648628D01*
X127331666Y-48648628D02*
X126950714Y-48648628D01*
X128474523Y-49124819D02*
X127903095Y-49124819D01*
X128188809Y-49124819D02*
X128188809Y-48124819D01*
X128188809Y-48124819D02*
X128093571Y-48267676D01*
X128093571Y-48267676D02*
X127998333Y-48362914D01*
X127998333Y-48362914D02*
X127903095Y-48410533D01*
X128950714Y-49124819D02*
X129141190Y-49124819D01*
X129141190Y-49124819D02*
X129236428Y-49077200D01*
X129236428Y-49077200D02*
X129284047Y-49029580D01*
X129284047Y-49029580D02*
X129379285Y-48886723D01*
X129379285Y-48886723D02*
X129426904Y-48696247D01*
X129426904Y-48696247D02*
X129426904Y-48315295D01*
X129426904Y-48315295D02*
X129379285Y-48220057D01*
X129379285Y-48220057D02*
X129331666Y-48172438D01*
X129331666Y-48172438D02*
X129236428Y-48124819D01*
X129236428Y-48124819D02*
X129045952Y-48124819D01*
X129045952Y-48124819D02*
X128950714Y-48172438D01*
X128950714Y-48172438D02*
X128903095Y-48220057D01*
X128903095Y-48220057D02*
X128855476Y-48315295D01*
X128855476Y-48315295D02*
X128855476Y-48553390D01*
X128855476Y-48553390D02*
X128903095Y-48648628D01*
X128903095Y-48648628D02*
X128950714Y-48696247D01*
X128950714Y-48696247D02*
X129045952Y-48743866D01*
X129045952Y-48743866D02*
X129236428Y-48743866D01*
X129236428Y-48743866D02*
X129331666Y-48696247D01*
X129331666Y-48696247D02*
X129379285Y-48648628D01*
X129379285Y-48648628D02*
X129426904Y-48553390D01*
X189254819Y-72833333D02*
X189969104Y-72833333D01*
X189969104Y-72833333D02*
X190111961Y-72880952D01*
X190111961Y-72880952D02*
X190207200Y-72976190D01*
X190207200Y-72976190D02*
X190254819Y-73119047D01*
X190254819Y-73119047D02*
X190254819Y-73214285D01*
X190254819Y-72357142D02*
X189254819Y-72357142D01*
X189254819Y-72357142D02*
X189254819Y-71976190D01*
X189254819Y-71976190D02*
X189302438Y-71880952D01*
X189302438Y-71880952D02*
X189350057Y-71833333D01*
X189350057Y-71833333D02*
X189445295Y-71785714D01*
X189445295Y-71785714D02*
X189588152Y-71785714D01*
X189588152Y-71785714D02*
X189683390Y-71833333D01*
X189683390Y-71833333D02*
X189731009Y-71880952D01*
X189731009Y-71880952D02*
X189778628Y-71976190D01*
X189778628Y-71976190D02*
X189778628Y-72357142D01*
X189254819Y-71452380D02*
X189254819Y-70833333D01*
X189254819Y-70833333D02*
X189635771Y-71166666D01*
X189635771Y-71166666D02*
X189635771Y-71023809D01*
X189635771Y-71023809D02*
X189683390Y-70928571D01*
X189683390Y-70928571D02*
X189731009Y-70880952D01*
X189731009Y-70880952D02*
X189826247Y-70833333D01*
X189826247Y-70833333D02*
X190064342Y-70833333D01*
X190064342Y-70833333D02*
X190159580Y-70880952D01*
X190159580Y-70880952D02*
X190207200Y-70928571D01*
X190207200Y-70928571D02*
X190254819Y-71023809D01*
X190254819Y-71023809D02*
X190254819Y-71309523D01*
X190254819Y-71309523D02*
X190207200Y-71404761D01*
X190207200Y-71404761D02*
X190159580Y-71452380D01*
X126323333Y-53654819D02*
X125990000Y-53178628D01*
X125751905Y-53654819D02*
X125751905Y-52654819D01*
X125751905Y-52654819D02*
X126132857Y-52654819D01*
X126132857Y-52654819D02*
X126228095Y-52702438D01*
X126228095Y-52702438D02*
X126275714Y-52750057D01*
X126275714Y-52750057D02*
X126323333Y-52845295D01*
X126323333Y-52845295D02*
X126323333Y-52988152D01*
X126323333Y-52988152D02*
X126275714Y-53083390D01*
X126275714Y-53083390D02*
X126228095Y-53131009D01*
X126228095Y-53131009D02*
X126132857Y-53178628D01*
X126132857Y-53178628D02*
X125751905Y-53178628D01*
X126894762Y-53083390D02*
X126799524Y-53035771D01*
X126799524Y-53035771D02*
X126751905Y-52988152D01*
X126751905Y-52988152D02*
X126704286Y-52892914D01*
X126704286Y-52892914D02*
X126704286Y-52845295D01*
X126704286Y-52845295D02*
X126751905Y-52750057D01*
X126751905Y-52750057D02*
X126799524Y-52702438D01*
X126799524Y-52702438D02*
X126894762Y-52654819D01*
X126894762Y-52654819D02*
X127085238Y-52654819D01*
X127085238Y-52654819D02*
X127180476Y-52702438D01*
X127180476Y-52702438D02*
X127228095Y-52750057D01*
X127228095Y-52750057D02*
X127275714Y-52845295D01*
X127275714Y-52845295D02*
X127275714Y-52892914D01*
X127275714Y-52892914D02*
X127228095Y-52988152D01*
X127228095Y-52988152D02*
X127180476Y-53035771D01*
X127180476Y-53035771D02*
X127085238Y-53083390D01*
X127085238Y-53083390D02*
X126894762Y-53083390D01*
X126894762Y-53083390D02*
X126799524Y-53131009D01*
X126799524Y-53131009D02*
X126751905Y-53178628D01*
X126751905Y-53178628D02*
X126704286Y-53273866D01*
X126704286Y-53273866D02*
X126704286Y-53464342D01*
X126704286Y-53464342D02*
X126751905Y-53559580D01*
X126751905Y-53559580D02*
X126799524Y-53607200D01*
X126799524Y-53607200D02*
X126894762Y-53654819D01*
X126894762Y-53654819D02*
X127085238Y-53654819D01*
X127085238Y-53654819D02*
X127180476Y-53607200D01*
X127180476Y-53607200D02*
X127228095Y-53559580D01*
X127228095Y-53559580D02*
X127275714Y-53464342D01*
X127275714Y-53464342D02*
X127275714Y-53273866D01*
X127275714Y-53273866D02*
X127228095Y-53178628D01*
X127228095Y-53178628D02*
X127180476Y-53131009D01*
X127180476Y-53131009D02*
X127085238Y-53083390D01*
X139495833Y-74554819D02*
X139162500Y-74078628D01*
X138924405Y-74554819D02*
X138924405Y-73554819D01*
X138924405Y-73554819D02*
X139305357Y-73554819D01*
X139305357Y-73554819D02*
X139400595Y-73602438D01*
X139400595Y-73602438D02*
X139448214Y-73650057D01*
X139448214Y-73650057D02*
X139495833Y-73745295D01*
X139495833Y-73745295D02*
X139495833Y-73888152D01*
X139495833Y-73888152D02*
X139448214Y-73983390D01*
X139448214Y-73983390D02*
X139400595Y-74031009D01*
X139400595Y-74031009D02*
X139305357Y-74078628D01*
X139305357Y-74078628D02*
X138924405Y-74078628D01*
X140352976Y-73888152D02*
X140352976Y-74554819D01*
X140114881Y-73507200D02*
X139876786Y-74221485D01*
X139876786Y-74221485D02*
X140495833Y-74221485D01*
X177266666Y-101954819D02*
X177266666Y-102669104D01*
X177266666Y-102669104D02*
X177219047Y-102811961D01*
X177219047Y-102811961D02*
X177123809Y-102907200D01*
X177123809Y-102907200D02*
X176980952Y-102954819D01*
X176980952Y-102954819D02*
X176885714Y-102954819D01*
X177647619Y-101954819D02*
X178314285Y-101954819D01*
X178314285Y-101954819D02*
X177885714Y-102954819D01*
X110133333Y-76654819D02*
X109657143Y-76654819D01*
X109657143Y-76654819D02*
X109657143Y-75654819D01*
X110990476Y-76654819D02*
X110419048Y-76654819D01*
X110704762Y-76654819D02*
X110704762Y-75654819D01*
X110704762Y-75654819D02*
X110609524Y-75797676D01*
X110609524Y-75797676D02*
X110514286Y-75892914D01*
X110514286Y-75892914D02*
X110419048Y-75940533D01*
X161257142Y-74654819D02*
X160923809Y-74178628D01*
X160685714Y-74654819D02*
X160685714Y-73654819D01*
X160685714Y-73654819D02*
X161066666Y-73654819D01*
X161066666Y-73654819D02*
X161161904Y-73702438D01*
X161161904Y-73702438D02*
X161209523Y-73750057D01*
X161209523Y-73750057D02*
X161257142Y-73845295D01*
X161257142Y-73845295D02*
X161257142Y-73988152D01*
X161257142Y-73988152D02*
X161209523Y-74083390D01*
X161209523Y-74083390D02*
X161161904Y-74131009D01*
X161161904Y-74131009D02*
X161066666Y-74178628D01*
X161066666Y-74178628D02*
X160685714Y-74178628D01*
X162209523Y-74654819D02*
X161638095Y-74654819D01*
X161923809Y-74654819D02*
X161923809Y-73654819D01*
X161923809Y-73654819D02*
X161828571Y-73797676D01*
X161828571Y-73797676D02*
X161733333Y-73892914D01*
X161733333Y-73892914D02*
X161638095Y-73940533D01*
X162590476Y-73750057D02*
X162638095Y-73702438D01*
X162638095Y-73702438D02*
X162733333Y-73654819D01*
X162733333Y-73654819D02*
X162971428Y-73654819D01*
X162971428Y-73654819D02*
X163066666Y-73702438D01*
X163066666Y-73702438D02*
X163114285Y-73750057D01*
X163114285Y-73750057D02*
X163161904Y-73845295D01*
X163161904Y-73845295D02*
X163161904Y-73940533D01*
X163161904Y-73940533D02*
X163114285Y-74083390D01*
X163114285Y-74083390D02*
X162542857Y-74654819D01*
X162542857Y-74654819D02*
X163161904Y-74654819D01*
X146632142Y-68284819D02*
X146298809Y-67808628D01*
X146060714Y-68284819D02*
X146060714Y-67284819D01*
X146060714Y-67284819D02*
X146441666Y-67284819D01*
X146441666Y-67284819D02*
X146536904Y-67332438D01*
X146536904Y-67332438D02*
X146584523Y-67380057D01*
X146584523Y-67380057D02*
X146632142Y-67475295D01*
X146632142Y-67475295D02*
X146632142Y-67618152D01*
X146632142Y-67618152D02*
X146584523Y-67713390D01*
X146584523Y-67713390D02*
X146536904Y-67761009D01*
X146536904Y-67761009D02*
X146441666Y-67808628D01*
X146441666Y-67808628D02*
X146060714Y-67808628D01*
X146965476Y-67284819D02*
X147584523Y-67284819D01*
X147584523Y-67284819D02*
X147251190Y-67665771D01*
X147251190Y-67665771D02*
X147394047Y-67665771D01*
X147394047Y-67665771D02*
X147489285Y-67713390D01*
X147489285Y-67713390D02*
X147536904Y-67761009D01*
X147536904Y-67761009D02*
X147584523Y-67856247D01*
X147584523Y-67856247D02*
X147584523Y-68094342D01*
X147584523Y-68094342D02*
X147536904Y-68189580D01*
X147536904Y-68189580D02*
X147489285Y-68237200D01*
X147489285Y-68237200D02*
X147394047Y-68284819D01*
X147394047Y-68284819D02*
X147108333Y-68284819D01*
X147108333Y-68284819D02*
X147013095Y-68237200D01*
X147013095Y-68237200D02*
X146965476Y-68189580D01*
X148441666Y-67618152D02*
X148441666Y-68284819D01*
X148203571Y-67237200D02*
X147965476Y-67951485D01*
X147965476Y-67951485D02*
X148584523Y-67951485D01*
X139308333Y-65109580D02*
X139260714Y-65157200D01*
X139260714Y-65157200D02*
X139117857Y-65204819D01*
X139117857Y-65204819D02*
X139022619Y-65204819D01*
X139022619Y-65204819D02*
X138879762Y-65157200D01*
X138879762Y-65157200D02*
X138784524Y-65061961D01*
X138784524Y-65061961D02*
X138736905Y-64966723D01*
X138736905Y-64966723D02*
X138689286Y-64776247D01*
X138689286Y-64776247D02*
X138689286Y-64633390D01*
X138689286Y-64633390D02*
X138736905Y-64442914D01*
X138736905Y-64442914D02*
X138784524Y-64347676D01*
X138784524Y-64347676D02*
X138879762Y-64252438D01*
X138879762Y-64252438D02*
X139022619Y-64204819D01*
X139022619Y-64204819D02*
X139117857Y-64204819D01*
X139117857Y-64204819D02*
X139260714Y-64252438D01*
X139260714Y-64252438D02*
X139308333Y-64300057D01*
X140165476Y-64204819D02*
X139975000Y-64204819D01*
X139975000Y-64204819D02*
X139879762Y-64252438D01*
X139879762Y-64252438D02*
X139832143Y-64300057D01*
X139832143Y-64300057D02*
X139736905Y-64442914D01*
X139736905Y-64442914D02*
X139689286Y-64633390D01*
X139689286Y-64633390D02*
X139689286Y-65014342D01*
X139689286Y-65014342D02*
X139736905Y-65109580D01*
X139736905Y-65109580D02*
X139784524Y-65157200D01*
X139784524Y-65157200D02*
X139879762Y-65204819D01*
X139879762Y-65204819D02*
X140070238Y-65204819D01*
X140070238Y-65204819D02*
X140165476Y-65157200D01*
X140165476Y-65157200D02*
X140213095Y-65109580D01*
X140213095Y-65109580D02*
X140260714Y-65014342D01*
X140260714Y-65014342D02*
X140260714Y-64776247D01*
X140260714Y-64776247D02*
X140213095Y-64681009D01*
X140213095Y-64681009D02*
X140165476Y-64633390D01*
X140165476Y-64633390D02*
X140070238Y-64585771D01*
X140070238Y-64585771D02*
X139879762Y-64585771D01*
X139879762Y-64585771D02*
X139784524Y-64633390D01*
X139784524Y-64633390D02*
X139736905Y-64681009D01*
X139736905Y-64681009D02*
X139689286Y-64776247D01*
X111554819Y-75038094D02*
X110554819Y-75038094D01*
X110554819Y-75038094D02*
X110554819Y-74799999D01*
X110554819Y-74799999D02*
X110602438Y-74657142D01*
X110602438Y-74657142D02*
X110697676Y-74561904D01*
X110697676Y-74561904D02*
X110792914Y-74514285D01*
X110792914Y-74514285D02*
X110983390Y-74466666D01*
X110983390Y-74466666D02*
X111126247Y-74466666D01*
X111126247Y-74466666D02*
X111316723Y-74514285D01*
X111316723Y-74514285D02*
X111411961Y-74561904D01*
X111411961Y-74561904D02*
X111507200Y-74657142D01*
X111507200Y-74657142D02*
X111554819Y-74799999D01*
X111554819Y-74799999D02*
X111554819Y-75038094D01*
X110554819Y-74133332D02*
X110554819Y-73514285D01*
X110554819Y-73514285D02*
X110935771Y-73847618D01*
X110935771Y-73847618D02*
X110935771Y-73704761D01*
X110935771Y-73704761D02*
X110983390Y-73609523D01*
X110983390Y-73609523D02*
X111031009Y-73561904D01*
X111031009Y-73561904D02*
X111126247Y-73514285D01*
X111126247Y-73514285D02*
X111364342Y-73514285D01*
X111364342Y-73514285D02*
X111459580Y-73561904D01*
X111459580Y-73561904D02*
X111507200Y-73609523D01*
X111507200Y-73609523D02*
X111554819Y-73704761D01*
X111554819Y-73704761D02*
X111554819Y-73990475D01*
X111554819Y-73990475D02*
X111507200Y-74085713D01*
X111507200Y-74085713D02*
X111459580Y-74133332D01*
X188367261Y-68000057D02*
X188272023Y-67952438D01*
X188272023Y-67952438D02*
X188176785Y-67857200D01*
X188176785Y-67857200D02*
X188033928Y-67714342D01*
X188033928Y-67714342D02*
X187938690Y-67666723D01*
X187938690Y-67666723D02*
X187843452Y-67666723D01*
X187891071Y-67904819D02*
X187795833Y-67857200D01*
X187795833Y-67857200D02*
X187700595Y-67761961D01*
X187700595Y-67761961D02*
X187652976Y-67571485D01*
X187652976Y-67571485D02*
X187652976Y-67238152D01*
X187652976Y-67238152D02*
X187700595Y-67047676D01*
X187700595Y-67047676D02*
X187795833Y-66952438D01*
X187795833Y-66952438D02*
X187891071Y-66904819D01*
X187891071Y-66904819D02*
X188081547Y-66904819D01*
X188081547Y-66904819D02*
X188176785Y-66952438D01*
X188176785Y-66952438D02*
X188272023Y-67047676D01*
X188272023Y-67047676D02*
X188319642Y-67238152D01*
X188319642Y-67238152D02*
X188319642Y-67571485D01*
X188319642Y-67571485D02*
X188272023Y-67761961D01*
X188272023Y-67761961D02*
X188176785Y-67857200D01*
X188176785Y-67857200D02*
X188081547Y-67904819D01*
X188081547Y-67904819D02*
X187891071Y-67904819D01*
X188652976Y-66904819D02*
X189319642Y-66904819D01*
X189319642Y-66904819D02*
X188891071Y-67904819D01*
X182566666Y-81631009D02*
X182233333Y-81631009D01*
X182233333Y-82154819D02*
X182233333Y-81154819D01*
X182233333Y-81154819D02*
X182709523Y-81154819D01*
X182995238Y-81154819D02*
X183614285Y-81154819D01*
X183614285Y-81154819D02*
X183280952Y-81535771D01*
X183280952Y-81535771D02*
X183423809Y-81535771D01*
X183423809Y-81535771D02*
X183519047Y-81583390D01*
X183519047Y-81583390D02*
X183566666Y-81631009D01*
X183566666Y-81631009D02*
X183614285Y-81726247D01*
X183614285Y-81726247D02*
X183614285Y-81964342D01*
X183614285Y-81964342D02*
X183566666Y-82059580D01*
X183566666Y-82059580D02*
X183519047Y-82107200D01*
X183519047Y-82107200D02*
X183423809Y-82154819D01*
X183423809Y-82154819D02*
X183138095Y-82154819D01*
X183138095Y-82154819D02*
X183042857Y-82107200D01*
X183042857Y-82107200D02*
X182995238Y-82059580D01*
X117550057Y-90455238D02*
X117502438Y-90550476D01*
X117502438Y-90550476D02*
X117407200Y-90645714D01*
X117407200Y-90645714D02*
X117264342Y-90788571D01*
X117264342Y-90788571D02*
X117216723Y-90883809D01*
X117216723Y-90883809D02*
X117216723Y-90979047D01*
X117454819Y-90931428D02*
X117407200Y-91026666D01*
X117407200Y-91026666D02*
X117311961Y-91121904D01*
X117311961Y-91121904D02*
X117121485Y-91169523D01*
X117121485Y-91169523D02*
X116788152Y-91169523D01*
X116788152Y-91169523D02*
X116597676Y-91121904D01*
X116597676Y-91121904D02*
X116502438Y-91026666D01*
X116502438Y-91026666D02*
X116454819Y-90931428D01*
X116454819Y-90931428D02*
X116454819Y-90740952D01*
X116454819Y-90740952D02*
X116502438Y-90645714D01*
X116502438Y-90645714D02*
X116597676Y-90550476D01*
X116597676Y-90550476D02*
X116788152Y-90502857D01*
X116788152Y-90502857D02*
X117121485Y-90502857D01*
X117121485Y-90502857D02*
X117311961Y-90550476D01*
X117311961Y-90550476D02*
X117407200Y-90645714D01*
X117407200Y-90645714D02*
X117454819Y-90740952D01*
X117454819Y-90740952D02*
X117454819Y-90931428D01*
X116788152Y-89645714D02*
X117454819Y-89645714D01*
X116407200Y-89883809D02*
X117121485Y-90121904D01*
X117121485Y-90121904D02*
X117121485Y-89502857D01*
X181490476Y-61164819D02*
X181490476Y-61879104D01*
X181490476Y-61879104D02*
X181442857Y-62021961D01*
X181442857Y-62021961D02*
X181347619Y-62117200D01*
X181347619Y-62117200D02*
X181204762Y-62164819D01*
X181204762Y-62164819D02*
X181109524Y-62164819D01*
X182490476Y-62164819D02*
X181919048Y-62164819D01*
X182204762Y-62164819D02*
X182204762Y-61164819D01*
X182204762Y-61164819D02*
X182109524Y-61307676D01*
X182109524Y-61307676D02*
X182014286Y-61402914D01*
X182014286Y-61402914D02*
X181919048Y-61450533D01*
X183395238Y-61164819D02*
X182919048Y-61164819D01*
X182919048Y-61164819D02*
X182871429Y-61641009D01*
X182871429Y-61641009D02*
X182919048Y-61593390D01*
X182919048Y-61593390D02*
X183014286Y-61545771D01*
X183014286Y-61545771D02*
X183252381Y-61545771D01*
X183252381Y-61545771D02*
X183347619Y-61593390D01*
X183347619Y-61593390D02*
X183395238Y-61641009D01*
X183395238Y-61641009D02*
X183442857Y-61736247D01*
X183442857Y-61736247D02*
X183442857Y-61974342D01*
X183442857Y-61974342D02*
X183395238Y-62069580D01*
X183395238Y-62069580D02*
X183347619Y-62117200D01*
X183347619Y-62117200D02*
X183252381Y-62164819D01*
X183252381Y-62164819D02*
X183014286Y-62164819D01*
X183014286Y-62164819D02*
X182919048Y-62117200D01*
X182919048Y-62117200D02*
X182871429Y-62069580D01*
X130138095Y-76554819D02*
X130138095Y-77364342D01*
X130138095Y-77364342D02*
X130185714Y-77459580D01*
X130185714Y-77459580D02*
X130233333Y-77507200D01*
X130233333Y-77507200D02*
X130328571Y-77554819D01*
X130328571Y-77554819D02*
X130519047Y-77554819D01*
X130519047Y-77554819D02*
X130614285Y-77507200D01*
X130614285Y-77507200D02*
X130661904Y-77459580D01*
X130661904Y-77459580D02*
X130709523Y-77364342D01*
X130709523Y-77364342D02*
X130709523Y-76554819D01*
X131138095Y-76650057D02*
X131185714Y-76602438D01*
X131185714Y-76602438D02*
X131280952Y-76554819D01*
X131280952Y-76554819D02*
X131519047Y-76554819D01*
X131519047Y-76554819D02*
X131614285Y-76602438D01*
X131614285Y-76602438D02*
X131661904Y-76650057D01*
X131661904Y-76650057D02*
X131709523Y-76745295D01*
X131709523Y-76745295D02*
X131709523Y-76840533D01*
X131709523Y-76840533D02*
X131661904Y-76983390D01*
X131661904Y-76983390D02*
X131090476Y-77554819D01*
X131090476Y-77554819D02*
X131709523Y-77554819D01*
X114324819Y-65967857D02*
X113848628Y-66301190D01*
X114324819Y-66539285D02*
X113324819Y-66539285D01*
X113324819Y-66539285D02*
X113324819Y-66158333D01*
X113324819Y-66158333D02*
X113372438Y-66063095D01*
X113372438Y-66063095D02*
X113420057Y-66015476D01*
X113420057Y-66015476D02*
X113515295Y-65967857D01*
X113515295Y-65967857D02*
X113658152Y-65967857D01*
X113658152Y-65967857D02*
X113753390Y-66015476D01*
X113753390Y-66015476D02*
X113801009Y-66063095D01*
X113801009Y-66063095D02*
X113848628Y-66158333D01*
X113848628Y-66158333D02*
X113848628Y-66539285D01*
X113324819Y-65634523D02*
X113324819Y-65015476D01*
X113324819Y-65015476D02*
X113705771Y-65348809D01*
X113705771Y-65348809D02*
X113705771Y-65205952D01*
X113705771Y-65205952D02*
X113753390Y-65110714D01*
X113753390Y-65110714D02*
X113801009Y-65063095D01*
X113801009Y-65063095D02*
X113896247Y-65015476D01*
X113896247Y-65015476D02*
X114134342Y-65015476D01*
X114134342Y-65015476D02*
X114229580Y-65063095D01*
X114229580Y-65063095D02*
X114277200Y-65110714D01*
X114277200Y-65110714D02*
X114324819Y-65205952D01*
X114324819Y-65205952D02*
X114324819Y-65491666D01*
X114324819Y-65491666D02*
X114277200Y-65586904D01*
X114277200Y-65586904D02*
X114229580Y-65634523D01*
X113324819Y-64682142D02*
X113324819Y-64063095D01*
X113324819Y-64063095D02*
X113705771Y-64396428D01*
X113705771Y-64396428D02*
X113705771Y-64253571D01*
X113705771Y-64253571D02*
X113753390Y-64158333D01*
X113753390Y-64158333D02*
X113801009Y-64110714D01*
X113801009Y-64110714D02*
X113896247Y-64063095D01*
X113896247Y-64063095D02*
X114134342Y-64063095D01*
X114134342Y-64063095D02*
X114229580Y-64110714D01*
X114229580Y-64110714D02*
X114277200Y-64158333D01*
X114277200Y-64158333D02*
X114324819Y-64253571D01*
X114324819Y-64253571D02*
X114324819Y-64539285D01*
X114324819Y-64539285D02*
X114277200Y-64634523D01*
X114277200Y-64634523D02*
X114229580Y-64682142D01*
X185282142Y-68289580D02*
X185234523Y-68337200D01*
X185234523Y-68337200D02*
X185091666Y-68384819D01*
X185091666Y-68384819D02*
X184996428Y-68384819D01*
X184996428Y-68384819D02*
X184853571Y-68337200D01*
X184853571Y-68337200D02*
X184758333Y-68241961D01*
X184758333Y-68241961D02*
X184710714Y-68146723D01*
X184710714Y-68146723D02*
X184663095Y-67956247D01*
X184663095Y-67956247D02*
X184663095Y-67813390D01*
X184663095Y-67813390D02*
X184710714Y-67622914D01*
X184710714Y-67622914D02*
X184758333Y-67527676D01*
X184758333Y-67527676D02*
X184853571Y-67432438D01*
X184853571Y-67432438D02*
X184996428Y-67384819D01*
X184996428Y-67384819D02*
X185091666Y-67384819D01*
X185091666Y-67384819D02*
X185234523Y-67432438D01*
X185234523Y-67432438D02*
X185282142Y-67480057D01*
X186234523Y-68384819D02*
X185663095Y-68384819D01*
X185948809Y-68384819D02*
X185948809Y-67384819D01*
X185948809Y-67384819D02*
X185853571Y-67527676D01*
X185853571Y-67527676D02*
X185758333Y-67622914D01*
X185758333Y-67622914D02*
X185663095Y-67670533D01*
X186567857Y-67384819D02*
X187234523Y-67384819D01*
X187234523Y-67384819D02*
X186805952Y-68384819D01*
X196054819Y-80433333D02*
X196769104Y-80433333D01*
X196769104Y-80433333D02*
X196911961Y-80480952D01*
X196911961Y-80480952D02*
X197007200Y-80576190D01*
X197007200Y-80576190D02*
X197054819Y-80719047D01*
X197054819Y-80719047D02*
X197054819Y-80814285D01*
X197054819Y-79957142D02*
X196054819Y-79957142D01*
X196054819Y-79957142D02*
X196054819Y-79576190D01*
X196054819Y-79576190D02*
X196102438Y-79480952D01*
X196102438Y-79480952D02*
X196150057Y-79433333D01*
X196150057Y-79433333D02*
X196245295Y-79385714D01*
X196245295Y-79385714D02*
X196388152Y-79385714D01*
X196388152Y-79385714D02*
X196483390Y-79433333D01*
X196483390Y-79433333D02*
X196531009Y-79480952D01*
X196531009Y-79480952D02*
X196578628Y-79576190D01*
X196578628Y-79576190D02*
X196578628Y-79957142D01*
X197054819Y-78433333D02*
X197054819Y-79004761D01*
X197054819Y-78719047D02*
X196054819Y-78719047D01*
X196054819Y-78719047D02*
X196197676Y-78814285D01*
X196197676Y-78814285D02*
X196292914Y-78909523D01*
X196292914Y-78909523D02*
X196340533Y-79004761D01*
X175166666Y-101954819D02*
X175166666Y-102669104D01*
X175166666Y-102669104D02*
X175119047Y-102811961D01*
X175119047Y-102811961D02*
X175023809Y-102907200D01*
X175023809Y-102907200D02*
X174880952Y-102954819D01*
X174880952Y-102954819D02*
X174785714Y-102954819D01*
X175690476Y-102954819D02*
X175880952Y-102954819D01*
X175880952Y-102954819D02*
X175976190Y-102907200D01*
X175976190Y-102907200D02*
X176023809Y-102859580D01*
X176023809Y-102859580D02*
X176119047Y-102716723D01*
X176119047Y-102716723D02*
X176166666Y-102526247D01*
X176166666Y-102526247D02*
X176166666Y-102145295D01*
X176166666Y-102145295D02*
X176119047Y-102050057D01*
X176119047Y-102050057D02*
X176071428Y-102002438D01*
X176071428Y-102002438D02*
X175976190Y-101954819D01*
X175976190Y-101954819D02*
X175785714Y-101954819D01*
X175785714Y-101954819D02*
X175690476Y-102002438D01*
X175690476Y-102002438D02*
X175642857Y-102050057D01*
X175642857Y-102050057D02*
X175595238Y-102145295D01*
X175595238Y-102145295D02*
X175595238Y-102383390D01*
X175595238Y-102383390D02*
X175642857Y-102478628D01*
X175642857Y-102478628D02*
X175690476Y-102526247D01*
X175690476Y-102526247D02*
X175785714Y-102573866D01*
X175785714Y-102573866D02*
X175976190Y-102573866D01*
X175976190Y-102573866D02*
X176071428Y-102526247D01*
X176071428Y-102526247D02*
X176119047Y-102478628D01*
X176119047Y-102478628D02*
X176166666Y-102383390D01*
X195384819Y-67567857D02*
X194908628Y-67901190D01*
X195384819Y-68139285D02*
X194384819Y-68139285D01*
X194384819Y-68139285D02*
X194384819Y-67758333D01*
X194384819Y-67758333D02*
X194432438Y-67663095D01*
X194432438Y-67663095D02*
X194480057Y-67615476D01*
X194480057Y-67615476D02*
X194575295Y-67567857D01*
X194575295Y-67567857D02*
X194718152Y-67567857D01*
X194718152Y-67567857D02*
X194813390Y-67615476D01*
X194813390Y-67615476D02*
X194861009Y-67663095D01*
X194861009Y-67663095D02*
X194908628Y-67758333D01*
X194908628Y-67758333D02*
X194908628Y-68139285D01*
X194480057Y-67186904D02*
X194432438Y-67139285D01*
X194432438Y-67139285D02*
X194384819Y-67044047D01*
X194384819Y-67044047D02*
X194384819Y-66805952D01*
X194384819Y-66805952D02*
X194432438Y-66710714D01*
X194432438Y-66710714D02*
X194480057Y-66663095D01*
X194480057Y-66663095D02*
X194575295Y-66615476D01*
X194575295Y-66615476D02*
X194670533Y-66615476D01*
X194670533Y-66615476D02*
X194813390Y-66663095D01*
X194813390Y-66663095D02*
X195384819Y-67234523D01*
X195384819Y-67234523D02*
X195384819Y-66615476D01*
X194384819Y-66282142D02*
X194384819Y-65615476D01*
X194384819Y-65615476D02*
X195384819Y-66044047D01*
X151899405Y-76204819D02*
X151899405Y-77014342D01*
X151899405Y-77014342D02*
X151947024Y-77109580D01*
X151947024Y-77109580D02*
X151994643Y-77157200D01*
X151994643Y-77157200D02*
X152089881Y-77204819D01*
X152089881Y-77204819D02*
X152280357Y-77204819D01*
X152280357Y-77204819D02*
X152375595Y-77157200D01*
X152375595Y-77157200D02*
X152423214Y-77109580D01*
X152423214Y-77109580D02*
X152470833Y-77014342D01*
X152470833Y-77014342D02*
X152470833Y-76204819D01*
X153470833Y-77204819D02*
X152899405Y-77204819D01*
X153185119Y-77204819D02*
X153185119Y-76204819D01*
X153185119Y-76204819D02*
X153089881Y-76347676D01*
X153089881Y-76347676D02*
X152994643Y-76442914D01*
X152994643Y-76442914D02*
X152899405Y-76490533D01*
X153851786Y-76300057D02*
X153899405Y-76252438D01*
X153899405Y-76252438D02*
X153994643Y-76204819D01*
X153994643Y-76204819D02*
X154232738Y-76204819D01*
X154232738Y-76204819D02*
X154327976Y-76252438D01*
X154327976Y-76252438D02*
X154375595Y-76300057D01*
X154375595Y-76300057D02*
X154423214Y-76395295D01*
X154423214Y-76395295D02*
X154423214Y-76490533D01*
X154423214Y-76490533D02*
X154375595Y-76633390D01*
X154375595Y-76633390D02*
X153804167Y-77204819D01*
X153804167Y-77204819D02*
X154423214Y-77204819D01*
X119335714Y-57154819D02*
X119335714Y-56154819D01*
X119335714Y-56154819D02*
X119573809Y-56154819D01*
X119573809Y-56154819D02*
X119716666Y-56202438D01*
X119716666Y-56202438D02*
X119811904Y-56297676D01*
X119811904Y-56297676D02*
X119859523Y-56392914D01*
X119859523Y-56392914D02*
X119907142Y-56583390D01*
X119907142Y-56583390D02*
X119907142Y-56726247D01*
X119907142Y-56726247D02*
X119859523Y-56916723D01*
X119859523Y-56916723D02*
X119811904Y-57011961D01*
X119811904Y-57011961D02*
X119716666Y-57107200D01*
X119716666Y-57107200D02*
X119573809Y-57154819D01*
X119573809Y-57154819D02*
X119335714Y-57154819D01*
X120859523Y-57154819D02*
X120288095Y-57154819D01*
X120573809Y-57154819D02*
X120573809Y-56154819D01*
X120573809Y-56154819D02*
X120478571Y-56297676D01*
X120478571Y-56297676D02*
X120383333Y-56392914D01*
X120383333Y-56392914D02*
X120288095Y-56440533D01*
X121478571Y-56154819D02*
X121573809Y-56154819D01*
X121573809Y-56154819D02*
X121669047Y-56202438D01*
X121669047Y-56202438D02*
X121716666Y-56250057D01*
X121716666Y-56250057D02*
X121764285Y-56345295D01*
X121764285Y-56345295D02*
X121811904Y-56535771D01*
X121811904Y-56535771D02*
X121811904Y-56773866D01*
X121811904Y-56773866D02*
X121764285Y-56964342D01*
X121764285Y-56964342D02*
X121716666Y-57059580D01*
X121716666Y-57059580D02*
X121669047Y-57107200D01*
X121669047Y-57107200D02*
X121573809Y-57154819D01*
X121573809Y-57154819D02*
X121478571Y-57154819D01*
X121478571Y-57154819D02*
X121383333Y-57107200D01*
X121383333Y-57107200D02*
X121335714Y-57059580D01*
X121335714Y-57059580D02*
X121288095Y-56964342D01*
X121288095Y-56964342D02*
X121240476Y-56773866D01*
X121240476Y-56773866D02*
X121240476Y-56535771D01*
X121240476Y-56535771D02*
X121288095Y-56345295D01*
X121288095Y-56345295D02*
X121335714Y-56250057D01*
X121335714Y-56250057D02*
X121383333Y-56202438D01*
X121383333Y-56202438D02*
X121478571Y-56154819D01*
X118804761Y-58450057D02*
X118709523Y-58402438D01*
X118709523Y-58402438D02*
X118614285Y-58307200D01*
X118614285Y-58307200D02*
X118471428Y-58164342D01*
X118471428Y-58164342D02*
X118376190Y-58116723D01*
X118376190Y-58116723D02*
X118280952Y-58116723D01*
X118328571Y-58354819D02*
X118233333Y-58307200D01*
X118233333Y-58307200D02*
X118138095Y-58211961D01*
X118138095Y-58211961D02*
X118090476Y-58021485D01*
X118090476Y-58021485D02*
X118090476Y-57688152D01*
X118090476Y-57688152D02*
X118138095Y-57497676D01*
X118138095Y-57497676D02*
X118233333Y-57402438D01*
X118233333Y-57402438D02*
X118328571Y-57354819D01*
X118328571Y-57354819D02*
X118519047Y-57354819D01*
X118519047Y-57354819D02*
X118614285Y-57402438D01*
X118614285Y-57402438D02*
X118709523Y-57497676D01*
X118709523Y-57497676D02*
X118757142Y-57688152D01*
X118757142Y-57688152D02*
X118757142Y-58021485D01*
X118757142Y-58021485D02*
X118709523Y-58211961D01*
X118709523Y-58211961D02*
X118614285Y-58307200D01*
X118614285Y-58307200D02*
X118519047Y-58354819D01*
X118519047Y-58354819D02*
X118328571Y-58354819D01*
X119090476Y-57354819D02*
X119709523Y-57354819D01*
X119709523Y-57354819D02*
X119376190Y-57735771D01*
X119376190Y-57735771D02*
X119519047Y-57735771D01*
X119519047Y-57735771D02*
X119614285Y-57783390D01*
X119614285Y-57783390D02*
X119661904Y-57831009D01*
X119661904Y-57831009D02*
X119709523Y-57926247D01*
X119709523Y-57926247D02*
X119709523Y-58164342D01*
X119709523Y-58164342D02*
X119661904Y-58259580D01*
X119661904Y-58259580D02*
X119614285Y-58307200D01*
X119614285Y-58307200D02*
X119519047Y-58354819D01*
X119519047Y-58354819D02*
X119233333Y-58354819D01*
X119233333Y-58354819D02*
X119138095Y-58307200D01*
X119138095Y-58307200D02*
X119090476Y-58259580D01*
X107557142Y-66859580D02*
X107509523Y-66907200D01*
X107509523Y-66907200D02*
X107366666Y-66954819D01*
X107366666Y-66954819D02*
X107271428Y-66954819D01*
X107271428Y-66954819D02*
X107128571Y-66907200D01*
X107128571Y-66907200D02*
X107033333Y-66811961D01*
X107033333Y-66811961D02*
X106985714Y-66716723D01*
X106985714Y-66716723D02*
X106938095Y-66526247D01*
X106938095Y-66526247D02*
X106938095Y-66383390D01*
X106938095Y-66383390D02*
X106985714Y-66192914D01*
X106985714Y-66192914D02*
X107033333Y-66097676D01*
X107033333Y-66097676D02*
X107128571Y-66002438D01*
X107128571Y-66002438D02*
X107271428Y-65954819D01*
X107271428Y-65954819D02*
X107366666Y-65954819D01*
X107366666Y-65954819D02*
X107509523Y-66002438D01*
X107509523Y-66002438D02*
X107557142Y-66050057D01*
X107938095Y-66050057D02*
X107985714Y-66002438D01*
X107985714Y-66002438D02*
X108080952Y-65954819D01*
X108080952Y-65954819D02*
X108319047Y-65954819D01*
X108319047Y-65954819D02*
X108414285Y-66002438D01*
X108414285Y-66002438D02*
X108461904Y-66050057D01*
X108461904Y-66050057D02*
X108509523Y-66145295D01*
X108509523Y-66145295D02*
X108509523Y-66240533D01*
X108509523Y-66240533D02*
X108461904Y-66383390D01*
X108461904Y-66383390D02*
X107890476Y-66954819D01*
X107890476Y-66954819D02*
X108509523Y-66954819D01*
X109128571Y-65954819D02*
X109223809Y-65954819D01*
X109223809Y-65954819D02*
X109319047Y-66002438D01*
X109319047Y-66002438D02*
X109366666Y-66050057D01*
X109366666Y-66050057D02*
X109414285Y-66145295D01*
X109414285Y-66145295D02*
X109461904Y-66335771D01*
X109461904Y-66335771D02*
X109461904Y-66573866D01*
X109461904Y-66573866D02*
X109414285Y-66764342D01*
X109414285Y-66764342D02*
X109366666Y-66859580D01*
X109366666Y-66859580D02*
X109319047Y-66907200D01*
X109319047Y-66907200D02*
X109223809Y-66954819D01*
X109223809Y-66954819D02*
X109128571Y-66954819D01*
X109128571Y-66954819D02*
X109033333Y-66907200D01*
X109033333Y-66907200D02*
X108985714Y-66859580D01*
X108985714Y-66859580D02*
X108938095Y-66764342D01*
X108938095Y-66764342D02*
X108890476Y-66573866D01*
X108890476Y-66573866D02*
X108890476Y-66335771D01*
X108890476Y-66335771D02*
X108938095Y-66145295D01*
X108938095Y-66145295D02*
X108985714Y-66050057D01*
X108985714Y-66050057D02*
X109033333Y-66002438D01*
X109033333Y-66002438D02*
X109128571Y-65954819D01*
X131066666Y-74254819D02*
X131066666Y-74969104D01*
X131066666Y-74969104D02*
X131019047Y-75111961D01*
X131019047Y-75111961D02*
X130923809Y-75207200D01*
X130923809Y-75207200D02*
X130780952Y-75254819D01*
X130780952Y-75254819D02*
X130685714Y-75254819D01*
X131447619Y-74254819D02*
X132066666Y-74254819D01*
X132066666Y-74254819D02*
X131733333Y-74635771D01*
X131733333Y-74635771D02*
X131876190Y-74635771D01*
X131876190Y-74635771D02*
X131971428Y-74683390D01*
X131971428Y-74683390D02*
X132019047Y-74731009D01*
X132019047Y-74731009D02*
X132066666Y-74826247D01*
X132066666Y-74826247D02*
X132066666Y-75064342D01*
X132066666Y-75064342D02*
X132019047Y-75159580D01*
X132019047Y-75159580D02*
X131971428Y-75207200D01*
X131971428Y-75207200D02*
X131876190Y-75254819D01*
X131876190Y-75254819D02*
X131590476Y-75254819D01*
X131590476Y-75254819D02*
X131495238Y-75207200D01*
X131495238Y-75207200D02*
X131447619Y-75159580D01*
X117224819Y-65967857D02*
X116748628Y-66301190D01*
X117224819Y-66539285D02*
X116224819Y-66539285D01*
X116224819Y-66539285D02*
X116224819Y-66158333D01*
X116224819Y-66158333D02*
X116272438Y-66063095D01*
X116272438Y-66063095D02*
X116320057Y-66015476D01*
X116320057Y-66015476D02*
X116415295Y-65967857D01*
X116415295Y-65967857D02*
X116558152Y-65967857D01*
X116558152Y-65967857D02*
X116653390Y-66015476D01*
X116653390Y-66015476D02*
X116701009Y-66063095D01*
X116701009Y-66063095D02*
X116748628Y-66158333D01*
X116748628Y-66158333D02*
X116748628Y-66539285D01*
X116224819Y-65634523D02*
X116224819Y-65015476D01*
X116224819Y-65015476D02*
X116605771Y-65348809D01*
X116605771Y-65348809D02*
X116605771Y-65205952D01*
X116605771Y-65205952D02*
X116653390Y-65110714D01*
X116653390Y-65110714D02*
X116701009Y-65063095D01*
X116701009Y-65063095D02*
X116796247Y-65015476D01*
X116796247Y-65015476D02*
X117034342Y-65015476D01*
X117034342Y-65015476D02*
X117129580Y-65063095D01*
X117129580Y-65063095D02*
X117177200Y-65110714D01*
X117177200Y-65110714D02*
X117224819Y-65205952D01*
X117224819Y-65205952D02*
X117224819Y-65491666D01*
X117224819Y-65491666D02*
X117177200Y-65586904D01*
X117177200Y-65586904D02*
X117129580Y-65634523D01*
X116320057Y-64634523D02*
X116272438Y-64586904D01*
X116272438Y-64586904D02*
X116224819Y-64491666D01*
X116224819Y-64491666D02*
X116224819Y-64253571D01*
X116224819Y-64253571D02*
X116272438Y-64158333D01*
X116272438Y-64158333D02*
X116320057Y-64110714D01*
X116320057Y-64110714D02*
X116415295Y-64063095D01*
X116415295Y-64063095D02*
X116510533Y-64063095D01*
X116510533Y-64063095D02*
X116653390Y-64110714D01*
X116653390Y-64110714D02*
X117224819Y-64682142D01*
X117224819Y-64682142D02*
X117224819Y-64063095D01*
X118300057Y-60332738D02*
X118252438Y-60427976D01*
X118252438Y-60427976D02*
X118157200Y-60523214D01*
X118157200Y-60523214D02*
X118014342Y-60666071D01*
X118014342Y-60666071D02*
X117966723Y-60761309D01*
X117966723Y-60761309D02*
X117966723Y-60856547D01*
X118204819Y-60808928D02*
X118157200Y-60904166D01*
X118157200Y-60904166D02*
X118061961Y-60999404D01*
X118061961Y-60999404D02*
X117871485Y-61047023D01*
X117871485Y-61047023D02*
X117538152Y-61047023D01*
X117538152Y-61047023D02*
X117347676Y-60999404D01*
X117347676Y-60999404D02*
X117252438Y-60904166D01*
X117252438Y-60904166D02*
X117204819Y-60808928D01*
X117204819Y-60808928D02*
X117204819Y-60618452D01*
X117204819Y-60618452D02*
X117252438Y-60523214D01*
X117252438Y-60523214D02*
X117347676Y-60427976D01*
X117347676Y-60427976D02*
X117538152Y-60380357D01*
X117538152Y-60380357D02*
X117871485Y-60380357D01*
X117871485Y-60380357D02*
X118061961Y-60427976D01*
X118061961Y-60427976D02*
X118157200Y-60523214D01*
X118157200Y-60523214D02*
X118204819Y-60618452D01*
X118204819Y-60618452D02*
X118204819Y-60808928D01*
X118204819Y-59904166D02*
X118204819Y-59713690D01*
X118204819Y-59713690D02*
X118157200Y-59618452D01*
X118157200Y-59618452D02*
X118109580Y-59570833D01*
X118109580Y-59570833D02*
X117966723Y-59475595D01*
X117966723Y-59475595D02*
X117776247Y-59427976D01*
X117776247Y-59427976D02*
X117395295Y-59427976D01*
X117395295Y-59427976D02*
X117300057Y-59475595D01*
X117300057Y-59475595D02*
X117252438Y-59523214D01*
X117252438Y-59523214D02*
X117204819Y-59618452D01*
X117204819Y-59618452D02*
X117204819Y-59808928D01*
X117204819Y-59808928D02*
X117252438Y-59904166D01*
X117252438Y-59904166D02*
X117300057Y-59951785D01*
X117300057Y-59951785D02*
X117395295Y-59999404D01*
X117395295Y-59999404D02*
X117633390Y-59999404D01*
X117633390Y-59999404D02*
X117728628Y-59951785D01*
X117728628Y-59951785D02*
X117776247Y-59904166D01*
X117776247Y-59904166D02*
X117823866Y-59808928D01*
X117823866Y-59808928D02*
X117823866Y-59618452D01*
X117823866Y-59618452D02*
X117776247Y-59523214D01*
X117776247Y-59523214D02*
X117728628Y-59475595D01*
X117728628Y-59475595D02*
X117633390Y-59427976D01*
X201133333Y-52654819D02*
X200800000Y-52178628D01*
X200561905Y-52654819D02*
X200561905Y-51654819D01*
X200561905Y-51654819D02*
X200942857Y-51654819D01*
X200942857Y-51654819D02*
X201038095Y-51702438D01*
X201038095Y-51702438D02*
X201085714Y-51750057D01*
X201085714Y-51750057D02*
X201133333Y-51845295D01*
X201133333Y-51845295D02*
X201133333Y-51988152D01*
X201133333Y-51988152D02*
X201085714Y-52083390D01*
X201085714Y-52083390D02*
X201038095Y-52131009D01*
X201038095Y-52131009D02*
X200942857Y-52178628D01*
X200942857Y-52178628D02*
X200561905Y-52178628D01*
X201466667Y-51654819D02*
X202133333Y-51654819D01*
X202133333Y-51654819D02*
X201704762Y-52654819D01*
X116261905Y-99554819D02*
X116261905Y-98554819D01*
X116261905Y-98554819D02*
X116500000Y-98554819D01*
X116500000Y-98554819D02*
X116642857Y-98602438D01*
X116642857Y-98602438D02*
X116738095Y-98697676D01*
X116738095Y-98697676D02*
X116785714Y-98792914D01*
X116785714Y-98792914D02*
X116833333Y-98983390D01*
X116833333Y-98983390D02*
X116833333Y-99126247D01*
X116833333Y-99126247D02*
X116785714Y-99316723D01*
X116785714Y-99316723D02*
X116738095Y-99411961D01*
X116738095Y-99411961D02*
X116642857Y-99507200D01*
X116642857Y-99507200D02*
X116500000Y-99554819D01*
X116500000Y-99554819D02*
X116261905Y-99554819D01*
X117785714Y-99554819D02*
X117214286Y-99554819D01*
X117500000Y-99554819D02*
X117500000Y-98554819D01*
X117500000Y-98554819D02*
X117404762Y-98697676D01*
X117404762Y-98697676D02*
X117309524Y-98792914D01*
X117309524Y-98792914D02*
X117214286Y-98840533D01*
X142138095Y-67854819D02*
X142709523Y-67854819D01*
X142423809Y-68854819D02*
X142423809Y-67854819D01*
X143042857Y-68854819D02*
X143042857Y-67854819D01*
X143042857Y-67854819D02*
X143423809Y-67854819D01*
X143423809Y-67854819D02*
X143519047Y-67902438D01*
X143519047Y-67902438D02*
X143566666Y-67950057D01*
X143566666Y-67950057D02*
X143614285Y-68045295D01*
X143614285Y-68045295D02*
X143614285Y-68188152D01*
X143614285Y-68188152D02*
X143566666Y-68283390D01*
X143566666Y-68283390D02*
X143519047Y-68331009D01*
X143519047Y-68331009D02*
X143423809Y-68378628D01*
X143423809Y-68378628D02*
X143042857Y-68378628D01*
X143947619Y-67854819D02*
X144566666Y-67854819D01*
X144566666Y-67854819D02*
X144233333Y-68235771D01*
X144233333Y-68235771D02*
X144376190Y-68235771D01*
X144376190Y-68235771D02*
X144471428Y-68283390D01*
X144471428Y-68283390D02*
X144519047Y-68331009D01*
X144519047Y-68331009D02*
X144566666Y-68426247D01*
X144566666Y-68426247D02*
X144566666Y-68664342D01*
X144566666Y-68664342D02*
X144519047Y-68759580D01*
X144519047Y-68759580D02*
X144471428Y-68807200D01*
X144471428Y-68807200D02*
X144376190Y-68854819D01*
X144376190Y-68854819D02*
X144090476Y-68854819D01*
X144090476Y-68854819D02*
X143995238Y-68807200D01*
X143995238Y-68807200D02*
X143947619Y-68759580D01*
X114357142Y-91854819D02*
X114023809Y-91378628D01*
X113785714Y-91854819D02*
X113785714Y-90854819D01*
X113785714Y-90854819D02*
X114166666Y-90854819D01*
X114166666Y-90854819D02*
X114261904Y-90902438D01*
X114261904Y-90902438D02*
X114309523Y-90950057D01*
X114309523Y-90950057D02*
X114357142Y-91045295D01*
X114357142Y-91045295D02*
X114357142Y-91188152D01*
X114357142Y-91188152D02*
X114309523Y-91283390D01*
X114309523Y-91283390D02*
X114261904Y-91331009D01*
X114261904Y-91331009D02*
X114166666Y-91378628D01*
X114166666Y-91378628D02*
X113785714Y-91378628D01*
X114738095Y-90950057D02*
X114785714Y-90902438D01*
X114785714Y-90902438D02*
X114880952Y-90854819D01*
X114880952Y-90854819D02*
X115119047Y-90854819D01*
X115119047Y-90854819D02*
X115214285Y-90902438D01*
X115214285Y-90902438D02*
X115261904Y-90950057D01*
X115261904Y-90950057D02*
X115309523Y-91045295D01*
X115309523Y-91045295D02*
X115309523Y-91140533D01*
X115309523Y-91140533D02*
X115261904Y-91283390D01*
X115261904Y-91283390D02*
X114690476Y-91854819D01*
X114690476Y-91854819D02*
X115309523Y-91854819D01*
X116214285Y-90854819D02*
X115738095Y-90854819D01*
X115738095Y-90854819D02*
X115690476Y-91331009D01*
X115690476Y-91331009D02*
X115738095Y-91283390D01*
X115738095Y-91283390D02*
X115833333Y-91235771D01*
X115833333Y-91235771D02*
X116071428Y-91235771D01*
X116071428Y-91235771D02*
X116166666Y-91283390D01*
X116166666Y-91283390D02*
X116214285Y-91331009D01*
X116214285Y-91331009D02*
X116261904Y-91426247D01*
X116261904Y-91426247D02*
X116261904Y-91664342D01*
X116261904Y-91664342D02*
X116214285Y-91759580D01*
X116214285Y-91759580D02*
X116166666Y-91807200D01*
X116166666Y-91807200D02*
X116071428Y-91854819D01*
X116071428Y-91854819D02*
X115833333Y-91854819D01*
X115833333Y-91854819D02*
X115738095Y-91807200D01*
X115738095Y-91807200D02*
X115690476Y-91759580D01*
X120454819Y-75338094D02*
X119454819Y-75338094D01*
X119454819Y-75338094D02*
X119454819Y-75099999D01*
X119454819Y-75099999D02*
X119502438Y-74957142D01*
X119502438Y-74957142D02*
X119597676Y-74861904D01*
X119597676Y-74861904D02*
X119692914Y-74814285D01*
X119692914Y-74814285D02*
X119883390Y-74766666D01*
X119883390Y-74766666D02*
X120026247Y-74766666D01*
X120026247Y-74766666D02*
X120216723Y-74814285D01*
X120216723Y-74814285D02*
X120311961Y-74861904D01*
X120311961Y-74861904D02*
X120407200Y-74957142D01*
X120407200Y-74957142D02*
X120454819Y-75099999D01*
X120454819Y-75099999D02*
X120454819Y-75338094D01*
X119550057Y-74385713D02*
X119502438Y-74338094D01*
X119502438Y-74338094D02*
X119454819Y-74242856D01*
X119454819Y-74242856D02*
X119454819Y-74004761D01*
X119454819Y-74004761D02*
X119502438Y-73909523D01*
X119502438Y-73909523D02*
X119550057Y-73861904D01*
X119550057Y-73861904D02*
X119645295Y-73814285D01*
X119645295Y-73814285D02*
X119740533Y-73814285D01*
X119740533Y-73814285D02*
X119883390Y-73861904D01*
X119883390Y-73861904D02*
X120454819Y-74433332D01*
X120454819Y-74433332D02*
X120454819Y-73814285D01*
X186982142Y-80984819D02*
X186648809Y-80508628D01*
X186410714Y-80984819D02*
X186410714Y-79984819D01*
X186410714Y-79984819D02*
X186791666Y-79984819D01*
X186791666Y-79984819D02*
X186886904Y-80032438D01*
X186886904Y-80032438D02*
X186934523Y-80080057D01*
X186934523Y-80080057D02*
X186982142Y-80175295D01*
X186982142Y-80175295D02*
X186982142Y-80318152D01*
X186982142Y-80318152D02*
X186934523Y-80413390D01*
X186934523Y-80413390D02*
X186886904Y-80461009D01*
X186886904Y-80461009D02*
X186791666Y-80508628D01*
X186791666Y-80508628D02*
X186410714Y-80508628D01*
X187363095Y-80080057D02*
X187410714Y-80032438D01*
X187410714Y-80032438D02*
X187505952Y-79984819D01*
X187505952Y-79984819D02*
X187744047Y-79984819D01*
X187744047Y-79984819D02*
X187839285Y-80032438D01*
X187839285Y-80032438D02*
X187886904Y-80080057D01*
X187886904Y-80080057D02*
X187934523Y-80175295D01*
X187934523Y-80175295D02*
X187934523Y-80270533D01*
X187934523Y-80270533D02*
X187886904Y-80413390D01*
X187886904Y-80413390D02*
X187315476Y-80984819D01*
X187315476Y-80984819D02*
X187934523Y-80984819D01*
X188553571Y-79984819D02*
X188648809Y-79984819D01*
X188648809Y-79984819D02*
X188744047Y-80032438D01*
X188744047Y-80032438D02*
X188791666Y-80080057D01*
X188791666Y-80080057D02*
X188839285Y-80175295D01*
X188839285Y-80175295D02*
X188886904Y-80365771D01*
X188886904Y-80365771D02*
X188886904Y-80603866D01*
X188886904Y-80603866D02*
X188839285Y-80794342D01*
X188839285Y-80794342D02*
X188791666Y-80889580D01*
X188791666Y-80889580D02*
X188744047Y-80937200D01*
X188744047Y-80937200D02*
X188648809Y-80984819D01*
X188648809Y-80984819D02*
X188553571Y-80984819D01*
X188553571Y-80984819D02*
X188458333Y-80937200D01*
X188458333Y-80937200D02*
X188410714Y-80889580D01*
X188410714Y-80889580D02*
X188363095Y-80794342D01*
X188363095Y-80794342D02*
X188315476Y-80603866D01*
X188315476Y-80603866D02*
X188315476Y-80365771D01*
X188315476Y-80365771D02*
X188363095Y-80175295D01*
X188363095Y-80175295D02*
X188410714Y-80080057D01*
X188410714Y-80080057D02*
X188458333Y-80032438D01*
X188458333Y-80032438D02*
X188553571Y-79984819D01*
X194538095Y-58067319D02*
X194538095Y-58876842D01*
X194538095Y-58876842D02*
X194585714Y-58972080D01*
X194585714Y-58972080D02*
X194633333Y-59019700D01*
X194633333Y-59019700D02*
X194728571Y-59067319D01*
X194728571Y-59067319D02*
X194919047Y-59067319D01*
X194919047Y-59067319D02*
X195014285Y-59019700D01*
X195014285Y-59019700D02*
X195061904Y-58972080D01*
X195061904Y-58972080D02*
X195109523Y-58876842D01*
X195109523Y-58876842D02*
X195109523Y-58067319D01*
X195490476Y-58067319D02*
X196157142Y-58067319D01*
X196157142Y-58067319D02*
X195728571Y-59067319D01*
X128747142Y-61054819D02*
X128413809Y-60578628D01*
X128175714Y-61054819D02*
X128175714Y-60054819D01*
X128175714Y-60054819D02*
X128556666Y-60054819D01*
X128556666Y-60054819D02*
X128651904Y-60102438D01*
X128651904Y-60102438D02*
X128699523Y-60150057D01*
X128699523Y-60150057D02*
X128747142Y-60245295D01*
X128747142Y-60245295D02*
X128747142Y-60388152D01*
X128747142Y-60388152D02*
X128699523Y-60483390D01*
X128699523Y-60483390D02*
X128651904Y-60531009D01*
X128651904Y-60531009D02*
X128556666Y-60578628D01*
X128556666Y-60578628D02*
X128175714Y-60578628D01*
X129699523Y-61054819D02*
X129128095Y-61054819D01*
X129413809Y-61054819D02*
X129413809Y-60054819D01*
X129413809Y-60054819D02*
X129318571Y-60197676D01*
X129318571Y-60197676D02*
X129223333Y-60292914D01*
X129223333Y-60292914D02*
X129128095Y-60340533D01*
X130318571Y-60054819D02*
X130413809Y-60054819D01*
X130413809Y-60054819D02*
X130509047Y-60102438D01*
X130509047Y-60102438D02*
X130556666Y-60150057D01*
X130556666Y-60150057D02*
X130604285Y-60245295D01*
X130604285Y-60245295D02*
X130651904Y-60435771D01*
X130651904Y-60435771D02*
X130651904Y-60673866D01*
X130651904Y-60673866D02*
X130604285Y-60864342D01*
X130604285Y-60864342D02*
X130556666Y-60959580D01*
X130556666Y-60959580D02*
X130509047Y-61007200D01*
X130509047Y-61007200D02*
X130413809Y-61054819D01*
X130413809Y-61054819D02*
X130318571Y-61054819D01*
X130318571Y-61054819D02*
X130223333Y-61007200D01*
X130223333Y-61007200D02*
X130175714Y-60959580D01*
X130175714Y-60959580D02*
X130128095Y-60864342D01*
X130128095Y-60864342D02*
X130080476Y-60673866D01*
X130080476Y-60673866D02*
X130080476Y-60435771D01*
X130080476Y-60435771D02*
X130128095Y-60245295D01*
X130128095Y-60245295D02*
X130175714Y-60150057D01*
X130175714Y-60150057D02*
X130223333Y-60102438D01*
X130223333Y-60102438D02*
X130318571Y-60054819D01*
X119766666Y-98754819D02*
X119766666Y-99469104D01*
X119766666Y-99469104D02*
X119719047Y-99611961D01*
X119719047Y-99611961D02*
X119623809Y-99707200D01*
X119623809Y-99707200D02*
X119480952Y-99754819D01*
X119480952Y-99754819D02*
X119385714Y-99754819D01*
X120766666Y-99754819D02*
X120195238Y-99754819D01*
X120480952Y-99754819D02*
X120480952Y-98754819D01*
X120480952Y-98754819D02*
X120385714Y-98897676D01*
X120385714Y-98897676D02*
X120290476Y-98992914D01*
X120290476Y-98992914D02*
X120195238Y-99040533D01*
X136756667Y-52307200D02*
X136899524Y-52354819D01*
X136899524Y-52354819D02*
X137137619Y-52354819D01*
X137137619Y-52354819D02*
X137232857Y-52307200D01*
X137232857Y-52307200D02*
X137280476Y-52259580D01*
X137280476Y-52259580D02*
X137328095Y-52164342D01*
X137328095Y-52164342D02*
X137328095Y-52069104D01*
X137328095Y-52069104D02*
X137280476Y-51973866D01*
X137280476Y-51973866D02*
X137232857Y-51926247D01*
X137232857Y-51926247D02*
X137137619Y-51878628D01*
X137137619Y-51878628D02*
X136947143Y-51831009D01*
X136947143Y-51831009D02*
X136851905Y-51783390D01*
X136851905Y-51783390D02*
X136804286Y-51735771D01*
X136804286Y-51735771D02*
X136756667Y-51640533D01*
X136756667Y-51640533D02*
X136756667Y-51545295D01*
X136756667Y-51545295D02*
X136804286Y-51450057D01*
X136804286Y-51450057D02*
X136851905Y-51402438D01*
X136851905Y-51402438D02*
X136947143Y-51354819D01*
X136947143Y-51354819D02*
X137185238Y-51354819D01*
X137185238Y-51354819D02*
X137328095Y-51402438D01*
X137661429Y-51354819D02*
X137899524Y-52354819D01*
X137899524Y-52354819D02*
X138090000Y-51640533D01*
X138090000Y-51640533D02*
X138280476Y-52354819D01*
X138280476Y-52354819D02*
X138518572Y-51354819D01*
X139423333Y-52354819D02*
X138851905Y-52354819D01*
X139137619Y-52354819D02*
X139137619Y-51354819D01*
X139137619Y-51354819D02*
X139042381Y-51497676D01*
X139042381Y-51497676D02*
X138947143Y-51592914D01*
X138947143Y-51592914D02*
X138851905Y-51640533D01*
X134438095Y-51554819D02*
X134438095Y-52364342D01*
X134438095Y-52364342D02*
X134485714Y-52459580D01*
X134485714Y-52459580D02*
X134533333Y-52507200D01*
X134533333Y-52507200D02*
X134628571Y-52554819D01*
X134628571Y-52554819D02*
X134819047Y-52554819D01*
X134819047Y-52554819D02*
X134914285Y-52507200D01*
X134914285Y-52507200D02*
X134961904Y-52459580D01*
X134961904Y-52459580D02*
X135009523Y-52364342D01*
X135009523Y-52364342D02*
X135009523Y-51554819D01*
X135628571Y-51983390D02*
X135533333Y-51935771D01*
X135533333Y-51935771D02*
X135485714Y-51888152D01*
X135485714Y-51888152D02*
X135438095Y-51792914D01*
X135438095Y-51792914D02*
X135438095Y-51745295D01*
X135438095Y-51745295D02*
X135485714Y-51650057D01*
X135485714Y-51650057D02*
X135533333Y-51602438D01*
X135533333Y-51602438D02*
X135628571Y-51554819D01*
X135628571Y-51554819D02*
X135819047Y-51554819D01*
X135819047Y-51554819D02*
X135914285Y-51602438D01*
X135914285Y-51602438D02*
X135961904Y-51650057D01*
X135961904Y-51650057D02*
X136009523Y-51745295D01*
X136009523Y-51745295D02*
X136009523Y-51792914D01*
X136009523Y-51792914D02*
X135961904Y-51888152D01*
X135961904Y-51888152D02*
X135914285Y-51935771D01*
X135914285Y-51935771D02*
X135819047Y-51983390D01*
X135819047Y-51983390D02*
X135628571Y-51983390D01*
X135628571Y-51983390D02*
X135533333Y-52031009D01*
X135533333Y-52031009D02*
X135485714Y-52078628D01*
X135485714Y-52078628D02*
X135438095Y-52173866D01*
X135438095Y-52173866D02*
X135438095Y-52364342D01*
X135438095Y-52364342D02*
X135485714Y-52459580D01*
X135485714Y-52459580D02*
X135533333Y-52507200D01*
X135533333Y-52507200D02*
X135628571Y-52554819D01*
X135628571Y-52554819D02*
X135819047Y-52554819D01*
X135819047Y-52554819D02*
X135914285Y-52507200D01*
X135914285Y-52507200D02*
X135961904Y-52459580D01*
X135961904Y-52459580D02*
X136009523Y-52364342D01*
X136009523Y-52364342D02*
X136009523Y-52173866D01*
X136009523Y-52173866D02*
X135961904Y-52078628D01*
X135961904Y-52078628D02*
X135914285Y-52031009D01*
X135914285Y-52031009D02*
X135819047Y-51983390D01*
X138949405Y-76054819D02*
X138949405Y-75054819D01*
X138949405Y-75054819D02*
X139187500Y-75054819D01*
X139187500Y-75054819D02*
X139330357Y-75102438D01*
X139330357Y-75102438D02*
X139425595Y-75197676D01*
X139425595Y-75197676D02*
X139473214Y-75292914D01*
X139473214Y-75292914D02*
X139520833Y-75483390D01*
X139520833Y-75483390D02*
X139520833Y-75626247D01*
X139520833Y-75626247D02*
X139473214Y-75816723D01*
X139473214Y-75816723D02*
X139425595Y-75911961D01*
X139425595Y-75911961D02*
X139330357Y-76007200D01*
X139330357Y-76007200D02*
X139187500Y-76054819D01*
X139187500Y-76054819D02*
X138949405Y-76054819D01*
X140377976Y-75054819D02*
X140187500Y-75054819D01*
X140187500Y-75054819D02*
X140092262Y-75102438D01*
X140092262Y-75102438D02*
X140044643Y-75150057D01*
X140044643Y-75150057D02*
X139949405Y-75292914D01*
X139949405Y-75292914D02*
X139901786Y-75483390D01*
X139901786Y-75483390D02*
X139901786Y-75864342D01*
X139901786Y-75864342D02*
X139949405Y-75959580D01*
X139949405Y-75959580D02*
X139997024Y-76007200D01*
X139997024Y-76007200D02*
X140092262Y-76054819D01*
X140092262Y-76054819D02*
X140282738Y-76054819D01*
X140282738Y-76054819D02*
X140377976Y-76007200D01*
X140377976Y-76007200D02*
X140425595Y-75959580D01*
X140425595Y-75959580D02*
X140473214Y-75864342D01*
X140473214Y-75864342D02*
X140473214Y-75626247D01*
X140473214Y-75626247D02*
X140425595Y-75531009D01*
X140425595Y-75531009D02*
X140377976Y-75483390D01*
X140377976Y-75483390D02*
X140282738Y-75435771D01*
X140282738Y-75435771D02*
X140092262Y-75435771D01*
X140092262Y-75435771D02*
X139997024Y-75483390D01*
X139997024Y-75483390D02*
X139949405Y-75531009D01*
X139949405Y-75531009D02*
X139901786Y-75626247D01*
X125654819Y-58566666D02*
X125178628Y-58899999D01*
X125654819Y-59138094D02*
X124654819Y-59138094D01*
X124654819Y-59138094D02*
X124654819Y-58757142D01*
X124654819Y-58757142D02*
X124702438Y-58661904D01*
X124702438Y-58661904D02*
X124750057Y-58614285D01*
X124750057Y-58614285D02*
X124845295Y-58566666D01*
X124845295Y-58566666D02*
X124988152Y-58566666D01*
X124988152Y-58566666D02*
X125083390Y-58614285D01*
X125083390Y-58614285D02*
X125131009Y-58661904D01*
X125131009Y-58661904D02*
X125178628Y-58757142D01*
X125178628Y-58757142D02*
X125178628Y-59138094D01*
X125654819Y-58090475D02*
X125654819Y-57899999D01*
X125654819Y-57899999D02*
X125607200Y-57804761D01*
X125607200Y-57804761D02*
X125559580Y-57757142D01*
X125559580Y-57757142D02*
X125416723Y-57661904D01*
X125416723Y-57661904D02*
X125226247Y-57614285D01*
X125226247Y-57614285D02*
X124845295Y-57614285D01*
X124845295Y-57614285D02*
X124750057Y-57661904D01*
X124750057Y-57661904D02*
X124702438Y-57709523D01*
X124702438Y-57709523D02*
X124654819Y-57804761D01*
X124654819Y-57804761D02*
X124654819Y-57995237D01*
X124654819Y-57995237D02*
X124702438Y-58090475D01*
X124702438Y-58090475D02*
X124750057Y-58138094D01*
X124750057Y-58138094D02*
X124845295Y-58185713D01*
X124845295Y-58185713D02*
X125083390Y-58185713D01*
X125083390Y-58185713D02*
X125178628Y-58138094D01*
X125178628Y-58138094D02*
X125226247Y-58090475D01*
X125226247Y-58090475D02*
X125273866Y-57995237D01*
X125273866Y-57995237D02*
X125273866Y-57804761D01*
X125273866Y-57804761D02*
X125226247Y-57709523D01*
X125226247Y-57709523D02*
X125178628Y-57661904D01*
X125178628Y-57661904D02*
X125083390Y-57614285D01*
X120890476Y-52454819D02*
X120890476Y-53169104D01*
X120890476Y-53169104D02*
X120842857Y-53311961D01*
X120842857Y-53311961D02*
X120747619Y-53407200D01*
X120747619Y-53407200D02*
X120604762Y-53454819D01*
X120604762Y-53454819D02*
X120509524Y-53454819D01*
X121890476Y-53454819D02*
X121319048Y-53454819D01*
X121604762Y-53454819D02*
X121604762Y-52454819D01*
X121604762Y-52454819D02*
X121509524Y-52597676D01*
X121509524Y-52597676D02*
X121414286Y-52692914D01*
X121414286Y-52692914D02*
X121319048Y-52740533D01*
X122223810Y-52454819D02*
X122842857Y-52454819D01*
X122842857Y-52454819D02*
X122509524Y-52835771D01*
X122509524Y-52835771D02*
X122652381Y-52835771D01*
X122652381Y-52835771D02*
X122747619Y-52883390D01*
X122747619Y-52883390D02*
X122795238Y-52931009D01*
X122795238Y-52931009D02*
X122842857Y-53026247D01*
X122842857Y-53026247D02*
X122842857Y-53264342D01*
X122842857Y-53264342D02*
X122795238Y-53359580D01*
X122795238Y-53359580D02*
X122747619Y-53407200D01*
X122747619Y-53407200D02*
X122652381Y-53454819D01*
X122652381Y-53454819D02*
X122366667Y-53454819D01*
X122366667Y-53454819D02*
X122271429Y-53407200D01*
X122271429Y-53407200D02*
X122223810Y-53359580D01*
X157366666Y-81531009D02*
X157033333Y-81531009D01*
X157033333Y-82054819D02*
X157033333Y-81054819D01*
X157033333Y-81054819D02*
X157509523Y-81054819D01*
X158319047Y-81388152D02*
X158319047Y-82054819D01*
X158080952Y-81007200D02*
X157842857Y-81721485D01*
X157842857Y-81721485D02*
X158461904Y-81721485D01*
X191657142Y-61359580D02*
X191609523Y-61407200D01*
X191609523Y-61407200D02*
X191466666Y-61454819D01*
X191466666Y-61454819D02*
X191371428Y-61454819D01*
X191371428Y-61454819D02*
X191228571Y-61407200D01*
X191228571Y-61407200D02*
X191133333Y-61311961D01*
X191133333Y-61311961D02*
X191085714Y-61216723D01*
X191085714Y-61216723D02*
X191038095Y-61026247D01*
X191038095Y-61026247D02*
X191038095Y-60883390D01*
X191038095Y-60883390D02*
X191085714Y-60692914D01*
X191085714Y-60692914D02*
X191133333Y-60597676D01*
X191133333Y-60597676D02*
X191228571Y-60502438D01*
X191228571Y-60502438D02*
X191371428Y-60454819D01*
X191371428Y-60454819D02*
X191466666Y-60454819D01*
X191466666Y-60454819D02*
X191609523Y-60502438D01*
X191609523Y-60502438D02*
X191657142Y-60550057D01*
X192609523Y-61454819D02*
X192038095Y-61454819D01*
X192323809Y-61454819D02*
X192323809Y-60454819D01*
X192323809Y-60454819D02*
X192228571Y-60597676D01*
X192228571Y-60597676D02*
X192133333Y-60692914D01*
X192133333Y-60692914D02*
X192038095Y-60740533D01*
X193466666Y-60788152D02*
X193466666Y-61454819D01*
X193228571Y-60407200D02*
X192990476Y-61121485D01*
X192990476Y-61121485D02*
X193609523Y-61121485D01*
X174482142Y-75984819D02*
X174148809Y-75508628D01*
X173910714Y-75984819D02*
X173910714Y-74984819D01*
X173910714Y-74984819D02*
X174291666Y-74984819D01*
X174291666Y-74984819D02*
X174386904Y-75032438D01*
X174386904Y-75032438D02*
X174434523Y-75080057D01*
X174434523Y-75080057D02*
X174482142Y-75175295D01*
X174482142Y-75175295D02*
X174482142Y-75318152D01*
X174482142Y-75318152D02*
X174434523Y-75413390D01*
X174434523Y-75413390D02*
X174386904Y-75461009D01*
X174386904Y-75461009D02*
X174291666Y-75508628D01*
X174291666Y-75508628D02*
X173910714Y-75508628D01*
X174863095Y-75080057D02*
X174910714Y-75032438D01*
X174910714Y-75032438D02*
X175005952Y-74984819D01*
X175005952Y-74984819D02*
X175244047Y-74984819D01*
X175244047Y-74984819D02*
X175339285Y-75032438D01*
X175339285Y-75032438D02*
X175386904Y-75080057D01*
X175386904Y-75080057D02*
X175434523Y-75175295D01*
X175434523Y-75175295D02*
X175434523Y-75270533D01*
X175434523Y-75270533D02*
X175386904Y-75413390D01*
X175386904Y-75413390D02*
X174815476Y-75984819D01*
X174815476Y-75984819D02*
X175434523Y-75984819D01*
X176005952Y-75413390D02*
X175910714Y-75365771D01*
X175910714Y-75365771D02*
X175863095Y-75318152D01*
X175863095Y-75318152D02*
X175815476Y-75222914D01*
X175815476Y-75222914D02*
X175815476Y-75175295D01*
X175815476Y-75175295D02*
X175863095Y-75080057D01*
X175863095Y-75080057D02*
X175910714Y-75032438D01*
X175910714Y-75032438D02*
X176005952Y-74984819D01*
X176005952Y-74984819D02*
X176196428Y-74984819D01*
X176196428Y-74984819D02*
X176291666Y-75032438D01*
X176291666Y-75032438D02*
X176339285Y-75080057D01*
X176339285Y-75080057D02*
X176386904Y-75175295D01*
X176386904Y-75175295D02*
X176386904Y-75222914D01*
X176386904Y-75222914D02*
X176339285Y-75318152D01*
X176339285Y-75318152D02*
X176291666Y-75365771D01*
X176291666Y-75365771D02*
X176196428Y-75413390D01*
X176196428Y-75413390D02*
X176005952Y-75413390D01*
X176005952Y-75413390D02*
X175910714Y-75461009D01*
X175910714Y-75461009D02*
X175863095Y-75508628D01*
X175863095Y-75508628D02*
X175815476Y-75603866D01*
X175815476Y-75603866D02*
X175815476Y-75794342D01*
X175815476Y-75794342D02*
X175863095Y-75889580D01*
X175863095Y-75889580D02*
X175910714Y-75937200D01*
X175910714Y-75937200D02*
X176005952Y-75984819D01*
X176005952Y-75984819D02*
X176196428Y-75984819D01*
X176196428Y-75984819D02*
X176291666Y-75937200D01*
X176291666Y-75937200D02*
X176339285Y-75889580D01*
X176339285Y-75889580D02*
X176386904Y-75794342D01*
X176386904Y-75794342D02*
X176386904Y-75603866D01*
X176386904Y-75603866D02*
X176339285Y-75508628D01*
X176339285Y-75508628D02*
X176291666Y-75461009D01*
X176291666Y-75461009D02*
X176196428Y-75413390D01*
X164741666Y-49631009D02*
X164408333Y-49631009D01*
X164408333Y-50154819D02*
X164408333Y-49154819D01*
X164408333Y-49154819D02*
X164884523Y-49154819D01*
X165598809Y-49631009D02*
X165741666Y-49678628D01*
X165741666Y-49678628D02*
X165789285Y-49726247D01*
X165789285Y-49726247D02*
X165836904Y-49821485D01*
X165836904Y-49821485D02*
X165836904Y-49964342D01*
X165836904Y-49964342D02*
X165789285Y-50059580D01*
X165789285Y-50059580D02*
X165741666Y-50107200D01*
X165741666Y-50107200D02*
X165646428Y-50154819D01*
X165646428Y-50154819D02*
X165265476Y-50154819D01*
X165265476Y-50154819D02*
X165265476Y-49154819D01*
X165265476Y-49154819D02*
X165598809Y-49154819D01*
X165598809Y-49154819D02*
X165694047Y-49202438D01*
X165694047Y-49202438D02*
X165741666Y-49250057D01*
X165741666Y-49250057D02*
X165789285Y-49345295D01*
X165789285Y-49345295D02*
X165789285Y-49440533D01*
X165789285Y-49440533D02*
X165741666Y-49535771D01*
X165741666Y-49535771D02*
X165694047Y-49583390D01*
X165694047Y-49583390D02*
X165598809Y-49631009D01*
X165598809Y-49631009D02*
X165265476Y-49631009D01*
X166789285Y-50154819D02*
X166217857Y-50154819D01*
X166503571Y-50154819D02*
X166503571Y-49154819D01*
X166503571Y-49154819D02*
X166408333Y-49297676D01*
X166408333Y-49297676D02*
X166313095Y-49392914D01*
X166313095Y-49392914D02*
X166217857Y-49440533D01*
X165661905Y-69214819D02*
X165661905Y-70024342D01*
X165661905Y-70024342D02*
X165709524Y-70119580D01*
X165709524Y-70119580D02*
X165757143Y-70167200D01*
X165757143Y-70167200D02*
X165852381Y-70214819D01*
X165852381Y-70214819D02*
X166042857Y-70214819D01*
X166042857Y-70214819D02*
X166138095Y-70167200D01*
X166138095Y-70167200D02*
X166185714Y-70119580D01*
X166185714Y-70119580D02*
X166233333Y-70024342D01*
X166233333Y-70024342D02*
X166233333Y-69214819D01*
X167233333Y-70214819D02*
X166661905Y-70214819D01*
X166947619Y-70214819D02*
X166947619Y-69214819D01*
X166947619Y-69214819D02*
X166852381Y-69357676D01*
X166852381Y-69357676D02*
X166757143Y-69452914D01*
X166757143Y-69452914D02*
X166661905Y-69500533D01*
X168185714Y-70214819D02*
X167614286Y-70214819D01*
X167900000Y-70214819D02*
X167900000Y-69214819D01*
X167900000Y-69214819D02*
X167804762Y-69357676D01*
X167804762Y-69357676D02*
X167709524Y-69452914D01*
X167709524Y-69452914D02*
X167614286Y-69500533D01*
X120185714Y-77254819D02*
X120185714Y-76254819D01*
X120185714Y-76254819D02*
X120423809Y-76254819D01*
X120423809Y-76254819D02*
X120566666Y-76302438D01*
X120566666Y-76302438D02*
X120661904Y-76397676D01*
X120661904Y-76397676D02*
X120709523Y-76492914D01*
X120709523Y-76492914D02*
X120757142Y-76683390D01*
X120757142Y-76683390D02*
X120757142Y-76826247D01*
X120757142Y-76826247D02*
X120709523Y-77016723D01*
X120709523Y-77016723D02*
X120661904Y-77111961D01*
X120661904Y-77111961D02*
X120566666Y-77207200D01*
X120566666Y-77207200D02*
X120423809Y-77254819D01*
X120423809Y-77254819D02*
X120185714Y-77254819D01*
X121090476Y-76254819D02*
X121757142Y-76254819D01*
X121757142Y-76254819D02*
X121090476Y-77254819D01*
X121090476Y-77254819D02*
X121757142Y-77254819D01*
X122661904Y-77254819D02*
X122090476Y-77254819D01*
X122376190Y-77254819D02*
X122376190Y-76254819D01*
X122376190Y-76254819D02*
X122280952Y-76397676D01*
X122280952Y-76397676D02*
X122185714Y-76492914D01*
X122185714Y-76492914D02*
X122090476Y-76540533D01*
X169857142Y-59654819D02*
X169523809Y-59178628D01*
X169285714Y-59654819D02*
X169285714Y-58654819D01*
X169285714Y-58654819D02*
X169666666Y-58654819D01*
X169666666Y-58654819D02*
X169761904Y-58702438D01*
X169761904Y-58702438D02*
X169809523Y-58750057D01*
X169809523Y-58750057D02*
X169857142Y-58845295D01*
X169857142Y-58845295D02*
X169857142Y-58988152D01*
X169857142Y-58988152D02*
X169809523Y-59083390D01*
X169809523Y-59083390D02*
X169761904Y-59131009D01*
X169761904Y-59131009D02*
X169666666Y-59178628D01*
X169666666Y-59178628D02*
X169285714Y-59178628D01*
X170809523Y-59654819D02*
X170238095Y-59654819D01*
X170523809Y-59654819D02*
X170523809Y-58654819D01*
X170523809Y-58654819D02*
X170428571Y-58797676D01*
X170428571Y-58797676D02*
X170333333Y-58892914D01*
X170333333Y-58892914D02*
X170238095Y-58940533D01*
X171714285Y-58654819D02*
X171238095Y-58654819D01*
X171238095Y-58654819D02*
X171190476Y-59131009D01*
X171190476Y-59131009D02*
X171238095Y-59083390D01*
X171238095Y-59083390D02*
X171333333Y-59035771D01*
X171333333Y-59035771D02*
X171571428Y-59035771D01*
X171571428Y-59035771D02*
X171666666Y-59083390D01*
X171666666Y-59083390D02*
X171714285Y-59131009D01*
X171714285Y-59131009D02*
X171761904Y-59226247D01*
X171761904Y-59226247D02*
X171761904Y-59464342D01*
X171761904Y-59464342D02*
X171714285Y-59559580D01*
X171714285Y-59559580D02*
X171666666Y-59607200D01*
X171666666Y-59607200D02*
X171571428Y-59654819D01*
X171571428Y-59654819D02*
X171333333Y-59654819D01*
X171333333Y-59654819D02*
X171238095Y-59607200D01*
X171238095Y-59607200D02*
X171190476Y-59559580D01*
X169938095Y-52254819D02*
X169938095Y-53064342D01*
X169938095Y-53064342D02*
X169985714Y-53159580D01*
X169985714Y-53159580D02*
X170033333Y-53207200D01*
X170033333Y-53207200D02*
X170128571Y-53254819D01*
X170128571Y-53254819D02*
X170319047Y-53254819D01*
X170319047Y-53254819D02*
X170414285Y-53207200D01*
X170414285Y-53207200D02*
X170461904Y-53159580D01*
X170461904Y-53159580D02*
X170509523Y-53064342D01*
X170509523Y-53064342D02*
X170509523Y-52254819D01*
X171033333Y-53254819D02*
X171223809Y-53254819D01*
X171223809Y-53254819D02*
X171319047Y-53207200D01*
X171319047Y-53207200D02*
X171366666Y-53159580D01*
X171366666Y-53159580D02*
X171461904Y-53016723D01*
X171461904Y-53016723D02*
X171509523Y-52826247D01*
X171509523Y-52826247D02*
X171509523Y-52445295D01*
X171509523Y-52445295D02*
X171461904Y-52350057D01*
X171461904Y-52350057D02*
X171414285Y-52302438D01*
X171414285Y-52302438D02*
X171319047Y-52254819D01*
X171319047Y-52254819D02*
X171128571Y-52254819D01*
X171128571Y-52254819D02*
X171033333Y-52302438D01*
X171033333Y-52302438D02*
X170985714Y-52350057D01*
X170985714Y-52350057D02*
X170938095Y-52445295D01*
X170938095Y-52445295D02*
X170938095Y-52683390D01*
X170938095Y-52683390D02*
X170985714Y-52778628D01*
X170985714Y-52778628D02*
X171033333Y-52826247D01*
X171033333Y-52826247D02*
X171128571Y-52873866D01*
X171128571Y-52873866D02*
X171319047Y-52873866D01*
X171319047Y-52873866D02*
X171414285Y-52826247D01*
X171414285Y-52826247D02*
X171461904Y-52778628D01*
X171461904Y-52778628D02*
X171509523Y-52683390D01*
X177504761Y-71050057D02*
X177409523Y-71002438D01*
X177409523Y-71002438D02*
X177314285Y-70907200D01*
X177314285Y-70907200D02*
X177171428Y-70764342D01*
X177171428Y-70764342D02*
X177076190Y-70716723D01*
X177076190Y-70716723D02*
X176980952Y-70716723D01*
X177028571Y-70954819D02*
X176933333Y-70907200D01*
X176933333Y-70907200D02*
X176838095Y-70811961D01*
X176838095Y-70811961D02*
X176790476Y-70621485D01*
X176790476Y-70621485D02*
X176790476Y-70288152D01*
X176790476Y-70288152D02*
X176838095Y-70097676D01*
X176838095Y-70097676D02*
X176933333Y-70002438D01*
X176933333Y-70002438D02*
X177028571Y-69954819D01*
X177028571Y-69954819D02*
X177219047Y-69954819D01*
X177219047Y-69954819D02*
X177314285Y-70002438D01*
X177314285Y-70002438D02*
X177409523Y-70097676D01*
X177409523Y-70097676D02*
X177457142Y-70288152D01*
X177457142Y-70288152D02*
X177457142Y-70621485D01*
X177457142Y-70621485D02*
X177409523Y-70811961D01*
X177409523Y-70811961D02*
X177314285Y-70907200D01*
X177314285Y-70907200D02*
X177219047Y-70954819D01*
X177219047Y-70954819D02*
X177028571Y-70954819D01*
X178028571Y-70383390D02*
X177933333Y-70335771D01*
X177933333Y-70335771D02*
X177885714Y-70288152D01*
X177885714Y-70288152D02*
X177838095Y-70192914D01*
X177838095Y-70192914D02*
X177838095Y-70145295D01*
X177838095Y-70145295D02*
X177885714Y-70050057D01*
X177885714Y-70050057D02*
X177933333Y-70002438D01*
X177933333Y-70002438D02*
X178028571Y-69954819D01*
X178028571Y-69954819D02*
X178219047Y-69954819D01*
X178219047Y-69954819D02*
X178314285Y-70002438D01*
X178314285Y-70002438D02*
X178361904Y-70050057D01*
X178361904Y-70050057D02*
X178409523Y-70145295D01*
X178409523Y-70145295D02*
X178409523Y-70192914D01*
X178409523Y-70192914D02*
X178361904Y-70288152D01*
X178361904Y-70288152D02*
X178314285Y-70335771D01*
X178314285Y-70335771D02*
X178219047Y-70383390D01*
X178219047Y-70383390D02*
X178028571Y-70383390D01*
X178028571Y-70383390D02*
X177933333Y-70431009D01*
X177933333Y-70431009D02*
X177885714Y-70478628D01*
X177885714Y-70478628D02*
X177838095Y-70573866D01*
X177838095Y-70573866D02*
X177838095Y-70764342D01*
X177838095Y-70764342D02*
X177885714Y-70859580D01*
X177885714Y-70859580D02*
X177933333Y-70907200D01*
X177933333Y-70907200D02*
X178028571Y-70954819D01*
X178028571Y-70954819D02*
X178219047Y-70954819D01*
X178219047Y-70954819D02*
X178314285Y-70907200D01*
X178314285Y-70907200D02*
X178361904Y-70859580D01*
X178361904Y-70859580D02*
X178409523Y-70764342D01*
X178409523Y-70764342D02*
X178409523Y-70573866D01*
X178409523Y-70573866D02*
X178361904Y-70478628D01*
X178361904Y-70478628D02*
X178314285Y-70431009D01*
X178314285Y-70431009D02*
X178219047Y-70383390D01*
X110333333Y-81534580D02*
X110285714Y-81582200D01*
X110285714Y-81582200D02*
X110142857Y-81629819D01*
X110142857Y-81629819D02*
X110047619Y-81629819D01*
X110047619Y-81629819D02*
X109904762Y-81582200D01*
X109904762Y-81582200D02*
X109809524Y-81486961D01*
X109809524Y-81486961D02*
X109761905Y-81391723D01*
X109761905Y-81391723D02*
X109714286Y-81201247D01*
X109714286Y-81201247D02*
X109714286Y-81058390D01*
X109714286Y-81058390D02*
X109761905Y-80867914D01*
X109761905Y-80867914D02*
X109809524Y-80772676D01*
X109809524Y-80772676D02*
X109904762Y-80677438D01*
X109904762Y-80677438D02*
X110047619Y-80629819D01*
X110047619Y-80629819D02*
X110142857Y-80629819D01*
X110142857Y-80629819D02*
X110285714Y-80677438D01*
X110285714Y-80677438D02*
X110333333Y-80725057D01*
X110666667Y-80629819D02*
X111285714Y-80629819D01*
X111285714Y-80629819D02*
X110952381Y-81010771D01*
X110952381Y-81010771D02*
X111095238Y-81010771D01*
X111095238Y-81010771D02*
X111190476Y-81058390D01*
X111190476Y-81058390D02*
X111238095Y-81106009D01*
X111238095Y-81106009D02*
X111285714Y-81201247D01*
X111285714Y-81201247D02*
X111285714Y-81439342D01*
X111285714Y-81439342D02*
X111238095Y-81534580D01*
X111238095Y-81534580D02*
X111190476Y-81582200D01*
X111190476Y-81582200D02*
X111095238Y-81629819D01*
X111095238Y-81629819D02*
X110809524Y-81629819D01*
X110809524Y-81629819D02*
X110714286Y-81582200D01*
X110714286Y-81582200D02*
X110666667Y-81534580D01*
X148757142Y-76059580D02*
X148709523Y-76107200D01*
X148709523Y-76107200D02*
X148566666Y-76154819D01*
X148566666Y-76154819D02*
X148471428Y-76154819D01*
X148471428Y-76154819D02*
X148328571Y-76107200D01*
X148328571Y-76107200D02*
X148233333Y-76011961D01*
X148233333Y-76011961D02*
X148185714Y-75916723D01*
X148185714Y-75916723D02*
X148138095Y-75726247D01*
X148138095Y-75726247D02*
X148138095Y-75583390D01*
X148138095Y-75583390D02*
X148185714Y-75392914D01*
X148185714Y-75392914D02*
X148233333Y-75297676D01*
X148233333Y-75297676D02*
X148328571Y-75202438D01*
X148328571Y-75202438D02*
X148471428Y-75154819D01*
X148471428Y-75154819D02*
X148566666Y-75154819D01*
X148566666Y-75154819D02*
X148709523Y-75202438D01*
X148709523Y-75202438D02*
X148757142Y-75250057D01*
X149709523Y-76154819D02*
X149138095Y-76154819D01*
X149423809Y-76154819D02*
X149423809Y-75154819D01*
X149423809Y-75154819D02*
X149328571Y-75297676D01*
X149328571Y-75297676D02*
X149233333Y-75392914D01*
X149233333Y-75392914D02*
X149138095Y-75440533D01*
X150280952Y-75583390D02*
X150185714Y-75535771D01*
X150185714Y-75535771D02*
X150138095Y-75488152D01*
X150138095Y-75488152D02*
X150090476Y-75392914D01*
X150090476Y-75392914D02*
X150090476Y-75345295D01*
X150090476Y-75345295D02*
X150138095Y-75250057D01*
X150138095Y-75250057D02*
X150185714Y-75202438D01*
X150185714Y-75202438D02*
X150280952Y-75154819D01*
X150280952Y-75154819D02*
X150471428Y-75154819D01*
X150471428Y-75154819D02*
X150566666Y-75202438D01*
X150566666Y-75202438D02*
X150614285Y-75250057D01*
X150614285Y-75250057D02*
X150661904Y-75345295D01*
X150661904Y-75345295D02*
X150661904Y-75392914D01*
X150661904Y-75392914D02*
X150614285Y-75488152D01*
X150614285Y-75488152D02*
X150566666Y-75535771D01*
X150566666Y-75535771D02*
X150471428Y-75583390D01*
X150471428Y-75583390D02*
X150280952Y-75583390D01*
X150280952Y-75583390D02*
X150185714Y-75631009D01*
X150185714Y-75631009D02*
X150138095Y-75678628D01*
X150138095Y-75678628D02*
X150090476Y-75773866D01*
X150090476Y-75773866D02*
X150090476Y-75964342D01*
X150090476Y-75964342D02*
X150138095Y-76059580D01*
X150138095Y-76059580D02*
X150185714Y-76107200D01*
X150185714Y-76107200D02*
X150280952Y-76154819D01*
X150280952Y-76154819D02*
X150471428Y-76154819D01*
X150471428Y-76154819D02*
X150566666Y-76107200D01*
X150566666Y-76107200D02*
X150614285Y-76059580D01*
X150614285Y-76059580D02*
X150661904Y-75964342D01*
X150661904Y-75964342D02*
X150661904Y-75773866D01*
X150661904Y-75773866D02*
X150614285Y-75678628D01*
X150614285Y-75678628D02*
X150566666Y-75631009D01*
X150566666Y-75631009D02*
X150471428Y-75583390D01*
X189466666Y-81531009D02*
X189133333Y-81531009D01*
X189133333Y-82054819D02*
X189133333Y-81054819D01*
X189133333Y-81054819D02*
X189609523Y-81054819D01*
X189942857Y-81150057D02*
X189990476Y-81102438D01*
X189990476Y-81102438D02*
X190085714Y-81054819D01*
X190085714Y-81054819D02*
X190323809Y-81054819D01*
X190323809Y-81054819D02*
X190419047Y-81102438D01*
X190419047Y-81102438D02*
X190466666Y-81150057D01*
X190466666Y-81150057D02*
X190514285Y-81245295D01*
X190514285Y-81245295D02*
X190514285Y-81340533D01*
X190514285Y-81340533D02*
X190466666Y-81483390D01*
X190466666Y-81483390D02*
X189895238Y-82054819D01*
X189895238Y-82054819D02*
X190514285Y-82054819D01*
X142361905Y-70154819D02*
X142361905Y-69154819D01*
X142361905Y-69154819D02*
X142600000Y-69154819D01*
X142600000Y-69154819D02*
X142742857Y-69202438D01*
X142742857Y-69202438D02*
X142838095Y-69297676D01*
X142838095Y-69297676D02*
X142885714Y-69392914D01*
X142885714Y-69392914D02*
X142933333Y-69583390D01*
X142933333Y-69583390D02*
X142933333Y-69726247D01*
X142933333Y-69726247D02*
X142885714Y-69916723D01*
X142885714Y-69916723D02*
X142838095Y-70011961D01*
X142838095Y-70011961D02*
X142742857Y-70107200D01*
X142742857Y-70107200D02*
X142600000Y-70154819D01*
X142600000Y-70154819D02*
X142361905Y-70154819D01*
X143790476Y-69488152D02*
X143790476Y-70154819D01*
X143552381Y-69107200D02*
X143314286Y-69821485D01*
X143314286Y-69821485D02*
X143933333Y-69821485D01*
X107333333Y-81604819D02*
X107000000Y-81128628D01*
X106761905Y-81604819D02*
X106761905Y-80604819D01*
X106761905Y-80604819D02*
X107142857Y-80604819D01*
X107142857Y-80604819D02*
X107238095Y-80652438D01*
X107238095Y-80652438D02*
X107285714Y-80700057D01*
X107285714Y-80700057D02*
X107333333Y-80795295D01*
X107333333Y-80795295D02*
X107333333Y-80938152D01*
X107333333Y-80938152D02*
X107285714Y-81033390D01*
X107285714Y-81033390D02*
X107238095Y-81081009D01*
X107238095Y-81081009D02*
X107142857Y-81128628D01*
X107142857Y-81128628D02*
X106761905Y-81128628D01*
X107714286Y-80700057D02*
X107761905Y-80652438D01*
X107761905Y-80652438D02*
X107857143Y-80604819D01*
X107857143Y-80604819D02*
X108095238Y-80604819D01*
X108095238Y-80604819D02*
X108190476Y-80652438D01*
X108190476Y-80652438D02*
X108238095Y-80700057D01*
X108238095Y-80700057D02*
X108285714Y-80795295D01*
X108285714Y-80795295D02*
X108285714Y-80890533D01*
X108285714Y-80890533D02*
X108238095Y-81033390D01*
X108238095Y-81033390D02*
X107666667Y-81604819D01*
X107666667Y-81604819D02*
X108285714Y-81604819D01*
D11*
%TO.C,TP1*%
X109250000Y-93100000D02*
G75*
G02*
X107350000Y-93100000I-950000J0D01*
G01*
X107350000Y-93100000D02*
G75*
G02*
X109250000Y-93100000I950000J0D01*
G01*
%TO.C,C13*%
X179715580Y-63390000D02*
X179434420Y-63390000D01*
X179715580Y-64410000D02*
X179434420Y-64410000D01*
%TO.C,C12*%
X127780000Y-54134420D02*
X127780000Y-54415580D01*
X128800000Y-54134420D02*
X128800000Y-54415580D01*
%TO.C,R14*%
X164637742Y-45977500D02*
X165112258Y-45977500D01*
X164637742Y-47022500D02*
X165112258Y-47022500D01*
%TO.C,U5*%
X140630000Y-37750000D02*
X140630000Y-43910000D01*
X140630000Y-37750000D02*
X158870000Y-37750000D01*
X140630000Y-62710000D02*
X140630000Y-63490000D01*
X140630000Y-63490000D02*
X141630000Y-63490000D01*
X158870000Y-37750000D02*
X158870000Y-44165000D01*
X158870000Y-62710000D02*
X158870000Y-63490000D01*
X158870000Y-63490000D02*
X157870000Y-63490000D01*
X140625000Y-44635000D02*
X140125000Y-44635000D01*
X140625000Y-44135000D01*
X140625000Y-44635000D01*
G36*
X140625000Y-44635000D02*
G01*
X140125000Y-44635000D01*
X140625000Y-44135000D01*
X140625000Y-44635000D01*
G37*
%TO.C,C16*%
X170234420Y-67090000D02*
X170515580Y-67090000D01*
X170234420Y-68110000D02*
X170515580Y-68110000D01*
%TO.C,F7*%
X140240000Y-79990000D02*
X146860000Y-79990000D01*
X140240000Y-100610000D02*
X140240000Y-79990000D01*
X146860000Y-79990000D02*
X146860000Y-100610000D01*
X146860000Y-100610000D02*
X140240000Y-100610000D01*
%TO.C,F6*%
X132940000Y-79990000D02*
X139560000Y-79990000D01*
X132940000Y-100610000D02*
X132940000Y-79990000D01*
X139560000Y-79990000D02*
X139560000Y-100610000D01*
X139560000Y-100610000D02*
X132940000Y-100610000D01*
%TO.C,C11*%
X172490000Y-45865580D02*
X172490000Y-45584420D01*
X173510000Y-45865580D02*
X173510000Y-45584420D01*
%TO.C,C10*%
X127924420Y-44990000D02*
X128205580Y-44990000D01*
X127924420Y-46010000D02*
X128205580Y-46010000D01*
%TO.C,R5*%
X136962742Y-76477500D02*
X137437258Y-76477500D01*
X136962742Y-77522500D02*
X137437258Y-77522500D01*
%TO.C,R11*%
X153077500Y-73312258D02*
X153077500Y-72837742D01*
X154122500Y-73312258D02*
X154122500Y-72837742D01*
%TO.C,R3*%
X136937742Y-70477500D02*
X137412258Y-70477500D01*
X136937742Y-71522500D02*
X137412258Y-71522500D01*
%TO.C,R1*%
X106977500Y-78237742D02*
X106977500Y-78712258D01*
X108022500Y-78237742D02*
X108022500Y-78712258D01*
%TO.C,R6*%
X200777500Y-57037742D02*
X200777500Y-57512258D01*
X201822500Y-57037742D02*
X201822500Y-57512258D01*
%TO.C,R21*%
X187812258Y-76977500D02*
X187337742Y-76977500D01*
X187812258Y-78022500D02*
X187337742Y-78022500D01*
%TO.C,R24*%
X120037742Y-61677500D02*
X120512258Y-61677500D01*
X120037742Y-62722500D02*
X120512258Y-62722500D01*
%TO.C,J11*%
X149480000Y-65520000D02*
X149480000Y-68280000D01*
X154670000Y-65520000D02*
X149480000Y-65520000D01*
X154670000Y-65520000D02*
X154670000Y-68280000D01*
X154670000Y-68280000D02*
X149480000Y-68280000D01*
X155940000Y-65520000D02*
X157320000Y-65520000D01*
X157320000Y-65520000D02*
X157320000Y-66900000D01*
%TO.C,D5*%
X136412500Y-73235000D02*
X138697500Y-73235000D01*
X138697500Y-71765000D02*
X136412500Y-71765000D01*
X138697500Y-73235000D02*
X138697500Y-71765000D01*
%TO.C,Q5*%
X124090000Y-88090000D02*
X128710000Y-88090000D01*
X124090000Y-98310000D02*
X124090000Y-88090000D01*
X127330000Y-88090000D02*
X127330000Y-98310000D01*
X128710000Y-88090000D02*
X128710000Y-98310000D01*
X128710000Y-91350000D02*
X127330000Y-91350000D01*
X128710000Y-95050000D02*
X127330000Y-95050000D01*
X128710000Y-98310000D02*
X124090000Y-98310000D01*
%TO.C,C2*%
X112090000Y-73686252D02*
X112090000Y-72263748D01*
X113910000Y-73686252D02*
X113910000Y-72263748D01*
%TO.C,R17*%
X136277500Y-62287742D02*
X136277500Y-62762258D01*
X137322500Y-62287742D02*
X137322500Y-62762258D01*
%TO.C,D7*%
X136387500Y-79235000D02*
X138672500Y-79235000D01*
X138672500Y-77765000D02*
X136387500Y-77765000D01*
X138672500Y-79235000D02*
X138672500Y-77765000D01*
%TO.C,R22*%
X187762258Y-70977500D02*
X187287742Y-70977500D01*
X187762258Y-72022500D02*
X187287742Y-72022500D01*
%TO.C,C7*%
X106892379Y-55602000D02*
X106892379Y-54798000D01*
X106932379Y-55833000D02*
X106932379Y-54567000D01*
X106972379Y-56001000D02*
X106972379Y-54399000D01*
X107012379Y-56139000D02*
X107012379Y-54261000D01*
X107052379Y-56258000D02*
X107052379Y-54142000D01*
X107092379Y-56365000D02*
X107092379Y-54035000D01*
X107132379Y-56461000D02*
X107132379Y-53939000D01*
X107172379Y-56550000D02*
X107172379Y-53850000D01*
X107212379Y-56632000D02*
X107212379Y-53768000D01*
X107252379Y-56709000D02*
X107252379Y-53691000D01*
X107292379Y-56781000D02*
X107292379Y-53619000D01*
X107332379Y-56849000D02*
X107332379Y-53551000D01*
X107372379Y-56914000D02*
X107372379Y-53486000D01*
X107412379Y-56975000D02*
X107412379Y-53425000D01*
X107452379Y-57034000D02*
X107452379Y-53366000D01*
X107492379Y-57090000D02*
X107492379Y-53310000D01*
X107532379Y-57143000D02*
X107532379Y-53257000D01*
X107572379Y-57195000D02*
X107572379Y-53205000D01*
X107612379Y-57244000D02*
X107612379Y-53156000D01*
X107652379Y-57291000D02*
X107652379Y-53109000D01*
X107692379Y-57337000D02*
X107692379Y-53063000D01*
X107732379Y-57381000D02*
X107732379Y-53019000D01*
X107772379Y-57423000D02*
X107772379Y-52977000D01*
X107812379Y-57464000D02*
X107812379Y-52936000D01*
X107852379Y-54160000D02*
X107852379Y-52896000D01*
X107852379Y-57504000D02*
X107852379Y-56240000D01*
X107892379Y-54160000D02*
X107892379Y-52858000D01*
X107892379Y-57542000D02*
X107892379Y-56240000D01*
X107932379Y-54160000D02*
X107932379Y-52821000D01*
X107932379Y-57579000D02*
X107932379Y-56240000D01*
X107972379Y-54160000D02*
X107972379Y-52785000D01*
X107972379Y-57615000D02*
X107972379Y-56240000D01*
X108012379Y-54160000D02*
X108012379Y-52750000D01*
X108012379Y-57650000D02*
X108012379Y-56240000D01*
X108052379Y-54160000D02*
X108052379Y-52717000D01*
X108052379Y-57683000D02*
X108052379Y-56240000D01*
X108092379Y-54160000D02*
X108092379Y-52684000D01*
X108092379Y-57716000D02*
X108092379Y-56240000D01*
X108132379Y-54160000D02*
X108132379Y-52653000D01*
X108132379Y-57747000D02*
X108132379Y-56240000D01*
X108172379Y-54160000D02*
X108172379Y-52623000D01*
X108172379Y-57777000D02*
X108172379Y-56240000D01*
X108212379Y-54160000D02*
X108212379Y-52593000D01*
X108212379Y-57807000D02*
X108212379Y-56240000D01*
X108252379Y-54160000D02*
X108252379Y-52564000D01*
X108252379Y-57836000D02*
X108252379Y-56240000D01*
X108292379Y-54160000D02*
X108292379Y-52537000D01*
X108292379Y-57863000D02*
X108292379Y-56240000D01*
X108332379Y-54160000D02*
X108332379Y-52510000D01*
X108332379Y-57890000D02*
X108332379Y-56240000D01*
X108372379Y-54160000D02*
X108372379Y-52484000D01*
X108372379Y-57916000D02*
X108372379Y-56240000D01*
X108412379Y-54160000D02*
X108412379Y-52459000D01*
X108412379Y-57941000D02*
X108412379Y-56240000D01*
X108452379Y-54160000D02*
X108452379Y-52435000D01*
X108452379Y-57965000D02*
X108452379Y-56240000D01*
X108492379Y-54160000D02*
X108492379Y-52411000D01*
X108492379Y-57989000D02*
X108492379Y-56240000D01*
X108532379Y-54160000D02*
X108532379Y-52388000D01*
X108532379Y-58012000D02*
X108532379Y-56240000D01*
X108572379Y-54160000D02*
X108572379Y-52366000D01*
X108572379Y-58034000D02*
X108572379Y-56240000D01*
X108612379Y-54160000D02*
X108612379Y-52345000D01*
X108612379Y-58055000D02*
X108612379Y-56240000D01*
X108652379Y-54160000D02*
X108652379Y-52324000D01*
X108652379Y-58076000D02*
X108652379Y-56240000D01*
X108692379Y-54160000D02*
X108692379Y-52304000D01*
X108692379Y-58096000D02*
X108692379Y-56240000D01*
X108732379Y-54160000D02*
X108732379Y-52285000D01*
X108732379Y-58115000D02*
X108732379Y-56240000D01*
X108772379Y-54160000D02*
X108772379Y-52266000D01*
X108772379Y-58134000D02*
X108772379Y-56240000D01*
X108812379Y-54160000D02*
X108812379Y-52248000D01*
X108812379Y-58152000D02*
X108812379Y-56240000D01*
X108852379Y-54160000D02*
X108852379Y-52231000D01*
X108852379Y-58169000D02*
X108852379Y-56240000D01*
X108892379Y-54160000D02*
X108892379Y-52214000D01*
X108892379Y-58186000D02*
X108892379Y-56240000D01*
X108932379Y-54160000D02*
X108932379Y-52198000D01*
X108932379Y-58202000D02*
X108932379Y-56240000D01*
X108972379Y-54160000D02*
X108972379Y-52183000D01*
X108972379Y-58217000D02*
X108972379Y-56240000D01*
X109012379Y-54160000D02*
X109012379Y-52168000D01*
X109012379Y-58232000D02*
X109012379Y-56240000D01*
X109052379Y-54160000D02*
X109052379Y-52153000D01*
X109052379Y-58247000D02*
X109052379Y-56240000D01*
X109092379Y-54160000D02*
X109092379Y-52140000D01*
X109092379Y-58260000D02*
X109092379Y-56240000D01*
X109132379Y-54160000D02*
X109132379Y-52127000D01*
X109132379Y-58273000D02*
X109132379Y-56240000D01*
X109172379Y-54160000D02*
X109172379Y-52114000D01*
X109172379Y-58286000D02*
X109172379Y-56240000D01*
X109212379Y-54160000D02*
X109212379Y-52102000D01*
X109212379Y-58298000D02*
X109212379Y-56240000D01*
X109252379Y-54160000D02*
X109252379Y-52091000D01*
X109252379Y-58309000D02*
X109252379Y-56240000D01*
X109292379Y-54160000D02*
X109292379Y-52080000D01*
X109292379Y-58320000D02*
X109292379Y-56240000D01*
X109332379Y-54160000D02*
X109332379Y-52069000D01*
X109332379Y-58331000D02*
X109332379Y-56240000D01*
X109372379Y-54160000D02*
X109372379Y-52060000D01*
X109372379Y-58340000D02*
X109372379Y-56240000D01*
X109412379Y-54160000D02*
X109412379Y-52050000D01*
X109412379Y-58350000D02*
X109412379Y-56240000D01*
X109452379Y-54160000D02*
X109452379Y-52041000D01*
X109452379Y-58359000D02*
X109452379Y-56240000D01*
X109492379Y-54160000D02*
X109492379Y-52033000D01*
X109492379Y-58367000D02*
X109492379Y-56240000D01*
X109532379Y-54160000D02*
X109532379Y-52026000D01*
X109532379Y-58374000D02*
X109532379Y-56240000D01*
X109572379Y-54160000D02*
X109572379Y-52018000D01*
X109572379Y-58382000D02*
X109572379Y-56240000D01*
X109612379Y-54160000D02*
X109612379Y-52012000D01*
X109612379Y-58388000D02*
X109612379Y-56240000D01*
X109652379Y-54160000D02*
X109652379Y-52005000D01*
X109652379Y-58395000D02*
X109652379Y-56240000D01*
X109692379Y-54160000D02*
X109692379Y-52000000D01*
X109692379Y-58400000D02*
X109692379Y-56240000D01*
X109732379Y-54160000D02*
X109732379Y-51995000D01*
X109732379Y-58405000D02*
X109732379Y-56240000D01*
X109772379Y-54160000D02*
X109772379Y-51990000D01*
X109772379Y-58410000D02*
X109772379Y-56240000D01*
X109812379Y-54160000D02*
X109812379Y-51986000D01*
X109812379Y-58414000D02*
X109812379Y-56240000D01*
X109852379Y-54160000D02*
X109852379Y-51982000D01*
X109852379Y-58418000D02*
X109852379Y-56240000D01*
X109892379Y-54160000D02*
X109892379Y-51979000D01*
X109892379Y-58421000D02*
X109892379Y-56240000D01*
X109932379Y-58424000D02*
X109932379Y-51976000D01*
X109972379Y-58426000D02*
X109972379Y-51974000D01*
X110012379Y-58428000D02*
X110012379Y-51972000D01*
X110052379Y-58429000D02*
X110052379Y-51971000D01*
X110092379Y-58430000D02*
X110092379Y-51970000D01*
X110132379Y-58430000D02*
X110132379Y-51970000D01*
X113317620Y-57354000D02*
X113317620Y-56724000D01*
X113632620Y-57039000D02*
X113002620Y-57039000D01*
X113402379Y-55200000D02*
G75*
G02*
X106862379Y-55200000I-3270000J0D01*
G01*
X106862379Y-55200000D02*
G75*
G02*
X113402379Y-55200000I3270000J0D01*
G01*
%TO.C,C1*%
X110560000Y-107780000D02*
X106883000Y-107780000D01*
X110560000Y-107820000D02*
X106893000Y-107820000D01*
X110560000Y-107860000D02*
X106904000Y-107860000D01*
X110560000Y-107900000D02*
X106915000Y-107900000D01*
X110560000Y-107940000D02*
X106927000Y-107940000D01*
X110560000Y-107980000D02*
X106939000Y-107980000D01*
X110560000Y-108020000D02*
X106951000Y-108020000D01*
X110560000Y-108060000D02*
X106963000Y-108060000D01*
X110560000Y-108100000D02*
X106976000Y-108100000D01*
X110560000Y-108140000D02*
X106990000Y-108140000D01*
X110560000Y-108180000D02*
X107003000Y-108180000D01*
X110560000Y-108220000D02*
X107018000Y-108220000D01*
X110560000Y-108260000D02*
X107032000Y-108260000D01*
X110560000Y-108300000D02*
X107047000Y-108300000D01*
X110560000Y-108340000D02*
X107062000Y-108340000D01*
X110560000Y-108380000D02*
X107078000Y-108380000D01*
X110560000Y-108420000D02*
X107094000Y-108420000D01*
X110560000Y-108460000D02*
X107110000Y-108460000D01*
X110560000Y-108500000D02*
X107127000Y-108500000D01*
X110560000Y-108540000D02*
X107144000Y-108540000D01*
X110560000Y-108580000D02*
X107162000Y-108580000D01*
X110560000Y-108620000D02*
X107180000Y-108620000D01*
X110560000Y-108660000D02*
X107198000Y-108660000D01*
X110560000Y-108700000D02*
X107217000Y-108700000D01*
X110560000Y-108740000D02*
X107236000Y-108740000D01*
X110560000Y-108780000D02*
X107256000Y-108780000D01*
X110560000Y-108820000D02*
X107276000Y-108820000D01*
X110560000Y-108860000D02*
X107296000Y-108860000D01*
X110560000Y-108900000D02*
X107317000Y-108900000D01*
X110560000Y-108940000D02*
X107339000Y-108940000D01*
X110560000Y-108980000D02*
X107361000Y-108980000D01*
X110560000Y-109020000D02*
X107383000Y-109020000D01*
X110560000Y-109060000D02*
X107406000Y-109060000D01*
X110560000Y-109100000D02*
X107429000Y-109100000D01*
X110560000Y-109140000D02*
X107453000Y-109140000D01*
X110560000Y-109180000D02*
X107477000Y-109180000D01*
X110560000Y-109220000D02*
X107502000Y-109220000D01*
X110560000Y-109260000D02*
X107528000Y-109260000D01*
X110560000Y-109300000D02*
X107553000Y-109300000D01*
X110560000Y-109340000D02*
X107580000Y-109340000D01*
X110560000Y-109380000D02*
X107607000Y-109380000D01*
X110560000Y-109420000D02*
X107634000Y-109420000D01*
X110560000Y-109460000D02*
X107662000Y-109460000D01*
X110560000Y-109500000D02*
X107691000Y-109500000D01*
X110560000Y-109540000D02*
X107720000Y-109540000D01*
X110560000Y-109580000D02*
X107750000Y-109580000D01*
X110560000Y-109620000D02*
X107780000Y-109620000D01*
X110560000Y-109660000D02*
X107812000Y-109660000D01*
X110560000Y-109700000D02*
X107843000Y-109700000D01*
X110560000Y-109740000D02*
X107876000Y-109740000D01*
X110560000Y-109780000D02*
X107909000Y-109780000D01*
X110560000Y-109820000D02*
X107942000Y-109820000D01*
X110560000Y-109860000D02*
X107977000Y-109860000D01*
X110560000Y-109900000D02*
X108012000Y-109900000D01*
X110560000Y-109940000D02*
X108048000Y-109940000D01*
X110560000Y-109980000D02*
X108084000Y-109980000D01*
X110560000Y-110020000D02*
X108122000Y-110020000D01*
X110560000Y-110060000D02*
X108160000Y-110060000D01*
X110560000Y-110100000D02*
X108199000Y-110100000D01*
X110560000Y-110140000D02*
X108239000Y-110140000D01*
X110560000Y-110180000D02*
X108280000Y-110180000D01*
X110560000Y-110220000D02*
X108322000Y-110220000D01*
X112399000Y-111580000D02*
X111201000Y-111580000D01*
X112662000Y-111540000D02*
X110938000Y-111540000D01*
X112862000Y-111500000D02*
X110738000Y-111500000D01*
X113030000Y-111460000D02*
X110570000Y-111460000D01*
X113177000Y-111420000D02*
X110423000Y-111420000D01*
X113309000Y-111380000D02*
X110291000Y-111380000D01*
X113430000Y-111340000D02*
X110170000Y-111340000D01*
X113542000Y-111300000D02*
X110058000Y-111300000D01*
X113646000Y-111260000D02*
X109954000Y-111260000D01*
X113744000Y-111220000D02*
X109856000Y-111220000D01*
X113837000Y-111180000D02*
X109763000Y-111180000D01*
X113924000Y-111140000D02*
X109676000Y-111140000D01*
X114008000Y-111100000D02*
X109592000Y-111100000D01*
X114088000Y-111060000D02*
X109512000Y-111060000D01*
X114165000Y-111020000D02*
X109435000Y-111020000D01*
X114239000Y-110980000D02*
X109361000Y-110980000D01*
X114310000Y-110940000D02*
X109290000Y-110940000D01*
X114378000Y-110900000D02*
X109222000Y-110900000D01*
X114444000Y-110860000D02*
X109156000Y-110860000D01*
X114508000Y-110820000D02*
X109092000Y-110820000D01*
X114570000Y-110780000D02*
X109030000Y-110780000D01*
X114630000Y-110740000D02*
X108970000Y-110740000D01*
X114675000Y-101020354D02*
X114675000Y-102020354D01*
X114688000Y-110700000D02*
X108912000Y-110700000D01*
X114745000Y-110660000D02*
X108855000Y-110660000D01*
X114800000Y-110620000D02*
X108800000Y-110620000D01*
X114853000Y-110580000D02*
X108747000Y-110580000D01*
X114905000Y-110540000D02*
X108695000Y-110540000D01*
X114956000Y-110500000D02*
X108644000Y-110500000D01*
X115005000Y-110460000D02*
X108595000Y-110460000D01*
X115054000Y-110420000D02*
X108546000Y-110420000D01*
X115101000Y-110380000D02*
X108499000Y-110380000D01*
X115147000Y-110340000D02*
X108453000Y-110340000D01*
X115175000Y-101520354D02*
X114175000Y-101520354D01*
X115191000Y-110300000D02*
X108409000Y-110300000D01*
X115235000Y-110260000D02*
X108365000Y-110260000D01*
X115278000Y-110220000D02*
X113040000Y-110220000D01*
X115320000Y-110180000D02*
X113040000Y-110180000D01*
X115361000Y-110140000D02*
X113040000Y-110140000D01*
X115401000Y-110100000D02*
X113040000Y-110100000D01*
X115440000Y-110060000D02*
X113040000Y-110060000D01*
X115478000Y-110020000D02*
X113040000Y-110020000D01*
X115516000Y-109980000D02*
X113040000Y-109980000D01*
X115552000Y-109940000D02*
X113040000Y-109940000D01*
X115588000Y-109900000D02*
X113040000Y-109900000D01*
X115623000Y-109860000D02*
X113040000Y-109860000D01*
X115658000Y-109820000D02*
X113040000Y-109820000D01*
X115691000Y-109780000D02*
X113040000Y-109780000D01*
X115724000Y-109740000D02*
X113040000Y-109740000D01*
X115757000Y-109700000D02*
X113040000Y-109700000D01*
X115788000Y-109660000D02*
X113040000Y-109660000D01*
X115820000Y-109620000D02*
X113040000Y-109620000D01*
X115850000Y-109580000D02*
X113040000Y-109580000D01*
X115880000Y-109540000D02*
X113040000Y-109540000D01*
X115909000Y-109500000D02*
X113040000Y-109500000D01*
X115938000Y-109460000D02*
X113040000Y-109460000D01*
X115966000Y-109420000D02*
X113040000Y-109420000D01*
X115993000Y-109380000D02*
X113040000Y-109380000D01*
X116020000Y-109340000D02*
X113040000Y-109340000D01*
X116047000Y-109300000D02*
X113040000Y-109300000D01*
X116072000Y-109260000D02*
X113040000Y-109260000D01*
X116098000Y-109220000D02*
X113040000Y-109220000D01*
X116123000Y-109180000D02*
X113040000Y-109180000D01*
X116147000Y-109140000D02*
X113040000Y-109140000D01*
X116171000Y-109100000D02*
X113040000Y-109100000D01*
X116194000Y-109060000D02*
X113040000Y-109060000D01*
X116217000Y-109020000D02*
X113040000Y-109020000D01*
X116239000Y-108980000D02*
X113040000Y-108980000D01*
X116261000Y-108940000D02*
X113040000Y-108940000D01*
X116283000Y-108900000D02*
X113040000Y-108900000D01*
X116304000Y-108860000D02*
X113040000Y-108860000D01*
X116324000Y-108820000D02*
X113040000Y-108820000D01*
X116344000Y-108780000D02*
X113040000Y-108780000D01*
X116364000Y-108740000D02*
X113040000Y-108740000D01*
X116383000Y-108700000D02*
X113040000Y-108700000D01*
X116402000Y-108660000D02*
X113040000Y-108660000D01*
X116420000Y-108620000D02*
X113040000Y-108620000D01*
X116438000Y-108580000D02*
X113040000Y-108580000D01*
X116456000Y-108540000D02*
X113040000Y-108540000D01*
X116473000Y-108500000D02*
X113040000Y-108500000D01*
X116490000Y-108460000D02*
X113040000Y-108460000D01*
X116506000Y-108420000D02*
X113040000Y-108420000D01*
X116522000Y-108380000D02*
X113040000Y-108380000D01*
X116538000Y-108340000D02*
X113040000Y-108340000D01*
X116553000Y-108300000D02*
X113040000Y-108300000D01*
X116568000Y-108260000D02*
X113040000Y-108260000D01*
X116582000Y-108220000D02*
X113040000Y-108220000D01*
X116597000Y-108180000D02*
X113040000Y-108180000D01*
X116610000Y-108140000D02*
X113040000Y-108140000D01*
X116624000Y-108100000D02*
X113040000Y-108100000D01*
X116637000Y-108060000D02*
X113040000Y-108060000D01*
X116649000Y-108020000D02*
X113040000Y-108020000D01*
X116661000Y-107980000D02*
X113040000Y-107980000D01*
X116673000Y-107940000D02*
X113040000Y-107940000D01*
X116685000Y-107900000D02*
X113040000Y-107900000D01*
X116696000Y-107860000D02*
X113040000Y-107860000D01*
X116707000Y-107820000D02*
X113040000Y-107820000D01*
X116717000Y-107780000D02*
X113040000Y-107780000D01*
X116728000Y-107740000D02*
X106872000Y-107740000D01*
X116737000Y-107700000D02*
X106863000Y-107700000D01*
X116747000Y-107660000D02*
X106853000Y-107660000D01*
X116756000Y-107620000D02*
X106844000Y-107620000D01*
X116765000Y-107580000D02*
X106835000Y-107580000D01*
X116773000Y-107540000D02*
X106827000Y-107540000D01*
X116781000Y-107500000D02*
X106819000Y-107500000D01*
X116789000Y-107460000D02*
X106811000Y-107460000D01*
X116797000Y-107420000D02*
X106803000Y-107420000D01*
X116804000Y-107380000D02*
X106796000Y-107380000D01*
X116811000Y-107340000D02*
X106789000Y-107340000D01*
X116817000Y-107300000D02*
X106783000Y-107300000D01*
X116823000Y-107260000D02*
X106777000Y-107260000D01*
X116829000Y-107220000D02*
X106771000Y-107220000D01*
X116835000Y-107180000D02*
X106765000Y-107180000D01*
X116840000Y-107140000D02*
X106760000Y-107140000D01*
X116845000Y-107100000D02*
X106755000Y-107100000D01*
X116849000Y-107060000D02*
X106751000Y-107060000D01*
X116854000Y-107020000D02*
X106746000Y-107020000D01*
X116857000Y-106980000D02*
X106743000Y-106980000D01*
X116861000Y-106940000D02*
X106739000Y-106940000D01*
X116864000Y-106900000D02*
X106736000Y-106900000D01*
X116867000Y-106860000D02*
X106733000Y-106860000D01*
X116870000Y-106820000D02*
X106730000Y-106820000D01*
X116872000Y-106780000D02*
X106728000Y-106780000D01*
X116874000Y-106740000D02*
X106726000Y-106740000D01*
X116876000Y-106700000D02*
X106724000Y-106700000D01*
X116877000Y-106660000D02*
X106723000Y-106660000D01*
X116879000Y-106580000D02*
X106721000Y-106580000D01*
X116879000Y-106620000D02*
X106721000Y-106620000D01*
X116880000Y-106500000D02*
X106720000Y-106500000D01*
X116880000Y-106540000D02*
X106720000Y-106540000D01*
X116920000Y-106500000D02*
G75*
G02*
X106680000Y-106500000I-5120000J0D01*
G01*
X106680000Y-106500000D02*
G75*
G02*
X116920000Y-106500000I5120000J0D01*
G01*
%TO.C,Q1*%
X115690000Y-77802500D02*
X116690000Y-77802500D01*
X115690000Y-79322500D02*
X115690000Y-77802500D01*
X115740000Y-79322500D02*
X115690000Y-79322500D01*
X117640000Y-79322500D02*
X116860000Y-79322500D01*
X117810000Y-77802500D02*
X118810000Y-77802500D01*
X118810000Y-77802500D02*
X118810000Y-79322500D01*
X118810000Y-79322500D02*
X118760000Y-79322500D01*
X117200000Y-80102500D02*
X116870000Y-79862500D01*
X117200000Y-79622500D01*
X117200000Y-80102500D01*
G36*
X117200000Y-80102500D02*
G01*
X116870000Y-79862500D01*
X117200000Y-79622500D01*
X117200000Y-80102500D01*
G37*
%TO.C,J5*%
X157320000Y-77930000D02*
X157320000Y-70200000D01*
X160080000Y-70200000D02*
X157320000Y-70200000D01*
X160080000Y-77930000D02*
X157320000Y-77930000D01*
X160080000Y-77930000D02*
X160080000Y-70200000D01*
X160080000Y-79200000D02*
X160080000Y-80580000D01*
X160080000Y-80580000D02*
X158700000Y-80580000D01*
%TO.C,JP2*%
X190600000Y-78800000D02*
X190600000Y-76000000D01*
X191300000Y-75350000D02*
X191900000Y-75350000D01*
X191900000Y-79450000D02*
X191300000Y-79450000D01*
X192600000Y-76000000D02*
X192600000Y-78800000D01*
X192800000Y-78600000D02*
X193100000Y-78300000D01*
X192800000Y-78600000D02*
X193100000Y-78900000D01*
X193100000Y-78900000D02*
X193100000Y-78300000D01*
X190600000Y-76050000D02*
G75*
G02*
X191300000Y-75350000I700000J0D01*
G01*
X191300000Y-79450000D02*
G75*
G02*
X190600000Y-78750000I-1J699999D01*
G01*
X191900000Y-75350000D02*
G75*
G02*
X192600000Y-76050000I0J-700000D01*
G01*
X192600000Y-78750000D02*
G75*
G02*
X191900000Y-79450000I-699999J-1D01*
G01*
%TO.C,Q6*%
X130202500Y-63290000D02*
X131722500Y-63290000D01*
X130202500Y-64290000D02*
X130202500Y-63290000D01*
X130202500Y-66410000D02*
X130202500Y-65410000D01*
X131722500Y-63290000D02*
X131722500Y-63340000D01*
X131722500Y-64460000D02*
X131722500Y-65240000D01*
X131722500Y-66360000D02*
X131722500Y-66410000D01*
X131722500Y-66410000D02*
X130202500Y-66410000D01*
X132262500Y-65230000D02*
X132022500Y-64900000D01*
X132502500Y-64900000D01*
X132262500Y-65230000D01*
G36*
X132262500Y-65230000D02*
G01*
X132022500Y-64900000D01*
X132502500Y-64900000D01*
X132262500Y-65230000D01*
G37*
%TO.C,F5*%
X164140000Y-82490000D02*
X170760000Y-82490000D01*
X164140000Y-103110000D02*
X164140000Y-82490000D01*
X170760000Y-82490000D02*
X170760000Y-103110000D01*
X170760000Y-103110000D02*
X164140000Y-103110000D01*
%TO.C,J6*%
X189260000Y-103880000D02*
X200920000Y-103880000D01*
X189260000Y-111420000D02*
X189260000Y-103880000D01*
X190980000Y-111420000D02*
X189260000Y-111420000D01*
X200920000Y-103880000D02*
X200920000Y-111420000D01*
X200920000Y-111420000D02*
X191580000Y-111420000D01*
X191720000Y-112030000D02*
X190840000Y-112030000D01*
X191280000Y-111420000D01*
X191720000Y-112030000D01*
G36*
X191720000Y-112030000D02*
G01*
X190840000Y-112030000D01*
X191280000Y-111420000D01*
X191720000Y-112030000D01*
G37*
%TO.C,L2*%
X113940000Y-55297936D02*
X113940000Y-56502064D01*
X116660000Y-55297936D02*
X116660000Y-56502064D01*
%TO.C,J8*%
X151760000Y-103880000D02*
X163420000Y-103880000D01*
X151760000Y-111420000D02*
X151760000Y-103880000D01*
X153480000Y-111420000D02*
X151760000Y-111420000D01*
X163420000Y-103880000D02*
X163420000Y-111420000D01*
X163420000Y-111420000D02*
X154080000Y-111420000D01*
X154220000Y-112030000D02*
X153340000Y-112030000D01*
X153780000Y-111420000D01*
X154220000Y-112030000D01*
G36*
X154220000Y-112030000D02*
G01*
X153340000Y-112030000D01*
X153780000Y-111420000D01*
X154220000Y-112030000D01*
G37*
%TO.C,J2*%
X107010000Y-44400000D02*
X107010000Y-42500000D01*
X107010000Y-48300000D02*
X107010000Y-46300000D01*
X116410000Y-42500000D02*
X107010000Y-42500000D01*
X116410000Y-44400000D02*
X116410000Y-42500000D01*
X116410000Y-48300000D02*
X116410000Y-46300000D01*
%TO.C,J4*%
X191610000Y-44400000D02*
X191610000Y-42500000D01*
X191610000Y-48300000D02*
X191610000Y-46300000D01*
X201010000Y-42500000D02*
X191610000Y-42500000D01*
X201010000Y-44400000D02*
X201010000Y-42500000D01*
X201010000Y-48300000D02*
X201010000Y-46300000D01*
%TO.C,TP2*%
X113250000Y-67700000D02*
G75*
G02*
X111350000Y-67700000I-950000J0D01*
G01*
X111350000Y-67700000D02*
G75*
G02*
X113250000Y-67700000I950000J0D01*
G01*
%TO.C,JP4*%
X193700000Y-76200000D02*
X193700000Y-73400000D01*
X194400000Y-72750000D02*
X195000000Y-72750000D01*
X195000000Y-76850000D02*
X194400000Y-76850000D01*
X195700000Y-73400000D02*
X195700000Y-76200000D01*
X195900000Y-76000000D02*
X196200000Y-75700000D01*
X195900000Y-76000000D02*
X196200000Y-76300000D01*
X196200000Y-76300000D02*
X196200000Y-75700000D01*
X193700000Y-73450000D02*
G75*
G02*
X194400000Y-72750000I700000J0D01*
G01*
X194400000Y-76850000D02*
G75*
G02*
X193700000Y-76150000I-1J699999D01*
G01*
X195000000Y-72750000D02*
G75*
G02*
X195700000Y-73450000I0J-700000D01*
G01*
X195700000Y-76150000D02*
G75*
G02*
X195000000Y-76850000I-699999J-1D01*
G01*
%TO.C,R23*%
X187762258Y-73077500D02*
X187287742Y-73077500D01*
X187762258Y-74122500D02*
X187287742Y-74122500D01*
%TO.C,C9*%
X114434420Y-52290000D02*
X114715580Y-52290000D01*
X114434420Y-53310000D02*
X114715580Y-53310000D01*
%TO.C,U1*%
X108440000Y-85240000D02*
X112560000Y-85240000D01*
X108440000Y-85335000D02*
X108440000Y-85240000D01*
X108440000Y-90360000D02*
X108440000Y-90265000D01*
X112560000Y-85240000D02*
X112560000Y-85335000D01*
X112560000Y-90265000D02*
X112560000Y-90360000D01*
X112560000Y-90360000D02*
X108440000Y-90360000D01*
X113340000Y-90600000D02*
X112860000Y-90600000D01*
X113100000Y-90270000D01*
X113340000Y-90600000D01*
G36*
X113340000Y-90600000D02*
G01*
X112860000Y-90600000D01*
X113100000Y-90270000D01*
X113340000Y-90600000D01*
G37*
%TO.C,R31*%
X119377500Y-65612258D02*
X119377500Y-65137742D01*
X120422500Y-65612258D02*
X120422500Y-65137742D01*
%TO.C,J17*%
X140360000Y-101380000D02*
X150760000Y-101380000D01*
X140360000Y-104400000D02*
X150760000Y-104400000D01*
X140360000Y-109300000D02*
X150760000Y-109300000D01*
X140360000Y-110800000D02*
X150760000Y-110800000D01*
X140360000Y-111420000D02*
X140360000Y-101380000D01*
X142720000Y-111420000D02*
X140360000Y-111420000D01*
X150760000Y-101380000D02*
X150760000Y-111420000D01*
X150760000Y-111420000D02*
X143320000Y-111420000D01*
X143460000Y-112030000D02*
X142580000Y-112030000D01*
X143020000Y-111420000D01*
X143460000Y-112030000D01*
G36*
X143460000Y-112030000D02*
G01*
X142580000Y-112030000D01*
X143020000Y-111420000D01*
X143460000Y-112030000D01*
G37*
%TO.C,R29*%
X125912258Y-76777500D02*
X125437742Y-76777500D01*
X125912258Y-77822500D02*
X125437742Y-77822500D01*
%TO.C,F1*%
X107190000Y-95976248D02*
X107190000Y-98748752D01*
X110610000Y-95976248D02*
X110610000Y-98748752D01*
%TO.C,C5*%
X120765000Y-71088748D02*
X120765000Y-71611252D01*
X122235000Y-71088748D02*
X122235000Y-71611252D01*
%TO.C,R30*%
X133577500Y-64512258D02*
X133577500Y-64037742D01*
X134622500Y-64512258D02*
X134622500Y-64037742D01*
%TO.C,J16*%
X129060000Y-101380000D02*
X139460000Y-101380000D01*
X129060000Y-104400000D02*
X139460000Y-104400000D01*
X129060000Y-109300000D02*
X139460000Y-109300000D01*
X129060000Y-110800000D02*
X139460000Y-110800000D01*
X129060000Y-111420000D02*
X129060000Y-101380000D01*
X131420000Y-111420000D02*
X129060000Y-111420000D01*
X139460000Y-101380000D02*
X139460000Y-111420000D01*
X139460000Y-111420000D02*
X132020000Y-111420000D01*
X132160000Y-112030000D02*
X131280000Y-112030000D01*
X131720000Y-111420000D01*
X132160000Y-112030000D01*
G36*
X132160000Y-112030000D02*
G01*
X131280000Y-112030000D01*
X131720000Y-111420000D01*
X132160000Y-112030000D01*
G37*
%TO.C,C4*%
X112990000Y-83334420D02*
X112990000Y-83615580D01*
X114010000Y-83334420D02*
X114010000Y-83615580D01*
%TO.C,Q2*%
X133002500Y-59440000D02*
X134522500Y-59440000D01*
X133002500Y-59490000D02*
X133002500Y-59440000D01*
X133002500Y-61390000D02*
X133002500Y-60610000D01*
X133002500Y-62560000D02*
X133002500Y-62510000D01*
X134522500Y-59440000D02*
X134522500Y-60440000D01*
X134522500Y-61560000D02*
X134522500Y-62560000D01*
X134522500Y-62560000D02*
X133002500Y-62560000D01*
X132702500Y-60950000D02*
X132222500Y-60950000D01*
X132462500Y-60620000D01*
X132702500Y-60950000D01*
G36*
X132702500Y-60950000D02*
G01*
X132222500Y-60950000D01*
X132462500Y-60620000D01*
X132702500Y-60950000D01*
G37*
%TO.C,R26*%
X192977500Y-63587742D02*
X192977500Y-64062258D01*
X194022500Y-63587742D02*
X194022500Y-64062258D01*
%TO.C,R19*%
X127927742Y-49577500D02*
X128402258Y-49577500D01*
X127927742Y-50622500D02*
X128402258Y-50622500D01*
%TO.C,JP3*%
X190600000Y-73400000D02*
X190600000Y-70600000D01*
X191300000Y-69950000D02*
X191900000Y-69950000D01*
X191900000Y-74050000D02*
X191300000Y-74050000D01*
X192600000Y-70600000D02*
X192600000Y-73400000D01*
X192800000Y-73200000D02*
X193100000Y-72900000D01*
X192800000Y-73200000D02*
X193100000Y-73500000D01*
X193100000Y-73500000D02*
X193100000Y-72900000D01*
X190600000Y-70650000D02*
G75*
G02*
X191300000Y-69950000I700000J0D01*
G01*
X191300000Y-74050000D02*
G75*
G02*
X190600000Y-73350000I-1J699999D01*
G01*
X191900000Y-69950000D02*
G75*
G02*
X192600000Y-70650000I0J-700000D01*
G01*
X192600000Y-73350000D02*
G75*
G02*
X191900000Y-74050000I-699999J-1D01*
G01*
%TO.C,R8*%
X125967500Y-55037742D02*
X125967500Y-55512258D01*
X127012500Y-55037742D02*
X127012500Y-55512258D01*
%TO.C,R4*%
X136937742Y-73477500D02*
X137412258Y-73477500D01*
X136937742Y-74522500D02*
X137412258Y-74522500D01*
%TO.C,J7*%
X176760000Y-103880000D02*
X188420000Y-103880000D01*
X176760000Y-111420000D02*
X176760000Y-103880000D01*
X178480000Y-111420000D02*
X176760000Y-111420000D01*
X188420000Y-103880000D02*
X188420000Y-111420000D01*
X188420000Y-111420000D02*
X179080000Y-111420000D01*
X179220000Y-112030000D02*
X178340000Y-112030000D01*
X178780000Y-111420000D01*
X179220000Y-112030000D01*
G36*
X179220000Y-112030000D02*
G01*
X178340000Y-112030000D01*
X178780000Y-111420000D01*
X179220000Y-112030000D01*
G37*
%TO.C,L1*%
X111140000Y-77297936D02*
X111140000Y-78502064D01*
X113860000Y-77297936D02*
X113860000Y-78502064D01*
%TO.C,R12*%
X161077500Y-72562258D02*
X161077500Y-72087742D01*
X162122500Y-72562258D02*
X162122500Y-72087742D01*
%TO.C,R34*%
X147512258Y-65877500D02*
X147037742Y-65877500D01*
X147512258Y-66922500D02*
X147037742Y-66922500D01*
%TO.C,C6*%
X138763748Y-65690000D02*
X140186252Y-65690000D01*
X138763748Y-67510000D02*
X140186252Y-67510000D01*
%TO.C,D3*%
X106850000Y-68590000D02*
X106850000Y-74100000D01*
X110150000Y-68590000D02*
X106850000Y-68590000D01*
X110150000Y-68590000D02*
X110150000Y-74100000D01*
%TO.C,Q7*%
X187702500Y-63490000D02*
X189222500Y-63490000D01*
X187702500Y-64490000D02*
X187702500Y-63490000D01*
X187702500Y-66610000D02*
X187702500Y-65610000D01*
X189222500Y-63490000D02*
X189222500Y-63540000D01*
X189222500Y-64660000D02*
X189222500Y-65440000D01*
X189222500Y-66560000D02*
X189222500Y-66610000D01*
X189222500Y-66610000D02*
X187702500Y-66610000D01*
X189762500Y-65430000D02*
X189522500Y-65100000D01*
X190002500Y-65100000D01*
X189762500Y-65430000D01*
G36*
X189762500Y-65430000D02*
G01*
X189522500Y-65100000D01*
X190002500Y-65100000D01*
X189762500Y-65430000D01*
G37*
%TO.C,F3*%
X181940000Y-82490000D02*
X188560000Y-82490000D01*
X181940000Y-103110000D02*
X181940000Y-82490000D01*
X188560000Y-82490000D02*
X188560000Y-103110000D01*
X188560000Y-103110000D02*
X181940000Y-103110000D01*
%TO.C,Q4*%
X117940000Y-88090000D02*
X122560000Y-88090000D01*
X117940000Y-98310000D02*
X117940000Y-88090000D01*
X121180000Y-88090000D02*
X121180000Y-98310000D01*
X122560000Y-88090000D02*
X122560000Y-98310000D01*
X122560000Y-91350000D02*
X121180000Y-91350000D01*
X122560000Y-95050000D02*
X121180000Y-95050000D01*
X122560000Y-98310000D02*
X117940000Y-98310000D01*
%TO.C,J15*%
X174170000Y-51780000D02*
X174170000Y-44760000D01*
X174170000Y-60860000D02*
X174170000Y-55060000D01*
X190430000Y-51780000D02*
X190430000Y-44760000D01*
X190430000Y-60860000D02*
X174170000Y-60860000D01*
X190430000Y-60860000D02*
X190430000Y-55060000D01*
X190660000Y-57610000D02*
X190660000Y-55810000D01*
%TO.C,U2*%
X124990000Y-70100000D02*
X124990000Y-73860000D01*
X124990000Y-73860000D02*
X126250000Y-73860000D01*
X131810000Y-70100000D02*
X131810000Y-73860000D01*
X131810000Y-73860000D02*
X130550000Y-73860000D01*
X132040000Y-69060000D02*
X131710000Y-68820000D01*
X132040000Y-68580000D01*
X132040000Y-69060000D01*
G36*
X132040000Y-69060000D02*
G01*
X131710000Y-68820000D01*
X132040000Y-68580000D01*
X132040000Y-69060000D01*
G37*
%TO.C,R33*%
X114777500Y-65562258D02*
X114777500Y-65087742D01*
X115822500Y-65562258D02*
X115822500Y-65087742D01*
%TO.C,C17*%
X186065580Y-65990000D02*
X185784420Y-65990000D01*
X186065580Y-67010000D02*
X185784420Y-67010000D01*
%TO.C,JP1*%
X193657500Y-81200000D02*
X193657500Y-78400000D01*
X194357500Y-77750000D02*
X194957500Y-77750000D01*
X194957500Y-81850000D02*
X194357500Y-81850000D01*
X195657500Y-78400000D02*
X195657500Y-81200000D01*
X195857500Y-81000000D02*
X196157500Y-80700000D01*
X195857500Y-81000000D02*
X196157500Y-81300000D01*
X196157500Y-81300000D02*
X196157500Y-80700000D01*
X193657500Y-78450000D02*
G75*
G02*
X194357500Y-77750000I700000J0D01*
G01*
X194357500Y-81850000D02*
G75*
G02*
X193657500Y-81150000I-1J699999D01*
G01*
X194957500Y-77750000D02*
G75*
G02*
X195657500Y-78450000I0J-700000D01*
G01*
X195657500Y-81150000D02*
G75*
G02*
X194957500Y-81850000I-699999J-1D01*
G01*
%TO.C,J9*%
X164260000Y-103880000D02*
X175920000Y-103880000D01*
X164260000Y-111420000D02*
X164260000Y-103880000D01*
X165980000Y-111420000D02*
X164260000Y-111420000D01*
X175920000Y-103880000D02*
X175920000Y-111420000D01*
X175920000Y-111420000D02*
X166580000Y-111420000D01*
X166720000Y-112030000D02*
X165840000Y-112030000D01*
X166280000Y-111420000D01*
X166720000Y-112030000D01*
G36*
X166720000Y-112030000D02*
G01*
X165840000Y-112030000D01*
X166280000Y-111420000D01*
X166720000Y-112030000D01*
G37*
%TO.C,R27*%
X192977500Y-66687742D02*
X192977500Y-67162258D01*
X194022500Y-66687742D02*
X194022500Y-67162258D01*
%TO.C,U12*%
X152227500Y-77590000D02*
X154047500Y-77590000D01*
X152227500Y-77640000D02*
X152227500Y-77590000D01*
X152227500Y-80710000D02*
X152227500Y-80660000D01*
X154047500Y-77590000D02*
X154047500Y-77640000D01*
X154047500Y-80660000D02*
X154047500Y-80710000D01*
X154047500Y-80710000D02*
X152227500Y-80710000D01*
X151687500Y-77640000D02*
X151447500Y-77310000D01*
X151927500Y-77310000D01*
X151687500Y-77640000D01*
G36*
X151687500Y-77640000D02*
G01*
X151447500Y-77310000D01*
X151927500Y-77310000D01*
X151687500Y-77640000D01*
G37*
%TO.C,D10*%
X122960000Y-53800000D02*
X118950000Y-53800000D01*
X122960000Y-55800000D02*
X118950000Y-55800000D01*
X122960000Y-55800000D02*
X122960000Y-53800000D01*
%TO.C,Q3*%
X118790000Y-58702500D02*
X119790000Y-58702500D01*
X118790000Y-60222500D02*
X118790000Y-58702500D01*
X118840000Y-60222500D02*
X118790000Y-60222500D01*
X120740000Y-60222500D02*
X119960000Y-60222500D01*
X120910000Y-58702500D02*
X121910000Y-58702500D01*
X121910000Y-58702500D02*
X121910000Y-60222500D01*
X121910000Y-60222500D02*
X121860000Y-60222500D01*
X120300000Y-61002500D02*
X119970000Y-60762500D01*
X120300000Y-60522500D01*
X120300000Y-61002500D01*
G36*
X120300000Y-61002500D02*
G01*
X119970000Y-60762500D01*
X120300000Y-60522500D01*
X120300000Y-61002500D01*
G37*
%TO.C,C20*%
X106749759Y-60661000D02*
X107379759Y-60661000D01*
X107064759Y-60346000D02*
X107064759Y-60976000D01*
X110250000Y-59270000D02*
X110250000Y-65730000D01*
X110290000Y-59270000D02*
X110290000Y-65730000D01*
X110330000Y-59271000D02*
X110330000Y-65729000D01*
X110370000Y-59272000D02*
X110370000Y-65728000D01*
X110410000Y-59274000D02*
X110410000Y-65726000D01*
X110450000Y-59276000D02*
X110450000Y-65724000D01*
X110490000Y-59279000D02*
X110490000Y-61460000D01*
X110490000Y-63540000D02*
X110490000Y-65721000D01*
X110530000Y-59282000D02*
X110530000Y-61460000D01*
X110530000Y-63540000D02*
X110530000Y-65718000D01*
X110570000Y-59286000D02*
X110570000Y-61460000D01*
X110570000Y-63540000D02*
X110570000Y-65714000D01*
X110610000Y-59290000D02*
X110610000Y-61460000D01*
X110610000Y-63540000D02*
X110610000Y-65710000D01*
X110650000Y-59295000D02*
X110650000Y-61460000D01*
X110650000Y-63540000D02*
X110650000Y-65705000D01*
X110690000Y-59300000D02*
X110690000Y-61460000D01*
X110690000Y-63540000D02*
X110690000Y-65700000D01*
X110730000Y-59305000D02*
X110730000Y-61460000D01*
X110730000Y-63540000D02*
X110730000Y-65695000D01*
X110770000Y-59312000D02*
X110770000Y-61460000D01*
X110770000Y-63540000D02*
X110770000Y-65688000D01*
X110810000Y-59318000D02*
X110810000Y-61460000D01*
X110810000Y-63540000D02*
X110810000Y-65682000D01*
X110850000Y-59326000D02*
X110850000Y-61460000D01*
X110850000Y-63540000D02*
X110850000Y-65674000D01*
X110890000Y-59333000D02*
X110890000Y-61460000D01*
X110890000Y-63540000D02*
X110890000Y-65667000D01*
X110930000Y-59341000D02*
X110930000Y-61460000D01*
X110930000Y-63540000D02*
X110930000Y-65659000D01*
X110970000Y-59350000D02*
X110970000Y-61460000D01*
X110970000Y-63540000D02*
X110970000Y-65650000D01*
X111010000Y-59360000D02*
X111010000Y-61460000D01*
X111010000Y-63540000D02*
X111010000Y-65640000D01*
X111050000Y-59369000D02*
X111050000Y-61460000D01*
X111050000Y-63540000D02*
X111050000Y-65631000D01*
X111090000Y-59380000D02*
X111090000Y-61460000D01*
X111090000Y-63540000D02*
X111090000Y-65620000D01*
X111130000Y-59391000D02*
X111130000Y-61460000D01*
X111130000Y-63540000D02*
X111130000Y-65609000D01*
X111170000Y-59402000D02*
X111170000Y-61460000D01*
X111170000Y-63540000D02*
X111170000Y-65598000D01*
X111210000Y-59414000D02*
X111210000Y-61460000D01*
X111210000Y-63540000D02*
X111210000Y-65586000D01*
X111250000Y-59427000D02*
X111250000Y-61460000D01*
X111250000Y-63540000D02*
X111250000Y-65573000D01*
X111290000Y-59440000D02*
X111290000Y-61460000D01*
X111290000Y-63540000D02*
X111290000Y-65560000D01*
X111330000Y-59453000D02*
X111330000Y-61460000D01*
X111330000Y-63540000D02*
X111330000Y-65547000D01*
X111370000Y-59468000D02*
X111370000Y-61460000D01*
X111370000Y-63540000D02*
X111370000Y-65532000D01*
X111410000Y-59483000D02*
X111410000Y-61460000D01*
X111410000Y-63540000D02*
X111410000Y-65517000D01*
X111450000Y-59498000D02*
X111450000Y-61460000D01*
X111450000Y-63540000D02*
X111450000Y-65502000D01*
X111490000Y-59514000D02*
X111490000Y-61460000D01*
X111490000Y-63540000D02*
X111490000Y-65486000D01*
X111530000Y-59531000D02*
X111530000Y-61460000D01*
X111530000Y-63540000D02*
X111530000Y-65469000D01*
X111570000Y-59548000D02*
X111570000Y-61460000D01*
X111570000Y-63540000D02*
X111570000Y-65452000D01*
X111610000Y-59566000D02*
X111610000Y-61460000D01*
X111610000Y-63540000D02*
X111610000Y-65434000D01*
X111650000Y-59585000D02*
X111650000Y-61460000D01*
X111650000Y-63540000D02*
X111650000Y-65415000D01*
X111690000Y-59604000D02*
X111690000Y-61460000D01*
X111690000Y-63540000D02*
X111690000Y-65396000D01*
X111730000Y-59624000D02*
X111730000Y-61460000D01*
X111730000Y-63540000D02*
X111730000Y-65376000D01*
X111770000Y-59645000D02*
X111770000Y-61460000D01*
X111770000Y-63540000D02*
X111770000Y-65355000D01*
X111810000Y-59666000D02*
X111810000Y-61460000D01*
X111810000Y-63540000D02*
X111810000Y-65334000D01*
X111850000Y-59688000D02*
X111850000Y-61460000D01*
X111850000Y-63540000D02*
X111850000Y-65312000D01*
X111890000Y-59711000D02*
X111890000Y-61460000D01*
X111890000Y-63540000D02*
X111890000Y-65289000D01*
X111930000Y-59735000D02*
X111930000Y-61460000D01*
X111930000Y-63540000D02*
X111930000Y-65265000D01*
X111970000Y-59759000D02*
X111970000Y-61460000D01*
X111970000Y-63540000D02*
X111970000Y-65241000D01*
X112010000Y-59784000D02*
X112010000Y-61460000D01*
X112010000Y-63540000D02*
X112010000Y-65216000D01*
X112050000Y-59810000D02*
X112050000Y-61460000D01*
X112050000Y-63540000D02*
X112050000Y-65190000D01*
X112090000Y-59837000D02*
X112090000Y-61460000D01*
X112090000Y-63540000D02*
X112090000Y-65163000D01*
X112130000Y-59864000D02*
X112130000Y-61460000D01*
X112130000Y-63540000D02*
X112130000Y-65136000D01*
X112170000Y-59893000D02*
X112170000Y-61460000D01*
X112170000Y-63540000D02*
X112170000Y-65107000D01*
X112210000Y-59923000D02*
X112210000Y-61460000D01*
X112210000Y-63540000D02*
X112210000Y-65077000D01*
X112250000Y-59953000D02*
X112250000Y-61460000D01*
X112250000Y-63540000D02*
X112250000Y-65047000D01*
X112290000Y-59984000D02*
X112290000Y-61460000D01*
X112290000Y-63540000D02*
X112290000Y-65016000D01*
X112330000Y-60017000D02*
X112330000Y-61460000D01*
X112330000Y-63540000D02*
X112330000Y-64983000D01*
X112370000Y-60050000D02*
X112370000Y-61460000D01*
X112370000Y-63540000D02*
X112370000Y-64950000D01*
X112410000Y-60085000D02*
X112410000Y-61460000D01*
X112410000Y-63540000D02*
X112410000Y-64915000D01*
X112450000Y-60121000D02*
X112450000Y-61460000D01*
X112450000Y-63540000D02*
X112450000Y-64879000D01*
X112490000Y-60158000D02*
X112490000Y-61460000D01*
X112490000Y-63540000D02*
X112490000Y-64842000D01*
X112530000Y-60196000D02*
X112530000Y-61460000D01*
X112530000Y-63540000D02*
X112530000Y-64804000D01*
X112570000Y-60236000D02*
X112570000Y-64764000D01*
X112610000Y-60277000D02*
X112610000Y-64723000D01*
X112650000Y-60319000D02*
X112650000Y-64681000D01*
X112690000Y-60363000D02*
X112690000Y-64637000D01*
X112730000Y-60409000D02*
X112730000Y-64591000D01*
X112770000Y-60456000D02*
X112770000Y-64544000D01*
X112810000Y-60505000D02*
X112810000Y-64495000D01*
X112850000Y-60557000D02*
X112850000Y-64443000D01*
X112890000Y-60610000D02*
X112890000Y-64390000D01*
X112930000Y-60666000D02*
X112930000Y-64334000D01*
X112970000Y-60725000D02*
X112970000Y-64275000D01*
X113010000Y-60786000D02*
X113010000Y-64214000D01*
X113050000Y-60851000D02*
X113050000Y-64149000D01*
X113090000Y-60919000D02*
X113090000Y-64081000D01*
X113130000Y-60991000D02*
X113130000Y-64009000D01*
X113170000Y-61068000D02*
X113170000Y-63932000D01*
X113210000Y-61150000D02*
X113210000Y-63850000D01*
X113250000Y-61239000D02*
X113250000Y-63761000D01*
X113290000Y-61335000D02*
X113290000Y-63665000D01*
X113330000Y-61442000D02*
X113330000Y-63558000D01*
X113370000Y-61561000D02*
X113370000Y-63439000D01*
X113410000Y-61699000D02*
X113410000Y-63301000D01*
X113450000Y-61867000D02*
X113450000Y-63133000D01*
X113490000Y-62098000D02*
X113490000Y-62902000D01*
X113520000Y-62500000D02*
G75*
G02*
X106980000Y-62500000I-3270000J0D01*
G01*
X106980000Y-62500000D02*
G75*
G02*
X113520000Y-62500000I3270000J0D01*
G01*
%TO.C,J3*%
X132395000Y-69000000D02*
X133775000Y-69000000D01*
X132395000Y-70380000D02*
X132395000Y-69000000D01*
X132395000Y-71650000D02*
X132395000Y-79380000D01*
X132395000Y-71650000D02*
X135155000Y-71650000D01*
X132395000Y-79380000D02*
X135155000Y-79380000D01*
X135155000Y-71650000D02*
X135155000Y-79380000D01*
%TO.C,R32*%
X117677500Y-65562258D02*
X117677500Y-65087742D01*
X118722500Y-65562258D02*
X118722500Y-65087742D01*
%TO.C,Q9*%
X113790000Y-59477500D02*
X113840000Y-59477500D01*
X113790000Y-60997500D02*
X113790000Y-59477500D01*
X114790000Y-60997500D02*
X113790000Y-60997500D01*
X114960000Y-59477500D02*
X115740000Y-59477500D01*
X116860000Y-59477500D02*
X116910000Y-59477500D01*
X116910000Y-59477500D02*
X116910000Y-60997500D01*
X116910000Y-60997500D02*
X115910000Y-60997500D01*
X115730000Y-58937500D02*
X115400000Y-59177500D01*
X115400000Y-58697500D01*
X115730000Y-58937500D01*
G36*
X115730000Y-58937500D02*
G01*
X115400000Y-59177500D01*
X115400000Y-58697500D01*
X115730000Y-58937500D01*
G37*
%TO.C,R7*%
X200777500Y-54003723D02*
X200777500Y-54478239D01*
X201822500Y-54003723D02*
X201822500Y-54478239D01*
%TO.C,D1*%
X111550000Y-100760000D02*
X111550000Y-94950000D01*
X111550000Y-100760000D02*
X115850000Y-100760000D01*
X115850000Y-100760000D02*
X115850000Y-94950000D01*
%TO.C,TP3*%
X144150000Y-66500000D02*
G75*
G02*
X142250000Y-66500000I-950000J0D01*
G01*
X142250000Y-66500000D02*
G75*
G02*
X144150000Y-66500000I950000J0D01*
G01*
%TO.C,R25*%
X114737742Y-92077500D02*
X115212258Y-92077500D01*
X114737742Y-93122500D02*
X115212258Y-93122500D01*
%TO.C,D2*%
X115850000Y-76010000D02*
X115850000Y-70500000D01*
X115850000Y-76010000D02*
X119150000Y-76010000D01*
X119150000Y-76010000D02*
X119150000Y-70500000D01*
%TO.C,R20*%
X187862258Y-78577500D02*
X187387742Y-78577500D01*
X187862258Y-79622500D02*
X187387742Y-79622500D01*
%TO.C,U7*%
X193240000Y-53040000D02*
X193715000Y-53040000D01*
X193240000Y-53515000D02*
X193240000Y-53040000D01*
X193240000Y-57260000D02*
X193240000Y-56785000D01*
X193715000Y-57260000D02*
X193240000Y-57260000D01*
X196985000Y-53040000D02*
X197460000Y-53040000D01*
X197460000Y-53040000D02*
X197460000Y-53515000D01*
X197460000Y-56785000D02*
X197460000Y-57260000D01*
X197460000Y-57260000D02*
X196985000Y-57260000D01*
X196600000Y-52540000D02*
X196360000Y-52210000D01*
X196840000Y-52210000D01*
X196600000Y-52540000D01*
G36*
X196600000Y-52540000D02*
G01*
X196360000Y-52210000D01*
X196840000Y-52210000D01*
X196600000Y-52540000D01*
G37*
%TO.C,R10*%
X128867500Y-58087742D02*
X128867500Y-58562258D01*
X129912500Y-58087742D02*
X129912500Y-58562258D01*
%TO.C,J1*%
X117660000Y-100280000D02*
X128060000Y-100280000D01*
X117660000Y-102400000D02*
X128060000Y-102400000D01*
X117660000Y-108600000D02*
X128060000Y-108600000D01*
X117660000Y-111100000D02*
X128060000Y-111100000D01*
X117660000Y-111720000D02*
X117660000Y-100280000D01*
X120020000Y-111720000D02*
X117660000Y-111720000D01*
X128060000Y-100280000D02*
X128060000Y-111720000D01*
X128060000Y-111720000D02*
X120620000Y-111720000D01*
X120760000Y-112330000D02*
X119880000Y-112330000D01*
X120320000Y-111720000D01*
X120760000Y-112330000D01*
G36*
X120760000Y-112330000D02*
G01*
X119880000Y-112330000D01*
X120320000Y-111720000D01*
X120760000Y-112330000D01*
G37*
%TO.C,SW1*%
X131580000Y-44520000D02*
X131580000Y-44550000D01*
X131580000Y-49050000D02*
X131580000Y-46450000D01*
X131580000Y-50980000D02*
X131580000Y-50950000D01*
X138040000Y-44520000D02*
X131580000Y-44520000D01*
X138040000Y-44520000D02*
X138040000Y-44550000D01*
X138040000Y-49050000D02*
X138040000Y-46450000D01*
X138040000Y-50950000D02*
X138040000Y-50980000D01*
X138040000Y-50980000D02*
X131580000Y-50980000D01*
%TO.C,U8*%
X132030000Y-52840000D02*
X136150000Y-52840000D01*
X132030000Y-52935000D02*
X132030000Y-52840000D01*
X132030000Y-57960000D02*
X132030000Y-57865000D01*
X136150000Y-52840000D02*
X136150000Y-52935000D01*
X136150000Y-57865000D02*
X136150000Y-57960000D01*
X136150000Y-57960000D02*
X132030000Y-57960000D01*
X136930000Y-58200000D02*
X136450000Y-58200000D01*
X136690000Y-57870000D01*
X136930000Y-58200000D01*
G36*
X136930000Y-58200000D02*
G01*
X136450000Y-58200000D01*
X136690000Y-57870000D01*
X136930000Y-58200000D01*
G37*
%TO.C,D6*%
X136400000Y-76235000D02*
X138685000Y-76235000D01*
X138685000Y-74765000D02*
X136400000Y-74765000D01*
X138685000Y-76235000D02*
X138685000Y-74765000D01*
%TO.C,R9*%
X125967500Y-58562258D02*
X125967500Y-58087742D01*
X127012500Y-58562258D02*
X127012500Y-58087742D01*
%TO.C,J13*%
X117475000Y-44662500D02*
X123005000Y-44662500D01*
X117475000Y-52202500D02*
X117475000Y-44662500D01*
X123605000Y-44662500D02*
X125325000Y-44662500D01*
X125325000Y-44662500D02*
X125325000Y-52202500D01*
X125325000Y-52202500D02*
X117475000Y-52202500D01*
X123305000Y-44662500D02*
X122865000Y-44052500D01*
X123745000Y-44052500D01*
X123305000Y-44662500D01*
G36*
X123305000Y-44662500D02*
G01*
X122865000Y-44052500D01*
X123745000Y-44052500D01*
X123305000Y-44662500D01*
G37*
%TO.C,F4*%
X156940000Y-82490000D02*
X163560000Y-82490000D01*
X156940000Y-103110000D02*
X156940000Y-82490000D01*
X163560000Y-82490000D02*
X163560000Y-103110000D01*
X163560000Y-103110000D02*
X156940000Y-103110000D01*
%TO.C,C14*%
X191165000Y-58288748D02*
X191165000Y-58811252D01*
X192635000Y-58288748D02*
X192635000Y-58811252D01*
%TO.C,R28*%
X175362258Y-73577500D02*
X174887742Y-73577500D01*
X175362258Y-74622500D02*
X174887742Y-74622500D01*
%TO.C,FB1*%
X164437122Y-47540000D02*
X163637878Y-47540000D01*
X164437122Y-48660000D02*
X163637878Y-48660000D01*
%TO.C,U11*%
X164840000Y-70605000D02*
X168960000Y-70605000D01*
X164840000Y-70670000D02*
X164840000Y-70605000D01*
X164840000Y-79475000D02*
X164840000Y-79410000D01*
X168960000Y-70605000D02*
X168960000Y-70670000D01*
X168960000Y-79410000D02*
X168960000Y-79475000D01*
X168960000Y-79475000D02*
X164840000Y-79475000D01*
X164300000Y-70670000D02*
X164060000Y-70340000D01*
X164540000Y-70340000D01*
X164300000Y-70670000D01*
G36*
X164300000Y-70670000D02*
G01*
X164060000Y-70340000D01*
X164540000Y-70340000D01*
X164300000Y-70670000D01*
G37*
%TO.C,DZ1*%
X124160000Y-77500000D02*
X120150000Y-77500000D01*
X124160000Y-79500000D02*
X120150000Y-79500000D01*
X124160000Y-79500000D02*
X124160000Y-77500000D01*
%TO.C,R15*%
X170237742Y-57277500D02*
X170712258Y-57277500D01*
X170237742Y-58322500D02*
X170712258Y-58322500D01*
%TO.C,U9*%
X168030000Y-47350000D02*
X168480000Y-47350000D01*
X168030000Y-47800000D02*
X168030000Y-47350000D01*
X168030000Y-51570000D02*
X168030000Y-51120000D01*
X168480000Y-51570000D02*
X168030000Y-51570000D01*
X171800000Y-47350000D02*
X172250000Y-47350000D01*
X172250000Y-47350000D02*
X172250000Y-47800000D01*
X172250000Y-51120000D02*
X172250000Y-51570000D01*
X172250000Y-51570000D02*
X171800000Y-51570000D01*
X171390000Y-46820000D02*
X171150000Y-46490000D01*
X171630000Y-46490000D01*
X171390000Y-46820000D01*
G36*
X171390000Y-46820000D02*
G01*
X171150000Y-46490000D01*
X171630000Y-46490000D01*
X171390000Y-46820000D01*
G37*
%TO.C,Q8*%
X173877500Y-69840000D02*
X175397500Y-69840000D01*
X173877500Y-70840000D02*
X173877500Y-69840000D01*
X173877500Y-72960000D02*
X173877500Y-71960000D01*
X175397500Y-69840000D02*
X175397500Y-69890000D01*
X175397500Y-71010000D02*
X175397500Y-71790000D01*
X175397500Y-72910000D02*
X175397500Y-72960000D01*
X175397500Y-72960000D02*
X173877500Y-72960000D01*
X175937500Y-71780000D02*
X175697500Y-71450000D01*
X176177500Y-71450000D01*
X175937500Y-71780000D01*
G36*
X175937500Y-71780000D02*
G01*
X175697500Y-71450000D01*
X176177500Y-71450000D01*
X175937500Y-71780000D01*
G37*
%TO.C,C3*%
X109990000Y-83415580D02*
X109990000Y-83134420D01*
X111010000Y-83415580D02*
X111010000Y-83134420D01*
%TO.C,C18*%
X149565580Y-76690000D02*
X149284420Y-76690000D01*
X149565580Y-77710000D02*
X149284420Y-77710000D01*
%TO.C,F2*%
X189140000Y-82490000D02*
X195760000Y-82490000D01*
X189140000Y-103110000D02*
X189140000Y-82490000D01*
X195760000Y-82490000D02*
X195760000Y-103110000D01*
X195760000Y-103110000D02*
X189140000Y-103110000D01*
%TO.C,D4*%
X140790000Y-70450000D02*
X140790000Y-73750000D01*
X140790000Y-70450000D02*
X146300000Y-70450000D01*
X140790000Y-73750000D02*
X146300000Y-73750000D01*
%TO.C,R2*%
X106877500Y-83462258D02*
X106877500Y-82987742D01*
X107922500Y-83462258D02*
X107922500Y-82987742D01*
%TD*%
M02*
