%TF.GenerationSoftware,KiCad,Pcbnew,9.0.8*%
%TF.CreationDate,2026-03-21T06:29:11-06:00*%
%TF.ProjectId,afterglo-controller,61667465-7267-46c6-9f2d-636f6e74726f,rev?*%
%TF.SameCoordinates,Original*%
%TF.FileFunction,Paste,Top*%
%TF.FilePolarity,Positive*%
%FSLAX46Y46*%
G04 Gerber Fmt 4.6, Leading zero omitted, Abs format (unit mm)*
G04 Created by KiCad (PCBNEW 9.0.8) date 2026-03-21 06:29:11*
%MOMM*%
%LPD*%
G01*
G04 APERTURE LIST*
G04 Aperture macros list*
%AMRoundRect*
0 Rectangle with rounded corners*
0 $1 Rounding radius*
0 $2 $3 $4 $5 $6 $7 $8 $9 X,Y pos of 4 corners*
0 Add a 4 corners polygon primitive as box body*
4,1,4,$2,$3,$4,$5,$6,$7,$8,$9,$2,$3,0*
0 Add four circle primitives for the rounded corners*
1,1,$1+$1,$2,$3*
1,1,$1+$1,$4,$5*
1,1,$1+$1,$6,$7*
1,1,$1+$1,$8,$9*
0 Add four rect primitives between the rounded corners*
20,1,$1+$1,$2,$3,$4,$5,0*
20,1,$1+$1,$4,$5,$6,$7,0*
20,1,$1+$1,$6,$7,$8,$9,0*
20,1,$1+$1,$8,$9,$2,$3,0*%
G04 Aperture macros list end*
%ADD10RoundRect,0.225000X0.225000X0.250000X-0.225000X0.250000X-0.225000X-0.250000X0.225000X-0.250000X0*%
%ADD11RoundRect,0.225000X-0.250000X0.225000X-0.250000X-0.225000X0.250000X-0.225000X0.250000X0.225000X0*%
%ADD12RoundRect,0.200000X-0.200000X-0.275000X0.200000X-0.275000X0.200000X0.275000X-0.200000X0.275000X0*%
%ADD13R,1.500000X0.900000*%
%ADD14R,0.900000X1.500000*%
%ADD15R,1.050000X1.050000*%
%ADD16RoundRect,0.225000X-0.225000X-0.250000X0.225000X-0.250000X0.225000X0.250000X-0.225000X0.250000X0*%
%ADD17RoundRect,0.225000X0.250000X-0.225000X0.250000X0.225000X-0.250000X0.225000X-0.250000X-0.225000X0*%
%ADD18RoundRect,0.200000X0.275000X-0.200000X0.275000X0.200000X-0.275000X0.200000X-0.275000X-0.200000X0*%
%ADD19RoundRect,0.200000X-0.275000X0.200000X-0.275000X-0.200000X0.275000X-0.200000X0.275000X0.200000X0*%
%ADD20RoundRect,0.200000X0.200000X0.275000X-0.200000X0.275000X-0.200000X-0.275000X0.200000X-0.275000X0*%
%ADD21RoundRect,0.218750X0.218750X0.256250X-0.218750X0.256250X-0.218750X-0.256250X0.218750X-0.256250X0*%
%ADD22RoundRect,0.250000X0.650000X-0.325000X0.650000X0.325000X-0.650000X0.325000X-0.650000X-0.325000X0*%
%ADD23RoundRect,0.150000X0.150000X-0.587500X0.150000X0.587500X-0.150000X0.587500X-0.150000X-0.587500X0*%
%ADD24RoundRect,0.150000X0.587500X0.150000X-0.587500X0.150000X-0.587500X-0.150000X0.587500X-0.150000X0*%
%ADD25RoundRect,0.250000X-1.075000X0.375000X-1.075000X-0.375000X1.075000X-0.375000X1.075000X0.375000X0*%
%ADD26R,0.600000X1.450000*%
%ADD27R,0.300000X1.450000*%
%ADD28RoundRect,0.150000X0.825000X0.150000X-0.825000X0.150000X-0.825000X-0.150000X0.825000X-0.150000X0*%
%ADD29RoundRect,0.250000X-1.450000X0.312500X-1.450000X-0.312500X1.450000X-0.312500X1.450000X0.312500X0*%
%ADD30RoundRect,0.250000X-0.475000X0.250000X-0.475000X-0.250000X0.475000X-0.250000X0.475000X0.250000X0*%
%ADD31RoundRect,0.150000X-0.587500X-0.150000X0.587500X-0.150000X0.587500X0.150000X-0.587500X0.150000X0*%
%ADD32RoundRect,0.250000X-0.325000X-0.650000X0.325000X-0.650000X0.325000X0.650000X-0.325000X0.650000X0*%
%ADD33RoundRect,0.250000X-0.650000X1.000000X-0.650000X-1.000000X0.650000X-1.000000X0.650000X1.000000X0*%
%ADD34RoundRect,0.375000X-0.375000X0.625000X-0.375000X-0.625000X0.375000X-0.625000X0.375000X0.625000X0*%
%ADD35RoundRect,0.500000X-1.400000X0.500000X-1.400000X-0.500000X1.400000X-0.500000X1.400000X0.500000X0*%
%ADD36RoundRect,0.150000X-0.512500X-0.150000X0.512500X-0.150000X0.512500X0.150000X-0.512500X0.150000X0*%
%ADD37RoundRect,0.225000X0.225000X0.375000X-0.225000X0.375000X-0.225000X-0.375000X0.225000X-0.375000X0*%
%ADD38RoundRect,0.150000X-0.150000X0.587500X-0.150000X-0.587500X0.150000X-0.587500X0.150000X0.587500X0*%
%ADD39RoundRect,0.250000X0.900000X-1.000000X0.900000X1.000000X-0.900000X1.000000X-0.900000X-1.000000X0*%
%ADD40RoundRect,0.250000X0.650000X-1.000000X0.650000X1.000000X-0.650000X1.000000X-0.650000X-1.000000X0*%
%ADD41RoundRect,0.250000X-0.275000X0.275000X-0.275000X-0.275000X0.275000X-0.275000X0.275000X0.275000X0*%
%ADD42RoundRect,0.062500X-0.062500X0.350000X-0.062500X-0.350000X0.062500X-0.350000X0.062500X0.350000X0*%
%ADD43RoundRect,0.062500X-0.350000X0.062500X-0.350000X-0.062500X0.350000X-0.062500X0.350000X0.062500X0*%
%ADD44RoundRect,0.250000X0.525000X0.400000X-0.525000X0.400000X-0.525000X-0.400000X0.525000X-0.400000X0*%
%ADD45RoundRect,0.218750X0.218750X0.381250X-0.218750X0.381250X-0.218750X-0.381250X0.218750X-0.381250X0*%
%ADD46RoundRect,0.150000X-0.825000X-0.150000X0.825000X-0.150000X0.825000X0.150000X-0.825000X0.150000X0*%
%ADD47RoundRect,0.250000X-0.285000X0.285000X-0.285000X-0.285000X0.285000X-0.285000X0.285000X0.285000X0*%
%ADD48RoundRect,0.075000X-0.075000X0.350000X-0.075000X-0.350000X0.075000X-0.350000X0.075000X0.350000X0*%
%ADD49RoundRect,0.075000X-0.350000X0.075000X-0.350000X-0.075000X0.350000X-0.075000X0.350000X0.075000X0*%
%ADD50RoundRect,0.250000X-1.000000X-0.650000X1.000000X-0.650000X1.000000X0.650000X-1.000000X0.650000X0*%
G04 APERTURE END LIST*
D10*
%TO.C,C13*%
X180350000Y-63900000D03*
X178800000Y-63900000D03*
%TD*%
D11*
%TO.C,C12*%
X128290000Y-53500000D03*
X128290000Y-55050000D03*
%TD*%
D12*
%TO.C,R14*%
X164050000Y-46500000D03*
X165700000Y-46500000D03*
%TD*%
D13*
%TO.C,U5*%
X141000000Y-45360000D03*
X141000000Y-46630000D03*
X141000000Y-47900000D03*
X141000000Y-49170000D03*
X141000000Y-50440000D03*
X141000000Y-51710000D03*
X141000000Y-52980000D03*
X141000000Y-54250000D03*
X141000000Y-55520000D03*
X141000000Y-56790000D03*
X141000000Y-58060000D03*
X141000000Y-59330000D03*
X141000000Y-60600000D03*
X141000000Y-61870000D03*
D14*
X144040000Y-63120000D03*
X145310000Y-63120000D03*
X146580000Y-63120000D03*
X147850000Y-63120000D03*
X149120000Y-63120000D03*
X150390000Y-63120000D03*
X151660000Y-63120000D03*
X152930000Y-63120000D03*
X154200000Y-63120000D03*
X155470000Y-63120000D03*
D13*
X158500000Y-61870000D03*
X158500000Y-60600000D03*
X158500000Y-59330000D03*
X158500000Y-58060000D03*
X158500000Y-56790000D03*
X158500000Y-55520000D03*
X158500000Y-54250000D03*
X158500000Y-52980000D03*
X158500000Y-51710000D03*
X158500000Y-50440000D03*
X158500000Y-49170000D03*
X158500000Y-47900000D03*
X158500000Y-46630000D03*
X158500000Y-45360000D03*
D15*
X147545000Y-51175000D03*
X147545000Y-52700000D03*
X147545000Y-54225000D03*
X149070000Y-51175000D03*
X149070000Y-52700000D03*
X149070000Y-54225000D03*
X150595000Y-51175000D03*
X150595000Y-52700000D03*
X150595000Y-54225000D03*
%TD*%
D16*
%TO.C,C16*%
X169600000Y-67600000D03*
X171150000Y-67600000D03*
%TD*%
D17*
%TO.C,C11*%
X173000000Y-46500000D03*
X173000000Y-44950000D03*
%TD*%
D16*
%TO.C,C10*%
X127290000Y-45500000D03*
X128840000Y-45500000D03*
%TD*%
D12*
%TO.C,R5*%
X136375000Y-77000000D03*
X138025000Y-77000000D03*
%TD*%
D18*
%TO.C,R11*%
X153600000Y-73900000D03*
X153600000Y-72250000D03*
%TD*%
D12*
%TO.C,R3*%
X136350000Y-71000000D03*
X138000000Y-71000000D03*
%TD*%
D19*
%TO.C,R1*%
X107500000Y-77650000D03*
X107500000Y-79300000D03*
%TD*%
%TO.C,R6*%
X201300000Y-56450000D03*
X201300000Y-58100000D03*
%TD*%
D20*
%TO.C,R21*%
X188400000Y-77500000D03*
X186750000Y-77500000D03*
%TD*%
D12*
%TO.C,R24*%
X119450000Y-62200000D03*
X121100000Y-62200000D03*
%TD*%
D21*
%TO.C,D5*%
X138000000Y-72500000D03*
X136425000Y-72500000D03*
%TD*%
D22*
%TO.C,C2*%
X113000000Y-74450000D03*
X113000000Y-71500000D03*
%TD*%
D19*
%TO.C,R17*%
X136800000Y-61700000D03*
X136800000Y-63350000D03*
%TD*%
D21*
%TO.C,D7*%
X137975000Y-78500000D03*
X136400000Y-78500000D03*
%TD*%
D20*
%TO.C,R22*%
X188350000Y-71500000D03*
X186700000Y-71500000D03*
%TD*%
D23*
%TO.C,Q1*%
X116300000Y-79500000D03*
X118200000Y-79500000D03*
X117250000Y-77625000D03*
%TD*%
D24*
%TO.C,Q6*%
X131900000Y-65800000D03*
X131900000Y-63900000D03*
X130025000Y-64850000D03*
%TD*%
D25*
%TO.C,L2*%
X115300000Y-54500000D03*
X115300000Y-57300000D03*
%TD*%
D26*
%TO.C,J2*%
X114960000Y-50445000D03*
X114160000Y-50445000D03*
D27*
X112960000Y-50445000D03*
X111960000Y-50445000D03*
X111460000Y-50445000D03*
X110460000Y-50445000D03*
D26*
X109260000Y-50445000D03*
X108460000Y-50445000D03*
X108460000Y-50445000D03*
X109260000Y-50445000D03*
D27*
X109960000Y-50445000D03*
X110960000Y-50445000D03*
X112460000Y-50445000D03*
X113460000Y-50445000D03*
D26*
X114160000Y-50445000D03*
X114960000Y-50445000D03*
%TD*%
%TO.C,J4*%
X199560000Y-50445000D03*
X198760000Y-50445000D03*
D27*
X197560000Y-50445000D03*
X196560000Y-50445000D03*
X196060000Y-50445000D03*
X195060000Y-50445000D03*
D26*
X193860000Y-50445000D03*
X193060000Y-50445000D03*
X193060000Y-50445000D03*
X193860000Y-50445000D03*
D27*
X194560000Y-50445000D03*
X195560000Y-50445000D03*
X197060000Y-50445000D03*
X198060000Y-50445000D03*
D26*
X198760000Y-50445000D03*
X199560000Y-50445000D03*
%TD*%
D20*
%TO.C,R23*%
X188350000Y-73600000D03*
X186700000Y-73600000D03*
%TD*%
D16*
%TO.C,C9*%
X113800000Y-52800000D03*
X115350000Y-52800000D03*
%TD*%
D28*
%TO.C,U1*%
X112975000Y-89705000D03*
X112975000Y-88435000D03*
X112975000Y-87165000D03*
X112975000Y-85895000D03*
X108025000Y-85895000D03*
X108025000Y-87165000D03*
X108025000Y-88435000D03*
X108025000Y-89705000D03*
%TD*%
D18*
%TO.C,R31*%
X119900000Y-66200000D03*
X119900000Y-64550000D03*
%TD*%
D20*
%TO.C,R29*%
X126500000Y-77300000D03*
X124850000Y-77300000D03*
%TD*%
D29*
%TO.C,F1*%
X108900000Y-95225000D03*
X108900000Y-99500000D03*
%TD*%
D30*
%TO.C,C5*%
X121500000Y-70400000D03*
X121500000Y-72300000D03*
%TD*%
D18*
%TO.C,R30*%
X134100000Y-65100000D03*
X134100000Y-63450000D03*
%TD*%
D11*
%TO.C,C4*%
X113500000Y-82700000D03*
X113500000Y-84250000D03*
%TD*%
D31*
%TO.C,Q2*%
X132825000Y-60050000D03*
X132825000Y-61950000D03*
X134700000Y-61000000D03*
%TD*%
D19*
%TO.C,R26*%
X193500000Y-63000000D03*
X193500000Y-64650000D03*
%TD*%
D12*
%TO.C,R19*%
X127340000Y-50100000D03*
X128990000Y-50100000D03*
%TD*%
D19*
%TO.C,R8*%
X126490000Y-54450000D03*
X126490000Y-56100000D03*
%TD*%
D12*
%TO.C,R4*%
X136350000Y-74000000D03*
X138000000Y-74000000D03*
%TD*%
D25*
%TO.C,L1*%
X112500000Y-76500000D03*
X112500000Y-79300000D03*
%TD*%
D18*
%TO.C,R12*%
X161600000Y-73150000D03*
X161600000Y-71500000D03*
%TD*%
D20*
%TO.C,R34*%
X148100000Y-66400000D03*
X146450000Y-66400000D03*
%TD*%
D32*
%TO.C,C6*%
X138000000Y-66600000D03*
X140950000Y-66600000D03*
%TD*%
D33*
%TO.C,D3*%
X108500000Y-70100000D03*
X108500000Y-74100000D03*
%TD*%
D24*
%TO.C,Q7*%
X189400000Y-66000000D03*
X189400000Y-64100000D03*
X187525000Y-65050000D03*
%TD*%
D34*
%TO.C,U2*%
X130700000Y-68800000D03*
X128400000Y-68800000D03*
D35*
X128400000Y-75100000D03*
D34*
X126100000Y-68800000D03*
%TD*%
D18*
%TO.C,R33*%
X115300000Y-66150000D03*
X115300000Y-64500000D03*
%TD*%
D10*
%TO.C,C17*%
X186700000Y-66500000D03*
X185150000Y-66500000D03*
%TD*%
D19*
%TO.C,R27*%
X193500000Y-66100000D03*
X193500000Y-67750000D03*
%TD*%
D36*
%TO.C,U12*%
X152000000Y-78200000D03*
X152000000Y-79150000D03*
X152000000Y-80100000D03*
X154275000Y-80100000D03*
X154275000Y-79150000D03*
X154275000Y-78200000D03*
%TD*%
D37*
%TO.C,D10*%
X122250000Y-54800000D03*
X118950000Y-54800000D03*
%TD*%
D23*
%TO.C,Q3*%
X119400000Y-60400000D03*
X121300000Y-60400000D03*
X120350000Y-58525000D03*
%TD*%
D18*
%TO.C,R32*%
X118200000Y-66150000D03*
X118200000Y-64500000D03*
%TD*%
D38*
%TO.C,Q9*%
X116300000Y-59300000D03*
X114400000Y-59300000D03*
X115350000Y-61175000D03*
%TD*%
D19*
%TO.C,R7*%
X201300000Y-53415981D03*
X201300000Y-55065981D03*
%TD*%
D39*
%TO.C,D1*%
X113700000Y-99250000D03*
X113700000Y-94950000D03*
%TD*%
D12*
%TO.C,R25*%
X114150000Y-92600000D03*
X115800000Y-92600000D03*
%TD*%
D40*
%TO.C,D2*%
X117500000Y-74500000D03*
X117500000Y-70500000D03*
%TD*%
D20*
%TO.C,R20*%
X188450000Y-79100000D03*
X186800000Y-79100000D03*
%TD*%
D41*
%TO.C,U7*%
X196000000Y-54500000D03*
X194700000Y-54500000D03*
X196000000Y-55800000D03*
X194700000Y-55800000D03*
D42*
X196600000Y-53212500D03*
X196100000Y-53212500D03*
X195600000Y-53212500D03*
X195100000Y-53212500D03*
X194600000Y-53212500D03*
X194100000Y-53212500D03*
D43*
X193412500Y-53900000D03*
X193412500Y-54400000D03*
X193412500Y-54900000D03*
X193412500Y-55400000D03*
X193412500Y-55900000D03*
X193412500Y-56400000D03*
D42*
X194100000Y-57087500D03*
X194600000Y-57087500D03*
X195100000Y-57087500D03*
X195600000Y-57087500D03*
X196100000Y-57087500D03*
X196600000Y-57087500D03*
D43*
X197287500Y-56400000D03*
X197287500Y-55900000D03*
X197287500Y-55400000D03*
X197287500Y-54900000D03*
X197287500Y-54400000D03*
X197287500Y-53900000D03*
%TD*%
D19*
%TO.C,R10*%
X129390000Y-57500000D03*
X129390000Y-59150000D03*
%TD*%
D44*
%TO.C,SW1*%
X138790000Y-50000000D03*
X130830000Y-50000000D03*
X138790000Y-45500000D03*
X130830000Y-45500000D03*
%TD*%
D28*
%TO.C,U8*%
X136565000Y-57305000D03*
X136565000Y-56035000D03*
X136565000Y-54765000D03*
X136565000Y-53495000D03*
X131615000Y-53495000D03*
X131615000Y-54765000D03*
X131615000Y-56035000D03*
X131615000Y-57305000D03*
%TD*%
D21*
%TO.C,D6*%
X137987500Y-75500000D03*
X136412500Y-75500000D03*
%TD*%
D18*
%TO.C,R9*%
X126490000Y-59150000D03*
X126490000Y-57500000D03*
%TD*%
D30*
%TO.C,C14*%
X191900000Y-57600000D03*
X191900000Y-59500000D03*
%TD*%
D20*
%TO.C,R28*%
X175950000Y-74100000D03*
X174300000Y-74100000D03*
%TD*%
D45*
%TO.C,FB1*%
X165100000Y-48100000D03*
X162975000Y-48100000D03*
%TD*%
D46*
%TO.C,U11*%
X164425000Y-71230000D03*
X164425000Y-72500000D03*
X164425000Y-73770000D03*
X164425000Y-75040000D03*
X164425000Y-76310000D03*
X164425000Y-77580000D03*
X164425000Y-78850000D03*
X169375000Y-78850000D03*
X169375000Y-77580000D03*
X169375000Y-76310000D03*
X169375000Y-75040000D03*
X169375000Y-73770000D03*
X169375000Y-72500000D03*
X169375000Y-71230000D03*
%TD*%
D37*
%TO.C,DZ1*%
X123450000Y-78500000D03*
X120150000Y-78500000D03*
%TD*%
D12*
%TO.C,R15*%
X169650000Y-57800000D03*
X171300000Y-57800000D03*
%TD*%
D47*
%TO.C,U9*%
X170800000Y-48800000D03*
X169480000Y-48800000D03*
X170800000Y-50120000D03*
X169480000Y-50120000D03*
D48*
X171390000Y-47510000D03*
X170890000Y-47510000D03*
X170390000Y-47510000D03*
X169890000Y-47510000D03*
X169390000Y-47510000D03*
X168890000Y-47510000D03*
D49*
X168190000Y-48210000D03*
X168190000Y-48710000D03*
X168190000Y-49210000D03*
X168190000Y-49710000D03*
X168190000Y-50210000D03*
X168190000Y-50710000D03*
D48*
X168890000Y-51410000D03*
X169390000Y-51410000D03*
X169890000Y-51410000D03*
X170390000Y-51410000D03*
X170890000Y-51410000D03*
X171390000Y-51410000D03*
D49*
X172090000Y-50710000D03*
X172090000Y-50210000D03*
X172090000Y-49710000D03*
X172090000Y-49210000D03*
X172090000Y-48710000D03*
X172090000Y-48210000D03*
%TD*%
D24*
%TO.C,Q8*%
X175575000Y-72350000D03*
X175575000Y-70450000D03*
X173700000Y-71400000D03*
%TD*%
D17*
%TO.C,C3*%
X110500000Y-84050000D03*
X110500000Y-82500000D03*
%TD*%
D10*
%TO.C,C18*%
X150200000Y-77200000D03*
X148650000Y-77200000D03*
%TD*%
D50*
%TO.C,D4*%
X142300000Y-72100000D03*
X146300000Y-72100000D03*
%TD*%
D18*
%TO.C,R2*%
X107400000Y-84050000D03*
X107400000Y-82400000D03*
%TD*%
M02*
