%TF.GenerationSoftware,KiCad,Pcbnew,9.0.8*%
%TF.CreationDate,2026-03-21T06:29:11-06:00*%
%TF.ProjectId,afterglo-controller,61667465-7267-46c6-9f2d-636f6e74726f,rev?*%
%TF.SameCoordinates,Original*%
%TF.FileFunction,Soldermask,Bot*%
%TF.FilePolarity,Negative*%
%FSLAX46Y46*%
G04 Gerber Fmt 4.6, Leading zero omitted, Abs format (unit mm)*
G04 Created by KiCad (PCBNEW 9.0.8) date 2026-03-21 06:29:11*
%MOMM*%
%LPD*%
G01*
G04 APERTURE LIST*
G04 Aperture macros list*
%AMRoundRect*
0 Rectangle with rounded corners*
0 $1 Rounding radius*
0 $2 $3 $4 $5 $6 $7 $8 $9 X,Y pos of 4 corners*
0 Add a 4 corners polygon primitive as box body*
4,1,4,$2,$3,$4,$5,$6,$7,$8,$9,$2,$3,0*
0 Add four circle primitives for the rounded corners*
1,1,$1+$1,$2,$3*
1,1,$1+$1,$4,$5*
1,1,$1+$1,$6,$7*
1,1,$1+$1,$8,$9*
0 Add four rect primitives between the rounded corners*
20,1,$1+$1,$2,$3,$4,$5,0*
20,1,$1+$1,$4,$5,$6,$7,0*
20,1,$1+$1,$6,$7,$8,$9,0*
20,1,$1+$1,$8,$9,$2,$3,0*%
G04 Aperture macros list end*
%ADD10C,2.400000*%
%ADD11C,2.200000*%
%ADD12R,1.700000X1.700000*%
%ADD13C,1.700000*%
%ADD14R,2.000000X1.905000*%
%ADD15O,2.000000X1.905000*%
%ADD16RoundRect,0.250000X0.550000X0.550000X-0.550000X0.550000X-0.550000X-0.550000X0.550000X-0.550000X0*%
%ADD17C,1.600000*%
%ADD18RoundRect,0.250000X-0.750000X0.750000X-0.750000X-0.750000X0.750000X-0.750000X0.750000X0.750000X0*%
%ADD19C,2.000000*%
%ADD20RoundRect,0.250000X-0.750000X-0.750000X0.750000X-0.750000X0.750000X0.750000X-0.750000X0.750000X0*%
%ADD21C,0.650000*%
%ADD22O,1.000000X2.100000*%
%ADD23O,1.000000X1.600000*%
%ADD24RoundRect,0.250000X-1.050000X-1.050000X1.050000X-1.050000X1.050000X1.050000X-1.050000X1.050000X0*%
%ADD25C,2.600000*%
%ADD26C,3.250000*%
%ADD27RoundRect,0.250500X0.499500X0.499500X-0.499500X0.499500X-0.499500X-0.499500X0.499500X-0.499500X0*%
%ADD28C,1.500000*%
%ADD29C,2.500000*%
%ADD30RoundRect,0.250000X-0.550000X-0.550000X0.550000X-0.550000X0.550000X0.550000X-0.550000X0.550000X0*%
%ADD31RoundRect,0.250000X0.750000X0.750000X-0.750000X0.750000X-0.750000X-0.750000X0.750000X-0.750000X0*%
G04 APERTURE END LIST*
D10*
%TO.C,F7*%
X143550000Y-90300000D03*
D11*
X144800000Y-83900000D03*
X142300000Y-83900000D03*
X144800000Y-87400000D03*
X142300000Y-87400000D03*
X144800000Y-93200000D03*
X142300000Y-93200000D03*
X144800000Y-96700000D03*
X142300000Y-96700000D03*
%TD*%
D10*
%TO.C,F6*%
X136250000Y-90300000D03*
D11*
X137500000Y-83900000D03*
X135000000Y-83900000D03*
X137500000Y-87400000D03*
X135000000Y-87400000D03*
X137500000Y-93200000D03*
X135000000Y-93200000D03*
X137500000Y-96700000D03*
X135000000Y-96700000D03*
%TD*%
D12*
%TO.C,J11*%
X155940000Y-66900000D03*
D13*
X153400000Y-66900000D03*
X150860000Y-66900000D03*
%TD*%
D14*
%TO.C,Q5*%
X125450000Y-90660000D03*
D15*
X125450000Y-93200000D03*
X125450000Y-95740000D03*
%TD*%
D16*
%TO.C,C7*%
X111382379Y-55200000D03*
D17*
X108882379Y-55200000D03*
%TD*%
D18*
%TO.C,C1*%
X111800000Y-104000000D03*
D19*
X111800000Y-109000000D03*
%TD*%
D12*
%TO.C,J5*%
X158700000Y-79200000D03*
D13*
X158700000Y-76660000D03*
X158700000Y-74120000D03*
X158700000Y-71580000D03*
%TD*%
D10*
%TO.C,F5*%
X167450000Y-92800000D03*
D11*
X166200000Y-99200000D03*
X168700000Y-99200000D03*
X166200000Y-95700000D03*
X168700000Y-95700000D03*
X166200000Y-89900000D03*
X168700000Y-89900000D03*
X166200000Y-86400000D03*
X168700000Y-86400000D03*
%TD*%
D20*
%TO.C,J6*%
X191280000Y-107700000D03*
D19*
X195090000Y-107700000D03*
X198900000Y-107700000D03*
%TD*%
D20*
%TO.C,J8*%
X153780000Y-107700000D03*
D19*
X157590000Y-107700000D03*
X161400000Y-107700000D03*
%TD*%
D21*
%TO.C,J2*%
X114600000Y-49000000D03*
X108820000Y-49000000D03*
D22*
X116030000Y-49530000D03*
D23*
X116030000Y-45350000D03*
D22*
X107390000Y-49530000D03*
D23*
X107390000Y-45350000D03*
%TD*%
D21*
%TO.C,J4*%
X199200000Y-49000000D03*
X193420000Y-49000000D03*
D22*
X200630000Y-49530000D03*
D23*
X200630000Y-45350000D03*
D22*
X191990000Y-49530000D03*
D23*
X191990000Y-45350000D03*
%TD*%
D24*
%TO.C,J17*%
X143020000Y-106700000D03*
D25*
X148100000Y-106700000D03*
%TD*%
D24*
%TO.C,J16*%
X131720000Y-106700000D03*
D25*
X136800000Y-106700000D03*
%TD*%
D20*
%TO.C,J7*%
X178780000Y-107700000D03*
D19*
X182590000Y-107700000D03*
X186400000Y-107700000D03*
%TD*%
D10*
%TO.C,F3*%
X185250000Y-92800000D03*
D11*
X184000000Y-99200000D03*
X186500000Y-99200000D03*
X184000000Y-95700000D03*
X186500000Y-95700000D03*
X184000000Y-89900000D03*
X186500000Y-89900000D03*
X184000000Y-86400000D03*
X186500000Y-86400000D03*
%TD*%
D14*
%TO.C,Q4*%
X119300000Y-90660000D03*
D15*
X119300000Y-93200000D03*
X119300000Y-95740000D03*
%TD*%
D26*
%TO.C,J15*%
X188015000Y-50350000D03*
X176585000Y-50350000D03*
D27*
X186740000Y-56710000D03*
D28*
X185480000Y-59250000D03*
X184200000Y-56710000D03*
X182940000Y-59250000D03*
X181660000Y-56710000D03*
X180400000Y-59250000D03*
X179120000Y-56710000D03*
X177860000Y-59250000D03*
X188925000Y-45450000D03*
X186385000Y-45450000D03*
X178215000Y-45450000D03*
X175675000Y-45450000D03*
D29*
X190045000Y-53400000D03*
X174555000Y-53400000D03*
%TD*%
D20*
%TO.C,J9*%
X166280000Y-107700000D03*
D19*
X170090000Y-107700000D03*
X173900000Y-107700000D03*
%TD*%
D30*
%TO.C,C20*%
X109000000Y-62500000D03*
D17*
X111500000Y-62500000D03*
%TD*%
D12*
%TO.C,J3*%
X133775000Y-70380000D03*
D13*
X133775000Y-72920000D03*
X133775000Y-75460000D03*
X133775000Y-78000000D03*
%TD*%
D24*
%TO.C,J1*%
X120320000Y-106300000D03*
D25*
X125400000Y-106300000D03*
%TD*%
D31*
%TO.C,J13*%
X123305000Y-48382500D03*
D19*
X119495000Y-48382500D03*
%TD*%
D10*
%TO.C,F4*%
X160250000Y-92800000D03*
D11*
X159000000Y-99200000D03*
X161500000Y-99200000D03*
X159000000Y-95700000D03*
X161500000Y-95700000D03*
X159000000Y-89900000D03*
X161500000Y-89900000D03*
X159000000Y-86400000D03*
X161500000Y-86400000D03*
%TD*%
D10*
%TO.C,F2*%
X192450000Y-92800000D03*
D11*
X191200000Y-99200000D03*
X193700000Y-99200000D03*
X191200000Y-95700000D03*
X193700000Y-95700000D03*
X191200000Y-89900000D03*
X193700000Y-89900000D03*
X191200000Y-86400000D03*
X193700000Y-86400000D03*
%TD*%
M02*
