%TF.GenerationSoftware,KiCad,Pcbnew,9.0.8*%
%TF.CreationDate,2026-03-28T23:30:32-06:00*%
%TF.ProjectId,afterglo-controller,61667465-7267-46c6-9f2d-636f6e74726f,rev?*%
%TF.SameCoordinates,Original*%
%TF.FileFunction,Copper,L1,Top*%
%TF.FilePolarity,Positive*%
%FSLAX46Y46*%
G04 Gerber Fmt 4.6, Leading zero omitted, Abs format (unit mm)*
G04 Created by KiCad (PCBNEW 9.0.8) date 2026-03-28 23:30:32*
%MOMM*%
%LPD*%
G01*
G04 APERTURE LIST*
G04 Aperture macros list*
%AMRoundRect*
0 Rectangle with rounded corners*
0 $1 Rounding radius*
0 $2 $3 $4 $5 $6 $7 $8 $9 X,Y pos of 4 corners*
0 Add a 4 corners polygon primitive as box body*
4,1,4,$2,$3,$4,$5,$6,$7,$8,$9,$2,$3,0*
0 Add four circle primitives for the rounded corners*
1,1,$1+$1,$2,$3*
1,1,$1+$1,$4,$5*
1,1,$1+$1,$6,$7*
1,1,$1+$1,$8,$9*
0 Add four rect primitives between the rounded corners*
20,1,$1+$1,$2,$3,$4,$5,0*
20,1,$1+$1,$4,$5,$6,$7,0*
20,1,$1+$1,$6,$7,$8,$9,0*
20,1,$1+$1,$8,$9,$2,$3,0*%
%AMFreePoly0*
4,1,23,0.550000,-0.750000,0.000000,-0.750000,0.000000,-0.745722,-0.065263,-0.745722,-0.191342,-0.711940,-0.304381,-0.646677,-0.396677,-0.554381,-0.461940,-0.441342,-0.495722,-0.315263,-0.495722,-0.250000,-0.500000,-0.250000,-0.500000,0.250000,-0.495722,0.250000,-0.495722,0.315263,-0.461940,0.441342,-0.396677,0.554381,-0.304381,0.646677,-0.191342,0.711940,-0.065263,0.745722,0.000000,0.745722,
0.000000,0.750000,0.550000,0.750000,0.550000,-0.750000,0.550000,-0.750000,$1*%
%AMFreePoly1*
4,1,23,0.000000,0.745722,0.065263,0.745722,0.191342,0.711940,0.304381,0.646677,0.396677,0.554381,0.461940,0.441342,0.495722,0.315263,0.495722,0.250000,0.500000,0.250000,0.500000,-0.250000,0.495722,-0.250000,0.495722,-0.315263,0.461940,-0.441342,0.396677,-0.554381,0.304381,-0.646677,0.191342,-0.711940,0.065263,-0.745722,0.000000,-0.745722,0.000000,-0.750000,-0.550000,-0.750000,
-0.550000,0.750000,0.000000,0.750000,0.000000,0.745722,0.000000,0.745722,$1*%
G04 Aperture macros list end*
%TA.AperFunction,ComponentPad*%
%ADD10O,2.200000X3.500000*%
%TD*%
%TA.AperFunction,ComponentPad*%
%ADD11R,1.500000X2.500000*%
%TD*%
%TA.AperFunction,ComponentPad*%
%ADD12O,1.500000X2.500000*%
%TD*%
%TA.AperFunction,ComponentPad*%
%ADD13C,2.200000*%
%TD*%
%TA.AperFunction,HeatsinkPad*%
%ADD14O,1.000000X1.600000*%
%TD*%
%TA.AperFunction,HeatsinkPad*%
%ADD15O,1.000000X2.100000*%
%TD*%
%TA.AperFunction,SMDPad,CuDef*%
%ADD16R,0.600000X1.450000*%
%TD*%
%TA.AperFunction,SMDPad,CuDef*%
%ADD17R,0.300000X1.450000*%
%TD*%
%TA.AperFunction,ComponentPad*%
%ADD18C,2.500000*%
%TD*%
%TA.AperFunction,ComponentPad*%
%ADD19C,1.500000*%
%TD*%
%TA.AperFunction,ComponentPad*%
%ADD20RoundRect,0.250500X0.499500X-0.499500X0.499500X0.499500X-0.499500X0.499500X-0.499500X-0.499500X0*%
%TD*%
%TA.AperFunction,ComponentPad*%
%ADD21C,2.300000*%
%TD*%
%TA.AperFunction,ComponentPad*%
%ADD22R,1.500000X1.500000*%
%TD*%
%TA.AperFunction,SMDPad,CuDef*%
%ADD23RoundRect,0.200000X0.200000X0.275000X-0.200000X0.275000X-0.200000X-0.275000X0.200000X-0.275000X0*%
%TD*%
%TA.AperFunction,HeatsinkPad*%
%ADD24C,0.600000*%
%TD*%
%TA.AperFunction,HeatsinkPad*%
%ADD25R,3.900000X3.900000*%
%TD*%
%TA.AperFunction,SMDPad,CuDef*%
%ADD26R,1.500000X0.900000*%
%TD*%
%TA.AperFunction,SMDPad,CuDef*%
%ADD27R,0.900000X1.500000*%
%TD*%
%TA.AperFunction,HeatsinkPad*%
%ADD28R,2.650000X2.650000*%
%TD*%
%TA.AperFunction,SMDPad,CuDef*%
%ADD29RoundRect,0.075000X0.075000X0.350000X-0.075000X0.350000X-0.075000X-0.350000X0.075000X-0.350000X0*%
%TD*%
%TA.AperFunction,SMDPad,CuDef*%
%ADD30RoundRect,0.075000X0.350000X0.075000X-0.350000X0.075000X-0.350000X-0.075000X0.350000X-0.075000X0*%
%TD*%
%TA.AperFunction,SMDPad,CuDef*%
%ADD31RoundRect,0.225000X-0.250000X0.225000X-0.250000X-0.225000X0.250000X-0.225000X0.250000X0.225000X0*%
%TD*%
%TA.AperFunction,SMDPad,CuDef*%
%ADD32RoundRect,0.200000X-0.275000X0.200000X-0.275000X-0.200000X0.275000X-0.200000X0.275000X0.200000X0*%
%TD*%
%TA.AperFunction,SMDPad,CuDef*%
%ADD33RoundRect,0.225000X-0.225000X-0.250000X0.225000X-0.250000X0.225000X0.250000X-0.225000X0.250000X0*%
%TD*%
%TA.AperFunction,SMDPad,CuDef*%
%ADD34RoundRect,0.125000X-0.537500X-0.125000X0.537500X-0.125000X0.537500X0.125000X-0.537500X0.125000X0*%
%TD*%
%TA.AperFunction,SMDPad,CuDef*%
%ADD35RoundRect,0.225000X0.250000X-0.225000X0.250000X0.225000X-0.250000X0.225000X-0.250000X-0.225000X0*%
%TD*%
%TA.AperFunction,SMDPad,CuDef*%
%ADD36RoundRect,0.200000X-0.200000X-0.275000X0.200000X-0.275000X0.200000X0.275000X-0.200000X0.275000X0*%
%TD*%
%TA.AperFunction,ComponentPad*%
%ADD37RoundRect,0.250000X-1.050000X-1.050000X1.050000X-1.050000X1.050000X1.050000X-1.050000X1.050000X0*%
%TD*%
%TA.AperFunction,ComponentPad*%
%ADD38C,2.600000*%
%TD*%
%TA.AperFunction,SMDPad,CuDef*%
%ADD39C,1.500000*%
%TD*%
%TA.AperFunction,SMDPad,CuDef*%
%ADD40RoundRect,0.200000X0.275000X-0.200000X0.275000X0.200000X-0.275000X0.200000X-0.275000X-0.200000X0*%
%TD*%
%TA.AperFunction,ComponentPad*%
%ADD41RoundRect,0.250000X-0.600000X-0.750000X0.600000X-0.750000X0.600000X0.750000X-0.600000X0.750000X0*%
%TD*%
%TA.AperFunction,ComponentPad*%
%ADD42O,1.700000X2.000000*%
%TD*%
%TA.AperFunction,SMDPad,CuDef*%
%ADD43RoundRect,0.218750X0.218750X0.256250X-0.218750X0.256250X-0.218750X-0.256250X0.218750X-0.256250X0*%
%TD*%
%TA.AperFunction,ComponentPad*%
%ADD44R,2.000000X1.905000*%
%TD*%
%TA.AperFunction,ComponentPad*%
%ADD45O,2.000000X1.905000*%
%TD*%
%TA.AperFunction,SMDPad,CuDef*%
%ADD46RoundRect,0.250000X0.650000X-0.325000X0.650000X0.325000X-0.650000X0.325000X-0.650000X-0.325000X0*%
%TD*%
%TA.AperFunction,ComponentPad*%
%ADD47RoundRect,0.250000X0.550000X0.550000X-0.550000X0.550000X-0.550000X-0.550000X0.550000X-0.550000X0*%
%TD*%
%TA.AperFunction,ComponentPad*%
%ADD48C,1.600000*%
%TD*%
%TA.AperFunction,ComponentPad*%
%ADD49RoundRect,0.250000X-0.750000X0.750000X-0.750000X-0.750000X0.750000X-0.750000X0.750000X0.750000X0*%
%TD*%
%TA.AperFunction,ComponentPad*%
%ADD50C,2.000000*%
%TD*%
%TA.AperFunction,SMDPad,CuDef*%
%ADD51RoundRect,0.150000X0.150000X-0.587500X0.150000X0.587500X-0.150000X0.587500X-0.150000X-0.587500X0*%
%TD*%
%TA.AperFunction,ComponentPad*%
%ADD52RoundRect,0.250000X-0.600000X-0.725000X0.600000X-0.725000X0.600000X0.725000X-0.600000X0.725000X0*%
%TD*%
%TA.AperFunction,ComponentPad*%
%ADD53O,1.700000X1.950000*%
%TD*%
%TA.AperFunction,ComponentPad*%
%ADD54RoundRect,0.250000X0.750000X-0.750000X0.750000X0.750000X-0.750000X0.750000X-0.750000X-0.750000X0*%
%TD*%
%TA.AperFunction,SMDPad,CuDef*%
%ADD55FreePoly0,90.000000*%
%TD*%
%TA.AperFunction,SMDPad,CuDef*%
%ADD56R,1.500000X1.000000*%
%TD*%
%TA.AperFunction,SMDPad,CuDef*%
%ADD57FreePoly1,90.000000*%
%TD*%
%TA.AperFunction,SMDPad,CuDef*%
%ADD58RoundRect,0.150000X0.587500X0.150000X-0.587500X0.150000X-0.587500X-0.150000X0.587500X-0.150000X0*%
%TD*%
%TA.AperFunction,SMDPad,CuDef*%
%ADD59RoundRect,0.250000X-1.075000X0.375000X-1.075000X-0.375000X1.075000X-0.375000X1.075000X0.375000X0*%
%TD*%
%TA.AperFunction,SMDPad,CuDef*%
%ADD60RoundRect,0.150000X0.825000X0.150000X-0.825000X0.150000X-0.825000X-0.150000X0.825000X-0.150000X0*%
%TD*%
%TA.AperFunction,SMDPad,CuDef*%
%ADD61RoundRect,0.250000X-1.450000X0.312500X-1.450000X-0.312500X1.450000X-0.312500X1.450000X0.312500X0*%
%TD*%
%TA.AperFunction,SMDPad,CuDef*%
%ADD62RoundRect,0.250000X-0.475000X0.250000X-0.475000X-0.250000X0.475000X-0.250000X0.475000X0.250000X0*%
%TD*%
%TA.AperFunction,SMDPad,CuDef*%
%ADD63RoundRect,0.250000X-0.400000X0.525000X-0.400000X-0.525000X0.400000X-0.525000X0.400000X0.525000X0*%
%TD*%
%TA.AperFunction,SMDPad,CuDef*%
%ADD64RoundRect,0.150000X-0.587500X-0.150000X0.587500X-0.150000X0.587500X0.150000X-0.587500X0.150000X0*%
%TD*%
%TA.AperFunction,SMDPad,CuDef*%
%ADD65RoundRect,0.250000X-0.325000X-0.650000X0.325000X-0.650000X0.325000X0.650000X-0.325000X0.650000X0*%
%TD*%
%TA.AperFunction,SMDPad,CuDef*%
%ADD66RoundRect,0.250000X-0.650000X1.000000X-0.650000X-1.000000X0.650000X-1.000000X0.650000X1.000000X0*%
%TD*%
%TA.AperFunction,SMDPad,CuDef*%
%ADD67RoundRect,0.375000X-0.375000X0.625000X-0.375000X-0.625000X0.375000X-0.625000X0.375000X0.625000X0*%
%TD*%
%TA.AperFunction,SMDPad,CuDef*%
%ADD68RoundRect,0.500000X-1.400000X0.500000X-1.400000X-0.500000X1.400000X-0.500000X1.400000X0.500000X0*%
%TD*%
%TA.AperFunction,SMDPad,CuDef*%
%ADD69RoundRect,0.225000X0.225000X0.250000X-0.225000X0.250000X-0.225000X-0.250000X0.225000X-0.250000X0*%
%TD*%
%TA.AperFunction,SMDPad,CuDef*%
%ADD70RoundRect,0.150000X-0.512500X-0.150000X0.512500X-0.150000X0.512500X0.150000X-0.512500X0.150000X0*%
%TD*%
%TA.AperFunction,SMDPad,CuDef*%
%ADD71RoundRect,0.225000X0.225000X0.375000X-0.225000X0.375000X-0.225000X-0.375000X0.225000X-0.375000X0*%
%TD*%
%TA.AperFunction,ComponentPad*%
%ADD72RoundRect,0.250000X-0.550000X-0.550000X0.550000X-0.550000X0.550000X0.550000X-0.550000X0.550000X0*%
%TD*%
%TA.AperFunction,ComponentPad*%
%ADD73R,1.700000X1.700000*%
%TD*%
%TA.AperFunction,ComponentPad*%
%ADD74C,1.700000*%
%TD*%
%TA.AperFunction,SMDPad,CuDef*%
%ADD75RoundRect,0.150000X-0.150000X0.587500X-0.150000X-0.587500X0.150000X-0.587500X0.150000X0.587500X0*%
%TD*%
%TA.AperFunction,SMDPad,CuDef*%
%ADD76RoundRect,0.250000X0.900000X-1.000000X0.900000X1.000000X-0.900000X1.000000X-0.900000X-1.000000X0*%
%TD*%
%TA.AperFunction,SMDPad,CuDef*%
%ADD77RoundRect,0.225000X0.375000X-0.225000X0.375000X0.225000X-0.375000X0.225000X-0.375000X-0.225000X0*%
%TD*%
%TA.AperFunction,SMDPad,CuDef*%
%ADD78RoundRect,0.250000X0.650000X-1.000000X0.650000X1.000000X-0.650000X1.000000X-0.650000X-1.000000X0*%
%TD*%
%TA.AperFunction,SMDPad,CuDef*%
%ADD79RoundRect,0.150000X-0.825000X-0.150000X0.825000X-0.150000X0.825000X0.150000X-0.825000X0.150000X0*%
%TD*%
%TA.AperFunction,ComponentPad*%
%ADD80RoundRect,0.250000X0.750000X0.750000X-0.750000X0.750000X-0.750000X-0.750000X0.750000X-0.750000X0*%
%TD*%
%TA.AperFunction,SMDPad,CuDef*%
%ADD81RoundRect,0.218750X0.218750X0.381250X-0.218750X0.381250X-0.218750X-0.381250X0.218750X-0.381250X0*%
%TD*%
%TA.AperFunction,ViaPad*%
%ADD82C,0.900000*%
%TD*%
%TA.AperFunction,ViaPad*%
%ADD83C,2.000000*%
%TD*%
%TA.AperFunction,ViaPad*%
%ADD84C,1.000000*%
%TD*%
%TA.AperFunction,ViaPad*%
%ADD85C,1.600000*%
%TD*%
%TA.AperFunction,Conductor*%
%ADD86C,0.250000*%
%TD*%
%TA.AperFunction,Conductor*%
%ADD87C,0.800000*%
%TD*%
%TA.AperFunction,Conductor*%
%ADD88C,1.000000*%
%TD*%
%TA.AperFunction,Conductor*%
%ADD89C,0.500000*%
%TD*%
%TA.AperFunction,Conductor*%
%ADD90C,2.000000*%
%TD*%
%TA.AperFunction,Conductor*%
%ADD91C,1.200000*%
%TD*%
%TA.AperFunction,Conductor*%
%ADD92C,0.600000*%
%TD*%
%TA.AperFunction,Conductor*%
%ADD93C,0.550000*%
%TD*%
G04 APERTURE END LIST*
D10*
%TO.P,SW4,*%
%TO.N,*%
X174900000Y-79000000D03*
X183100000Y-79000000D03*
D11*
%TO.P,SW4,1,A*%
%TO.N,Net-(SW4-A)*%
X177000000Y-79000000D03*
D12*
%TO.P,SW4,2,B*%
%TO.N,/MCU and Communications/RS485_A*%
X179000000Y-79000000D03*
%TO.P,SW4,3*%
%TO.N,N/C*%
X181000000Y-79000000D03*
%TD*%
D13*
%TO.P,F4,2*%
%TO.N,+24V_SW*%
X162250000Y-86000000D03*
X159750000Y-86000000D03*
X162250000Y-89500000D03*
X159750000Y-89500000D03*
%TO.P,F4,1*%
%TO.N,LED_24V_CH3*%
X162250000Y-95300000D03*
X159750000Y-95300000D03*
X162250000Y-98800000D03*
X159750000Y-98800000D03*
%TD*%
%TO.P,F6,2*%
%TO.N,Net-(J16-Pin_1)*%
X135000000Y-98800000D03*
X137500000Y-98800000D03*
X135000000Y-95300000D03*
X137500000Y-95300000D03*
%TO.P,F6,1*%
%TO.N,+24V_SW*%
X135000000Y-89500000D03*
X137500000Y-89500000D03*
X135000000Y-86000000D03*
X137500000Y-86000000D03*
%TD*%
%TO.P,F7,2*%
%TO.N,+24V_SW*%
X144600000Y-86000000D03*
X142100000Y-86000000D03*
X144600000Y-89500000D03*
X142100000Y-89500000D03*
%TO.P,F7,1*%
%TO.N,LED_24V_CH3*%
X144600000Y-95300000D03*
X142100000Y-95300000D03*
X144600000Y-98800000D03*
X142100000Y-98800000D03*
%TD*%
D14*
%TO.P,J2,S1,SHIELD*%
%TO.N,GND*%
X107390000Y-45350000D03*
D15*
X107390000Y-49530000D03*
D14*
X116030000Y-45350000D03*
D15*
X116030000Y-49530000D03*
D16*
%TO.P,J2,B12,GND*%
X114960000Y-50445000D03*
%TO.P,J2,B9,VBUS*%
%TO.N,/Power System/+5V_RF*%
X114160000Y-50445000D03*
D17*
%TO.P,J2,B8,SBU2*%
%TO.N,unconnected-(J2-SBU2-PadB8)*%
X113460000Y-50445000D03*
%TO.P,J2,B7,D-*%
%TO.N,unconnected-(J2-D--PadB7)*%
X112460000Y-50445000D03*
%TO.P,J2,B6,D+*%
%TO.N,unconnected-(J2-D+-PadB6)*%
X110960000Y-50445000D03*
%TO.P,J2,B5,CC2*%
%TO.N,Net-(J2-CC2)*%
X109960000Y-50445000D03*
D16*
%TO.P,J2,B4,VBUS*%
%TO.N,/Power System/+5V_RF*%
X109260000Y-50445000D03*
%TO.P,J2,B1,GND*%
%TO.N,GND*%
X108460000Y-50445000D03*
%TO.P,J2,A12,GND*%
X108460000Y-50445000D03*
%TO.P,J2,A9,VBUS*%
%TO.N,/Power System/+5V_RF*%
X109260000Y-50445000D03*
D17*
%TO.P,J2,A8,SBU1*%
%TO.N,unconnected-(J2-SBU1-PadA8)*%
X110460000Y-50445000D03*
%TO.P,J2,A7,D-*%
%TO.N,unconnected-(J2-D--PadA7)*%
X111460000Y-50445000D03*
%TO.P,J2,A6,D+*%
%TO.N,unconnected-(J2-D+-PadA6)*%
X111960000Y-50445000D03*
%TO.P,J2,A5,CC1*%
%TO.N,Net-(J2-CC1)*%
X112960000Y-50445000D03*
D16*
%TO.P,J2,A4,VBUS*%
%TO.N,/Power System/+5V_RF*%
X114160000Y-50445000D03*
%TO.P,J2,A1,GND*%
%TO.N,GND*%
X114960000Y-50445000D03*
%TD*%
D14*
%TO.P,J4,S1,SHIELD*%
%TO.N,GND*%
X127360000Y-47400000D03*
D15*
X127360000Y-51580000D03*
D14*
X136000000Y-47400000D03*
D15*
X136000000Y-51580000D03*
D16*
%TO.P,J4,B12,GND*%
X134930000Y-52495000D03*
%TO.P,J4,B9,VBUS*%
%TO.N,VBUS*%
X134130000Y-52495000D03*
D17*
%TO.P,J4,B8,SBU2*%
%TO.N,unconnected-(J4-SBU2-PadB8)*%
X133430000Y-52495000D03*
%TO.P,J4,B7,D-*%
%TO.N,/MCU and Communications/USB_DM*%
X132430000Y-52495000D03*
%TO.P,J4,B6,D+*%
%TO.N,/MCU and Communications/USB_DP*%
X130930000Y-52495000D03*
%TO.P,J4,B5,CC2*%
%TO.N,/MCU and Communications/USB_CC2*%
X129930000Y-52495000D03*
D16*
%TO.P,J4,B4,VBUS*%
%TO.N,VBUS*%
X129230000Y-52495000D03*
%TO.P,J4,B1,GND*%
%TO.N,GND*%
X128430000Y-52495000D03*
%TO.P,J4,A12,GND*%
X128430000Y-52495000D03*
%TO.P,J4,A9,VBUS*%
%TO.N,VBUS*%
X129230000Y-52495000D03*
D17*
%TO.P,J4,A8,SBU1*%
%TO.N,unconnected-(J4-SBU1-PadA8)*%
X130430000Y-52495000D03*
%TO.P,J4,A7,D-*%
%TO.N,/MCU and Communications/USB_DM*%
X131430000Y-52495000D03*
%TO.P,J4,A6,D+*%
%TO.N,/MCU and Communications/USB_DP*%
X131930000Y-52495000D03*
%TO.P,J4,A5,CC1*%
%TO.N,/MCU and Communications/USB_CC1*%
X132930000Y-52495000D03*
D16*
%TO.P,J4,A4,VBUS*%
%TO.N,VBUS*%
X134130000Y-52495000D03*
%TO.P,J4,A1,GND*%
%TO.N,GND*%
X134930000Y-52495000D03*
%TD*%
D18*
%TO.P,J15,SH*%
%TO.N,GND*%
X188750000Y-45670000D03*
X188750000Y-61160000D03*
D19*
%TO.P,J15,12*%
%TO.N,unconnected-(J15-Pad12)*%
X196700000Y-46790000D03*
%TO.P,J15,11*%
%TO.N,unconnected-(J15-Pad11)*%
X196700000Y-49330000D03*
%TO.P,J15,10*%
%TO.N,unconnected-(J15-Pad10)*%
X196700000Y-57500000D03*
%TO.P,J15,9*%
%TO.N,unconnected-(J15-Pad9)*%
X196700000Y-60040000D03*
%TO.P,J15,8*%
%TO.N,GND*%
X182900000Y-48975000D03*
%TO.P,J15,7,NC*%
%TO.N,unconnected-(J15-NC-Pad7)*%
X185440000Y-50235000D03*
%TO.P,J15,6,RD-*%
%TO.N,/MCU and Communications/ETH_RXN*%
X182900000Y-51515000D03*
%TO.P,J15,5,RCT*%
%TO.N,+3V3*%
X185440000Y-52775000D03*
%TO.P,J15,4,TCT*%
X182900000Y-54055000D03*
%TO.P,J15,3,RD+*%
%TO.N,/MCU and Communications/ETH_RXP*%
X185440000Y-55315000D03*
%TO.P,J15,2,TD-*%
%TO.N,/MCU and Communications/ETH_TXN*%
X182900000Y-56595000D03*
D20*
%TO.P,J15,1,TD+*%
%TO.N,/MCU and Communications/ETH_TXP*%
X185440000Y-57855000D03*
%TD*%
D21*
%TO.P,J20,SH*%
%TO.N,GND*%
X193770000Y-80910000D03*
X193770000Y-64650000D03*
D19*
%TO.P,J20,12*%
%TO.N,N/C*%
X188060000Y-79640000D03*
%TO.P,J20,11*%
X188060000Y-77350000D03*
%TO.P,J20,10*%
X188060000Y-68210000D03*
%TO.P,J20,9*%
X188060000Y-65920000D03*
%TO.P,J20,8*%
%TO.N,unconnected-(J20-Pad8)*%
X192880000Y-76332000D03*
%TO.P,J20,7*%
%TO.N,unconnected-(J20-Pad7)*%
X194660000Y-75316000D03*
%TO.P,J20,6*%
%TO.N,unconnected-(J20-Pad6)*%
X192880000Y-74300000D03*
%TO.P,J20,5*%
%TO.N,/MCU and Communications/RS485_B*%
X194660000Y-73284000D03*
%TO.P,J20,4*%
%TO.N,/MCU and Communications/RS485_A*%
X192880000Y-72268000D03*
%TO.P,J20,3*%
%TO.N,unconnected-(J20-Pad3)*%
X194660000Y-71252000D03*
%TO.P,J20,2*%
%TO.N,unconnected-(J20-Pad2)*%
X192880000Y-70236000D03*
D22*
%TO.P,J20,1*%
%TO.N,unconnected-(J20-Pad1)*%
X194660000Y-69220000D03*
%TD*%
D23*
%TO.P,R8,2*%
%TO.N,/MCU and Communications/RS485_B*%
X178675000Y-88500000D03*
%TO.P,R8,1*%
%TO.N,Net-(SW4-A)*%
X180325000Y-88500000D03*
%TD*%
D24*
%TO.P,U5,41,GND*%
%TO.N,GND*%
X160700000Y-53460000D03*
X160700000Y-52060000D03*
X160000000Y-54160000D03*
X160000000Y-52760000D03*
X160000000Y-51360000D03*
X159300000Y-53460000D03*
D25*
X159300000Y-52760000D03*
D24*
X159300000Y-52060000D03*
X158600000Y-54160000D03*
X158600000Y-52760000D03*
X158600000Y-51360000D03*
X157900000Y-53460000D03*
X157900000Y-52060000D03*
D26*
%TO.P,U5,40,GND*%
X169550000Y-45040000D03*
%TO.P,U5,39,IO1*%
%TO.N,LED_CH1*%
X169550000Y-46310000D03*
%TO.P,U5,38,IO2*%
%TO.N,LED_CH2*%
X169550000Y-47580000D03*
%TO.P,U5,37,TXD0*%
%TO.N,unconnected-(U5-TXD0-Pad37)*%
X169550000Y-48850000D03*
%TO.P,U5,36,RXD0*%
%TO.N,unconnected-(U5-RXD0-Pad36)*%
X169550000Y-50120000D03*
%TO.P,U5,35,IO42*%
%TO.N,unconnected-(U5-IO42-Pad35)*%
X169550000Y-51390000D03*
%TO.P,U5,34,IO41*%
%TO.N,unconnected-(U5-IO41-Pad34)*%
X169550000Y-52660000D03*
%TO.P,U5,33,IO40*%
%TO.N,/MCU and Communications/WATCHDOG_WDI*%
X169550000Y-53930000D03*
%TO.P,U5,32,IO39*%
%TO.N,/MCU and Communications/REMOTE*%
X169550000Y-55200000D03*
%TO.P,U5,31,IO38*%
%TO.N,/MCU and Communications/RS485_RX*%
X169550000Y-56470000D03*
%TO.P,U5,30,IO37*%
%TO.N,unconnected-(U5-IO37-Pad30)*%
X169550000Y-57740000D03*
%TO.P,U5,29,IO36*%
%TO.N,FAN_PWM*%
X169550000Y-59010000D03*
%TO.P,U5,28,IO35*%
%TO.N,/MCU and Communications/BTN1*%
X169550000Y-60280000D03*
%TO.P,U5,27,IO0*%
%TO.N,Net-(SW2-B)*%
X169550000Y-61550000D03*
D27*
%TO.P,U5,26,IO45*%
%TO.N,unconnected-(U5-IO45-Pad26)*%
X167785000Y-62800000D03*
%TO.P,U5,25,IO48*%
%TO.N,unconnected-(U5-IO48-Pad25)*%
X166515000Y-62800000D03*
%TO.P,U5,24,IO47*%
%TO.N,/MCU and Communications/BTN2*%
X165245000Y-62800000D03*
%TO.P,U5,23,IO21*%
%TO.N,REMOTE_OUT*%
X163975000Y-62800000D03*
%TO.P,U5,22,IO14*%
%TO.N,LED_CH4*%
X162705000Y-62800000D03*
%TO.P,U5,21,IO13*%
%TO.N,/MCU and Communications/ETH_CRS_DV*%
X161435000Y-62800000D03*
%TO.P,U5,20,IO12*%
%TO.N,/MCU and Communications/ETH_RXD1*%
X160165000Y-62800000D03*
%TO.P,U5,19,IO11*%
%TO.N,/MCU and Communications/ETH_RXD0*%
X158895000Y-62800000D03*
%TO.P,U5,18,IO10*%
%TO.N,/MCU and Communications/ETH_MDC*%
X157625000Y-62800000D03*
%TO.P,U5,17,IO9*%
%TO.N,/MCU and Communications/ETH_MDIO*%
X156355000Y-62800000D03*
%TO.P,U5,16,IO46*%
%TO.N,/MCU and Communications/MIC_SENS*%
X155085000Y-62800000D03*
%TO.P,U5,15,IO3*%
%TO.N,LED_CH3*%
X153815000Y-62800000D03*
D26*
%TO.P,U5,14,USB_D+*%
%TO.N,/MCU and Communications/USB_DP*%
X152050000Y-61550000D03*
%TO.P,U5,13,USB_D-*%
%TO.N,/MCU and Communications/USB_DM*%
X152050000Y-60280000D03*
%TO.P,U5,12,IO8*%
%TO.N,/MCU and Communications/ETH_TXEN*%
X152050000Y-59010000D03*
%TO.P,U5,11,IO18*%
%TO.N,/MCU and Communications/RS485_TX*%
X152050000Y-57740000D03*
%TO.P,U5,10,IO17*%
%TO.N,/MCU and Communications/RS485_DE*%
X152050000Y-56470000D03*
%TO.P,U5,9,IO16*%
%TO.N,/MCU and Communications/ETH_CLK_OUT*%
X152050000Y-55200000D03*
%TO.P,U5,8,IO15*%
%TO.N,RELAY_CTRL*%
X152050000Y-53930000D03*
%TO.P,U5,7,IO7*%
%TO.N,/MCU and Communications/ETH_TXD1*%
X152050000Y-52660000D03*
%TO.P,U5,6,IO6*%
%TO.N,/MCU and Communications/ETH_TXD0*%
X152050000Y-51390000D03*
%TO.P,U5,5,IO5*%
%TO.N,I2C_SCL*%
X152050000Y-50120000D03*
%TO.P,U5,4,IO4*%
%TO.N,I2C_SDA*%
X152050000Y-48850000D03*
%TO.P,U5,3,EN*%
%TO.N,ESP32_EN*%
X152050000Y-47580000D03*
%TO.P,U5,2,3V3*%
%TO.N,+3V3*%
X152050000Y-46310000D03*
%TO.P,U5,1,GND*%
%TO.N,GND*%
X152050000Y-45040000D03*
%TD*%
D28*
%TO.P,U9,25,VSS*%
%TO.N,GND*%
X150040000Y-68860000D03*
D29*
%TO.P,U9,24,RBIAS*%
%TO.N,Net-(U9-RBIAS)*%
X151290000Y-70810000D03*
%TO.P,U9,23,RXP*%
%TO.N,/MCU and Communications/ETH_RXP*%
X150790000Y-70810000D03*
%TO.P,U9,22,RXN*%
%TO.N,/MCU and Communications/ETH_RXN*%
X150290000Y-70810000D03*
%TO.P,U9,21,TXP*%
%TO.N,/MCU and Communications/ETH_TXP*%
X149790000Y-70810000D03*
%TO.P,U9,20,TXN*%
%TO.N,/MCU and Communications/ETH_TXN*%
X149290000Y-70810000D03*
%TO.P,U9,19,VDD1A*%
%TO.N,+3V3*%
X148790000Y-70810000D03*
D30*
%TO.P,U9,18,TXD1*%
%TO.N,/MCU and Communications/ETH_TXD1*%
X148090000Y-70110000D03*
%TO.P,U9,17,TXD0*%
%TO.N,/MCU and Communications/ETH_TXD0*%
X148090000Y-69610000D03*
%TO.P,U9,16,TXEN*%
%TO.N,/MCU and Communications/ETH_TXEN*%
X148090000Y-69110000D03*
%TO.P,U9,15,~{RST}*%
%TO.N,Net-(U9-~{RST})*%
X148090000Y-68610000D03*
%TO.P,U9,14,~{INT}/REFCLKO*%
%TO.N,unconnected-(U9-~{INT}{slash}REFCLKO-Pad14)*%
X148090000Y-68110000D03*
%TO.P,U9,13,MDC*%
%TO.N,/MCU and Communications/ETH_MDC*%
X148090000Y-67610000D03*
D29*
%TO.P,U9,12,MDIO*%
%TO.N,/MCU and Communications/ETH_MDIO*%
X148790000Y-66910000D03*
%TO.P,U9,11,CRS_DV/MODE2*%
%TO.N,/MCU and Communications/ETH_CRS_DV*%
X149290000Y-66910000D03*
%TO.P,U9,10,RXER/PHYAD0*%
%TO.N,unconnected-(U9-RXER{slash}PHYAD0-Pad10)*%
X149790000Y-66910000D03*
%TO.P,U9,9,VDDIO*%
%TO.N,Net-(U9-VDDIO)*%
X150290000Y-66910000D03*
%TO.P,U9,8,RXD0/MODE0*%
%TO.N,/MCU and Communications/ETH_RXD0*%
X150790000Y-66910000D03*
%TO.P,U9,7,RXD1/MODE1*%
%TO.N,/MCU and Communications/ETH_RXD1*%
X151290000Y-66910000D03*
D30*
%TO.P,U9,6,VDDCR*%
%TO.N,+3V3*%
X151990000Y-67610000D03*
%TO.P,U9,5,XTAL1/CLKIN*%
%TO.N,/MCU and Communications/ETH_CLK_OUT*%
X151990000Y-68110000D03*
%TO.P,U9,4,XTAL2*%
%TO.N,unconnected-(U9-XTAL2-Pad4)*%
X151990000Y-68610000D03*
%TO.P,U9,3,LED1/REGOFF*%
%TO.N,unconnected-(U9-LED1{slash}REGOFF-Pad3)*%
X151990000Y-69110000D03*
%TO.P,U9,2,LED2/~{INTSEL}*%
%TO.N,unconnected-(U9-LED2{slash}~{INTSEL}-Pad2)*%
X151990000Y-69610000D03*
%TO.P,U9,1,VDD2A*%
%TO.N,+3V3*%
X151990000Y-70110000D03*
%TD*%
D31*
%TO.P,C13,1*%
%TO.N,+3V3*%
X149000000Y-46000000D03*
%TO.P,C13,2*%
%TO.N,GND*%
X149000000Y-47550000D03*
%TD*%
%TO.P,C12,1*%
%TO.N,+3V3*%
X185500000Y-64600000D03*
%TO.P,C12,2*%
%TO.N,GND*%
X185500000Y-66150000D03*
%TD*%
D32*
%TO.P,R14,1*%
%TO.N,GND*%
X157700000Y-68150000D03*
%TO.P,R14,2*%
%TO.N,Net-(U9-RBIAS)*%
X157700000Y-69800000D03*
%TD*%
D33*
%TO.P,C16,1*%
%TO.N,+5V*%
X165650000Y-85600000D03*
%TO.P,C16,2*%
%TO.N,GND*%
X167200000Y-85600000D03*
%TD*%
D34*
%TO.P,U10,1,WDI*%
%TO.N,/MCU and Communications/WATCHDOG_WDI*%
X178162500Y-65725000D03*
%TO.P,U10,2,GND*%
%TO.N,GND*%
X178162500Y-66375000D03*
%TO.P,U10,3,NC*%
%TO.N,unconnected-(U10-NC-Pad3)*%
X178162500Y-67025000D03*
%TO.P,U10,4,SET0*%
%TO.N,+3V3*%
X178162500Y-67675000D03*
%TO.P,U10,5,SET1*%
X180437500Y-67675000D03*
%TO.P,U10,6,SET2*%
X180437500Y-67025000D03*
%TO.P,U10,7,~{WDO}*%
%TO.N,ESP32_EN*%
X180437500Y-66375000D03*
%TO.P,U10,8,VCC*%
%TO.N,+3V3*%
X180437500Y-65725000D03*
%TD*%
D35*
%TO.P,C11,1*%
%TO.N,+3V3*%
X156200000Y-69750000D03*
%TO.P,C11,2*%
%TO.N,GND*%
X156200000Y-68200000D03*
%TD*%
D33*
%TO.P,C10,1*%
%TO.N,+3V3*%
X137790000Y-45100000D03*
%TO.P,C10,2*%
%TO.N,GND*%
X139340000Y-45100000D03*
%TD*%
D36*
%TO.P,R5,1*%
%TO.N,+3V3*%
X136375000Y-77000000D03*
%TO.P,R5,2*%
%TO.N,Net-(D7-K)*%
X138025000Y-77000000D03*
%TD*%
D37*
%TO.P,J22,1,Pin_1*%
%TO.N,+24V*%
X120200000Y-109500000D03*
D38*
%TO.P,J22,2,Pin_2*%
%TO.N,GND*%
X125280000Y-109500000D03*
%TD*%
D36*
%TO.P,R3,1*%
%TO.N,+24V*%
X136350000Y-71000000D03*
%TO.P,R3,2*%
%TO.N,Net-(D5-K)*%
X138000000Y-71000000D03*
%TD*%
D39*
%TO.P,TP1,1,1*%
%TO.N,+24V*%
X123300000Y-75100000D03*
%TD*%
D36*
%TO.P,R45,1*%
%TO.N,+3V3*%
X165600000Y-82500000D03*
%TO.P,R45,2*%
%TO.N,/MCU and Communications/BTN2*%
X167250000Y-82500000D03*
%TD*%
D32*
%TO.P,R1,1*%
%TO.N,/Power System/V5V_BUCK*%
X107500000Y-77650000D03*
%TO.P,R1,2*%
%TO.N,Net-(U1-FB)*%
X107500000Y-79300000D03*
%TD*%
%TO.P,R6,1*%
%TO.N,/MCU and Communications/USB_CC1*%
X136300000Y-54400000D03*
%TO.P,R6,2*%
%TO.N,GND*%
X136300000Y-56050000D03*
%TD*%
D23*
%TO.P,R21,1*%
%TO.N,Net-(JP2-A)*%
X182800000Y-95100000D03*
%TO.P,R21,2*%
%TO.N,Net-(R21-Pad2)*%
X181150000Y-95100000D03*
%TD*%
D40*
%TO.P,R41,1*%
%TO.N,+3V3*%
X180100000Y-56925000D03*
%TO.P,R41,2*%
%TO.N,Net-(SW2-B)*%
X180100000Y-55275000D03*
%TD*%
D41*
%TO.P,J23,1,Pin_1*%
%TO.N,REMOTE_OUT*%
X162600000Y-69300000D03*
D42*
%TO.P,J23,2,Pin_2*%
%TO.N,GND*%
X165100000Y-69300000D03*
%TD*%
D36*
%TO.P,R24,1*%
%TO.N,FAN_PWM*%
X119450000Y-62200000D03*
%TO.P,R24,2*%
%TO.N,GND*%
X121100000Y-62200000D03*
%TD*%
D43*
%TO.P,D5,1,K*%
%TO.N,Net-(D5-K)*%
X138000000Y-72500000D03*
%TO.P,D5,2,A*%
%TO.N,GND*%
X136425000Y-72500000D03*
%TD*%
D44*
%TO.P,Q5,1,G*%
%TO.N,Net-(Q4-G)*%
X125550000Y-93960000D03*
D45*
%TO.P,Q5,2,D*%
%TO.N,+24V_SW*%
X125550000Y-96500000D03*
%TO.P,Q5,3,S*%
%TO.N,+24V*%
X125550000Y-99040000D03*
%TD*%
D46*
%TO.P,C2,1*%
%TO.N,/Power System/V5V_BUCK*%
X113000000Y-74450000D03*
%TO.P,C2,2*%
%TO.N,GND*%
X113000000Y-71500000D03*
%TD*%
D32*
%TO.P,R17,1*%
%TO.N,RELAY_CTRL*%
X136800000Y-61700000D03*
%TO.P,R17,2*%
%TO.N,GND*%
X136800000Y-63350000D03*
%TD*%
D43*
%TO.P,D7,1,K*%
%TO.N,Net-(D7-K)*%
X137975000Y-78500000D03*
%TO.P,D7,2,A*%
%TO.N,GND*%
X136400000Y-78500000D03*
%TD*%
D23*
%TO.P,R22,1*%
%TO.N,Net-(JP3-A)*%
X182000000Y-98400000D03*
%TO.P,R22,2*%
%TO.N,Net-(R22-Pad2)*%
X180350000Y-98400000D03*
%TD*%
D47*
%TO.P,C7,1*%
%TO.N,/Power System/+5V_RF*%
X113300000Y-55100000D03*
D48*
%TO.P,C7,2*%
%TO.N,GND*%
X110800000Y-55100000D03*
%TD*%
D49*
%TO.P,C1,1*%
%TO.N,+24V_SW*%
X152200000Y-90300000D03*
D50*
%TO.P,C1,2*%
%TO.N,GND*%
X152200000Y-95300000D03*
%TD*%
D51*
%TO.P,Q1,1,G*%
%TO.N,Net-(DZ1-A)*%
X116300000Y-79500000D03*
%TO.P,Q1,2,S*%
%TO.N,Net-(Q1-S)*%
X118200000Y-79500000D03*
%TO.P,Q1,3,D*%
%TO.N,/Power System/+24V_CTRL*%
X117250000Y-77625000D03*
%TD*%
D37*
%TO.P,J16,1,Pin_1*%
%TO.N,Net-(J16-Pin_1)*%
X131520000Y-109400000D03*
D38*
%TO.P,J16,2,Pin_2*%
%TO.N,GND*%
X136600000Y-109400000D03*
%TD*%
D52*
%TO.P,J5,1,Pin_1*%
%TO.N,GND*%
X152600000Y-76100000D03*
D53*
%TO.P,J5,2,Pin_2*%
%TO.N,+3V3*%
X155100000Y-76100000D03*
%TO.P,J5,3,Pin_3*%
%TO.N,I2C_SDA*%
X157600000Y-76100000D03*
%TO.P,J5,4,Pin_4*%
%TO.N,I2C_SCL*%
X160100000Y-76100000D03*
%TO.P,J5,5,Pin_5*%
%TO.N,/MCU and Communications/BTN1*%
X162600000Y-76100000D03*
%TO.P,J5,6,Pin_6*%
%TO.N,/MCU and Communications/BTN2*%
X165100000Y-76100000D03*
%TD*%
D31*
%TO.P,C21,1*%
%TO.N,/Power System/U1_SS*%
X107100000Y-98600000D03*
%TO.P,C21,2*%
%TO.N,GND*%
X107100000Y-100150000D03*
%TD*%
D54*
%TO.P,J21,1,Pin_1*%
%TO.N,GND*%
X199100000Y-96430000D03*
D50*
%TO.P,J21,2,Pin_2*%
%TO.N,/MCU and Communications/REMOTE*%
X199100000Y-92620000D03*
%TO.P,J21,3,Pin_3*%
%TO.N,GND*%
X199100000Y-88810000D03*
%TO.P,J21,4,Pin_4*%
%TO.N,/MCU and Communications/MIC_SENS*%
X199100000Y-85000000D03*
%TD*%
D55*
%TO.P,JP2,1,A*%
%TO.N,Net-(JP2-A)*%
X188900000Y-95800000D03*
D56*
%TO.P,JP2,2,C*%
%TO.N,SIG_CH2*%
X188900000Y-94500000D03*
D57*
%TO.P,JP2,3,B*%
%TO.N,+3V3*%
X188900000Y-93200000D03*
%TD*%
D58*
%TO.P,Q6,1,G*%
%TO.N,RELAY_CTRL*%
X131900000Y-65800000D03*
%TO.P,Q6,2,S*%
%TO.N,GND*%
X131900000Y-63900000D03*
%TO.P,Q6,3,D*%
%TO.N,Net-(Q6-D)*%
X130025000Y-64850000D03*
%TD*%
D59*
%TO.P,L2,1,1*%
%TO.N,/Power System/+5V_RF*%
X115900000Y-58700000D03*
%TO.P,L2,2,2*%
%TO.N,Net-(Q9-D)*%
X115900000Y-61500000D03*
%TD*%
D39*
%TO.P,TP2,1,1*%
%TO.N,+5V*%
X112300000Y-67700000D03*
%TD*%
D55*
%TO.P,JP4,1,A*%
%TO.N,Net-(JP4-A)*%
X188900000Y-100800000D03*
D56*
%TO.P,JP4,2,C*%
%TO.N,SIG_CH4*%
X188900000Y-99500000D03*
D57*
%TO.P,JP4,3,B*%
%TO.N,+3V3*%
X188900000Y-98200000D03*
%TD*%
D36*
%TO.P,R47,1*%
%TO.N,+3V3*%
X192450000Y-87200000D03*
%TO.P,R47,2*%
%TO.N,/MCU and Communications/MIC_SENS*%
X194100000Y-87200000D03*
%TD*%
D23*
%TO.P,R23,1*%
%TO.N,Net-(JP4-A)*%
X185900000Y-100800000D03*
%TO.P,R23,2*%
%TO.N,Net-(R23-Pad2)*%
X184250000Y-100800000D03*
%TD*%
D35*
%TO.P,C9,1*%
%TO.N,/Power System/+5V_RF*%
X116300000Y-53975000D03*
%TO.P,C9,2*%
%TO.N,GND*%
X116300000Y-52425000D03*
%TD*%
D40*
%TO.P,R36,1*%
%TO.N,+3V3*%
X141500000Y-77600000D03*
%TO.P,R36,2*%
%TO.N,I2C_SCL*%
X141500000Y-75950000D03*
%TD*%
D31*
%TO.P,C22,1*%
%TO.N,Net-(C22-Pad1)*%
X108600000Y-98600000D03*
%TO.P,C22,2*%
%TO.N,GND*%
X108600000Y-100150000D03*
%TD*%
D60*
%TO.P,U1,1,BS*%
%TO.N,Net-(U1-BS)*%
X112975000Y-89705000D03*
%TO.P,U1,2,IN*%
%TO.N,/Power System/+24V_CTRL*%
X112975000Y-88435000D03*
%TO.P,U1,3,SW*%
%TO.N,Net-(D2-K)*%
X112975000Y-87165000D03*
%TO.P,U1,4,GND*%
%TO.N,GND*%
X112975000Y-85895000D03*
%TO.P,U1,5,FB*%
%TO.N,Net-(U1-FB)*%
X108025000Y-85895000D03*
%TO.P,U1,6,COMP*%
%TO.N,/Power System/U1_COMP*%
X108025000Y-87165000D03*
%TO.P,U1,7,EN*%
%TO.N,/Power System/+24V_CTRL*%
X108025000Y-88435000D03*
%TO.P,U1,8,SS*%
%TO.N,/Power System/U1_SS*%
X108025000Y-89705000D03*
%TD*%
D40*
%TO.P,R31,1*%
%TO.N,+5V*%
X119900000Y-66200000D03*
%TO.P,R31,2*%
%TO.N,Net-(Q6-D)*%
X119900000Y-64550000D03*
%TD*%
D23*
%TO.P,R29,1*%
%TO.N,GND*%
X126500000Y-77300000D03*
%TO.P,R29,2*%
%TO.N,Net-(DZ1-A)*%
X124850000Y-77300000D03*
%TD*%
D61*
%TO.P,F1,1*%
%TO.N,Net-(Q1-S)*%
X115600000Y-91709140D03*
%TO.P,F1,2*%
%TO.N,+24V*%
X115600000Y-95984140D03*
%TD*%
D62*
%TO.P,C5,1*%
%TO.N,+5V*%
X121500000Y-70400000D03*
%TO.P,C5,2*%
%TO.N,GND*%
X121500000Y-72300000D03*
%TD*%
D40*
%TO.P,R30,1*%
%TO.N,Net-(Q4-G)*%
X134100000Y-65100000D03*
%TO.P,R30,2*%
%TO.N,Net-(Q2-D)*%
X134100000Y-63450000D03*
%TD*%
D63*
%TO.P,SW2 BOOT,1,A*%
%TO.N,GND*%
X179750000Y-45520000D03*
X179750000Y-53480000D03*
%TO.P,SW2 BOOT,2,B*%
%TO.N,Net-(SW2-B)*%
X175250000Y-45520000D03*
X175250000Y-53480000D03*
%TD*%
D31*
%TO.P,C4,1*%
%TO.N,/Power System/+24V_CTRL*%
X113500000Y-82700000D03*
%TO.P,C4,2*%
%TO.N,GND*%
X113500000Y-84250000D03*
%TD*%
D64*
%TO.P,Q2,1,G*%
%TO.N,RELAY_CTRL*%
X132825000Y-60050000D03*
%TO.P,Q2,2,S*%
%TO.N,GND*%
X132825000Y-61950000D03*
%TO.P,Q2,3,D*%
%TO.N,Net-(Q2-D)*%
X134700000Y-61000000D03*
%TD*%
D32*
%TO.P,R35,1*%
%TO.N,/Power System/U1_COMP*%
X108300000Y-95550000D03*
%TO.P,R35,2*%
%TO.N,Net-(C22-Pad1)*%
X108300000Y-97200000D03*
%TD*%
D36*
%TO.P,R19,1*%
%TO.N,+3V3*%
X137750000Y-51200000D03*
%TO.P,R19,2*%
%TO.N,ESP32_EN*%
X139400000Y-51200000D03*
%TD*%
D55*
%TO.P,JP3,1,A*%
%TO.N,Net-(JP3-A)*%
X185300000Y-98400000D03*
D56*
%TO.P,JP3,2,C*%
%TO.N,SIG_CH3*%
X185300000Y-97100000D03*
D57*
%TO.P,JP3,3,B*%
%TO.N,+3V3*%
X185300000Y-95800000D03*
%TD*%
D37*
%TO.P,J7,1,Pin_1*%
%TO.N,LED_24V_CH3*%
X184660000Y-109500000D03*
D38*
%TO.P,J7,2,Pin_2*%
%TO.N,GND*%
X189740000Y-109500000D03*
%TO.P,J7,3,Pin_3*%
%TO.N,SIG_CH4*%
X194820000Y-109500000D03*
%TO.P,J7,4,Pin_4*%
%TO.N,LED_24V_CH3*%
X199900000Y-109500000D03*
%TD*%
D36*
%TO.P,R4,1*%
%TO.N,+5V*%
X136350000Y-74000000D03*
%TO.P,R4,2*%
%TO.N,Net-(D6-K)*%
X138000000Y-74000000D03*
%TD*%
D59*
%TO.P,L1,1,1*%
%TO.N,/Power System/V5V_BUCK*%
X112500000Y-76500000D03*
%TO.P,L1,2,2*%
%TO.N,Net-(D2-K)*%
X112500000Y-79300000D03*
%TD*%
D65*
%TO.P,C6,1*%
%TO.N,+3V3*%
X138000000Y-66600000D03*
%TO.P,C6,2*%
%TO.N,GND*%
X140950000Y-66600000D03*
%TD*%
D66*
%TO.P,D3,1,K*%
%TO.N,+5V*%
X108500000Y-70100000D03*
%TO.P,D3,2,A*%
%TO.N,/Power System/V5V_BUCK*%
X108500000Y-74100000D03*
%TD*%
D44*
%TO.P,Q4,1,G*%
%TO.N,Net-(Q4-G)*%
X119400000Y-93960000D03*
D45*
%TO.P,Q4,2,D*%
%TO.N,+24V_SW*%
X119400000Y-96500000D03*
%TO.P,Q4,3,S*%
%TO.N,+24V*%
X119400000Y-99040000D03*
%TD*%
D67*
%TO.P,U2,1,GND*%
%TO.N,GND*%
X130700000Y-68800000D03*
%TO.P,U2,2,VO*%
%TO.N,+3V3*%
X128400000Y-68800000D03*
D68*
X128400000Y-75100000D03*
D67*
%TO.P,U2,3,VI*%
%TO.N,+5V*%
X126100000Y-68800000D03*
%TD*%
D40*
%TO.P,R33,1*%
%TO.N,/Power System/+5V_RF*%
X107700000Y-56550000D03*
%TO.P,R33,2*%
%TO.N,Net-(J2-CC2)*%
X107700000Y-54900000D03*
%TD*%
D69*
%TO.P,C17,1*%
%TO.N,ESP32_EN*%
X139350000Y-52800000D03*
%TO.P,C17,2*%
%TO.N,GND*%
X137800000Y-52800000D03*
%TD*%
D55*
%TO.P,JP1,1,A*%
%TO.N,Net-(JP1-A)*%
X185300000Y-93000000D03*
D56*
%TO.P,JP1,2,C*%
%TO.N,SIG_CH1*%
X185300000Y-91700000D03*
D57*
%TO.P,JP1,3,B*%
%TO.N,+3V3*%
X185300000Y-90400000D03*
%TD*%
D40*
%TO.P,R46,1*%
%TO.N,+3V3*%
X194100000Y-94850000D03*
%TO.P,R46,2*%
%TO.N,/MCU and Communications/REMOTE*%
X194100000Y-93200000D03*
%TD*%
D70*
%TO.P,U12,1,SCL*%
%TO.N,I2C_SCL*%
X146200000Y-76050000D03*
%TO.P,U12,2,GND*%
%TO.N,GND*%
X146200000Y-77000000D03*
%TO.P,U12,3,ALERT*%
%TO.N,unconnected-(U12-ALERT-Pad3)*%
X146200000Y-77950000D03*
%TO.P,U12,4,ADD0*%
%TO.N,GND*%
X148475000Y-77950000D03*
%TO.P,U12,5,V+*%
%TO.N,+3V3*%
X148475000Y-77000000D03*
%TO.P,U12,6,SDA*%
%TO.N,I2C_SDA*%
X148475000Y-76050000D03*
%TD*%
D71*
%TO.P,D10,1,K*%
%TO.N,+24V*%
X122250000Y-54800000D03*
%TO.P,D10,2,A*%
%TO.N,Net-(D10-A)*%
X118950000Y-54800000D03*
%TD*%
D51*
%TO.P,Q3,1,G*%
%TO.N,FAN_PWM*%
X119400000Y-60400000D03*
%TO.P,Q3,2,S*%
%TO.N,GND*%
X121300000Y-60400000D03*
%TO.P,Q3,3,D*%
%TO.N,Net-(D10-A)*%
X120350000Y-58525000D03*
%TD*%
D72*
%TO.P,C20,1*%
%TO.N,+5V*%
X109000000Y-62500000D03*
D48*
%TO.P,C20,2*%
%TO.N,GND*%
X111500000Y-62500000D03*
%TD*%
D37*
%TO.P,J6,1,Pin_1*%
%TO.N,GND*%
X142920000Y-109467500D03*
D38*
%TO.P,J6,2,Pin_2*%
%TO.N,SIG_CH1*%
X148000000Y-109467500D03*
%TO.P,J6,3,Pin_3*%
%TO.N,LED_24V_CH3*%
X153080000Y-109467500D03*
%TO.P,J6,4,Pin_4*%
%TO.N,GND*%
X158160000Y-109467500D03*
%TO.P,J6,5,Pin_5*%
%TO.N,SIG_CH2*%
X163240000Y-109467500D03*
%TO.P,J6,6,Pin_6*%
%TO.N,LED_24V_CH3*%
X168320000Y-109467500D03*
%TO.P,J6,7,Pin_7*%
%TO.N,GND*%
X173400000Y-109467500D03*
%TO.P,J6,8,Pin_8*%
%TO.N,SIG_CH3*%
X178480000Y-109467500D03*
%TD*%
D73*
%TO.P,J3,1,Pin_1*%
%TO.N,+24V*%
X133775000Y-70380000D03*
D74*
%TO.P,J3,2,Pin_2*%
%TO.N,+5V*%
X133775000Y-72920000D03*
%TO.P,J3,3,Pin_3*%
%TO.N,+3V3*%
X133775000Y-75460000D03*
%TO.P,J3,4,Pin_4*%
%TO.N,GND*%
X133775000Y-78000000D03*
%TD*%
D40*
%TO.P,R32,1*%
%TO.N,/Power System/+5V_RF*%
X116900000Y-57150000D03*
%TO.P,R32,2*%
%TO.N,Net-(J2-CC1)*%
X116900000Y-55500000D03*
%TD*%
D75*
%TO.P,Q9,1,G*%
%TO.N,Net-(Q6-D)*%
X116800000Y-63900000D03*
%TO.P,Q9,2,S*%
%TO.N,+5V*%
X114900000Y-63900000D03*
%TO.P,Q9,3,D*%
%TO.N,Net-(Q9-D)*%
X115850000Y-65775000D03*
%TD*%
D32*
%TO.P,R7,1*%
%TO.N,/MCU and Communications/USB_CC2*%
X127100000Y-54400000D03*
%TO.P,R7,2*%
%TO.N,GND*%
X127100000Y-56050000D03*
%TD*%
D76*
%TO.P,D1,1,A1*%
%TO.N,+24V*%
X111300000Y-96300000D03*
%TO.P,D1,2,A2*%
%TO.N,GND*%
X111300000Y-92000000D03*
%TD*%
D39*
%TO.P,TP3,1,1*%
%TO.N,+3V3*%
X143200000Y-66500000D03*
%TD*%
D40*
%TO.P,R25,1*%
%TO.N,+24V*%
X108300000Y-94150000D03*
%TO.P,R25,2*%
%TO.N,Net-(Q4-G)*%
X108300000Y-92500000D03*
%TD*%
D77*
%TO.P,D11,1,A1*%
%TO.N,GND*%
X188900000Y-86700000D03*
%TO.P,D11,2,A2*%
%TO.N,/MCU and Communications/RS485_A*%
X188900000Y-83400000D03*
%TD*%
D78*
%TO.P,D2,1,K*%
%TO.N,Net-(D2-K)*%
X117500000Y-74500000D03*
%TO.P,D2,2,A*%
%TO.N,GND*%
X117500000Y-70500000D03*
%TD*%
D23*
%TO.P,R20,1*%
%TO.N,Net-(JP1-A)*%
X182750000Y-93000000D03*
%TO.P,R20,2*%
%TO.N,Net-(R20-Pad2)*%
X181100000Y-93000000D03*
%TD*%
D40*
%TO.P,R37,1*%
%TO.N,+3V3*%
X143000000Y-77550000D03*
%TO.P,R37,2*%
%TO.N,I2C_SDA*%
X143000000Y-75900000D03*
%TD*%
D23*
%TO.P,R10,1*%
%TO.N,/MCU and Communications/RS485_B*%
X177275000Y-88500000D03*
%TO.P,R10,2*%
%TO.N,GND*%
X175625000Y-88500000D03*
%TD*%
D37*
%TO.P,J1,1,Pin_1*%
%TO.N,+24V*%
X108920000Y-109500000D03*
D38*
%TO.P,J1,2,Pin_2*%
%TO.N,GND*%
X114000000Y-109500000D03*
%TD*%
D63*
%TO.P,SW1 RESET,1,1*%
%TO.N,ESP32_EN*%
X145850000Y-45420000D03*
X145850000Y-53380000D03*
%TO.P,SW1 RESET,2,2*%
%TO.N,GND*%
X141350000Y-45420000D03*
X141350000Y-53380000D03*
%TD*%
D79*
%TO.P,U8,1,RO*%
%TO.N,/MCU and Communications/RS485_RX*%
X178225000Y-71295000D03*
%TO.P,U8,2,~{RE}*%
%TO.N,/MCU and Communications/RS485_DE*%
X178225000Y-72565000D03*
%TO.P,U8,3,DE*%
X178225000Y-73835000D03*
%TO.P,U8,4,DI*%
%TO.N,/MCU and Communications/RS485_TX*%
X178225000Y-75105000D03*
%TO.P,U8,5,GND*%
%TO.N,GND*%
X183175000Y-75105000D03*
%TO.P,U8,6,A*%
%TO.N,/MCU and Communications/RS485_A*%
X183175000Y-73835000D03*
%TO.P,U8,7,B*%
%TO.N,/MCU and Communications/RS485_B*%
X183175000Y-72565000D03*
%TO.P,U8,8,VCC*%
%TO.N,+3V3*%
X183175000Y-71295000D03*
%TD*%
D43*
%TO.P,D6,1,K*%
%TO.N,Net-(D6-K)*%
X137987500Y-75500000D03*
%TO.P,D6,2,A*%
%TO.N,GND*%
X136412500Y-75500000D03*
%TD*%
D36*
%TO.P,R9,1*%
%TO.N,+3V3*%
X183075000Y-88500000D03*
%TO.P,R9,2*%
%TO.N,/MCU and Communications/RS485_A*%
X184725000Y-88500000D03*
%TD*%
D80*
%TO.P,J13,1,Pin_1*%
%TO.N,+24V*%
X123305000Y-48382500D03*
D50*
%TO.P,J13,2,Pin_2*%
%TO.N,Net-(D10-A)*%
X119495000Y-48382500D03*
%TD*%
D81*
%TO.P,FB1,1*%
%TO.N,Net-(U9-VDDIO)*%
X149500000Y-62200000D03*
%TO.P,FB1,2*%
%TO.N,+3V3*%
X147375000Y-62200000D03*
%TD*%
D60*
%TO.P,U11,1*%
%TO.N,GND*%
X173600000Y-99750000D03*
%TO.P,U11,2*%
%TO.N,LED_CH1*%
X173600000Y-98480000D03*
%TO.P,U11,3*%
%TO.N,Net-(R20-Pad2)*%
X173600000Y-97210000D03*
%TO.P,U11,4*%
%TO.N,GND*%
X173600000Y-95940000D03*
%TO.P,U11,5*%
%TO.N,LED_CH2*%
X173600000Y-94670000D03*
%TO.P,U11,6*%
%TO.N,Net-(R21-Pad2)*%
X173600000Y-93400000D03*
%TO.P,U11,7,GND*%
%TO.N,GND*%
X173600000Y-92130000D03*
%TO.P,U11,8*%
%TO.N,Net-(R22-Pad2)*%
X168650000Y-92130000D03*
%TO.P,U11,9*%
%TO.N,LED_CH3*%
X168650000Y-93400000D03*
%TO.P,U11,10*%
%TO.N,GND*%
X168650000Y-94670000D03*
%TO.P,U11,11*%
%TO.N,Net-(R23-Pad2)*%
X168650000Y-95940000D03*
%TO.P,U11,12*%
%TO.N,LED_CH4*%
X168650000Y-97210000D03*
%TO.P,U11,13*%
%TO.N,GND*%
X168650000Y-98480000D03*
%TO.P,U11,14,VCC*%
%TO.N,+5V*%
X168650000Y-99750000D03*
%TD*%
D71*
%TO.P,DZ1,1,K*%
%TO.N,+24V*%
X123450000Y-78500000D03*
%TO.P,DZ1,2,A*%
%TO.N,Net-(DZ1-A)*%
X120150000Y-78500000D03*
%TD*%
%TO.P,D12,1,A1*%
%TO.N,GND*%
X194100000Y-83800000D03*
%TO.P,D12,2,A2*%
%TO.N,/MCU and Communications/RS485_B*%
X190800000Y-83800000D03*
%TD*%
D40*
%TO.P,R15,1*%
%TO.N,Net-(U9-~{RST})*%
X145700000Y-61750000D03*
%TO.P,R15,2*%
%TO.N,+3V3*%
X145700000Y-60100000D03*
%TD*%
D35*
%TO.P,C3,1*%
%TO.N,Net-(U1-BS)*%
X110500000Y-84050000D03*
%TO.P,C3,2*%
%TO.N,Net-(D2-K)*%
X110500000Y-82500000D03*
%TD*%
%TO.P,C18,1*%
%TO.N,+3V3*%
X144500000Y-77550000D03*
%TO.P,C18,2*%
%TO.N,GND*%
X144500000Y-76000000D03*
%TD*%
D78*
%TO.P,D4,1,K*%
%TO.N,+5V*%
X139500000Y-62300000D03*
%TO.P,D4,2,A*%
%TO.N,VBUS*%
X139500000Y-58300000D03*
%TD*%
D40*
%TO.P,R2,1*%
%TO.N,Net-(U1-FB)*%
X107400000Y-84050000D03*
%TO.P,R2,2*%
%TO.N,GND*%
X107400000Y-82400000D03*
%TD*%
D36*
%TO.P,R44,1*%
%TO.N,+3V3*%
X165600000Y-80900000D03*
%TO.P,R44,2*%
%TO.N,/MCU and Communications/BTN1*%
X167250000Y-80900000D03*
%TD*%
D82*
%TO.N,+24V*%
X125355976Y-72376886D03*
X123200000Y-66300000D03*
%TO.N,GND*%
X144300000Y-48100000D03*
X131100000Y-62500000D03*
X135700000Y-62200000D03*
D83*
X127900000Y-64300000D03*
D82*
X131600000Y-78100000D03*
X168100000Y-45100000D03*
X121400000Y-59000000D03*
X175200000Y-99700000D03*
X142600000Y-44800000D03*
D84*
X150040000Y-68860000D03*
D82*
X175250000Y-95850000D03*
X164000000Y-67400000D03*
X143200000Y-53600000D03*
X119900000Y-72600000D03*
X157700000Y-66900000D03*
X147300000Y-75200000D03*
X175300000Y-92000000D03*
X189600000Y-85000000D03*
X131200000Y-73800000D03*
X112585252Y-84909128D03*
X114200000Y-68900000D03*
X108600000Y-81100000D03*
X125800000Y-79000000D03*
X176575000Y-89600000D03*
X109900000Y-99400000D03*
X135014939Y-55433959D03*
X110814137Y-89685862D03*
X179800000Y-47100000D03*
X171200000Y-45100000D03*
D83*
X123700000Y-64200000D03*
D82*
X141000000Y-68500000D03*
X167100000Y-98400000D03*
X168100000Y-86900000D03*
X185500000Y-67500000D03*
X184925000Y-74610000D03*
X167000000Y-94500000D03*
X153800000Y-45100000D03*
X180000000Y-52000000D03*
X176700000Y-66700000D03*
X137900000Y-54200000D03*
X119700000Y-68900000D03*
%TO.N,+5V*%
X135396033Y-79136685D03*
X163500000Y-79000000D03*
X165600000Y-83800000D03*
%TO.N,+3V3*%
X168901992Y-89351992D03*
X141300000Y-64800000D03*
X172773008Y-79876992D03*
X171850000Y-89300000D03*
X126100000Y-71500000D03*
X181400000Y-71300000D03*
X171849999Y-81782411D03*
X153500000Y-69750000D03*
X148100000Y-71525000D03*
X123900000Y-62000000D03*
X153458349Y-68076374D03*
X144844778Y-60923752D03*
X167525000Y-48999466D03*
X181800000Y-66900000D03*
X172568008Y-47231992D03*
X137400000Y-68300000D03*
X143465824Y-63513132D03*
%TO.N,ESP32_EN*%
X172800000Y-48800000D03*
X145800000Y-48495000D03*
X167525000Y-50099469D03*
X144700000Y-45745000D03*
%TO.N,/MCU and Communications/USB_DM*%
X149475000Y-55300000D03*
X133230000Y-53870002D03*
X135030000Y-53870002D03*
X146500000Y-55100000D03*
%TO.N,I2C_SCL*%
X156578764Y-74025000D03*
X158600000Y-74300000D03*
%TO.N,/MCU and Communications/USB_DP*%
X134989338Y-56954643D03*
X132990272Y-54943564D03*
X146500000Y-56200003D03*
X149475000Y-56400002D03*
%TO.N,/MCU and Communications/ETH_TXN*%
X174125000Y-74000000D03*
X168050000Y-74000006D03*
X187740000Y-56599997D03*
%TO.N,/MCU and Communications/ETH_RXP*%
X174125000Y-70699994D03*
X168050000Y-70699997D03*
%TO.N,/MCU and Communications/ETH_RXN*%
X174125000Y-71799997D03*
X168050000Y-71800000D03*
%TO.N,/MCU and Communications/RS485_A*%
X185700000Y-81525000D03*
X185900000Y-83075000D03*
%TO.N,RELAY_CTRL*%
X151000000Y-53900000D03*
X142725000Y-57325000D03*
X142725000Y-62700000D03*
X132800000Y-64800000D03*
X131500000Y-61000000D03*
X138200000Y-64600000D03*
%TO.N,/MCU and Communications/ETH_TXP*%
X174125000Y-72900000D03*
X168050000Y-72900003D03*
X187740000Y-57700000D03*
%TO.N,FAN_PWM*%
X124890000Y-60484645D03*
X153450002Y-52700000D03*
X168149998Y-53500000D03*
X120325000Y-61169643D03*
X140725000Y-56325000D03*
X165900000Y-53400000D03*
%TO.N,/MCU and Communications/ETH_MDC*%
X147865000Y-64675000D03*
X152028985Y-64075000D03*
%TO.N,/MCU and Communications/ETH_TXEN*%
X153600000Y-59100000D03*
X150649998Y-61800000D03*
%TO.N,/MCU and Communications/ETH_RXD1*%
X159484660Y-64184820D03*
X159400000Y-65900000D03*
%TO.N,/MCU and Communications/ETH_TXD1*%
X145410483Y-68815001D03*
X144475000Y-70400000D03*
%TO.N,LED_CH3*%
X167849997Y-65125000D03*
X166603983Y-60950000D03*
%TO.N,/MCU and Communications/ETH_CLK_OUT*%
X154101003Y-66991029D03*
X153432998Y-60877700D03*
%TO.N,LED_CH1*%
X171429492Y-95100000D03*
X171525508Y-92474491D03*
%TO.N,/MCU and Communications/RS485_TX*%
X153600000Y-57999997D03*
X167100000Y-58000003D03*
X155175000Y-58000003D03*
X173400000Y-59000003D03*
%TO.N,/MCU and Communications/RS485_RX*%
X170800000Y-56500000D03*
X173300000Y-56500000D03*
%TO.N,/MCU and Communications/RS485_DE*%
X153600000Y-56899994D03*
X167100000Y-56900000D03*
X173400000Y-57900000D03*
X155175000Y-56900000D03*
%TO.N,/MCU and Communications/ETH_RXD0*%
X158171015Y-64350000D03*
X152782500Y-66117500D03*
%TO.N,Net-(U9-VDDIO)*%
X150300000Y-65800000D03*
X148273220Y-63323352D03*
D85*
%TO.N,+24V_SW*%
X128200000Y-82200000D03*
X125000000Y-83800000D03*
X123400000Y-85400000D03*
X128200000Y-83800000D03*
X126600000Y-85400000D03*
X121800000Y-85400000D03*
X125000000Y-87000000D03*
X118600000Y-85400000D03*
X120200000Y-82200000D03*
X121800000Y-82200000D03*
X118600000Y-83800000D03*
X118600000Y-87000000D03*
X120200000Y-85400000D03*
X125000000Y-85400000D03*
X125000000Y-82200000D03*
X123400000Y-87000000D03*
X120200000Y-87000000D03*
X126600000Y-83800000D03*
X121800000Y-87000000D03*
X128200000Y-87000000D03*
X126600000Y-82200000D03*
X121800000Y-83800000D03*
X120200000Y-83800000D03*
X128200000Y-85400000D03*
X126600000Y-87000000D03*
X123400000Y-82200000D03*
X123400000Y-83800000D03*
D82*
%TO.N,/MCU and Communications/BTN1*%
X166600000Y-64200002D03*
X165800000Y-78000000D03*
X167100000Y-77000000D03*
X166393274Y-65821475D03*
%TO.N,/MCU and Communications/BTN2*%
X165200000Y-65900000D03*
X165300000Y-64200000D03*
%TO.N,REMOTE_OUT*%
X163850000Y-65850000D03*
X164000000Y-64200000D03*
%TO.N,Net-(SW2-B)*%
X175464642Y-47395000D03*
X167825000Y-47900000D03*
X174200000Y-46400000D03*
%TO.N,/MCU and Communications/REMOTE*%
X185993608Y-86003170D03*
X182541042Y-83875000D03*
X170800000Y-55200000D03*
X172800000Y-55200000D03*
%TO.N,/MCU and Communications/MIC_SENS*%
X167703985Y-61400001D03*
X183400000Y-83100000D03*
X186775000Y-85083526D03*
X171575000Y-65600001D03*
%TO.N,Net-(Q4-G)*%
X136708275Y-66650000D03*
X132650000Y-92630426D03*
%TO.N,SIG_CH1*%
X198900000Y-99400000D03*
%TO.N,SIG_CH2*%
X198900000Y-100500003D03*
%TO.N,SIG_CH3*%
X197801149Y-100550339D03*
%TO.N,SIG_CH4*%
X197799203Y-101650340D03*
%TO.N,/MCU and Communications/WATCHDOG_WDI*%
X170800000Y-53900000D03*
X172800000Y-53900000D03*
%TD*%
D86*
%TO.N,/MCU and Communications/RS485_A*%
X182200001Y-73835000D02*
X183175000Y-73835000D01*
X179000000Y-77035001D02*
X182200001Y-73835000D01*
X179000000Y-79000000D02*
X179000000Y-77035001D01*
%TO.N,Net-(SW4-A)*%
X180325000Y-87538604D02*
X180325000Y-88500000D01*
X184175000Y-83688604D02*
X180325000Y-87538604D01*
X183721016Y-82325000D02*
X184175000Y-82778984D01*
X184175000Y-82778984D02*
X184175000Y-83688604D01*
X177000000Y-79500000D02*
X179825000Y-82325000D01*
X177000000Y-79000000D02*
X177000000Y-79500000D01*
X179825000Y-82325000D02*
X183721016Y-82325000D01*
%TO.N,/MCU and Communications/RS485_B*%
X191100000Y-79900000D02*
X191100000Y-75900000D01*
X188615948Y-82300000D02*
X191015948Y-79900000D01*
X185578984Y-82300000D02*
X188615948Y-82300000D01*
X191015948Y-79900000D02*
X191100000Y-79900000D01*
X185125000Y-82753984D02*
X185578984Y-82300000D01*
X184300000Y-84768604D02*
X184300000Y-84200000D01*
X184275000Y-84793604D02*
X184300000Y-84768604D01*
X184300000Y-84200000D02*
X185125000Y-83375000D01*
X184275000Y-85773004D02*
X184275000Y-84793604D01*
X180748004Y-89300000D02*
X184275000Y-85773004D01*
X179475000Y-89300000D02*
X180748004Y-89300000D01*
X178675000Y-88500000D02*
X179475000Y-89300000D01*
X185125000Y-83375000D02*
X185125000Y-82753984D01*
D87*
%TO.N,+24V*%
X123200000Y-66300000D02*
X122100000Y-65200000D01*
X123400000Y-54800000D02*
X123500000Y-54900000D01*
X122250000Y-54800000D02*
X123400000Y-54800000D01*
X122500000Y-59200000D02*
X123500000Y-58200000D01*
X122500000Y-61284365D02*
X122500000Y-59200000D01*
X123500000Y-58200000D02*
X123500000Y-54900000D01*
X122100000Y-61684365D02*
X122500000Y-61284365D01*
D86*
X136350000Y-71000000D02*
X134395000Y-71000000D01*
X125500000Y-72520910D02*
X125355976Y-72376886D01*
D87*
X123305000Y-48505000D02*
X123305000Y-48382500D01*
D86*
X134395000Y-71000000D02*
X133775000Y-70380000D01*
D87*
X123500000Y-54900000D02*
X123500000Y-52900000D01*
X123400000Y-52800000D02*
X123400000Y-48477500D01*
X123400000Y-48477500D02*
X123305000Y-48382500D01*
D86*
X109150000Y-94150000D02*
X111300000Y-96300000D01*
D87*
X123500000Y-52900000D02*
X123400000Y-52800000D01*
D86*
X108300000Y-94150000D02*
X109150000Y-94150000D01*
X124526996Y-76400000D02*
X125500000Y-76400000D01*
X123300000Y-75100000D02*
X124526996Y-76326996D01*
D87*
X122100000Y-65200000D02*
X122100000Y-61684365D01*
D86*
X124526996Y-76326996D02*
X124526996Y-76400000D01*
X123450000Y-77476996D02*
X124526996Y-76400000D01*
X125500000Y-76400000D02*
X125500000Y-72520910D01*
X123450000Y-78500000D02*
X123450000Y-77476996D01*
%TO.N,GND*%
X167180000Y-98480000D02*
X167100000Y-98400000D01*
D87*
X112975000Y-85895000D02*
X112582301Y-85895000D01*
D88*
X171140000Y-45040000D02*
X171200000Y-45100000D01*
D86*
X179750000Y-52250000D02*
X180000000Y-52000000D01*
X167200000Y-86000000D02*
X168100000Y-86900000D01*
D88*
X140950000Y-68450000D02*
X141000000Y-68500000D01*
X117500000Y-70500000D02*
X118100000Y-70500000D01*
D86*
X137100000Y-77800000D02*
X136400000Y-78500000D01*
D89*
X128430000Y-52495000D02*
X128275000Y-52495000D01*
D86*
X175170000Y-92130000D02*
X175300000Y-92000000D01*
D88*
X169550000Y-45040000D02*
X171140000Y-45040000D01*
D87*
X113500000Y-85370000D02*
X112975000Y-85895000D01*
D88*
X121500000Y-72300000D02*
X120200000Y-72300000D01*
D89*
X134930000Y-52495000D02*
X135085000Y-52495000D01*
D88*
X111300000Y-92000000D02*
X111300000Y-90171725D01*
D86*
X139340000Y-45100000D02*
X141030000Y-45100000D01*
D88*
X130700000Y-73300000D02*
X131200000Y-73800000D01*
D86*
X175250000Y-95850000D02*
X175160000Y-95940000D01*
X149000000Y-47550000D02*
X148830000Y-47720000D01*
X126500000Y-78300000D02*
X125800000Y-79000000D01*
X107400000Y-82300000D02*
X108600000Y-81100000D01*
D89*
X135085000Y-52495000D02*
X136000000Y-51580000D01*
D87*
X116300000Y-49800000D02*
X116030000Y-49530000D01*
D86*
X137800000Y-54100000D02*
X137900000Y-54200000D01*
X136412500Y-75500000D02*
X137100000Y-76187500D01*
X135800000Y-77900000D02*
X133875000Y-77900000D01*
X144500000Y-76000000D02*
X145300000Y-75200000D01*
X143200000Y-53600000D02*
X141570000Y-53600000D01*
D87*
X113046124Y-85370000D02*
X112585252Y-84909128D01*
D86*
X137800000Y-52800000D02*
X137800000Y-54100000D01*
X136800000Y-63300000D02*
X135700000Y-62200000D01*
X121100000Y-62200000D02*
X121100000Y-60600000D01*
X183175000Y-75105000D02*
X184430000Y-75105000D01*
D89*
X108305000Y-50445000D02*
X107390000Y-49530000D01*
D86*
X128430000Y-54720000D02*
X128430000Y-52495000D01*
X157650000Y-68200000D02*
X157700000Y-68150000D01*
X144680000Y-47720000D02*
X144300000Y-48100000D01*
X147187500Y-76674999D02*
X146862499Y-77000000D01*
D88*
X120200000Y-72300000D02*
X119900000Y-72600000D01*
D86*
X137075000Y-73150000D02*
X136425000Y-72500000D01*
X131900000Y-63900000D02*
X131900000Y-63300000D01*
X167170000Y-94670000D02*
X167000000Y-94500000D01*
X133875000Y-77900000D02*
X133775000Y-78000000D01*
X136800000Y-63350000D02*
X136800000Y-63300000D01*
X179750000Y-47050000D02*
X179800000Y-47100000D01*
D88*
X168160000Y-45040000D02*
X168100000Y-45100000D01*
D86*
X189600000Y-85000000D02*
X189700000Y-84900000D01*
D88*
X153740000Y-45040000D02*
X153800000Y-45100000D01*
D90*
X123700000Y-64200000D02*
X124100000Y-64200000D01*
D86*
X156200000Y-68200000D02*
X157650000Y-68200000D01*
X178162500Y-66375000D02*
X177025000Y-66375000D01*
X184430000Y-75105000D02*
X184925000Y-74610000D01*
X147187500Y-75312500D02*
X147300000Y-75200000D01*
D88*
X169550000Y-45040000D02*
X168160000Y-45040000D01*
D86*
X145300000Y-75200000D02*
X147300000Y-75200000D01*
X147538408Y-77950000D02*
X146588408Y-77000000D01*
X185500000Y-66150000D02*
X185500000Y-67500000D01*
X141030000Y-45100000D02*
X141350000Y-45420000D01*
X190700000Y-84900000D02*
X190875000Y-84725000D01*
D87*
X113500000Y-85370000D02*
X113046124Y-85370000D01*
D88*
X114200000Y-68900000D02*
X113000000Y-70100000D01*
D86*
X148830000Y-47720000D02*
X144680000Y-47720000D01*
X177025000Y-66375000D02*
X176700000Y-66700000D01*
X193175000Y-84725000D02*
X194100000Y-83800000D01*
X135014939Y-55689939D02*
X135375000Y-56050000D01*
X175625000Y-88650000D02*
X176575000Y-89600000D01*
D87*
X116350000Y-49850000D02*
X116030000Y-49530000D01*
D86*
X109150000Y-100150000D02*
X109900000Y-99400000D01*
X121100000Y-60600000D02*
X121300000Y-60400000D01*
D91*
X131600000Y-78100000D02*
X131300000Y-78100000D01*
D86*
X175200000Y-99700000D02*
X173650000Y-99700000D01*
X137100000Y-76187500D02*
X137100000Y-77800000D01*
X175160000Y-95940000D02*
X173600000Y-95940000D01*
D88*
X118100000Y-70500000D02*
X119700000Y-68900000D01*
D86*
X189700000Y-84900000D02*
X190700000Y-84900000D01*
D88*
X130700000Y-68800000D02*
X130700000Y-73300000D01*
D86*
X136400000Y-78500000D02*
X135800000Y-77900000D01*
D87*
X116300000Y-52425000D02*
X116300000Y-49800000D01*
D86*
X141350000Y-45420000D02*
X141980000Y-45420000D01*
D88*
X111300000Y-90171725D02*
X110814137Y-89685862D01*
D91*
X131300000Y-78100000D02*
X130400000Y-79000000D01*
D86*
X126500000Y-77300000D02*
X126500000Y-78300000D01*
X107100000Y-100150000D02*
X108600000Y-100150000D01*
X179750000Y-45520000D02*
X179750000Y-47050000D01*
X131650000Y-61950000D02*
X131100000Y-62500000D01*
D88*
X140950000Y-66600000D02*
X140950000Y-68450000D01*
D86*
X179750000Y-53480000D02*
X179750000Y-52250000D01*
D89*
X108460000Y-50445000D02*
X108305000Y-50445000D01*
D86*
X131900000Y-63300000D02*
X131100000Y-62500000D01*
X167200000Y-85600000D02*
X167200000Y-86000000D01*
X146862499Y-77000000D02*
X146200000Y-77000000D01*
D89*
X128275000Y-52495000D02*
X127360000Y-51580000D01*
D86*
X168650000Y-98480000D02*
X167180000Y-98480000D01*
X148475000Y-77950000D02*
X147538408Y-77950000D01*
X189600000Y-86000000D02*
X188900000Y-86700000D01*
D88*
X152050000Y-45040000D02*
X153740000Y-45040000D01*
D86*
X108600000Y-100150000D02*
X109150000Y-100150000D01*
X135375000Y-56050000D02*
X136300000Y-56050000D01*
X168650000Y-94670000D02*
X167170000Y-94670000D01*
X190875000Y-84725000D02*
X193175000Y-84725000D01*
X157700000Y-68150000D02*
X157700000Y-66900000D01*
D87*
X121300000Y-59100000D02*
X121400000Y-59000000D01*
D86*
X146588408Y-77000000D02*
X146200000Y-77000000D01*
X165100000Y-68500000D02*
X164000000Y-67400000D01*
X173600000Y-92130000D02*
X175170000Y-92130000D01*
X189600000Y-85000000D02*
X189600000Y-86000000D01*
X173650000Y-99700000D02*
X173600000Y-99750000D01*
D91*
X130400000Y-79000000D02*
X125800000Y-79000000D01*
D86*
X135014939Y-55433959D02*
X135014939Y-55689939D01*
X147187500Y-76674999D02*
X147187500Y-75312500D01*
X141570000Y-53600000D02*
X141350000Y-53380000D01*
D88*
X115350000Y-50635000D02*
X115160000Y-50445000D01*
D86*
X127100000Y-56050000D02*
X128430000Y-54720000D01*
X165100000Y-69300000D02*
X165100000Y-68500000D01*
X136412500Y-75500000D02*
X137075000Y-74837500D01*
D90*
X124100000Y-64200000D02*
X124200000Y-64300000D01*
D87*
X113500000Y-84250000D02*
X113500000Y-85370000D01*
D86*
X137075000Y-74837500D02*
X137075000Y-73150000D01*
X132825000Y-61950000D02*
X131650000Y-61950000D01*
D88*
X113000000Y-70100000D02*
X113000000Y-71500000D01*
D89*
X115115000Y-50445000D02*
X116030000Y-49530000D01*
D86*
X175625000Y-88500000D02*
X175625000Y-88650000D01*
X141980000Y-45420000D02*
X142600000Y-44800000D01*
D90*
X124200000Y-64300000D02*
X127900000Y-64300000D01*
D87*
X121300000Y-60400000D02*
X121300000Y-59100000D01*
D86*
X107400000Y-82400000D02*
X107400000Y-82300000D01*
D89*
X114960000Y-50445000D02*
X115115000Y-50445000D01*
D88*
%TO.N,Net-(D2-K)*%
X114600000Y-74700000D02*
X115500000Y-74700000D01*
X115500000Y-74700000D02*
X115700000Y-74500000D01*
X112500000Y-79300000D02*
X112700000Y-79300000D01*
X115700000Y-74500000D02*
X117500000Y-74500000D01*
D86*
X110500000Y-81300000D02*
X112500000Y-79300000D01*
D88*
X114675000Y-86376238D02*
X114675000Y-81475000D01*
X114600000Y-77200000D02*
X114600000Y-74700000D01*
X112500000Y-79300000D02*
X114600000Y-77200000D01*
X113886238Y-87165000D02*
X114675000Y-86376238D01*
X112975000Y-87165000D02*
X113886238Y-87165000D01*
X114675000Y-81475000D02*
X112500000Y-79300000D01*
D86*
X110500000Y-82500000D02*
X110500000Y-81300000D01*
D88*
%TO.N,+5V*%
X121500000Y-70400000D02*
X122600000Y-69300000D01*
X108500000Y-70100000D02*
X110900000Y-67700000D01*
D87*
X109000000Y-69600000D02*
X108500000Y-70100000D01*
D88*
X138800000Y-69700000D02*
X139500000Y-69000000D01*
X132478858Y-67778858D02*
X131700000Y-67000000D01*
D86*
X165650000Y-99500000D02*
X165900000Y-99750000D01*
D88*
X136100000Y-69700000D02*
X138800000Y-69700000D01*
D87*
X132572919Y-72920000D02*
X133775000Y-72920000D01*
D88*
X132478858Y-68200000D02*
X132478858Y-67778858D01*
D87*
X110400000Y-63900000D02*
X114900000Y-63900000D01*
D86*
X162975000Y-79525000D02*
X163500000Y-79000000D01*
D88*
X115300000Y-67700000D02*
X118200000Y-67700000D01*
D86*
X165900000Y-99750000D02*
X168650000Y-99750000D01*
D87*
X132325000Y-71830000D02*
X132400000Y-71830000D01*
D86*
X165600000Y-85550000D02*
X165650000Y-85600000D01*
X165650000Y-85600000D02*
X165650000Y-99500000D01*
D88*
X121500000Y-67700000D02*
X123100000Y-69300000D01*
D86*
X134855000Y-74000000D02*
X133775000Y-72920000D01*
D87*
X132400000Y-68930000D02*
X132325000Y-68930000D01*
D88*
X125650000Y-69250000D02*
X126100000Y-68800000D01*
D86*
X135396033Y-79136685D02*
X135396033Y-79190563D01*
D88*
X110900000Y-67700000D02*
X115300000Y-67700000D01*
X136100000Y-68200000D02*
X136100000Y-69700000D01*
X127679720Y-67000000D02*
X126100000Y-68579720D01*
D86*
X135730470Y-79525000D02*
X162975000Y-79525000D01*
D87*
X132400000Y-68278858D02*
X132400000Y-68930000D01*
D88*
X131700000Y-67000000D02*
X127679720Y-67000000D01*
D86*
X119900000Y-66200000D02*
X119900000Y-67700000D01*
D88*
X118200000Y-67700000D02*
X119900000Y-67700000D01*
D86*
X136350000Y-74000000D02*
X134855000Y-74000000D01*
D88*
X122600000Y-69300000D02*
X123100000Y-69300000D01*
D87*
X132400000Y-71830000D02*
X132400000Y-72747081D01*
D86*
X135396033Y-79190563D02*
X135730470Y-79525000D01*
D88*
X139500000Y-69000000D02*
X139500000Y-62300000D01*
X119900000Y-67700000D02*
X121500000Y-67700000D01*
D86*
X165600000Y-83800000D02*
X165600000Y-85550000D01*
D87*
X132400000Y-72747081D02*
X132572919Y-72920000D01*
D88*
X132478858Y-68200000D02*
X136100000Y-68200000D01*
D87*
X109000000Y-62500000D02*
X110400000Y-63900000D01*
D88*
X126100000Y-68579720D02*
X126100000Y-68800000D01*
D87*
X132325000Y-68930000D02*
X132325000Y-71830000D01*
X132478858Y-68200000D02*
X132400000Y-68278858D01*
D88*
X126100000Y-68800000D02*
X125600000Y-69300000D01*
D87*
X109000000Y-62500000D02*
X109000000Y-69600000D01*
D88*
X123100000Y-69300000D02*
X125600000Y-69300000D01*
%TO.N,/Power System/V5V_BUCK*%
X112500000Y-76500000D02*
X112500000Y-74950000D01*
X108500000Y-74100000D02*
X110100000Y-74100000D01*
X112500000Y-74950000D02*
X113000000Y-74450000D01*
D86*
X107500000Y-77650000D02*
X107500000Y-75100000D01*
D88*
X110100000Y-74100000D02*
X112500000Y-76500000D01*
D86*
X107500000Y-75100000D02*
X108500000Y-74100000D01*
%TO.N,Net-(U1-BS)*%
X110472960Y-88177959D02*
X112000001Y-89705000D01*
X110500000Y-84050000D02*
X110472960Y-84077040D01*
X112000001Y-89705000D02*
X112975000Y-89705000D01*
X110472960Y-84077040D02*
X110472960Y-88177959D01*
D88*
%TO.N,+3V3*%
X133415000Y-75100000D02*
X133775000Y-75460000D01*
D86*
X148790000Y-70835000D02*
X148100000Y-71525000D01*
X183170000Y-71300000D02*
X183175000Y-71295000D01*
X180500000Y-49000000D02*
X180500000Y-50635280D01*
X147375000Y-62200000D02*
X145700000Y-60525000D01*
X147800000Y-70700000D02*
X146200000Y-70700000D01*
X164835534Y-46310000D02*
X167525000Y-48999466D01*
X182076996Y-99700000D02*
X181275000Y-98898004D01*
X187000000Y-98200000D02*
X185500000Y-99700000D01*
X149000000Y-46000000D02*
X150410000Y-46000000D01*
X181675000Y-67025000D02*
X180437500Y-67025000D01*
D89*
X151778122Y-77600000D02*
X153600000Y-77600000D01*
D86*
X145700000Y-60525000D02*
X145700000Y-60100000D01*
X172625000Y-47175000D02*
X174521016Y-47175000D01*
X185300000Y-90400000D02*
X189250000Y-90400000D01*
D89*
X141900000Y-67800000D02*
X141900000Y-68056498D01*
D88*
X151552944Y-46240000D02*
X152050000Y-46240000D01*
D86*
X181900000Y-94775000D02*
X181900000Y-96800000D01*
X178162500Y-67675000D02*
X180437500Y-67675000D01*
X184126996Y-90400000D02*
X185300000Y-90400000D01*
X188900000Y-93200000D02*
X186523798Y-93200000D01*
X165600000Y-82500000D02*
X168901992Y-85801992D01*
X182425000Y-67675000D02*
X180437500Y-67675000D01*
X135315000Y-77000000D02*
X133775000Y-75460000D01*
X146200000Y-70700000D02*
X145700000Y-71200000D01*
X153010000Y-67610000D02*
X153458349Y-68058349D01*
D88*
X137750000Y-50725000D02*
X141580000Y-46895000D01*
X123740000Y-61840000D02*
X123740000Y-59902944D01*
D86*
X175005204Y-76125000D02*
X176396904Y-74733300D01*
X184545000Y-95800000D02*
X183545000Y-96800000D01*
X139585000Y-46895000D02*
X141580000Y-46895000D01*
X153458349Y-68058349D02*
X153458349Y-68076374D01*
X147910000Y-70810000D02*
X147800000Y-70700000D01*
X159548097Y-79075000D02*
X160823097Y-77800000D01*
D89*
X140575000Y-76675000D02*
X141500000Y-77600000D01*
D86*
X171850000Y-89300000D02*
X171525000Y-88975000D01*
D88*
X128400000Y-69200000D02*
X126100000Y-71500000D01*
D86*
X181900000Y-94775000D02*
X181900000Y-92626996D01*
D88*
X147200000Y-44800000D02*
X150600000Y-44800000D01*
D86*
X145175000Y-65681928D02*
X144300000Y-64806928D01*
D88*
X137200000Y-49000000D02*
X137750000Y-49550000D01*
D86*
X176396904Y-74927812D02*
X177199092Y-75730000D01*
X165600000Y-79800000D02*
X165600000Y-80900000D01*
X185423798Y-94300000D02*
X182375000Y-94300000D01*
X172925000Y-90375000D02*
X181200000Y-90375000D01*
D88*
X124642944Y-49894986D02*
X125537930Y-49000000D01*
X128400000Y-68800000D02*
X128400000Y-75100000D01*
D89*
X141100000Y-73400000D02*
X148800000Y-73400000D01*
D86*
X149081704Y-78681704D02*
X149000000Y-78600000D01*
X185300000Y-95800000D02*
X184545000Y-95800000D01*
X174975000Y-46721016D02*
X174975000Y-46620000D01*
X149000000Y-78600000D02*
X145511592Y-78600000D01*
D88*
X137400000Y-68300000D02*
X138000000Y-67700000D01*
D86*
X153500000Y-69750000D02*
X156200000Y-69750000D01*
X181800000Y-66900000D02*
X181875000Y-66825000D01*
D89*
X141500000Y-77600000D02*
X142950000Y-77600000D01*
D86*
X182375000Y-94300000D02*
X181900000Y-94775000D01*
X182900000Y-53035280D02*
X182900000Y-54055000D01*
X188900000Y-98200000D02*
X187000000Y-98200000D01*
D89*
X141900000Y-68056498D02*
X141950000Y-68106498D01*
X143000000Y-77550000D02*
X144500000Y-77550000D01*
D86*
X172773008Y-76326992D02*
X173000000Y-76100000D01*
X189250000Y-90400000D02*
X192450000Y-87200000D01*
X172773008Y-79876992D02*
X172773008Y-76326992D01*
X179785140Y-65725000D02*
X179400000Y-66110140D01*
D88*
X141580000Y-46895000D02*
X146650430Y-46895000D01*
D86*
X145700000Y-71200000D02*
X143700000Y-71200000D01*
D88*
X137750000Y-49550000D02*
X137750000Y-50725000D01*
D86*
X184180000Y-52775000D02*
X182900000Y-54055000D01*
X174521016Y-47175000D02*
X174975000Y-46721016D01*
X144844778Y-60855222D02*
X145600000Y-60100000D01*
X148475000Y-77000000D02*
X148863408Y-77000000D01*
D89*
X140575000Y-73925000D02*
X140575000Y-76675000D01*
D88*
X141500000Y-64800000D02*
X143200000Y-66500000D01*
D86*
X163600000Y-77800000D02*
X165600000Y-79800000D01*
D89*
X140800000Y-69450000D02*
X140800000Y-73700000D01*
D86*
X181275000Y-97425000D02*
X181900000Y-96800000D01*
X151167158Y-79075000D02*
X159548097Y-79075000D01*
D88*
X128400000Y-68800000D02*
X128400000Y-69200000D01*
D86*
X144300000Y-64806928D02*
X144300000Y-64347308D01*
X185500000Y-64600000D02*
X182425000Y-67675000D01*
X179400000Y-66649999D02*
X179775001Y-67025000D01*
X180437500Y-65725000D02*
X179785140Y-65725000D01*
X171525000Y-82107410D02*
X171849999Y-81782411D01*
X183400000Y-88500000D02*
X185300000Y-90400000D01*
D88*
X147200000Y-46345430D02*
X147200000Y-44800000D01*
D86*
X137790000Y-45100000D02*
X139585000Y-46895000D01*
D89*
X141393502Y-69450000D02*
X140800000Y-69450000D01*
D86*
X168901992Y-85801992D02*
X168901992Y-89351992D01*
X171525000Y-88975000D02*
X171525000Y-82107410D01*
X150410000Y-46000000D02*
X150600000Y-46190000D01*
D89*
X151200000Y-75800000D02*
X151200000Y-77021878D01*
D88*
X152050000Y-46240000D02*
X152050000Y-46310000D01*
D89*
X148800000Y-73400000D02*
X151200000Y-75800000D01*
D86*
X178120000Y-46620000D02*
X180500000Y-49000000D01*
X151990000Y-67610000D02*
X153010000Y-67610000D01*
X181875000Y-66825000D02*
X181875000Y-58700000D01*
X171850000Y-89300000D02*
X172925000Y-90375000D01*
D89*
X141950000Y-68106498D02*
X141950000Y-68893502D01*
D86*
X149927783Y-77835625D02*
X151167158Y-79075000D01*
X179400000Y-66110140D02*
X179400000Y-66649999D01*
X183075000Y-88500000D02*
X183400000Y-88500000D01*
X186523798Y-93200000D02*
X185423798Y-94300000D01*
X181875000Y-58700000D02*
X180100000Y-56925000D01*
X172568008Y-47231992D02*
X172625000Y-47175000D01*
X185440000Y-52775000D02*
X184180000Y-52775000D01*
X152050000Y-46310000D02*
X164835534Y-46310000D01*
X174975000Y-46620000D02*
X178120000Y-46620000D01*
X144300000Y-64347308D02*
X143465824Y-63513132D01*
D89*
X140800000Y-73700000D02*
X141100000Y-73400000D01*
D86*
X149462500Y-78300908D02*
X149081704Y-78681704D01*
X160823097Y-77800000D02*
X163600000Y-77800000D01*
D88*
X137750000Y-51200000D02*
X137750000Y-50725000D01*
D86*
X153140000Y-70110000D02*
X151990000Y-70110000D01*
X145175000Y-67318072D02*
X145175000Y-65681928D01*
X179250908Y-75730000D02*
X181400000Y-73580908D01*
X153500000Y-69750000D02*
X153140000Y-70110000D01*
X144844778Y-60923752D02*
X144844778Y-60855222D01*
X194100000Y-94850000D02*
X189650000Y-90400000D01*
D89*
X141950000Y-68893502D02*
X141393502Y-69450000D01*
X143200000Y-66500000D02*
X141900000Y-67800000D01*
D86*
X180100000Y-56855000D02*
X180100000Y-56925000D01*
X181200000Y-90375000D02*
X183075000Y-88500000D01*
D89*
X151200000Y-77021878D02*
X151778122Y-77600000D01*
D86*
X143700000Y-68793072D02*
X145175000Y-67318072D01*
X180437500Y-67025000D02*
X180437500Y-67675000D01*
D88*
X151502944Y-46190000D02*
X151552944Y-46240000D01*
D86*
X177199092Y-75730000D02*
X179250908Y-75730000D01*
X149462500Y-77599092D02*
X149462500Y-78300908D01*
D88*
X150600000Y-44800000D02*
X150600000Y-46190000D01*
D89*
X153600000Y-77600000D02*
X155100000Y-76100000D01*
D86*
X165600000Y-82500000D02*
X165600000Y-80900000D01*
X176396904Y-74733300D02*
X176396904Y-74927812D01*
D88*
X125537930Y-49000000D02*
X137200000Y-49000000D01*
X146650430Y-46895000D02*
X147200000Y-46345430D01*
D86*
X180500000Y-50635280D02*
X182900000Y-53035280D01*
X136375000Y-77000000D02*
X135315000Y-77000000D01*
X148863408Y-77000000D02*
X149462500Y-77599092D01*
X181400000Y-71300000D02*
X183170000Y-71300000D01*
X145600000Y-60100000D02*
X145700000Y-60100000D01*
D88*
X123740000Y-59902944D02*
X124642944Y-59000000D01*
X150600000Y-46190000D02*
X151502944Y-46190000D01*
D86*
X181900000Y-92626996D02*
X184126996Y-90400000D01*
X183545000Y-96800000D02*
X181900000Y-96800000D01*
X182900000Y-54055000D02*
X180100000Y-56855000D01*
X148790000Y-70810000D02*
X147910000Y-70810000D01*
D89*
X142950000Y-77600000D02*
X143000000Y-77550000D01*
D86*
X144500000Y-77588408D02*
X144500000Y-77550000D01*
X143700000Y-71200000D02*
X143700000Y-68793072D01*
D88*
X138000000Y-67700000D02*
X138000000Y-66600000D01*
D86*
X148790000Y-70810000D02*
X148790000Y-70835000D01*
X173000000Y-76100000D02*
X173025000Y-76125000D01*
X181275000Y-98898004D02*
X181275000Y-97425000D01*
X149081704Y-78681704D02*
X149927783Y-77835625D01*
D88*
X124642944Y-59000000D02*
X124642944Y-49894986D01*
D86*
X189650000Y-90400000D02*
X189250000Y-90400000D01*
X181800000Y-66900000D02*
X181675000Y-67025000D01*
X181400000Y-73580908D02*
X181400000Y-71300000D01*
X179775001Y-67025000D02*
X180437500Y-67025000D01*
D88*
X128400000Y-75100000D02*
X133415000Y-75100000D01*
X123900000Y-62000000D02*
X123740000Y-61840000D01*
D86*
X173025000Y-76125000D02*
X175005204Y-76125000D01*
D88*
X141300000Y-64800000D02*
X141500000Y-64800000D01*
D86*
X185500000Y-99700000D02*
X182076996Y-99700000D01*
D89*
X140800000Y-73700000D02*
X140575000Y-73925000D01*
D86*
X145511592Y-78600000D02*
X144500000Y-77588408D01*
D89*
%TO.N,VBUS*%
X129230000Y-53330000D02*
X131700000Y-55800000D01*
D88*
X139500000Y-58300000D02*
X134700000Y-58300000D01*
X134700000Y-58300000D02*
X132900000Y-56500000D01*
X132900000Y-56500000D02*
X132200000Y-55800000D01*
D89*
X131700000Y-55800000D02*
X132200000Y-55800000D01*
X134130000Y-55270000D02*
X132900000Y-56500000D01*
X134130000Y-52495000D02*
X134130000Y-55270000D01*
X129230000Y-52495000D02*
X129230000Y-53330000D01*
D86*
%TO.N,ESP32_EN*%
X181425000Y-66039860D02*
X181425000Y-65410140D01*
X139350000Y-51250000D02*
X139400000Y-51200000D01*
X181089860Y-66375000D02*
X181425000Y-66039860D01*
X173121016Y-53125000D02*
X172475000Y-53125000D01*
X177000000Y-65275000D02*
X175811396Y-65275000D01*
X147100000Y-48400000D02*
X147175000Y-48325000D01*
X165005531Y-47580000D02*
X167525000Y-50099469D01*
X144700000Y-45745000D02*
X145525000Y-45745000D01*
X172475000Y-49125000D02*
X172800000Y-48800000D01*
X152050000Y-47580000D02*
X165005531Y-47580000D01*
X147063604Y-48400000D02*
X147100000Y-48400000D01*
X146650000Y-48813604D02*
X147063604Y-48400000D01*
X175525000Y-64988604D02*
X175525000Y-55950000D01*
X173575000Y-53578984D02*
X173121016Y-53125000D01*
X175811396Y-65275000D02*
X175525000Y-64988604D01*
X149484052Y-48325000D02*
X150229052Y-47580000D01*
X146118604Y-48813604D02*
X146650000Y-48813604D01*
X145525000Y-45745000D02*
X145850000Y-45420000D01*
X143670000Y-51200000D02*
X139400000Y-51200000D01*
X181164860Y-65150000D02*
X177125000Y-65150000D01*
X139350000Y-52800000D02*
X139350000Y-51250000D01*
X177125000Y-65150000D02*
X177000000Y-65275000D01*
X173575000Y-54000000D02*
X173575000Y-53578984D01*
X181425000Y-65410140D02*
X181164860Y-65150000D01*
X145800000Y-53330000D02*
X145850000Y-53380000D01*
X145800000Y-48495000D02*
X146118604Y-48813604D01*
X145850000Y-53380000D02*
X143670000Y-51200000D01*
X172475000Y-53125000D02*
X172475000Y-49125000D01*
X180437500Y-66375000D02*
X181089860Y-66375000D01*
X150229052Y-47580000D02*
X152050000Y-47580000D01*
X175525000Y-55950000D02*
X173575000Y-54000000D01*
X147175000Y-48325000D02*
X149484052Y-48325000D01*
X145800000Y-48495000D02*
X145800000Y-53330000D01*
D87*
%TO.N,Net-(D10-A)*%
X118950000Y-54800000D02*
X118950000Y-48927500D01*
X118950000Y-54800000D02*
X118950000Y-57125000D01*
X118950000Y-57125000D02*
X120350000Y-58525000D01*
X118950000Y-48927500D02*
X119495000Y-48382500D01*
D86*
%TO.N,/MCU and Communications/USB_DM*%
X132255000Y-53545000D02*
X132430000Y-53370000D01*
X149475000Y-55300000D02*
X150975000Y-56800000D01*
X150975000Y-59785000D02*
X152050000Y-59785000D01*
X131430000Y-52495000D02*
X131430000Y-53520000D01*
X136823004Y-55100000D02*
X146500000Y-55100000D01*
X135801996Y-55125000D02*
X136798004Y-55125000D01*
X152050000Y-59785000D02*
X152050000Y-60280000D01*
X135030000Y-53870002D02*
X135030000Y-54353004D01*
X150975000Y-56800000D02*
X150975000Y-59785000D01*
X131430000Y-53520000D02*
X131455000Y-53545000D01*
X132430000Y-53370000D02*
X132930002Y-53870002D01*
X131455000Y-53545000D02*
X132255000Y-53545000D01*
X136798004Y-55125000D02*
X136823004Y-55100000D01*
X132930002Y-53870002D02*
X133230000Y-53870002D01*
X135030000Y-54353004D02*
X135801996Y-55125000D01*
X132430000Y-53370000D02*
X132430000Y-52495000D01*
%TO.N,I2C_SDA*%
X142020280Y-63800000D02*
X144275000Y-66054720D01*
X141638604Y-72750000D02*
X148963172Y-72750000D01*
X157600000Y-74500000D02*
X157600000Y-76100000D01*
X143000000Y-74425000D02*
X147988604Y-74425000D01*
X141375000Y-72500000D02*
X141388604Y-72500000D01*
X151013172Y-74800000D02*
X157300000Y-74800000D01*
X143120280Y-68100000D02*
X142525000Y-68100000D01*
X144275000Y-66054720D02*
X144275000Y-66945280D01*
X147100000Y-49000000D02*
X147100000Y-54603984D01*
X143000000Y-75900000D02*
X143000000Y-74425000D01*
X148475000Y-74911396D02*
X148475000Y-76050000D01*
X141388604Y-72500000D02*
X141638604Y-72750000D01*
X149613604Y-76050000D02*
X148475000Y-76050000D01*
X159361701Y-78625000D02*
X151353554Y-78625000D01*
X141631674Y-70025000D02*
X141375000Y-70025000D01*
X157300000Y-74800000D02*
X157600000Y-74500000D01*
X141500000Y-56100000D02*
X141500000Y-63800000D01*
X157600000Y-74500000D02*
X157600000Y-73903984D01*
X147275000Y-54778984D02*
X147275000Y-56521019D01*
X142525000Y-68100000D02*
X142525000Y-69131675D01*
X141500000Y-63800000D02*
X142020280Y-63800000D01*
X142525000Y-69131675D02*
X141631674Y-70025000D01*
X161275000Y-73800000D02*
X161275000Y-76711701D01*
X146821016Y-56975003D02*
X146178984Y-56975003D01*
X151353554Y-78625000D02*
X149613604Y-76885050D01*
X149613604Y-76885050D02*
X149613604Y-76050000D01*
X158003984Y-73500000D02*
X160975000Y-73500000D01*
X146178984Y-56975003D02*
X145400000Y-56196019D01*
X157600000Y-73903984D02*
X158003984Y-73500000D01*
X147988604Y-74425000D02*
X148475000Y-74911396D01*
X148963172Y-72750000D02*
X151013172Y-74800000D01*
X160975000Y-73500000D02*
X161275000Y-73800000D01*
X161275000Y-76711701D02*
X159361701Y-78625000D01*
X144275000Y-66945280D02*
X143120280Y-68100000D01*
X147275000Y-56521019D02*
X146821016Y-56975003D01*
X145400000Y-56196019D02*
X145400000Y-56100000D01*
X147250000Y-48850000D02*
X147100000Y-49000000D01*
X152050000Y-48850000D02*
X147250000Y-48850000D01*
X145400000Y-56100000D02*
X141500000Y-56100000D01*
X147100000Y-54603984D02*
X147275000Y-54778984D01*
X141375000Y-70025000D02*
X141375000Y-72500000D01*
%TO.N,I2C_SCL*%
X156578764Y-74025000D02*
X154625000Y-74025000D01*
X145811592Y-76050000D02*
X146200000Y-76050000D01*
X143256676Y-68600000D02*
X144725000Y-67131676D01*
X147725000Y-54575000D02*
X147550000Y-54400000D01*
X149149568Y-72300000D02*
X141825000Y-72300000D01*
X150625000Y-77260050D02*
X151539950Y-78175000D01*
X150625000Y-76425000D02*
X150625000Y-77260050D01*
X151199568Y-74350000D02*
X149149568Y-72300000D01*
X144725000Y-67131676D02*
X144725000Y-65868324D01*
X147725000Y-56707415D02*
X147725000Y-54575000D01*
X151539950Y-78175000D02*
X158025000Y-78175000D01*
X159128939Y-75386456D02*
X159842483Y-76100000D01*
X145086592Y-76775000D02*
X145811592Y-76050000D01*
X158025000Y-78175000D02*
X160100000Y-76100000D01*
X142325000Y-76775000D02*
X145086592Y-76775000D01*
X159842483Y-76100000D02*
X160100000Y-76100000D01*
X154300000Y-74350000D02*
X151199568Y-74350000D01*
X141825000Y-70468071D02*
X142975000Y-69318071D01*
X142975000Y-68600000D02*
X143256676Y-68600000D01*
X141500000Y-75950000D02*
X141500000Y-73975000D01*
X147550000Y-50100000D02*
X147570000Y-50120000D01*
X142206676Y-63350000D02*
X141950000Y-63350000D01*
X158806351Y-74300000D02*
X159118140Y-74611789D01*
X141950000Y-63350000D02*
X141950000Y-56550000D01*
X141825000Y-72300000D02*
X141825000Y-70468071D01*
X148175000Y-73975000D02*
X150625000Y-76425000D01*
X144725000Y-65868324D02*
X142206676Y-63350000D01*
X145992588Y-57425003D02*
X147007412Y-57425003D01*
X141500000Y-75950000D02*
X142325000Y-76775000D01*
X159128939Y-74709088D02*
X159128939Y-75386456D01*
X142975000Y-69318071D02*
X142975000Y-68600000D01*
X147550000Y-54400000D02*
X147550000Y-50100000D01*
X147007412Y-57425003D02*
X147725000Y-56707415D01*
X147570000Y-50120000D02*
X152050000Y-50120000D01*
X141950000Y-56550000D02*
X145117585Y-56550000D01*
X154625000Y-74025000D02*
X154300000Y-74350000D01*
X159118140Y-74611789D02*
X159118140Y-74698289D01*
X145117585Y-56550000D02*
X145992588Y-57425003D01*
X159118140Y-74698289D02*
X159128939Y-74709088D01*
X141500000Y-73975000D02*
X148175000Y-73975000D01*
X158600000Y-74300000D02*
X158806351Y-74300000D01*
%TO.N,/MCU and Communications/USB_DP*%
X136618361Y-56954643D02*
X137300000Y-56273004D01*
X137300000Y-56273004D02*
X137300000Y-55550000D01*
X150788604Y-60235000D02*
X150975000Y-60235000D01*
X150975000Y-60235000D02*
X150975000Y-61055000D01*
X150525000Y-57450002D02*
X150525000Y-59971396D01*
X137300000Y-55550000D02*
X145849997Y-55550000D01*
X130930000Y-51470000D02*
X130955000Y-51445000D01*
X145849997Y-55550000D02*
X146500000Y-56200003D01*
X130955000Y-51445000D02*
X131845000Y-51445000D01*
X130930000Y-52495000D02*
X130930000Y-53656396D01*
X130930000Y-53656396D02*
X131268604Y-53995000D01*
X131268604Y-53995000D02*
X132395000Y-53995000D01*
X132395000Y-54348292D02*
X132990272Y-54943564D01*
X131930000Y-51530000D02*
X131930000Y-52495000D01*
X134989338Y-56954643D02*
X136618361Y-56954643D01*
X152000000Y-61500000D02*
X152050000Y-61550000D01*
X150525000Y-59971396D02*
X150788604Y-60235000D01*
X132395000Y-53995000D02*
X132395000Y-54348292D01*
X131845000Y-51445000D02*
X131930000Y-51530000D01*
X149475000Y-56400002D02*
X150525000Y-57450002D01*
X152000000Y-61055000D02*
X152000000Y-61500000D01*
X130930000Y-52495000D02*
X130930000Y-51470000D01*
X150975000Y-61055000D02*
X152000000Y-61055000D01*
%TO.N,/MCU and Communications/USB_CC2*%
X126535000Y-50688274D02*
X127018274Y-50205000D01*
X127100000Y-54400000D02*
X126535000Y-53835000D01*
X126535000Y-53835000D02*
X126535000Y-50688274D01*
X128934949Y-50205000D02*
X129930000Y-51200051D01*
X129930000Y-51200051D02*
X129930000Y-52495000D01*
X127018274Y-50205000D02*
X128934949Y-50205000D01*
%TO.N,/MCU and Communications/USB_CC1*%
X136405000Y-50205000D02*
X134195000Y-50205000D01*
X136825000Y-53875000D02*
X136825000Y-50625000D01*
X136300000Y-54400000D02*
X136825000Y-53875000D01*
X134195000Y-50205000D02*
X132930000Y-51470000D01*
X136825000Y-50625000D02*
X136405000Y-50205000D01*
X132930000Y-51470000D02*
X132930000Y-52495000D01*
%TO.N,Net-(D5-K)*%
X138000000Y-71000000D02*
X138000000Y-72500000D01*
D87*
%TO.N,/Power System/+24V_CTRL*%
X111575000Y-83072960D02*
X111575000Y-82625000D01*
D86*
X109700000Y-83590948D02*
X110015948Y-83275000D01*
D87*
X111575000Y-84622960D02*
X111575000Y-83477040D01*
X112000001Y-88435000D02*
X111197960Y-87632959D01*
D86*
X109800000Y-86500000D02*
X109700000Y-86400000D01*
D87*
X111197960Y-87632959D02*
X111197960Y-85000000D01*
D86*
X108025000Y-88435000D02*
X107050001Y-88435000D01*
D87*
X117200000Y-77675000D02*
X117200000Y-81100000D01*
X113025000Y-82700000D02*
X113500000Y-82700000D01*
X112825000Y-82500000D02*
X113025000Y-82700000D01*
D86*
X107050001Y-88435000D02*
X106725000Y-88109999D01*
D87*
X117200000Y-81100000D02*
X115775000Y-82525000D01*
D86*
X109700000Y-86400000D02*
X109700000Y-83590948D01*
D87*
X111372960Y-83275000D02*
X111575000Y-83072960D01*
X115775000Y-82525000D02*
X115775000Y-86831872D01*
D86*
X106999092Y-86540000D02*
X109760000Y-86540000D01*
X110015948Y-83275000D02*
X111372960Y-83275000D01*
D87*
X112975000Y-88435000D02*
X112000001Y-88435000D01*
X114171872Y-88435000D02*
X112975000Y-88435000D01*
D86*
X106725000Y-88109999D02*
X106725000Y-86814092D01*
X109760000Y-86540000D02*
X109800000Y-86500000D01*
D87*
X111575000Y-82625000D02*
X111700000Y-82500000D01*
X111197960Y-85000000D02*
X111575000Y-84622960D01*
X115775000Y-86831872D02*
X114171872Y-88435000D01*
X117250000Y-77625000D02*
X117200000Y-77675000D01*
X111575000Y-83477040D02*
X111372960Y-83275000D01*
X111700000Y-82500000D02*
X112825000Y-82500000D01*
D86*
X106725000Y-86814092D02*
X106999092Y-86540000D01*
%TO.N,Net-(D6-K)*%
X138000000Y-75487500D02*
X137987500Y-75500000D01*
X138000000Y-74000000D02*
X138000000Y-75487500D01*
D87*
%TO.N,Net-(Q1-S)*%
X116775000Y-83225000D02*
X116775000Y-90534140D01*
X116775000Y-90534140D02*
X115600000Y-91709140D01*
X118200000Y-79500000D02*
X118200000Y-81800000D01*
X118200000Y-81800000D02*
X116775000Y-83225000D01*
D86*
%TO.N,Net-(D7-K)*%
X138025000Y-78450000D02*
X137975000Y-78500000D01*
X138025000Y-77000000D02*
X138025000Y-78450000D01*
%TO.N,/MCU and Communications/ETH_TXN*%
X150628048Y-73050000D02*
X149290000Y-71711952D01*
X167700006Y-74000006D02*
X166750000Y-73050000D01*
X175350000Y-71859188D02*
X176959188Y-70250000D01*
X168050000Y-74000006D02*
X167700006Y-74000006D01*
X190775000Y-62983427D02*
X193800000Y-59958427D01*
X149290000Y-71711952D02*
X149290000Y-70810000D01*
X192098424Y-56599997D02*
X187740000Y-56599997D01*
X188176676Y-70250000D02*
X190775000Y-67651676D01*
X175350000Y-72775000D02*
X175350000Y-71859188D01*
X166750000Y-73050000D02*
X150628048Y-73050000D01*
X193800000Y-58301573D02*
X192098424Y-56599997D01*
X176959188Y-70250000D02*
X188176676Y-70250000D01*
X193800000Y-59958427D02*
X193800000Y-58301573D01*
X174125000Y-74000000D02*
X175350000Y-72775000D01*
X190775000Y-67651676D02*
X190775000Y-62983427D01*
%TO.N,/MCU and Communications/ETH_RXP*%
X168050000Y-70699997D02*
X167700003Y-70699997D01*
X174600006Y-70699994D02*
X176400000Y-68900000D01*
X186515000Y-56390000D02*
X185440000Y-55315000D01*
X176400000Y-68900000D02*
X185196016Y-68900000D01*
X185196016Y-68900000D02*
X186515000Y-67581016D01*
X150790000Y-71302764D02*
X150790000Y-70810000D01*
X186515000Y-67581016D02*
X186515000Y-56390000D01*
X174125000Y-70699994D02*
X174600006Y-70699994D01*
X151087236Y-71600000D02*
X150790000Y-71302764D01*
X167700003Y-70699997D02*
X166800000Y-71600000D01*
X166800000Y-71600000D02*
X151087236Y-71600000D01*
%TO.N,/MCU and Communications/ETH_RXN*%
X185700280Y-51515000D02*
X182900000Y-51515000D01*
X167300000Y-71800000D02*
X167000000Y-72100000D01*
X167000000Y-72100000D02*
X150950840Y-72100000D01*
X174136399Y-71799997D02*
X176586396Y-69350000D01*
X150290000Y-71439160D02*
X150290000Y-70810000D01*
X168050000Y-71800000D02*
X167300000Y-71800000D01*
X186965000Y-67767412D02*
X186965000Y-52779720D01*
X150950840Y-72100000D02*
X150290000Y-71439160D01*
X186965000Y-52779720D02*
X185700280Y-51515000D01*
X185382412Y-69350000D02*
X186965000Y-67767412D01*
X176586396Y-69350000D02*
X185382412Y-69350000D01*
X174125000Y-71799997D02*
X174136399Y-71799997D01*
%TO.N,/MCU and Communications/RS485_A*%
X188900000Y-83400000D02*
X188900000Y-82950000D01*
X184725000Y-84980000D02*
X184905000Y-84800000D01*
X186175000Y-83075000D02*
X185900000Y-83075000D01*
X186500000Y-83400000D02*
X186175000Y-83075000D01*
X184905000Y-84800000D02*
X185100000Y-84800000D01*
X186500000Y-83400000D02*
X188900000Y-83400000D01*
X191805000Y-80045000D02*
X191805000Y-73343000D01*
X185435000Y-73835000D02*
X183175000Y-73835000D01*
X184725000Y-88500000D02*
X184725000Y-84980000D01*
X185700000Y-81525000D02*
X185700000Y-74100000D01*
X191805000Y-73343000D02*
X192880000Y-72268000D01*
X185100000Y-84800000D02*
X186500000Y-83400000D01*
X185700000Y-74100000D02*
X185435000Y-73835000D01*
X188900000Y-82950000D02*
X191805000Y-80045000D01*
%TO.N,RELAY_CTRL*%
X131900000Y-65800000D02*
X131900000Y-65700000D01*
X137486502Y-63886502D02*
X137600000Y-63773004D01*
X136800000Y-61300000D02*
X135550000Y-60050000D01*
X131500000Y-61000000D02*
X131875000Y-61000000D01*
X152050000Y-53930000D02*
X151030000Y-53930000D01*
X131875000Y-61000000D02*
X132825000Y-60050000D01*
X137600000Y-63773004D02*
X137600000Y-62926996D01*
X142725000Y-57325000D02*
X142400000Y-57650000D01*
X142400000Y-62375000D02*
X142725000Y-62700000D01*
X136800000Y-61700000D02*
X136800000Y-61300000D01*
X137298004Y-62625000D02*
X136800000Y-62625000D01*
X142400000Y-57650000D02*
X142400000Y-62375000D01*
X136800000Y-62625000D02*
X136800000Y-61700000D01*
X131900000Y-65700000D02*
X132800000Y-64800000D01*
X138200000Y-64600000D02*
X137486502Y-63886502D01*
X137600000Y-62926996D02*
X137298004Y-62625000D01*
X151030000Y-53930000D02*
X151000000Y-53900000D01*
X135550000Y-60050000D02*
X132825000Y-60050000D01*
%TO.N,Net-(U9-RBIAS)*%
X156690000Y-70810000D02*
X151290000Y-70810000D01*
X157700000Y-69800000D02*
X156690000Y-70810000D01*
%TO.N,Net-(U9-~{RST})*%
X145700000Y-62722780D02*
X147000000Y-64022780D01*
X145700000Y-61750000D02*
X145700000Y-62722780D01*
X147000000Y-68012764D02*
X147597236Y-68610000D01*
X147597236Y-68610000D02*
X148090000Y-68610000D01*
X147000000Y-64022780D02*
X147000000Y-68012764D01*
%TO.N,Net-(JP3-A)*%
X185300000Y-98400000D02*
X182000000Y-98400000D01*
%TO.N,/MCU and Communications/ETH_TXP*%
X190325000Y-60507613D02*
X190325000Y-67465280D01*
X166999997Y-72600000D02*
X150814444Y-72600000D01*
X168050000Y-72900003D02*
X167300000Y-72900003D01*
X190325000Y-67465280D02*
X187990280Y-69800000D01*
X188100000Y-58282613D02*
X190325000Y-60507613D01*
X187990280Y-69800000D02*
X176772792Y-69800000D01*
X187740000Y-57700000D02*
X188100000Y-58060000D01*
X150814444Y-72600000D02*
X149790000Y-71575556D01*
X149790000Y-71575556D02*
X149790000Y-70810000D01*
X167300000Y-72900003D02*
X166999997Y-72600000D01*
X174900000Y-71672792D02*
X174900000Y-72125000D01*
X176772792Y-69800000D02*
X174900000Y-71672792D01*
X174900000Y-72125000D02*
X174125000Y-72900000D01*
X188100000Y-58060000D02*
X188100000Y-58282613D01*
%TO.N,Net-(U1-FB)*%
X107400000Y-84050000D02*
X109400000Y-82050000D01*
X108025000Y-84675000D02*
X107400000Y-84050000D01*
X108000000Y-79300000D02*
X109400000Y-80700000D01*
X107500000Y-79300000D02*
X108000000Y-79300000D01*
X108025000Y-85895000D02*
X108025000Y-84675000D01*
X109400000Y-82050000D02*
X109400000Y-80700000D01*
%TO.N,/MCU and Communications/RS485_B*%
X190800000Y-81700000D02*
X195735000Y-76765000D01*
X191100000Y-70495720D02*
X193450720Y-68145000D01*
X191100000Y-75900000D02*
X191100000Y-70495720D01*
X195735000Y-72209000D02*
X194660000Y-73284000D01*
X183175000Y-72565000D02*
X187765000Y-72565000D01*
X195735000Y-76765000D02*
X195735000Y-74359000D01*
X187765000Y-72565000D02*
X191100000Y-75900000D01*
X190800000Y-83800000D02*
X190800000Y-81700000D01*
X195735000Y-74359000D02*
X194660000Y-73284000D01*
X193450720Y-68145000D02*
X195735000Y-68145000D01*
X195735000Y-68145000D02*
X195735000Y-72209000D01*
X177275000Y-88500000D02*
X178675000Y-88500000D01*
%TO.N,Net-(JP1-A)*%
X182750000Y-93000000D02*
X185300000Y-93000000D01*
%TO.N,Net-(JP2-A)*%
X182930000Y-94970000D02*
X187270000Y-94970000D01*
X182800000Y-95100000D02*
X182930000Y-94970000D01*
X187270000Y-94970000D02*
X188100000Y-95800000D01*
X188100000Y-95800000D02*
X188900000Y-95800000D01*
%TO.N,Net-(JP4-A)*%
X185900000Y-100800000D02*
X188900000Y-100800000D01*
%TO.N,LED_CH4*%
X167046475Y-65046475D02*
X167074997Y-65074997D01*
X168850000Y-90500000D02*
X167100000Y-90500000D01*
X167074997Y-65074997D02*
X167074997Y-65446016D01*
X167528981Y-65900000D02*
X167988601Y-65900000D01*
X166225000Y-95759999D02*
X167675001Y-97210000D01*
X167074997Y-65446016D02*
X167528981Y-65900000D01*
X166225000Y-91375000D02*
X166225000Y-95759999D01*
X167100000Y-90500000D02*
X166225000Y-91375000D01*
X169725000Y-89625000D02*
X168850000Y-90500000D01*
X162705000Y-62800000D02*
X162705000Y-64001016D01*
X162705000Y-64001016D02*
X163750459Y-65046475D01*
X169725000Y-67636399D02*
X169725000Y-89625000D01*
X167988601Y-65900000D02*
X169725000Y-67636399D01*
X167675001Y-97210000D02*
X168650000Y-97210000D01*
X163750459Y-65046475D02*
X167046475Y-65046475D01*
%TO.N,FAN_PWM*%
X140395100Y-59875000D02*
X140725000Y-59545100D01*
X168610000Y-59010000D02*
X169550000Y-59010000D01*
X140725000Y-59545100D02*
X140725000Y-56325000D01*
X168475000Y-58875000D02*
X168610000Y-59010000D01*
X119400000Y-60400000D02*
X119555357Y-60400000D01*
X156050002Y-55300000D02*
X153450002Y-52700000D01*
X161300000Y-55300000D02*
X156050002Y-55300000D01*
X119450000Y-60450000D02*
X119400000Y-60400000D01*
X168149998Y-53500000D02*
X168475000Y-53825002D01*
X119450000Y-62200000D02*
X119450000Y-60450000D01*
X165900000Y-53400000D02*
X163200000Y-53400000D01*
X119555357Y-60400000D02*
X120325000Y-61169643D01*
X124890000Y-60484645D02*
X126074645Y-59300000D01*
X136011396Y-59875000D02*
X140395100Y-59875000D01*
X168475000Y-53825002D02*
X168475000Y-58875000D01*
X135436396Y-59300000D02*
X136011396Y-59875000D01*
X163200000Y-53400000D02*
X161300000Y-55300000D01*
X126074645Y-59300000D02*
X135436396Y-59300000D01*
%TO.N,Net-(Q2-D)*%
X134100000Y-61600000D02*
X134700000Y-61000000D01*
X134100000Y-63450000D02*
X134100000Y-61600000D01*
%TO.N,Net-(R20-Pad2)*%
X172574092Y-92775000D02*
X180875000Y-92775000D01*
X172574092Y-94025000D02*
X172300000Y-93750908D01*
X172300000Y-93049092D02*
X172574092Y-92775000D01*
X173600000Y-97210000D02*
X174986016Y-97210000D01*
X172300000Y-93750908D02*
X172300000Y-93049092D01*
X174986016Y-97210000D02*
X176025000Y-96171016D01*
X175828984Y-94025000D02*
X172574092Y-94025000D01*
X180875000Y-92775000D02*
X181100000Y-93000000D01*
X176025000Y-96171016D02*
X176025000Y-94221016D01*
X176025000Y-94221016D02*
X175828984Y-94025000D01*
%TO.N,/MCU and Communications/ETH_CRS_DV*%
X151253985Y-64496016D02*
X151707969Y-64950000D01*
X156457792Y-64550000D02*
X157396015Y-64550000D01*
X151014492Y-63714492D02*
X151253985Y-63953985D01*
X157396015Y-64671016D02*
X157849999Y-65125000D01*
X149189492Y-64139492D02*
X149189492Y-66316728D01*
X157849999Y-65125000D02*
X160110000Y-65125000D01*
X149189492Y-66316728D02*
X149290000Y-66417236D01*
X149614492Y-63714492D02*
X149189492Y-64139492D01*
X157396015Y-64550000D02*
X157396015Y-64671016D01*
X160110000Y-65125000D02*
X161435000Y-63800000D01*
X149290000Y-66417236D02*
X149290000Y-66910000D01*
X151253985Y-63953985D02*
X151253985Y-64496016D01*
X152525001Y-64775000D02*
X156232792Y-64775000D01*
X151707969Y-64950000D02*
X152350001Y-64950000D01*
X152350001Y-64950000D02*
X152525001Y-64775000D01*
X149614492Y-63714492D02*
X151014492Y-63714492D01*
X161435000Y-63800000D02*
X161435000Y-62800000D01*
X156232792Y-64775000D02*
X156457792Y-64550000D01*
%TO.N,/MCU and Communications/ETH_MDC*%
X148090000Y-67610000D02*
X147865000Y-67385000D01*
X156046396Y-64325000D02*
X156271396Y-64100000D01*
X152628604Y-64100000D02*
X152853604Y-64325000D01*
X152853604Y-64325000D02*
X156046396Y-64325000D01*
X157325000Y-64100000D02*
X157625000Y-63800000D01*
X152028985Y-64075000D02*
X152078985Y-64075000D01*
X157625000Y-63800000D02*
X157625000Y-62800000D01*
X152078985Y-64075000D02*
X152103985Y-64100000D01*
X152103985Y-64100000D02*
X152628604Y-64100000D01*
X147865000Y-67385000D02*
X147865000Y-64675000D01*
X156271396Y-64100000D02*
X157325000Y-64100000D01*
%TO.N,/MCU and Communications/ETH_TXEN*%
X148090000Y-69110000D02*
X146801498Y-69110000D01*
X145172188Y-59089208D02*
X147939206Y-59089208D01*
X143750000Y-61356192D02*
X143750000Y-60511396D01*
X153600000Y-59100000D02*
X152140000Y-59100000D01*
X146525000Y-67975000D02*
X146525000Y-64184176D01*
X146801498Y-69110000D02*
X146095749Y-68404251D01*
X143750000Y-60511396D02*
X145172188Y-59089208D01*
X145140824Y-62800000D02*
X145140824Y-62747016D01*
X145140824Y-62747016D02*
X143750000Y-61356192D01*
X146095749Y-68404251D02*
X146525000Y-67975000D01*
X152140000Y-59100000D02*
X152050000Y-59010000D01*
X146525000Y-64184176D02*
X145140824Y-62800000D01*
X147939206Y-59089208D02*
X150649998Y-61800000D01*
%TO.N,/MCU and Communications/ETH_RXD1*%
X160165000Y-63504480D02*
X159484660Y-64184820D01*
X159075000Y-65575000D02*
X159400000Y-65900000D01*
X160165000Y-62800000D02*
X160165000Y-63504480D01*
X156644188Y-65000000D02*
X157088603Y-65000000D01*
X153800000Y-66196016D02*
X153800000Y-65225000D01*
X156419188Y-65225000D02*
X156644188Y-65000000D01*
X151290000Y-66910000D02*
X153086016Y-66910000D01*
X153086016Y-66910000D02*
X153800000Y-66196016D01*
X157088603Y-65000000D02*
X157663603Y-65575000D01*
X153800000Y-65225000D02*
X156419188Y-65225000D01*
X157663603Y-65575000D02*
X159075000Y-65575000D01*
%TO.N,/MCU and Communications/ETH_MDIO*%
X155860000Y-63875000D02*
X153040000Y-63875000D01*
X149457080Y-63235508D02*
X148640000Y-64052588D01*
X148640000Y-64052588D02*
X148640000Y-66760000D01*
X153040000Y-63875000D02*
X152400508Y-63235508D01*
X156355000Y-62800000D02*
X156355000Y-63380000D01*
X155860000Y-63600000D02*
X155860000Y-63875000D01*
X152400508Y-63235508D02*
X149457080Y-63235508D01*
X156135000Y-63600000D02*
X155860000Y-63600000D01*
X156355000Y-63380000D02*
X156135000Y-63600000D01*
X148640000Y-66760000D02*
X148790000Y-66910000D01*
%TO.N,LED_CH2*%
X171525000Y-94325000D02*
X171750508Y-94325000D01*
X170550000Y-47580000D02*
X171575000Y-48605000D01*
X171075000Y-60900000D02*
X171075000Y-63486396D01*
X169911394Y-64650002D02*
X169900000Y-64650002D01*
X171575000Y-60400000D02*
X171075000Y-60900000D01*
X169900000Y-64650002D02*
X169900000Y-66538607D01*
X170625000Y-67263607D02*
X170625000Y-93425000D01*
X171075000Y-63486396D02*
X169911394Y-64650002D01*
X169550000Y-47580000D02*
X170550000Y-47580000D01*
X171575000Y-48605000D02*
X171575000Y-60400000D01*
X172095508Y-94670000D02*
X173600000Y-94670000D01*
X171750508Y-94325000D02*
X172095508Y-94670000D01*
X170625000Y-93425000D02*
X171525000Y-94325000D01*
X169900000Y-66538607D02*
X170625000Y-67263607D01*
%TO.N,/MCU and Communications/ETH_TXD1*%
X144690824Y-63465340D02*
X144690824Y-62933412D01*
X147210000Y-70110000D02*
X148090000Y-70110000D01*
X145410483Y-68815001D02*
X145410483Y-68355381D01*
X149000000Y-52800000D02*
X149140000Y-52660000D01*
X146075000Y-65309136D02*
X145200000Y-64434136D01*
X148700000Y-57005207D02*
X148700000Y-52800000D01*
X143300000Y-61542588D02*
X143300000Y-60325000D01*
X146075000Y-67690864D02*
X146075000Y-65309136D01*
X148700000Y-52800000D02*
X149000000Y-52800000D01*
X145636015Y-70090000D02*
X147190000Y-70090000D01*
X145200000Y-63974516D02*
X144690824Y-63465340D01*
X149140000Y-52660000D02*
X152050000Y-52660000D01*
X143300000Y-60325000D02*
X143625000Y-60000000D01*
X143625000Y-60000000D02*
X144985792Y-58639208D01*
X145326015Y-70400000D02*
X145636015Y-70090000D01*
X147380204Y-58325003D02*
X148700000Y-57005207D01*
X145872191Y-58639208D02*
X146186396Y-58325003D01*
X144690824Y-62933412D02*
X143300000Y-61542588D01*
X145410483Y-68355381D02*
X146075000Y-67690864D01*
X146186396Y-58325003D02*
X147380204Y-58325003D01*
X145200000Y-64434136D02*
X145200000Y-63974516D01*
X144475000Y-70400000D02*
X145326015Y-70400000D01*
X147190000Y-70090000D02*
X147210000Y-70110000D01*
X144985792Y-58639208D02*
X145872191Y-58639208D01*
%TO.N,LED_CH3*%
X154340000Y-61275000D02*
X166278983Y-61275000D01*
X170175000Y-67450003D02*
X170175000Y-92849999D01*
X169624999Y-93400000D02*
X168650000Y-93400000D01*
X153815000Y-62800000D02*
X153815000Y-61800000D01*
X170175000Y-92849999D02*
X169624999Y-93400000D01*
X153815000Y-61800000D02*
X154340000Y-61275000D01*
X166278983Y-61275000D02*
X166603983Y-60950000D01*
X167849997Y-65125000D02*
X170175000Y-67450003D01*
%TO.N,Net-(R21-Pad2)*%
X179450000Y-93400000D02*
X181150000Y-95100000D01*
X173600000Y-93400000D02*
X179450000Y-93400000D01*
%TO.N,Net-(R22-Pad2)*%
X174625908Y-99105000D02*
X172574092Y-99105000D01*
X170175000Y-95675000D02*
X170175000Y-94524092D01*
X172574092Y-99105000D02*
X170700000Y-97230908D01*
X170700000Y-97230908D02*
X170700000Y-96200000D01*
X170175000Y-94524092D02*
X169675908Y-94025000D01*
X170700000Y-96200000D02*
X170175000Y-95675000D01*
X167350000Y-93049092D02*
X168269092Y-92130000D01*
X180350000Y-98400000D02*
X175330908Y-98400000D01*
X175330908Y-98400000D02*
X174625908Y-99105000D01*
X167624092Y-94025000D02*
X167350000Y-93750908D01*
X167350000Y-93750908D02*
X167350000Y-93049092D01*
X168269092Y-92130000D02*
X168650000Y-92130000D01*
X169675908Y-94025000D02*
X167624092Y-94025000D01*
%TO.N,Net-(R23-Pad2)*%
X172999092Y-100800000D02*
X170000000Y-97800908D01*
X184250000Y-100800000D02*
X172999092Y-100800000D01*
X170000000Y-96315001D02*
X169624999Y-95940000D01*
X170000000Y-97800908D02*
X170000000Y-96315001D01*
X169624999Y-95940000D02*
X168650000Y-95940000D01*
%TO.N,/MCU and Communications/ETH_CLK_OUT*%
X154400000Y-59910698D02*
X154400000Y-55200000D01*
X152740000Y-68536016D02*
X153103984Y-68900000D01*
X152482764Y-68110000D02*
X152740000Y-68367236D01*
X154233349Y-68866651D02*
X154233349Y-67123375D01*
X153432998Y-60877700D02*
X154400000Y-59910698D01*
X154200000Y-68900000D02*
X154233349Y-68866651D01*
X154233349Y-67123375D02*
X154101003Y-66991029D01*
X154400000Y-55200000D02*
X152050000Y-55200000D01*
X153103984Y-68900000D02*
X154200000Y-68900000D01*
X151990000Y-68110000D02*
X152482764Y-68110000D01*
X152740000Y-68367236D02*
X152740000Y-68536016D01*
%TO.N,LED_CH1*%
X171075000Y-67077211D02*
X171075000Y-92023983D01*
X171525000Y-61100000D02*
X171525000Y-63672792D01*
X172025000Y-47785000D02*
X172025000Y-60600000D01*
X170350000Y-64847792D02*
X170350000Y-66352211D01*
X171429492Y-97284491D02*
X172625001Y-98480000D01*
X172025000Y-60600000D02*
X171525000Y-61100000D01*
X170550000Y-46310000D02*
X172025000Y-47785000D01*
X172625001Y-98480000D02*
X173600000Y-98480000D01*
X170350000Y-66352211D02*
X171075000Y-67077211D01*
X169550000Y-46310000D02*
X170550000Y-46310000D01*
X171525000Y-63672792D02*
X170350000Y-64847792D01*
X171075000Y-92023983D02*
X171525508Y-92474491D01*
X171429492Y-95100000D02*
X171429492Y-97284491D01*
%TO.N,/MCU and Communications/RS485_TX*%
X172425000Y-61486396D02*
X172925000Y-60986396D01*
X172925000Y-59475003D02*
X173400000Y-59000003D01*
X173352208Y-75675000D02*
X172450000Y-74772792D01*
X172450000Y-70150000D02*
X172425000Y-70125000D01*
X172425000Y-64045584D02*
X172425000Y-61486396D01*
X153340003Y-57740000D02*
X153600000Y-57999997D01*
X172425000Y-66518023D02*
X172400000Y-66493023D01*
X167100000Y-58000003D02*
X155175000Y-58000003D01*
X178225000Y-75105000D02*
X177405000Y-75105000D01*
X177405000Y-75105000D02*
X176396904Y-74096904D01*
X172425000Y-70125000D02*
X172425000Y-66518023D01*
X174818808Y-75675000D02*
X173352208Y-75675000D01*
X172925000Y-60986396D02*
X172925000Y-59475003D01*
X152050000Y-57740000D02*
X153340003Y-57740000D01*
X172400000Y-64070584D02*
X172425000Y-64045584D01*
X176396904Y-74096904D02*
X174818808Y-75675000D01*
X172400000Y-66493023D02*
X172400000Y-64070584D01*
X172450000Y-74772792D02*
X172450000Y-70150000D01*
%TO.N,/MCU and Communications/RS485_RX*%
X174625000Y-58492591D02*
X174625000Y-59507415D01*
X176605000Y-71295000D02*
X178225000Y-71295000D01*
X170770000Y-56470000D02*
X170800000Y-56500000D01*
X174450000Y-58313604D02*
X174450000Y-58317591D01*
X173725000Y-74775000D02*
X174446016Y-74775000D01*
X174175000Y-58038604D02*
X174450000Y-58313604D01*
X175800000Y-72100000D02*
X176605000Y-71295000D01*
X169550000Y-56470000D02*
X170770000Y-56470000D01*
X174625000Y-59507415D02*
X173825000Y-60307415D01*
X173350000Y-74400000D02*
X173725000Y-74775000D01*
X174175000Y-57578984D02*
X174175000Y-58038604D01*
X174450000Y-58317591D02*
X174625000Y-58492591D01*
X173300000Y-56500000D02*
X173300000Y-57125000D01*
X174446016Y-74775000D02*
X175800000Y-73421016D01*
X173721016Y-57125000D02*
X174175000Y-57578984D01*
X173300000Y-57125000D02*
X173721016Y-57125000D01*
X175800000Y-73421016D02*
X175800000Y-72100000D01*
X173825000Y-61359188D02*
X173350000Y-61834188D01*
X173825000Y-60307415D02*
X173825000Y-61359188D01*
X173350000Y-61834188D02*
X173350000Y-74400000D01*
%TO.N,/MCU and Communications/RS485_DE*%
X176500000Y-73357412D02*
X176500000Y-73000000D01*
X174632412Y-75225000D02*
X176500000Y-73357412D01*
X174175000Y-58678987D02*
X174175000Y-59321019D01*
X178225000Y-72565000D02*
X178225000Y-73835000D01*
X176500000Y-73000000D02*
X176935000Y-72565000D01*
X167100000Y-56900000D02*
X155175000Y-56900000D01*
X173375000Y-60121019D02*
X173375000Y-61172792D01*
X173375000Y-61172792D02*
X172900000Y-61647792D01*
X172900000Y-61647792D02*
X172900000Y-74586396D01*
X172900000Y-74586396D02*
X173538604Y-75225000D01*
X173400000Y-57900000D02*
X174000000Y-58500000D01*
X176935000Y-72565000D02*
X178225000Y-72565000D01*
X153170006Y-56470000D02*
X153600000Y-56899994D01*
X174000000Y-58503987D02*
X174175000Y-58678987D01*
X152050000Y-56470000D02*
X153170006Y-56470000D01*
X174000000Y-58500000D02*
X174000000Y-58503987D01*
X174175000Y-59321019D02*
X173375000Y-60121019D01*
X173538604Y-75225000D02*
X174632412Y-75225000D01*
%TO.N,/MCU and Communications/ETH_TXD0*%
X144200000Y-69113604D02*
X144676396Y-69590000D01*
X144240824Y-63651736D02*
X144750000Y-64160912D01*
X145625000Y-67504468D02*
X144200000Y-68929468D01*
X144747173Y-58189208D02*
X142850000Y-60086381D01*
X142850000Y-61728984D02*
X144240824Y-63119808D01*
X145625000Y-65495532D02*
X145625000Y-67504468D01*
X146000000Y-57875003D02*
X145685795Y-58189208D01*
X148110000Y-51390000D02*
X148000000Y-51500000D01*
X147193808Y-57875003D02*
X146000000Y-57875003D01*
X148000000Y-51500000D02*
X148175000Y-51675000D01*
X144750000Y-64160912D02*
X144750000Y-64620532D01*
X144240824Y-63119808D02*
X144240824Y-63651736D01*
X147190000Y-69590000D02*
X147210000Y-69610000D01*
X144676396Y-69590000D02*
X147190000Y-69590000D01*
X152050000Y-51390000D02*
X148110000Y-51390000D01*
X148175000Y-56893811D02*
X147193808Y-57875003D01*
X144200000Y-68929468D02*
X144200000Y-69113604D01*
X144750000Y-64620532D02*
X145625000Y-65495532D01*
X145685795Y-58189208D02*
X144747173Y-58189208D01*
X147210000Y-69610000D02*
X148090000Y-69610000D01*
X142850000Y-60086381D02*
X142850000Y-61728984D01*
X148175000Y-51675000D02*
X148175000Y-56893811D01*
%TO.N,/MCU and Communications/ETH_RXD0*%
X150790000Y-66417236D02*
X150790000Y-66910000D01*
X151307236Y-65900000D02*
X150790000Y-66417236D01*
X152565000Y-65900000D02*
X151307236Y-65900000D01*
X152782500Y-66117500D02*
X152565000Y-65900000D01*
X158895000Y-63626015D02*
X158171015Y-64350000D01*
X158895000Y-62800000D02*
X158895000Y-63626015D01*
%TO.N,Net-(DZ1-A)*%
X123909052Y-79425000D02*
X121075000Y-79425000D01*
X121075000Y-79425000D02*
X120150000Y-78500000D01*
X116300000Y-77161592D02*
X117386592Y-76075000D01*
X120150000Y-78500000D02*
X119811592Y-78500000D01*
X124850000Y-77300000D02*
X124850000Y-78484052D01*
X124850000Y-78484052D02*
X123909052Y-79425000D01*
X116300000Y-79500000D02*
X116300000Y-77161592D01*
X119811592Y-78500000D02*
X117386592Y-76075000D01*
%TO.N,Net-(U9-VDDIO)*%
X148360862Y-62200000D02*
X149500000Y-62200000D01*
X148273220Y-62287642D02*
X148360862Y-62200000D01*
X148273220Y-63323352D02*
X148273220Y-62287642D01*
X150300000Y-66900000D02*
X150290000Y-66910000D01*
X150300000Y-65800000D02*
X150300000Y-66900000D01*
%TO.N,/MCU and Communications/BTN1*%
X165262500Y-78437500D02*
X162925000Y-76100000D01*
X170130000Y-60280000D02*
X170625000Y-60775000D01*
X166921799Y-66350000D02*
X167802205Y-66350000D01*
X167802205Y-66350000D02*
X169275000Y-67822795D01*
X169275000Y-74825000D02*
X167100000Y-77000000D01*
X167250000Y-80900000D02*
X167250000Y-80425000D01*
X169275000Y-67822795D02*
X169275000Y-74825000D01*
X165800000Y-78000000D02*
X165700000Y-78000000D01*
X166393274Y-65821475D02*
X166921799Y-66350000D01*
X170625000Y-63300000D02*
X169724998Y-64200002D01*
X169550000Y-60280000D02*
X170130000Y-60280000D01*
X165700000Y-78000000D02*
X165262500Y-78437500D01*
X169724998Y-64200002D02*
X166600000Y-64200002D01*
X167250000Y-80425000D02*
X165262500Y-78437500D01*
X162925000Y-76100000D02*
X162600000Y-76100000D01*
X170625000Y-60775000D02*
X170625000Y-63300000D01*
%TO.N,/MCU and Communications/BTN2*%
X167250000Y-82500000D02*
X167975000Y-81775000D01*
X167046022Y-76100000D02*
X165100000Y-76100000D01*
X165300000Y-64100000D02*
X165245000Y-64045000D01*
X165300000Y-64200000D02*
X165300000Y-64100000D01*
X167975000Y-78975000D02*
X165100000Y-76100000D01*
X168825000Y-74321022D02*
X167046022Y-76100000D01*
X167657905Y-66842096D02*
X168825000Y-68009191D01*
X167975000Y-81775000D02*
X167975000Y-78975000D01*
X166142096Y-66842096D02*
X167657905Y-66842096D01*
X168825000Y-68009191D02*
X168825000Y-74321022D01*
X165200000Y-65900000D02*
X166142096Y-66842096D01*
X165245000Y-64045000D02*
X165245000Y-62800000D01*
%TO.N,REMOTE_OUT*%
X163850000Y-65850000D02*
X162600000Y-67100000D01*
X164000000Y-64200000D02*
X164000000Y-64100000D01*
X163975000Y-64075000D02*
X163975000Y-62800000D01*
X164000000Y-64100000D02*
X163975000Y-64075000D01*
X162600000Y-67100000D02*
X162600000Y-69300000D01*
%TO.N,Net-(SW2-B)*%
X175250000Y-53480000D02*
X177045000Y-55275000D01*
X167825000Y-47900000D02*
X168300000Y-48375000D01*
X175250000Y-47609642D02*
X175464642Y-47395000D01*
X174200000Y-46400000D02*
X175080000Y-45520000D01*
X168300000Y-48375000D02*
X168300000Y-52253982D01*
X175080000Y-45520000D02*
X175250000Y-45520000D01*
X167828982Y-54275000D02*
X168025000Y-54275000D01*
X175250000Y-53480000D02*
X175250000Y-47609642D01*
X168950000Y-61550000D02*
X169550000Y-61550000D01*
X177045000Y-55275000D02*
X180100000Y-55275000D01*
X168025000Y-60605000D02*
X168970000Y-61550000D01*
X167374998Y-53821016D02*
X167828982Y-54275000D01*
X168025000Y-54275000D02*
X168025000Y-60605000D01*
X168300000Y-52253982D02*
X167374998Y-53178984D01*
X167374998Y-53178984D02*
X167374998Y-53821016D01*
X168970000Y-61550000D02*
X169550000Y-61550000D01*
%TO.N,/MCU and Communications/REMOTE*%
X191725000Y-87288604D02*
X191725000Y-86701996D01*
X193375000Y-92475000D02*
X194100000Y-93200000D01*
X192873004Y-86400000D02*
X193375000Y-86901996D01*
X171525000Y-80361396D02*
X175038604Y-83875000D01*
X170800000Y-66165815D02*
X171525000Y-66890815D01*
X185993608Y-86003170D02*
X189502021Y-89511583D01*
X193375000Y-86901996D02*
X193375000Y-92475000D01*
X189502021Y-89511583D02*
X191725000Y-87288604D01*
X194100000Y-93200000D02*
X198520000Y-93200000D01*
X171525000Y-66890815D02*
X171525000Y-80361396D01*
X172475000Y-60800000D02*
X171975000Y-61300000D01*
X175038604Y-83875000D02*
X182541042Y-83875000D01*
X191725000Y-86701996D02*
X192026996Y-86400000D01*
X192026996Y-86400000D02*
X192873004Y-86400000D01*
X169550000Y-55200000D02*
X170800000Y-55200000D01*
X172475000Y-55525000D02*
X172475000Y-60800000D01*
X172800000Y-55200000D02*
X172475000Y-55525000D01*
X171975000Y-61300000D02*
X171975000Y-63859188D01*
X171975000Y-63859188D02*
X170800000Y-65034188D01*
X170800000Y-65034188D02*
X170800000Y-66165815D01*
X198520000Y-93200000D02*
X199100000Y-92620000D01*
%TO.N,/MCU and Communications/MIC_SENS*%
X174900000Y-83100000D02*
X183400000Y-83100000D01*
X186766844Y-85950896D02*
X188290948Y-87475000D01*
X155580000Y-61725000D02*
X167378986Y-61725000D01*
X171499999Y-65600001D02*
X171250000Y-65850000D01*
X190248008Y-86751992D02*
X190248008Y-85448008D01*
X190248008Y-85448008D02*
X194048008Y-85448008D01*
X155085000Y-62220000D02*
X155580000Y-61725000D01*
X171575000Y-65600001D02*
X171499999Y-65600001D01*
X167378986Y-61725000D02*
X167703985Y-61400001D01*
X171250000Y-65850000D02*
X171250000Y-65979419D01*
X186766844Y-85091682D02*
X186766844Y-85950896D01*
X194048008Y-85448008D02*
X194100000Y-85500000D01*
X155085000Y-62800000D02*
X155085000Y-62220000D01*
X171975000Y-66704419D02*
X171975000Y-80175000D01*
X189525000Y-87475000D02*
X190248008Y-86751992D01*
X188290948Y-87475000D02*
X189525000Y-87475000D01*
X194100000Y-87200000D02*
X196900000Y-87200000D01*
X171250000Y-65979419D02*
X171975000Y-66704419D01*
X186775000Y-85083526D02*
X186766844Y-85091682D01*
X196900000Y-87200000D02*
X199100000Y-85000000D01*
X171975000Y-80175000D02*
X174900000Y-83100000D01*
X194100000Y-85500000D02*
X194100000Y-87200000D01*
%TO.N,/Power System/U1_SS*%
X106800000Y-90930000D02*
X108025000Y-89705000D01*
X106800000Y-95600000D02*
X106800000Y-90930000D01*
X107100000Y-98600000D02*
X107100000Y-95900000D01*
X107100000Y-95900000D02*
X106800000Y-95600000D01*
%TO.N,Net-(C22-Pad1)*%
X108600000Y-98600000D02*
X108600000Y-97500000D01*
X108600000Y-97500000D02*
X108300000Y-97200000D01*
%TO.N,Net-(Q4-G)*%
X116770000Y-93960000D02*
X116385000Y-93575000D01*
X136708275Y-66650000D02*
X136650000Y-66650000D01*
X109375000Y-93575000D02*
X116385000Y-93575000D01*
X108300000Y-92500000D02*
X109375000Y-93575000D01*
X125550000Y-93960000D02*
X119400000Y-93960000D01*
X127640000Y-93960000D02*
X125550000Y-93960000D01*
X132580426Y-92700000D02*
X128900000Y-92700000D01*
X119400000Y-93960000D02*
X116770000Y-93960000D01*
X135200000Y-65200000D02*
X134200000Y-65200000D01*
X128900000Y-92700000D02*
X127640000Y-93960000D01*
X134200000Y-65200000D02*
X134100000Y-65100000D01*
X136650000Y-66650000D02*
X135200000Y-65200000D01*
X132650000Y-92630426D02*
X132580426Y-92700000D01*
%TO.N,Net-(Q6-D)*%
X119900000Y-64550000D02*
X117450000Y-64550000D01*
X127887994Y-65625000D02*
X129250000Y-65625000D01*
X126437994Y-67075000D02*
X127887994Y-65625000D01*
X129250000Y-65625000D02*
X130025000Y-64850000D01*
X117450000Y-64550000D02*
X116800000Y-63900000D01*
X122425000Y-67075000D02*
X126437994Y-67075000D01*
X119900000Y-64550000D02*
X122425000Y-67075000D01*
D87*
%TO.N,Net-(Q9-D)*%
X115900000Y-65825000D02*
X115900000Y-62000000D01*
X115850000Y-65875000D02*
X115900000Y-65825000D01*
D86*
%TO.N,Net-(J2-CC2)*%
X109275000Y-48155000D02*
X107048274Y-48155000D01*
X107048274Y-48155000D02*
X106565000Y-48638274D01*
X106565000Y-48638274D02*
X106565000Y-52018984D01*
X109960000Y-48840000D02*
X109275000Y-48155000D01*
X106565000Y-52018984D02*
X107700000Y-53153984D01*
X109960000Y-50445000D02*
X109960000Y-48840000D01*
X107700000Y-53153984D02*
X107700000Y-54900000D01*
%TO.N,Net-(J2-CC1)*%
X117250000Y-49033274D02*
X117250000Y-55150000D01*
X116371726Y-48155000D02*
X117250000Y-49033274D01*
X112960000Y-48940000D02*
X113745000Y-48155000D01*
X112960000Y-48940000D02*
X112960000Y-50445000D01*
X117250000Y-55150000D02*
X116900000Y-55500000D01*
X113745000Y-48155000D02*
X116371726Y-48155000D01*
%TO.N,/Power System/U1_COMP*%
X109825000Y-87325000D02*
X109665000Y-87165000D01*
X107801996Y-91775000D02*
X108875000Y-91775000D01*
X108900000Y-91800000D02*
X109825000Y-90875000D01*
X107500000Y-94750000D02*
X107500000Y-92076996D01*
X108875000Y-91775000D02*
X108900000Y-91800000D01*
X107500000Y-92076996D02*
X107801996Y-91775000D01*
X108300000Y-95550000D02*
X107500000Y-94750000D01*
X109825000Y-90875000D02*
X109825000Y-87325000D01*
X109665000Y-87165000D02*
X108025000Y-87165000D01*
D87*
%TO.N,/Power System/+5V_RF*%
X113300000Y-55100000D02*
X115175000Y-55100000D01*
X115175000Y-55100000D02*
X116300000Y-53975000D01*
D86*
X111850000Y-56550000D02*
X113300000Y-55100000D01*
D92*
X109260000Y-50445000D02*
X109260000Y-51570000D01*
D87*
X113300000Y-57500000D02*
X113300000Y-55100000D01*
D86*
X107700000Y-56550000D02*
X111850000Y-56550000D01*
D93*
X114160000Y-51570000D02*
X114160000Y-50445000D01*
X114085000Y-51645000D02*
X114160000Y-51570000D01*
D86*
X116900000Y-57700000D02*
X115900000Y-58700000D01*
D87*
X115900000Y-58700000D02*
X114500000Y-58700000D01*
X114500000Y-58700000D02*
X113300000Y-57500000D01*
D93*
X109260000Y-51570000D02*
X109335000Y-51645000D01*
X109335000Y-51645000D02*
X114085000Y-51645000D01*
D86*
X116900000Y-57150000D02*
X116900000Y-57700000D01*
D87*
X113300000Y-55100000D02*
X113300000Y-51770000D01*
D86*
%TO.N,SIG_CH1*%
X189423798Y-91700000D02*
X185300000Y-91700000D01*
X191100000Y-96700000D02*
X191100000Y-93376202D01*
X197700090Y-98200090D02*
X192600090Y-98200090D01*
X192600090Y-98200090D02*
X191100000Y-96700000D01*
X191100000Y-93376202D02*
X189423798Y-91700000D01*
X198900000Y-99400000D02*
X197700090Y-98200090D01*
%TO.N,SIG_CH2*%
X192699994Y-99299994D02*
X190600000Y-97200000D01*
X190500000Y-94500000D02*
X189500000Y-94500000D01*
X197699991Y-99299994D02*
X192699994Y-99299994D01*
X190600000Y-97200000D02*
X190600000Y-94600000D01*
X190600000Y-94600000D02*
X190500000Y-94500000D01*
X198900000Y-100500003D02*
X197699991Y-99299994D01*
%TO.N,SIG_CH3*%
X189781298Y-97100000D02*
X185300000Y-97100000D01*
X192899997Y-100399997D02*
X191950000Y-99450000D01*
X197801149Y-100550339D02*
X197650807Y-100399997D01*
X191950000Y-99268702D02*
X189781298Y-97100000D01*
X197650807Y-100399997D02*
X192899997Y-100399997D01*
X191950000Y-99450000D02*
X191950000Y-99268702D01*
%TO.N,SIG_CH4*%
X197799203Y-101650340D02*
X197648863Y-101500000D01*
X197648863Y-101500000D02*
X192457500Y-101500000D01*
X192457500Y-101500000D02*
X190457500Y-99500000D01*
X190457500Y-99500000D02*
X189457500Y-99500000D01*
%TO.N,/MCU and Communications/WATCHDOG_WDI*%
X175075000Y-56175000D02*
X175075000Y-65200000D01*
X172800000Y-53900000D02*
X175075000Y-56175000D01*
X169550000Y-53930000D02*
X170770000Y-53930000D01*
X170770000Y-53930000D02*
X170800000Y-53900000D01*
X175075000Y-65200000D02*
X175100000Y-65200000D01*
X175100000Y-65200000D02*
X175625000Y-65725000D01*
X175625000Y-65725000D02*
X178162500Y-65725000D01*
%TD*%
%TA.AperFunction,Conductor*%
%TO.N,Net-(J16-Pin_1)*%
G36*
X134726965Y-92904949D02*
G01*
X134822234Y-92923979D01*
X134902972Y-92978020D01*
X134948622Y-93040905D01*
X135009415Y-93160219D01*
X135009418Y-93160223D01*
X135009421Y-93160228D01*
X135143621Y-93344937D01*
X135305063Y-93506379D01*
X135489772Y-93640579D01*
X135489774Y-93640580D01*
X135489775Y-93640581D01*
X135535177Y-93663714D01*
X135693201Y-93744231D01*
X135910340Y-93814784D01*
X136135843Y-93850500D01*
X136135847Y-93850500D01*
X136364153Y-93850500D01*
X136364157Y-93850500D01*
X136589660Y-93814784D01*
X136806799Y-93744231D01*
X137010228Y-93640579D01*
X137194937Y-93506379D01*
X137356379Y-93344937D01*
X137490579Y-93160228D01*
X137550137Y-93043336D01*
X137610285Y-92967040D01*
X137695052Y-92919568D01*
X137772195Y-92907381D01*
X139146559Y-92908478D01*
X139241830Y-92927508D01*
X139322568Y-92981549D01*
X139376480Y-93062373D01*
X139395356Y-93156643D01*
X139402150Y-95183606D01*
X139402278Y-95221683D01*
X139446344Y-108369182D01*
X139446425Y-108393242D01*
X139454474Y-110795000D01*
X139468064Y-114849665D01*
X139449429Y-114945017D01*
X139395724Y-115025978D01*
X139315124Y-115080225D01*
X139219900Y-115099499D01*
X139219065Y-115099500D01*
X128874310Y-115099500D01*
X128779022Y-115080546D01*
X128698240Y-115026570D01*
X128644264Y-114945788D01*
X128625313Y-114851616D01*
X128606209Y-110589702D01*
X128600347Y-109281989D01*
X134799500Y-109281989D01*
X134799500Y-109518011D01*
X134830307Y-109752014D01*
X134891394Y-109979993D01*
X134916870Y-110041498D01*
X134981713Y-110198043D01*
X134981718Y-110198054D01*
X135053965Y-110323188D01*
X135099727Y-110402450D01*
X135243408Y-110589699D01*
X135410301Y-110756592D01*
X135597550Y-110900273D01*
X135597559Y-110900278D01*
X135801945Y-111018281D01*
X135801948Y-111018282D01*
X135801951Y-111018284D01*
X136020007Y-111108606D01*
X136247986Y-111169693D01*
X136481989Y-111200500D01*
X136718011Y-111200500D01*
X136952014Y-111169693D01*
X137179993Y-111108606D01*
X137398049Y-111018284D01*
X137602450Y-110900273D01*
X137789699Y-110756592D01*
X137956592Y-110589699D01*
X138100273Y-110402450D01*
X138218284Y-110198049D01*
X138308606Y-109979993D01*
X138369693Y-109752014D01*
X138400500Y-109518011D01*
X138400500Y-109281989D01*
X138369693Y-109047986D01*
X138308606Y-108820007D01*
X138218284Y-108601951D01*
X138173442Y-108524283D01*
X138113774Y-108420935D01*
X138100273Y-108397550D01*
X137956592Y-108210301D01*
X137789699Y-108043408D01*
X137602450Y-107899727D01*
X137602440Y-107899721D01*
X137398054Y-107781718D01*
X137398043Y-107781713D01*
X137277222Y-107731667D01*
X137179993Y-107691394D01*
X136952014Y-107630307D01*
X136952007Y-107630306D01*
X136718011Y-107599500D01*
X136481989Y-107599500D01*
X136247992Y-107630306D01*
X136247990Y-107630306D01*
X136247986Y-107630307D01*
X136075640Y-107676487D01*
X136020010Y-107691393D01*
X136020007Y-107691394D01*
X135801956Y-107781713D01*
X135801945Y-107781718D01*
X135597559Y-107899721D01*
X135597549Y-107899727D01*
X135410301Y-108043408D01*
X135410297Y-108043411D01*
X135243411Y-108210297D01*
X135243408Y-108210301D01*
X135099727Y-108397549D01*
X135099721Y-108397559D01*
X134981718Y-108601945D01*
X134981713Y-108601956D01*
X134891394Y-108820007D01*
X134830307Y-109047986D01*
X134830306Y-109047990D01*
X134830306Y-109047992D01*
X134808408Y-109214326D01*
X134799500Y-109281989D01*
X128600347Y-109281989D01*
X128532100Y-94056741D01*
X128550625Y-93961375D01*
X128604239Y-93880352D01*
X128604501Y-93880088D01*
X129086160Y-93398430D01*
X129166941Y-93344454D01*
X129262229Y-93325500D01*
X131903863Y-93325500D01*
X131999151Y-93344454D01*
X132042200Y-93367464D01*
X132044092Y-93368728D01*
X132199769Y-93472748D01*
X132199771Y-93472748D01*
X132199773Y-93472750D01*
X132372746Y-93544398D01*
X132372747Y-93544398D01*
X132372749Y-93544399D01*
X132556384Y-93580926D01*
X132556386Y-93580926D01*
X132743614Y-93580926D01*
X132743616Y-93580926D01*
X132927251Y-93544399D01*
X133100231Y-93472748D01*
X133255908Y-93368728D01*
X133388302Y-93236334D01*
X133492322Y-93080657D01*
X133501761Y-93057868D01*
X133555737Y-92977087D01*
X133636518Y-92923110D01*
X133731803Y-92904155D01*
X134726965Y-92904949D01*
G37*
%TD.AperFunction*%
%TD*%
%TA.AperFunction,Conductor*%
%TO.N,LED_24V_CH3*%
G36*
X141829165Y-92907710D02*
G01*
X141924375Y-92927045D01*
X142004940Y-92981344D01*
X142050028Y-93043663D01*
X142109421Y-93160228D01*
X142243621Y-93344937D01*
X142405063Y-93506379D01*
X142589772Y-93640579D01*
X142589774Y-93640580D01*
X142589775Y-93640581D01*
X142656346Y-93674500D01*
X142793201Y-93744231D01*
X143010340Y-93814784D01*
X143235843Y-93850500D01*
X143235847Y-93850500D01*
X143464153Y-93850500D01*
X143464157Y-93850500D01*
X143689660Y-93814784D01*
X143906799Y-93744231D01*
X144110228Y-93640579D01*
X144294937Y-93506379D01*
X144456379Y-93344937D01*
X144590579Y-93160228D01*
X144643787Y-93055800D01*
X144703931Y-92979508D01*
X144788698Y-92932036D01*
X144866634Y-92919850D01*
X159515189Y-92978398D01*
X159610392Y-92997732D01*
X159690957Y-93052031D01*
X159736044Y-93114348D01*
X159759421Y-93160228D01*
X159893621Y-93344937D01*
X160055063Y-93506379D01*
X160239772Y-93640579D01*
X160239774Y-93640580D01*
X160239775Y-93640581D01*
X160306346Y-93674500D01*
X160443201Y-93744231D01*
X160660340Y-93814784D01*
X160885843Y-93850500D01*
X160885847Y-93850500D01*
X161114153Y-93850500D01*
X161114157Y-93850500D01*
X161339660Y-93814784D01*
X161556799Y-93744231D01*
X161760228Y-93640579D01*
X161944937Y-93506379D01*
X162106379Y-93344937D01*
X162240579Y-93160228D01*
X162257914Y-93126204D01*
X162318059Y-93049910D01*
X162402826Y-93002437D01*
X162480763Y-92990251D01*
X164668449Y-92998995D01*
X164763658Y-93018330D01*
X164844223Y-93072629D01*
X164897876Y-93153625D01*
X164916449Y-93248988D01*
X164916429Y-93251269D01*
X164799999Y-102099999D01*
X164800000Y-102100000D01*
X191855446Y-101887632D01*
X191890227Y-101894267D01*
X191925525Y-101897126D01*
X191935288Y-101902863D01*
X191950873Y-101905836D01*
X192011991Y-101941429D01*
X192023276Y-101950367D01*
X192058767Y-101985858D01*
X192109990Y-102020084D01*
X192118366Y-102025681D01*
X192118370Y-102025684D01*
X192143346Y-102042373D01*
X192161214Y-102054312D01*
X192241707Y-102087652D01*
X192275048Y-102101463D01*
X192335471Y-102113481D01*
X192375097Y-102121363D01*
X192395892Y-102125500D01*
X192395893Y-102125500D01*
X192395894Y-102125500D01*
X196840445Y-102125500D01*
X196935733Y-102144454D01*
X197016515Y-102198430D01*
X197047481Y-102236164D01*
X197060901Y-102256248D01*
X197193295Y-102388642D01*
X197348972Y-102492662D01*
X197348974Y-102492662D01*
X197348976Y-102492664D01*
X197521949Y-102564312D01*
X197521950Y-102564312D01*
X197521952Y-102564313D01*
X197705587Y-102600840D01*
X197705589Y-102600840D01*
X197892817Y-102600840D01*
X197892819Y-102600840D01*
X198076454Y-102564313D01*
X198249434Y-102492662D01*
X198405111Y-102388642D01*
X198537505Y-102256248D01*
X198641525Y-102100571D01*
X198689022Y-101985903D01*
X198742995Y-101905126D01*
X198823776Y-101851149D01*
X198917107Y-101832202D01*
X202748554Y-101802128D01*
X202843980Y-101820332D01*
X202925182Y-101873673D01*
X202979791Y-101954028D01*
X202999492Y-102049165D01*
X202999500Y-102051119D01*
X202999500Y-104114338D01*
X202999490Y-104116514D01*
X202905657Y-114852676D01*
X202885871Y-114947795D01*
X202831191Y-115028102D01*
X202749941Y-115081370D01*
X202656667Y-115099500D01*
X140222571Y-115099500D01*
X140127283Y-115080546D01*
X140046501Y-115026570D01*
X139992525Y-114945788D01*
X139973572Y-114851338D01*
X139951841Y-108367488D01*
X141119500Y-108367488D01*
X141119500Y-110567506D01*
X141130001Y-110670300D01*
X141185185Y-110836831D01*
X141185186Y-110836834D01*
X141277288Y-110986156D01*
X141401344Y-111110212D01*
X141550666Y-111202314D01*
X141550669Y-111202315D01*
X141550667Y-111202315D01*
X141714310Y-111256540D01*
X141717203Y-111257499D01*
X141819991Y-111268000D01*
X144020008Y-111267999D01*
X144122797Y-111257499D01*
X144289334Y-111202314D01*
X144438656Y-111110212D01*
X144562712Y-110986156D01*
X144654814Y-110836834D01*
X144709999Y-110670297D01*
X144720500Y-110567509D01*
X144720499Y-109349489D01*
X146199500Y-109349489D01*
X146199500Y-109585511D01*
X146230307Y-109819514D01*
X146291394Y-110047493D01*
X146304856Y-110079992D01*
X146381713Y-110265543D01*
X146381718Y-110265554D01*
X146499721Y-110469940D01*
X146499727Y-110469950D01*
X146643408Y-110657199D01*
X146810301Y-110824092D01*
X146997550Y-110967773D01*
X146997559Y-110967778D01*
X147201945Y-111085781D01*
X147201948Y-111085782D01*
X147201951Y-111085784D01*
X147420007Y-111176106D01*
X147647986Y-111237193D01*
X147881989Y-111268000D01*
X148118011Y-111268000D01*
X148352014Y-111237193D01*
X148579993Y-111176106D01*
X148798049Y-111085784D01*
X149002450Y-110967773D01*
X149189699Y-110824092D01*
X149356592Y-110657199D01*
X149500273Y-110469950D01*
X149618284Y-110265549D01*
X149708606Y-110047493D01*
X149769693Y-109819514D01*
X149800500Y-109585511D01*
X149800500Y-109349489D01*
X156359500Y-109349489D01*
X156359500Y-109585511D01*
X156390307Y-109819514D01*
X156451394Y-110047493D01*
X156464856Y-110079992D01*
X156541713Y-110265543D01*
X156541718Y-110265554D01*
X156659721Y-110469940D01*
X156659727Y-110469950D01*
X156803408Y-110657199D01*
X156970301Y-110824092D01*
X157157550Y-110967773D01*
X157157559Y-110967778D01*
X157361945Y-111085781D01*
X157361948Y-111085782D01*
X157361951Y-111085784D01*
X157580007Y-111176106D01*
X157807986Y-111237193D01*
X158041989Y-111268000D01*
X158278011Y-111268000D01*
X158512014Y-111237193D01*
X158739993Y-111176106D01*
X158958049Y-111085784D01*
X159162450Y-110967773D01*
X159349699Y-110824092D01*
X159516592Y-110657199D01*
X159660273Y-110469950D01*
X159778284Y-110265549D01*
X159868606Y-110047493D01*
X159929693Y-109819514D01*
X159960500Y-109585511D01*
X159960500Y-109349489D01*
X161439500Y-109349489D01*
X161439500Y-109585511D01*
X161470307Y-109819514D01*
X161531394Y-110047493D01*
X161544856Y-110079992D01*
X161621713Y-110265543D01*
X161621718Y-110265554D01*
X161739721Y-110469940D01*
X161739727Y-110469950D01*
X161883408Y-110657199D01*
X162050301Y-110824092D01*
X162237550Y-110967773D01*
X162237559Y-110967778D01*
X162441945Y-111085781D01*
X162441948Y-111085782D01*
X162441951Y-111085784D01*
X162660007Y-111176106D01*
X162887986Y-111237193D01*
X163121989Y-111268000D01*
X163358011Y-111268000D01*
X163592014Y-111237193D01*
X163819993Y-111176106D01*
X164038049Y-111085784D01*
X164242450Y-110967773D01*
X164429699Y-110824092D01*
X164596592Y-110657199D01*
X164740273Y-110469950D01*
X164858284Y-110265549D01*
X164948606Y-110047493D01*
X165009693Y-109819514D01*
X165040500Y-109585511D01*
X165040500Y-109349489D01*
X171599500Y-109349489D01*
X171599500Y-109585511D01*
X171630307Y-109819514D01*
X171691394Y-110047493D01*
X171704856Y-110079992D01*
X171781713Y-110265543D01*
X171781718Y-110265554D01*
X171899721Y-110469940D01*
X171899727Y-110469950D01*
X172043408Y-110657199D01*
X172210301Y-110824092D01*
X172397550Y-110967773D01*
X172397559Y-110967778D01*
X172601945Y-111085781D01*
X172601948Y-111085782D01*
X172601951Y-111085784D01*
X172820007Y-111176106D01*
X173047986Y-111237193D01*
X173281989Y-111268000D01*
X173518011Y-111268000D01*
X173752014Y-111237193D01*
X173979993Y-111176106D01*
X174198049Y-111085784D01*
X174402450Y-110967773D01*
X174589699Y-110824092D01*
X174756592Y-110657199D01*
X174900273Y-110469950D01*
X175018284Y-110265549D01*
X175108606Y-110047493D01*
X175169693Y-109819514D01*
X175200500Y-109585511D01*
X175200500Y-109349489D01*
X176679500Y-109349489D01*
X176679500Y-109585511D01*
X176710307Y-109819514D01*
X176771394Y-110047493D01*
X176784856Y-110079992D01*
X176861713Y-110265543D01*
X176861718Y-110265554D01*
X176979721Y-110469940D01*
X176979727Y-110469950D01*
X177123408Y-110657199D01*
X177290301Y-110824092D01*
X177477550Y-110967773D01*
X177477559Y-110967778D01*
X177681945Y-111085781D01*
X177681948Y-111085782D01*
X177681951Y-111085784D01*
X177900007Y-111176106D01*
X178127986Y-111237193D01*
X178361989Y-111268000D01*
X178598011Y-111268000D01*
X178832014Y-111237193D01*
X179059993Y-111176106D01*
X179278049Y-111085784D01*
X179482450Y-110967773D01*
X179669699Y-110824092D01*
X179836592Y-110657199D01*
X179980273Y-110469950D01*
X180098284Y-110265549D01*
X180188606Y-110047493D01*
X180249693Y-109819514D01*
X180280500Y-109585511D01*
X180280500Y-109381989D01*
X187939500Y-109381989D01*
X187939500Y-109618011D01*
X187970307Y-109852014D01*
X188022686Y-110047493D01*
X188031393Y-110079989D01*
X188031394Y-110079992D01*
X188121713Y-110298043D01*
X188121718Y-110298054D01*
X188220957Y-110469940D01*
X188239727Y-110502450D01*
X188383408Y-110689699D01*
X188550301Y-110856592D01*
X188737550Y-111000273D01*
X188737559Y-111000278D01*
X188941945Y-111118281D01*
X188941948Y-111118282D01*
X188941951Y-111118284D01*
X189160007Y-111208606D01*
X189387986Y-111269693D01*
X189621989Y-111300500D01*
X189858011Y-111300500D01*
X190092014Y-111269693D01*
X190319993Y-111208606D01*
X190538049Y-111118284D01*
X190742450Y-111000273D01*
X190929699Y-110856592D01*
X191096592Y-110689699D01*
X191240273Y-110502450D01*
X191358284Y-110298049D01*
X191448606Y-110079993D01*
X191509693Y-109852014D01*
X191540500Y-109618011D01*
X191540500Y-109381989D01*
X193019500Y-109381989D01*
X193019500Y-109618011D01*
X193050307Y-109852014D01*
X193102686Y-110047493D01*
X193111393Y-110079989D01*
X193111394Y-110079992D01*
X193201713Y-110298043D01*
X193201718Y-110298054D01*
X193300957Y-110469940D01*
X193319727Y-110502450D01*
X193463408Y-110689699D01*
X193630301Y-110856592D01*
X193817550Y-111000273D01*
X193817559Y-111000278D01*
X194021945Y-111118281D01*
X194021948Y-111118282D01*
X194021951Y-111118284D01*
X194240007Y-111208606D01*
X194467986Y-111269693D01*
X194701989Y-111300500D01*
X194938011Y-111300500D01*
X195172014Y-111269693D01*
X195399993Y-111208606D01*
X195618049Y-111118284D01*
X195822450Y-111000273D01*
X196009699Y-110856592D01*
X196176592Y-110689699D01*
X196320273Y-110502450D01*
X196438284Y-110298049D01*
X196528606Y-110079993D01*
X196589693Y-109852014D01*
X196620500Y-109618011D01*
X196620500Y-109381989D01*
X196589693Y-109147986D01*
X196528606Y-108920007D01*
X196438284Y-108701951D01*
X196320273Y-108497550D01*
X196176592Y-108310301D01*
X196009699Y-108143408D01*
X195822450Y-107999727D01*
X195822440Y-107999721D01*
X195618054Y-107881718D01*
X195618043Y-107881713D01*
X195480608Y-107824786D01*
X195399993Y-107791394D01*
X195172014Y-107730307D01*
X195172007Y-107730306D01*
X194938011Y-107699500D01*
X194701989Y-107699500D01*
X194467992Y-107730306D01*
X194467990Y-107730306D01*
X194467986Y-107730307D01*
X194295640Y-107776487D01*
X194240010Y-107791393D01*
X194240007Y-107791394D01*
X194021956Y-107881713D01*
X194021945Y-107881718D01*
X193817559Y-107999721D01*
X193817549Y-107999727D01*
X193630301Y-108143408D01*
X193630297Y-108143411D01*
X193463411Y-108310297D01*
X193463408Y-108310301D01*
X193319727Y-108497549D01*
X193319721Y-108497559D01*
X193201718Y-108701945D01*
X193201713Y-108701956D01*
X193124856Y-108887507D01*
X193111394Y-108920007D01*
X193050307Y-109147986D01*
X193019500Y-109381989D01*
X191540500Y-109381989D01*
X191509693Y-109147986D01*
X191448606Y-108920007D01*
X191358284Y-108701951D01*
X191240273Y-108497550D01*
X191096592Y-108310301D01*
X190929699Y-108143408D01*
X190742450Y-107999727D01*
X190742440Y-107999721D01*
X190538054Y-107881718D01*
X190538043Y-107881713D01*
X190400608Y-107824786D01*
X190319993Y-107791394D01*
X190092014Y-107730307D01*
X190092007Y-107730306D01*
X189858011Y-107699500D01*
X189621989Y-107699500D01*
X189387992Y-107730306D01*
X189387990Y-107730306D01*
X189387986Y-107730307D01*
X189215640Y-107776487D01*
X189160010Y-107791393D01*
X189160007Y-107791394D01*
X188941956Y-107881713D01*
X188941945Y-107881718D01*
X188737559Y-107999721D01*
X188737549Y-107999727D01*
X188550301Y-108143408D01*
X188550297Y-108143411D01*
X188383411Y-108310297D01*
X188383408Y-108310301D01*
X188239727Y-108497549D01*
X188239721Y-108497559D01*
X188121718Y-108701945D01*
X188121713Y-108701956D01*
X188044856Y-108887507D01*
X188031394Y-108920007D01*
X187970307Y-109147986D01*
X187939500Y-109381989D01*
X180280500Y-109381989D01*
X180280500Y-109349489D01*
X180249693Y-109115486D01*
X180188606Y-108887507D01*
X180098284Y-108669451D01*
X179980273Y-108465050D01*
X179836592Y-108277801D01*
X179669699Y-108110908D01*
X179482450Y-107967227D01*
X179482440Y-107967221D01*
X179278054Y-107849218D01*
X179278043Y-107849213D01*
X179138452Y-107791393D01*
X179059993Y-107758894D01*
X178832014Y-107697807D01*
X178832007Y-107697806D01*
X178598011Y-107667000D01*
X178361989Y-107667000D01*
X178127992Y-107697806D01*
X178127990Y-107697806D01*
X178127986Y-107697807D01*
X177955640Y-107743987D01*
X177900010Y-107758893D01*
X177900007Y-107758894D01*
X177681956Y-107849213D01*
X177681945Y-107849218D01*
X177477559Y-107967221D01*
X177477549Y-107967227D01*
X177290301Y-108110908D01*
X177290297Y-108110911D01*
X177123411Y-108277797D01*
X177123408Y-108277801D01*
X176979727Y-108465049D01*
X176979721Y-108465059D01*
X176861718Y-108669445D01*
X176861713Y-108669456D01*
X176771394Y-108887507D01*
X176710307Y-109115486D01*
X176710306Y-109115490D01*
X176710306Y-109115492D01*
X176679500Y-109349489D01*
X175200500Y-109349489D01*
X175169693Y-109115486D01*
X175108606Y-108887507D01*
X175018284Y-108669451D01*
X174900273Y-108465050D01*
X174756592Y-108277801D01*
X174589699Y-108110908D01*
X174402450Y-107967227D01*
X174402440Y-107967221D01*
X174198054Y-107849218D01*
X174198043Y-107849213D01*
X174058452Y-107791393D01*
X173979993Y-107758894D01*
X173752014Y-107697807D01*
X173752007Y-107697806D01*
X173518011Y-107667000D01*
X173281989Y-107667000D01*
X173047992Y-107697806D01*
X173047990Y-107697806D01*
X173047986Y-107697807D01*
X172875640Y-107743987D01*
X172820010Y-107758893D01*
X172820007Y-107758894D01*
X172601956Y-107849213D01*
X172601945Y-107849218D01*
X172397559Y-107967221D01*
X172397549Y-107967227D01*
X172210301Y-108110908D01*
X172210297Y-108110911D01*
X172043411Y-108277797D01*
X172043408Y-108277801D01*
X171899727Y-108465049D01*
X171899721Y-108465059D01*
X171781718Y-108669445D01*
X171781713Y-108669456D01*
X171691394Y-108887507D01*
X171630307Y-109115486D01*
X171630306Y-109115490D01*
X171630306Y-109115492D01*
X171599500Y-109349489D01*
X165040500Y-109349489D01*
X165009693Y-109115486D01*
X164948606Y-108887507D01*
X164858284Y-108669451D01*
X164740273Y-108465050D01*
X164596592Y-108277801D01*
X164429699Y-108110908D01*
X164242450Y-107967227D01*
X164242440Y-107967221D01*
X164038054Y-107849218D01*
X164038043Y-107849213D01*
X163898452Y-107791393D01*
X163819993Y-107758894D01*
X163592014Y-107697807D01*
X163592007Y-107697806D01*
X163358011Y-107667000D01*
X163121989Y-107667000D01*
X162887992Y-107697806D01*
X162887990Y-107697806D01*
X162887986Y-107697807D01*
X162715640Y-107743987D01*
X162660010Y-107758893D01*
X162660007Y-107758894D01*
X162441956Y-107849213D01*
X162441945Y-107849218D01*
X162237559Y-107967221D01*
X162237549Y-107967227D01*
X162050301Y-108110908D01*
X162050297Y-108110911D01*
X161883411Y-108277797D01*
X161883408Y-108277801D01*
X161739727Y-108465049D01*
X161739721Y-108465059D01*
X161621718Y-108669445D01*
X161621713Y-108669456D01*
X161531394Y-108887507D01*
X161470307Y-109115486D01*
X161470306Y-109115490D01*
X161470306Y-109115492D01*
X161439500Y-109349489D01*
X159960500Y-109349489D01*
X159929693Y-109115486D01*
X159868606Y-108887507D01*
X159778284Y-108669451D01*
X159660273Y-108465050D01*
X159516592Y-108277801D01*
X159349699Y-108110908D01*
X159162450Y-107967227D01*
X159162440Y-107967221D01*
X158958054Y-107849218D01*
X158958043Y-107849213D01*
X158818452Y-107791393D01*
X158739993Y-107758894D01*
X158512014Y-107697807D01*
X158512007Y-107697806D01*
X158278011Y-107667000D01*
X158041989Y-107667000D01*
X157807992Y-107697806D01*
X157807990Y-107697806D01*
X157807986Y-107697807D01*
X157635640Y-107743987D01*
X157580010Y-107758893D01*
X157580007Y-107758894D01*
X157361956Y-107849213D01*
X157361945Y-107849218D01*
X157157559Y-107967221D01*
X157157549Y-107967227D01*
X156970301Y-108110908D01*
X156970297Y-108110911D01*
X156803411Y-108277797D01*
X156803408Y-108277801D01*
X156659727Y-108465049D01*
X156659721Y-108465059D01*
X156541718Y-108669445D01*
X156541713Y-108669456D01*
X156451394Y-108887507D01*
X156390307Y-109115486D01*
X156390306Y-109115490D01*
X156390306Y-109115492D01*
X156359500Y-109349489D01*
X149800500Y-109349489D01*
X149769693Y-109115486D01*
X149708606Y-108887507D01*
X149618284Y-108669451D01*
X149500273Y-108465050D01*
X149356592Y-108277801D01*
X149189699Y-108110908D01*
X149002450Y-107967227D01*
X149002440Y-107967221D01*
X148798054Y-107849218D01*
X148798043Y-107849213D01*
X148658452Y-107791393D01*
X148579993Y-107758894D01*
X148352014Y-107697807D01*
X148352007Y-107697806D01*
X148118011Y-107667000D01*
X147881989Y-107667000D01*
X147647992Y-107697806D01*
X147647990Y-107697806D01*
X147647986Y-107697807D01*
X147475640Y-107743987D01*
X147420010Y-107758893D01*
X147420007Y-107758894D01*
X147201956Y-107849213D01*
X147201945Y-107849218D01*
X146997559Y-107967221D01*
X146997549Y-107967227D01*
X146810301Y-108110908D01*
X146810297Y-108110911D01*
X146643411Y-108277797D01*
X146643408Y-108277801D01*
X146499727Y-108465049D01*
X146499721Y-108465059D01*
X146381718Y-108669445D01*
X146381713Y-108669456D01*
X146291394Y-108887507D01*
X146230307Y-109115486D01*
X146230306Y-109115490D01*
X146230306Y-109115492D01*
X146199500Y-109349489D01*
X144720499Y-109349489D01*
X144720499Y-108367492D01*
X144709999Y-108264703D01*
X144654814Y-108098166D01*
X144562712Y-107948844D01*
X144438656Y-107824788D01*
X144289334Y-107732686D01*
X144289332Y-107732685D01*
X144289330Y-107732684D01*
X144289332Y-107732684D01*
X144122802Y-107677502D01*
X144122798Y-107677501D01*
X144122797Y-107677501D01*
X144020009Y-107667000D01*
X144020005Y-107667000D01*
X141819993Y-107667000D01*
X141717199Y-107677501D01*
X141550667Y-107732685D01*
X141401346Y-107824786D01*
X141277286Y-107948846D01*
X141185184Y-108098168D01*
X141130002Y-108264697D01*
X141130001Y-108264704D01*
X141119500Y-108367488D01*
X139951841Y-108367488D01*
X139907647Y-95181912D01*
X150699500Y-95181912D01*
X150699500Y-95418087D01*
X150699501Y-95418103D01*
X150733061Y-95629991D01*
X150736447Y-95651368D01*
X150809432Y-95875992D01*
X150837191Y-95930472D01*
X150916659Y-96086437D01*
X151055478Y-96277504D01*
X151055480Y-96277506D01*
X151055483Y-96277510D01*
X151222490Y-96444517D01*
X151222493Y-96444519D01*
X151222495Y-96444521D01*
X151413562Y-96583340D01*
X151413564Y-96583341D01*
X151413567Y-96583343D01*
X151624008Y-96690568D01*
X151848632Y-96763553D01*
X152081908Y-96800500D01*
X152081912Y-96800500D01*
X152318088Y-96800500D01*
X152318092Y-96800500D01*
X152551368Y-96763553D01*
X152775992Y-96690568D01*
X152986433Y-96583343D01*
X153177510Y-96444517D01*
X153344517Y-96277510D01*
X153483343Y-96086433D01*
X153590568Y-95875992D01*
X153663553Y-95651368D01*
X153700500Y-95418092D01*
X153700500Y-95181908D01*
X153663553Y-94948632D01*
X153590568Y-94724008D01*
X153483343Y-94513567D01*
X153483341Y-94513564D01*
X153483340Y-94513562D01*
X153344521Y-94322495D01*
X153344519Y-94322493D01*
X153344517Y-94322490D01*
X153177510Y-94155483D01*
X153177506Y-94155480D01*
X153177504Y-94155478D01*
X152986437Y-94016659D01*
X152972747Y-94009683D01*
X152775992Y-93909432D01*
X152775989Y-93909431D01*
X152775987Y-93909430D01*
X152651079Y-93868845D01*
X152551368Y-93836447D01*
X152551366Y-93836446D01*
X152551364Y-93836446D01*
X152318103Y-93799501D01*
X152318094Y-93799500D01*
X152318092Y-93799500D01*
X152081908Y-93799500D01*
X152081905Y-93799500D01*
X152081896Y-93799501D01*
X151848635Y-93836446D01*
X151624012Y-93909430D01*
X151413562Y-94016659D01*
X151222495Y-94155478D01*
X151055478Y-94322495D01*
X150916659Y-94513562D01*
X150809430Y-94724012D01*
X150736446Y-94948635D01*
X150699501Y-95181896D01*
X150699500Y-95181912D01*
X139907647Y-95181912D01*
X139900840Y-93150831D01*
X139919475Y-93055483D01*
X139973180Y-92974521D01*
X140053780Y-92920275D01*
X140149004Y-92901001D01*
X140150676Y-92901001D01*
X141829165Y-92907710D01*
G37*
%TD.AperFunction*%
%TD*%
%TA.AperFunction,Conductor*%
%TO.N,+24V_SW*%
G36*
X120557558Y-79818954D02*
G01*
X120638337Y-79872928D01*
X120676267Y-79910858D01*
X120676270Y-79910860D01*
X120778713Y-79979311D01*
X120778714Y-79979311D01*
X120778715Y-79979312D01*
X120845397Y-80006932D01*
X120892548Y-80026463D01*
X120912597Y-80030451D01*
X121013394Y-80050501D01*
X121148895Y-80050501D01*
X121148915Y-80050500D01*
X123970659Y-80050500D01*
X124031081Y-80038481D01*
X124091504Y-80026463D01*
X124124844Y-80012652D01*
X124138128Y-80007149D01*
X124138131Y-80007149D01*
X124205333Y-79979314D01*
X124205332Y-79979314D01*
X124205338Y-79979312D01*
X124277769Y-79930914D01*
X124307785Y-79910858D01*
X124353262Y-79865380D01*
X124361437Y-79858500D01*
X124394808Y-79840125D01*
X124426494Y-79818954D01*
X124437084Y-79816847D01*
X124446544Y-79811639D01*
X124484411Y-79807433D01*
X124521782Y-79800000D01*
X124947917Y-79800000D01*
X125043205Y-79818954D01*
X125094275Y-79847555D01*
X125219549Y-79938571D01*
X125223212Y-79941232D01*
X125377555Y-80019873D01*
X125542299Y-80073402D01*
X125713389Y-80100500D01*
X125713393Y-80100500D01*
X130486607Y-80100500D01*
X130486611Y-80100500D01*
X130657701Y-80073402D01*
X130822445Y-80019873D01*
X130976788Y-79941232D01*
X131014307Y-79913973D01*
X131105725Y-79847555D01*
X131193955Y-79806880D01*
X131252083Y-79800000D01*
X134611999Y-79800000D01*
X134707287Y-79818954D01*
X134780268Y-79867718D01*
X134780671Y-79867228D01*
X134785646Y-79871311D01*
X134788065Y-79872927D01*
X134790125Y-79874987D01*
X134945802Y-79979007D01*
X134945804Y-79979007D01*
X134945806Y-79979009D01*
X135118779Y-80050657D01*
X135118780Y-80050657D01*
X135118782Y-80050658D01*
X135302417Y-80087185D01*
X135403664Y-80087185D01*
X135474724Y-80097540D01*
X135487059Y-80101213D01*
X135548018Y-80126463D01*
X135608441Y-80138481D01*
X135657860Y-80148311D01*
X135668862Y-80150500D01*
X135668863Y-80150500D01*
X163036607Y-80150500D01*
X163097029Y-80138481D01*
X163157452Y-80126463D01*
X163190792Y-80112652D01*
X163241508Y-80091645D01*
X163336790Y-80072693D01*
X163341308Y-80072734D01*
X164497901Y-80094353D01*
X164592817Y-80115085D01*
X164672575Y-80170562D01*
X164725033Y-80252338D01*
X164742203Y-80347964D01*
X164730973Y-80417385D01*
X164705913Y-80497806D01*
X164705912Y-80497811D01*
X164699500Y-80568369D01*
X164699500Y-81231630D01*
X164705912Y-81302188D01*
X164705914Y-81302196D01*
X164756522Y-81464606D01*
X164756523Y-81464609D01*
X164777737Y-81499701D01*
X164783802Y-81516452D01*
X164793832Y-81531177D01*
X164800191Y-81561720D01*
X164810812Y-81591053D01*
X164813637Y-81626292D01*
X164814896Y-81767174D01*
X164796794Y-81862628D01*
X164778998Y-81898212D01*
X164756523Y-81935390D01*
X164756522Y-81935393D01*
X164705914Y-82097803D01*
X164705912Y-82097811D01*
X164699500Y-82168369D01*
X164699500Y-82831630D01*
X164705912Y-82902188D01*
X164705914Y-82902196D01*
X164756522Y-83064605D01*
X164756521Y-83064605D01*
X164765663Y-83079727D01*
X164798738Y-83171079D01*
X164794336Y-83268134D01*
X164763160Y-83338830D01*
X164763444Y-83338982D01*
X164761440Y-83342730D01*
X164759618Y-83346863D01*
X164757684Y-83349756D01*
X164757676Y-83349771D01*
X164686027Y-83522747D01*
X164671059Y-83597999D01*
X164650544Y-83701138D01*
X164649500Y-83706385D01*
X164649500Y-83893614D01*
X164686027Y-84077253D01*
X164757676Y-84250228D01*
X164796871Y-84308888D01*
X164805834Y-84330526D01*
X164819019Y-84349883D01*
X164824242Y-84374969D01*
X164834050Y-84398647D01*
X164838824Y-84444998D01*
X164842352Y-84839790D01*
X164824250Y-84935244D01*
X164805290Y-84972734D01*
X164762999Y-85041297D01*
X164762997Y-85041302D01*
X164709651Y-85202293D01*
X164709651Y-85202294D01*
X164699500Y-85301652D01*
X164699500Y-85898342D01*
X164709652Y-85997713D01*
X164762995Y-86158693D01*
X164762995Y-86158694D01*
X164819035Y-86249548D01*
X164852927Y-86340600D01*
X164856097Y-86378042D01*
X164908496Y-92242227D01*
X164890394Y-92337681D01*
X164837142Y-92418941D01*
X164756846Y-92473637D01*
X164661731Y-92493442D01*
X164658511Y-92493450D01*
X162693809Y-92485598D01*
X162598597Y-92466263D01*
X162518032Y-92411965D01*
X162464379Y-92330968D01*
X162448871Y-92275558D01*
X162414784Y-92060340D01*
X162344231Y-91843201D01*
X162279650Y-91716453D01*
X162240581Y-91639775D01*
X162240580Y-91639774D01*
X162240579Y-91639772D01*
X162106379Y-91455063D01*
X161944937Y-91293621D01*
X161760228Y-91159421D01*
X161760224Y-91159419D01*
X161760224Y-91159418D01*
X161556799Y-91055769D01*
X161556794Y-91055767D01*
X161436048Y-91016534D01*
X161339660Y-90985216D01*
X161339658Y-90985215D01*
X161339656Y-90985215D01*
X161114168Y-90949501D01*
X161114159Y-90949500D01*
X161114157Y-90949500D01*
X160885843Y-90949500D01*
X160885840Y-90949500D01*
X160885831Y-90949501D01*
X160660343Y-90985215D01*
X160443205Y-91055767D01*
X160443200Y-91055769D01*
X160239775Y-91159418D01*
X160239774Y-91159419D01*
X160239772Y-91159421D01*
X160156083Y-91220225D01*
X160055065Y-91293619D01*
X159893619Y-91455065D01*
X159759420Y-91639774D01*
X159759418Y-91639775D01*
X159655769Y-91843200D01*
X159655767Y-91843205D01*
X159585215Y-92060342D01*
X159553273Y-92262013D01*
X159519646Y-92353163D01*
X159453697Y-92424506D01*
X159365466Y-92465180D01*
X159306344Y-92472058D01*
X145032629Y-92415009D01*
X144937417Y-92395674D01*
X144856852Y-92341375D01*
X144803199Y-92260379D01*
X144787690Y-92204968D01*
X144764784Y-92060340D01*
X144694231Y-91843201D01*
X144629650Y-91716453D01*
X144590581Y-91639775D01*
X144590580Y-91639774D01*
X144590579Y-91639772D01*
X144456379Y-91455063D01*
X144294937Y-91293621D01*
X144110228Y-91159421D01*
X144110224Y-91159419D01*
X144110224Y-91159418D01*
X143906799Y-91055769D01*
X143906794Y-91055767D01*
X143786048Y-91016534D01*
X143689660Y-90985216D01*
X143689658Y-90985215D01*
X143689656Y-90985215D01*
X143464168Y-90949501D01*
X143464159Y-90949500D01*
X143464157Y-90949500D01*
X143235843Y-90949500D01*
X143235840Y-90949500D01*
X143235831Y-90949501D01*
X143010343Y-90985215D01*
X142793205Y-91055767D01*
X142793200Y-91055769D01*
X142589775Y-91159418D01*
X142589774Y-91159419D01*
X142589772Y-91159421D01*
X142506083Y-91220225D01*
X142405065Y-91293619D01*
X142243619Y-91455065D01*
X142109420Y-91639774D01*
X142109418Y-91639775D01*
X142005769Y-91843200D01*
X142005767Y-91843205D01*
X141935215Y-92060342D01*
X141914439Y-92191514D01*
X141880812Y-92282664D01*
X141814862Y-92354007D01*
X141726632Y-92394681D01*
X141667510Y-92401559D01*
X140162046Y-92395542D01*
X140152696Y-92395505D01*
X140150676Y-92395501D01*
X140149004Y-92395501D01*
X140062826Y-92404134D01*
X140048730Y-92405547D01*
X140048728Y-92405547D01*
X140048721Y-92405548D01*
X140048714Y-92405549D01*
X140048710Y-92405550D01*
X139953507Y-92424819D01*
X139901117Y-92438378D01*
X139771531Y-92500910D01*
X139765650Y-92504286D01*
X139673569Y-92535274D01*
X139576639Y-92528666D01*
X139514490Y-92502362D01*
X139476492Y-92479776D01*
X139476488Y-92479774D01*
X139476487Y-92479774D01*
X139340843Y-92431799D01*
X139340845Y-92431799D01*
X139245572Y-92412769D01*
X139146962Y-92402978D01*
X137931365Y-92402007D01*
X137836092Y-92382977D01*
X137755354Y-92328936D01*
X137701442Y-92248111D01*
X137685631Y-92191967D01*
X137664784Y-92060340D01*
X137594231Y-91843201D01*
X137529650Y-91716453D01*
X137490581Y-91639775D01*
X137490580Y-91639774D01*
X137490579Y-91639772D01*
X137356379Y-91455063D01*
X137194937Y-91293621D01*
X137010228Y-91159421D01*
X137010224Y-91159419D01*
X137010224Y-91159418D01*
X136806799Y-91055769D01*
X136806794Y-91055767D01*
X136686048Y-91016534D01*
X136589660Y-90985216D01*
X136589658Y-90985215D01*
X136589656Y-90985215D01*
X136364168Y-90949501D01*
X136364159Y-90949500D01*
X136364157Y-90949500D01*
X136135843Y-90949500D01*
X136135840Y-90949500D01*
X136135831Y-90949501D01*
X135910343Y-90985215D01*
X135693205Y-91055767D01*
X135693200Y-91055769D01*
X135489775Y-91159418D01*
X135489774Y-91159419D01*
X135489772Y-91159421D01*
X135406083Y-91220225D01*
X135305065Y-91293619D01*
X135143619Y-91455065D01*
X135009420Y-91639774D01*
X135009418Y-91639775D01*
X134905769Y-91843200D01*
X134905767Y-91843205D01*
X134835215Y-92060342D01*
X134814794Y-92189275D01*
X134781167Y-92280425D01*
X134715218Y-92351768D01*
X134626987Y-92392442D01*
X134568661Y-92399322D01*
X133748994Y-92398668D01*
X133653721Y-92379638D01*
X133572983Y-92325597D01*
X133519147Y-92244955D01*
X133492325Y-92180202D01*
X133492324Y-92180200D01*
X133492322Y-92180195D01*
X133388302Y-92024518D01*
X133255908Y-91892124D01*
X133100231Y-91788104D01*
X133100226Y-91788101D01*
X132927253Y-91716453D01*
X132835433Y-91698189D01*
X132743616Y-91679926D01*
X132556384Y-91679926D01*
X132482930Y-91694536D01*
X132372746Y-91716453D01*
X132199773Y-91788101D01*
X132199768Y-91788104D01*
X132044095Y-91892121D01*
X132044092Y-91892123D01*
X132044092Y-91892124D01*
X131934643Y-92001572D01*
X131853865Y-92055546D01*
X131758577Y-92074500D01*
X128838387Y-92074500D01*
X128777973Y-92086516D01*
X128777974Y-92086517D01*
X128717548Y-92098536D01*
X128684207Y-92112347D01*
X128603712Y-92145688D01*
X128603712Y-92145689D01*
X128552489Y-92179914D01*
X128552490Y-92179915D01*
X128501270Y-92214139D01*
X127475569Y-93239840D01*
X127394787Y-93293816D01*
X127299499Y-93312770D01*
X127204211Y-93293816D01*
X127123429Y-93239840D01*
X127069453Y-93159058D01*
X127050499Y-93063770D01*
X127050499Y-92959634D01*
X127050499Y-92959628D01*
X127044091Y-92900017D01*
X126993796Y-92765169D01*
X126907546Y-92649954D01*
X126792331Y-92563704D01*
X126698389Y-92528666D01*
X126657481Y-92513408D01*
X126597873Y-92507000D01*
X124502134Y-92507000D01*
X124502130Y-92507000D01*
X124502128Y-92507001D01*
X124489314Y-92508378D01*
X124442519Y-92513408D01*
X124442515Y-92513409D01*
X124307670Y-92563703D01*
X124192455Y-92649953D01*
X124192453Y-92649955D01*
X124106204Y-92765169D01*
X124055908Y-92900018D01*
X124049500Y-92959623D01*
X124049500Y-93085500D01*
X124030546Y-93180788D01*
X123976570Y-93261570D01*
X123895788Y-93315546D01*
X123800500Y-93334500D01*
X121149499Y-93334500D01*
X121054211Y-93315546D01*
X120973429Y-93261570D01*
X120919453Y-93180788D01*
X120900499Y-93085500D01*
X120900499Y-92959634D01*
X120900499Y-92959628D01*
X120894091Y-92900017D01*
X120843796Y-92765169D01*
X120757546Y-92649954D01*
X120642331Y-92563704D01*
X120548389Y-92528666D01*
X120507481Y-92513408D01*
X120447873Y-92507000D01*
X118352134Y-92507000D01*
X118352130Y-92507000D01*
X118352128Y-92507001D01*
X118339314Y-92508378D01*
X118292519Y-92513408D01*
X118292515Y-92513409D01*
X118157667Y-92563704D01*
X118157666Y-92563705D01*
X118132301Y-92582693D01*
X118044660Y-92624622D01*
X117947644Y-92629821D01*
X117856024Y-92597498D01*
X117783747Y-92532573D01*
X117741818Y-92444932D01*
X117736619Y-92347916D01*
X117746721Y-92305040D01*
X117789999Y-92174437D01*
X117800500Y-92071649D01*
X117800499Y-91346632D01*
X117789999Y-91243843D01*
X117734814Y-91077306D01*
X117672987Y-90977068D01*
X117639097Y-90886018D01*
X117640701Y-90797774D01*
X117640892Y-90796812D01*
X117640895Y-90796806D01*
X117675500Y-90622832D01*
X117675500Y-90445448D01*
X117675500Y-83701138D01*
X117694454Y-83605850D01*
X117748427Y-83525071D01*
X118899463Y-82374036D01*
X118932562Y-82324500D01*
X118998013Y-82226547D01*
X119065894Y-82062666D01*
X119100500Y-81888691D01*
X119100500Y-80049000D01*
X119119454Y-79953712D01*
X119173430Y-79872930D01*
X119254212Y-79818954D01*
X119349500Y-79800000D01*
X120462270Y-79800000D01*
X120557558Y-79818954D01*
G37*
%TD.AperFunction*%
%TD*%
%TA.AperFunction,Conductor*%
%TO.N,+24V*%
G36*
X108479264Y-93592084D02*
G01*
X108560605Y-93645215D01*
X108562404Y-93646995D01*
X108976267Y-94060858D01*
X108976270Y-94060860D01*
X109078713Y-94129311D01*
X109125131Y-94148538D01*
X109125130Y-94148538D01*
X109192543Y-94176461D01*
X109192548Y-94176463D01*
X109212597Y-94180451D01*
X109313394Y-94200501D01*
X109436607Y-94200501D01*
X109436612Y-94200500D01*
X116022770Y-94200500D01*
X116118058Y-94219454D01*
X116198840Y-94273430D01*
X116284139Y-94358729D01*
X116284142Y-94358733D01*
X116371267Y-94445858D01*
X116473714Y-94514311D01*
X116587548Y-94561463D01*
X116647971Y-94573481D01*
X116677536Y-94579362D01*
X116708392Y-94585500D01*
X116708393Y-94585500D01*
X116708394Y-94585500D01*
X117650501Y-94585500D01*
X117745789Y-94604454D01*
X117826571Y-94658430D01*
X117880547Y-94739212D01*
X117899501Y-94834500D01*
X117899501Y-94960372D01*
X117901567Y-94979593D01*
X117905908Y-95019980D01*
X117905909Y-95019983D01*
X117956204Y-95154831D01*
X118042454Y-95270046D01*
X118109991Y-95320604D01*
X118174913Y-95392880D01*
X118207235Y-95484501D01*
X118202034Y-95581517D01*
X118162215Y-95666295D01*
X118109784Y-95738459D01*
X118005952Y-95942241D01*
X118005949Y-95942248D01*
X117935277Y-96159757D01*
X117899500Y-96385636D01*
X117899500Y-96614363D01*
X117935277Y-96840242D01*
X118005949Y-97057751D01*
X118005952Y-97057758D01*
X118109783Y-97261538D01*
X118244214Y-97446566D01*
X118405934Y-97608286D01*
X118590962Y-97742717D01*
X118794742Y-97846548D01*
X119012255Y-97917222D01*
X119091703Y-97929805D01*
X119238136Y-97952999D01*
X119238143Y-97952999D01*
X119238146Y-97953000D01*
X119238149Y-97953000D01*
X119561851Y-97953000D01*
X119561854Y-97953000D01*
X119561857Y-97952999D01*
X119561863Y-97952999D01*
X119668572Y-97936097D01*
X119787745Y-97917222D01*
X120005258Y-97846548D01*
X120209038Y-97742717D01*
X120394066Y-97608286D01*
X120555786Y-97446566D01*
X120690217Y-97261538D01*
X120794048Y-97057758D01*
X120864722Y-96840245D01*
X120900500Y-96614354D01*
X120900500Y-96385646D01*
X120900499Y-96385643D01*
X120900499Y-96385636D01*
X120864722Y-96159757D01*
X120864722Y-96159755D01*
X120794048Y-95942242D01*
X120690217Y-95738462D01*
X120637786Y-95666297D01*
X120597110Y-95578066D01*
X120593295Y-95480986D01*
X120626922Y-95389836D01*
X120690008Y-95320604D01*
X120757546Y-95270046D01*
X120843796Y-95154831D01*
X120894091Y-95019983D01*
X120900500Y-94960373D01*
X120900500Y-94834500D01*
X120919454Y-94739212D01*
X120973430Y-94658430D01*
X121054212Y-94604454D01*
X121149500Y-94585500D01*
X123800501Y-94585500D01*
X123895789Y-94604454D01*
X123976571Y-94658430D01*
X124030547Y-94739212D01*
X124049501Y-94834500D01*
X124049501Y-94960372D01*
X124051567Y-94979593D01*
X124055908Y-95019980D01*
X124055909Y-95019983D01*
X124106204Y-95154831D01*
X124192454Y-95270046D01*
X124259991Y-95320604D01*
X124324913Y-95392880D01*
X124357235Y-95484501D01*
X124352034Y-95581517D01*
X124312215Y-95666295D01*
X124259784Y-95738459D01*
X124155952Y-95942241D01*
X124155949Y-95942248D01*
X124085277Y-96159757D01*
X124049500Y-96385636D01*
X124049500Y-96614363D01*
X124085277Y-96840242D01*
X124155949Y-97057751D01*
X124155952Y-97057758D01*
X124259783Y-97261538D01*
X124394214Y-97446566D01*
X124555934Y-97608286D01*
X124740962Y-97742717D01*
X124944742Y-97846548D01*
X125162255Y-97917222D01*
X125241703Y-97929805D01*
X125388136Y-97952999D01*
X125388143Y-97952999D01*
X125388146Y-97953000D01*
X125388149Y-97953000D01*
X125711851Y-97953000D01*
X125711854Y-97953000D01*
X125711857Y-97952999D01*
X125711863Y-97952999D01*
X125818572Y-97936097D01*
X125937745Y-97917222D01*
X126155258Y-97846548D01*
X126359038Y-97742717D01*
X126544066Y-97608286D01*
X126705786Y-97446566D01*
X126840217Y-97261538D01*
X126944048Y-97057758D01*
X127014722Y-96840245D01*
X127050500Y-96614354D01*
X127050500Y-96385646D01*
X127050499Y-96385643D01*
X127050499Y-96385636D01*
X127014722Y-96159757D01*
X127014722Y-96159755D01*
X126944048Y-95942242D01*
X126840217Y-95738462D01*
X126787786Y-95666297D01*
X126747110Y-95578066D01*
X126743295Y-95480986D01*
X126776922Y-95389836D01*
X126840008Y-95320604D01*
X126907546Y-95270046D01*
X126993796Y-95154831D01*
X127044091Y-95019983D01*
X127050500Y-94960373D01*
X127050500Y-94834500D01*
X127059438Y-94789564D01*
X127067353Y-94744452D01*
X127068893Y-94742029D01*
X127069454Y-94739212D01*
X127094906Y-94701119D01*
X127119483Y-94662468D01*
X127121833Y-94660818D01*
X127123430Y-94658430D01*
X127161526Y-94632974D01*
X127199020Y-94606674D01*
X127201750Y-94606098D01*
X127204212Y-94604454D01*
X127293854Y-94585564D01*
X127296676Y-94585500D01*
X127578393Y-94585500D01*
X127701607Y-94585500D01*
X127753717Y-94575134D01*
X127775384Y-94574643D01*
X127802286Y-94579362D01*
X127829601Y-94579362D01*
X127849677Y-94587677D01*
X127871078Y-94591432D01*
X127894125Y-94606086D01*
X127919361Y-94616539D01*
X127934725Y-94631902D01*
X127953062Y-94643562D01*
X127968747Y-94665923D01*
X127988062Y-94685236D01*
X127996377Y-94705310D01*
X128008856Y-94723099D01*
X128014790Y-94749760D01*
X128025244Y-94774995D01*
X128029243Y-94814687D01*
X128029966Y-94817933D01*
X128029714Y-94819364D01*
X128030027Y-94822463D01*
X128094851Y-109284251D01*
X128094851Y-109284255D01*
X128094852Y-109284255D01*
X128094990Y-109315119D01*
X128094989Y-109315119D01*
X128119798Y-114849384D01*
X128101272Y-114944756D01*
X128047658Y-115025779D01*
X127967119Y-115080117D01*
X127871917Y-115099497D01*
X127870801Y-115099500D01*
X106549500Y-115099500D01*
X106454212Y-115080546D01*
X106373430Y-115026570D01*
X106319454Y-114945788D01*
X106300500Y-114850500D01*
X106300500Y-109381989D01*
X112199500Y-109381989D01*
X112199500Y-109618011D01*
X112230307Y-109852014D01*
X112291394Y-110079993D01*
X112308383Y-110121007D01*
X112381713Y-110298043D01*
X112381718Y-110298054D01*
X112426558Y-110375718D01*
X112499727Y-110502450D01*
X112643408Y-110689699D01*
X112810301Y-110856592D01*
X112997550Y-111000273D01*
X112997559Y-111000278D01*
X113201945Y-111118281D01*
X113201948Y-111118282D01*
X113201951Y-111118284D01*
X113420007Y-111208606D01*
X113647986Y-111269693D01*
X113881989Y-111300500D01*
X114118011Y-111300500D01*
X114352014Y-111269693D01*
X114579993Y-111208606D01*
X114798049Y-111118284D01*
X115002450Y-111000273D01*
X115189699Y-110856592D01*
X115356592Y-110689699D01*
X115500273Y-110502450D01*
X115618284Y-110298049D01*
X115708606Y-110079993D01*
X115769693Y-109852014D01*
X115800500Y-109618011D01*
X115800500Y-109381989D01*
X123479500Y-109381989D01*
X123479500Y-109618011D01*
X123510307Y-109852014D01*
X123571394Y-110079993D01*
X123588383Y-110121007D01*
X123661713Y-110298043D01*
X123661718Y-110298054D01*
X123706558Y-110375718D01*
X123779727Y-110502450D01*
X123923408Y-110689699D01*
X124090301Y-110856592D01*
X124277550Y-111000273D01*
X124277559Y-111000278D01*
X124481945Y-111118281D01*
X124481948Y-111118282D01*
X124481951Y-111118284D01*
X124700007Y-111208606D01*
X124927986Y-111269693D01*
X125161989Y-111300500D01*
X125398011Y-111300500D01*
X125632014Y-111269693D01*
X125859993Y-111208606D01*
X126078049Y-111118284D01*
X126282450Y-111000273D01*
X126469699Y-110856592D01*
X126636592Y-110689699D01*
X126780273Y-110502450D01*
X126898284Y-110298049D01*
X126988606Y-110079993D01*
X127049693Y-109852014D01*
X127080500Y-109618011D01*
X127080500Y-109381989D01*
X127049693Y-109147986D01*
X126988606Y-108920007D01*
X126898284Y-108701951D01*
X126780273Y-108497550D01*
X126636592Y-108310301D01*
X126469699Y-108143408D01*
X126282450Y-107999727D01*
X126282440Y-107999721D01*
X126078054Y-107881718D01*
X126078043Y-107881713D01*
X125957222Y-107831667D01*
X125859993Y-107791394D01*
X125632014Y-107730307D01*
X125632007Y-107730306D01*
X125398011Y-107699500D01*
X125161989Y-107699500D01*
X124927992Y-107730306D01*
X124927990Y-107730306D01*
X124927986Y-107730307D01*
X124755640Y-107776487D01*
X124700010Y-107791393D01*
X124700007Y-107791394D01*
X124481956Y-107881713D01*
X124481945Y-107881718D01*
X124277559Y-107999721D01*
X124277549Y-107999727D01*
X124090301Y-108143408D01*
X124090297Y-108143411D01*
X123923411Y-108310297D01*
X123923408Y-108310301D01*
X123779727Y-108497549D01*
X123779721Y-108497559D01*
X123661718Y-108701945D01*
X123661713Y-108701956D01*
X123571394Y-108920007D01*
X123510307Y-109147986D01*
X123479500Y-109381989D01*
X115800500Y-109381989D01*
X115769693Y-109147986D01*
X115708606Y-108920007D01*
X115618284Y-108701951D01*
X115500273Y-108497550D01*
X115356592Y-108310301D01*
X115189699Y-108143408D01*
X115002450Y-107999727D01*
X115002440Y-107999721D01*
X114798054Y-107881718D01*
X114798043Y-107881713D01*
X114677222Y-107831667D01*
X114579993Y-107791394D01*
X114352014Y-107730307D01*
X114352007Y-107730306D01*
X114118011Y-107699500D01*
X113881989Y-107699500D01*
X113647992Y-107730306D01*
X113647990Y-107730306D01*
X113647986Y-107730307D01*
X113475640Y-107776487D01*
X113420010Y-107791393D01*
X113420007Y-107791394D01*
X113201956Y-107881713D01*
X113201945Y-107881718D01*
X112997559Y-107999721D01*
X112997549Y-107999727D01*
X112810301Y-108143408D01*
X112810297Y-108143411D01*
X112643411Y-108310297D01*
X112643408Y-108310301D01*
X112499727Y-108497549D01*
X112499721Y-108497559D01*
X112381718Y-108701945D01*
X112381713Y-108701956D01*
X112291394Y-108920007D01*
X112230307Y-109147986D01*
X112199500Y-109381989D01*
X106300500Y-109381989D01*
X106300500Y-101302033D01*
X106319454Y-101206745D01*
X106373430Y-101125963D01*
X106454212Y-101071987D01*
X106549500Y-101053033D01*
X106627820Y-101065671D01*
X106702292Y-101090349D01*
X106801655Y-101100500D01*
X107398344Y-101100499D01*
X107497708Y-101090349D01*
X107578202Y-101063676D01*
X107658692Y-101037005D01*
X107658693Y-101037004D01*
X107658697Y-101037003D01*
X107719284Y-100999632D01*
X107810330Y-100965741D01*
X107907421Y-100969272D01*
X107980714Y-100999631D01*
X108041303Y-101037003D01*
X108202292Y-101090349D01*
X108301655Y-101100500D01*
X108898344Y-101100499D01*
X108997708Y-101090349D01*
X109158697Y-101037003D01*
X109303044Y-100947968D01*
X109422968Y-100828044D01*
X109512003Y-100683697D01*
X109512004Y-100683693D01*
X109514603Y-100679480D01*
X109550459Y-100634132D01*
X109635858Y-100548733D01*
X109635860Y-100548729D01*
X109761161Y-100423429D01*
X109841943Y-100369453D01*
X109937229Y-100350500D01*
X109993614Y-100350500D01*
X109993616Y-100350500D01*
X110177251Y-100313973D01*
X110350231Y-100242322D01*
X110505908Y-100138302D01*
X110638302Y-100005908D01*
X110742322Y-99850231D01*
X110813973Y-99677251D01*
X110850500Y-99493616D01*
X110850500Y-99306384D01*
X110813973Y-99122749D01*
X110742322Y-98949769D01*
X110638302Y-98794092D01*
X110505908Y-98661698D01*
X110350231Y-98557678D01*
X110350226Y-98557675D01*
X110177253Y-98486027D01*
X110085433Y-98467763D01*
X109993616Y-98449500D01*
X109812908Y-98449500D01*
X109717620Y-98430546D01*
X109636838Y-98376570D01*
X109582862Y-98295788D01*
X109568887Y-98240430D01*
X109568193Y-98240579D01*
X109565349Y-98227298D01*
X109565349Y-98227292D01*
X109512003Y-98066303D01*
X109422968Y-97921956D01*
X109318292Y-97817280D01*
X109264319Y-97736502D01*
X109245365Y-97641214D01*
X109256638Y-97567140D01*
X109269086Y-97527196D01*
X109275500Y-97456616D01*
X109275500Y-96943384D01*
X109269086Y-96872804D01*
X109218478Y-96710394D01*
X109218477Y-96710393D01*
X109218477Y-96710391D01*
X109160425Y-96614363D01*
X109130472Y-96564815D01*
X109116723Y-96551066D01*
X109062750Y-96470288D01*
X109043796Y-96375000D01*
X109062750Y-96279712D01*
X109116723Y-96198933D01*
X109130472Y-96185185D01*
X109218478Y-96039606D01*
X109269086Y-95877196D01*
X109275500Y-95806616D01*
X109275500Y-95293384D01*
X109273380Y-95270050D01*
X109269087Y-95222811D01*
X109269086Y-95222808D01*
X109269086Y-95222804D01*
X109218478Y-95060394D01*
X109218477Y-95060393D01*
X109218477Y-95060391D01*
X109158010Y-94960369D01*
X109130472Y-94914815D01*
X109010185Y-94794528D01*
X108977874Y-94774995D01*
X108864608Y-94706522D01*
X108702196Y-94655914D01*
X108702188Y-94655912D01*
X108631630Y-94649500D01*
X108631616Y-94649500D01*
X108387230Y-94649500D01*
X108291942Y-94630546D01*
X108211160Y-94576570D01*
X108198430Y-94563840D01*
X108144454Y-94483058D01*
X108125500Y-94387770D01*
X108125500Y-93823236D01*
X108144454Y-93727948D01*
X108198430Y-93647166D01*
X108279212Y-93593190D01*
X108371896Y-93574251D01*
X108383790Y-93574127D01*
X108479264Y-93592084D01*
G37*
%TD.AperFunction*%
%TD*%
M02*
