%TF.GenerationSoftware,KiCad,Pcbnew,9.0.8*%
%TF.CreationDate,2026-03-28T23:30:32-06:00*%
%TF.ProjectId,afterglo-controller,61667465-7267-46c6-9f2d-636f6e74726f,rev?*%
%TF.SameCoordinates,Original*%
%TF.FileFunction,Legend,Bot*%
%TF.FilePolarity,Positive*%
%FSLAX46Y46*%
G04 Gerber Fmt 4.6, Leading zero omitted, Abs format (unit mm)*
G04 Created by KiCad (PCBNEW 9.0.8) date 2026-03-28 23:30:32*
%MOMM*%
%LPD*%
G01*
G04 APERTURE LIST*
%ADD10C,0.300000*%
%ADD11C,0.000000*%
G04 APERTURE END LIST*
D10*
X196059774Y-98456080D02*
X195559774Y-99956080D01*
X195559774Y-99956080D02*
X195059774Y-98456080D01*
X192631203Y-99956080D02*
X193488346Y-99956080D01*
X193059775Y-99956080D02*
X193059775Y-98456080D01*
X193059775Y-98456080D02*
X193202632Y-98670366D01*
X193202632Y-98670366D02*
X193345489Y-98813223D01*
X193345489Y-98813223D02*
X193488346Y-98884652D01*
X191988347Y-99813223D02*
X191916918Y-99884652D01*
X191916918Y-99884652D02*
X191988347Y-99956080D01*
X191988347Y-99956080D02*
X192059775Y-99884652D01*
X192059775Y-99884652D02*
X191988347Y-99813223D01*
X191988347Y-99813223D02*
X191988347Y-99956080D01*
X190988346Y-98456080D02*
X190845489Y-98456080D01*
X190845489Y-98456080D02*
X190702632Y-98527509D01*
X190702632Y-98527509D02*
X190631204Y-98598937D01*
X190631204Y-98598937D02*
X190559775Y-98741794D01*
X190559775Y-98741794D02*
X190488346Y-99027509D01*
X190488346Y-99027509D02*
X190488346Y-99384652D01*
X190488346Y-99384652D02*
X190559775Y-99670366D01*
X190559775Y-99670366D02*
X190631204Y-99813223D01*
X190631204Y-99813223D02*
X190702632Y-99884652D01*
X190702632Y-99884652D02*
X190845489Y-99956080D01*
X190845489Y-99956080D02*
X190988346Y-99956080D01*
X190988346Y-99956080D02*
X191131204Y-99884652D01*
X191131204Y-99884652D02*
X191202632Y-99813223D01*
X191202632Y-99813223D02*
X191274061Y-99670366D01*
X191274061Y-99670366D02*
X191345489Y-99384652D01*
X191345489Y-99384652D02*
X191345489Y-99027509D01*
X191345489Y-99027509D02*
X191274061Y-98741794D01*
X191274061Y-98741794D02*
X191202632Y-98598937D01*
X191202632Y-98598937D02*
X191131204Y-98527509D01*
X191131204Y-98527509D02*
X190988346Y-98456080D01*
X189845490Y-99813223D02*
X189774061Y-99884652D01*
X189774061Y-99884652D02*
X189845490Y-99956080D01*
X189845490Y-99956080D02*
X189916918Y-99884652D01*
X189916918Y-99884652D02*
X189845490Y-99813223D01*
X189845490Y-99813223D02*
X189845490Y-99956080D01*
X189274061Y-98456080D02*
X188345489Y-98456080D01*
X188345489Y-98456080D02*
X188845489Y-99027509D01*
X188845489Y-99027509D02*
X188631204Y-99027509D01*
X188631204Y-99027509D02*
X188488347Y-99098937D01*
X188488347Y-99098937D02*
X188416918Y-99170366D01*
X188416918Y-99170366D02*
X188345489Y-99313223D01*
X188345489Y-99313223D02*
X188345489Y-99670366D01*
X188345489Y-99670366D02*
X188416918Y-99813223D01*
X188416918Y-99813223D02*
X188488347Y-99884652D01*
X188488347Y-99884652D02*
X188631204Y-99956080D01*
X188631204Y-99956080D02*
X189059775Y-99956080D01*
X189059775Y-99956080D02*
X189202632Y-99884652D01*
X189202632Y-99884652D02*
X189274061Y-99813223D01*
X195845489Y-102370996D02*
X195845489Y-100870996D01*
X195131203Y-102370996D02*
X195131203Y-100870996D01*
X195131203Y-100870996D02*
X194274060Y-102370996D01*
X194274060Y-102370996D02*
X194274060Y-100870996D01*
X193559774Y-102370996D02*
X193559774Y-100870996D01*
X193559774Y-100870996D02*
X192988345Y-100870996D01*
X192988345Y-100870996D02*
X192845488Y-100942425D01*
X192845488Y-100942425D02*
X192774059Y-101013853D01*
X192774059Y-101013853D02*
X192702631Y-101156710D01*
X192702631Y-101156710D02*
X192702631Y-101370996D01*
X192702631Y-101370996D02*
X192774059Y-101513853D01*
X192774059Y-101513853D02*
X192845488Y-101585282D01*
X192845488Y-101585282D02*
X192988345Y-101656710D01*
X192988345Y-101656710D02*
X193559774Y-101656710D01*
X192059774Y-100870996D02*
X192059774Y-102085282D01*
X192059774Y-102085282D02*
X191988345Y-102228139D01*
X191988345Y-102228139D02*
X191916917Y-102299568D01*
X191916917Y-102299568D02*
X191774059Y-102370996D01*
X191774059Y-102370996D02*
X191488345Y-102370996D01*
X191488345Y-102370996D02*
X191345488Y-102299568D01*
X191345488Y-102299568D02*
X191274059Y-102228139D01*
X191274059Y-102228139D02*
X191202631Y-102085282D01*
X191202631Y-102085282D02*
X191202631Y-100870996D01*
X190702630Y-100870996D02*
X189845488Y-100870996D01*
X190274059Y-102370996D02*
X190274059Y-100870996D01*
X188274059Y-101013853D02*
X188202631Y-100942425D01*
X188202631Y-100942425D02*
X188059774Y-100870996D01*
X188059774Y-100870996D02*
X187702631Y-100870996D01*
X187702631Y-100870996D02*
X187559774Y-100942425D01*
X187559774Y-100942425D02*
X187488345Y-101013853D01*
X187488345Y-101013853D02*
X187416916Y-101156710D01*
X187416916Y-101156710D02*
X187416916Y-101299568D01*
X187416916Y-101299568D02*
X187488345Y-101513853D01*
X187488345Y-101513853D02*
X188345488Y-102370996D01*
X188345488Y-102370996D02*
X187416916Y-102370996D01*
X186131203Y-101370996D02*
X186131203Y-102370996D01*
X186488345Y-100799568D02*
X186845488Y-101870996D01*
X186845488Y-101870996D02*
X185916917Y-101870996D01*
X185559774Y-100870996D02*
X185059774Y-102370996D01*
X185059774Y-102370996D02*
X184559774Y-100870996D01*
X195845489Y-104785912D02*
X195845489Y-103285912D01*
X195845489Y-103285912D02*
X195345489Y-104357341D01*
X195345489Y-104357341D02*
X194845489Y-103285912D01*
X194845489Y-103285912D02*
X194845489Y-104785912D01*
X194202631Y-104357341D02*
X193488346Y-104357341D01*
X194345488Y-104785912D02*
X193845488Y-103285912D01*
X193845488Y-103285912D02*
X193345488Y-104785912D01*
X192988346Y-103285912D02*
X191988346Y-104785912D01*
X191988346Y-103285912D02*
X192988346Y-104785912D01*
X190345489Y-103428769D02*
X190274061Y-103357341D01*
X190274061Y-103357341D02*
X190131204Y-103285912D01*
X190131204Y-103285912D02*
X189774061Y-103285912D01*
X189774061Y-103285912D02*
X189631204Y-103357341D01*
X189631204Y-103357341D02*
X189559775Y-103428769D01*
X189559775Y-103428769D02*
X189488346Y-103571626D01*
X189488346Y-103571626D02*
X189488346Y-103714484D01*
X189488346Y-103714484D02*
X189559775Y-103928769D01*
X189559775Y-103928769D02*
X190416918Y-104785912D01*
X190416918Y-104785912D02*
X189488346Y-104785912D01*
X188559775Y-103285912D02*
X188416918Y-103285912D01*
X188416918Y-103285912D02*
X188274061Y-103357341D01*
X188274061Y-103357341D02*
X188202633Y-103428769D01*
X188202633Y-103428769D02*
X188131204Y-103571626D01*
X188131204Y-103571626D02*
X188059775Y-103857341D01*
X188059775Y-103857341D02*
X188059775Y-104214484D01*
X188059775Y-104214484D02*
X188131204Y-104500198D01*
X188131204Y-104500198D02*
X188202633Y-104643055D01*
X188202633Y-104643055D02*
X188274061Y-104714484D01*
X188274061Y-104714484D02*
X188416918Y-104785912D01*
X188416918Y-104785912D02*
X188559775Y-104785912D01*
X188559775Y-104785912D02*
X188702633Y-104714484D01*
X188702633Y-104714484D02*
X188774061Y-104643055D01*
X188774061Y-104643055D02*
X188845490Y-104500198D01*
X188845490Y-104500198D02*
X188916918Y-104214484D01*
X188916918Y-104214484D02*
X188916918Y-103857341D01*
X188916918Y-103857341D02*
X188845490Y-103571626D01*
X188845490Y-103571626D02*
X188774061Y-103428769D01*
X188774061Y-103428769D02*
X188702633Y-103357341D01*
X188702633Y-103357341D02*
X188559775Y-103285912D01*
X187488347Y-104357341D02*
X186774062Y-104357341D01*
X187631204Y-104785912D02*
X187131204Y-103285912D01*
X187131204Y-103285912D02*
X186631204Y-104785912D01*
X186131205Y-104785912D02*
X186131205Y-103285912D01*
X186131205Y-103285912D02*
X185631205Y-104357341D01*
X185631205Y-104357341D02*
X185131205Y-103285912D01*
X185131205Y-103285912D02*
X185131205Y-104785912D01*
X184416919Y-104785912D02*
X184416919Y-103285912D01*
X184416919Y-103285912D02*
X183845490Y-103285912D01*
X183845490Y-103285912D02*
X183702633Y-103357341D01*
X183702633Y-103357341D02*
X183631204Y-103428769D01*
X183631204Y-103428769D02*
X183559776Y-103571626D01*
X183559776Y-103571626D02*
X183559776Y-103785912D01*
X183559776Y-103785912D02*
X183631204Y-103928769D01*
X183631204Y-103928769D02*
X183702633Y-104000198D01*
X183702633Y-104000198D02*
X183845490Y-104071626D01*
X183845490Y-104071626D02*
X184416919Y-104071626D01*
X182988347Y-104714484D02*
X182774062Y-104785912D01*
X182774062Y-104785912D02*
X182416919Y-104785912D01*
X182416919Y-104785912D02*
X182274062Y-104714484D01*
X182274062Y-104714484D02*
X182202633Y-104643055D01*
X182202633Y-104643055D02*
X182131204Y-104500198D01*
X182131204Y-104500198D02*
X182131204Y-104357341D01*
X182131204Y-104357341D02*
X182202633Y-104214484D01*
X182202633Y-104214484D02*
X182274062Y-104143055D01*
X182274062Y-104143055D02*
X182416919Y-104071626D01*
X182416919Y-104071626D02*
X182702633Y-104000198D01*
X182702633Y-104000198D02*
X182845490Y-103928769D01*
X182845490Y-103928769D02*
X182916919Y-103857341D01*
X182916919Y-103857341D02*
X182988347Y-103714484D01*
X182988347Y-103714484D02*
X182988347Y-103571626D01*
X182988347Y-103571626D02*
X182916919Y-103428769D01*
X182916919Y-103428769D02*
X182845490Y-103357341D01*
X182845490Y-103357341D02*
X182702633Y-103285912D01*
X182702633Y-103285912D02*
X182345490Y-103285912D01*
X182345490Y-103285912D02*
X182131204Y-103357341D01*
X179559776Y-104785912D02*
X180416919Y-104785912D01*
X179988348Y-104785912D02*
X179988348Y-103285912D01*
X179988348Y-103285912D02*
X180131205Y-103500198D01*
X180131205Y-103500198D02*
X180274062Y-103643055D01*
X180274062Y-103643055D02*
X180416919Y-103714484D01*
X178631205Y-103285912D02*
X178345491Y-103285912D01*
X178345491Y-103285912D02*
X178202634Y-103357341D01*
X178202634Y-103357341D02*
X178059777Y-103500198D01*
X178059777Y-103500198D02*
X177988348Y-103785912D01*
X177988348Y-103785912D02*
X177988348Y-104285912D01*
X177988348Y-104285912D02*
X178059777Y-104571626D01*
X178059777Y-104571626D02*
X178202634Y-104714484D01*
X178202634Y-104714484D02*
X178345491Y-104785912D01*
X178345491Y-104785912D02*
X178631205Y-104785912D01*
X178631205Y-104785912D02*
X178774063Y-104714484D01*
X178774063Y-104714484D02*
X178916920Y-104571626D01*
X178916920Y-104571626D02*
X178988348Y-104285912D01*
X178988348Y-104285912D02*
X178988348Y-103785912D01*
X178988348Y-103785912D02*
X178916920Y-103500198D01*
X178916920Y-103500198D02*
X178774063Y-103357341D01*
X178774063Y-103357341D02*
X178631205Y-103285912D01*
X177488348Y-103285912D02*
X176488348Y-103285912D01*
X176488348Y-103285912D02*
X177488348Y-104785912D01*
X177488348Y-104785912D02*
X176488348Y-104785912D01*
X173916920Y-104643055D02*
X173988348Y-104714484D01*
X173988348Y-104714484D02*
X174202634Y-104785912D01*
X174202634Y-104785912D02*
X174345491Y-104785912D01*
X174345491Y-104785912D02*
X174559777Y-104714484D01*
X174559777Y-104714484D02*
X174702634Y-104571626D01*
X174702634Y-104571626D02*
X174774063Y-104428769D01*
X174774063Y-104428769D02*
X174845491Y-104143055D01*
X174845491Y-104143055D02*
X174845491Y-103928769D01*
X174845491Y-103928769D02*
X174774063Y-103643055D01*
X174774063Y-103643055D02*
X174702634Y-103500198D01*
X174702634Y-103500198D02*
X174559777Y-103357341D01*
X174559777Y-103357341D02*
X174345491Y-103285912D01*
X174345491Y-103285912D02*
X174202634Y-103285912D01*
X174202634Y-103285912D02*
X173988348Y-103357341D01*
X173988348Y-103357341D02*
X173916920Y-103428769D01*
X172988348Y-103285912D02*
X172702634Y-103285912D01*
X172702634Y-103285912D02*
X172559777Y-103357341D01*
X172559777Y-103357341D02*
X172416920Y-103500198D01*
X172416920Y-103500198D02*
X172345491Y-103785912D01*
X172345491Y-103785912D02*
X172345491Y-104285912D01*
X172345491Y-104285912D02*
X172416920Y-104571626D01*
X172416920Y-104571626D02*
X172559777Y-104714484D01*
X172559777Y-104714484D02*
X172702634Y-104785912D01*
X172702634Y-104785912D02*
X172988348Y-104785912D01*
X172988348Y-104785912D02*
X173131206Y-104714484D01*
X173131206Y-104714484D02*
X173274063Y-104571626D01*
X173274063Y-104571626D02*
X173345491Y-104285912D01*
X173345491Y-104285912D02*
X173345491Y-103785912D01*
X173345491Y-103785912D02*
X173274063Y-103500198D01*
X173274063Y-103500198D02*
X173131206Y-103357341D01*
X173131206Y-103357341D02*
X172988348Y-103285912D01*
X171702634Y-104785912D02*
X171702634Y-103285912D01*
X171702634Y-103285912D02*
X171131205Y-103285912D01*
X171131205Y-103285912D02*
X170988348Y-103357341D01*
X170988348Y-103357341D02*
X170916919Y-103428769D01*
X170916919Y-103428769D02*
X170845491Y-103571626D01*
X170845491Y-103571626D02*
X170845491Y-103785912D01*
X170845491Y-103785912D02*
X170916919Y-103928769D01*
X170916919Y-103928769D02*
X170988348Y-104000198D01*
X170988348Y-104000198D02*
X171131205Y-104071626D01*
X171131205Y-104071626D02*
X171702634Y-104071626D01*
X170202634Y-104785912D02*
X170202634Y-103285912D01*
X170202634Y-103285912D02*
X169631205Y-103285912D01*
X169631205Y-103285912D02*
X169488348Y-103357341D01*
X169488348Y-103357341D02*
X169416919Y-103428769D01*
X169416919Y-103428769D02*
X169345491Y-103571626D01*
X169345491Y-103571626D02*
X169345491Y-103785912D01*
X169345491Y-103785912D02*
X169416919Y-103928769D01*
X169416919Y-103928769D02*
X169488348Y-104000198D01*
X169488348Y-104000198D02*
X169631205Y-104071626D01*
X169631205Y-104071626D02*
X170202634Y-104071626D01*
X168702634Y-104000198D02*
X168202634Y-104000198D01*
X167988348Y-104785912D02*
X168702634Y-104785912D01*
X168702634Y-104785912D02*
X168702634Y-103285912D01*
X168702634Y-103285912D02*
X167988348Y-103285912D01*
X166488348Y-104785912D02*
X166988348Y-104071626D01*
X167345491Y-104785912D02*
X167345491Y-103285912D01*
X167345491Y-103285912D02*
X166774062Y-103285912D01*
X166774062Y-103285912D02*
X166631205Y-103357341D01*
X166631205Y-103357341D02*
X166559776Y-103428769D01*
X166559776Y-103428769D02*
X166488348Y-103571626D01*
X166488348Y-103571626D02*
X166488348Y-103785912D01*
X166488348Y-103785912D02*
X166559776Y-103928769D01*
X166559776Y-103928769D02*
X166631205Y-104000198D01*
X166631205Y-104000198D02*
X166774062Y-104071626D01*
X166774062Y-104071626D02*
X167345491Y-104071626D01*
X164702634Y-104785912D02*
X164702634Y-103285912D01*
X163988348Y-104785912D02*
X163988348Y-103285912D01*
X163988348Y-103285912D02*
X163131205Y-104785912D01*
X163131205Y-104785912D02*
X163131205Y-103285912D01*
X161345490Y-104357341D02*
X160631205Y-104357341D01*
X161488347Y-104785912D02*
X160988347Y-103285912D01*
X160988347Y-103285912D02*
X160488347Y-104785912D01*
X159059776Y-103285912D02*
X158559776Y-104785912D01*
X158559776Y-104785912D02*
X158059776Y-103285912D01*
X157559777Y-104000198D02*
X157059777Y-104000198D01*
X156845491Y-104785912D02*
X157559777Y-104785912D01*
X157559777Y-104785912D02*
X157559777Y-103285912D01*
X157559777Y-103285912D02*
X156845491Y-103285912D01*
X156202634Y-104785912D02*
X156202634Y-103285912D01*
X156202634Y-103285912D02*
X155345491Y-104785912D01*
X155345491Y-104785912D02*
X155345491Y-103285912D01*
X154845490Y-103285912D02*
X153988348Y-103285912D01*
X154416919Y-104785912D02*
X154416919Y-103285912D01*
X153488348Y-104000198D02*
X152988348Y-104000198D01*
X152774062Y-104785912D02*
X153488348Y-104785912D01*
X153488348Y-104785912D02*
X153488348Y-103285912D01*
X153488348Y-103285912D02*
X152774062Y-103285912D01*
X152131205Y-104785912D02*
X152131205Y-103285912D01*
X152131205Y-103285912D02*
X151774062Y-103285912D01*
X151774062Y-103285912D02*
X151559776Y-103357341D01*
X151559776Y-103357341D02*
X151416919Y-103500198D01*
X151416919Y-103500198D02*
X151345490Y-103643055D01*
X151345490Y-103643055D02*
X151274062Y-103928769D01*
X151274062Y-103928769D02*
X151274062Y-104143055D01*
X151274062Y-104143055D02*
X151345490Y-104428769D01*
X151345490Y-104428769D02*
X151416919Y-104571626D01*
X151416919Y-104571626D02*
X151559776Y-104714484D01*
X151559776Y-104714484D02*
X151774062Y-104785912D01*
X151774062Y-104785912D02*
X152131205Y-104785912D01*
X148988348Y-104000198D02*
X148774062Y-104071626D01*
X148774062Y-104071626D02*
X148702633Y-104143055D01*
X148702633Y-104143055D02*
X148631205Y-104285912D01*
X148631205Y-104285912D02*
X148631205Y-104500198D01*
X148631205Y-104500198D02*
X148702633Y-104643055D01*
X148702633Y-104643055D02*
X148774062Y-104714484D01*
X148774062Y-104714484D02*
X148916919Y-104785912D01*
X148916919Y-104785912D02*
X149488348Y-104785912D01*
X149488348Y-104785912D02*
X149488348Y-103285912D01*
X149488348Y-103285912D02*
X148988348Y-103285912D01*
X148988348Y-103285912D02*
X148845491Y-103357341D01*
X148845491Y-103357341D02*
X148774062Y-103428769D01*
X148774062Y-103428769D02*
X148702633Y-103571626D01*
X148702633Y-103571626D02*
X148702633Y-103714484D01*
X148702633Y-103714484D02*
X148774062Y-103857341D01*
X148774062Y-103857341D02*
X148845491Y-103928769D01*
X148845491Y-103928769D02*
X148988348Y-104000198D01*
X148988348Y-104000198D02*
X149488348Y-104000198D01*
X147702633Y-103285912D02*
X147416919Y-103285912D01*
X147416919Y-103285912D02*
X147274062Y-103357341D01*
X147274062Y-103357341D02*
X147131205Y-103500198D01*
X147131205Y-103500198D02*
X147059776Y-103785912D01*
X147059776Y-103785912D02*
X147059776Y-104285912D01*
X147059776Y-104285912D02*
X147131205Y-104571626D01*
X147131205Y-104571626D02*
X147274062Y-104714484D01*
X147274062Y-104714484D02*
X147416919Y-104785912D01*
X147416919Y-104785912D02*
X147702633Y-104785912D01*
X147702633Y-104785912D02*
X147845491Y-104714484D01*
X147845491Y-104714484D02*
X147988348Y-104571626D01*
X147988348Y-104571626D02*
X148059776Y-104285912D01*
X148059776Y-104285912D02*
X148059776Y-103785912D01*
X148059776Y-103785912D02*
X147988348Y-103500198D01*
X147988348Y-103500198D02*
X147845491Y-103357341D01*
X147845491Y-103357341D02*
X147702633Y-103285912D01*
X146559776Y-103285912D02*
X145559776Y-104785912D01*
X145559776Y-103285912D02*
X146559776Y-104785912D01*
X195845489Y-107200828D02*
X195845489Y-105700828D01*
X195845489Y-105700828D02*
X195345489Y-106772257D01*
X195345489Y-106772257D02*
X194845489Y-105700828D01*
X194845489Y-105700828D02*
X194845489Y-107200828D01*
X194202631Y-106772257D02*
X193488346Y-106772257D01*
X194345488Y-107200828D02*
X193845488Y-105700828D01*
X193845488Y-105700828D02*
X193345488Y-107200828D01*
X192988346Y-105700828D02*
X191988346Y-107200828D01*
X191988346Y-105700828D02*
X192988346Y-107200828D01*
X190416918Y-105700828D02*
X189488346Y-105700828D01*
X189488346Y-105700828D02*
X189988346Y-106272257D01*
X189988346Y-106272257D02*
X189774061Y-106272257D01*
X189774061Y-106272257D02*
X189631204Y-106343685D01*
X189631204Y-106343685D02*
X189559775Y-106415114D01*
X189559775Y-106415114D02*
X189488346Y-106557971D01*
X189488346Y-106557971D02*
X189488346Y-106915114D01*
X189488346Y-106915114D02*
X189559775Y-107057971D01*
X189559775Y-107057971D02*
X189631204Y-107129400D01*
X189631204Y-107129400D02*
X189774061Y-107200828D01*
X189774061Y-107200828D02*
X190202632Y-107200828D01*
X190202632Y-107200828D02*
X190345489Y-107129400D01*
X190345489Y-107129400D02*
X190416918Y-107057971D01*
X188916918Y-105843685D02*
X188845490Y-105772257D01*
X188845490Y-105772257D02*
X188702633Y-105700828D01*
X188702633Y-105700828D02*
X188345490Y-105700828D01*
X188345490Y-105700828D02*
X188202633Y-105772257D01*
X188202633Y-105772257D02*
X188131204Y-105843685D01*
X188131204Y-105843685D02*
X188059775Y-105986542D01*
X188059775Y-105986542D02*
X188059775Y-106129400D01*
X188059775Y-106129400D02*
X188131204Y-106343685D01*
X188131204Y-106343685D02*
X188988347Y-107200828D01*
X188988347Y-107200828D02*
X188059775Y-107200828D01*
X187488347Y-106772257D02*
X186774062Y-106772257D01*
X187631204Y-107200828D02*
X187131204Y-105700828D01*
X187131204Y-105700828D02*
X186631204Y-107200828D01*
X186131205Y-107200828D02*
X186131205Y-105700828D01*
X186131205Y-105700828D02*
X185631205Y-106772257D01*
X185631205Y-106772257D02*
X185131205Y-105700828D01*
X185131205Y-105700828D02*
X185131205Y-107200828D01*
X184416919Y-107200828D02*
X184416919Y-105700828D01*
X184416919Y-105700828D02*
X183845490Y-105700828D01*
X183845490Y-105700828D02*
X183702633Y-105772257D01*
X183702633Y-105772257D02*
X183631204Y-105843685D01*
X183631204Y-105843685D02*
X183559776Y-105986542D01*
X183559776Y-105986542D02*
X183559776Y-106200828D01*
X183559776Y-106200828D02*
X183631204Y-106343685D01*
X183631204Y-106343685D02*
X183702633Y-106415114D01*
X183702633Y-106415114D02*
X183845490Y-106486542D01*
X183845490Y-106486542D02*
X184416919Y-106486542D01*
X182988347Y-107129400D02*
X182774062Y-107200828D01*
X182774062Y-107200828D02*
X182416919Y-107200828D01*
X182416919Y-107200828D02*
X182274062Y-107129400D01*
X182274062Y-107129400D02*
X182202633Y-107057971D01*
X182202633Y-107057971D02*
X182131204Y-106915114D01*
X182131204Y-106915114D02*
X182131204Y-106772257D01*
X182131204Y-106772257D02*
X182202633Y-106629400D01*
X182202633Y-106629400D02*
X182274062Y-106557971D01*
X182274062Y-106557971D02*
X182416919Y-106486542D01*
X182416919Y-106486542D02*
X182702633Y-106415114D01*
X182702633Y-106415114D02*
X182845490Y-106343685D01*
X182845490Y-106343685D02*
X182916919Y-106272257D01*
X182916919Y-106272257D02*
X182988347Y-106129400D01*
X182988347Y-106129400D02*
X182988347Y-105986542D01*
X182988347Y-105986542D02*
X182916919Y-105843685D01*
X182916919Y-105843685D02*
X182845490Y-105772257D01*
X182845490Y-105772257D02*
X182702633Y-105700828D01*
X182702633Y-105700828D02*
X182345490Y-105700828D01*
X182345490Y-105700828D02*
X182131204Y-105772257D01*
X180416919Y-105843685D02*
X180345491Y-105772257D01*
X180345491Y-105772257D02*
X180202634Y-105700828D01*
X180202634Y-105700828D02*
X179845491Y-105700828D01*
X179845491Y-105700828D02*
X179702634Y-105772257D01*
X179702634Y-105772257D02*
X179631205Y-105843685D01*
X179631205Y-105843685D02*
X179559776Y-105986542D01*
X179559776Y-105986542D02*
X179559776Y-106129400D01*
X179559776Y-106129400D02*
X179631205Y-106343685D01*
X179631205Y-106343685D02*
X180488348Y-107200828D01*
X180488348Y-107200828D02*
X179559776Y-107200828D01*
X178631205Y-105700828D02*
X178345491Y-105700828D01*
X178345491Y-105700828D02*
X178202634Y-105772257D01*
X178202634Y-105772257D02*
X178059777Y-105915114D01*
X178059777Y-105915114D02*
X177988348Y-106200828D01*
X177988348Y-106200828D02*
X177988348Y-106700828D01*
X177988348Y-106700828D02*
X178059777Y-106986542D01*
X178059777Y-106986542D02*
X178202634Y-107129400D01*
X178202634Y-107129400D02*
X178345491Y-107200828D01*
X178345491Y-107200828D02*
X178631205Y-107200828D01*
X178631205Y-107200828D02*
X178774063Y-107129400D01*
X178774063Y-107129400D02*
X178916920Y-106986542D01*
X178916920Y-106986542D02*
X178988348Y-106700828D01*
X178988348Y-106700828D02*
X178988348Y-106200828D01*
X178988348Y-106200828D02*
X178916920Y-105915114D01*
X178916920Y-105915114D02*
X178774063Y-105772257D01*
X178774063Y-105772257D02*
X178631205Y-105700828D01*
X177488348Y-105700828D02*
X176488348Y-105700828D01*
X176488348Y-105700828D02*
X177488348Y-107200828D01*
X177488348Y-107200828D02*
X176488348Y-107200828D01*
X173916920Y-107057971D02*
X173988348Y-107129400D01*
X173988348Y-107129400D02*
X174202634Y-107200828D01*
X174202634Y-107200828D02*
X174345491Y-107200828D01*
X174345491Y-107200828D02*
X174559777Y-107129400D01*
X174559777Y-107129400D02*
X174702634Y-106986542D01*
X174702634Y-106986542D02*
X174774063Y-106843685D01*
X174774063Y-106843685D02*
X174845491Y-106557971D01*
X174845491Y-106557971D02*
X174845491Y-106343685D01*
X174845491Y-106343685D02*
X174774063Y-106057971D01*
X174774063Y-106057971D02*
X174702634Y-105915114D01*
X174702634Y-105915114D02*
X174559777Y-105772257D01*
X174559777Y-105772257D02*
X174345491Y-105700828D01*
X174345491Y-105700828D02*
X174202634Y-105700828D01*
X174202634Y-105700828D02*
X173988348Y-105772257D01*
X173988348Y-105772257D02*
X173916920Y-105843685D01*
X172988348Y-105700828D02*
X172702634Y-105700828D01*
X172702634Y-105700828D02*
X172559777Y-105772257D01*
X172559777Y-105772257D02*
X172416920Y-105915114D01*
X172416920Y-105915114D02*
X172345491Y-106200828D01*
X172345491Y-106200828D02*
X172345491Y-106700828D01*
X172345491Y-106700828D02*
X172416920Y-106986542D01*
X172416920Y-106986542D02*
X172559777Y-107129400D01*
X172559777Y-107129400D02*
X172702634Y-107200828D01*
X172702634Y-107200828D02*
X172988348Y-107200828D01*
X172988348Y-107200828D02*
X173131206Y-107129400D01*
X173131206Y-107129400D02*
X173274063Y-106986542D01*
X173274063Y-106986542D02*
X173345491Y-106700828D01*
X173345491Y-106700828D02*
X173345491Y-106200828D01*
X173345491Y-106200828D02*
X173274063Y-105915114D01*
X173274063Y-105915114D02*
X173131206Y-105772257D01*
X173131206Y-105772257D02*
X172988348Y-105700828D01*
X171702634Y-107200828D02*
X171702634Y-105700828D01*
X171702634Y-105700828D02*
X171131205Y-105700828D01*
X171131205Y-105700828D02*
X170988348Y-105772257D01*
X170988348Y-105772257D02*
X170916919Y-105843685D01*
X170916919Y-105843685D02*
X170845491Y-105986542D01*
X170845491Y-105986542D02*
X170845491Y-106200828D01*
X170845491Y-106200828D02*
X170916919Y-106343685D01*
X170916919Y-106343685D02*
X170988348Y-106415114D01*
X170988348Y-106415114D02*
X171131205Y-106486542D01*
X171131205Y-106486542D02*
X171702634Y-106486542D01*
X170202634Y-107200828D02*
X170202634Y-105700828D01*
X170202634Y-105700828D02*
X169631205Y-105700828D01*
X169631205Y-105700828D02*
X169488348Y-105772257D01*
X169488348Y-105772257D02*
X169416919Y-105843685D01*
X169416919Y-105843685D02*
X169345491Y-105986542D01*
X169345491Y-105986542D02*
X169345491Y-106200828D01*
X169345491Y-106200828D02*
X169416919Y-106343685D01*
X169416919Y-106343685D02*
X169488348Y-106415114D01*
X169488348Y-106415114D02*
X169631205Y-106486542D01*
X169631205Y-106486542D02*
X170202634Y-106486542D01*
X168702634Y-106415114D02*
X168202634Y-106415114D01*
X167988348Y-107200828D02*
X168702634Y-107200828D01*
X168702634Y-107200828D02*
X168702634Y-105700828D01*
X168702634Y-105700828D02*
X167988348Y-105700828D01*
X166488348Y-107200828D02*
X166988348Y-106486542D01*
X167345491Y-107200828D02*
X167345491Y-105700828D01*
X167345491Y-105700828D02*
X166774062Y-105700828D01*
X166774062Y-105700828D02*
X166631205Y-105772257D01*
X166631205Y-105772257D02*
X166559776Y-105843685D01*
X166559776Y-105843685D02*
X166488348Y-105986542D01*
X166488348Y-105986542D02*
X166488348Y-106200828D01*
X166488348Y-106200828D02*
X166559776Y-106343685D01*
X166559776Y-106343685D02*
X166631205Y-106415114D01*
X166631205Y-106415114D02*
X166774062Y-106486542D01*
X166774062Y-106486542D02*
X167345491Y-106486542D01*
X164702634Y-107200828D02*
X164702634Y-105700828D01*
X163988348Y-107200828D02*
X163988348Y-105700828D01*
X163988348Y-105700828D02*
X163131205Y-107200828D01*
X163131205Y-107200828D02*
X163131205Y-105700828D01*
X161345490Y-106772257D02*
X160631205Y-106772257D01*
X161488347Y-107200828D02*
X160988347Y-105700828D01*
X160988347Y-105700828D02*
X160488347Y-107200828D01*
X159059776Y-105700828D02*
X158559776Y-107200828D01*
X158559776Y-107200828D02*
X158059776Y-105700828D01*
X157559777Y-106415114D02*
X157059777Y-106415114D01*
X156845491Y-107200828D02*
X157559777Y-107200828D01*
X157559777Y-107200828D02*
X157559777Y-105700828D01*
X157559777Y-105700828D02*
X156845491Y-105700828D01*
X156202634Y-107200828D02*
X156202634Y-105700828D01*
X156202634Y-105700828D02*
X155345491Y-107200828D01*
X155345491Y-107200828D02*
X155345491Y-105700828D01*
X154845490Y-105700828D02*
X153988348Y-105700828D01*
X154416919Y-107200828D02*
X154416919Y-105700828D01*
X153488348Y-106415114D02*
X152988348Y-106415114D01*
X152774062Y-107200828D02*
X153488348Y-107200828D01*
X153488348Y-107200828D02*
X153488348Y-105700828D01*
X153488348Y-105700828D02*
X152774062Y-105700828D01*
X152131205Y-107200828D02*
X152131205Y-105700828D01*
X152131205Y-105700828D02*
X151774062Y-105700828D01*
X151774062Y-105700828D02*
X151559776Y-105772257D01*
X151559776Y-105772257D02*
X151416919Y-105915114D01*
X151416919Y-105915114D02*
X151345490Y-106057971D01*
X151345490Y-106057971D02*
X151274062Y-106343685D01*
X151274062Y-106343685D02*
X151274062Y-106557971D01*
X151274062Y-106557971D02*
X151345490Y-106843685D01*
X151345490Y-106843685D02*
X151416919Y-106986542D01*
X151416919Y-106986542D02*
X151559776Y-107129400D01*
X151559776Y-107129400D02*
X151774062Y-107200828D01*
X151774062Y-107200828D02*
X152131205Y-107200828D01*
X148988348Y-106415114D02*
X148774062Y-106486542D01*
X148774062Y-106486542D02*
X148702633Y-106557971D01*
X148702633Y-106557971D02*
X148631205Y-106700828D01*
X148631205Y-106700828D02*
X148631205Y-106915114D01*
X148631205Y-106915114D02*
X148702633Y-107057971D01*
X148702633Y-107057971D02*
X148774062Y-107129400D01*
X148774062Y-107129400D02*
X148916919Y-107200828D01*
X148916919Y-107200828D02*
X149488348Y-107200828D01*
X149488348Y-107200828D02*
X149488348Y-105700828D01*
X149488348Y-105700828D02*
X148988348Y-105700828D01*
X148988348Y-105700828D02*
X148845491Y-105772257D01*
X148845491Y-105772257D02*
X148774062Y-105843685D01*
X148774062Y-105843685D02*
X148702633Y-105986542D01*
X148702633Y-105986542D02*
X148702633Y-106129400D01*
X148702633Y-106129400D02*
X148774062Y-106272257D01*
X148774062Y-106272257D02*
X148845491Y-106343685D01*
X148845491Y-106343685D02*
X148988348Y-106415114D01*
X148988348Y-106415114D02*
X149488348Y-106415114D01*
X147702633Y-105700828D02*
X147416919Y-105700828D01*
X147416919Y-105700828D02*
X147274062Y-105772257D01*
X147274062Y-105772257D02*
X147131205Y-105915114D01*
X147131205Y-105915114D02*
X147059776Y-106200828D01*
X147059776Y-106200828D02*
X147059776Y-106700828D01*
X147059776Y-106700828D02*
X147131205Y-106986542D01*
X147131205Y-106986542D02*
X147274062Y-107129400D01*
X147274062Y-107129400D02*
X147416919Y-107200828D01*
X147416919Y-107200828D02*
X147702633Y-107200828D01*
X147702633Y-107200828D02*
X147845491Y-107129400D01*
X147845491Y-107129400D02*
X147988348Y-106986542D01*
X147988348Y-106986542D02*
X148059776Y-106700828D01*
X148059776Y-106700828D02*
X148059776Y-106200828D01*
X148059776Y-106200828D02*
X147988348Y-105915114D01*
X147988348Y-105915114D02*
X147845491Y-105772257D01*
X147845491Y-105772257D02*
X147702633Y-105700828D01*
X146559776Y-105700828D02*
X145559776Y-107200828D01*
X145559776Y-105700828D02*
X146559776Y-107200828D01*
D11*
%TO.C,G\u002A\u002A\u002A*%
G36*
X172634927Y-96071123D02*
G01*
X172634927Y-97893664D01*
X171366038Y-97893664D01*
X170097149Y-97893664D01*
X170097149Y-97460255D01*
X170097149Y-97026846D01*
X170854927Y-97026846D01*
X171612705Y-97026846D01*
X171612705Y-95637714D01*
X171612705Y-94248582D01*
X172123816Y-94248582D01*
X172634927Y-94248582D01*
X172634927Y-96071123D01*
G37*
G36*
X188616060Y-94683102D02*
G01*
X188614927Y-95117623D01*
X188071593Y-95118752D01*
X187528260Y-95119881D01*
X187528260Y-96506773D01*
X187528260Y-97893664D01*
X187014927Y-97893664D01*
X186501593Y-97893664D01*
X186501593Y-96506755D01*
X186501593Y-95119846D01*
X185954927Y-95119846D01*
X185408260Y-95119846D01*
X185408260Y-94684214D01*
X185408260Y-94248582D01*
X187012726Y-94248582D01*
X188617193Y-94248582D01*
X188616060Y-94683102D01*
G37*
G36*
X191839371Y-96071123D02*
G01*
X191839371Y-97893664D01*
X191326038Y-97893664D01*
X190812705Y-97893664D01*
X190812705Y-97246884D01*
X190812705Y-96600105D01*
X190014927Y-96600105D01*
X189217149Y-96600105D01*
X189217149Y-96173363D01*
X189217149Y-95746622D01*
X190014927Y-95746622D01*
X190812705Y-95746622D01*
X190812705Y-95422121D01*
X190812705Y-95097619D01*
X189974927Y-95097619D01*
X189137149Y-95097619D01*
X189137149Y-94673101D01*
X189137149Y-94248582D01*
X190488260Y-94248582D01*
X191839371Y-94248582D01*
X191839371Y-96071123D01*
G37*
G36*
X184612705Y-96071123D02*
G01*
X184612705Y-97893664D01*
X183219371Y-97893664D01*
X181826038Y-97893664D01*
X181826038Y-97469156D01*
X181826038Y-97044649D01*
X182707149Y-97043526D01*
X183588260Y-97042404D01*
X183588260Y-96746797D01*
X183588260Y-96451190D01*
X182802705Y-96450066D01*
X182017149Y-96448942D01*
X182017149Y-96033326D01*
X182017149Y-95617710D01*
X182803816Y-95617710D01*
X183590482Y-95617710D01*
X183590482Y-95357665D01*
X183590482Y-95097619D01*
X182723816Y-95097619D01*
X181857149Y-95097619D01*
X181857149Y-94673101D01*
X181857149Y-94248582D01*
X183234927Y-94248582D01*
X184612705Y-94248582D01*
X184612705Y-96071123D01*
G37*
G36*
X195826020Y-96535195D02*
G01*
X195865210Y-96638203D01*
X195903715Y-96739415D01*
X195941412Y-96838506D01*
X195978177Y-96935149D01*
X196013886Y-97029020D01*
X196048415Y-97119792D01*
X196081641Y-97207140D01*
X196113438Y-97290738D01*
X196143685Y-97370260D01*
X196172255Y-97445382D01*
X196199027Y-97515777D01*
X196223875Y-97581119D01*
X196246676Y-97641083D01*
X196267307Y-97695344D01*
X196285642Y-97743575D01*
X196301559Y-97785451D01*
X196314933Y-97820646D01*
X196325641Y-97848835D01*
X196333559Y-97869692D01*
X196338562Y-97882892D01*
X196340528Y-97888108D01*
X196340344Y-97888523D01*
X196337502Y-97889352D01*
X196330990Y-97890093D01*
X196320405Y-97890750D01*
X196305346Y-97891327D01*
X196285412Y-97891829D01*
X196260202Y-97892260D01*
X196229314Y-97892624D01*
X196192346Y-97892926D01*
X196148898Y-97893169D01*
X196098568Y-97893359D01*
X196040955Y-97893499D01*
X195975656Y-97893594D01*
X195902272Y-97893647D01*
X195820401Y-97893664D01*
X195298257Y-97893664D01*
X195194927Y-97586944D01*
X195091597Y-97280224D01*
X194448614Y-97280224D01*
X193805632Y-97280224D01*
X193704554Y-97586944D01*
X193603477Y-97893664D01*
X193072535Y-97893664D01*
X193052685Y-97893662D01*
X192980079Y-97893612D01*
X192911438Y-97893500D01*
X192847210Y-97893330D01*
X192787842Y-97893104D01*
X192733783Y-97892826D01*
X192685480Y-97892499D01*
X192643379Y-97892126D01*
X192607930Y-97891712D01*
X192579579Y-97891258D01*
X192558774Y-97890770D01*
X192545963Y-97890249D01*
X192541593Y-97889700D01*
X192541595Y-97889683D01*
X192543248Y-97884951D01*
X192547902Y-97872254D01*
X192555430Y-97851931D01*
X192565702Y-97824325D01*
X192578592Y-97789778D01*
X192593970Y-97748629D01*
X192611710Y-97701222D01*
X192631682Y-97647896D01*
X192653760Y-97588995D01*
X192677814Y-97524858D01*
X192703718Y-97455828D01*
X192731342Y-97382246D01*
X192760558Y-97304453D01*
X192791240Y-97222791D01*
X192823258Y-97137601D01*
X192856484Y-97049225D01*
X192890792Y-96958004D01*
X192926051Y-96864279D01*
X192962135Y-96768392D01*
X192988617Y-96698033D01*
X193029422Y-96589616D01*
X193071263Y-96478444D01*
X193071650Y-96477416D01*
X194070482Y-96477416D01*
X194072538Y-96477695D01*
X194082597Y-96478087D01*
X194100455Y-96478457D01*
X194125463Y-96478801D01*
X194156976Y-96479113D01*
X194194346Y-96479391D01*
X194236926Y-96479628D01*
X194284069Y-96479820D01*
X194335128Y-96479963D01*
X194389457Y-96480053D01*
X194446408Y-96480084D01*
X194463949Y-96480080D01*
X194525103Y-96480009D01*
X194581958Y-96479851D01*
X194634005Y-96479611D01*
X194680733Y-96479295D01*
X194721633Y-96478907D01*
X194756194Y-96478455D01*
X194783907Y-96477943D01*
X194804261Y-96477375D01*
X194816746Y-96476759D01*
X194820853Y-96476099D01*
X194820569Y-96475279D01*
X194817937Y-96467520D01*
X194812695Y-96452022D01*
X194805010Y-96429279D01*
X194795050Y-96399784D01*
X194782981Y-96364031D01*
X194768969Y-96322513D01*
X194753180Y-96275726D01*
X194735783Y-96224161D01*
X194716942Y-96168312D01*
X194696825Y-96108674D01*
X194675598Y-96045740D01*
X194653429Y-95980004D01*
X194630482Y-95911958D01*
X194621026Y-95883933D01*
X194598394Y-95816994D01*
X194576585Y-95752683D01*
X194555767Y-95691484D01*
X194536107Y-95633879D01*
X194517771Y-95580352D01*
X194500926Y-95531386D01*
X194485740Y-95487466D01*
X194472379Y-95449073D01*
X194461010Y-95416693D01*
X194451801Y-95390807D01*
X194444918Y-95371900D01*
X194440528Y-95360455D01*
X194438798Y-95356956D01*
X194438781Y-95356991D01*
X194436969Y-95362096D01*
X194432604Y-95375001D01*
X194425883Y-95395104D01*
X194417003Y-95421803D01*
X194406162Y-95454497D01*
X194393559Y-95492584D01*
X194379390Y-95535463D01*
X194363854Y-95582532D01*
X194347148Y-95633189D01*
X194329470Y-95686834D01*
X194311017Y-95742863D01*
X194291988Y-95800677D01*
X194272581Y-95859672D01*
X194252992Y-95919249D01*
X194233420Y-95978804D01*
X194214063Y-96037737D01*
X194195118Y-96095447D01*
X194176783Y-96151330D01*
X194159255Y-96204787D01*
X194142733Y-96255214D01*
X194127414Y-96302012D01*
X194113496Y-96344577D01*
X194101177Y-96382310D01*
X194090654Y-96414607D01*
X194082126Y-96440868D01*
X194075789Y-96460491D01*
X194071842Y-96472874D01*
X194070482Y-96477416D01*
X193071650Y-96477416D01*
X193113880Y-96365208D01*
X193157013Y-96250601D01*
X193200401Y-96135316D01*
X193243783Y-96020044D01*
X193286899Y-95905478D01*
X193329488Y-95792310D01*
X193371290Y-95681232D01*
X193412045Y-95572937D01*
X193451491Y-95468116D01*
X193489369Y-95367462D01*
X193525417Y-95271668D01*
X193559376Y-95181425D01*
X193590985Y-95097426D01*
X193619983Y-95020362D01*
X193646109Y-94950927D01*
X193909541Y-94250805D01*
X194433110Y-94250805D01*
X194956679Y-94250805D01*
X195384711Y-95375446D01*
X195385193Y-95376712D01*
X195423735Y-95477982D01*
X195462955Y-95581038D01*
X195502730Y-95685555D01*
X195542935Y-95791207D01*
X195583447Y-95897668D01*
X195624141Y-96004613D01*
X195664895Y-96111716D01*
X195705583Y-96218651D01*
X195746083Y-96325093D01*
X195786270Y-96430716D01*
X195803536Y-96476099D01*
X195826020Y-96535195D01*
G37*
G36*
X180932705Y-96070978D02*
G01*
X180932705Y-97893664D01*
X180419371Y-97893664D01*
X179906038Y-97893664D01*
X179906038Y-97166544D01*
X179906038Y-97138626D01*
X179906030Y-97046632D01*
X179906008Y-96963020D01*
X179905969Y-96887395D01*
X179905908Y-96819362D01*
X179905823Y-96758526D01*
X179905708Y-96704491D01*
X179905559Y-96656863D01*
X179905374Y-96615245D01*
X179905148Y-96579244D01*
X179904876Y-96548463D01*
X179904556Y-96522508D01*
X179904183Y-96500984D01*
X179903753Y-96483494D01*
X179903263Y-96469645D01*
X179902708Y-96459041D01*
X179902084Y-96451286D01*
X179901388Y-96445986D01*
X179900616Y-96442746D01*
X179899763Y-96441169D01*
X179898826Y-96440862D01*
X179898293Y-96441298D01*
X179893505Y-96447596D01*
X179884037Y-96461308D01*
X179869938Y-96482354D01*
X179851261Y-96510656D01*
X179828054Y-96546136D01*
X179800368Y-96588715D01*
X179768255Y-96638314D01*
X179731764Y-96694856D01*
X179690946Y-96758260D01*
X179645852Y-96828450D01*
X179596531Y-96905347D01*
X179543034Y-96988871D01*
X179485412Y-97078945D01*
X179423715Y-97175490D01*
X179357994Y-97278427D01*
X179288300Y-97387678D01*
X179214681Y-97503164D01*
X179137190Y-97624807D01*
X179055876Y-97752528D01*
X178966048Y-97893664D01*
X178384515Y-97893664D01*
X177802982Y-97893664D01*
X177818107Y-97872549D01*
X177822110Y-97866921D01*
X177831516Y-97853619D01*
X177844787Y-97834801D01*
X177861206Y-97811485D01*
X177880055Y-97784691D01*
X177900616Y-97755438D01*
X177922171Y-97724746D01*
X177929605Y-97714157D01*
X177945213Y-97691930D01*
X177965365Y-97663232D01*
X177989719Y-97628553D01*
X178017931Y-97588383D01*
X178049655Y-97543212D01*
X178084547Y-97493530D01*
X178122264Y-97439828D01*
X178162461Y-97382595D01*
X178204794Y-97322323D01*
X178248919Y-97259500D01*
X178294490Y-97194618D01*
X178341165Y-97128165D01*
X178388599Y-97060633D01*
X178436447Y-96992512D01*
X178481630Y-96928169D01*
X178526553Y-96864163D01*
X178569839Y-96802454D01*
X178611222Y-96743426D01*
X178650433Y-96687461D01*
X178687206Y-96634941D01*
X178721272Y-96586250D01*
X178752365Y-96541769D01*
X178780216Y-96501882D01*
X178804559Y-96466972D01*
X178825126Y-96437420D01*
X178841649Y-96413610D01*
X178853861Y-96395923D01*
X178861494Y-96384744D01*
X178864282Y-96380454D01*
X178864563Y-96377739D01*
X178859929Y-96373131D01*
X178847520Y-96368799D01*
X178832121Y-96364360D01*
X178798962Y-96353305D01*
X178761251Y-96339193D01*
X178721068Y-96322852D01*
X178680489Y-96305110D01*
X178641593Y-96286793D01*
X178603073Y-96267101D01*
X178516226Y-96216257D01*
X178435947Y-96159762D01*
X178362398Y-96097772D01*
X178295742Y-96030446D01*
X178236141Y-95957941D01*
X178183758Y-95880416D01*
X178138753Y-95798027D01*
X178121895Y-95761460D01*
X178089868Y-95677230D01*
X178065794Y-95589703D01*
X178049617Y-95498608D01*
X178041286Y-95403677D01*
X178041059Y-95362110D01*
X179055392Y-95362110D01*
X179055565Y-95376399D01*
X179057361Y-95414072D01*
X179061512Y-95446454D01*
X179068582Y-95476128D01*
X179079138Y-95505681D01*
X179093742Y-95537696D01*
X179096155Y-95542515D01*
X179106528Y-95561153D01*
X179118131Y-95577945D01*
X179132842Y-95595391D01*
X179152538Y-95615991D01*
X179169077Y-95631823D01*
X179206020Y-95661253D01*
X179245897Y-95684840D01*
X179290021Y-95703182D01*
X179339706Y-95716873D01*
X179396266Y-95726510D01*
X179409733Y-95728033D01*
X179426554Y-95729427D01*
X179446473Y-95730571D01*
X179470318Y-95731483D01*
X179498916Y-95732186D01*
X179533094Y-95732697D01*
X179573678Y-95733038D01*
X179621497Y-95733227D01*
X179677377Y-95733286D01*
X179906038Y-95733286D01*
X179906038Y-95359888D01*
X179906038Y-94986489D01*
X179669255Y-94986489D01*
X179620749Y-94986572D01*
X179573022Y-94986825D01*
X179529007Y-94987235D01*
X179489567Y-94987786D01*
X179455564Y-94988465D01*
X179427862Y-94989255D01*
X179407323Y-94990144D01*
X179394810Y-94991117D01*
X179348417Y-94998730D01*
X179289988Y-95014714D01*
X179237583Y-95037059D01*
X179191303Y-95065700D01*
X179151249Y-95100572D01*
X179117521Y-95141609D01*
X179090220Y-95188746D01*
X179082226Y-95206083D01*
X179071077Y-95234332D01*
X179063308Y-95261627D01*
X179058430Y-95290400D01*
X179055954Y-95323083D01*
X179055392Y-95362110D01*
X178041059Y-95362110D01*
X178040745Y-95304639D01*
X178045909Y-95223206D01*
X178058480Y-95131073D01*
X178078257Y-95043580D01*
X178105479Y-94960116D01*
X178140381Y-94880071D01*
X178183201Y-94802837D01*
X178234175Y-94727804D01*
X178293541Y-94654362D01*
X178329993Y-94615008D01*
X178396249Y-94553319D01*
X178469211Y-94496299D01*
X178548118Y-94444355D01*
X178632207Y-94397894D01*
X178720717Y-94357321D01*
X178812884Y-94323042D01*
X178907947Y-94295466D01*
X179005143Y-94274996D01*
X179011111Y-94273969D01*
X179026400Y-94271301D01*
X179040386Y-94268852D01*
X179053475Y-94266610D01*
X179066076Y-94264567D01*
X179078596Y-94262712D01*
X179091443Y-94261036D01*
X179105025Y-94259529D01*
X179119749Y-94258180D01*
X179136024Y-94256981D01*
X179154256Y-94255921D01*
X179174854Y-94254990D01*
X179198225Y-94254178D01*
X179224777Y-94253476D01*
X179254918Y-94252874D01*
X179289055Y-94252361D01*
X179327596Y-94251928D01*
X179370949Y-94251566D01*
X179419521Y-94251263D01*
X179473721Y-94251011D01*
X179533955Y-94250799D01*
X179600633Y-94250618D01*
X179674160Y-94250458D01*
X179754945Y-94250308D01*
X179843397Y-94250159D01*
X179939921Y-94250002D01*
X180044927Y-94249826D01*
X180932705Y-94248291D01*
X180932705Y-95359888D01*
X180932705Y-96070978D01*
G37*
G36*
X169604394Y-96064029D02*
G01*
X169600417Y-96195543D01*
X169588118Y-96324761D01*
X169567558Y-96451460D01*
X169538796Y-96575418D01*
X169501894Y-96696411D01*
X169456912Y-96814218D01*
X169403909Y-96928613D01*
X169342947Y-97039375D01*
X169274085Y-97146281D01*
X169197385Y-97249107D01*
X169171281Y-97280692D01*
X169115954Y-97342315D01*
X169055000Y-97404160D01*
X168990248Y-97464484D01*
X168923525Y-97521547D01*
X168856659Y-97573608D01*
X168782646Y-97625521D01*
X168673206Y-97693143D01*
X168558623Y-97753765D01*
X168439310Y-97807205D01*
X168315684Y-97853280D01*
X168188159Y-97891812D01*
X168057149Y-97922617D01*
X168056392Y-97922771D01*
X168047413Y-97924567D01*
X168038941Y-97926140D01*
X168030349Y-97927505D01*
X168021010Y-97928676D01*
X168010298Y-97929671D01*
X167997588Y-97930504D01*
X167982251Y-97931190D01*
X167963664Y-97931745D01*
X167941197Y-97932185D01*
X167914227Y-97932525D01*
X167882125Y-97932780D01*
X167844267Y-97932965D01*
X167800025Y-97933097D01*
X167748773Y-97933191D01*
X167689884Y-97933262D01*
X167622734Y-97933325D01*
X167239429Y-97933671D01*
X167180511Y-97922325D01*
X167131806Y-97912030D01*
X167074459Y-97898102D01*
X167015354Y-97882120D01*
X166957759Y-97864969D01*
X166904943Y-97847537D01*
X166851467Y-97827938D01*
X166732447Y-97777779D01*
X166617921Y-97720277D01*
X166508213Y-97655680D01*
X166403650Y-97584236D01*
X166304555Y-97506195D01*
X166211254Y-97421804D01*
X166124072Y-97331311D01*
X166043334Y-97234966D01*
X165969365Y-97133015D01*
X165937871Y-97084507D01*
X165875844Y-96977255D01*
X165820994Y-96865386D01*
X165773646Y-96749734D01*
X165734123Y-96631131D01*
X165702748Y-96510411D01*
X165679847Y-96388405D01*
X165675842Y-96361634D01*
X165671351Y-96329963D01*
X165667753Y-96301563D01*
X165664951Y-96274915D01*
X165662850Y-96248498D01*
X165661352Y-96220793D01*
X165660362Y-96190278D01*
X165659783Y-96155434D01*
X165659519Y-96114741D01*
X165659476Y-96070040D01*
X166698010Y-96070040D01*
X166701525Y-96174767D01*
X166712283Y-96274850D01*
X166730255Y-96370147D01*
X166755408Y-96460513D01*
X166787713Y-96545803D01*
X166827139Y-96625876D01*
X166843181Y-96653608D01*
X166891514Y-96725535D01*
X166945867Y-96791020D01*
X167006001Y-96849906D01*
X167071677Y-96902032D01*
X167142656Y-96947241D01*
X167218698Y-96985373D01*
X167299564Y-97016270D01*
X167385016Y-97039774D01*
X167474814Y-97055725D01*
X167492398Y-97057676D01*
X167519495Y-97059890D01*
X167550552Y-97061809D01*
X167583432Y-97063353D01*
X167616001Y-97064437D01*
X167646122Y-97064978D01*
X167671661Y-97064895D01*
X167690482Y-97064103D01*
X167722760Y-97061357D01*
X167772125Y-97056227D01*
X167815891Y-97050256D01*
X167856131Y-97043104D01*
X167894919Y-97034426D01*
X167934327Y-97023882D01*
X168006069Y-96999970D01*
X168083999Y-96965642D01*
X168156809Y-96924260D01*
X168224293Y-96876072D01*
X168286248Y-96821329D01*
X168342466Y-96760282D01*
X168392744Y-96693179D01*
X168436877Y-96620273D01*
X168474658Y-96541811D01*
X168505884Y-96458046D01*
X168530348Y-96369227D01*
X168547847Y-96275603D01*
X168554713Y-96221651D01*
X168562395Y-96117952D01*
X168562710Y-96016025D01*
X168555739Y-95916512D01*
X168541564Y-95820058D01*
X168520266Y-95727305D01*
X168491926Y-95638897D01*
X168456627Y-95555477D01*
X168418090Y-95483780D01*
X168370647Y-95412946D01*
X168317006Y-95348376D01*
X168257386Y-95290242D01*
X168192001Y-95238712D01*
X168121068Y-95193955D01*
X168044804Y-95156141D01*
X167963426Y-95125440D01*
X167877149Y-95102021D01*
X167849985Y-95096281D01*
X167809469Y-95089093D01*
X167769341Y-95083892D01*
X167727298Y-95080457D01*
X167681039Y-95078564D01*
X167628260Y-95077992D01*
X167609115Y-95078107D01*
X167527836Y-95081380D01*
X167452445Y-95089414D01*
X167381424Y-95102539D01*
X167313251Y-95121085D01*
X167246407Y-95145385D01*
X167179371Y-95175769D01*
X167163378Y-95183850D01*
X167112450Y-95212157D01*
X167066780Y-95242218D01*
X167023576Y-95275991D01*
X166980041Y-95315435D01*
X166970281Y-95324959D01*
X166913881Y-95386186D01*
X166864703Y-95451289D01*
X166822222Y-95521116D01*
X166785913Y-95596513D01*
X166755250Y-95678329D01*
X166739014Y-95731328D01*
X166725231Y-95785569D01*
X166714664Y-95839830D01*
X166706957Y-95896282D01*
X166701757Y-95957097D01*
X166698708Y-96024448D01*
X166698010Y-96070040D01*
X165659476Y-96070040D01*
X165659473Y-96066678D01*
X165659514Y-96040680D01*
X165659791Y-95993775D01*
X165660419Y-95953436D01*
X165661509Y-95918105D01*
X165663174Y-95886227D01*
X165665524Y-95856244D01*
X165668672Y-95826601D01*
X165672728Y-95795742D01*
X165677805Y-95762109D01*
X165684013Y-95724146D01*
X165709054Y-95600165D01*
X165742391Y-95478163D01*
X165783539Y-95359978D01*
X165832276Y-95245866D01*
X165888383Y-95136081D01*
X165951637Y-95030879D01*
X166021819Y-94930515D01*
X166098707Y-94835242D01*
X166182080Y-94745318D01*
X166271718Y-94660996D01*
X166367400Y-94582531D01*
X166468905Y-94510179D01*
X166576012Y-94444195D01*
X166688500Y-94384833D01*
X166806148Y-94332348D01*
X166928736Y-94286996D01*
X167020688Y-94258840D01*
X167146937Y-94227803D01*
X167276837Y-94204188D01*
X167409577Y-94188064D01*
X167544345Y-94179500D01*
X167680331Y-94178564D01*
X167816721Y-94185326D01*
X167952705Y-94199856D01*
X168011349Y-94208629D01*
X168143680Y-94234485D01*
X168272175Y-94268175D01*
X168396658Y-94309622D01*
X168516951Y-94358751D01*
X168632879Y-94415485D01*
X168744264Y-94479749D01*
X168850932Y-94551467D01*
X168952705Y-94630562D01*
X168957724Y-94634788D01*
X168983888Y-94657812D01*
X169013804Y-94685444D01*
X169045737Y-94715983D01*
X169077954Y-94747723D01*
X169108719Y-94778964D01*
X169136299Y-94808000D01*
X169158959Y-94833129D01*
X169204330Y-94887516D01*
X169279593Y-94988436D01*
X169347375Y-95093970D01*
X169407522Y-95203766D01*
X169459878Y-95317474D01*
X169504289Y-95434743D01*
X169540600Y-95555222D01*
X169568656Y-95678562D01*
X169588301Y-95804410D01*
X169599990Y-95930444D01*
X169602811Y-96016025D01*
X169604394Y-96064029D01*
G37*
G36*
X175383570Y-94191186D02*
G01*
X175383761Y-94191194D01*
X175520327Y-94200584D01*
X175652260Y-94217244D01*
X175780298Y-94241365D01*
X175905180Y-94273132D01*
X176027642Y-94312734D01*
X176148423Y-94360359D01*
X176268260Y-94416193D01*
X176329994Y-94448383D01*
X176445067Y-94515447D01*
X176553621Y-94588408D01*
X176655574Y-94667187D01*
X176750847Y-94751704D01*
X176839359Y-94841880D01*
X176921029Y-94937635D01*
X176995777Y-95038892D01*
X177063522Y-95145569D01*
X177124184Y-95257589D01*
X177140280Y-95290546D01*
X177171897Y-95360136D01*
X177198927Y-95427512D01*
X177222477Y-95495540D01*
X177243654Y-95567086D01*
X177248473Y-95585048D01*
X177275175Y-95703085D01*
X177294274Y-95824076D01*
X177305793Y-95947040D01*
X177309756Y-96070994D01*
X177306187Y-96194955D01*
X177295110Y-96317942D01*
X177276547Y-96438971D01*
X177250523Y-96557061D01*
X177217062Y-96671228D01*
X177205795Y-96703754D01*
X177177316Y-96777392D01*
X177144324Y-96853130D01*
X177108111Y-96928224D01*
X177069970Y-96999935D01*
X177031193Y-97065521D01*
X176987825Y-97131356D01*
X176913058Y-97231899D01*
X176831652Y-97326848D01*
X176743942Y-97415985D01*
X176650261Y-97499091D01*
X176550945Y-97575947D01*
X176446328Y-97646333D01*
X176336744Y-97710031D01*
X176222529Y-97766820D01*
X176104016Y-97816483D01*
X175981540Y-97858800D01*
X175855436Y-97893551D01*
X175726038Y-97920518D01*
X175654927Y-97933010D01*
X175333742Y-97933341D01*
X175297357Y-97933374D01*
X175240375Y-97933401D01*
X175191159Y-97933374D01*
X175148996Y-97933277D01*
X175113171Y-97933094D01*
X175082971Y-97932808D01*
X175057681Y-97932404D01*
X175036589Y-97931867D01*
X175018979Y-97931179D01*
X175004138Y-97930325D01*
X174991352Y-97929289D01*
X174979908Y-97928055D01*
X174969091Y-97926606D01*
X174958187Y-97924928D01*
X174904360Y-97915602D01*
X174779631Y-97888473D01*
X174660158Y-97854391D01*
X174545534Y-97813183D01*
X174435354Y-97764679D01*
X174329211Y-97708706D01*
X174226700Y-97645094D01*
X174127415Y-97573669D01*
X174105667Y-97556024D01*
X174077359Y-97531343D01*
X174046013Y-97502630D01*
X174013039Y-97471273D01*
X173979848Y-97438661D01*
X173947851Y-97406182D01*
X173918457Y-97375223D01*
X173893077Y-97347172D01*
X173873122Y-97323417D01*
X173798757Y-97223310D01*
X173731036Y-97118559D01*
X173670480Y-97009683D01*
X173616998Y-96896431D01*
X173570501Y-96778556D01*
X173530902Y-96655809D01*
X173498110Y-96527942D01*
X173472038Y-96394705D01*
X173452596Y-96255851D01*
X173439695Y-96111130D01*
X173439285Y-96104458D01*
X173438023Y-96079746D01*
X173436708Y-96048539D01*
X173435402Y-96012621D01*
X173434167Y-95973775D01*
X173433065Y-95933782D01*
X173432158Y-95894425D01*
X173429127Y-95746622D01*
X174440916Y-95746622D01*
X175452705Y-95746622D01*
X175452705Y-96152912D01*
X175452705Y-96559202D01*
X175398260Y-96561931D01*
X175387518Y-96562394D01*
X175367682Y-96563131D01*
X175340363Y-96564074D01*
X175306304Y-96565199D01*
X175266249Y-96566484D01*
X175220940Y-96567905D01*
X175171120Y-96569439D01*
X175117532Y-96571062D01*
X175060920Y-96572752D01*
X175002026Y-96574485D01*
X174941593Y-96576237D01*
X174938640Y-96576322D01*
X174879757Y-96578038D01*
X174823467Y-96579717D01*
X174770398Y-96581338D01*
X174721181Y-96582879D01*
X174676443Y-96584320D01*
X174636815Y-96585640D01*
X174602926Y-96586818D01*
X174575405Y-96587833D01*
X174554881Y-96588663D01*
X174541985Y-96589289D01*
X174537344Y-96589689D01*
X174538031Y-96594591D01*
X174542509Y-96605670D01*
X174550014Y-96621467D01*
X174559777Y-96640520D01*
X174571030Y-96661371D01*
X174583005Y-96682562D01*
X174594933Y-96702633D01*
X174606046Y-96720126D01*
X174627673Y-96750982D01*
X174678398Y-96812378D01*
X174734823Y-96866992D01*
X174796857Y-96914772D01*
X174864406Y-96955665D01*
X174937376Y-96989619D01*
X175015675Y-97016579D01*
X175099208Y-97036495D01*
X175187883Y-97049312D01*
X175206544Y-97050786D01*
X175238446Y-97052155D01*
X175275335Y-97052756D01*
X175315231Y-97052633D01*
X175356152Y-97051828D01*
X175396118Y-97050386D01*
X175433149Y-97048351D01*
X175465264Y-97045764D01*
X175490482Y-97042671D01*
X175576335Y-97025546D01*
X175663830Y-97000059D01*
X175746478Y-96967338D01*
X175824063Y-96927541D01*
X175896366Y-96880826D01*
X175963172Y-96827350D01*
X176024263Y-96767270D01*
X176079422Y-96700744D01*
X176128432Y-96627930D01*
X176171075Y-96548984D01*
X176180014Y-96529911D01*
X176208937Y-96459691D01*
X176232127Y-96387795D01*
X176249966Y-96312682D01*
X176262839Y-96232815D01*
X176271127Y-96146652D01*
X176272243Y-96128185D01*
X176273492Y-96033694D01*
X176267326Y-95940790D01*
X176253903Y-95850342D01*
X176233381Y-95763219D01*
X176205921Y-95680289D01*
X176171680Y-95602421D01*
X176142298Y-95548172D01*
X176093275Y-95472832D01*
X176037841Y-95403430D01*
X175976320Y-95340207D01*
X175909037Y-95283403D01*
X175836315Y-95233256D01*
X175758478Y-95190006D01*
X175675850Y-95153893D01*
X175588756Y-95125156D01*
X175497519Y-95104036D01*
X175445409Y-95096008D01*
X175366261Y-95089057D01*
X175283295Y-95087378D01*
X175198445Y-95090932D01*
X175113645Y-95099679D01*
X175030829Y-95113579D01*
X175010579Y-95118248D01*
X174975654Y-95128064D01*
X174937367Y-95140481D01*
X174898404Y-95154560D01*
X174861449Y-95169365D01*
X174829188Y-95183959D01*
X174768153Y-95216972D01*
X174704351Y-95257672D01*
X174640158Y-95304495D01*
X174576989Y-95356345D01*
X174516255Y-95412125D01*
X174459371Y-95470740D01*
X174414927Y-95519408D01*
X174071054Y-95175726D01*
X174065920Y-95170594D01*
X174010780Y-95115442D01*
X173961636Y-95066207D01*
X173918191Y-95022580D01*
X173880148Y-94984254D01*
X173847207Y-94950920D01*
X173819071Y-94922273D01*
X173795443Y-94898003D01*
X173776023Y-94877803D01*
X173760515Y-94861365D01*
X173748619Y-94848383D01*
X173740039Y-94838547D01*
X173734476Y-94831551D01*
X173731631Y-94827087D01*
X173731209Y-94824847D01*
X173734375Y-94820221D01*
X173744037Y-94808559D01*
X173758348Y-94792699D01*
X173776173Y-94773800D01*
X173796381Y-94753021D01*
X173817838Y-94731520D01*
X173839412Y-94710458D01*
X173859969Y-94690993D01*
X173878375Y-94674285D01*
X173955863Y-94609813D01*
X174057302Y-94535739D01*
X174164184Y-94468460D01*
X174276183Y-94408124D01*
X174392976Y-94354875D01*
X174514238Y-94308859D01*
X174639644Y-94270220D01*
X174768871Y-94239105D01*
X174901593Y-94215659D01*
X174904780Y-94215198D01*
X174996612Y-94203974D01*
X175093573Y-94195800D01*
X175192496Y-94190837D01*
X175290217Y-94189246D01*
X175383570Y-94191186D01*
G37*
%TD*%
M02*
