%TF.GenerationSoftware,KiCad,Pcbnew,9.0.8*%
%TF.CreationDate,2026-03-20T02:05:03-06:00*%
%TF.ProjectId,afterglo-controller,61667465-7267-46c6-9f2d-636f6e74726f,rev?*%
%TF.SameCoordinates,Original*%
%TF.FileFunction,Copper,L1,Top*%
%TF.FilePolarity,Positive*%
%FSLAX46Y46*%
G04 Gerber Fmt 4.6, Leading zero omitted, Abs format (unit mm)*
G04 Created by KiCad (PCBNEW 9.0.8) date 2026-03-20 02:05:03*
%MOMM*%
%LPD*%
G01*
G04 APERTURE LIST*
G04 Aperture macros list*
%AMRoundRect*
0 Rectangle with rounded corners*
0 $1 Rounding radius*
0 $2 $3 $4 $5 $6 $7 $8 $9 X,Y pos of 4 corners*
0 Add a 4 corners polygon primitive as box body*
4,1,4,$2,$3,$4,$5,$6,$7,$8,$9,$2,$3,0*
0 Add four circle primitives for the rounded corners*
1,1,$1+$1,$2,$3*
1,1,$1+$1,$4,$5*
1,1,$1+$1,$6,$7*
1,1,$1+$1,$8,$9*
0 Add four rect primitives between the rounded corners*
20,1,$1+$1,$2,$3,$4,$5,0*
20,1,$1+$1,$4,$5,$6,$7,0*
20,1,$1+$1,$6,$7,$8,$9,0*
20,1,$1+$1,$8,$9,$2,$3,0*%
%AMFreePoly0*
4,1,23,0.550000,-0.750000,0.000000,-0.750000,0.000000,-0.745722,-0.065263,-0.745722,-0.191342,-0.711940,-0.304381,-0.646677,-0.396677,-0.554381,-0.461940,-0.441342,-0.495722,-0.315263,-0.495722,-0.250000,-0.500000,-0.250000,-0.500000,0.250000,-0.495722,0.250000,-0.495722,0.315263,-0.461940,0.441342,-0.396677,0.554381,-0.304381,0.646677,-0.191342,0.711940,-0.065263,0.745722,0.000000,0.745722,
0.000000,0.750000,0.550000,0.750000,0.550000,-0.750000,0.550000,-0.750000,$1*%
%AMFreePoly1*
4,1,23,0.000000,0.745722,0.065263,0.745722,0.191342,0.711940,0.304381,0.646677,0.396677,0.554381,0.461940,0.441342,0.495722,0.315263,0.495722,0.250000,0.500000,0.250000,0.500000,-0.250000,0.495722,-0.250000,0.495722,-0.315263,0.461940,-0.441342,0.396677,-0.554381,0.304381,-0.646677,0.191342,-0.711940,0.065263,-0.745722,0.000000,-0.745722,0.000000,-0.750000,-0.550000,-0.750000,
-0.550000,0.750000,0.000000,0.750000,0.000000,0.745722,0.000000,0.745722,$1*%
G04 Aperture macros list end*
%TA.AperFunction,SMDPad,CuDef*%
%ADD10R,1.500000X0.900000*%
%TD*%
%TA.AperFunction,SMDPad,CuDef*%
%ADD11R,0.900000X1.500000*%
%TD*%
%TA.AperFunction,SMDPad,CuDef*%
%ADD12R,1.050000X1.050000*%
%TD*%
%TA.AperFunction,HeatsinkPad*%
%ADD13R,4.200000X4.200000*%
%TD*%
%TA.AperFunction,SMDPad,CuDef*%
%ADD14RoundRect,0.225000X0.225000X0.250000X-0.225000X0.250000X-0.225000X-0.250000X0.225000X-0.250000X0*%
%TD*%
%TA.AperFunction,ComponentPad*%
%ADD15C,2.200000*%
%TD*%
%TA.AperFunction,SMDPad,CuDef*%
%ADD16RoundRect,0.200000X0.200000X0.275000X-0.200000X0.275000X-0.200000X-0.275000X0.200000X-0.275000X0*%
%TD*%
%TA.AperFunction,ComponentPad*%
%ADD17RoundRect,0.250000X0.750000X-0.750000X0.750000X0.750000X-0.750000X0.750000X-0.750000X-0.750000X0*%
%TD*%
%TA.AperFunction,ComponentPad*%
%ADD18C,2.000000*%
%TD*%
%TA.AperFunction,ComponentPad*%
%ADD19RoundRect,0.250000X-1.050000X-1.050000X1.050000X-1.050000X1.050000X1.050000X-1.050000X1.050000X0*%
%TD*%
%TA.AperFunction,ComponentPad*%
%ADD20C,2.600000*%
%TD*%
%TA.AperFunction,SMDPad,CuDef*%
%ADD21RoundRect,0.250000X0.475000X-0.250000X0.475000X0.250000X-0.475000X0.250000X-0.475000X-0.250000X0*%
%TD*%
%TA.AperFunction,SMDPad,CuDef*%
%ADD22RoundRect,0.200000X-0.275000X0.200000X-0.275000X-0.200000X0.275000X-0.200000X0.275000X0.200000X0*%
%TD*%
%TA.AperFunction,SMDPad,CuDef*%
%ADD23RoundRect,0.250000X0.312500X1.450000X-0.312500X1.450000X-0.312500X-1.450000X0.312500X-1.450000X0*%
%TD*%
%TA.AperFunction,SMDPad,CuDef*%
%ADD24RoundRect,0.225000X-0.225000X-0.375000X0.225000X-0.375000X0.225000X0.375000X-0.225000X0.375000X0*%
%TD*%
%TA.AperFunction,SMDPad,CuDef*%
%ADD25RoundRect,0.200000X-0.200000X-0.275000X0.200000X-0.275000X0.200000X0.275000X-0.200000X0.275000X0*%
%TD*%
%TA.AperFunction,SMDPad,CuDef*%
%ADD26RoundRect,0.225000X-0.225000X-0.250000X0.225000X-0.250000X0.225000X0.250000X-0.225000X0.250000X0*%
%TD*%
%TA.AperFunction,SMDPad,CuDef*%
%ADD27FreePoly0,90.000000*%
%TD*%
%TA.AperFunction,SMDPad,CuDef*%
%ADD28R,1.500000X1.000000*%
%TD*%
%TA.AperFunction,SMDPad,CuDef*%
%ADD29FreePoly1,90.000000*%
%TD*%
%TA.AperFunction,SMDPad,CuDef*%
%ADD30RoundRect,0.150000X-0.825000X-0.150000X0.825000X-0.150000X0.825000X0.150000X-0.825000X0.150000X0*%
%TD*%
%TA.AperFunction,ComponentPad*%
%ADD31R,2.000000X1.905000*%
%TD*%
%TA.AperFunction,ComponentPad*%
%ADD32O,2.000000X1.905000*%
%TD*%
%TA.AperFunction,ComponentPad*%
%ADD33RoundRect,0.250000X-1.050000X1.050000X-1.050000X-1.050000X1.050000X-1.050000X1.050000X1.050000X0*%
%TD*%
%TA.AperFunction,SMDPad,CuDef*%
%ADD34RoundRect,0.225000X-0.250000X0.225000X-0.250000X-0.225000X0.250000X-0.225000X0.250000X0.225000X0*%
%TD*%
%TA.AperFunction,SMDPad,CuDef*%
%ADD35C,1.500000*%
%TD*%
%TA.AperFunction,SMDPad,CuDef*%
%ADD36RoundRect,0.250000X0.900000X-1.000000X0.900000X1.000000X-0.900000X1.000000X-0.900000X-1.000000X0*%
%TD*%
%TA.AperFunction,SMDPad,CuDef*%
%ADD37RoundRect,0.218750X-0.218750X-0.256250X0.218750X-0.256250X0.218750X0.256250X-0.218750X0.256250X0*%
%TD*%
%TA.AperFunction,SMDPad,CuDef*%
%ADD38RoundRect,0.150000X-0.587500X-0.150000X0.587500X-0.150000X0.587500X0.150000X-0.587500X0.150000X0*%
%TD*%
%TA.AperFunction,ComponentPad*%
%ADD39R,1.700000X1.700000*%
%TD*%
%TA.AperFunction,ComponentPad*%
%ADD40C,1.700000*%
%TD*%
%TA.AperFunction,SMDPad,CuDef*%
%ADD41RoundRect,0.250000X0.525000X0.400000X-0.525000X0.400000X-0.525000X-0.400000X0.525000X-0.400000X0*%
%TD*%
%TA.AperFunction,SMDPad,CuDef*%
%ADD42RoundRect,0.150000X-0.512500X-0.150000X0.512500X-0.150000X0.512500X0.150000X-0.512500X0.150000X0*%
%TD*%
%TA.AperFunction,SMDPad,CuDef*%
%ADD43RoundRect,0.225000X-0.375000X0.225000X-0.375000X-0.225000X0.375000X-0.225000X0.375000X0.225000X0*%
%TD*%
%TA.AperFunction,SMDPad,CuDef*%
%ADD44RoundRect,0.075000X0.075000X-0.350000X0.075000X0.350000X-0.075000X0.350000X-0.075000X-0.350000X0*%
%TD*%
%TA.AperFunction,SMDPad,CuDef*%
%ADD45RoundRect,0.075000X0.350000X-0.075000X0.350000X0.075000X-0.350000X0.075000X-0.350000X-0.075000X0*%
%TD*%
%TA.AperFunction,HeatsinkPad*%
%ADD46R,2.650000X2.650000*%
%TD*%
%TA.AperFunction,SMDPad,CuDef*%
%ADD47RoundRect,0.062500X-0.350000X-0.062500X0.350000X-0.062500X0.350000X0.062500X-0.350000X0.062500X0*%
%TD*%
%TA.AperFunction,SMDPad,CuDef*%
%ADD48RoundRect,0.062500X-0.062500X-0.350000X0.062500X-0.350000X0.062500X0.350000X-0.062500X0.350000X0*%
%TD*%
%TA.AperFunction,HeatsinkPad*%
%ADD49R,2.600000X2.600000*%
%TD*%
%TA.AperFunction,SMDPad,CuDef*%
%ADD50RoundRect,0.250000X0.650000X-1.000000X0.650000X1.000000X-0.650000X1.000000X-0.650000X-1.000000X0*%
%TD*%
%TA.AperFunction,ComponentPad*%
%ADD51RoundRect,0.250500X0.499500X-0.499500X0.499500X0.499500X-0.499500X0.499500X-0.499500X-0.499500X0*%
%TD*%
%TA.AperFunction,ComponentPad*%
%ADD52C,1.500000*%
%TD*%
%TA.AperFunction,ComponentPad*%
%ADD53C,2.500000*%
%TD*%
%TA.AperFunction,ComponentPad*%
%ADD54RoundRect,0.250000X-0.750000X0.750000X-0.750000X-0.750000X0.750000X-0.750000X0.750000X0.750000X0*%
%TD*%
%TA.AperFunction,SMDPad,CuDef*%
%ADD55RoundRect,0.250000X-0.650000X1.000000X-0.650000X-1.000000X0.650000X-1.000000X0.650000X1.000000X0*%
%TD*%
%TA.AperFunction,SMDPad,CuDef*%
%ADD56RoundRect,0.375000X-0.625000X-0.375000X0.625000X-0.375000X0.625000X0.375000X-0.625000X0.375000X0*%
%TD*%
%TA.AperFunction,SMDPad,CuDef*%
%ADD57RoundRect,0.500000X-0.500000X-1.400000X0.500000X-1.400000X0.500000X1.400000X-0.500000X1.400000X0*%
%TD*%
%TA.AperFunction,SMDPad,CuDef*%
%ADD58RoundRect,0.150000X0.587500X0.150000X-0.587500X0.150000X-0.587500X-0.150000X0.587500X-0.150000X0*%
%TD*%
%TA.AperFunction,SMDPad,CuDef*%
%ADD59RoundRect,0.225000X0.250000X-0.225000X0.250000X0.225000X-0.250000X0.225000X-0.250000X-0.225000X0*%
%TD*%
%TA.AperFunction,SMDPad,CuDef*%
%ADD60RoundRect,0.218750X-0.381250X0.218750X-0.381250X-0.218750X0.381250X-0.218750X0.381250X0.218750X0*%
%TD*%
%TA.AperFunction,SMDPad,CuDef*%
%ADD61RoundRect,0.250000X1.000000X0.650000X-1.000000X0.650000X-1.000000X-0.650000X1.000000X-0.650000X0*%
%TD*%
%TA.AperFunction,SMDPad,CuDef*%
%ADD62R,1.450000X0.600000*%
%TD*%
%TA.AperFunction,SMDPad,CuDef*%
%ADD63R,1.450000X0.300000*%
%TD*%
%TA.AperFunction,HeatsinkPad*%
%ADD64O,2.100000X1.000000*%
%TD*%
%TA.AperFunction,HeatsinkPad*%
%ADD65O,1.600000X1.000000*%
%TD*%
%TA.AperFunction,SMDPad,CuDef*%
%ADD66RoundRect,0.218750X-0.218750X-0.381250X0.218750X-0.381250X0.218750X0.381250X-0.218750X0.381250X0*%
%TD*%
%TA.AperFunction,SMDPad,CuDef*%
%ADD67RoundRect,0.250000X-1.075000X0.375000X-1.075000X-0.375000X1.075000X-0.375000X1.075000X0.375000X0*%
%TD*%
%TA.AperFunction,SMDPad,CuDef*%
%ADD68RoundRect,0.250000X-0.250000X-0.475000X0.250000X-0.475000X0.250000X0.475000X-0.250000X0.475000X0*%
%TD*%
%TA.AperFunction,SMDPad,CuDef*%
%ADD69RoundRect,0.250000X-0.325000X-0.650000X0.325000X-0.650000X0.325000X0.650000X-0.325000X0.650000X0*%
%TD*%
%TA.AperFunction,ComponentPad*%
%ADD70RoundRect,0.250000X-0.550000X-0.550000X0.550000X-0.550000X0.550000X0.550000X-0.550000X0.550000X0*%
%TD*%
%TA.AperFunction,ComponentPad*%
%ADD71C,1.600000*%
%TD*%
%TA.AperFunction,ViaPad*%
%ADD72C,0.600000*%
%TD*%
%TA.AperFunction,Conductor*%
%ADD73C,0.200000*%
%TD*%
G04 APERTURE END LIST*
D10*
%TO.P,U5,1,GND*%
%TO.N,GND*%
X106770000Y-41500000D03*
%TO.P,U5,2,VDD*%
%TO.N,+3V3*%
X106770000Y-42770000D03*
%TO.P,U5,3,EN*%
%TO.N,ESP32_EN*%
X106770000Y-44040000D03*
%TO.P,U5,4,SENSOR_VP*%
%TO.N,unconnected-(U5-SENSOR_VP-Pad4)*%
X106770000Y-45310000D03*
%TO.P,U5,5,SENSOR_VN*%
%TO.N,unconnected-(U5-SENSOR_VN-Pad5)*%
X106770000Y-46580000D03*
%TO.P,U5,6,IO34*%
%TO.N,unconnected-(U5-IO34-Pad6)*%
X106770000Y-47850000D03*
%TO.P,U5,7,IO35*%
%TO.N,unconnected-(U5-IO35-Pad7)*%
X106770000Y-49120000D03*
%TO.P,U5,8,IO32*%
%TO.N,I2C_SCL*%
X106770000Y-50390000D03*
%TO.P,U5,9,IO33*%
%TO.N,I2C_SDA*%
X106770000Y-51660000D03*
%TO.P,U5,10,IO25*%
%TO.N,/MCU and Communications/ETH_RXD0*%
X106770000Y-52930000D03*
%TO.P,U5,11,IO26*%
%TO.N,/MCU and Communications/ETH_RXD1*%
X106770000Y-54200000D03*
%TO.P,U5,12,IO27*%
%TO.N,/MCU and Communications/ETH_CRS_DV*%
X106770000Y-55470000D03*
%TO.P,U5,13,IO14*%
%TO.N,/MCU and Communications/RS485_RX*%
X106770000Y-56740000D03*
%TO.P,U5,14,IO12*%
%TO.N,/MCU and Communications/RS485_DE*%
X106770000Y-58010000D03*
D11*
%TO.P,U5,15,GND*%
%TO.N,GND*%
X109810000Y-59260000D03*
%TO.P,U5,16,IO13*%
%TO.N,/MCU and Communications/RS485_TX*%
X111080000Y-59260000D03*
%TO.P,U5,17,SHD/SD2*%
%TO.N,unconnected-(U5-SHD{slash}SD2-Pad17)*%
X112350000Y-59260000D03*
%TO.P,U5,18,SWP/SD3*%
%TO.N,unconnected-(U5-SWP{slash}SD3-Pad18)*%
X113620000Y-59260000D03*
%TO.P,U5,19,SCS/CMD*%
%TO.N,unconnected-(U5-SCS{slash}CMD-Pad19)*%
X114890000Y-59260000D03*
%TO.P,U5,20,SCK/CLK*%
%TO.N,unconnected-(U5-SCK{slash}CLK-Pad20)*%
X116160000Y-59260000D03*
%TO.P,U5,21,SDO/SD0*%
%TO.N,unconnected-(U5-SDO{slash}SD0-Pad21)*%
X117430000Y-59260000D03*
%TO.P,U5,22,SDI/SD1*%
%TO.N,unconnected-(U5-SDI{slash}SD1-Pad22)*%
X118700000Y-59260000D03*
%TO.P,U5,23,IO15*%
%TO.N,FAN_PWM*%
X119970000Y-59260000D03*
%TO.P,U5,24,IO2*%
%TO.N,LED_CH1*%
X121240000Y-59260000D03*
D10*
%TO.P,U5,25,IO0*%
%TO.N,LED_CH4*%
X124270000Y-58010000D03*
%TO.P,U5,26,IO4*%
%TO.N,LED_CH2*%
X124270000Y-56740000D03*
%TO.P,U5,27,IO16*%
%TO.N,LED_CH3*%
X124270000Y-55470000D03*
%TO.P,U5,28,IO17*%
%TO.N,/MCU and Communications/ETH_CLK_OUT*%
X124270000Y-54200000D03*
%TO.P,U5,29,IO5*%
%TO.N,RELAY_CTRL*%
X124270000Y-52930000D03*
%TO.P,U5,30,IO18*%
%TO.N,/MCU and Communications/ETH_MDIO*%
X124270000Y-51660000D03*
%TO.P,U5,31,IO19*%
%TO.N,/MCU and Communications/ETH_TXD0*%
X124270000Y-50390000D03*
%TO.P,U5,32,NC*%
%TO.N,unconnected-(U5-NC-Pad32)*%
X124270000Y-49120000D03*
%TO.P,U5,33,IO21*%
%TO.N,/MCU and Communications/ETH_TXEN*%
X124270000Y-47850000D03*
%TO.P,U5,34,RXD0/IO3*%
%TO.N,ESP_UART_RX*%
X124270000Y-46580000D03*
%TO.P,U5,35,TXD0/IO1*%
%TO.N,ESP_UART_TX*%
X124270000Y-45310000D03*
%TO.P,U5,36,IO22*%
%TO.N,/MCU and Communications/ETH_TXD1*%
X124270000Y-44040000D03*
%TO.P,U5,37,IO23*%
%TO.N,/MCU and Communications/ETH_MDC*%
X124270000Y-42770000D03*
%TO.P,U5,38,GND*%
%TO.N,GND*%
X124270000Y-41500000D03*
D12*
%TO.P,U5,39,GND*%
X113315000Y-47315000D03*
X113315000Y-48840000D03*
X113315000Y-50365000D03*
X114840000Y-47315000D03*
X114840000Y-48840000D03*
D13*
X114840000Y-48840000D03*
D12*
X114840000Y-50365000D03*
X116365000Y-47315000D03*
X116365000Y-48840000D03*
X116365000Y-50365000D03*
%TD*%
D14*
%TO.P,C3,1*%
%TO.N,Net-(U1-BS)*%
X65800000Y-76400000D03*
%TO.P,C3,2*%
%TO.N,Net-(D2-K)*%
X64250000Y-76400000D03*
%TD*%
D15*
%TO.P,F3,1*%
%TO.N,/Signal Outputs/LED_24V_CH2*%
X190600000Y-98900000D03*
X190600000Y-96400000D03*
X187100000Y-98900000D03*
X187100000Y-96400000D03*
%TO.P,F3,2*%
%TO.N,+24V_SW*%
X181300000Y-98900000D03*
X181300000Y-96400000D03*
X177800000Y-98900000D03*
X177800000Y-96400000D03*
%TD*%
D16*
%TO.P,R8,1*%
%TO.N,/MCU and Communications/RS485_A*%
X101075000Y-81400000D03*
%TO.P,R8,2*%
%TO.N,/MCU and Communications/RS485_B*%
X99425000Y-81400000D03*
%TD*%
D17*
%TO.P,J7,1,Pin_1*%
%TO.N,/Signal Outputs/LED_24V_CH2*%
X202917500Y-101310000D03*
D18*
%TO.P,J7,2,Pin_2*%
%TO.N,/Signal Outputs/SIG_CH2*%
X202917500Y-97500000D03*
%TO.P,J7,3,Pin_3*%
%TO.N,GND*%
X202917500Y-93690000D03*
%TD*%
D15*
%TO.P,F4,1*%
%TO.N,/Signal Outputs/LED_24V_CH3*%
X190600000Y-124500000D03*
X190600000Y-122000000D03*
X187100000Y-124500000D03*
X187100000Y-122000000D03*
%TO.P,F4,2*%
%TO.N,+24V_SW*%
X181300000Y-124500000D03*
X181300000Y-122000000D03*
X177800000Y-124500000D03*
X177800000Y-122000000D03*
%TD*%
D19*
%TO.P,J16,1,Pin_1*%
%TO.N,Net-(J16-Pin_1)*%
X151620000Y-124500000D03*
D20*
%TO.P,J16,2,Pin_2*%
%TO.N,GND*%
X156700000Y-124500000D03*
%TD*%
D21*
%TO.P,C5,1*%
%TO.N,+5V*%
X100400000Y-88900000D03*
%TO.P,C5,2*%
%TO.N,GND*%
X100400000Y-87000000D03*
%TD*%
D22*
%TO.P,R15,1*%
%TO.N,Net-(U9-~{RST})*%
X157000000Y-67000000D03*
%TO.P,R15,2*%
%TO.N,+3V3*%
X157000000Y-68650000D03*
%TD*%
D23*
%TO.P,F1,1*%
%TO.N,Net-(Q1-S)*%
X56800000Y-50100000D03*
%TO.P,F1,2*%
%TO.N,+24V*%
X52525000Y-50100000D03*
%TD*%
D24*
%TO.P,DZ1,1,K*%
%TO.N,+24V*%
X68900000Y-49100000D03*
%TO.P,DZ1,2,A*%
%TO.N,Net-(DZ1-A)*%
X72200000Y-49100000D03*
%TD*%
D25*
%TO.P,R4,1*%
%TO.N,+5V*%
X64525000Y-96560000D03*
%TO.P,R4,2*%
%TO.N,Net-(D6-K)*%
X66175000Y-96560000D03*
%TD*%
D26*
%TO.P,C13,1*%
%TO.N,+3V3*%
X149000000Y-74500000D03*
%TO.P,C13,2*%
%TO.N,GND*%
X150550000Y-74500000D03*
%TD*%
D27*
%TO.P,JP2,1,A*%
%TO.N,Net-(JP2-A)*%
X133600000Y-103000000D03*
D28*
%TO.P,JP2,2,C*%
%TO.N,/Signal Outputs/SIG_CH2*%
X133600000Y-101700000D03*
D29*
%TO.P,JP2,3,B*%
%TO.N,+3V3*%
X133600000Y-100400000D03*
%TD*%
D16*
%TO.P,R23,1*%
%TO.N,Net-(JP4-A)*%
X134300000Y-96900000D03*
%TO.P,R23,2*%
%TO.N,Net-(R23-Pad2)*%
X132650000Y-96900000D03*
%TD*%
D30*
%TO.P,U8,1,RO*%
%TO.N,/MCU and Communications/RS485_RX*%
X95950000Y-73000000D03*
%TO.P,U8,2,~{RE}*%
%TO.N,/MCU and Communications/RS485_DE*%
X95950000Y-74270000D03*
%TO.P,U8,3,DE*%
X95950000Y-75540000D03*
%TO.P,U8,4,DI*%
%TO.N,/MCU and Communications/RS485_TX*%
X95950000Y-76810000D03*
%TO.P,U8,5,GND*%
%TO.N,GND*%
X100900000Y-76810000D03*
%TO.P,U8,6,A*%
%TO.N,/MCU and Communications/RS485_A*%
X100900000Y-75540000D03*
%TO.P,U8,7,B*%
%TO.N,/MCU and Communications/RS485_B*%
X100900000Y-74270000D03*
%TO.P,U8,8,VCC*%
%TO.N,+3V3*%
X100900000Y-73000000D03*
%TD*%
D16*
%TO.P,R5,1*%
%TO.N,+3V3*%
X74250000Y-96600000D03*
%TO.P,R5,2*%
%TO.N,Net-(D7-K)*%
X72600000Y-96600000D03*
%TD*%
D19*
%TO.P,J17,1,Pin_1*%
%TO.N,Net-(J17-Pin_1)*%
X163520000Y-124500000D03*
D20*
%TO.P,J17,2,Pin_2*%
%TO.N,GND*%
X168600000Y-124500000D03*
%TD*%
D15*
%TO.P,F7,1*%
%TO.N,+24V_SW*%
X169400000Y-101200000D03*
X166900000Y-101200000D03*
X169400000Y-104700000D03*
X166900000Y-104700000D03*
%TO.P,F7,2*%
%TO.N,Net-(J17-Pin_1)*%
X169400000Y-110500000D03*
X166900000Y-110500000D03*
X169400000Y-114000000D03*
X166900000Y-114000000D03*
%TD*%
D27*
%TO.P,JP1,1,A*%
%TO.N,Net-(JP1-A)*%
X128500000Y-105100000D03*
D28*
%TO.P,JP1,2,C*%
%TO.N,/Signal Outputs/SIG_CH1*%
X128500000Y-103800000D03*
D29*
%TO.P,JP1,3,B*%
%TO.N,+3V3*%
X128500000Y-102500000D03*
%TD*%
D16*
%TO.P,R24,1*%
%TO.N,FAN_PWM*%
X59500000Y-86900000D03*
%TO.P,R24,2*%
%TO.N,GND*%
X57850000Y-86900000D03*
%TD*%
D31*
%TO.P,Q5,1,G*%
%TO.N,Net-(Q2-D)*%
X58700000Y-121540000D03*
D32*
%TO.P,Q5,2,D*%
%TO.N,+24V_SW*%
X58700000Y-119000000D03*
%TO.P,Q5,3,S*%
%TO.N,+24V*%
X58700000Y-116460000D03*
%TD*%
D16*
%TO.P,R26,1*%
%TO.N,CP_RTS*%
X153400000Y-56800000D03*
%TO.P,R26,2*%
%TO.N,Net-(Q7-G)*%
X151750000Y-56800000D03*
%TD*%
%TO.P,R27,1*%
%TO.N,CP_DTR*%
X149500000Y-66900000D03*
%TO.P,R27,2*%
%TO.N,Net-(Q8-G)*%
X147850000Y-66900000D03*
%TD*%
D33*
%TO.P,J1,1,Pin_1*%
%TO.N,+24V*%
X34100000Y-118700000D03*
D20*
%TO.P,J1,2,Pin_2*%
%TO.N,GND*%
X34100000Y-123780000D03*
%TD*%
D34*
%TO.P,C9,1*%
%TO.N,Net-(J2-Pin_1)*%
X73850000Y-88800000D03*
%TO.P,C9,2*%
%TO.N,GND*%
X73850000Y-90350000D03*
%TD*%
D26*
%TO.P,C15,1*%
%TO.N,+3V3*%
X175225000Y-64000000D03*
%TO.P,C15,2*%
%TO.N,GND*%
X176775000Y-64000000D03*
%TD*%
D16*
%TO.P,R1,1*%
%TO.N,/Power System/V5V_BUCK*%
X81200000Y-68600000D03*
%TO.P,R1,2*%
%TO.N,Net-(U1-FB)*%
X79550000Y-68600000D03*
%TD*%
D34*
%TO.P,C18,1*%
%TO.N,+3V3*%
X144725000Y-76000000D03*
%TO.P,C18,2*%
%TO.N,GND*%
X144725000Y-77550000D03*
%TD*%
D35*
%TO.P,TP3,1,1*%
%TO.N,+3V3*%
X133500000Y-54500000D03*
%TD*%
D36*
%TO.P,D1,1,A1*%
%TO.N,+24V*%
X47300000Y-51800000D03*
%TO.P,D1,2,A2*%
%TO.N,GND*%
X47300000Y-47500000D03*
%TD*%
D37*
%TO.P,D7,1,K*%
%TO.N,Net-(D7-K)*%
X72562500Y-101560000D03*
%TO.P,D7,2,A*%
%TO.N,GND*%
X74137500Y-101560000D03*
%TD*%
D26*
%TO.P,C16,1*%
%TO.N,+5V*%
X120650000Y-90400000D03*
%TO.P,C16,2*%
%TO.N,GND*%
X122200000Y-90400000D03*
%TD*%
D22*
%TO.P,R12,1*%
%TO.N,+3V3*%
X140500000Y-76000000D03*
%TO.P,R12,2*%
%TO.N,I2C_SDA*%
X140500000Y-77650000D03*
%TD*%
D38*
%TO.P,Q3,1,G*%
%TO.N,FAN_PWM*%
X57925000Y-80850000D03*
%TO.P,Q3,2,S*%
%TO.N,GND*%
X57925000Y-82750000D03*
%TO.P,Q3,3,D*%
%TO.N,Net-(D10-A)*%
X59800000Y-81800000D03*
%TD*%
D39*
%TO.P,J5,1,Pin_1*%
%TO.N,GND*%
X105000000Y-103810000D03*
D40*
%TO.P,J5,2,Pin_2*%
%TO.N,+3V3*%
X105000000Y-101270000D03*
%TO.P,J5,3,Pin_3*%
%TO.N,I2C_SCL*%
X105000000Y-98730000D03*
%TO.P,J5,4,Pin_4*%
%TO.N,I2C_SDA*%
X105000000Y-96190000D03*
%TD*%
D41*
%TO.P,SW1,1,1*%
%TO.N,ESP32_EN*%
X97000000Y-49000000D03*
X89040000Y-49000000D03*
%TO.P,SW1,2,2*%
%TO.N,GND*%
X97000000Y-44500000D03*
X89040000Y-44500000D03*
%TD*%
D42*
%TO.P,U12,1,SCL*%
%TO.N,I2C_SCL*%
X139400000Y-82000000D03*
%TO.P,U12,2,GND*%
%TO.N,GND*%
X139400000Y-82950000D03*
%TO.P,U12,3,ALERT*%
%TO.N,unconnected-(U12-ALERT-Pad3)*%
X139400000Y-83900000D03*
%TO.P,U12,4,ADD0*%
%TO.N,GND*%
X141675000Y-83900000D03*
%TO.P,U12,5,V+*%
%TO.N,+3V3*%
X141675000Y-82950000D03*
%TO.P,U12,6,SDA*%
%TO.N,I2C_SDA*%
X141675000Y-82000000D03*
%TD*%
D25*
%TO.P,R17,1*%
%TO.N,RELAY_CTRL*%
X67700000Y-63150000D03*
%TO.P,R17,2*%
%TO.N,GND*%
X69350000Y-63150000D03*
%TD*%
%TO.P,R6,1*%
%TO.N,/MCU and Communications/USB_CC1*%
X184350000Y-47000000D03*
%TO.P,R6,2*%
%TO.N,GND*%
X186000000Y-47000000D03*
%TD*%
D16*
%TO.P,R22,1*%
%TO.N,Net-(JP3-A)*%
X136400000Y-92600000D03*
%TO.P,R22,2*%
%TO.N,Net-(R22-Pad2)*%
X134750000Y-92600000D03*
%TD*%
D17*
%TO.P,J8,1,Pin_1*%
%TO.N,/Signal Outputs/LED_24V_CH3*%
X203000000Y-127310000D03*
D18*
%TO.P,J8,2,Pin_2*%
%TO.N,/Signal Outputs/SIG_CH3*%
X203000000Y-123500000D03*
%TO.P,J8,3,Pin_3*%
%TO.N,GND*%
X203000000Y-119690000D03*
%TD*%
D16*
%TO.P,R20,1*%
%TO.N,Net-(JP1-A)*%
X125700000Y-100200000D03*
%TO.P,R20,2*%
%TO.N,Net-(R20-Pad2)*%
X124050000Y-100200000D03*
%TD*%
D34*
%TO.P,C10,1*%
%TO.N,+3V3*%
X101800000Y-41950000D03*
%TO.P,C10,2*%
%TO.N,GND*%
X101800000Y-43500000D03*
%TD*%
D25*
%TO.P,R14,1*%
%TO.N,GND*%
X174950000Y-69000000D03*
%TO.P,R14,2*%
%TO.N,Net-(U9-RBIAS)*%
X176600000Y-69000000D03*
%TD*%
D35*
%TO.P,TP1,1,1*%
%TO.N,+24V*%
X76500000Y-52700000D03*
%TD*%
D17*
%TO.P,J6,1,Pin_1*%
%TO.N,/Signal Outputs/LED_24V_CH1*%
X202917500Y-88310000D03*
D18*
%TO.P,J6,2,Pin_2*%
%TO.N,/Signal Outputs/SIG_CH1*%
X202917500Y-84500000D03*
%TO.P,J6,3,Pin_3*%
%TO.N,GND*%
X202917500Y-80690000D03*
%TD*%
D43*
%TO.P,D10,1,K*%
%TO.N,/Breakout and Expansion/FAN_V+*%
X53700000Y-80350000D03*
%TO.P,D10,2,A*%
%TO.N,Net-(D10-A)*%
X53700000Y-83650000D03*
%TD*%
D44*
%TO.P,U9,1,VDD2A*%
%TO.N,+3V3*%
X165800000Y-68200000D03*
%TO.P,U9,2,LED2/~{INTSEL}*%
%TO.N,unconnected-(U9-LED2{slash}~{INTSEL}-Pad2)*%
X166300000Y-68200000D03*
%TO.P,U9,3,LED1/REGOFF*%
%TO.N,unconnected-(U9-LED1{slash}REGOFF-Pad3)*%
X166800000Y-68200000D03*
%TO.P,U9,4,XTAL2*%
%TO.N,unconnected-(U9-XTAL2-Pad4)*%
X167300000Y-68200000D03*
%TO.P,U9,5,XTAL1/CLKIN*%
%TO.N,/MCU and Communications/ETH_CLK_OUT*%
X167800000Y-68200000D03*
%TO.P,U9,6,VDDCR*%
%TO.N,+3V3*%
X168300000Y-68200000D03*
D45*
%TO.P,U9,7,RXD1/MODE1*%
%TO.N,/MCU and Communications/ETH_RXD1*%
X169000000Y-67500000D03*
%TO.P,U9,8,RXD0/MODE0*%
%TO.N,/MCU and Communications/ETH_RXD0*%
X169000000Y-67000000D03*
%TO.P,U9,9,VDDIO*%
%TO.N,Net-(U9-VDDIO)*%
X169000000Y-66500000D03*
%TO.P,U9,10,RXER/PHYAD0*%
%TO.N,unconnected-(U9-RXER{slash}PHYAD0-Pad10)*%
X169000000Y-66000000D03*
%TO.P,U9,11,CRS_DV/MODE2*%
%TO.N,/MCU and Communications/ETH_CRS_DV*%
X169000000Y-65500000D03*
%TO.P,U9,12,MDIO*%
%TO.N,/MCU and Communications/ETH_MDIO*%
X169000000Y-65000000D03*
D44*
%TO.P,U9,13,MDC*%
%TO.N,/MCU and Communications/ETH_MDC*%
X168300000Y-64300000D03*
%TO.P,U9,14,~{INT}/REFCLKO*%
%TO.N,unconnected-(U9-~{INT}{slash}REFCLKO-Pad14)*%
X167800000Y-64300000D03*
%TO.P,U9,15,~{RST}*%
%TO.N,Net-(U9-~{RST})*%
X167300000Y-64300000D03*
%TO.P,U9,16,TXEN*%
%TO.N,/MCU and Communications/ETH_TXEN*%
X166800000Y-64300000D03*
%TO.P,U9,17,TXD0*%
%TO.N,/MCU and Communications/ETH_TXD0*%
X166300000Y-64300000D03*
%TO.P,U9,18,TXD1*%
%TO.N,/MCU and Communications/ETH_TXD1*%
X165800000Y-64300000D03*
D45*
%TO.P,U9,19,VDD1A*%
%TO.N,+3V3*%
X165100000Y-65000000D03*
%TO.P,U9,20,TXN*%
%TO.N,/MCU and Communications/ETH_TXN*%
X165100000Y-65500000D03*
%TO.P,U9,21,TXP*%
%TO.N,/MCU and Communications/ETH_TXP*%
X165100000Y-66000000D03*
%TO.P,U9,22,RXN*%
%TO.N,/MCU and Communications/ETH_RXN*%
X165100000Y-66500000D03*
%TO.P,U9,23,RXP*%
%TO.N,/MCU and Communications/ETH_RXP*%
X165100000Y-67000000D03*
%TO.P,U9,24,RBIAS*%
%TO.N,Net-(U9-RBIAS)*%
X165100000Y-67500000D03*
D46*
%TO.P,U9,25,VSS*%
%TO.N,GND*%
X167050000Y-66250000D03*
%TD*%
D47*
%TO.P,U7,1,~{RI}/CLK*%
%TO.N,unconnected-(U7-~{RI}{slash}CLK-Pad1)*%
X176912500Y-49100000D03*
%TO.P,U7,2,GND*%
%TO.N,GND*%
X176912500Y-49600000D03*
%TO.P,U7,3,D+*%
%TO.N,/MCU and Communications/USB_DP*%
X176912500Y-50100000D03*
%TO.P,U7,4,D-*%
%TO.N,/MCU and Communications/USB_DM*%
X176912500Y-50600000D03*
%TO.P,U7,5,VIO*%
%TO.N,+3V3*%
X176912500Y-51100000D03*
%TO.P,U7,6,VDD*%
X176912500Y-51600000D03*
D48*
%TO.P,U7,7,VREGIN*%
X177600000Y-52287500D03*
%TO.P,U7,8,VBUS*%
%TO.N,VBUS*%
X178100000Y-52287500D03*
%TO.P,U7,9,~{RST}*%
%TO.N,unconnected-(U7-~{RST}-Pad9)*%
X178600000Y-52287500D03*
%TO.P,U7,10,NC*%
%TO.N,unconnected-(U7-NC-Pad10)*%
X179100000Y-52287500D03*
%TO.P,U7,11,~{WAKEUP}/GPIO.3*%
%TO.N,unconnected-(U7-~{WAKEUP}{slash}GPIO.3-Pad11)*%
X179600000Y-52287500D03*
%TO.P,U7,12,RS485/GPIO.2*%
%TO.N,unconnected-(U7-RS485{slash}GPIO.2-Pad12)*%
X180100000Y-52287500D03*
D47*
%TO.P,U7,13,~{RXT}/GPIO.1*%
%TO.N,unconnected-(U7-~{RXT}{slash}GPIO.1-Pad13)*%
X180787500Y-51600000D03*
%TO.P,U7,14,~{TXT}/GPIO.0*%
%TO.N,unconnected-(U7-~{TXT}{slash}GPIO.0-Pad14)*%
X180787500Y-51100000D03*
%TO.P,U7,15,~{SUSPEND}*%
%TO.N,unconnected-(U7-~{SUSPEND}-Pad15)*%
X180787500Y-50600000D03*
%TO.P,U7,16,NC*%
%TO.N,unconnected-(U7-NC-Pad16)*%
X180787500Y-50100000D03*
%TO.P,U7,17,SUSPEND*%
%TO.N,unconnected-(U7-SUSPEND-Pad17)*%
X180787500Y-49600000D03*
%TO.P,U7,18,~{CTS}*%
%TO.N,unconnected-(U7-~{CTS}-Pad18)*%
X180787500Y-49100000D03*
D48*
%TO.P,U7,19,~{RTS}*%
%TO.N,CP_RTS*%
X180100000Y-48412500D03*
%TO.P,U7,20,RXD*%
%TO.N,ESP_UART_TX*%
X179600000Y-48412500D03*
%TO.P,U7,21,TXD*%
%TO.N,ESP_UART_RX*%
X179100000Y-48412500D03*
%TO.P,U7,22,~{DSR}*%
%TO.N,unconnected-(U7-~{DSR}-Pad22)*%
X178600000Y-48412500D03*
%TO.P,U7,23,~{DTR}*%
%TO.N,CP_DTR*%
X178100000Y-48412500D03*
%TO.P,U7,24,~{DCD}*%
%TO.N,unconnected-(U7-~{DCD}-Pad24)*%
X177600000Y-48412500D03*
D49*
%TO.P,U7,25,GND*%
%TO.N,GND*%
X178850000Y-50350000D03*
%TD*%
D16*
%TO.P,R28,1*%
%TO.N,+3V3*%
X133050000Y-62000000D03*
%TO.P,R28,2*%
%TO.N,LED_CH4*%
X131400000Y-62000000D03*
%TD*%
D50*
%TO.P,D4,1,K*%
%TO.N,+5V*%
X150000000Y-84600000D03*
%TO.P,D4,2,A*%
%TO.N,VBUS*%
X150000000Y-80600000D03*
%TD*%
D51*
%TO.P,J15,1,TD+*%
%TO.N,/MCU and Communications/ETH_TXP*%
X189240000Y-69690000D03*
D52*
%TO.P,J15,2,TD-*%
%TO.N,/MCU and Communications/ETH_TXN*%
X186700000Y-68430000D03*
%TO.P,J15,3,RD+*%
%TO.N,/MCU and Communications/ETH_RXP*%
X189240000Y-67150000D03*
%TO.P,J15,4,TCT*%
%TO.N,+3V3*%
X186700000Y-65890000D03*
%TO.P,J15,5,RCT*%
X189240000Y-64610000D03*
%TO.P,J15,6,RD-*%
%TO.N,/MCU and Communications/ETH_RXN*%
X186700000Y-63350000D03*
%TO.P,J15,7,NC*%
%TO.N,unconnected-(J15-NC-Pad7)*%
X189240000Y-62070000D03*
%TO.P,J15,8*%
%TO.N,GND*%
X186700000Y-60810000D03*
%TO.P,J15,9*%
%TO.N,unconnected-(J15-Pad9)*%
X200500000Y-71875000D03*
%TO.P,J15,10*%
%TO.N,unconnected-(J15-Pad10)*%
X200500000Y-69335000D03*
%TO.P,J15,11*%
%TO.N,unconnected-(J15-Pad11)*%
X200500000Y-61165000D03*
%TO.P,J15,12*%
%TO.N,unconnected-(J15-Pad12)*%
X200500000Y-58625000D03*
D53*
%TO.P,J15,SH*%
%TO.N,GND*%
X192550000Y-72995000D03*
X192550000Y-57505000D03*
%TD*%
D15*
%TO.P,F6,1*%
%TO.N,+24V_SW*%
X161000000Y-101200000D03*
X158500000Y-101200000D03*
X161000000Y-104700000D03*
X158500000Y-104700000D03*
%TO.P,F6,2*%
%TO.N,Net-(J16-Pin_1)*%
X161000000Y-110500000D03*
X158500000Y-110500000D03*
X161000000Y-114000000D03*
X158500000Y-114000000D03*
%TD*%
D54*
%TO.P,J13,1,Pin_1*%
%TO.N,/Breakout and Expansion/FAN_V+*%
X32565000Y-80790000D03*
D18*
%TO.P,J13,2,Pin_2*%
%TO.N,Net-(D10-A)*%
X32565000Y-84600000D03*
%TD*%
D55*
%TO.P,D2,1,K*%
%TO.N,Net-(D2-K)*%
X75800000Y-60800000D03*
%TO.P,D2,2,A*%
%TO.N,GND*%
X75800000Y-64800000D03*
%TD*%
D39*
%TO.P,J3,1,Pin_1*%
%TO.N,+24V*%
X31900000Y-89560000D03*
D40*
%TO.P,J3,2,Pin_2*%
%TO.N,+5V*%
X31900000Y-92100000D03*
%TO.P,J3,3,Pin_3*%
%TO.N,+3V3*%
X31900000Y-94640000D03*
%TO.P,J3,4,Pin_4*%
%TO.N,GND*%
X31900000Y-97180000D03*
%TD*%
D27*
%TO.P,JP4,1,A*%
%TO.N,Net-(JP4-A)*%
X138200000Y-99700000D03*
D28*
%TO.P,JP4,2,C*%
%TO.N,/Signal Outputs/SIG_CH4*%
X138200000Y-98400000D03*
D29*
%TO.P,JP4,3,B*%
%TO.N,+3V3*%
X138200000Y-97100000D03*
%TD*%
D37*
%TO.P,D6,1,K*%
%TO.N,Net-(D6-K)*%
X64562500Y-101560000D03*
%TO.P,D6,2,A*%
%TO.N,GND*%
X66137500Y-101560000D03*
%TD*%
D30*
%TO.P,U1,1,BS*%
%TO.N,Net-(U1-BS)*%
X62350000Y-68300000D03*
%TO.P,U1,2,IN*%
%TO.N,/Power System/+24V_CTRL*%
X62350000Y-69570000D03*
%TO.P,U1,3,SW*%
%TO.N,Net-(D2-K)*%
X62350000Y-70840000D03*
%TO.P,U1,4,GND*%
%TO.N,GND*%
X62350000Y-72110000D03*
%TO.P,U1,5,FB*%
%TO.N,Net-(U1-FB)*%
X67300000Y-72110000D03*
%TO.P,U1,6,COMP*%
%TO.N,unconnected-(U1-COMP-Pad6)*%
X67300000Y-70840000D03*
%TO.P,U1,7,EN*%
%TO.N,unconnected-(U1-EN-Pad7)*%
X67300000Y-69570000D03*
%TO.P,U1,8,SS*%
%TO.N,unconnected-(U1-SS-Pad8)*%
X67300000Y-68300000D03*
%TD*%
D26*
%TO.P,C4,1*%
%TO.N,/Power System/+24V_CTRL*%
X64350000Y-46800000D03*
%TO.P,C4,2*%
%TO.N,GND*%
X65900000Y-46800000D03*
%TD*%
D25*
%TO.P,R19,1*%
%TO.N,+3V3*%
X99550000Y-47100000D03*
%TO.P,R19,2*%
%TO.N,ESP32_EN*%
X101200000Y-47100000D03*
%TD*%
D16*
%TO.P,R10,1*%
%TO.N,/MCU and Communications/RS485_B*%
X97075000Y-81400000D03*
%TO.P,R10,2*%
%TO.N,GND*%
X95425000Y-81400000D03*
%TD*%
D56*
%TO.P,U2,1,GND*%
%TO.N,GND*%
X105500000Y-81500000D03*
%TO.P,U2,2,VO*%
%TO.N,+3V3*%
X105500000Y-83800000D03*
D57*
X111800000Y-83800000D03*
D56*
%TO.P,U2,3,VI*%
%TO.N,+5V*%
X105500000Y-86100000D03*
%TD*%
D58*
%TO.P,Q6,1,G*%
%TO.N,RELAY_CTRL*%
X45300000Y-83000000D03*
%TO.P,Q6,2,S*%
%TO.N,GND*%
X45300000Y-81100000D03*
%TO.P,Q6,3,D*%
%TO.N,Net-(J2-Pin_2)*%
X43425000Y-82050000D03*
%TD*%
D16*
%TO.P,R25,1*%
%TO.N,+24V*%
X72000000Y-56900000D03*
%TO.P,R25,2*%
%TO.N,Net-(Q2-D)*%
X70350000Y-56900000D03*
%TD*%
D38*
%TO.P,Q1,1,G*%
%TO.N,Net-(DZ1-A)*%
X59625000Y-48950000D03*
%TO.P,Q1,2,S*%
%TO.N,Net-(Q1-S)*%
X59625000Y-50850000D03*
%TO.P,Q1,3,D*%
%TO.N,/Power System/+24V_CTRL*%
X61500000Y-49900000D03*
%TD*%
D22*
%TO.P,R11,1*%
%TO.N,+3V3*%
X136000000Y-76000000D03*
%TO.P,R11,2*%
%TO.N,I2C_SCL*%
X136000000Y-77650000D03*
%TD*%
D15*
%TO.P,F5,1*%
%TO.N,/Signal Outputs/LED_24V_CH4*%
X190600000Y-111500000D03*
X190600000Y-109000000D03*
X187100000Y-111500000D03*
X187100000Y-109000000D03*
%TO.P,F5,2*%
%TO.N,+24V_SW*%
X181300000Y-111500000D03*
X181300000Y-109000000D03*
X177800000Y-111500000D03*
X177800000Y-109000000D03*
%TD*%
D59*
%TO.P,C12,1*%
%TO.N,+3V3*%
X101050000Y-70150000D03*
%TO.P,C12,2*%
%TO.N,GND*%
X101050000Y-68600000D03*
%TD*%
D14*
%TO.P,C17,1*%
%TO.N,ESP32_EN*%
X143900000Y-56500000D03*
%TO.P,C17,2*%
%TO.N,GND*%
X142350000Y-56500000D03*
%TD*%
D16*
%TO.P,R21,1*%
%TO.N,Net-(JP2-A)*%
X129900000Y-98300000D03*
%TO.P,R21,2*%
%TO.N,Net-(R21-Pad2)*%
X128250000Y-98300000D03*
%TD*%
D25*
%TO.P,R7,1*%
%TO.N,/MCU and Communications/USB_CC2*%
X190175000Y-50000000D03*
%TO.P,R7,2*%
%TO.N,GND*%
X191825000Y-50000000D03*
%TD*%
D60*
%TO.P,FB2,1*%
%TO.N,Net-(J2-Pin_1)*%
X69450000Y-88300000D03*
%TO.P,FB2,2*%
%TO.N,+5V*%
X69450000Y-90425000D03*
%TD*%
D61*
%TO.P,D3,1,K*%
%TO.N,+5V*%
X89500000Y-89900000D03*
%TO.P,D3,2,A*%
%TO.N,/Power System/V5V_BUCK*%
X85500000Y-89900000D03*
%TD*%
D30*
%TO.P,U11,1*%
%TO.N,GND*%
X127259999Y-79765000D03*
%TO.P,U11,2*%
%TO.N,LED_CH1*%
X127259999Y-81035000D03*
%TO.P,U11,3*%
%TO.N,Net-(R20-Pad2)*%
X127259999Y-82305000D03*
%TO.P,U11,4*%
%TO.N,GND*%
X127259999Y-83575000D03*
%TO.P,U11,5*%
%TO.N,LED_CH2*%
X127259999Y-84845000D03*
%TO.P,U11,6*%
%TO.N,Net-(R21-Pad2)*%
X127259999Y-86115000D03*
%TO.P,U11,7,GND*%
%TO.N,GND*%
X127259999Y-87385000D03*
%TO.P,U11,8*%
%TO.N,Net-(R22-Pad2)*%
X132209999Y-87385000D03*
%TO.P,U11,9*%
%TO.N,LED_CH3*%
X132209999Y-86115000D03*
%TO.P,U11,10*%
%TO.N,GND*%
X132209999Y-84845000D03*
%TO.P,U11,11*%
%TO.N,Net-(R23-Pad2)*%
X132209999Y-83575000D03*
%TO.P,U11,12*%
%TO.N,LED_CH4*%
X132209999Y-82305000D03*
%TO.P,U11,13*%
%TO.N,GND*%
X132209999Y-81035000D03*
%TO.P,U11,14,VCC*%
%TO.N,+5V*%
X132209999Y-79765000D03*
%TD*%
D39*
%TO.P,J14,1,Pin_1*%
%TO.N,+3V3*%
X138230000Y-43000000D03*
D40*
%TO.P,J14,2,Pin_2*%
%TO.N,JTAG_TMS*%
X140770000Y-43000000D03*
%TO.P,J14,3,Pin_3*%
%TO.N,GND*%
X143310000Y-43000000D03*
%TO.P,J14,4,Pin_4*%
%TO.N,JTAG_TCK*%
X145850000Y-43000000D03*
%TO.P,J14,5,Pin_5*%
%TO.N,GND*%
X148390000Y-43000000D03*
%TO.P,J14,6,Pin_6*%
%TO.N,JTAG_TDO*%
X150930000Y-43000000D03*
%TO.P,J14,7,Pin_7*%
%TO.N,unconnected-(J14-Pin_7-Pad7)*%
X153470000Y-43000000D03*
%TO.P,J14,8,Pin_8*%
%TO.N,JTAG_TDI*%
X156010000Y-43000000D03*
%TO.P,J14,9,Pin_9*%
%TO.N,GND*%
X158550000Y-43000000D03*
%TO.P,J14,10,Pin_10*%
%TO.N,ESP32_EN*%
X161090000Y-43000000D03*
%TD*%
D39*
%TO.P,J11,1,Pin_1*%
%TO.N,+3V3*%
X92900000Y-95900000D03*
D40*
%TO.P,J11,2,Pin_2*%
%TO.N,GND*%
X95440000Y-95900000D03*
%TO.P,J11,3,Pin_3*%
%TO.N,I2C_SCL*%
X97980000Y-95900000D03*
%TO.P,J11,4,Pin_4*%
%TO.N,I2C_SDA*%
X100520000Y-95900000D03*
%TD*%
D26*
%TO.P,C11,1*%
%TO.N,+3V3*%
X175225000Y-58000000D03*
%TO.P,C11,2*%
%TO.N,GND*%
X176775000Y-58000000D03*
%TD*%
D17*
%TO.P,C1,1*%
%TO.N,+24V*%
X35300000Y-110500000D03*
D18*
%TO.P,C1,2*%
%TO.N,GND*%
X35300000Y-105500000D03*
%TD*%
D62*
%TO.P,J4,A1,GND*%
%TO.N,GND*%
X198955000Y-49640000D03*
%TO.P,J4,A4,VBUS*%
%TO.N,VBUS*%
X198955000Y-48840000D03*
D63*
%TO.P,J4,A5,CC1*%
%TO.N,/MCU and Communications/USB_CC1*%
X198955000Y-47640000D03*
%TO.P,J4,A6,D+*%
%TO.N,/MCU and Communications/USB_DP*%
X198955000Y-46640000D03*
%TO.P,J4,A7,D-*%
%TO.N,/MCU and Communications/USB_DM*%
X198955000Y-46140000D03*
%TO.P,J4,A8,SBU1*%
%TO.N,unconnected-(J4-SBU1-PadA8)*%
X198955000Y-45140000D03*
D62*
%TO.P,J4,A9,VBUS*%
%TO.N,VBUS*%
X198955000Y-43940000D03*
%TO.P,J4,A12,GND*%
%TO.N,GND*%
X198955000Y-43140000D03*
%TO.P,J4,B1,GND*%
X198955000Y-43140000D03*
%TO.P,J4,B4,VBUS*%
%TO.N,VBUS*%
X198955000Y-43940000D03*
D63*
%TO.P,J4,B5,CC2*%
%TO.N,/MCU and Communications/USB_CC2*%
X198955000Y-44640000D03*
%TO.P,J4,B6,D+*%
%TO.N,/MCU and Communications/USB_DP*%
X198955000Y-45640000D03*
%TO.P,J4,B7,D-*%
%TO.N,/MCU and Communications/USB_DM*%
X198955000Y-47140000D03*
%TO.P,J4,B8,SBU2*%
%TO.N,unconnected-(J4-SBU2-PadB8)*%
X198955000Y-48140000D03*
D62*
%TO.P,J4,B9,VBUS*%
%TO.N,VBUS*%
X198955000Y-48840000D03*
%TO.P,J4,B12,GND*%
%TO.N,GND*%
X198955000Y-49640000D03*
D64*
%TO.P,J4,S1,SHIELD*%
X199870000Y-50710000D03*
D65*
X204050000Y-50710000D03*
D64*
X199870000Y-42070000D03*
D65*
X204050000Y-42070000D03*
%TD*%
D66*
%TO.P,FB1,1*%
%TO.N,Net-(U9-VDDIO)*%
X157075000Y-73300000D03*
%TO.P,FB1,2*%
%TO.N,+3V3*%
X159200000Y-73300000D03*
%TD*%
D15*
%TO.P,F2,1*%
%TO.N,/Signal Outputs/LED_24V_CH1*%
X190600000Y-86500000D03*
X190600000Y-84000000D03*
X187100000Y-86500000D03*
X187100000Y-84000000D03*
%TO.P,F2,2*%
%TO.N,+24V_SW*%
X181300000Y-86500000D03*
X181300000Y-84000000D03*
X177800000Y-86500000D03*
X177800000Y-84000000D03*
%TD*%
D67*
%TO.P,L1,1,1*%
%TO.N,/Power System/V5V_BUCK*%
X75300000Y-70900000D03*
%TO.P,L1,2,2*%
%TO.N,Net-(D2-K)*%
X75300000Y-73700000D03*
%TD*%
D54*
%TO.P,J2,1,Pin_1*%
%TO.N,Net-(J2-Pin_1)*%
X32482500Y-69195000D03*
D18*
%TO.P,J2,2,Pin_2*%
%TO.N,Net-(J2-Pin_2)*%
X32482500Y-73005000D03*
%TD*%
D25*
%TO.P,R29,1*%
%TO.N,GND*%
X55500000Y-44600000D03*
%TO.P,R29,2*%
%TO.N,Net-(DZ1-A)*%
X57150000Y-44600000D03*
%TD*%
D58*
%TO.P,Q8,1,G*%
%TO.N,Net-(Q8-G)*%
X141700000Y-68400000D03*
%TO.P,Q8,2,S*%
%TO.N,GND*%
X141700000Y-66500000D03*
%TO.P,Q8,3,D*%
%TO.N,LED_CH4*%
X139825000Y-67450000D03*
%TD*%
D31*
%TO.P,Q4,1,G*%
%TO.N,Net-(Q2-D)*%
X49200000Y-121540000D03*
D32*
%TO.P,Q4,2,D*%
%TO.N,+24V_SW*%
X49200000Y-119000000D03*
%TO.P,Q4,3,S*%
%TO.N,+24V*%
X49200000Y-116460000D03*
%TD*%
D27*
%TO.P,JP3,1,A*%
%TO.N,Net-(JP3-A)*%
X141400000Y-94400000D03*
D28*
%TO.P,JP3,2,C*%
%TO.N,/Signal Outputs/SIG_CH3*%
X141400000Y-93100000D03*
D29*
%TO.P,JP3,3,B*%
%TO.N,+3V3*%
X141400000Y-91800000D03*
%TD*%
D68*
%TO.P,C14,1*%
%TO.N,+3V3*%
X153162500Y-63500000D03*
%TO.P,C14,2*%
%TO.N,GND*%
X155062500Y-63500000D03*
%TD*%
D58*
%TO.P,Q2,1,G*%
%TO.N,RELAY_CTRL*%
X65850000Y-59900000D03*
%TO.P,Q2,2,S*%
%TO.N,GND*%
X65850000Y-58000000D03*
%TO.P,Q2,3,D*%
%TO.N,Net-(Q2-D)*%
X63975000Y-58950000D03*
%TD*%
D69*
%TO.P,C6,1*%
%TO.N,+3V3*%
X120050000Y-85200000D03*
%TO.P,C6,2*%
%TO.N,GND*%
X123000000Y-85200000D03*
%TD*%
D58*
%TO.P,Q7,1,G*%
%TO.N,Net-(Q7-G)*%
X148537500Y-56850000D03*
%TO.P,Q7,2,S*%
%TO.N,GND*%
X148537500Y-54950000D03*
%TO.P,Q7,3,D*%
%TO.N,ESP32_EN*%
X146662500Y-55900000D03*
%TD*%
D37*
%TO.P,D5,1,K*%
%TO.N,Net-(D5-K)*%
X56562500Y-101560000D03*
%TO.P,D5,2,A*%
%TO.N,GND*%
X58137500Y-101560000D03*
%TD*%
D22*
%TO.P,R9,1*%
%TO.N,+3V3*%
X104850000Y-73200000D03*
%TO.P,R9,2*%
%TO.N,/MCU and Communications/RS485_A*%
X104850000Y-74850000D03*
%TD*%
D25*
%TO.P,R2,1*%
%TO.N,Net-(U1-FB)*%
X88000000Y-67100000D03*
%TO.P,R2,2*%
%TO.N,GND*%
X89650000Y-67100000D03*
%TD*%
D35*
%TO.P,TP2,1,1*%
%TO.N,+5V*%
X88100000Y-96300000D03*
%TD*%
D70*
%TO.P,C7,1*%
%TO.N,Net-(J2-Pin_1)*%
X78650000Y-91500000D03*
D71*
%TO.P,C7,2*%
%TO.N,GND*%
X81150000Y-91500000D03*
%TD*%
D39*
%TO.P,J12,1,Pin_1*%
%TO.N,+3V3*%
X175810000Y-43000000D03*
D40*
%TO.P,J12,2,Pin_2*%
%TO.N,ESP_UART_TX*%
X173270000Y-43000000D03*
%TO.P,J12,3,Pin_3*%
%TO.N,ESP_UART_RX*%
X170730000Y-43000000D03*
%TO.P,J12,4,Pin_4*%
%TO.N,GND*%
X168190000Y-43000000D03*
%TD*%
D39*
%TO.P,JP5,1,Pin_1*%
%TO.N,+5V*%
X40000000Y-90920000D03*
D40*
%TO.P,JP5,2,Pin_2*%
%TO.N,/Breakout and Expansion/FAN_V+*%
X40000000Y-93460000D03*
%TO.P,JP5,3,Pin_3*%
%TO.N,+24V*%
X40000000Y-96000000D03*
%TD*%
D26*
%TO.P,C19,1*%
%TO.N,+3V3*%
X175000000Y-75000000D03*
%TO.P,C19,2*%
%TO.N,GND*%
X176550000Y-75000000D03*
%TD*%
D25*
%TO.P,R3,1*%
%TO.N,+24V*%
X56525000Y-96560000D03*
%TO.P,R3,2*%
%TO.N,Net-(D5-K)*%
X58175000Y-96560000D03*
%TD*%
%TO.P,R16,1*%
%TO.N,RELAY_CTRL*%
X46650000Y-86200000D03*
%TO.P,R16,2*%
%TO.N,GND*%
X48300000Y-86200000D03*
%TD*%
D69*
%TO.P,C2,1*%
%TO.N,/Power System/V5V_BUCK*%
X85825000Y-72300000D03*
%TO.P,C2,2*%
%TO.N,GND*%
X88775000Y-72300000D03*
%TD*%
D17*
%TO.P,J9,1,Pin_1*%
%TO.N,/Signal Outputs/LED_24V_CH4*%
X202917500Y-114310000D03*
D18*
%TO.P,J9,2,Pin_2*%
%TO.N,/Signal Outputs/SIG_CH4*%
X202917500Y-110500000D03*
%TO.P,J9,3,Pin_3*%
%TO.N,GND*%
X202917500Y-106690000D03*
%TD*%
D72*
%TO.N,+24V*%
X59300000Y-53600000D03*
X55050000Y-96600000D03*
X61500000Y-54100000D03*
%TO.N,GND*%
X141000000Y-57600000D03*
X184900000Y-41800000D03*
X104800000Y-80800000D03*
X55800000Y-82900000D03*
X70700000Y-63300000D03*
X105000000Y-41200000D03*
X104800000Y-106590000D03*
X150000000Y-54600000D03*
X47700000Y-87500000D03*
X56200000Y-87200000D03*
X103000000Y-77500000D03*
X175000000Y-49000000D03*
X100000000Y-85500000D03*
X102400000Y-68400000D03*
X129709999Y-81765000D03*
X143900000Y-65900000D03*
X74450000Y-91700000D03*
X94250000Y-81400000D03*
X98200000Y-43200000D03*
X177500000Y-67500000D03*
X123000000Y-90400000D03*
X53800000Y-45300000D03*
X59250000Y-101900000D03*
X67650000Y-58850000D03*
X110150002Y-60649997D03*
X168000000Y-73000000D03*
X66900000Y-46100000D03*
X83550000Y-92600000D03*
X67250000Y-102100000D03*
X89500000Y-72300000D03*
X167000000Y-65500000D03*
X44800000Y-44700000D03*
X182500000Y-43000000D03*
X62100000Y-73400000D03*
X96600000Y-94500000D03*
X156500000Y-62000000D03*
X46500000Y-79500000D03*
X140600000Y-85200000D03*
X29700000Y-98800000D03*
X90600000Y-67700000D03*
X170500000Y-74500000D03*
X123800000Y-85200000D03*
X176500000Y-72500000D03*
X75250000Y-101500000D03*
X75900000Y-67000000D03*
X131000000Y-85000000D03*
%TO.N,+5V*%
X127300000Y-78100000D03*
X131600000Y-78600000D03*
X93000000Y-90400000D03*
X124800000Y-89100000D03*
X98400000Y-90400000D03*
X148200000Y-84200000D03*
X62750000Y-97000000D03*
%TO.N,+3V3*%
X131600000Y-99400000D03*
X175000000Y-52000000D03*
X127600000Y-101000000D03*
X171500000Y-68500000D03*
X135100000Y-57700000D03*
X164600000Y-63600000D03*
X173300000Y-68500000D03*
X137800000Y-95400000D03*
X173000000Y-64700000D03*
X135900000Y-64600000D03*
X138700000Y-91100000D03*
X127200000Y-74100000D03*
%TO.N,Net-(J2-Pin_1)*%
X69900000Y-86800000D03*
%TO.N,ESP32_EN*%
X90200000Y-51700000D03*
X96500000Y-51800000D03*
X111500000Y-42100000D03*
X146100000Y-54800000D03*
%TO.N,VBUS*%
X177500000Y-54000000D03*
X153400000Y-80800000D03*
%TO.N,Net-(D10-A)*%
X60237500Y-83100000D03*
X38200000Y-85300000D03*
%TO.N,Net-(J2-Pin_2)*%
X40300000Y-80800000D03*
X37900000Y-78600000D03*
%TO.N,/MCU and Communications/USB_DP*%
X175000000Y-50000000D03*
X192500000Y-45000000D03*
%TO.N,/MCU and Communications/USB_DM*%
X192000000Y-47500000D03*
X174100000Y-50600000D03*
%TO.N,I2C_SDA*%
X128800000Y-93000000D03*
X108500000Y-51600000D03*
X108400000Y-91900000D03*
X138000000Y-79600000D03*
%TO.N,I2C_SCL*%
X136000000Y-90400000D03*
X129600000Y-94300000D03*
X109500000Y-51500000D03*
X109500000Y-96300000D03*
%TO.N,/Signal Outputs/SIG_CH1*%
X189800000Y-78500000D03*
%TO.N,/Signal Outputs/SIG_CH2*%
X189800000Y-77699997D03*
%TO.N,/Signal Outputs/SIG_CH3*%
X189900000Y-75800000D03*
%TO.N,/Signal Outputs/SIG_CH4*%
X189900000Y-76800000D03*
%TO.N,ESP_UART_TX*%
X134200000Y-45500000D03*
X130300000Y-45400000D03*
%TO.N,ESP_UART_RX*%
X130400000Y-46700000D03*
X134600000Y-46600000D03*
%TO.N,/MCU and Communications/ETH_RXN*%
X163500000Y-67000000D03*
X178500000Y-62500000D03*
%TO.N,/MCU and Communications/ETH_TXP*%
X160900000Y-67500000D03*
X162500000Y-67000000D03*
%TO.N,Net-(U1-FB)*%
X74600000Y-69000000D03*
X72100000Y-69000000D03*
%TO.N,Net-(U9-~{RST})*%
X158000000Y-61500000D03*
X164000000Y-61500000D03*
%TO.N,RELAY_CTRL*%
X57900000Y-68400000D03*
X61600000Y-65900000D03*
X103900000Y-51200000D03*
X94100000Y-53600000D03*
X91200000Y-53600000D03*
X109700000Y-48200000D03*
%TO.N,Net-(R20-Pad2)*%
X128600000Y-89400000D03*
X128600000Y-82600000D03*
%TO.N,FAN_PWM*%
X106100000Y-67300000D03*
X84300000Y-76300000D03*
%TO.N,Net-(Q2-D)*%
X60800000Y-58900000D03*
X56000000Y-117700000D03*
X62000000Y-101000000D03*
%TO.N,LED_CH4*%
X136800000Y-69700000D03*
X131500000Y-76700000D03*
X127800000Y-58200000D03*
X127800000Y-61600000D03*
%TO.N,/MCU and Communications/ETH_CRS_DV*%
X157000000Y-60200000D03*
X164487851Y-60214579D03*
%TO.N,/MCU and Communications/ETH_MDC*%
X138000000Y-47770000D03*
X138000000Y-53100000D03*
%TO.N,/MCU and Communications/ETH_TXEN*%
X162000000Y-54000000D03*
X162000000Y-50900000D03*
%TO.N,/MCU and Communications/ETH_MDIO*%
X169500000Y-55000000D03*
X169400000Y-60000000D03*
%TO.N,/MCU and Communications/ETH_RXD1*%
X157529149Y-59600000D03*
X165000000Y-59600000D03*
X163870849Y-59600000D03*
X165000000Y-58400000D03*
%TO.N,LED_CH2*%
X128117670Y-63588349D03*
X127600000Y-56600000D03*
%TO.N,/MCU and Communications/ETH_TXD1*%
X159500000Y-49500000D03*
X126000000Y-49000000D03*
X160399994Y-54000000D03*
X126500000Y-44000000D03*
%TO.N,LED_CH3*%
X129800003Y-63600000D03*
X129800000Y-57600000D03*
%TO.N,/MCU and Communications/ETH_TXD0*%
X161199997Y-54000000D03*
X161000000Y-50900000D03*
%TO.N,/MCU and Communications/ETH_RXD0*%
X157000000Y-59000000D03*
X164400000Y-59000000D03*
%TO.N,CP_DTR*%
X153400000Y-47770000D03*
X151100000Y-67000000D03*
%TO.N,CP_RTS*%
X166500000Y-50400000D03*
X163300000Y-49500000D03*
X180200000Y-46800000D03*
X154700000Y-56900000D03*
%TO.N,Net-(U9-VDDIO)*%
X160000000Y-70300000D03*
X170300000Y-66400000D03*
%TD*%
D73*
%TO.N,GND*%
X114840000Y-48840000D02*
X122180000Y-41500000D01*
X122180000Y-41500000D02*
X124270000Y-41500000D01*
X124270000Y-41500000D02*
X106770000Y-41500000D01*
%TO.N,+24V*%
X72000000Y-56900000D02*
X72300000Y-56900000D01*
X72300000Y-56900000D02*
X76500000Y-52700000D01*
X70300000Y-52700000D02*
X76500000Y-52700000D01*
X47300000Y-51800000D02*
X50825000Y-51800000D01*
X56025000Y-53600000D02*
X59300000Y-53600000D01*
X52525000Y-50100000D02*
X56025000Y-53600000D01*
X35800000Y-89500000D02*
X35740000Y-89560000D01*
X56485000Y-96600000D02*
X56525000Y-96560000D01*
X35800000Y-89500000D02*
X35800000Y-91800000D01*
X47300000Y-51800000D02*
X29100000Y-70000000D01*
X50825000Y-51800000D02*
X52525000Y-50100000D01*
X29100000Y-70000000D02*
X29100000Y-113700000D01*
X29100000Y-113700000D02*
X34100000Y-118700000D01*
X39100000Y-77700000D02*
X39100000Y-86200000D01*
X68900000Y-49100000D02*
X68900000Y-51300000D01*
X68800000Y-54100000D02*
X70200000Y-52700000D01*
X59300000Y-53600000D02*
X59300000Y-57500000D01*
X70200000Y-52700000D02*
X70300000Y-52700000D01*
X61500000Y-54100000D02*
X68800000Y-54100000D01*
X68900000Y-51300000D02*
X70300000Y-52700000D01*
X35740000Y-89560000D02*
X31900000Y-89560000D01*
X35800000Y-91800000D02*
X40000000Y-96000000D01*
X55050000Y-96600000D02*
X56485000Y-96600000D01*
X59300000Y-57500000D02*
X39100000Y-77700000D01*
X39100000Y-86200000D02*
X35800000Y-89500000D01*
%TO.N,GND*%
X129965000Y-79765000D02*
X127259999Y-79765000D01*
X110150002Y-60649997D02*
X109810000Y-60309995D01*
X131864447Y-81035000D02*
X132209999Y-81035000D01*
X66800000Y-58000000D02*
X65850000Y-58000000D01*
X155062500Y-69987500D02*
X150550000Y-74500000D01*
X55500000Y-44600000D02*
X54500000Y-44600000D01*
X148200000Y-40900000D02*
X148100000Y-41000000D01*
X95425000Y-81400000D02*
X94250000Y-81400000D01*
X95440000Y-95660000D02*
X96600000Y-94500000D01*
X174950000Y-69000000D02*
X175725000Y-68225000D01*
X199870000Y-42225000D02*
X198955000Y-43140000D01*
X141700000Y-66500000D02*
X143300000Y-66500000D01*
X141675000Y-84125000D02*
X140600000Y-85200000D01*
X168000000Y-41000000D02*
X167500000Y-41000000D01*
X186000000Y-47000000D02*
X186000000Y-41000000D01*
X54500000Y-44600000D02*
X53800000Y-45300000D01*
X129324447Y-84875553D02*
X129324447Y-87385000D01*
X105000000Y-106390000D02*
X104800000Y-106590000D01*
X90000000Y-67100000D02*
X90600000Y-67700000D01*
X197255000Y-57505000D02*
X204050000Y-50710000D01*
X175725000Y-68225000D02*
X176775000Y-68225000D01*
X122200000Y-90400000D02*
X123000000Y-90400000D01*
X97000000Y-44400000D02*
X98200000Y-43200000D01*
X142350000Y-56500000D02*
X142100000Y-56500000D01*
X132209999Y-84845000D02*
X131155000Y-84845000D01*
X66710000Y-101560000D02*
X67250000Y-102100000D01*
X69350000Y-63150000D02*
X70550000Y-63150000D01*
X192550000Y-57505000D02*
X197255000Y-57505000D01*
X66137500Y-101560000D02*
X66710000Y-101560000D01*
X139753052Y-82950000D02*
X140703052Y-83900000D01*
X175600000Y-49600000D02*
X175000000Y-49000000D01*
X62350000Y-72110000D02*
X62350000Y-73150000D01*
X185200000Y-41800000D02*
X184900000Y-41800000D01*
X188825000Y-47000000D02*
X186000000Y-47000000D01*
X97000000Y-44500000D02*
X97000000Y-44400000D01*
X188825000Y-46175000D02*
X191860000Y-43140000D01*
X127259999Y-87385000D02*
X129324447Y-87385000D01*
X198955000Y-49640000D02*
X198955000Y-49795000D01*
X204050000Y-42070000D02*
X199870000Y-42070000D01*
X82450000Y-91500000D02*
X83550000Y-92600000D01*
X143950000Y-75551304D02*
X146526304Y-72975000D01*
X129324447Y-83575000D02*
X129324447Y-82150552D01*
X148100000Y-41000000D02*
X143500000Y-41000000D01*
X74137500Y-101560000D02*
X75190000Y-101560000D01*
X58137500Y-101560000D02*
X58910000Y-101560000D01*
X44800000Y-45000000D02*
X44800000Y-44700000D01*
X169000000Y-73000000D02*
X170500000Y-74500000D01*
X55950000Y-82750000D02*
X55800000Y-82900000D01*
X148390000Y-41110000D02*
X148500000Y-41000000D01*
X75190000Y-101560000D02*
X75250000Y-101500000D01*
X168000000Y-41000000D02*
X168000000Y-42810000D01*
X188825000Y-47000000D02*
X188825000Y-46175000D01*
X105500000Y-81500000D02*
X104800000Y-80800000D01*
X158550000Y-40900000D02*
X148500000Y-40900000D01*
X191860000Y-43140000D02*
X198955000Y-43140000D01*
X186000000Y-41000000D02*
X185200000Y-41800000D01*
X168000000Y-73000000D02*
X169000000Y-73000000D01*
X174950000Y-69000000D02*
X174950000Y-73400000D01*
X176550000Y-72550000D02*
X176500000Y-72500000D01*
X176912500Y-49600000D02*
X175600000Y-49600000D01*
X192550000Y-57505000D02*
X190005000Y-57505000D01*
X140703052Y-83900000D02*
X141675000Y-83900000D01*
X192550000Y-72995000D02*
X192550000Y-57505000D01*
X144725000Y-77550000D02*
X143950000Y-76775000D01*
X58910000Y-101560000D02*
X59250000Y-101900000D01*
X156500000Y-62062500D02*
X156500000Y-62000000D01*
X174950000Y-73400000D02*
X176550000Y-75000000D01*
X182500000Y-41000000D02*
X168000000Y-41000000D01*
X158550000Y-43000000D02*
X158550000Y-40900000D01*
X102200000Y-68600000D02*
X102400000Y-68400000D01*
X176550000Y-75000000D02*
X176550000Y-72550000D01*
X67650000Y-58850000D02*
X66800000Y-58000000D01*
X89650000Y-67100000D02*
X90000000Y-67100000D01*
X132209999Y-81035000D02*
X131235000Y-81035000D01*
X75800000Y-66900000D02*
X75900000Y-67000000D01*
X31900000Y-97180000D02*
X30280000Y-98800000D01*
X167050000Y-65550000D02*
X167000000Y-65500000D01*
X88775000Y-72300000D02*
X89500000Y-72300000D01*
X56500000Y-86900000D02*
X56200000Y-87200000D01*
X73850000Y-90350000D02*
X73850000Y-91100000D01*
X183890000Y-58000000D02*
X176775000Y-58000000D01*
X57850000Y-86900000D02*
X56500000Y-86900000D01*
X100400000Y-85900000D02*
X100000000Y-85500000D01*
X65900000Y-46800000D02*
X66200000Y-46800000D01*
X127259999Y-83575000D02*
X129324447Y-83575000D01*
X131235000Y-81035000D02*
X129965000Y-79765000D01*
X46500000Y-79900000D02*
X46500000Y-79500000D01*
X142100000Y-56500000D02*
X141000000Y-57600000D01*
X143500000Y-41000000D02*
X143500000Y-41500000D01*
X186700000Y-60810000D02*
X183890000Y-58000000D01*
X191825000Y-50000000D02*
X188825000Y-47000000D01*
X148537500Y-54950000D02*
X149650000Y-54950000D01*
X155062500Y-63500000D02*
X155062500Y-69987500D01*
X148390000Y-43000000D02*
X148390000Y-41110000D01*
X105000000Y-103810000D02*
X105000000Y-106390000D01*
X141675000Y-83900000D02*
X141675000Y-84125000D01*
X176775000Y-68225000D02*
X177500000Y-67500000D01*
X182500000Y-41000000D02*
X182500000Y-43000000D01*
X57925000Y-82750000D02*
X55950000Y-82750000D01*
X48300000Y-86900000D02*
X47700000Y-87500000D01*
X109810000Y-60309995D02*
X109810000Y-59260000D01*
X70550000Y-63150000D02*
X70700000Y-63300000D01*
X198955000Y-49795000D02*
X199870000Y-50710000D01*
X186000000Y-41000000D02*
X182500000Y-41000000D01*
X167050000Y-66250000D02*
X167050000Y-65550000D01*
X75800000Y-64800000D02*
X75800000Y-66900000D01*
X101050000Y-68600000D02*
X102200000Y-68600000D01*
X105300000Y-41500000D02*
X105000000Y-41200000D01*
X128234998Y-83575000D02*
X129429999Y-84770001D01*
X143300000Y-66500000D02*
X143900000Y-65900000D01*
X155062500Y-63500000D02*
X156500000Y-62062500D01*
X149025000Y-72975000D02*
X150550000Y-74500000D01*
X148500000Y-40900000D02*
X148200000Y-40900000D01*
X66200000Y-46800000D02*
X66900000Y-46100000D01*
X100900000Y-76810000D02*
X102310000Y-76810000D01*
X143500000Y-41500000D02*
X143310000Y-41690000D01*
X143950000Y-76775000D02*
X143950000Y-75551304D01*
X81150000Y-91500000D02*
X82450000Y-91500000D01*
X178025000Y-49525000D02*
X178850000Y-50350000D01*
X45300000Y-81100000D02*
X46500000Y-79900000D01*
X106770000Y-41500000D02*
X105300000Y-41500000D01*
X176775000Y-64000000D02*
X176775000Y-58000000D01*
X129324447Y-82150552D02*
X129709999Y-81765000D01*
X47300000Y-47500000D02*
X44800000Y-45000000D01*
X98500000Y-43500000D02*
X98200000Y-43200000D01*
X131155000Y-84845000D02*
X131000000Y-85000000D01*
X102310000Y-76810000D02*
X103000000Y-77500000D01*
X204050000Y-50710000D02*
X204050000Y-42070000D01*
X143310000Y-41690000D02*
X143310000Y-43000000D01*
X129429999Y-84770001D02*
X129324447Y-84875553D01*
X73850000Y-91100000D02*
X74450000Y-91700000D01*
X167400000Y-40900000D02*
X158550000Y-40900000D01*
X168000000Y-42810000D02*
X168190000Y-43000000D01*
X176987500Y-49525000D02*
X178025000Y-49525000D01*
X95440000Y-95900000D02*
X95440000Y-95660000D01*
X149650000Y-54950000D02*
X150000000Y-54600000D01*
X129324447Y-83575000D02*
X131864447Y-81035000D01*
X30280000Y-98800000D02*
X29700000Y-98800000D01*
X148500000Y-41000000D02*
X148500000Y-40900000D01*
X89040000Y-44500000D02*
X97000000Y-44500000D01*
X48300000Y-86200000D02*
X48300000Y-86900000D01*
X167500000Y-41000000D02*
X167400000Y-40900000D01*
X199870000Y-42070000D02*
X199870000Y-42225000D01*
X100400000Y-87000000D02*
X100400000Y-85900000D01*
X101800000Y-43500000D02*
X98500000Y-43500000D01*
X139400000Y-82950000D02*
X139753052Y-82950000D01*
X62350000Y-73150000D02*
X62100000Y-73400000D01*
X127259999Y-83575000D02*
X128234998Y-83575000D01*
X176912500Y-49600000D02*
X176987500Y-49525000D01*
X123000000Y-85200000D02*
X123800000Y-85200000D01*
X146526304Y-72975000D02*
X149025000Y-72975000D01*
X190005000Y-57505000D02*
X186700000Y-60810000D01*
X199870000Y-50710000D02*
X204050000Y-50710000D01*
%TO.N,/Power System/V5V_BUCK*%
X85825000Y-72300000D02*
X84425000Y-70900000D01*
X84425000Y-70900000D02*
X75300000Y-70900000D01*
X85825000Y-89575000D02*
X85500000Y-89900000D01*
X81200000Y-68600000D02*
X82125000Y-68600000D01*
X85825000Y-72300000D02*
X85825000Y-89575000D01*
X82125000Y-68600000D02*
X85825000Y-72300000D01*
%TO.N,Net-(U1-BS)*%
X65800000Y-76400000D02*
X65800000Y-71404448D01*
X62695552Y-68300000D02*
X62350000Y-68300000D01*
X65800000Y-71404448D02*
X62695552Y-68300000D01*
%TO.N,Net-(D2-K)*%
X73675000Y-72075000D02*
X73675000Y-62925000D01*
X65025000Y-77175000D02*
X71825000Y-77175000D01*
X64250000Y-76400000D02*
X65025000Y-77175000D01*
X62695552Y-70840000D02*
X62350000Y-70840000D01*
X71825000Y-77175000D02*
X75300000Y-73700000D01*
X64250000Y-72394448D02*
X62695552Y-70840000D01*
X75300000Y-73700000D02*
X73675000Y-72075000D01*
X73675000Y-62925000D02*
X75800000Y-60800000D01*
X64250000Y-76400000D02*
X64250000Y-72394448D01*
%TO.N,+5V*%
X92500000Y-89900000D02*
X89500000Y-89900000D01*
X124800000Y-89100000D02*
X121950000Y-89100000D01*
X100400000Y-88900000D02*
X98900000Y-90400000D01*
X132209999Y-79765000D02*
X132209999Y-79209999D01*
X77165000Y-96300000D02*
X78135000Y-96300000D01*
X69450000Y-90425000D02*
X71290000Y-90425000D01*
X116350000Y-86100000D02*
X120650000Y-90400000D01*
X89500000Y-89900000D02*
X89500000Y-94900000D01*
X98900000Y-90400000D02*
X98400000Y-90400000D01*
X40495000Y-90425000D02*
X40000000Y-90920000D01*
X130544999Y-78100000D02*
X127300000Y-78100000D01*
X105500000Y-86100000D02*
X116350000Y-86100000D01*
X100400000Y-88900000D02*
X102700000Y-88900000D01*
X89500000Y-94900000D02*
X88100000Y-96300000D01*
X102700000Y-88900000D02*
X105500000Y-86100000D01*
X132209999Y-79209999D02*
X131600000Y-78600000D01*
X148200000Y-84200000D02*
X149600000Y-84200000D01*
X93000000Y-90400000D02*
X92500000Y-89900000D01*
X62750000Y-97000000D02*
X64085000Y-97000000D01*
X132209999Y-79765000D02*
X130544999Y-78100000D01*
X64085000Y-97000000D02*
X64525000Y-96560000D01*
X121950000Y-89100000D02*
X120650000Y-90400000D01*
X149600000Y-84200000D02*
X150000000Y-84600000D01*
X78135000Y-96300000D02*
X88100000Y-96300000D01*
X69450000Y-90425000D02*
X40495000Y-90425000D01*
X71290000Y-90425000D02*
X77165000Y-96300000D01*
%TO.N,+3V3*%
X105500000Y-83800000D02*
X111800000Y-83800000D01*
X168300000Y-68800000D02*
X169000000Y-69500000D01*
X186700000Y-65890000D02*
X177115000Y-65890000D01*
X170500000Y-69500000D02*
X171500000Y-68500000D01*
X142637500Y-83250001D02*
X142337499Y-82950000D01*
X96375000Y-81887648D02*
X98287352Y-83800000D01*
X173712500Y-65412500D02*
X173712500Y-65512500D01*
X100900000Y-73000000D02*
X104650000Y-73000000D01*
X172725000Y-70275000D02*
X171000000Y-72000000D01*
X156500000Y-74200000D02*
X154286848Y-71986848D01*
X160477207Y-60522793D02*
X158128678Y-60522793D01*
X104650000Y-73000000D02*
X104850000Y-73200000D01*
X93500000Y-78037352D02*
X96375000Y-80912352D01*
X103830000Y-100100000D02*
X105000000Y-101270000D01*
X165100000Y-64100000D02*
X164600000Y-63600000D01*
X92900000Y-97600000D02*
X94100000Y-98800000D01*
X139400000Y-91800000D02*
X138700000Y-91100000D01*
X92900000Y-95900000D02*
X91450000Y-97350000D01*
X176912500Y-51600000D02*
X175400000Y-51600000D01*
X135900000Y-64600000D02*
X135900000Y-63400000D01*
X165100000Y-65000000D02*
X165100000Y-64100000D01*
X94100000Y-98800000D02*
X94200000Y-98700000D01*
X157000000Y-69273696D02*
X157000000Y-68650000D01*
X176912500Y-51600000D02*
X177600000Y-52287500D01*
X102575000Y-42725000D02*
X102575000Y-45362648D01*
X172725000Y-66500000D02*
X172725000Y-67500000D01*
X127600000Y-101000000D02*
X127600000Y-101600000D01*
X174000000Y-75000000D02*
X175000000Y-75000000D01*
X157651471Y-61000000D02*
X153000000Y-61000000D01*
X34410000Y-97150000D02*
X42600000Y-97150000D01*
X173000000Y-64700000D02*
X173712500Y-65412500D01*
X99550000Y-47100000D02*
X102620000Y-44030000D01*
X187980000Y-64610000D02*
X186700000Y-65890000D01*
X105500000Y-83800000D02*
X106800000Y-82500000D01*
X102620000Y-44030000D02*
X102620000Y-42770000D01*
X175400000Y-51600000D02*
X175000000Y-52000000D01*
X127600000Y-101600000D02*
X128500000Y-102500000D01*
X154286848Y-71986848D02*
X157000000Y-69273696D01*
X120050000Y-85200000D02*
X120050000Y-81250000D01*
X135500000Y-61000000D02*
X134500000Y-62000000D01*
X172725000Y-67500000D02*
X172725000Y-70275000D01*
X101800000Y-41950000D02*
X102620000Y-42770000D01*
X100900000Y-73000000D02*
X100900000Y-70300000D01*
X92900000Y-95900000D02*
X92900000Y-97600000D01*
X106800000Y-82500000D02*
X106800000Y-75150000D01*
X149000000Y-74500000D02*
X149775000Y-75275000D01*
X102620000Y-42770000D02*
X106770000Y-42770000D01*
X102575000Y-45362648D02*
X101612648Y-46325000D01*
X101800000Y-41950000D02*
X102575000Y-42725000D01*
X31900000Y-94640000D02*
X34410000Y-97150000D01*
X164600000Y-63600000D02*
X163554413Y-63600000D01*
X169000000Y-69500000D02*
X170500000Y-69500000D01*
X97965256Y-46325000D02*
X93500000Y-50790256D01*
X98700000Y-98700000D02*
X100100000Y-100100000D01*
X149775000Y-75275000D02*
X150998696Y-75275000D01*
X99334315Y-88100000D02*
X92900000Y-94534315D01*
X93500000Y-50790256D02*
X93500000Y-78037352D01*
X75000000Y-97350000D02*
X74250000Y-96600000D01*
X153000000Y-61000000D02*
X153000000Y-61500000D01*
X131600000Y-99400000D02*
X132600000Y-100400000D01*
X135900000Y-63400000D02*
X134500000Y-62000000D01*
X91450000Y-97350000D02*
X75000000Y-97350000D01*
X159200000Y-73300000D02*
X158300000Y-74200000D01*
X96375000Y-80912352D02*
X96375000Y-81887648D01*
X169142590Y-72000000D02*
X165800000Y-68657410D01*
X157000000Y-68650000D02*
X162050000Y-63600000D01*
X173300000Y-68500000D02*
X173300000Y-68075000D01*
X94200000Y-98700000D02*
X98700000Y-98700000D01*
X171000000Y-72000000D02*
X169142590Y-72000000D01*
X106800000Y-75150000D02*
X104850000Y-73200000D01*
X175225000Y-64000000D02*
X174112500Y-65112500D01*
X150998696Y-75275000D02*
X154286848Y-71986848D01*
X137800000Y-96700000D02*
X138200000Y-97100000D01*
X101612648Y-46325000D02*
X97965256Y-46325000D01*
X100900000Y-70300000D02*
X101050000Y-70150000D01*
X145800000Y-76000000D02*
X147500000Y-76000000D01*
X113200000Y-85200000D02*
X120050000Y-85200000D01*
X176912500Y-51100000D02*
X176912500Y-51600000D01*
X145800000Y-79487499D02*
X145800000Y-77698696D01*
X49951471Y-95550000D02*
X73200000Y-95550000D01*
X153162500Y-61662500D02*
X153162500Y-63500000D01*
X189240000Y-64610000D02*
X187980000Y-64610000D01*
X120050000Y-81250000D02*
X127200000Y-74100000D01*
X175225000Y-58000000D02*
X175225000Y-54662500D01*
X144725000Y-76000000D02*
X145800000Y-76000000D01*
X142800000Y-78300000D02*
X145198696Y-78300000D01*
X43250000Y-96500000D02*
X49001471Y-96500000D01*
X173300000Y-68075000D02*
X172725000Y-67500000D01*
X177115000Y-65890000D02*
X175225000Y-64000000D01*
X140500000Y-76000000D02*
X142800000Y-78300000D01*
X153000000Y-61000000D02*
X147500000Y-61000000D01*
X162050000Y-63600000D02*
X164600000Y-63600000D01*
X158128678Y-60522793D02*
X157651471Y-61000000D01*
X135100000Y-57700000D02*
X133500000Y-56100000D01*
X111800000Y-83800000D02*
X113200000Y-85200000D01*
X137800000Y-95400000D02*
X137800000Y-96700000D01*
X147500000Y-61000000D02*
X135500000Y-61000000D01*
X73200000Y-95550000D02*
X74250000Y-96600000D01*
X98287352Y-83800000D02*
X105500000Y-83800000D01*
X101200000Y-88100000D02*
X99334315Y-88100000D01*
X175225000Y-64000000D02*
X175225000Y-58000000D01*
X141400000Y-91800000D02*
X139400000Y-91800000D01*
X165800000Y-68200000D02*
X165800000Y-68657410D01*
X133500000Y-56100000D02*
X133500000Y-54500000D01*
X49001471Y-96500000D02*
X49951471Y-95550000D01*
X141400000Y-91800000D02*
X142637500Y-90562500D01*
X145800000Y-77698696D02*
X145800000Y-76000000D01*
X174112500Y-65112500D02*
X173712500Y-65512500D01*
X173712500Y-65512500D02*
X172725000Y-66500000D01*
X92900000Y-94534315D02*
X92900000Y-95900000D01*
X100100000Y-100100000D02*
X103830000Y-100100000D01*
X147500000Y-76000000D02*
X149000000Y-74500000D01*
X171000000Y-72000000D02*
X174000000Y-75000000D01*
X142337499Y-82950000D02*
X145800000Y-79487499D01*
X142637500Y-90562500D02*
X142637500Y-83250001D01*
X134500000Y-62000000D02*
X133050000Y-62000000D01*
X145198696Y-78300000D02*
X145800000Y-77698696D01*
X42600000Y-97150000D02*
X43250000Y-96500000D01*
X105500000Y-83800000D02*
X101200000Y-88100000D01*
X158300000Y-74200000D02*
X156500000Y-74200000D01*
X163554413Y-63600000D02*
X160477207Y-60522793D01*
X153000000Y-61500000D02*
X153162500Y-61662500D01*
X136000000Y-76000000D02*
X140500000Y-76000000D01*
X175225000Y-54662500D02*
X177600000Y-52287500D01*
X132600000Y-100400000D02*
X133600000Y-100400000D01*
X168300000Y-68200000D02*
X168300000Y-68800000D01*
X142337499Y-82950000D02*
X141675000Y-82950000D01*
%TO.N,Net-(J2-Pin_1)*%
X76950000Y-91500000D02*
X78650000Y-91500000D01*
X69900000Y-87850000D02*
X69450000Y-88300000D01*
X69900000Y-86800000D02*
X69900000Y-87850000D01*
X73850000Y-88800000D02*
X74250000Y-88800000D01*
X74250000Y-88800000D02*
X76950000Y-91500000D01*
X73350000Y-88300000D02*
X73850000Y-88800000D01*
X69450000Y-88300000D02*
X73350000Y-88300000D01*
%TO.N,ESP32_EN*%
X146062500Y-56500000D02*
X146662500Y-55900000D01*
X102800000Y-49300000D02*
X105300000Y-46800000D01*
X97000000Y-49000000D02*
X99100000Y-51100000D01*
X105800000Y-43900000D02*
X106630000Y-43900000D01*
X101200000Y-47100000D02*
X101200000Y-47700000D01*
X97000000Y-51300000D02*
X97000000Y-49000000D01*
X106630000Y-43900000D02*
X106770000Y-44040000D01*
X89040000Y-50540000D02*
X90200000Y-51700000D01*
X89040000Y-49000000D02*
X89040000Y-50540000D01*
X96500000Y-51800000D02*
X97000000Y-51300000D01*
X111500000Y-42100000D02*
X109560000Y-44040000D01*
X105300000Y-44400000D02*
X105800000Y-43900000D01*
X143900000Y-56500000D02*
X146062500Y-56500000D01*
X99100000Y-51100000D02*
X102800000Y-51100000D01*
X105300000Y-46800000D02*
X105300000Y-44400000D01*
X146662500Y-55900000D02*
X146662500Y-55362500D01*
X146662500Y-55362500D02*
X146100000Y-54800000D01*
X101200000Y-47700000D02*
X102800000Y-49300000D01*
X102800000Y-51100000D02*
X102800000Y-49300000D01*
X109560000Y-44040000D02*
X106770000Y-44040000D01*
%TO.N,VBUS*%
X178100000Y-52287500D02*
X178100000Y-52714386D01*
X153200000Y-80600000D02*
X150000000Y-80600000D01*
X201500000Y-49000000D02*
X201105000Y-48605000D01*
X153400000Y-80800000D02*
X153200000Y-80600000D01*
X196000000Y-50870000D02*
X198030000Y-48840000D01*
X198030000Y-48840000D02*
X198955000Y-48840000D01*
X178100000Y-52714386D02*
X179385614Y-54000000D01*
X179385614Y-54000000D02*
X196000000Y-54000000D01*
X199190000Y-48605000D02*
X198955000Y-48840000D01*
X201325000Y-44175000D02*
X201500000Y-44000000D01*
X178100000Y-53400000D02*
X177500000Y-54000000D01*
X199190000Y-44175000D02*
X201325000Y-44175000D01*
X201105000Y-48605000D02*
X199190000Y-48605000D01*
X201500000Y-44000000D02*
X201500000Y-49000000D01*
X198955000Y-43940000D02*
X199190000Y-44175000D01*
X196000000Y-54000000D02*
X196000000Y-50870000D01*
X178100000Y-52287500D02*
X178100000Y-53400000D01*
%TO.N,Net-(D5-K)*%
X58175000Y-99947500D02*
X56562500Y-101560000D01*
X58175000Y-96560000D02*
X58175000Y-99947500D01*
%TO.N,Net-(D6-K)*%
X66175000Y-96560000D02*
X66175000Y-99947500D01*
X66175000Y-99947500D02*
X64562500Y-101560000D01*
%TO.N,Net-(D7-K)*%
X72562500Y-101560000D02*
X72562500Y-96637500D01*
X72562500Y-96637500D02*
X72600000Y-96600000D01*
%TO.N,Net-(D10-A)*%
X55550000Y-81800000D02*
X59800000Y-81800000D01*
X60237500Y-83100000D02*
X60237500Y-82237500D01*
X32565000Y-84600000D02*
X37500000Y-84600000D01*
X60237500Y-82237500D02*
X59800000Y-81800000D01*
X53700000Y-83650000D02*
X55550000Y-81800000D01*
X37500000Y-84600000D02*
X38200000Y-85300000D01*
%TO.N,/Breakout and Expansion/FAN_V+*%
X38850000Y-89770000D02*
X44517648Y-89770000D01*
X40000000Y-93460000D02*
X38850000Y-92310000D01*
X52962352Y-80350000D02*
X53700000Y-80350000D01*
X47600000Y-85712352D02*
X52962352Y-80350000D01*
X47600000Y-86687648D02*
X47600000Y-85712352D01*
X38850000Y-92310000D02*
X38850000Y-89770000D01*
X44517648Y-89770000D02*
X47600000Y-86687648D01*
%TO.N,Net-(Q1-S)*%
X57550000Y-50850000D02*
X59059314Y-50850000D01*
X56800000Y-50100000D02*
X57550000Y-50850000D01*
%TO.N,/Power System/+24V_CTRL*%
X60200000Y-67765552D02*
X62004448Y-69570000D01*
X60200000Y-54076304D02*
X60200000Y-67765552D01*
X62004448Y-69570000D02*
X62350000Y-69570000D01*
X64350000Y-47050000D02*
X64350000Y-46800000D01*
X61500000Y-52776304D02*
X60200000Y-54076304D01*
X61500000Y-49900000D02*
X64350000Y-47050000D01*
X61500000Y-49900000D02*
X61500000Y-52776304D01*
%TO.N,Net-(J2-Pin_2)*%
X43425000Y-82050000D02*
X41550000Y-82050000D01*
X41550000Y-82050000D02*
X40300000Y-80800000D01*
X37900000Y-78600000D02*
X37900000Y-78422500D01*
X37900000Y-78422500D02*
X32482500Y-73005000D01*
%TO.N,/MCU and Communications/USB_DP*%
X198140000Y-45640000D02*
X198955000Y-45640000D01*
X175100000Y-50100000D02*
X175000000Y-50000000D01*
X197500000Y-45000000D02*
X198140000Y-45640000D01*
X199980000Y-45690000D02*
X199980000Y-46590000D01*
X176912500Y-50100000D02*
X175100000Y-50100000D01*
X199930000Y-45640000D02*
X199980000Y-45690000D01*
X192500000Y-45000000D02*
X197500000Y-45000000D01*
X199980000Y-46590000D02*
X199930000Y-46640000D01*
X198955000Y-45640000D02*
X199930000Y-45640000D01*
X199930000Y-46640000D02*
X198955000Y-46640000D01*
%TO.N,/MCU and Communications/USB_CC1*%
X188525000Y-51175000D02*
X184350000Y-47000000D01*
X194445000Y-51175000D02*
X188525000Y-51175000D01*
X198955000Y-47640000D02*
X197980000Y-47640000D01*
X197980000Y-47640000D02*
X194445000Y-51175000D01*
%TO.N,/MCU and Communications/USB_DM*%
X197980000Y-46140000D02*
X197930000Y-46190000D01*
X176912500Y-50600000D02*
X174100000Y-50600000D01*
X197930000Y-46190000D02*
X197930000Y-47090000D01*
X197980000Y-47140000D02*
X198955000Y-47140000D01*
X192000000Y-47500000D02*
X197000000Y-47500000D01*
X197930000Y-47090000D02*
X197980000Y-47140000D01*
X174000000Y-50500000D02*
X174100000Y-50600000D01*
X198955000Y-46140000D02*
X197980000Y-46140000D01*
X197000000Y-47500000D02*
X197360000Y-47140000D01*
X197360000Y-47140000D02*
X198955000Y-47140000D01*
%TO.N,/MCU and Communications/USB_CC2*%
X192525000Y-49512352D02*
X192525000Y-50487648D01*
X192525000Y-50487648D02*
X192237648Y-50775000D01*
X197900000Y-44400000D02*
X191659314Y-44400000D01*
X192237648Y-49225000D02*
X192525000Y-49512352D01*
X198140000Y-44640000D02*
X197900000Y-44400000D01*
X189225000Y-46834314D02*
X191615686Y-49225000D01*
X191659314Y-44400000D02*
X189225000Y-46834314D01*
X192237648Y-50775000D02*
X190950000Y-50775000D01*
X190950000Y-50775000D02*
X190175000Y-50000000D01*
X191615686Y-49225000D02*
X192237648Y-49225000D01*
X198955000Y-44640000D02*
X198140000Y-44640000D01*
%TO.N,I2C_SDA*%
X106770000Y-51660000D02*
X108440000Y-51660000D01*
X108500000Y-93000000D02*
X128800000Y-93000000D01*
X108190000Y-93000000D02*
X108500000Y-93000000D01*
X108440000Y-51660000D02*
X108500000Y-51600000D01*
X140500000Y-80825000D02*
X141675000Y-82000000D01*
X105000000Y-96190000D02*
X108190000Y-93000000D01*
X108400000Y-92900000D02*
X108500000Y-93000000D01*
X138000000Y-79600000D02*
X140500000Y-79600000D01*
X108400000Y-91900000D02*
X108400000Y-92900000D01*
X140500000Y-77650000D02*
X140500000Y-79600000D01*
X140500000Y-79600000D02*
X140500000Y-80825000D01*
X104710000Y-95900000D02*
X105000000Y-96190000D01*
X100520000Y-95900000D02*
X104710000Y-95900000D01*
%TO.N,I2C_SCL*%
X128800000Y-93700000D02*
X129400000Y-94300000D01*
X136000000Y-90400000D02*
X136000000Y-78600000D01*
X136000000Y-77650000D02*
X136000000Y-78600000D01*
X109500000Y-96300000D02*
X111600000Y-94200000D01*
X129400000Y-94300000D02*
X129600000Y-94300000D01*
X97980000Y-95900000D02*
X100810000Y-98730000D01*
X100810000Y-98730000D02*
X105000000Y-98730000D01*
X108390000Y-50390000D02*
X109500000Y-51500000D01*
X110300000Y-93700000D02*
X111600000Y-93700000D01*
X105000000Y-98730000D02*
X110030000Y-93700000D01*
X111600000Y-94200000D02*
X111600000Y-93700000D01*
X106770000Y-50390000D02*
X108390000Y-50390000D01*
X111600000Y-93700000D02*
X128800000Y-93700000D01*
X110030000Y-93700000D02*
X110300000Y-93700000D01*
X136000000Y-78600000D02*
X139400000Y-82000000D01*
%TO.N,/Signal Outputs/SIG_CH1*%
X187600000Y-78400000D02*
X189700000Y-78400000D01*
X184800000Y-81200000D02*
X187600000Y-78400000D01*
X162000000Y-81200000D02*
X184800000Y-81200000D01*
X128500000Y-103800000D02*
X128505000Y-103805000D01*
X128505000Y-103805000D02*
X139395000Y-103805000D01*
X139395000Y-103805000D02*
X162000000Y-81200000D01*
X189700000Y-78400000D02*
X189800000Y-78500000D01*
%TO.N,/Signal Outputs/SIG_CH2*%
X140700000Y-101700000D02*
X162200000Y-80200000D01*
X187400000Y-77400000D02*
X189500003Y-77400000D01*
X133600000Y-101700000D02*
X140700000Y-101700000D01*
X162200000Y-80200000D02*
X184600000Y-80200000D01*
X184600000Y-80200000D02*
X187400000Y-77400000D01*
X189500003Y-77400000D02*
X189800000Y-77699997D01*
%TO.N,/Signal Outputs/SIG_CH3*%
X189500000Y-75400000D02*
X189900000Y-75800000D01*
X161000000Y-78000000D02*
X183400000Y-78000000D01*
X186000000Y-75400000D02*
X189500000Y-75400000D01*
X141400000Y-93100000D02*
X145900000Y-93100000D01*
X183400000Y-78000000D02*
X186000000Y-75400000D01*
X145900000Y-93100000D02*
X161000000Y-78000000D01*
%TO.N,/Signal Outputs/SIG_CH4*%
X161800000Y-79000000D02*
X184000000Y-79000000D01*
X184000000Y-79000000D02*
X186800000Y-76200000D01*
X186800000Y-76200000D02*
X189300000Y-76200000D01*
X189300000Y-76200000D02*
X189900000Y-76800000D01*
X138200000Y-98400000D02*
X142400000Y-98400000D01*
X142400000Y-98400000D02*
X161800000Y-79000000D01*
%TO.N,ESP_UART_TX*%
X170013654Y-41850000D02*
X169340000Y-42523654D01*
X169340000Y-43476346D02*
X167316346Y-45500000D01*
X173270000Y-43000000D02*
X172120000Y-41850000D01*
X130300000Y-45400000D02*
X130210000Y-45310000D01*
X172120000Y-41850000D02*
X170013654Y-41850000D01*
X179600000Y-46100000D02*
X179500000Y-46000000D01*
X179600000Y-48412500D02*
X179600000Y-46100000D01*
X130210000Y-45310000D02*
X124270000Y-45310000D01*
X167316346Y-45500000D02*
X134200000Y-45500000D01*
X176270000Y-46000000D02*
X173270000Y-43000000D01*
X169340000Y-42523654D02*
X169340000Y-43476346D01*
X179500000Y-46000000D02*
X176270000Y-46000000D01*
%TO.N,ESP_UART_RX*%
X174230000Y-46500000D02*
X170730000Y-43000000D01*
X179000000Y-46500000D02*
X174230000Y-46500000D01*
X179100000Y-46600000D02*
X179000000Y-46500000D01*
X167130000Y-46600000D02*
X134600000Y-46600000D01*
X170730000Y-43000000D02*
X167130000Y-46600000D01*
X130280000Y-46580000D02*
X124270000Y-46580000D01*
X179100000Y-48412500D02*
X179100000Y-46600000D01*
X130400000Y-46700000D02*
X130280000Y-46580000D01*
%TO.N,/MCU and Communications/ETH_TXN*%
X164000000Y-65000000D02*
X164500000Y-65500000D01*
X161500000Y-66500000D02*
X163000000Y-65000000D01*
X161500000Y-70631372D02*
X161500000Y-66500000D01*
X178555000Y-76575000D02*
X167443628Y-76575000D01*
X163000000Y-65000000D02*
X164000000Y-65000000D01*
X164500000Y-65500000D02*
X165100000Y-65500000D01*
X167443628Y-76575000D02*
X161500000Y-70631372D01*
X186700000Y-68430000D02*
X178555000Y-76575000D01*
%TO.N,/MCU and Communications/ETH_RXN*%
X179350000Y-63350000D02*
X178500000Y-62500000D01*
X186700000Y-63350000D02*
X179350000Y-63350000D01*
X164000000Y-66500000D02*
X165100000Y-66500000D01*
X163500000Y-67000000D02*
X164000000Y-66500000D01*
%TO.N,/MCU and Communications/ETH_RXP*%
X177164381Y-76175000D02*
X167609314Y-76175000D01*
X167609314Y-76175000D02*
X163000000Y-71565686D01*
X186189381Y-67150000D02*
X177164381Y-76175000D01*
X163000000Y-68500000D02*
X164500000Y-67000000D01*
X164500000Y-67000000D02*
X165100000Y-67000000D01*
X163000000Y-71565686D02*
X163000000Y-68500000D01*
X189240000Y-67150000D02*
X186189381Y-67150000D01*
%TO.N,/MCU and Communications/ETH_TXP*%
X166975000Y-76975000D02*
X160900000Y-70900000D01*
X181955000Y-76975000D02*
X166975000Y-76975000D01*
X162500000Y-67000000D02*
X163500000Y-66000000D01*
X189240000Y-69690000D02*
X181955000Y-76975000D01*
X160900000Y-70900000D02*
X160900000Y-67500000D01*
X163500000Y-66000000D02*
X165100000Y-66000000D01*
%TO.N,Net-(JP1-A)*%
X127745000Y-105100000D02*
X128500000Y-105100000D01*
X125700000Y-100200000D02*
X125700000Y-103055000D01*
X125700000Y-103055000D02*
X127745000Y-105100000D01*
%TO.N,Net-(JP2-A)*%
X132845000Y-103000000D02*
X133600000Y-103000000D01*
X129900000Y-98300000D02*
X129900000Y-100055000D01*
X129900000Y-100055000D02*
X132845000Y-103000000D01*
%TO.N,Net-(JP3-A)*%
X136400000Y-92600000D02*
X138200000Y-94400000D01*
X138200000Y-94400000D02*
X141400000Y-94400000D01*
%TO.N,Net-(JP4-A)*%
X134300000Y-96900000D02*
X137100000Y-99700000D01*
X137100000Y-99700000D02*
X138200000Y-99700000D01*
%TO.N,Net-(U1-FB)*%
X68990000Y-72110000D02*
X72100000Y-69000000D01*
X74600000Y-69000000D02*
X74900000Y-69000000D01*
X74900000Y-69000000D02*
X75300000Y-68600000D01*
X67300000Y-72110000D02*
X68990000Y-72110000D01*
X75300000Y-68600000D02*
X79550000Y-68600000D01*
X79550000Y-68600000D02*
X81050000Y-67100000D01*
X81050000Y-67100000D02*
X88000000Y-67100000D01*
%TO.N,/MCU and Communications/RS485_B*%
X97075000Y-79975000D02*
X98450000Y-78600000D01*
X99180000Y-74270000D02*
X100900000Y-74270000D01*
X97075000Y-81400000D02*
X97075000Y-79975000D01*
X98450000Y-78600000D02*
X98450000Y-75000000D01*
X99425000Y-81400000D02*
X97075000Y-81400000D01*
X98450000Y-75000000D02*
X99180000Y-74270000D01*
%TO.N,/MCU and Communications/RS485_A*%
X99510000Y-75540000D02*
X100900000Y-75540000D01*
X104850000Y-74850000D02*
X104160000Y-75540000D01*
X99050000Y-76000000D02*
X99510000Y-75540000D01*
X101075000Y-81400000D02*
X99050000Y-79375000D01*
X104160000Y-75540000D02*
X100900000Y-75540000D01*
X99050000Y-79375000D02*
X99050000Y-76000000D01*
%TO.N,Net-(U9-RBIAS)*%
X176998696Y-75775000D02*
X167775000Y-75775000D01*
X167775000Y-75775000D02*
X164000000Y-72000000D01*
X164000000Y-72000000D02*
X164000000Y-68600000D01*
X177300000Y-75473696D02*
X176998696Y-75775000D01*
X177300000Y-69700000D02*
X177300000Y-75473696D01*
X176600000Y-69000000D02*
X177300000Y-69700000D01*
X164000000Y-68600000D02*
X165100000Y-67500000D01*
%TO.N,Net-(U9-~{RST})*%
X167300000Y-64300000D02*
X167300000Y-61700000D01*
X166900000Y-61500000D02*
X164000000Y-61500000D01*
X158000000Y-61500000D02*
X158000000Y-62000000D01*
X158000000Y-62000000D02*
X157000000Y-63000000D01*
X167000000Y-61400000D02*
X166900000Y-61500000D01*
X167300000Y-61700000D02*
X167000000Y-61400000D01*
X157000000Y-63000000D02*
X157000000Y-67000000D01*
%TO.N,RELAY_CTRL*%
X45300000Y-83000000D02*
X46650000Y-84350000D01*
X64912500Y-62287500D02*
X64850000Y-62350000D01*
X91200000Y-53600000D02*
X80565256Y-53600000D01*
X101500000Y-53600000D02*
X94100000Y-53600000D01*
X65850000Y-59900000D02*
X64912500Y-60837500D01*
X64912500Y-60837500D02*
X64912500Y-62287500D01*
X55200000Y-68400000D02*
X43400000Y-80200000D01*
X103900000Y-51200000D02*
X101500000Y-53600000D01*
X109700000Y-48500000D02*
X109700000Y-48200000D01*
X73715256Y-60450000D02*
X66400000Y-60450000D01*
X46650000Y-84350000D02*
X46650000Y-86200000D01*
X64850000Y-62350000D02*
X61600000Y-65600000D01*
X66400000Y-60450000D02*
X65850000Y-59900000D01*
X61600000Y-65600000D02*
X61600000Y-65900000D01*
X80565256Y-53600000D02*
X73715256Y-60450000D01*
X43400000Y-80200000D02*
X43400000Y-80646948D01*
X57900000Y-68400000D02*
X55200000Y-68400000D01*
X45300000Y-82546948D02*
X45300000Y-83000000D01*
X65850000Y-59900000D02*
X67700000Y-61750000D01*
X43400000Y-80646948D02*
X45300000Y-82546948D01*
X67700000Y-61750000D02*
X67700000Y-63150000D01*
X124270000Y-52930000D02*
X123750000Y-52410000D01*
X123750000Y-52410000D02*
X113610000Y-52410000D01*
X113610000Y-52410000D02*
X109700000Y-48500000D01*
%TO.N,Net-(R20-Pad2)*%
X130800000Y-95100000D02*
X129150000Y-95100000D01*
X128600000Y-91800000D02*
X130800000Y-94000000D01*
X128305000Y-82305000D02*
X128600000Y-82600000D01*
X127259999Y-82305000D02*
X128305000Y-82305000D01*
X130800000Y-94000000D02*
X130800000Y-95100000D01*
X128600000Y-89400000D02*
X128600000Y-91800000D01*
X129150000Y-95100000D02*
X124050000Y-100200000D01*
%TO.N,Net-(R21-Pad2)*%
X126400000Y-88800000D02*
X129200000Y-88800000D01*
X126914447Y-86115000D02*
X125984999Y-87044448D01*
X129200000Y-88800000D02*
X129200000Y-91700000D01*
X129200000Y-91700000D02*
X131400000Y-93900000D01*
X125984999Y-88384999D02*
X126400000Y-88800000D01*
X131400000Y-93900000D02*
X131400000Y-95150000D01*
X127259999Y-86115000D02*
X126914447Y-86115000D01*
X131400000Y-95150000D02*
X128250000Y-98300000D01*
X125984999Y-87044448D02*
X125984999Y-88384999D01*
%TO.N,Net-(R22-Pad2)*%
X132209999Y-87385000D02*
X134750000Y-89925001D01*
X134750000Y-89925001D02*
X134750000Y-92600000D01*
%TO.N,Net-(R23-Pad2)*%
X132650000Y-94484314D02*
X132650000Y-96900000D01*
X130400000Y-92234314D02*
X132650000Y-94484314D01*
X132209999Y-83575000D02*
X131576471Y-83575000D01*
X131576471Y-83575000D02*
X130400000Y-84751471D01*
X130400000Y-84751471D02*
X130400000Y-92234314D01*
%TO.N,FAN_PWM*%
X119970000Y-63170000D02*
X115840000Y-67300000D01*
X84300000Y-76300000D02*
X83800000Y-75800000D01*
X60837500Y-85562500D02*
X60837500Y-81459448D01*
X71350000Y-80850000D02*
X60228052Y-80850000D01*
X115840000Y-67300000D02*
X106100000Y-67300000D01*
X59500000Y-86900000D02*
X60837500Y-85562500D01*
X76400000Y-75800000D02*
X71350000Y-80850000D01*
X60228052Y-80850000D02*
X57925000Y-80850000D01*
X83800000Y-75800000D02*
X76400000Y-75800000D01*
X119970000Y-63170000D02*
X119970000Y-59260000D01*
X60837500Y-81459448D02*
X60228052Y-80850000D01*
%TO.N,Net-(Q2-D)*%
X61687500Y-117712500D02*
X62000000Y-117400000D01*
X65571948Y-56900000D02*
X70350000Y-56900000D01*
X56012500Y-117712500D02*
X61687500Y-117712500D01*
X56000000Y-117700000D02*
X56012500Y-117712500D01*
X62000000Y-117400000D02*
X62000000Y-101000000D01*
X60800000Y-58900000D02*
X60850000Y-58950000D01*
X60850000Y-58950000D02*
X63975000Y-58950000D01*
X63975000Y-58950000D02*
X63975000Y-58496948D01*
X63975000Y-58496948D02*
X65571948Y-56900000D01*
%TO.N,LED_CH4*%
X124270000Y-58010000D02*
X124660000Y-58400000D01*
X124660000Y-58400000D02*
X127600000Y-58400000D01*
X127800000Y-61600000D02*
X128200000Y-62000000D01*
X139825000Y-67450000D02*
X136900000Y-67450000D01*
X136900000Y-67450000D02*
X136850000Y-67450000D01*
X136850000Y-67450000D02*
X131400000Y-62000000D01*
X127600000Y-58400000D02*
X127800000Y-58200000D01*
X133184998Y-82305000D02*
X133484999Y-82004999D01*
X132209999Y-82305000D02*
X133184998Y-82305000D01*
X136800000Y-67550000D02*
X136900000Y-67450000D01*
X133484999Y-82004999D02*
X133484999Y-78684999D01*
X136800000Y-69700000D02*
X136800000Y-67550000D01*
X133484999Y-78684999D02*
X131500000Y-76700000D01*
X128200000Y-62000000D02*
X131400000Y-62000000D01*
%TO.N,LED_CH1*%
X121240000Y-59560000D02*
X123080000Y-61400000D01*
X125984999Y-77615001D02*
X125984999Y-80105552D01*
X128717670Y-63339820D02*
X128717670Y-74882330D01*
X121240000Y-59260000D02*
X121240000Y-59560000D01*
X125984999Y-80105552D02*
X126914447Y-81035000D01*
X128717670Y-74882330D02*
X125984999Y-77615001D01*
X127988349Y-62988349D02*
X128366199Y-62988349D01*
X126400000Y-61400000D02*
X127988349Y-62988349D01*
X126914447Y-81035000D02*
X127259999Y-81035000D01*
X123080000Y-61400000D02*
X126400000Y-61400000D01*
X128366199Y-62988349D02*
X128717670Y-63339820D01*
%TO.N,/MCU and Communications/ETH_CLK_OUT*%
X168500000Y-54848529D02*
X168500000Y-52500000D01*
X167800000Y-68200000D02*
X167800000Y-69800000D01*
X130500000Y-52500000D02*
X128800000Y-54200000D01*
X128800000Y-54200000D02*
X124270000Y-54200000D01*
X172000000Y-58000000D02*
X171651471Y-58000000D01*
X171651471Y-58000000D02*
X168500000Y-54848529D01*
X170934314Y-71500000D02*
X172325000Y-70109314D01*
X167800000Y-69800000D02*
X169500000Y-71500000D01*
X168500000Y-52500000D02*
X130500000Y-52500000D01*
X172325000Y-70109314D02*
X172325000Y-58325000D01*
X169500000Y-71500000D02*
X170934314Y-71500000D01*
X172325000Y-58325000D02*
X172000000Y-58000000D01*
%TO.N,/MCU and Communications/ETH_CRS_DV*%
X122634315Y-60200000D02*
X122000000Y-59565685D01*
X156500000Y-60200000D02*
X122634315Y-60200000D01*
X169648529Y-59400000D02*
X169151471Y-59400000D01*
X169000000Y-65500000D02*
X170100000Y-65500000D01*
X157000000Y-60200000D02*
X156500000Y-60200000D01*
X164500000Y-60200000D02*
X164500000Y-60202430D01*
X169151471Y-59400000D02*
X169051471Y-59500000D01*
X170000000Y-65400000D02*
X170000000Y-59751471D01*
X122000000Y-56000000D02*
X121470000Y-55470000D01*
X170100000Y-65500000D02*
X170000000Y-65400000D01*
X121470000Y-55470000D02*
X106770000Y-55470000D01*
X170000000Y-59751471D02*
X169648529Y-59400000D01*
X168300000Y-60200000D02*
X164500000Y-60200000D01*
X122000000Y-59565685D02*
X122000000Y-56000000D01*
X169000000Y-59500000D02*
X168300000Y-60200000D01*
X169051471Y-59500000D02*
X169000000Y-59500000D01*
X164500000Y-60202430D02*
X164487851Y-60214579D01*
%TO.N,/MCU and Communications/ETH_MDC*%
X163000000Y-53000000D02*
X138100000Y-53000000D01*
X164422320Y-61000000D02*
X163000000Y-59577680D01*
X163000000Y-59577680D02*
X163000000Y-53000000D01*
X129270000Y-42770000D02*
X124270000Y-42770000D01*
X138000000Y-47500000D02*
X134000000Y-47500000D01*
X168500000Y-61000000D02*
X164422320Y-61000000D01*
X168300000Y-61200000D02*
X168500000Y-61000000D01*
X138000000Y-47770000D02*
X138000000Y-47500000D01*
X134000000Y-47500000D02*
X129270000Y-42770000D01*
X138100000Y-53000000D02*
X138000000Y-53100000D01*
X168300000Y-64300000D02*
X168300000Y-61200000D01*
%TO.N,/MCU and Communications/RS485_TX*%
X97934448Y-69400000D02*
X97934448Y-75171104D01*
X97934448Y-75171104D02*
X96295552Y-76810000D01*
X96295552Y-76810000D02*
X95950000Y-76810000D01*
X111080000Y-59260000D02*
X111080000Y-60568529D01*
X102248529Y-69400000D02*
X97934448Y-69400000D01*
X111080000Y-60568529D02*
X102248529Y-69400000D01*
%TO.N,/MCU and Communications/RS485_RX*%
X106240000Y-56740000D02*
X106770000Y-56740000D01*
X95950000Y-67030000D02*
X106240000Y-56740000D01*
X95950000Y-73000000D02*
X95950000Y-67030000D01*
%TO.N,/MCU and Communications/ETH_TXEN*%
X166800000Y-62100000D02*
X163751471Y-62100000D01*
X166900000Y-63742590D02*
X166900000Y-62000000D01*
X166800000Y-64300000D02*
X166800000Y-63842590D01*
X166900000Y-62000000D02*
X166800000Y-62100000D01*
X163751471Y-62100000D02*
X162000000Y-60348529D01*
X124790000Y-48370000D02*
X124270000Y-47850000D01*
X166800000Y-63842590D02*
X166900000Y-63742590D01*
X162000000Y-50900000D02*
X159470000Y-48370000D01*
X162000000Y-60348529D02*
X162000000Y-54000000D01*
X159470000Y-48370000D02*
X124790000Y-48370000D01*
%TO.N,/MCU and Communications/ETH_MDIO*%
X169400000Y-60000000D02*
X169600000Y-60200000D01*
X169600000Y-64400000D02*
X169000000Y-65000000D01*
X169500000Y-52000000D02*
X169500000Y-55000000D01*
X169600000Y-60200000D02*
X169600000Y-64400000D01*
X169000000Y-51500000D02*
X158660000Y-51500000D01*
X158660000Y-51500000D02*
X158500000Y-51660000D01*
X158500000Y-51660000D02*
X124270000Y-51660000D01*
X169500000Y-52000000D02*
X169000000Y-51500000D01*
%TO.N,/MCU and Communications/ETH_RXD1*%
X122500000Y-54500000D02*
X122200000Y-54200000D01*
X166467157Y-58467157D02*
X166400000Y-58400000D01*
X165000000Y-59600000D02*
X164000000Y-59600000D01*
X167334314Y-57600000D02*
X166467157Y-58467157D01*
X122600000Y-59600000D02*
X122500000Y-59500000D01*
X157500000Y-59600000D02*
X122600000Y-59600000D01*
X166400000Y-58400000D02*
X165000000Y-58400000D01*
X122500000Y-59500000D02*
X122500000Y-54500000D01*
X171500000Y-65978705D02*
X171500000Y-58565686D01*
X122200000Y-54200000D02*
X106770000Y-54200000D01*
X171500000Y-66500000D02*
X171478705Y-66478705D01*
X171478705Y-66478705D02*
X171478705Y-66000000D01*
X171500000Y-58565686D02*
X170534314Y-57600000D01*
X169000000Y-67500000D02*
X171500000Y-67500000D01*
X164000000Y-59600000D02*
X163870849Y-59600000D01*
X157500000Y-59600000D02*
X157529149Y-59600000D01*
X171500000Y-67500000D02*
X171500000Y-66500000D01*
X170534314Y-57600000D02*
X167334314Y-57600000D01*
X171478705Y-66000000D02*
X171500000Y-65978705D01*
%TO.N,/MCU and Communications/RS485_DE*%
X95950000Y-75540000D02*
X97534448Y-73955552D01*
X95950000Y-74270000D02*
X95950000Y-75540000D01*
X97534448Y-67245552D02*
X106770000Y-58010000D01*
X97534448Y-73955552D02*
X97534448Y-67245552D01*
%TO.N,LED_CH2*%
X124270000Y-56740000D02*
X127460000Y-56740000D01*
X128100000Y-74500000D02*
X125000000Y-77600000D01*
X128100000Y-63606019D02*
X128100000Y-74500000D01*
X125000000Y-84600000D02*
X125245000Y-84845000D01*
X125245000Y-84845000D02*
X127259999Y-84845000D01*
X128117670Y-63588349D02*
X128100000Y-63606019D01*
X127460000Y-56740000D02*
X127600000Y-56600000D01*
X125000000Y-77600000D02*
X125000000Y-84600000D01*
%TO.N,/MCU and Communications/ETH_TXD1*%
X126500000Y-44000000D02*
X126460000Y-44040000D01*
X160599997Y-54000000D02*
X160399994Y-54000000D01*
X126500000Y-49500000D02*
X126000000Y-49000000D01*
X165800000Y-63875001D02*
X164924999Y-63000000D01*
X126460000Y-44040000D02*
X124270000Y-44040000D01*
X165800000Y-64300000D02*
X165800000Y-63875001D01*
X160599997Y-60079898D02*
X160599997Y-54000000D01*
X163520099Y-63000000D02*
X160599997Y-60079898D01*
X159500000Y-49500000D02*
X126500000Y-49500000D01*
X164924999Y-63000000D02*
X163520099Y-63000000D01*
%TO.N,LED_CH3*%
X129800003Y-73599997D02*
X135000000Y-78799994D01*
X135000000Y-78799994D02*
X135000000Y-85600000D01*
X135000000Y-85600000D02*
X134485000Y-86115000D01*
X127670000Y-55470000D02*
X129800000Y-57600000D01*
X124270000Y-55470000D02*
X127670000Y-55470000D01*
X134485000Y-86115000D02*
X132209999Y-86115000D01*
X129800003Y-63600000D02*
X129800003Y-73599997D01*
%TO.N,/MCU and Communications/ETH_TXD0*%
X163585785Y-62500000D02*
X161199997Y-60114212D01*
X161199997Y-60114212D02*
X161199997Y-54000000D01*
X161000000Y-50900000D02*
X160490000Y-50390000D01*
X166300000Y-64300000D02*
X166300000Y-62800000D01*
X160490000Y-50390000D02*
X124270000Y-50390000D01*
X166000000Y-62500000D02*
X163585785Y-62500000D01*
X166300000Y-62800000D02*
X166000000Y-62500000D01*
%TO.N,/MCU and Communications/ETH_RXD0*%
X164500000Y-59000000D02*
X164400000Y-59000000D01*
X169000000Y-67000000D02*
X171000000Y-67000000D01*
X166500000Y-59000000D02*
X164500000Y-59000000D01*
X167500000Y-58000000D02*
X166500000Y-59000000D01*
X122930000Y-52930000D02*
X106770000Y-52930000D01*
X170065685Y-58000000D02*
X167500000Y-58000000D01*
X123000000Y-59000000D02*
X123000000Y-53000000D01*
X157000000Y-59000000D02*
X123000000Y-59000000D01*
X171000000Y-58934315D02*
X170065685Y-58000000D01*
X123000000Y-53000000D02*
X122930000Y-52930000D01*
X171000000Y-67000000D02*
X171000000Y-58934315D01*
%TO.N,CP_DTR*%
X177814386Y-47700000D02*
X174200000Y-47700000D01*
X178100000Y-48412500D02*
X178100000Y-47985614D01*
X151100000Y-67000000D02*
X149600000Y-67000000D01*
X153400000Y-47770000D02*
X174130000Y-47770000D01*
X149600000Y-67000000D02*
X149500000Y-66900000D01*
X178100000Y-47985614D02*
X177814386Y-47700000D01*
X174200000Y-47700000D02*
X174130000Y-47770000D01*
%TO.N,CP_RTS*%
X180100000Y-46900000D02*
X180200000Y-46800000D01*
X166500000Y-50400000D02*
X164200000Y-50400000D01*
X180100000Y-48412500D02*
X180100000Y-46900000D01*
X164200000Y-50400000D02*
X163300000Y-49500000D01*
X153500000Y-56900000D02*
X153400000Y-56800000D01*
X154700000Y-56900000D02*
X153500000Y-56900000D01*
%TO.N,Net-(Q7-G)*%
X148537500Y-56850000D02*
X151700000Y-56850000D01*
X151700000Y-56850000D02*
X151750000Y-56800000D01*
%TO.N,Net-(Q8-G)*%
X143200000Y-66900000D02*
X141700000Y-68400000D01*
X147850000Y-66900000D02*
X143200000Y-66900000D01*
%TO.N,Net-(DZ1-A)*%
X59625000Y-48950000D02*
X59625000Y-46175000D01*
X57150000Y-44600000D02*
X57150000Y-46475000D01*
X70900000Y-43300000D02*
X72200000Y-44600000D01*
X59625000Y-46175000D02*
X62500000Y-43300000D01*
X57150000Y-46475000D02*
X59625000Y-48950000D01*
X62500000Y-43300000D02*
X70900000Y-43300000D01*
X72200000Y-44600000D02*
X72200000Y-49100000D01*
%TO.N,Net-(U9-VDDIO)*%
X170200000Y-66500000D02*
X170300000Y-66400000D01*
X160000000Y-70375000D02*
X157075000Y-73300000D01*
X160000000Y-70300000D02*
X160000000Y-70375000D01*
X169000000Y-66500000D02*
X170200000Y-66500000D01*
%TD*%
%TA.AperFunction,Conductor*%
%TO.N,/Signal Outputs/LED_24V_CH1*%
G36*
X205342984Y-78523447D02*
G01*
X205425274Y-78575095D01*
X205481536Y-78654302D01*
X205503203Y-78749010D01*
X205503284Y-78752887D01*
X205599979Y-86198382D01*
X205600000Y-86201616D01*
X205600000Y-91353337D01*
X205581046Y-91448625D01*
X205527070Y-91529407D01*
X205446288Y-91583383D01*
X205353349Y-91602326D01*
X184651349Y-91797628D01*
X184555886Y-91779574D01*
X184474599Y-91726362D01*
X184419863Y-91646093D01*
X184400011Y-91550988D01*
X184400000Y-91548639D01*
X184400000Y-86891071D01*
X184418954Y-86795783D01*
X184472930Y-86715001D01*
X184553712Y-86661025D01*
X184572050Y-86654259D01*
X184756799Y-86594231D01*
X184960228Y-86490579D01*
X185144937Y-86356379D01*
X185306379Y-86194937D01*
X185440579Y-86010228D01*
X185544231Y-85806799D01*
X185614784Y-85589660D01*
X185650500Y-85364157D01*
X185650500Y-85135843D01*
X185614784Y-84910340D01*
X185544231Y-84693201D01*
X185440579Y-84489772D01*
X185362214Y-84381912D01*
X201417000Y-84381912D01*
X201417000Y-84618087D01*
X201417001Y-84618103D01*
X201453946Y-84851364D01*
X201453947Y-84851368D01*
X201526932Y-85075992D01*
X201557428Y-85135843D01*
X201634159Y-85286437D01*
X201772978Y-85477504D01*
X201772980Y-85477506D01*
X201772983Y-85477510D01*
X201939990Y-85644517D01*
X201939993Y-85644519D01*
X201939995Y-85644521D01*
X202131062Y-85783340D01*
X202131064Y-85783341D01*
X202131067Y-85783343D01*
X202341508Y-85890568D01*
X202566132Y-85963553D01*
X202799408Y-86000500D01*
X202799412Y-86000500D01*
X203035588Y-86000500D01*
X203035592Y-86000500D01*
X203268868Y-85963553D01*
X203493492Y-85890568D01*
X203703933Y-85783343D01*
X203895010Y-85644517D01*
X204062017Y-85477510D01*
X204200843Y-85286433D01*
X204308068Y-85075992D01*
X204381053Y-84851368D01*
X204418000Y-84618092D01*
X204418000Y-84381908D01*
X204381053Y-84148632D01*
X204308068Y-83924008D01*
X204200843Y-83713567D01*
X204200841Y-83713564D01*
X204200840Y-83713562D01*
X204062021Y-83522495D01*
X204062019Y-83522493D01*
X204062017Y-83522490D01*
X203895010Y-83355483D01*
X203895006Y-83355480D01*
X203895004Y-83355478D01*
X203703937Y-83216659D01*
X203690247Y-83209683D01*
X203493492Y-83109432D01*
X203493489Y-83109431D01*
X203493487Y-83109430D01*
X203368579Y-83068845D01*
X203268868Y-83036447D01*
X203268866Y-83036446D01*
X203268864Y-83036446D01*
X203035603Y-82999501D01*
X203035594Y-82999500D01*
X203035592Y-82999500D01*
X202799408Y-82999500D01*
X202799405Y-82999500D01*
X202799396Y-82999501D01*
X202566135Y-83036446D01*
X202341512Y-83109430D01*
X202131062Y-83216659D01*
X201939995Y-83355478D01*
X201772978Y-83522495D01*
X201634159Y-83713562D01*
X201526930Y-83924012D01*
X201453946Y-84148635D01*
X201417001Y-84381896D01*
X201417000Y-84381912D01*
X185362214Y-84381912D01*
X185306379Y-84305063D01*
X185144937Y-84143621D01*
X184960228Y-84009421D01*
X184960224Y-84009419D01*
X184960224Y-84009418D01*
X184756799Y-83905769D01*
X184756797Y-83905768D01*
X184572054Y-83845741D01*
X184487287Y-83798269D01*
X184427139Y-83721971D01*
X184400768Y-83628464D01*
X184400000Y-83608928D01*
X184400000Y-82049500D01*
X184418954Y-81954212D01*
X184472930Y-81873430D01*
X184553712Y-81819454D01*
X184649000Y-81800500D01*
X184705666Y-81800500D01*
X184705682Y-81800501D01*
X184720943Y-81800501D01*
X184879056Y-81800501D01*
X184879057Y-81800501D01*
X185031785Y-81759577D01*
X185081904Y-81730639D01*
X185168716Y-81680520D01*
X185240144Y-81609091D01*
X185254052Y-81598613D01*
X185282416Y-81584933D01*
X185308599Y-81567439D01*
X185332628Y-81560719D01*
X185341562Y-81556411D01*
X185349681Y-81555950D01*
X185366019Y-81551381D01*
X185700000Y-81500000D01*
X185722621Y-81476437D01*
X185924652Y-81265987D01*
X186590964Y-80571912D01*
X201417000Y-80571912D01*
X201417000Y-80808087D01*
X201417001Y-80808103D01*
X201453946Y-81041364D01*
X201453947Y-81041368D01*
X201526932Y-81265992D01*
X201533589Y-81279057D01*
X201634159Y-81476437D01*
X201772978Y-81667504D01*
X201772980Y-81667506D01*
X201772983Y-81667510D01*
X201939990Y-81834517D01*
X201939993Y-81834519D01*
X201939995Y-81834521D01*
X202131062Y-81973340D01*
X202131064Y-81973341D01*
X202131067Y-81973343D01*
X202341508Y-82080568D01*
X202566132Y-82153553D01*
X202799408Y-82190500D01*
X202799412Y-82190500D01*
X203035588Y-82190500D01*
X203035592Y-82190500D01*
X203268868Y-82153553D01*
X203493492Y-82080568D01*
X203703933Y-81973343D01*
X203895010Y-81834517D01*
X204062017Y-81667510D01*
X204200843Y-81476433D01*
X204308068Y-81265992D01*
X204381053Y-81041368D01*
X204418000Y-80808092D01*
X204418000Y-80571908D01*
X204381053Y-80338632D01*
X204308068Y-80114008D01*
X204200843Y-79903567D01*
X204200841Y-79903564D01*
X204200840Y-79903562D01*
X204062021Y-79712495D01*
X204062019Y-79712493D01*
X204062017Y-79712490D01*
X203895010Y-79545483D01*
X203895006Y-79545480D01*
X203895004Y-79545478D01*
X203703937Y-79406659D01*
X203690247Y-79399683D01*
X203493492Y-79299432D01*
X203493489Y-79299431D01*
X203493487Y-79299430D01*
X203368579Y-79258845D01*
X203268868Y-79226447D01*
X203268866Y-79226446D01*
X203268864Y-79226446D01*
X203035603Y-79189501D01*
X203035594Y-79189500D01*
X203035592Y-79189500D01*
X202799408Y-79189500D01*
X202799405Y-79189500D01*
X202799396Y-79189501D01*
X202566135Y-79226446D01*
X202341512Y-79299430D01*
X202131062Y-79406659D01*
X201939995Y-79545478D01*
X201772978Y-79712495D01*
X201634159Y-79903562D01*
X201526930Y-80114012D01*
X201453946Y-80338635D01*
X201417001Y-80571896D01*
X201417000Y-80571912D01*
X186590964Y-80571912D01*
X188026025Y-79077057D01*
X188105685Y-79021446D01*
X188200566Y-79000552D01*
X188205647Y-79000500D01*
X189065283Y-79000500D01*
X189160571Y-79019454D01*
X189241349Y-79073427D01*
X189289711Y-79121789D01*
X189289714Y-79121791D01*
X189420819Y-79209393D01*
X189420820Y-79209393D01*
X189420821Y-79209394D01*
X189566503Y-79269737D01*
X189566505Y-79269737D01*
X189566507Y-79269738D01*
X189715779Y-79299430D01*
X189721158Y-79300500D01*
X189878842Y-79300500D01*
X190033497Y-79269737D01*
X190179179Y-79209394D01*
X190310289Y-79121789D01*
X190421789Y-79010289D01*
X190421791Y-79010285D01*
X190430439Y-79001638D01*
X190432831Y-79004030D01*
X190489746Y-78957258D01*
X190582698Y-78928993D01*
X190600064Y-78927882D01*
X198500000Y-78700000D01*
X205247194Y-78507223D01*
X205342984Y-78523447D01*
G37*
%TD.AperFunction*%
%TD*%
%TA.AperFunction,Conductor*%
%TO.N,Net-(J16-Pin_1)*%
G36*
X163754461Y-109196589D02*
G01*
X163849474Y-109216864D01*
X163929498Y-109271958D01*
X163982347Y-109353481D01*
X164000000Y-109445565D01*
X164000000Y-114207618D01*
X163981046Y-114302906D01*
X163939745Y-114370026D01*
X160299999Y-118599999D01*
X160202165Y-129753184D01*
X160182376Y-129848302D01*
X160127693Y-129928607D01*
X160046442Y-129981873D01*
X159953175Y-130000000D01*
X148649000Y-130000000D01*
X148553712Y-129981046D01*
X148472930Y-129927070D01*
X148418954Y-129846288D01*
X148400000Y-129751000D01*
X148400000Y-124381989D01*
X154899500Y-124381989D01*
X154899500Y-124618011D01*
X154930307Y-124852014D01*
X154991393Y-125079989D01*
X154991394Y-125079992D01*
X155081713Y-125298043D01*
X155081718Y-125298054D01*
X155199721Y-125502440D01*
X155199727Y-125502450D01*
X155343408Y-125689699D01*
X155510301Y-125856592D01*
X155697550Y-126000273D01*
X155697559Y-126000278D01*
X155901945Y-126118281D01*
X155901948Y-126118282D01*
X155901951Y-126118284D01*
X156120007Y-126208606D01*
X156347986Y-126269693D01*
X156581989Y-126300500D01*
X156818011Y-126300500D01*
X157052014Y-126269693D01*
X157279993Y-126208606D01*
X157498049Y-126118284D01*
X157702450Y-126000273D01*
X157889699Y-125856592D01*
X158056592Y-125689699D01*
X158200273Y-125502450D01*
X158318284Y-125298049D01*
X158408606Y-125079993D01*
X158469693Y-124852014D01*
X158500500Y-124618011D01*
X158500500Y-124381989D01*
X158469693Y-124147986D01*
X158408606Y-123920007D01*
X158318284Y-123701951D01*
X158200273Y-123497550D01*
X158056592Y-123310301D01*
X157889699Y-123143408D01*
X157702450Y-122999727D01*
X157670610Y-122981344D01*
X157498054Y-122881718D01*
X157498043Y-122881713D01*
X157377222Y-122831667D01*
X157279993Y-122791394D01*
X157052014Y-122730307D01*
X157052007Y-122730306D01*
X156818011Y-122699500D01*
X156581989Y-122699500D01*
X156347992Y-122730306D01*
X156347990Y-122730306D01*
X156347986Y-122730307D01*
X156175640Y-122776487D01*
X156120010Y-122791393D01*
X156120007Y-122791394D01*
X155901956Y-122881713D01*
X155901945Y-122881718D01*
X155697559Y-122999721D01*
X155697549Y-122999727D01*
X155510301Y-123143408D01*
X155510297Y-123143411D01*
X155343411Y-123310297D01*
X155343408Y-123310301D01*
X155199727Y-123497549D01*
X155199721Y-123497559D01*
X155081718Y-123701945D01*
X155081713Y-123701956D01*
X154991394Y-123920007D01*
X154930307Y-124147986D01*
X154899500Y-124381989D01*
X148400000Y-124381989D01*
X148400000Y-118992111D01*
X148418954Y-118896823D01*
X148459945Y-118830064D01*
X148657144Y-118599999D01*
X156724103Y-109188546D01*
X156800505Y-109128535D01*
X156894059Y-109102328D01*
X156916599Y-109101619D01*
X163754461Y-109196589D01*
G37*
%TD.AperFunction*%
%TD*%
%TA.AperFunction,Conductor*%
%TO.N,+24V*%
G36*
X44229069Y-101639412D02*
G01*
X61209501Y-105780383D01*
X61297579Y-105821371D01*
X61363272Y-105892950D01*
X61396572Y-105984219D01*
X61399500Y-106022291D01*
X61399500Y-116863000D01*
X61380546Y-116958288D01*
X61326570Y-117039070D01*
X61245788Y-117093046D01*
X61150500Y-117112000D01*
X56636391Y-117112000D01*
X56541103Y-117093046D01*
X56498054Y-117070036D01*
X56379180Y-116990606D01*
X56379173Y-116990603D01*
X56233497Y-116930263D01*
X56233492Y-116930261D01*
X56078846Y-116899500D01*
X56078842Y-116899500D01*
X55921158Y-116899500D01*
X55921153Y-116899500D01*
X55766507Y-116930261D01*
X55766502Y-116930263D01*
X55620826Y-116990603D01*
X55620819Y-116990606D01*
X55489714Y-117078208D01*
X55378208Y-117189714D01*
X55290607Y-117320819D01*
X55282980Y-117339232D01*
X55229002Y-117420012D01*
X55148220Y-117473987D01*
X55056417Y-117492916D01*
X49531489Y-117570188D01*
X49489055Y-117567146D01*
X49361865Y-117547001D01*
X49361856Y-117547000D01*
X49361854Y-117547000D01*
X49038146Y-117547000D01*
X49038143Y-117547000D01*
X49038135Y-117547001D01*
X48847404Y-117577210D01*
X48811934Y-117580252D01*
X47400000Y-117600000D01*
X47464110Y-125549693D01*
X47497976Y-129748992D01*
X47479791Y-129844430D01*
X47426468Y-129925644D01*
X47346124Y-129980270D01*
X47250992Y-129999992D01*
X47248984Y-130000000D01*
X28556597Y-130000000D01*
X28461309Y-129981046D01*
X28380527Y-129927070D01*
X28326551Y-129846288D01*
X28307597Y-129751000D01*
X28313907Y-123661989D01*
X32299500Y-123661989D01*
X32299500Y-123898011D01*
X32330307Y-124132014D01*
X32391393Y-124359989D01*
X32391394Y-124359992D01*
X32481713Y-124578043D01*
X32481718Y-124578054D01*
X32599721Y-124782440D01*
X32599727Y-124782450D01*
X32743408Y-124969699D01*
X32910301Y-125136592D01*
X33097550Y-125280273D01*
X33097559Y-125280278D01*
X33301945Y-125398281D01*
X33301948Y-125398282D01*
X33301951Y-125398284D01*
X33520007Y-125488606D01*
X33747986Y-125549693D01*
X33981989Y-125580500D01*
X34218011Y-125580500D01*
X34452014Y-125549693D01*
X34679993Y-125488606D01*
X34898049Y-125398284D01*
X35102450Y-125280273D01*
X35289699Y-125136592D01*
X35456592Y-124969699D01*
X35600273Y-124782450D01*
X35718284Y-124578049D01*
X35808606Y-124359993D01*
X35869693Y-124132014D01*
X35900500Y-123898011D01*
X35900500Y-123661989D01*
X35869693Y-123427986D01*
X35808606Y-123200007D01*
X35718284Y-122981951D01*
X35600273Y-122777550D01*
X35456592Y-122590301D01*
X35289699Y-122423408D01*
X35102450Y-122279727D01*
X35102440Y-122279721D01*
X34898054Y-122161718D01*
X34898043Y-122161713D01*
X34777222Y-122111667D01*
X34679993Y-122071394D01*
X34452014Y-122010307D01*
X34452007Y-122010306D01*
X34218011Y-121979500D01*
X33981989Y-121979500D01*
X33747992Y-122010306D01*
X33747990Y-122010306D01*
X33747986Y-122010307D01*
X33575640Y-122056487D01*
X33520010Y-122071393D01*
X33520007Y-122071394D01*
X33301956Y-122161713D01*
X33301945Y-122161718D01*
X33097559Y-122279721D01*
X33097549Y-122279727D01*
X32910301Y-122423408D01*
X32910297Y-122423411D01*
X32743411Y-122590297D01*
X32743408Y-122590301D01*
X32599727Y-122777549D01*
X32599721Y-122777559D01*
X32481718Y-122981945D01*
X32481713Y-122981956D01*
X32391394Y-123200007D01*
X32330307Y-123427986D01*
X32299500Y-123661989D01*
X28313907Y-123661989D01*
X28332850Y-105381912D01*
X33799500Y-105381912D01*
X33799500Y-105618087D01*
X33799501Y-105618103D01*
X33825204Y-105780383D01*
X33836447Y-105851368D01*
X33909432Y-106075992D01*
X34009683Y-106272747D01*
X34016659Y-106286437D01*
X34155478Y-106477504D01*
X34155480Y-106477506D01*
X34155483Y-106477510D01*
X34322490Y-106644517D01*
X34322493Y-106644519D01*
X34322495Y-106644521D01*
X34513562Y-106783340D01*
X34513564Y-106783341D01*
X34513567Y-106783343D01*
X34724008Y-106890568D01*
X34948632Y-106963553D01*
X35181908Y-107000500D01*
X35181912Y-107000500D01*
X35418088Y-107000500D01*
X35418092Y-107000500D01*
X35651368Y-106963553D01*
X35875992Y-106890568D01*
X36086433Y-106783343D01*
X36277510Y-106644517D01*
X36444517Y-106477510D01*
X36583343Y-106286433D01*
X36690568Y-106075992D01*
X36763553Y-105851368D01*
X36800500Y-105618092D01*
X36800500Y-105381908D01*
X36763553Y-105148632D01*
X36690568Y-104924008D01*
X36583343Y-104713567D01*
X36583341Y-104713564D01*
X36583340Y-104713562D01*
X36444521Y-104522495D01*
X36444519Y-104522493D01*
X36444517Y-104522490D01*
X36277510Y-104355483D01*
X36277506Y-104355480D01*
X36277504Y-104355478D01*
X36086437Y-104216659D01*
X36072747Y-104209683D01*
X35875992Y-104109432D01*
X35875989Y-104109431D01*
X35875987Y-104109430D01*
X35751079Y-104068845D01*
X35651368Y-104036447D01*
X35651366Y-104036446D01*
X35651364Y-104036446D01*
X35418103Y-103999501D01*
X35418094Y-103999500D01*
X35418092Y-103999500D01*
X35181908Y-103999500D01*
X35181905Y-103999500D01*
X35181896Y-103999501D01*
X34948635Y-104036446D01*
X34724012Y-104109430D01*
X34513562Y-104216659D01*
X34322495Y-104355478D01*
X34155478Y-104522495D01*
X34016659Y-104713562D01*
X33909430Y-104924012D01*
X33836446Y-105148635D01*
X33799501Y-105381896D01*
X33799500Y-105381912D01*
X28332850Y-105381912D01*
X28336478Y-101881064D01*
X28355531Y-101785796D01*
X28409591Y-101705071D01*
X28490428Y-101651178D01*
X28585478Y-101632323D01*
X44170075Y-101632323D01*
X44229069Y-101639412D01*
G37*
%TD.AperFunction*%
%TD*%
%TA.AperFunction,Conductor*%
%TO.N,/Signal Outputs/LED_24V_CH4*%
G36*
X206037865Y-106624862D02*
G01*
X206120555Y-106675867D01*
X206177431Y-106754634D01*
X206199836Y-106849170D01*
X206200000Y-106858219D01*
X206200000Y-112199982D01*
X206295575Y-117647792D01*
X206278295Y-117743398D01*
X206225744Y-117825114D01*
X206145922Y-117880499D01*
X206050981Y-117901122D01*
X206047755Y-117901157D01*
X184754690Y-117998831D01*
X184659316Y-117980315D01*
X184578288Y-117926709D01*
X184523942Y-117846176D01*
X184504551Y-117750976D01*
X184504588Y-117745348D01*
X184506346Y-117647792D01*
X184611417Y-111816352D01*
X184632084Y-111721426D01*
X184687507Y-111641630D01*
X184749334Y-111601130D01*
X184748082Y-111598672D01*
X184756796Y-111594231D01*
X184756799Y-111594231D01*
X184960228Y-111490579D01*
X185144937Y-111356379D01*
X185306379Y-111194937D01*
X185440579Y-111010228D01*
X185544231Y-110806799D01*
X185614784Y-110589660D01*
X185647688Y-110381912D01*
X201417000Y-110381912D01*
X201417000Y-110618087D01*
X201417001Y-110618103D01*
X201453946Y-110851364D01*
X201505562Y-111010224D01*
X201526932Y-111075992D01*
X201627183Y-111272747D01*
X201634159Y-111286437D01*
X201772978Y-111477504D01*
X201772980Y-111477506D01*
X201772983Y-111477510D01*
X201939990Y-111644517D01*
X201939993Y-111644519D01*
X201939995Y-111644521D01*
X202131062Y-111783340D01*
X202131064Y-111783341D01*
X202131067Y-111783343D01*
X202341508Y-111890568D01*
X202566132Y-111963553D01*
X202799408Y-112000500D01*
X202799412Y-112000500D01*
X203035588Y-112000500D01*
X203035592Y-112000500D01*
X203268868Y-111963553D01*
X203493492Y-111890568D01*
X203703933Y-111783343D01*
X203895010Y-111644517D01*
X204062017Y-111477510D01*
X204200843Y-111286433D01*
X204308068Y-111075992D01*
X204381053Y-110851368D01*
X204418000Y-110618092D01*
X204418000Y-110381908D01*
X204381053Y-110148632D01*
X204308068Y-109924008D01*
X204200843Y-109713567D01*
X204200841Y-109713564D01*
X204200840Y-109713562D01*
X204062021Y-109522495D01*
X204062019Y-109522493D01*
X204062017Y-109522490D01*
X203895010Y-109355483D01*
X203895006Y-109355480D01*
X203895004Y-109355478D01*
X203703937Y-109216659D01*
X203690247Y-109209683D01*
X203493492Y-109109432D01*
X203493489Y-109109431D01*
X203493487Y-109109430D01*
X203368579Y-109068845D01*
X203268868Y-109036447D01*
X203268866Y-109036446D01*
X203268864Y-109036446D01*
X203035603Y-108999501D01*
X203035594Y-108999500D01*
X203035592Y-108999500D01*
X202799408Y-108999500D01*
X202799405Y-108999500D01*
X202799396Y-108999501D01*
X202566135Y-109036446D01*
X202341512Y-109109430D01*
X202131062Y-109216659D01*
X201939995Y-109355478D01*
X201772978Y-109522495D01*
X201634159Y-109713562D01*
X201526930Y-109924012D01*
X201453946Y-110148635D01*
X201417001Y-110381896D01*
X201417000Y-110381912D01*
X185647688Y-110381912D01*
X185650500Y-110364157D01*
X185650500Y-110135843D01*
X185614784Y-109910340D01*
X185544231Y-109693201D01*
X185440579Y-109489772D01*
X185306379Y-109305063D01*
X185144937Y-109143621D01*
X184960228Y-109009421D01*
X184960223Y-109009418D01*
X184960219Y-109009415D01*
X184803425Y-108929525D01*
X184727128Y-108869377D01*
X184679656Y-108784610D01*
X184667510Y-108703186D01*
X184695592Y-107144591D01*
X184716260Y-107049665D01*
X184771683Y-106969869D01*
X184853424Y-106917357D01*
X184944635Y-106900082D01*
X198550420Y-106904647D01*
X200698418Y-106800077D01*
X200701434Y-106799947D01*
X201191153Y-106782139D01*
X201287062Y-106797618D01*
X201369752Y-106848623D01*
X201426628Y-106927390D01*
X201446131Y-106992023D01*
X201453946Y-107041364D01*
X201453947Y-107041368D01*
X201526932Y-107265992D01*
X201627183Y-107462747D01*
X201634159Y-107476437D01*
X201772978Y-107667504D01*
X201772980Y-107667506D01*
X201772983Y-107667510D01*
X201939990Y-107834517D01*
X201939993Y-107834519D01*
X201939995Y-107834521D01*
X202131062Y-107973340D01*
X202131064Y-107973341D01*
X202131067Y-107973343D01*
X202341508Y-108080568D01*
X202566132Y-108153553D01*
X202799408Y-108190500D01*
X202799412Y-108190500D01*
X203035588Y-108190500D01*
X203035592Y-108190500D01*
X203268868Y-108153553D01*
X203493492Y-108080568D01*
X203703933Y-107973343D01*
X203895010Y-107834517D01*
X204062017Y-107667510D01*
X204200843Y-107476433D01*
X204308068Y-107265992D01*
X204381053Y-107041368D01*
X204408764Y-106866401D01*
X204442390Y-106775256D01*
X204508339Y-106703912D01*
X204596569Y-106663237D01*
X204645640Y-106656522D01*
X205941954Y-106609383D01*
X206037865Y-106624862D01*
G37*
%TD.AperFunction*%
%TD*%
%TA.AperFunction,Conductor*%
%TO.N,/Signal Outputs/LED_24V_CH3*%
G36*
X207242360Y-118924401D02*
G01*
X207324953Y-118975561D01*
X207381682Y-119054435D01*
X207403908Y-119149013D01*
X207404025Y-119153642D01*
X207416794Y-119958108D01*
X207416825Y-119962318D01*
X207406589Y-129851258D01*
X207387536Y-129946526D01*
X207333476Y-130027252D01*
X207252639Y-130081145D01*
X207157589Y-130100000D01*
X185900000Y-130100000D01*
X185149000Y-130100000D01*
X185053712Y-130081046D01*
X184972930Y-130027070D01*
X184918954Y-129946288D01*
X184900000Y-129851000D01*
X184900000Y-124661209D01*
X184918954Y-124565921D01*
X184972930Y-124485139D01*
X185002640Y-124459765D01*
X185043434Y-124430125D01*
X185144937Y-124356379D01*
X185306379Y-124194937D01*
X185440579Y-124010228D01*
X185544231Y-123806799D01*
X185614784Y-123589660D01*
X185647688Y-123381912D01*
X201499500Y-123381912D01*
X201499500Y-123618087D01*
X201499501Y-123618103D01*
X201536446Y-123851364D01*
X201588062Y-124010224D01*
X201609432Y-124075992D01*
X201709683Y-124272747D01*
X201716659Y-124286437D01*
X201855478Y-124477504D01*
X201855480Y-124477506D01*
X201855483Y-124477510D01*
X202022490Y-124644517D01*
X202022493Y-124644519D01*
X202022495Y-124644521D01*
X202213562Y-124783340D01*
X202213564Y-124783341D01*
X202213567Y-124783343D01*
X202424008Y-124890568D01*
X202648632Y-124963553D01*
X202881908Y-125000500D01*
X202881912Y-125000500D01*
X203118088Y-125000500D01*
X203118092Y-125000500D01*
X203351368Y-124963553D01*
X203575992Y-124890568D01*
X203786433Y-124783343D01*
X203977510Y-124644517D01*
X204144517Y-124477510D01*
X204283343Y-124286433D01*
X204390568Y-124075992D01*
X204463553Y-123851368D01*
X204500500Y-123618092D01*
X204500500Y-123381908D01*
X204463553Y-123148632D01*
X204390568Y-122924008D01*
X204283343Y-122713567D01*
X204283341Y-122713564D01*
X204283340Y-122713562D01*
X204144521Y-122522495D01*
X204144519Y-122522493D01*
X204144517Y-122522490D01*
X203977510Y-122355483D01*
X203977506Y-122355480D01*
X203977504Y-122355478D01*
X203786437Y-122216659D01*
X203772747Y-122209683D01*
X203575992Y-122109432D01*
X203575989Y-122109431D01*
X203575987Y-122109430D01*
X203451079Y-122068845D01*
X203351368Y-122036447D01*
X203351366Y-122036446D01*
X203351364Y-122036446D01*
X203118103Y-121999501D01*
X203118094Y-121999500D01*
X203118092Y-121999500D01*
X202881908Y-121999500D01*
X202881905Y-121999500D01*
X202881896Y-121999501D01*
X202648635Y-122036446D01*
X202424012Y-122109430D01*
X202213562Y-122216659D01*
X202022495Y-122355478D01*
X201855478Y-122522495D01*
X201716659Y-122713562D01*
X201609430Y-122924012D01*
X201536446Y-123148635D01*
X201499501Y-123381896D01*
X201499500Y-123381912D01*
X185647688Y-123381912D01*
X185650500Y-123364157D01*
X185650500Y-123135843D01*
X185614784Y-122910340D01*
X185544231Y-122693201D01*
X185440579Y-122489772D01*
X185306379Y-122305063D01*
X185144937Y-122143621D01*
X185144933Y-122143618D01*
X185002640Y-122040235D01*
X184936692Y-121968892D01*
X184903065Y-121877742D01*
X184900000Y-121838791D01*
X184900000Y-119347476D01*
X184918954Y-119252188D01*
X184972930Y-119171406D01*
X185053712Y-119117430D01*
X185147468Y-119098481D01*
X201199185Y-119000005D01*
X201200713Y-119000000D01*
X201303756Y-119000000D01*
X201399044Y-119018954D01*
X201479826Y-119072930D01*
X201533802Y-119153712D01*
X201552756Y-119249000D01*
X201540570Y-119325942D01*
X201536446Y-119338634D01*
X201499501Y-119571896D01*
X201499500Y-119571912D01*
X201499500Y-119808087D01*
X201499501Y-119808103D01*
X201536446Y-120041364D01*
X201536447Y-120041368D01*
X201609432Y-120265992D01*
X201709683Y-120462747D01*
X201716659Y-120476437D01*
X201855478Y-120667504D01*
X201855480Y-120667506D01*
X201855483Y-120667510D01*
X202022490Y-120834517D01*
X202022493Y-120834519D01*
X202022495Y-120834521D01*
X202213562Y-120973340D01*
X202213564Y-120973341D01*
X202213567Y-120973343D01*
X202424008Y-121080568D01*
X202648632Y-121153553D01*
X202881908Y-121190500D01*
X202881912Y-121190500D01*
X203118088Y-121190500D01*
X203118092Y-121190500D01*
X203351368Y-121153553D01*
X203575992Y-121080568D01*
X203786433Y-120973343D01*
X203977510Y-120834517D01*
X204144517Y-120667510D01*
X204283343Y-120476433D01*
X204390568Y-120265992D01*
X204463553Y-120041368D01*
X204500500Y-119808092D01*
X204500500Y-119571908D01*
X204463553Y-119338632D01*
X204457304Y-119319401D01*
X204445883Y-119222924D01*
X204472253Y-119129416D01*
X204532399Y-119053117D01*
X204617165Y-119005643D01*
X204685533Y-118993602D01*
X207146476Y-118908742D01*
X207242360Y-118924401D01*
G37*
%TD.AperFunction*%
%TD*%
%TA.AperFunction,Conductor*%
%TO.N,/Signal Outputs/LED_24V_CH2*%
G36*
X201308225Y-93788161D02*
G01*
X201375218Y-93808002D01*
X201420850Y-93860912D01*
X201430409Y-93892762D01*
X201453947Y-94041369D01*
X201526933Y-94265996D01*
X201634157Y-94476433D01*
X201772983Y-94667510D01*
X201939990Y-94834517D01*
X202131067Y-94973343D01*
X202230491Y-95024002D01*
X202341503Y-95080566D01*
X202341505Y-95080566D01*
X202341508Y-95080568D01*
X202419001Y-95105747D01*
X202566131Y-95153553D01*
X202799403Y-95190500D01*
X202799408Y-95190500D01*
X203035597Y-95190500D01*
X203268868Y-95153553D01*
X203493492Y-95080568D01*
X203703933Y-94973343D01*
X203895010Y-94834517D01*
X204062017Y-94667510D01*
X204200843Y-94476433D01*
X204308068Y-94265992D01*
X204381053Y-94041368D01*
X204403405Y-93900244D01*
X204433334Y-93837109D01*
X204492646Y-93800178D01*
X204526156Y-93795643D01*
X206276045Y-93799711D01*
X206343037Y-93819552D01*
X206388669Y-93872462D01*
X206399755Y-93923956D01*
X206389387Y-99181848D01*
X206487183Y-104756237D01*
X206468677Y-104823611D01*
X206416684Y-104870285D01*
X206363766Y-104882411D01*
X184611726Y-104981283D01*
X184544597Y-104961903D01*
X184498603Y-104909308D01*
X184487183Y-104859522D01*
X184408813Y-100510013D01*
X201417500Y-100510013D01*
X201417500Y-101060000D01*
X202426752Y-101060000D01*
X202404982Y-101097708D01*
X202367500Y-101237591D01*
X202367500Y-101382409D01*
X202404982Y-101522292D01*
X202426752Y-101560000D01*
X201417501Y-101560000D01*
X201417501Y-102109986D01*
X201427994Y-102212697D01*
X201483141Y-102379119D01*
X201483143Y-102379124D01*
X201575184Y-102528345D01*
X201699154Y-102652315D01*
X201848375Y-102744356D01*
X201848380Y-102744358D01*
X202014802Y-102799505D01*
X202014809Y-102799506D01*
X202117519Y-102809999D01*
X202667499Y-102809999D01*
X202667500Y-102809998D01*
X202667500Y-101800747D01*
X202705208Y-101822518D01*
X202845091Y-101860000D01*
X202989909Y-101860000D01*
X203129792Y-101822518D01*
X203167500Y-101800747D01*
X203167500Y-102809999D01*
X203717472Y-102809999D01*
X203717486Y-102809998D01*
X203820197Y-102799505D01*
X203986619Y-102744358D01*
X203986624Y-102744356D01*
X204135845Y-102652315D01*
X204259815Y-102528345D01*
X204351856Y-102379124D01*
X204351858Y-102379119D01*
X204407005Y-102212697D01*
X204407006Y-102212690D01*
X204417499Y-102109986D01*
X204417500Y-102109973D01*
X204417500Y-101560000D01*
X203408248Y-101560000D01*
X203430018Y-101522292D01*
X203467500Y-101382409D01*
X203467500Y-101237591D01*
X203430018Y-101097708D01*
X203408248Y-101060000D01*
X204417499Y-101060000D01*
X204417499Y-100510028D01*
X204417498Y-100510013D01*
X204407005Y-100407302D01*
X204351858Y-100240880D01*
X204351856Y-100240875D01*
X204259815Y-100091654D01*
X204135845Y-99967684D01*
X203986624Y-99875643D01*
X203986619Y-99875641D01*
X203820197Y-99820494D01*
X203820190Y-99820493D01*
X203717486Y-99810000D01*
X203167500Y-99810000D01*
X203167500Y-100819252D01*
X203129792Y-100797482D01*
X202989909Y-100760000D01*
X202845091Y-100760000D01*
X202705208Y-100797482D01*
X202667500Y-100819252D01*
X202667500Y-99810000D01*
X202117528Y-99810000D01*
X202117512Y-99810001D01*
X202014802Y-99820494D01*
X201848380Y-99875641D01*
X201848375Y-99875643D01*
X201699154Y-99967684D01*
X201575184Y-100091654D01*
X201483143Y-100240875D01*
X201483141Y-100240880D01*
X201427994Y-100407302D01*
X201427993Y-100407309D01*
X201417500Y-100510013D01*
X184408813Y-100510013D01*
X184385162Y-99197389D01*
X184403635Y-99130013D01*
X184455606Y-99083314D01*
X184489733Y-99072691D01*
X184539660Y-99064784D01*
X184756799Y-98994231D01*
X184960228Y-98890579D01*
X185144937Y-98756379D01*
X185300297Y-98601018D01*
X185361617Y-98567536D01*
X185431308Y-98572520D01*
X185487242Y-98614391D01*
X185511659Y-98679856D01*
X185510449Y-98708098D01*
X185500000Y-98774075D01*
X185500000Y-99025928D01*
X185539397Y-99274669D01*
X185617219Y-99514184D01*
X185731557Y-99738583D01*
X185805748Y-99840697D01*
X185805748Y-99840698D01*
X186460690Y-99185756D01*
X186479668Y-99231574D01*
X186556274Y-99346224D01*
X186653776Y-99443726D01*
X186768426Y-99520332D01*
X186814242Y-99539309D01*
X186159300Y-100194250D01*
X186261416Y-100268442D01*
X186485815Y-100382780D01*
X186725330Y-100460602D01*
X186974072Y-100500000D01*
X187225928Y-100500000D01*
X187474669Y-100460602D01*
X187714184Y-100382780D01*
X187938575Y-100268446D01*
X187938581Y-100268442D01*
X188040697Y-100194250D01*
X188040698Y-100194250D01*
X187385757Y-99539309D01*
X187431574Y-99520332D01*
X187546224Y-99443726D01*
X187643726Y-99346224D01*
X187720332Y-99231574D01*
X187739309Y-99185757D01*
X188394250Y-99840698D01*
X188394250Y-99840697D01*
X188468442Y-99738581D01*
X188468446Y-99738575D01*
X188582780Y-99514184D01*
X188660602Y-99274669D01*
X188700000Y-99025928D01*
X188700000Y-98774071D01*
X188660602Y-98525330D01*
X188582780Y-98285815D01*
X188468442Y-98061416D01*
X188394250Y-97959301D01*
X188394250Y-97959300D01*
X187739309Y-98614241D01*
X187720332Y-98568426D01*
X187643726Y-98453776D01*
X187546224Y-98356274D01*
X187431574Y-98279668D01*
X187385755Y-98260689D01*
X187996446Y-97650000D01*
X187996446Y-97649999D01*
X187385757Y-97039309D01*
X187431574Y-97020332D01*
X187546224Y-96943726D01*
X187643726Y-96846224D01*
X187720332Y-96731574D01*
X187739309Y-96685757D01*
X188394250Y-97340698D01*
X188394250Y-97340697D01*
X188468442Y-97238581D01*
X188468446Y-97238575D01*
X188582780Y-97014184D01*
X188660602Y-96774669D01*
X188700000Y-96525928D01*
X188700000Y-96274071D01*
X189000000Y-96274071D01*
X189000000Y-96525928D01*
X189039397Y-96774669D01*
X189117219Y-97014184D01*
X189231557Y-97238583D01*
X189305748Y-97340697D01*
X189305748Y-97340698D01*
X189960690Y-96685756D01*
X189979668Y-96731574D01*
X190056274Y-96846224D01*
X190153776Y-96943726D01*
X190268426Y-97020332D01*
X190314243Y-97039309D01*
X189703553Y-97650000D01*
X190314243Y-98260690D01*
X190268426Y-98279668D01*
X190153776Y-98356274D01*
X190056274Y-98453776D01*
X189979668Y-98568426D01*
X189960690Y-98614242D01*
X189305748Y-97959300D01*
X189305747Y-97959301D01*
X189231559Y-98061413D01*
X189117219Y-98285815D01*
X189039397Y-98525330D01*
X189000000Y-98774071D01*
X189000000Y-99025928D01*
X189039397Y-99274669D01*
X189117219Y-99514184D01*
X189231557Y-99738583D01*
X189305748Y-99840697D01*
X189305748Y-99840698D01*
X189960690Y-99185756D01*
X189979668Y-99231574D01*
X190056274Y-99346224D01*
X190153776Y-99443726D01*
X190268426Y-99520332D01*
X190314242Y-99539309D01*
X189659300Y-100194250D01*
X189761416Y-100268442D01*
X189985815Y-100382780D01*
X190225330Y-100460602D01*
X190474072Y-100500000D01*
X190725928Y-100500000D01*
X190974669Y-100460602D01*
X191195249Y-100388933D01*
X191214184Y-100382780D01*
X191438575Y-100268446D01*
X191438581Y-100268442D01*
X191540697Y-100194250D01*
X191540698Y-100194250D01*
X190885757Y-99539309D01*
X190931574Y-99520332D01*
X191046224Y-99443726D01*
X191143726Y-99346224D01*
X191220332Y-99231574D01*
X191239309Y-99185757D01*
X191894250Y-99840698D01*
X191894250Y-99840697D01*
X191968442Y-99738581D01*
X191968446Y-99738575D01*
X192082780Y-99514184D01*
X192160602Y-99274669D01*
X192200000Y-99025928D01*
X192200000Y-98774071D01*
X192160602Y-98525330D01*
X192082780Y-98285815D01*
X191968442Y-98061416D01*
X191894250Y-97959301D01*
X191894250Y-97959300D01*
X191239309Y-98614241D01*
X191220332Y-98568426D01*
X191143726Y-98453776D01*
X191046224Y-98356274D01*
X190931574Y-98279668D01*
X190885755Y-98260689D01*
X191496446Y-97650000D01*
X191496446Y-97649999D01*
X191228349Y-97381902D01*
X201417000Y-97381902D01*
X201417000Y-97618097D01*
X201453946Y-97851368D01*
X201526933Y-98075996D01*
X201590117Y-98200000D01*
X201634157Y-98286433D01*
X201772983Y-98477510D01*
X201939990Y-98644517D01*
X202131067Y-98783343D01*
X202224709Y-98831056D01*
X202341503Y-98890566D01*
X202341505Y-98890566D01*
X202341508Y-98890568D01*
X202461912Y-98929689D01*
X202566131Y-98963553D01*
X202799403Y-99000500D01*
X202799408Y-99000500D01*
X203035597Y-99000500D01*
X203268868Y-98963553D01*
X203493492Y-98890568D01*
X203703933Y-98783343D01*
X203895010Y-98644517D01*
X204062017Y-98477510D01*
X204200843Y-98286433D01*
X204308068Y-98075992D01*
X204381053Y-97851368D01*
X204394866Y-97764157D01*
X204418000Y-97618097D01*
X204418000Y-97381902D01*
X204381053Y-97148631D01*
X204337368Y-97014184D01*
X204308068Y-96924008D01*
X204308066Y-96924005D01*
X204308066Y-96924003D01*
X204200842Y-96713566D01*
X204190243Y-96698978D01*
X204062017Y-96522490D01*
X203895010Y-96355483D01*
X203703933Y-96216657D01*
X203493496Y-96109433D01*
X203268868Y-96036446D01*
X203035597Y-95999500D01*
X203035592Y-95999500D01*
X202799408Y-95999500D01*
X202799403Y-95999500D01*
X202566131Y-96036446D01*
X202341503Y-96109433D01*
X202131066Y-96216657D01*
X202022050Y-96295862D01*
X201939990Y-96355483D01*
X201939988Y-96355485D01*
X201939987Y-96355485D01*
X201772985Y-96522487D01*
X201772985Y-96522488D01*
X201772983Y-96522490D01*
X201757630Y-96543622D01*
X201634157Y-96713566D01*
X201526933Y-96924003D01*
X201453946Y-97148631D01*
X201417000Y-97381902D01*
X191228349Y-97381902D01*
X190885757Y-97039309D01*
X190931574Y-97020332D01*
X191046224Y-96943726D01*
X191143726Y-96846224D01*
X191220332Y-96731574D01*
X191239309Y-96685757D01*
X191894250Y-97340698D01*
X191894251Y-97340697D01*
X191920804Y-97304151D01*
X191920804Y-97304150D01*
X191968443Y-97238581D01*
X191968446Y-97238575D01*
X192082780Y-97014184D01*
X192160602Y-96774669D01*
X192200000Y-96525928D01*
X192200000Y-96274071D01*
X192160602Y-96025330D01*
X192082780Y-95785815D01*
X191968442Y-95561416D01*
X191894250Y-95459301D01*
X191894250Y-95459300D01*
X191239309Y-96114241D01*
X191220332Y-96068426D01*
X191143726Y-95953776D01*
X191046224Y-95856274D01*
X190931574Y-95779668D01*
X190885755Y-95760689D01*
X191540698Y-95105748D01*
X191438583Y-95031557D01*
X191214184Y-94917219D01*
X190974669Y-94839397D01*
X190725928Y-94800000D01*
X190474072Y-94800000D01*
X190225330Y-94839397D01*
X189985815Y-94917219D01*
X189761413Y-95031559D01*
X189659301Y-95105747D01*
X189659300Y-95105748D01*
X190314242Y-95760690D01*
X190268426Y-95779668D01*
X190153776Y-95856274D01*
X190056274Y-95953776D01*
X189979668Y-96068426D01*
X189960690Y-96114242D01*
X189305748Y-95459300D01*
X189305747Y-95459301D01*
X189231559Y-95561413D01*
X189117219Y-95785815D01*
X189039397Y-96025330D01*
X189000000Y-96274071D01*
X188700000Y-96274071D01*
X188660602Y-96025330D01*
X188582780Y-95785815D01*
X188468442Y-95561416D01*
X188394250Y-95459301D01*
X188394250Y-95459300D01*
X187739309Y-96114241D01*
X187720332Y-96068426D01*
X187643726Y-95953776D01*
X187546224Y-95856274D01*
X187431574Y-95779668D01*
X187385755Y-95760689D01*
X188040698Y-95105748D01*
X187938583Y-95031557D01*
X187714184Y-94917219D01*
X187474669Y-94839397D01*
X187225928Y-94800000D01*
X186974072Y-94800000D01*
X186725330Y-94839397D01*
X186485815Y-94917219D01*
X186261413Y-95031559D01*
X186159301Y-95105747D01*
X186159300Y-95105748D01*
X186814242Y-95760690D01*
X186768426Y-95779668D01*
X186653776Y-95856274D01*
X186556274Y-95953776D01*
X186479668Y-96068426D01*
X186460690Y-96114242D01*
X185805748Y-95459300D01*
X185805747Y-95459301D01*
X185731559Y-95561413D01*
X185617219Y-95785815D01*
X185539397Y-96025330D01*
X185500000Y-96274071D01*
X185500000Y-96525923D01*
X185510449Y-96591900D01*
X185501493Y-96661194D01*
X185456496Y-96714645D01*
X185389744Y-96735284D01*
X185322431Y-96716558D01*
X185300294Y-96698978D01*
X185144938Y-96543622D01*
X185115848Y-96522487D01*
X184960228Y-96409421D01*
X184756799Y-96305769D01*
X184539660Y-96235216D01*
X184539658Y-96235215D01*
X184433902Y-96218465D01*
X184370768Y-96188535D01*
X184333837Y-96129224D01*
X184329322Y-96098232D01*
X184291645Y-94007191D01*
X184310119Y-93939811D01*
X184362090Y-93893112D01*
X184414756Y-93880963D01*
X198588838Y-93781843D01*
X198589877Y-93781841D01*
X201308225Y-93788161D01*
G37*
%TD.AperFunction*%
%TA.AperFunction,Conductor*%
G36*
X186479668Y-96731574D02*
G01*
X186556274Y-96846224D01*
X186653776Y-96943726D01*
X186768426Y-97020332D01*
X186814243Y-97039309D01*
X186203553Y-97650000D01*
X186814243Y-98260690D01*
X186768426Y-98279668D01*
X186653776Y-98356274D01*
X186556274Y-98453776D01*
X186479668Y-98568426D01*
X186460690Y-98614242D01*
X185805748Y-97959300D01*
X185774050Y-97961795D01*
X185757899Y-97958401D01*
X185741480Y-97960055D01*
X185724413Y-97951367D01*
X185705673Y-97947430D01*
X185693920Y-97935844D01*
X185679214Y-97928358D01*
X185669554Y-97911823D01*
X185655916Y-97898379D01*
X185651982Y-97881746D01*
X185643969Y-97868030D01*
X185642907Y-97843372D01*
X185640434Y-97832913D01*
X185640736Y-97825804D01*
X185650500Y-97764157D01*
X185650500Y-97535843D01*
X185641045Y-97476150D01*
X185640664Y-97471020D01*
X185646957Y-97441688D01*
X185650803Y-97411926D01*
X185654211Y-97407877D01*
X185655321Y-97402705D01*
X185676472Y-97381432D01*
X185695799Y-97358474D01*
X185700854Y-97356910D01*
X185704585Y-97353159D01*
X185733888Y-97346696D01*
X185762551Y-97337834D01*
X185772611Y-97338156D01*
X185772815Y-97338112D01*
X185772967Y-97338168D01*
X185774051Y-97338203D01*
X185805749Y-97340697D01*
X186460690Y-96685756D01*
X186479668Y-96731574D01*
G37*
%TD.AperFunction*%
%TD*%
%TA.AperFunction,Conductor*%
%TO.N,Net-(J17-Pin_1)*%
G36*
X170745116Y-109218954D02*
G01*
X170825898Y-109272930D01*
X170879874Y-109353712D01*
X170898828Y-109449000D01*
X170898825Y-109450169D01*
X170830619Y-123978025D01*
X170811218Y-124073223D01*
X170756863Y-124153750D01*
X170675829Y-124207347D01*
X170580453Y-124225853D01*
X170485255Y-124206452D01*
X170404728Y-124152097D01*
X170351131Y-124071063D01*
X170341109Y-124041311D01*
X170308606Y-123920007D01*
X170218284Y-123701951D01*
X170100273Y-123497550D01*
X169956592Y-123310301D01*
X169789699Y-123143408D01*
X169602450Y-122999727D01*
X169602440Y-122999721D01*
X169398054Y-122881718D01*
X169398043Y-122881713D01*
X169277222Y-122831667D01*
X169179993Y-122791394D01*
X168952014Y-122730307D01*
X168952007Y-122730306D01*
X168718011Y-122699500D01*
X168481989Y-122699500D01*
X168247992Y-122730306D01*
X168247990Y-122730306D01*
X168247986Y-122730307D01*
X168075640Y-122776487D01*
X168020010Y-122791393D01*
X168020007Y-122791394D01*
X167801956Y-122881713D01*
X167801945Y-122881718D01*
X167597559Y-122999721D01*
X167597549Y-122999727D01*
X167410301Y-123143408D01*
X167410297Y-123143411D01*
X167243411Y-123310297D01*
X167243408Y-123310301D01*
X167099727Y-123497549D01*
X167099721Y-123497559D01*
X166981718Y-123701945D01*
X166981713Y-123701956D01*
X166891394Y-123920007D01*
X166891393Y-123920010D01*
X166889786Y-123926008D01*
X166830307Y-124147986D01*
X166799500Y-124381989D01*
X166799500Y-124618011D01*
X166830307Y-124852014D01*
X166872452Y-125009300D01*
X166891393Y-125079989D01*
X166891394Y-125079992D01*
X166981713Y-125298043D01*
X166981718Y-125298054D01*
X167084293Y-125475718D01*
X167099727Y-125502450D01*
X167243408Y-125689699D01*
X167410301Y-125856592D01*
X167597550Y-126000273D01*
X167597559Y-126000278D01*
X167801945Y-126118281D01*
X167801948Y-126118282D01*
X167801951Y-126118284D01*
X168020007Y-126208606D01*
X168247986Y-126269693D01*
X168481989Y-126300500D01*
X168718011Y-126300500D01*
X168952014Y-126269693D01*
X169179993Y-126208606D01*
X169398049Y-126118284D01*
X169602450Y-126000273D01*
X169789699Y-125856592D01*
X169956592Y-125689699D01*
X170100273Y-125502450D01*
X170218284Y-125298049D01*
X170308606Y-125079993D01*
X170336107Y-124977355D01*
X170379076Y-124890223D01*
X170452120Y-124826164D01*
X170544119Y-124794934D01*
X170641066Y-124801287D01*
X170728202Y-124844257D01*
X170792261Y-124917301D01*
X170823491Y-125009300D01*
X170825619Y-125042972D01*
X170809922Y-128386463D01*
X170801617Y-130155712D01*
X170801164Y-130252169D01*
X170781763Y-130347367D01*
X170727408Y-130427894D01*
X170646374Y-130481491D01*
X170552167Y-130500000D01*
X160819731Y-130500000D01*
X160724443Y-130481046D01*
X160643661Y-130427070D01*
X160589685Y-130346288D01*
X160570731Y-130251000D01*
X160589685Y-130155712D01*
X160606712Y-130122067D01*
X160611445Y-130114246D01*
X160628224Y-130086525D01*
X160677279Y-129951265D01*
X160697068Y-129856147D01*
X160707646Y-129757618D01*
X160803057Y-118880587D01*
X160822846Y-118785472D01*
X160863299Y-118720370D01*
X164322919Y-114699734D01*
X164370269Y-114634940D01*
X164411570Y-114567820D01*
X164428966Y-114537209D01*
X164476833Y-114401524D01*
X164495787Y-114306236D01*
X164505500Y-114207618D01*
X164505500Y-109449000D01*
X164524454Y-109353712D01*
X164578430Y-109272930D01*
X164659212Y-109218954D01*
X164754500Y-109200000D01*
X170649828Y-109200000D01*
X170745116Y-109218954D01*
G37*
%TD.AperFunction*%
%TD*%
%TA.AperFunction,Conductor*%
%TO.N,+24V_SW*%
G36*
X183046288Y-81819454D02*
G01*
X183127070Y-81873430D01*
X183181046Y-81954212D01*
X183200000Y-82049500D01*
X183200000Y-84095544D01*
X183181046Y-84190832D01*
X183127072Y-84271611D01*
X183093622Y-84305060D01*
X182999505Y-84434602D01*
X182967471Y-84478693D01*
X182959420Y-84489774D01*
X182959418Y-84489775D01*
X182855769Y-84693200D01*
X182855767Y-84693205D01*
X182785215Y-84910343D01*
X182749501Y-85135831D01*
X182749500Y-85135847D01*
X182749500Y-85364152D01*
X182749501Y-85364168D01*
X182783556Y-85579179D01*
X182785216Y-85589660D01*
X182816534Y-85686048D01*
X182855767Y-85806794D01*
X182855769Y-85806799D01*
X182959418Y-86010224D01*
X182959419Y-86010224D01*
X182959421Y-86010228D01*
X183093621Y-86194937D01*
X183127072Y-86228388D01*
X183181046Y-86309167D01*
X183200000Y-86404455D01*
X183200000Y-96495544D01*
X183181046Y-96590832D01*
X183127072Y-96671611D01*
X183093622Y-96705060D01*
X182996661Y-96838514D01*
X182974722Y-96868713D01*
X182959420Y-96889774D01*
X182959418Y-96889775D01*
X182855769Y-97093200D01*
X182855767Y-97093205D01*
X182785215Y-97310343D01*
X182749501Y-97535831D01*
X182749500Y-97535847D01*
X182749500Y-97764152D01*
X182749501Y-97764168D01*
X182785215Y-97989656D01*
X182855767Y-98206794D01*
X182855769Y-98206799D01*
X182959418Y-98410224D01*
X182959419Y-98410224D01*
X182959421Y-98410228D01*
X183093621Y-98594937D01*
X183127072Y-98628388D01*
X183181046Y-98709167D01*
X183200000Y-98804455D01*
X183200000Y-109095544D01*
X183181046Y-109190832D01*
X183127072Y-109271611D01*
X183093622Y-109305060D01*
X182996661Y-109438514D01*
X182986471Y-109452542D01*
X182959420Y-109489774D01*
X182959418Y-109489775D01*
X182855769Y-109693200D01*
X182855767Y-109693205D01*
X182785215Y-109910343D01*
X182749501Y-110135831D01*
X182749500Y-110135847D01*
X182749500Y-110364152D01*
X182749501Y-110364168D01*
X182785215Y-110589656D01*
X182855767Y-110806794D01*
X182855769Y-110806799D01*
X182959418Y-111010224D01*
X182959419Y-111010224D01*
X182959421Y-111010228D01*
X183093621Y-111194937D01*
X183127072Y-111228388D01*
X183181046Y-111309167D01*
X183200000Y-111404455D01*
X183200000Y-122095544D01*
X183181046Y-122190832D01*
X183127072Y-122271611D01*
X183093622Y-122305060D01*
X182959420Y-122489774D01*
X182959418Y-122489775D01*
X182855769Y-122693200D01*
X182855767Y-122693205D01*
X182785215Y-122910343D01*
X182749501Y-123135831D01*
X182749500Y-123135847D01*
X182749500Y-123364152D01*
X182749501Y-123364168D01*
X182785215Y-123589656D01*
X182855767Y-123806794D01*
X182855769Y-123806799D01*
X182959418Y-124010224D01*
X182959419Y-124010224D01*
X182959421Y-124010228D01*
X183093621Y-124194937D01*
X183127072Y-124228388D01*
X183181046Y-124309167D01*
X183200000Y-124404455D01*
X183200000Y-130251000D01*
X183181046Y-130346288D01*
X183127070Y-130427070D01*
X183046288Y-130481046D01*
X182951000Y-130500000D01*
X171555678Y-130500000D01*
X171460390Y-130481046D01*
X171379608Y-130427070D01*
X171325632Y-130346288D01*
X171306678Y-130251000D01*
X171306681Y-130249831D01*
X171315416Y-128388836D01*
X171331113Y-125045350D01*
X171330113Y-125011091D01*
X171329975Y-125008907D01*
X171327985Y-124977417D01*
X171302163Y-124846810D01*
X171270933Y-124754811D01*
X171270932Y-124754807D01*
X171250822Y-124704576D01*
X171250821Y-124704573D01*
X171215261Y-124649959D01*
X171179152Y-124559766D01*
X171180307Y-124462617D01*
X171217547Y-124374782D01*
X171230203Y-124356034D01*
X171258033Y-124309626D01*
X171306537Y-124174167D01*
X171325938Y-124078969D01*
X171336113Y-123980398D01*
X171355114Y-119933288D01*
X171404320Y-109452420D01*
X171404324Y-109451320D01*
X171404326Y-109450307D01*
X171404325Y-109450306D01*
X171404326Y-109450297D01*
X171394615Y-109350382D01*
X171393884Y-109346711D01*
X171375663Y-109255102D01*
X171375662Y-109255100D01*
X171375661Y-109255094D01*
X171362279Y-109202665D01*
X171300184Y-109072874D01*
X171246208Y-108992092D01*
X171213775Y-108948767D01*
X171106736Y-108852620D01*
X171080689Y-108835216D01*
X171025978Y-108798659D01*
X171025949Y-108798641D01*
X170979418Y-108771033D01*
X170843735Y-108723167D01*
X170843731Y-108723166D01*
X170748442Y-108704212D01*
X170649828Y-108694500D01*
X169626590Y-108694500D01*
X169531302Y-108675546D01*
X169450520Y-108621570D01*
X169396544Y-108540788D01*
X169377590Y-108445500D01*
X169396544Y-108350212D01*
X169404729Y-108332457D01*
X169424256Y-108294133D01*
X169494231Y-108156799D01*
X169564784Y-107939660D01*
X169600500Y-107714157D01*
X169600500Y-107485843D01*
X169564784Y-107260340D01*
X169494231Y-107043201D01*
X169390579Y-106839772D01*
X169256379Y-106655063D01*
X169094937Y-106493621D01*
X168910228Y-106359421D01*
X168910224Y-106359419D01*
X168910224Y-106359418D01*
X168706799Y-106255769D01*
X168706794Y-106255767D01*
X168568464Y-106210821D01*
X168489660Y-106185216D01*
X168489658Y-106185215D01*
X168489656Y-106185215D01*
X168264168Y-106149501D01*
X168264159Y-106149500D01*
X168264157Y-106149500D01*
X168035843Y-106149500D01*
X168035840Y-106149500D01*
X168035831Y-106149501D01*
X167810343Y-106185215D01*
X167593205Y-106255767D01*
X167593200Y-106255769D01*
X167389775Y-106359418D01*
X167389774Y-106359419D01*
X167389772Y-106359421D01*
X167306083Y-106420225D01*
X167205065Y-106493619D01*
X167043619Y-106655065D01*
X167033607Y-106668846D01*
X166921250Y-106823492D01*
X166909420Y-106839774D01*
X166909418Y-106839775D01*
X166805769Y-107043200D01*
X166805767Y-107043205D01*
X166735215Y-107260343D01*
X166699501Y-107485831D01*
X166699500Y-107485847D01*
X166699500Y-107714152D01*
X166699501Y-107714168D01*
X166735215Y-107939656D01*
X166805767Y-108156794D01*
X166805769Y-108156799D01*
X166895271Y-108332457D01*
X166921642Y-108425964D01*
X166910223Y-108522445D01*
X166862751Y-108607213D01*
X166786453Y-108667361D01*
X166692946Y-108693732D01*
X166673410Y-108694500D01*
X164754499Y-108694500D01*
X164655887Y-108704212D01*
X164560586Y-108723168D01*
X164508165Y-108736549D01*
X164508160Y-108736550D01*
X164370351Y-108802482D01*
X164369799Y-108801329D01*
X164286895Y-108828916D01*
X164189988Y-108821978D01*
X164125860Y-108794212D01*
X164089978Y-108772242D01*
X164073082Y-108766016D01*
X163954968Y-108722495D01*
X163897626Y-108710258D01*
X163859961Y-108702221D01*
X163859939Y-108702217D01*
X163761486Y-108691138D01*
X161242657Y-108656154D01*
X161147641Y-108635878D01*
X161067617Y-108580785D01*
X161014768Y-108499262D01*
X160997139Y-108403720D01*
X161017415Y-108308704D01*
X161024243Y-108294158D01*
X161094231Y-108156799D01*
X161164784Y-107939660D01*
X161200500Y-107714157D01*
X161200500Y-107485843D01*
X161164784Y-107260340D01*
X161094231Y-107043201D01*
X160990579Y-106839772D01*
X160856379Y-106655063D01*
X160694937Y-106493621D01*
X160510228Y-106359421D01*
X160510224Y-106359419D01*
X160510224Y-106359418D01*
X160306799Y-106255769D01*
X160306794Y-106255767D01*
X160168464Y-106210821D01*
X160089660Y-106185216D01*
X160089658Y-106185215D01*
X160089656Y-106185215D01*
X159864168Y-106149501D01*
X159864159Y-106149500D01*
X159864157Y-106149500D01*
X159635843Y-106149500D01*
X159635840Y-106149500D01*
X159635831Y-106149501D01*
X159410343Y-106185215D01*
X159193205Y-106255767D01*
X159193200Y-106255769D01*
X158989775Y-106359418D01*
X158989774Y-106359419D01*
X158989772Y-106359421D01*
X158906083Y-106420225D01*
X158805065Y-106493619D01*
X158643619Y-106655065D01*
X158633607Y-106668846D01*
X158521250Y-106823492D01*
X158509420Y-106839774D01*
X158509418Y-106839775D01*
X158405769Y-107043200D01*
X158405767Y-107043205D01*
X158335215Y-107260343D01*
X158299501Y-107485831D01*
X158299500Y-107485847D01*
X158299500Y-107714152D01*
X158299501Y-107714168D01*
X158335215Y-107939656D01*
X158335216Y-107939660D01*
X158405769Y-108156799D01*
X158434170Y-108212541D01*
X158454419Y-108252281D01*
X158480790Y-108345789D01*
X158469369Y-108442270D01*
X158421897Y-108527037D01*
X158345599Y-108587185D01*
X158252091Y-108613556D01*
X158229099Y-108614298D01*
X158210809Y-108614044D01*
X156923596Y-108596167D01*
X156900738Y-108596367D01*
X156878157Y-108597078D01*
X156757709Y-108615564D01*
X156685194Y-108635878D01*
X156664150Y-108641773D01*
X156641818Y-108649339D01*
X156612900Y-108659136D01*
X156488265Y-108730998D01*
X156488261Y-108731001D01*
X156488258Y-108731003D01*
X156481196Y-108736550D01*
X156411849Y-108791019D01*
X156340305Y-108859564D01*
X156340292Y-108859578D01*
X148076137Y-118501093D01*
X148029169Y-118565561D01*
X147988178Y-118632320D01*
X147971034Y-118662520D01*
X147971033Y-118662523D01*
X147923165Y-118798209D01*
X147904212Y-118893496D01*
X147894500Y-118992110D01*
X147894500Y-129751000D01*
X147875546Y-129846288D01*
X147821570Y-129927070D01*
X147740788Y-129981046D01*
X147645500Y-130000000D01*
X48252420Y-130000000D01*
X48157132Y-129981046D01*
X48076350Y-129927070D01*
X48022374Y-129846288D01*
X48003420Y-129751000D01*
X48003483Y-129747884D01*
X48003459Y-129744925D01*
X48003460Y-129744916D01*
X47951032Y-123244002D01*
X47969217Y-123148569D01*
X48022540Y-123067355D01*
X48102884Y-123012729D01*
X48198016Y-122993007D01*
X48199778Y-122992999D01*
X50247872Y-122992999D01*
X50307483Y-122986591D01*
X50442331Y-122936296D01*
X50557546Y-122850046D01*
X50643796Y-122734831D01*
X50694091Y-122599983D01*
X50700500Y-122540373D01*
X50700499Y-120539628D01*
X50700498Y-120539623D01*
X57199500Y-120539623D01*
X57199500Y-122540365D01*
X57199500Y-122540368D01*
X57199501Y-122540372D01*
X57201567Y-122559593D01*
X57205908Y-122599980D01*
X57205909Y-122599984D01*
X57256203Y-122734829D01*
X57256204Y-122734831D01*
X57342454Y-122850046D01*
X57457669Y-122936296D01*
X57592517Y-122986591D01*
X57652127Y-122993000D01*
X59747872Y-122992999D01*
X59807483Y-122986591D01*
X59942331Y-122936296D01*
X60057546Y-122850046D01*
X60143796Y-122734831D01*
X60194091Y-122599983D01*
X60200500Y-122540373D01*
X60200499Y-120539628D01*
X60194091Y-120480017D01*
X60143796Y-120345169D01*
X60057546Y-120229954D01*
X59942331Y-120143704D01*
X59862117Y-120113786D01*
X59807481Y-120093408D01*
X59747873Y-120087000D01*
X57652134Y-120087000D01*
X57652130Y-120087000D01*
X57652128Y-120087001D01*
X57639314Y-120088378D01*
X57592519Y-120093408D01*
X57592515Y-120093409D01*
X57457670Y-120143703D01*
X57342455Y-120229953D01*
X57342453Y-120229955D01*
X57256204Y-120345169D01*
X57205908Y-120480018D01*
X57199500Y-120539623D01*
X50700498Y-120539623D01*
X50694091Y-120480017D01*
X50643796Y-120345169D01*
X50557546Y-120229954D01*
X50442331Y-120143704D01*
X50362117Y-120113786D01*
X50307481Y-120093408D01*
X50247876Y-120087000D01*
X48172573Y-120087000D01*
X48077285Y-120068046D01*
X47996503Y-120014070D01*
X47942527Y-119933288D01*
X47923581Y-119840008D01*
X47914085Y-118662520D01*
X47911532Y-118345944D01*
X47929717Y-118250507D01*
X47983040Y-118169293D01*
X48063384Y-118114667D01*
X48157040Y-118094961D01*
X48819003Y-118085703D01*
X48855128Y-118083903D01*
X48890598Y-118080861D01*
X48926481Y-118076486D01*
X49058565Y-118055565D01*
X49097517Y-118052500D01*
X49302472Y-118052500D01*
X49341424Y-118055566D01*
X49406155Y-118065817D01*
X49409979Y-118066423D01*
X49452910Y-118071352D01*
X49495344Y-118074394D01*
X49538558Y-118075639D01*
X55063486Y-117998367D01*
X55074700Y-117997143D01*
X55171478Y-118005645D01*
X55257640Y-118050537D01*
X55308751Y-118106334D01*
X55378211Y-118210289D01*
X55489711Y-118321789D01*
X55489714Y-118321791D01*
X55620819Y-118409393D01*
X55620820Y-118409393D01*
X55620821Y-118409394D01*
X55766503Y-118469737D01*
X55766505Y-118469737D01*
X55766507Y-118469738D01*
X55917148Y-118499702D01*
X55921158Y-118500500D01*
X56078842Y-118500500D01*
X56233497Y-118469737D01*
X56379179Y-118409394D01*
X56460639Y-118354963D01*
X56550398Y-118317785D01*
X56598976Y-118313000D01*
X61593166Y-118313000D01*
X61593182Y-118313001D01*
X61608443Y-118313001D01*
X61766556Y-118313001D01*
X61766557Y-118313001D01*
X61919285Y-118272077D01*
X61969404Y-118243139D01*
X62056216Y-118193020D01*
X62168020Y-118081216D01*
X62168021Y-118081214D01*
X62480520Y-117768716D01*
X62559577Y-117631784D01*
X62600501Y-117479057D01*
X62600501Y-117320942D01*
X62600501Y-117305682D01*
X62600500Y-117305664D01*
X62600500Y-106149000D01*
X62619454Y-106053712D01*
X62673430Y-105972930D01*
X62754212Y-105918954D01*
X62849500Y-105900000D01*
X103846698Y-105900000D01*
X103941986Y-105918954D01*
X104022768Y-105972930D01*
X104076744Y-106053712D01*
X104095698Y-106149000D01*
X104076744Y-106244286D01*
X104049135Y-106310942D01*
X104030262Y-106356506D01*
X104030261Y-106356507D01*
X103999500Y-106511153D01*
X103999500Y-106668846D01*
X104030261Y-106823492D01*
X104030263Y-106823497D01*
X104090603Y-106969173D01*
X104090606Y-106969180D01*
X104178208Y-107100285D01*
X104178211Y-107100289D01*
X104289711Y-107211789D01*
X104289714Y-107211791D01*
X104420819Y-107299393D01*
X104420820Y-107299393D01*
X104420821Y-107299394D01*
X104566503Y-107359737D01*
X104566505Y-107359737D01*
X104566507Y-107359738D01*
X104717148Y-107389702D01*
X104721158Y-107390500D01*
X104878842Y-107390500D01*
X105033497Y-107359737D01*
X105179179Y-107299394D01*
X105310289Y-107211789D01*
X105421789Y-107100289D01*
X105509394Y-106969179D01*
X105569737Y-106823497D01*
X105600500Y-106668842D01*
X105600500Y-106511158D01*
X105600500Y-106506336D01*
X105599739Y-106490208D01*
X105599811Y-106471629D01*
X105600501Y-106469057D01*
X105600501Y-106310942D01*
X105600500Y-106310938D01*
X105600500Y-106149000D01*
X105619454Y-106053712D01*
X105673430Y-105972930D01*
X105754212Y-105918954D01*
X105849500Y-105900000D01*
X109000004Y-105900000D01*
X109420622Y-105895876D01*
X119200000Y-105800000D01*
X127302636Y-105680843D01*
X127398189Y-105698394D01*
X127479756Y-105751176D01*
X127490686Y-105762675D01*
X127492455Y-105764444D01*
X127492459Y-105764449D01*
X127585551Y-105857541D01*
X127585554Y-105857543D01*
X127635509Y-105895876D01*
X127690243Y-105937875D01*
X127804257Y-106003701D01*
X127926171Y-106054200D01*
X128053338Y-106088275D01*
X128118756Y-106096887D01*
X128184173Y-106105500D01*
X128184174Y-106105500D01*
X128815827Y-106105500D01*
X128859438Y-106099758D01*
X128946662Y-106088275D01*
X129073829Y-106054200D01*
X129195743Y-106003701D01*
X129309757Y-105937875D01*
X129414449Y-105857541D01*
X129507541Y-105764449D01*
X129524220Y-105742711D01*
X129597261Y-105678656D01*
X129689259Y-105647425D01*
X129718085Y-105645322D01*
X132800000Y-105600000D01*
X135164626Y-104431277D01*
X135258448Y-104406048D01*
X135274955Y-104405500D01*
X139300666Y-104405500D01*
X139300682Y-104405501D01*
X139315943Y-104405501D01*
X139474056Y-104405501D01*
X139474057Y-104405501D01*
X139626785Y-104364577D01*
X139676904Y-104335639D01*
X139763716Y-104285520D01*
X139875520Y-104173716D01*
X139875521Y-104173713D01*
X158478093Y-85571141D01*
X158481207Y-85568088D01*
X162323275Y-81870097D01*
X162405071Y-81817675D01*
X162495947Y-81800500D01*
X182951000Y-81800500D01*
X183046288Y-81819454D01*
G37*
%TD.AperFunction*%
%TD*%
M02*
