%TF.GenerationSoftware,KiCad,Pcbnew,9.0.8*%
%TF.CreationDate,2026-03-28T23:30:32-06:00*%
%TF.ProjectId,afterglo-controller,61667465-7267-46c6-9f2d-636f6e74726f,rev?*%
%TF.SameCoordinates,Original*%
%TF.FileFunction,Paste,Top*%
%TF.FilePolarity,Positive*%
%FSLAX46Y46*%
G04 Gerber Fmt 4.6, Leading zero omitted, Abs format (unit mm)*
G04 Created by KiCad (PCBNEW 9.0.8) date 2026-03-28 23:30:32*
%MOMM*%
%LPD*%
G01*
G04 APERTURE LIST*
G04 Aperture macros list*
%AMRoundRect*
0 Rectangle with rounded corners*
0 $1 Rounding radius*
0 $2 $3 $4 $5 $6 $7 $8 $9 X,Y pos of 4 corners*
0 Add a 4 corners polygon primitive as box body*
4,1,4,$2,$3,$4,$5,$6,$7,$8,$9,$2,$3,0*
0 Add four circle primitives for the rounded corners*
1,1,$1+$1,$2,$3*
1,1,$1+$1,$4,$5*
1,1,$1+$1,$6,$7*
1,1,$1+$1,$8,$9*
0 Add four rect primitives between the rounded corners*
20,1,$1+$1,$2,$3,$4,$5,0*
20,1,$1+$1,$4,$5,$6,$7,0*
20,1,$1+$1,$6,$7,$8,$9,0*
20,1,$1+$1,$8,$9,$2,$3,0*%
G04 Aperture macros list end*
%ADD10R,0.600000X1.450000*%
%ADD11R,0.300000X1.450000*%
%ADD12RoundRect,0.200000X0.200000X0.275000X-0.200000X0.275000X-0.200000X-0.275000X0.200000X-0.275000X0*%
%ADD13R,1.500000X0.900000*%
%ADD14R,0.900000X1.500000*%
%ADD15R,0.900000X0.900000*%
%ADD16RoundRect,0.075000X0.075000X0.350000X-0.075000X0.350000X-0.075000X-0.350000X0.075000X-0.350000X0*%
%ADD17RoundRect,0.075000X0.350000X0.075000X-0.350000X0.075000X-0.350000X-0.075000X0.350000X-0.075000X0*%
%ADD18RoundRect,0.250000X0.285000X0.285000X-0.285000X0.285000X-0.285000X-0.285000X0.285000X-0.285000X0*%
%ADD19RoundRect,0.225000X-0.250000X0.225000X-0.250000X-0.225000X0.250000X-0.225000X0.250000X0.225000X0*%
%ADD20RoundRect,0.200000X-0.275000X0.200000X-0.275000X-0.200000X0.275000X-0.200000X0.275000X0.200000X0*%
%ADD21RoundRect,0.225000X-0.225000X-0.250000X0.225000X-0.250000X0.225000X0.250000X-0.225000X0.250000X0*%
%ADD22RoundRect,0.125000X-0.537500X-0.125000X0.537500X-0.125000X0.537500X0.125000X-0.537500X0.125000X0*%
%ADD23RoundRect,0.225000X0.250000X-0.225000X0.250000X0.225000X-0.250000X0.225000X-0.250000X-0.225000X0*%
%ADD24RoundRect,0.200000X-0.200000X-0.275000X0.200000X-0.275000X0.200000X0.275000X-0.200000X0.275000X0*%
%ADD25RoundRect,0.200000X0.275000X-0.200000X0.275000X0.200000X-0.275000X0.200000X-0.275000X-0.200000X0*%
%ADD26RoundRect,0.218750X0.218750X0.256250X-0.218750X0.256250X-0.218750X-0.256250X0.218750X-0.256250X0*%
%ADD27RoundRect,0.250000X0.650000X-0.325000X0.650000X0.325000X-0.650000X0.325000X-0.650000X-0.325000X0*%
%ADD28RoundRect,0.150000X0.150000X-0.587500X0.150000X0.587500X-0.150000X0.587500X-0.150000X-0.587500X0*%
%ADD29RoundRect,0.150000X0.587500X0.150000X-0.587500X0.150000X-0.587500X-0.150000X0.587500X-0.150000X0*%
%ADD30RoundRect,0.250000X-1.075000X0.375000X-1.075000X-0.375000X1.075000X-0.375000X1.075000X0.375000X0*%
%ADD31RoundRect,0.150000X0.825000X0.150000X-0.825000X0.150000X-0.825000X-0.150000X0.825000X-0.150000X0*%
%ADD32RoundRect,0.250000X-1.450000X0.312500X-1.450000X-0.312500X1.450000X-0.312500X1.450000X0.312500X0*%
%ADD33RoundRect,0.250000X-0.475000X0.250000X-0.475000X-0.250000X0.475000X-0.250000X0.475000X0.250000X0*%
%ADD34RoundRect,0.250000X-0.400000X0.525000X-0.400000X-0.525000X0.400000X-0.525000X0.400000X0.525000X0*%
%ADD35RoundRect,0.150000X-0.587500X-0.150000X0.587500X-0.150000X0.587500X0.150000X-0.587500X0.150000X0*%
%ADD36RoundRect,0.250000X-0.325000X-0.650000X0.325000X-0.650000X0.325000X0.650000X-0.325000X0.650000X0*%
%ADD37RoundRect,0.250000X-0.650000X1.000000X-0.650000X-1.000000X0.650000X-1.000000X0.650000X1.000000X0*%
%ADD38RoundRect,0.375000X-0.375000X0.625000X-0.375000X-0.625000X0.375000X-0.625000X0.375000X0.625000X0*%
%ADD39RoundRect,0.500000X-1.400000X0.500000X-1.400000X-0.500000X1.400000X-0.500000X1.400000X0.500000X0*%
%ADD40RoundRect,0.225000X0.225000X0.250000X-0.225000X0.250000X-0.225000X-0.250000X0.225000X-0.250000X0*%
%ADD41RoundRect,0.150000X-0.512500X-0.150000X0.512500X-0.150000X0.512500X0.150000X-0.512500X0.150000X0*%
%ADD42RoundRect,0.225000X0.225000X0.375000X-0.225000X0.375000X-0.225000X-0.375000X0.225000X-0.375000X0*%
%ADD43RoundRect,0.150000X-0.150000X0.587500X-0.150000X-0.587500X0.150000X-0.587500X0.150000X0.587500X0*%
%ADD44RoundRect,0.250000X0.900000X-1.000000X0.900000X1.000000X-0.900000X1.000000X-0.900000X-1.000000X0*%
%ADD45RoundRect,0.225000X0.375000X-0.225000X0.375000X0.225000X-0.375000X0.225000X-0.375000X-0.225000X0*%
%ADD46RoundRect,0.250000X0.650000X-1.000000X0.650000X1.000000X-0.650000X1.000000X-0.650000X-1.000000X0*%
%ADD47RoundRect,0.150000X-0.825000X-0.150000X0.825000X-0.150000X0.825000X0.150000X-0.825000X0.150000X0*%
%ADD48RoundRect,0.218750X0.218750X0.381250X-0.218750X0.381250X-0.218750X-0.381250X0.218750X-0.381250X0*%
G04 APERTURE END LIST*
D10*
%TO.C,J2*%
X114960000Y-50445000D03*
X114160000Y-50445000D03*
D11*
X113460000Y-50445000D03*
X112460000Y-50445000D03*
X110960000Y-50445000D03*
X109960000Y-50445000D03*
D10*
X109260000Y-50445000D03*
X108460000Y-50445000D03*
X108460000Y-50445000D03*
X109260000Y-50445000D03*
D11*
X110460000Y-50445000D03*
X111460000Y-50445000D03*
X111960000Y-50445000D03*
X112960000Y-50445000D03*
D10*
X114160000Y-50445000D03*
X114960000Y-50445000D03*
%TD*%
%TO.C,J4*%
X134930000Y-52495000D03*
X134130000Y-52495000D03*
D11*
X133430000Y-52495000D03*
X132430000Y-52495000D03*
X130930000Y-52495000D03*
X129930000Y-52495000D03*
D10*
X129230000Y-52495000D03*
X128430000Y-52495000D03*
X128430000Y-52495000D03*
X129230000Y-52495000D03*
D11*
X130430000Y-52495000D03*
X131430000Y-52495000D03*
X131930000Y-52495000D03*
X132930000Y-52495000D03*
D10*
X134130000Y-52495000D03*
X134930000Y-52495000D03*
%TD*%
D12*
%TO.C,R8*%
X178675000Y-88500000D03*
X180325000Y-88500000D03*
%TD*%
D13*
%TO.C,U5*%
X169550000Y-45040000D03*
X169550000Y-46310000D03*
X169550000Y-47580000D03*
X169550000Y-48850000D03*
X169550000Y-50120000D03*
X169550000Y-51390000D03*
X169550000Y-52660000D03*
X169550000Y-53930000D03*
X169550000Y-55200000D03*
X169550000Y-56470000D03*
X169550000Y-57740000D03*
X169550000Y-59010000D03*
X169550000Y-60280000D03*
X169550000Y-61550000D03*
D14*
X167785000Y-62800000D03*
X166515000Y-62800000D03*
X165245000Y-62800000D03*
X163975000Y-62800000D03*
X162705000Y-62800000D03*
X161435000Y-62800000D03*
X160165000Y-62800000D03*
X158895000Y-62800000D03*
X157625000Y-62800000D03*
X156355000Y-62800000D03*
X155085000Y-62800000D03*
X153815000Y-62800000D03*
D13*
X152050000Y-61550000D03*
X152050000Y-60280000D03*
X152050000Y-59010000D03*
X152050000Y-57740000D03*
X152050000Y-56470000D03*
X152050000Y-55200000D03*
X152050000Y-53930000D03*
X152050000Y-52660000D03*
X152050000Y-51390000D03*
X152050000Y-50120000D03*
X152050000Y-48850000D03*
X152050000Y-47580000D03*
X152050000Y-46310000D03*
X152050000Y-45040000D03*
D15*
X160700000Y-54160000D03*
X160700000Y-52760000D03*
X160700000Y-51360000D03*
X159300000Y-54160000D03*
X159300000Y-52760000D03*
X159300000Y-51360000D03*
X157900000Y-54160000D03*
X157900000Y-52760000D03*
X157900000Y-51360000D03*
%TD*%
D16*
%TO.C,U9*%
X151290000Y-70810000D03*
X150790000Y-70810000D03*
X150290000Y-70810000D03*
X149790000Y-70810000D03*
X149290000Y-70810000D03*
X148790000Y-70810000D03*
D17*
X148090000Y-70110000D03*
X148090000Y-69610000D03*
X148090000Y-69110000D03*
X148090000Y-68610000D03*
X148090000Y-68110000D03*
X148090000Y-67610000D03*
D16*
X148790000Y-66910000D03*
X149290000Y-66910000D03*
X149790000Y-66910000D03*
X150290000Y-66910000D03*
X150790000Y-66910000D03*
X151290000Y-66910000D03*
D17*
X151990000Y-67610000D03*
X151990000Y-68110000D03*
X151990000Y-68610000D03*
X151990000Y-69110000D03*
X151990000Y-69610000D03*
X151990000Y-70110000D03*
D18*
X149380000Y-68200000D03*
X149380000Y-69520000D03*
X150700000Y-68200000D03*
X150700000Y-69520000D03*
%TD*%
D19*
%TO.C,C13*%
X149000000Y-46000000D03*
X149000000Y-47550000D03*
%TD*%
%TO.C,C12*%
X185500000Y-64600000D03*
X185500000Y-66150000D03*
%TD*%
D20*
%TO.C,R14*%
X157700000Y-68150000D03*
X157700000Y-69800000D03*
%TD*%
D21*
%TO.C,C16*%
X165650000Y-85600000D03*
X167200000Y-85600000D03*
%TD*%
D22*
%TO.C,U10*%
X178162500Y-65725000D03*
X178162500Y-66375000D03*
X178162500Y-67025000D03*
X178162500Y-67675000D03*
X180437500Y-67675000D03*
X180437500Y-67025000D03*
X180437500Y-66375000D03*
X180437500Y-65725000D03*
%TD*%
D23*
%TO.C,C11*%
X156200000Y-69750000D03*
X156200000Y-68200000D03*
%TD*%
D21*
%TO.C,C10*%
X137790000Y-45100000D03*
X139340000Y-45100000D03*
%TD*%
D24*
%TO.C,R5*%
X136375000Y-77000000D03*
X138025000Y-77000000D03*
%TD*%
%TO.C,R3*%
X136350000Y-71000000D03*
X138000000Y-71000000D03*
%TD*%
%TO.C,R45*%
X165600000Y-82500000D03*
X167250000Y-82500000D03*
%TD*%
D20*
%TO.C,R1*%
X107500000Y-77650000D03*
X107500000Y-79300000D03*
%TD*%
%TO.C,R6*%
X136300000Y-54400000D03*
X136300000Y-56050000D03*
%TD*%
D12*
%TO.C,R21*%
X182800000Y-95100000D03*
X181150000Y-95100000D03*
%TD*%
D25*
%TO.C,R41*%
X180100000Y-56925000D03*
X180100000Y-55275000D03*
%TD*%
D24*
%TO.C,R24*%
X119450000Y-62200000D03*
X121100000Y-62200000D03*
%TD*%
D26*
%TO.C,D5*%
X138000000Y-72500000D03*
X136425000Y-72500000D03*
%TD*%
D27*
%TO.C,C2*%
X113000000Y-74450000D03*
X113000000Y-71500000D03*
%TD*%
D20*
%TO.C,R17*%
X136800000Y-61700000D03*
X136800000Y-63350000D03*
%TD*%
D26*
%TO.C,D7*%
X137975000Y-78500000D03*
X136400000Y-78500000D03*
%TD*%
D12*
%TO.C,R22*%
X182000000Y-98400000D03*
X180350000Y-98400000D03*
%TD*%
D28*
%TO.C,Q1*%
X116300000Y-79500000D03*
X118200000Y-79500000D03*
X117250000Y-77625000D03*
%TD*%
D19*
%TO.C,C21*%
X107100000Y-98600000D03*
X107100000Y-100150000D03*
%TD*%
D29*
%TO.C,Q6*%
X131900000Y-65800000D03*
X131900000Y-63900000D03*
X130025000Y-64850000D03*
%TD*%
D30*
%TO.C,L2*%
X115900000Y-58700000D03*
X115900000Y-61500000D03*
%TD*%
D24*
%TO.C,R47*%
X192450000Y-87200000D03*
X194100000Y-87200000D03*
%TD*%
D12*
%TO.C,R23*%
X185900000Y-100800000D03*
X184250000Y-100800000D03*
%TD*%
D23*
%TO.C,C9*%
X116300000Y-53975000D03*
X116300000Y-52425000D03*
%TD*%
D25*
%TO.C,R36*%
X141500000Y-77600000D03*
X141500000Y-75950000D03*
%TD*%
D19*
%TO.C,C22*%
X108600000Y-98600000D03*
X108600000Y-100150000D03*
%TD*%
D31*
%TO.C,U1*%
X112975000Y-89705000D03*
X112975000Y-88435000D03*
X112975000Y-87165000D03*
X112975000Y-85895000D03*
X108025000Y-85895000D03*
X108025000Y-87165000D03*
X108025000Y-88435000D03*
X108025000Y-89705000D03*
%TD*%
D25*
%TO.C,R31*%
X119900000Y-66200000D03*
X119900000Y-64550000D03*
%TD*%
D12*
%TO.C,R29*%
X126500000Y-77300000D03*
X124850000Y-77300000D03*
%TD*%
D32*
%TO.C,F1*%
X115600000Y-91709140D03*
X115600000Y-95984140D03*
%TD*%
D33*
%TO.C,C5*%
X121500000Y-70400000D03*
X121500000Y-72300000D03*
%TD*%
D25*
%TO.C,R30*%
X134100000Y-65100000D03*
X134100000Y-63450000D03*
%TD*%
D34*
%TO.C,SW2 BOOT*%
X179750000Y-45520000D03*
X179750000Y-53480000D03*
X175250000Y-45520000D03*
X175250000Y-53480000D03*
%TD*%
D19*
%TO.C,C4*%
X113500000Y-82700000D03*
X113500000Y-84250000D03*
%TD*%
D35*
%TO.C,Q2*%
X132825000Y-60050000D03*
X132825000Y-61950000D03*
X134700000Y-61000000D03*
%TD*%
D20*
%TO.C,R35*%
X108300000Y-95550000D03*
X108300000Y-97200000D03*
%TD*%
D24*
%TO.C,R19*%
X137750000Y-51200000D03*
X139400000Y-51200000D03*
%TD*%
%TO.C,R4*%
X136350000Y-74000000D03*
X138000000Y-74000000D03*
%TD*%
D30*
%TO.C,L1*%
X112500000Y-76500000D03*
X112500000Y-79300000D03*
%TD*%
D36*
%TO.C,C6*%
X138000000Y-66600000D03*
X140950000Y-66600000D03*
%TD*%
D37*
%TO.C,D3*%
X108500000Y-70100000D03*
X108500000Y-74100000D03*
%TD*%
D38*
%TO.C,U2*%
X130700000Y-68800000D03*
X128400000Y-68800000D03*
D39*
X128400000Y-75100000D03*
D38*
X126100000Y-68800000D03*
%TD*%
D25*
%TO.C,R33*%
X107700000Y-56550000D03*
X107700000Y-54900000D03*
%TD*%
D40*
%TO.C,C17*%
X139350000Y-52800000D03*
X137800000Y-52800000D03*
%TD*%
D25*
%TO.C,R46*%
X194100000Y-94850000D03*
X194100000Y-93200000D03*
%TD*%
D41*
%TO.C,U12*%
X146200000Y-76050000D03*
X146200000Y-77000000D03*
X146200000Y-77950000D03*
X148475000Y-77950000D03*
X148475000Y-77000000D03*
X148475000Y-76050000D03*
%TD*%
D42*
%TO.C,D10*%
X122250000Y-54800000D03*
X118950000Y-54800000D03*
%TD*%
D28*
%TO.C,Q3*%
X119400000Y-60400000D03*
X121300000Y-60400000D03*
X120350000Y-58525000D03*
%TD*%
D25*
%TO.C,R32*%
X116900000Y-57150000D03*
X116900000Y-55500000D03*
%TD*%
D43*
%TO.C,Q9*%
X116800000Y-63900000D03*
X114900000Y-63900000D03*
X115850000Y-65775000D03*
%TD*%
D20*
%TO.C,R7*%
X127100000Y-54400000D03*
X127100000Y-56050000D03*
%TD*%
D44*
%TO.C,D1*%
X111300000Y-96300000D03*
X111300000Y-92000000D03*
%TD*%
D25*
%TO.C,R25*%
X108300000Y-94150000D03*
X108300000Y-92500000D03*
%TD*%
D45*
%TO.C,D11*%
X188900000Y-86700000D03*
X188900000Y-83400000D03*
%TD*%
D46*
%TO.C,D2*%
X117500000Y-74500000D03*
X117500000Y-70500000D03*
%TD*%
D12*
%TO.C,R20*%
X182750000Y-93000000D03*
X181100000Y-93000000D03*
%TD*%
D25*
%TO.C,R37*%
X143000000Y-77550000D03*
X143000000Y-75900000D03*
%TD*%
D12*
%TO.C,R10*%
X177275000Y-88500000D03*
X175625000Y-88500000D03*
%TD*%
D34*
%TO.C,SW1 RESET*%
X145850000Y-45420000D03*
X145850000Y-53380000D03*
X141350000Y-45420000D03*
X141350000Y-53380000D03*
%TD*%
D47*
%TO.C,U8*%
X178225000Y-71295000D03*
X178225000Y-72565000D03*
X178225000Y-73835000D03*
X178225000Y-75105000D03*
X183175000Y-75105000D03*
X183175000Y-73835000D03*
X183175000Y-72565000D03*
X183175000Y-71295000D03*
%TD*%
D26*
%TO.C,D6*%
X137987500Y-75500000D03*
X136412500Y-75500000D03*
%TD*%
D24*
%TO.C,R9*%
X183075000Y-88500000D03*
X184725000Y-88500000D03*
%TD*%
D48*
%TO.C,FB1*%
X149500000Y-62200000D03*
X147375000Y-62200000D03*
%TD*%
D31*
%TO.C,U11*%
X173600000Y-99750000D03*
X173600000Y-98480000D03*
X173600000Y-97210000D03*
X173600000Y-95940000D03*
X173600000Y-94670000D03*
X173600000Y-93400000D03*
X173600000Y-92130000D03*
X168650000Y-92130000D03*
X168650000Y-93400000D03*
X168650000Y-94670000D03*
X168650000Y-95940000D03*
X168650000Y-97210000D03*
X168650000Y-98480000D03*
X168650000Y-99750000D03*
%TD*%
D42*
%TO.C,DZ1*%
X123450000Y-78500000D03*
X120150000Y-78500000D03*
%TD*%
%TO.C,D12*%
X194100000Y-83800000D03*
X190800000Y-83800000D03*
%TD*%
D25*
%TO.C,R15*%
X145700000Y-61750000D03*
X145700000Y-60100000D03*
%TD*%
D23*
%TO.C,C3*%
X110500000Y-84050000D03*
X110500000Y-82500000D03*
%TD*%
%TO.C,C18*%
X144500000Y-77550000D03*
X144500000Y-76000000D03*
%TD*%
D46*
%TO.C,D4*%
X139500000Y-62300000D03*
X139500000Y-58300000D03*
%TD*%
D25*
%TO.C,R2*%
X107400000Y-84050000D03*
X107400000Y-82400000D03*
%TD*%
D24*
%TO.C,R44*%
X165600000Y-80900000D03*
X167250000Y-80900000D03*
%TD*%
M02*
