%TF.GenerationSoftware,KiCad,Pcbnew,9.0.8*%
%TF.CreationDate,2026-03-28T23:30:32-06:00*%
%TF.ProjectId,afterglo-controller,61667465-7267-46c6-9f2d-636f6e74726f,rev?*%
%TF.SameCoordinates,Original*%
%TF.FileFunction,Soldermask,Top*%
%TF.FilePolarity,Negative*%
%FSLAX46Y46*%
G04 Gerber Fmt 4.6, Leading zero omitted, Abs format (unit mm)*
G04 Created by KiCad (PCBNEW 9.0.8) date 2026-03-28 23:30:32*
%MOMM*%
%LPD*%
G01*
G04 APERTURE LIST*
G04 Aperture macros list*
%AMRoundRect*
0 Rectangle with rounded corners*
0 $1 Rounding radius*
0 $2 $3 $4 $5 $6 $7 $8 $9 X,Y pos of 4 corners*
0 Add a 4 corners polygon primitive as box body*
4,1,4,$2,$3,$4,$5,$6,$7,$8,$9,$2,$3,0*
0 Add four circle primitives for the rounded corners*
1,1,$1+$1,$2,$3*
1,1,$1+$1,$4,$5*
1,1,$1+$1,$6,$7*
1,1,$1+$1,$8,$9*
0 Add four rect primitives between the rounded corners*
20,1,$1+$1,$2,$3,$4,$5,0*
20,1,$1+$1,$4,$5,$6,$7,0*
20,1,$1+$1,$6,$7,$8,$9,0*
20,1,$1+$1,$8,$9,$2,$3,0*%
%AMFreePoly0*
4,1,23,0.550000,-0.750000,0.000000,-0.750000,0.000000,-0.745722,-0.065263,-0.745722,-0.191342,-0.711940,-0.304381,-0.646677,-0.396677,-0.554381,-0.461940,-0.441342,-0.495722,-0.315263,-0.495722,-0.250000,-0.500000,-0.250000,-0.500000,0.250000,-0.495722,0.250000,-0.495722,0.315263,-0.461940,0.441342,-0.396677,0.554381,-0.304381,0.646677,-0.191342,0.711940,-0.065263,0.745722,0.000000,0.745722,
0.000000,0.750000,0.550000,0.750000,0.550000,-0.750000,0.550000,-0.750000,$1*%
%AMFreePoly1*
4,1,23,0.000000,0.745722,0.065263,0.745722,0.191342,0.711940,0.304381,0.646677,0.396677,0.554381,0.461940,0.441342,0.495722,0.315263,0.495722,0.250000,0.500000,0.250000,0.500000,-0.250000,0.495722,-0.250000,0.495722,-0.315263,0.461940,-0.441342,0.396677,-0.554381,0.304381,-0.646677,0.191342,-0.711940,0.065263,-0.745722,0.000000,-0.745722,0.000000,-0.750000,-0.550000,-0.750000,
-0.550000,0.750000,0.000000,0.750000,0.000000,0.745722,0.000000,0.745722,$1*%
G04 Aperture macros list end*
%ADD10O,2.200000X3.500000*%
%ADD11R,1.500000X2.500000*%
%ADD12O,1.500000X2.500000*%
%ADD13C,2.200000*%
%ADD14C,2.400000*%
%ADD15O,1.000000X1.600000*%
%ADD16O,1.000000X2.100000*%
%ADD17R,0.600000X1.450000*%
%ADD18R,0.300000X1.450000*%
%ADD19C,0.650000*%
%ADD20C,2.500000*%
%ADD21C,1.500000*%
%ADD22RoundRect,0.250500X0.499500X-0.499500X0.499500X0.499500X-0.499500X0.499500X-0.499500X-0.499500X0*%
%ADD23C,3.250000*%
%ADD24C,2.300000*%
%ADD25R,1.500000X1.500000*%
%ADD26RoundRect,0.200000X0.200000X0.275000X-0.200000X0.275000X-0.200000X-0.275000X0.200000X-0.275000X0*%
%ADD27C,0.600000*%
%ADD28R,3.900000X3.900000*%
%ADD29R,1.500000X0.900000*%
%ADD30R,0.900000X1.500000*%
%ADD31R,2.650000X2.650000*%
%ADD32RoundRect,0.075000X0.075000X0.350000X-0.075000X0.350000X-0.075000X-0.350000X0.075000X-0.350000X0*%
%ADD33RoundRect,0.075000X0.350000X0.075000X-0.350000X0.075000X-0.350000X-0.075000X0.350000X-0.075000X0*%
%ADD34RoundRect,0.225000X-0.250000X0.225000X-0.250000X-0.225000X0.250000X-0.225000X0.250000X0.225000X0*%
%ADD35RoundRect,0.200000X-0.275000X0.200000X-0.275000X-0.200000X0.275000X-0.200000X0.275000X0.200000X0*%
%ADD36RoundRect,0.225000X-0.225000X-0.250000X0.225000X-0.250000X0.225000X0.250000X-0.225000X0.250000X0*%
%ADD37RoundRect,0.125000X-0.537500X-0.125000X0.537500X-0.125000X0.537500X0.125000X-0.537500X0.125000X0*%
%ADD38RoundRect,0.225000X0.250000X-0.225000X0.250000X0.225000X-0.250000X0.225000X-0.250000X-0.225000X0*%
%ADD39RoundRect,0.200000X-0.200000X-0.275000X0.200000X-0.275000X0.200000X0.275000X-0.200000X0.275000X0*%
%ADD40RoundRect,0.250000X-1.050000X-1.050000X1.050000X-1.050000X1.050000X1.050000X-1.050000X1.050000X0*%
%ADD41C,2.600000*%
%ADD42RoundRect,0.200000X0.275000X-0.200000X0.275000X0.200000X-0.275000X0.200000X-0.275000X-0.200000X0*%
%ADD43RoundRect,0.250000X-0.600000X-0.750000X0.600000X-0.750000X0.600000X0.750000X-0.600000X0.750000X0*%
%ADD44O,1.700000X2.000000*%
%ADD45RoundRect,0.218750X0.218750X0.256250X-0.218750X0.256250X-0.218750X-0.256250X0.218750X-0.256250X0*%
%ADD46R,2.000000X1.905000*%
%ADD47O,2.000000X1.905000*%
%ADD48RoundRect,0.250000X0.650000X-0.325000X0.650000X0.325000X-0.650000X0.325000X-0.650000X-0.325000X0*%
%ADD49RoundRect,0.250000X0.550000X0.550000X-0.550000X0.550000X-0.550000X-0.550000X0.550000X-0.550000X0*%
%ADD50C,1.600000*%
%ADD51RoundRect,0.250000X-0.750000X0.750000X-0.750000X-0.750000X0.750000X-0.750000X0.750000X0.750000X0*%
%ADD52C,2.000000*%
%ADD53RoundRect,0.150000X0.150000X-0.587500X0.150000X0.587500X-0.150000X0.587500X-0.150000X-0.587500X0*%
%ADD54RoundRect,0.250000X-0.600000X-0.725000X0.600000X-0.725000X0.600000X0.725000X-0.600000X0.725000X0*%
%ADD55O,1.700000X1.950000*%
%ADD56RoundRect,0.250000X0.750000X-0.750000X0.750000X0.750000X-0.750000X0.750000X-0.750000X-0.750000X0*%
%ADD57FreePoly0,90.000000*%
%ADD58R,1.500000X1.000000*%
%ADD59FreePoly1,90.000000*%
%ADD60RoundRect,0.150000X0.587500X0.150000X-0.587500X0.150000X-0.587500X-0.150000X0.587500X-0.150000X0*%
%ADD61RoundRect,0.250000X-1.075000X0.375000X-1.075000X-0.375000X1.075000X-0.375000X1.075000X0.375000X0*%
%ADD62RoundRect,0.150000X0.825000X0.150000X-0.825000X0.150000X-0.825000X-0.150000X0.825000X-0.150000X0*%
%ADD63RoundRect,0.250000X-1.450000X0.312500X-1.450000X-0.312500X1.450000X-0.312500X1.450000X0.312500X0*%
%ADD64RoundRect,0.250000X-0.475000X0.250000X-0.475000X-0.250000X0.475000X-0.250000X0.475000X0.250000X0*%
%ADD65RoundRect,0.250000X-0.400000X0.525000X-0.400000X-0.525000X0.400000X-0.525000X0.400000X0.525000X0*%
%ADD66RoundRect,0.150000X-0.587500X-0.150000X0.587500X-0.150000X0.587500X0.150000X-0.587500X0.150000X0*%
%ADD67RoundRect,0.250000X-0.325000X-0.650000X0.325000X-0.650000X0.325000X0.650000X-0.325000X0.650000X0*%
%ADD68RoundRect,0.250000X-0.650000X1.000000X-0.650000X-1.000000X0.650000X-1.000000X0.650000X1.000000X0*%
%ADD69RoundRect,0.375000X-0.375000X0.625000X-0.375000X-0.625000X0.375000X-0.625000X0.375000X0.625000X0*%
%ADD70RoundRect,0.500000X-1.400000X0.500000X-1.400000X-0.500000X1.400000X-0.500000X1.400000X0.500000X0*%
%ADD71RoundRect,0.225000X0.225000X0.250000X-0.225000X0.250000X-0.225000X-0.250000X0.225000X-0.250000X0*%
%ADD72RoundRect,0.150000X-0.512500X-0.150000X0.512500X-0.150000X0.512500X0.150000X-0.512500X0.150000X0*%
%ADD73RoundRect,0.225000X0.225000X0.375000X-0.225000X0.375000X-0.225000X-0.375000X0.225000X-0.375000X0*%
%ADD74RoundRect,0.250000X-0.550000X-0.550000X0.550000X-0.550000X0.550000X0.550000X-0.550000X0.550000X0*%
%ADD75R,1.700000X1.700000*%
%ADD76C,1.700000*%
%ADD77RoundRect,0.150000X-0.150000X0.587500X-0.150000X-0.587500X0.150000X-0.587500X0.150000X0.587500X0*%
%ADD78RoundRect,0.250000X0.900000X-1.000000X0.900000X1.000000X-0.900000X1.000000X-0.900000X-1.000000X0*%
%ADD79RoundRect,0.225000X0.375000X-0.225000X0.375000X0.225000X-0.375000X0.225000X-0.375000X-0.225000X0*%
%ADD80RoundRect,0.250000X0.650000X-1.000000X0.650000X1.000000X-0.650000X1.000000X-0.650000X-1.000000X0*%
%ADD81RoundRect,0.150000X-0.825000X-0.150000X0.825000X-0.150000X0.825000X0.150000X-0.825000X0.150000X0*%
%ADD82RoundRect,0.250000X0.750000X0.750000X-0.750000X0.750000X-0.750000X-0.750000X0.750000X-0.750000X0*%
%ADD83RoundRect,0.218750X0.218750X0.381250X-0.218750X0.381250X-0.218750X-0.381250X0.218750X-0.381250X0*%
G04 APERTURE END LIST*
%TO.C,JP2*%
G36*
X188150000Y-95250000D02*
G01*
X189650000Y-95250000D01*
X189650000Y-93750000D01*
X188150000Y-93750000D01*
X188150000Y-95250000D01*
G37*
%TO.C,JP4*%
G36*
X188150000Y-100250000D02*
G01*
X189650000Y-100250000D01*
X189650000Y-98750000D01*
X188150000Y-98750000D01*
X188150000Y-100250000D01*
G37*
%TO.C,JP3*%
G36*
X184550000Y-97850000D02*
G01*
X186050000Y-97850000D01*
X186050000Y-96350000D01*
X184550000Y-96350000D01*
X184550000Y-97850000D01*
G37*
%TO.C,JP1*%
G36*
X184550000Y-92450000D02*
G01*
X186050000Y-92450000D01*
X186050000Y-90950000D01*
X184550000Y-90950000D01*
X184550000Y-92450000D01*
G37*
%TD*%
D10*
%TO.C,SW4*%
X174900000Y-79000000D03*
X183100000Y-79000000D03*
D11*
X177000000Y-79000000D03*
D12*
X179000000Y-79000000D03*
X181000000Y-79000000D03*
%TD*%
D13*
%TO.C,F4*%
X162250000Y-86000000D03*
X159750000Y-86000000D03*
X162250000Y-89500000D03*
X159750000Y-89500000D03*
X162250000Y-95300000D03*
X159750000Y-95300000D03*
X162250000Y-98800000D03*
X159750000Y-98800000D03*
D14*
X161000000Y-92400000D03*
%TD*%
D13*
%TO.C,F6*%
X135000000Y-98800000D03*
X137500000Y-98800000D03*
X135000000Y-95300000D03*
X137500000Y-95300000D03*
X135000000Y-89500000D03*
X137500000Y-89500000D03*
X135000000Y-86000000D03*
X137500000Y-86000000D03*
D14*
X136250000Y-92400000D03*
%TD*%
D13*
%TO.C,F7*%
X144600000Y-86000000D03*
X142100000Y-86000000D03*
X144600000Y-89500000D03*
X142100000Y-89500000D03*
X144600000Y-95300000D03*
X142100000Y-95300000D03*
X144600000Y-98800000D03*
X142100000Y-98800000D03*
D14*
X143350000Y-92400000D03*
%TD*%
D15*
%TO.C,J2*%
X107390000Y-45350000D03*
D16*
X107390000Y-49530000D03*
D15*
X116030000Y-45350000D03*
D16*
X116030000Y-49530000D03*
D17*
X114960000Y-50445000D03*
X114160000Y-50445000D03*
D18*
X113460000Y-50445000D03*
X112460000Y-50445000D03*
X110960000Y-50445000D03*
X109960000Y-50445000D03*
D17*
X109260000Y-50445000D03*
X108460000Y-50445000D03*
X108460000Y-50445000D03*
X109260000Y-50445000D03*
D18*
X110460000Y-50445000D03*
X111460000Y-50445000D03*
X111960000Y-50445000D03*
X112960000Y-50445000D03*
D17*
X114160000Y-50445000D03*
X114960000Y-50445000D03*
D19*
X108820000Y-49000000D03*
X114600000Y-49000000D03*
%TD*%
D15*
%TO.C,J4*%
X127360000Y-47400000D03*
D16*
X127360000Y-51580000D03*
D15*
X136000000Y-47400000D03*
D16*
X136000000Y-51580000D03*
D17*
X134930000Y-52495000D03*
X134130000Y-52495000D03*
D18*
X133430000Y-52495000D03*
X132430000Y-52495000D03*
X130930000Y-52495000D03*
X129930000Y-52495000D03*
D17*
X129230000Y-52495000D03*
X128430000Y-52495000D03*
X128430000Y-52495000D03*
X129230000Y-52495000D03*
D18*
X130430000Y-52495000D03*
X131430000Y-52495000D03*
X131930000Y-52495000D03*
X132930000Y-52495000D03*
D17*
X134130000Y-52495000D03*
X134930000Y-52495000D03*
D19*
X128790000Y-51050000D03*
X134570000Y-51050000D03*
%TD*%
D20*
%TO.C,J15*%
X188750000Y-45670000D03*
X188750000Y-61160000D03*
D21*
X196700000Y-46790000D03*
X196700000Y-49330000D03*
X196700000Y-57500000D03*
X196700000Y-60040000D03*
X182900000Y-48975000D03*
X185440000Y-50235000D03*
X182900000Y-51515000D03*
X185440000Y-52775000D03*
X182900000Y-54055000D03*
X185440000Y-55315000D03*
X182900000Y-56595000D03*
D22*
X185440000Y-57855000D03*
D23*
X191800000Y-47700000D03*
X191800000Y-59130000D03*
%TD*%
D24*
%TO.C,J20*%
X193770000Y-80910000D03*
X193770000Y-64650000D03*
D21*
X188060000Y-79640000D03*
X188060000Y-77350000D03*
X188060000Y-68210000D03*
X188060000Y-65920000D03*
X192880000Y-76332000D03*
X194660000Y-75316000D03*
X192880000Y-74300000D03*
X194660000Y-73284000D03*
X192880000Y-72268000D03*
X194660000Y-71252000D03*
X192880000Y-70236000D03*
D25*
X194660000Y-69220000D03*
D23*
X197200000Y-79130000D03*
X197200000Y-66430000D03*
%TD*%
D26*
%TO.C,R8*%
X178675000Y-88500000D03*
X180325000Y-88500000D03*
%TD*%
D27*
%TO.C,U5*%
X160700000Y-53460000D03*
X160700000Y-52060000D03*
X160000000Y-54160000D03*
X160000000Y-52760000D03*
X160000000Y-51360000D03*
X159300000Y-53460000D03*
D28*
X159300000Y-52760000D03*
D27*
X159300000Y-52060000D03*
X158600000Y-54160000D03*
X158600000Y-52760000D03*
X158600000Y-51360000D03*
X157900000Y-53460000D03*
X157900000Y-52060000D03*
D29*
X169550000Y-45040000D03*
X169550000Y-46310000D03*
X169550000Y-47580000D03*
X169550000Y-48850000D03*
X169550000Y-50120000D03*
X169550000Y-51390000D03*
X169550000Y-52660000D03*
X169550000Y-53930000D03*
X169550000Y-55200000D03*
X169550000Y-56470000D03*
X169550000Y-57740000D03*
X169550000Y-59010000D03*
X169550000Y-60280000D03*
X169550000Y-61550000D03*
D30*
X167785000Y-62800000D03*
X166515000Y-62800000D03*
X165245000Y-62800000D03*
X163975000Y-62800000D03*
X162705000Y-62800000D03*
X161435000Y-62800000D03*
X160165000Y-62800000D03*
X158895000Y-62800000D03*
X157625000Y-62800000D03*
X156355000Y-62800000D03*
X155085000Y-62800000D03*
X153815000Y-62800000D03*
D29*
X152050000Y-61550000D03*
X152050000Y-60280000D03*
X152050000Y-59010000D03*
X152050000Y-57740000D03*
X152050000Y-56470000D03*
X152050000Y-55200000D03*
X152050000Y-53930000D03*
X152050000Y-52660000D03*
X152050000Y-51390000D03*
X152050000Y-50120000D03*
X152050000Y-48850000D03*
X152050000Y-47580000D03*
X152050000Y-46310000D03*
X152050000Y-45040000D03*
%TD*%
D31*
%TO.C,U9*%
X150040000Y-68860000D03*
D32*
X151290000Y-70810000D03*
X150790000Y-70810000D03*
X150290000Y-70810000D03*
X149790000Y-70810000D03*
X149290000Y-70810000D03*
X148790000Y-70810000D03*
D33*
X148090000Y-70110000D03*
X148090000Y-69610000D03*
X148090000Y-69110000D03*
X148090000Y-68610000D03*
X148090000Y-68110000D03*
X148090000Y-67610000D03*
D32*
X148790000Y-66910000D03*
X149290000Y-66910000D03*
X149790000Y-66910000D03*
X150290000Y-66910000D03*
X150790000Y-66910000D03*
X151290000Y-66910000D03*
D33*
X151990000Y-67610000D03*
X151990000Y-68110000D03*
X151990000Y-68610000D03*
X151990000Y-69110000D03*
X151990000Y-69610000D03*
X151990000Y-70110000D03*
%TD*%
D34*
%TO.C,C13*%
X149000000Y-46000000D03*
X149000000Y-47550000D03*
%TD*%
%TO.C,C12*%
X185500000Y-64600000D03*
X185500000Y-66150000D03*
%TD*%
D35*
%TO.C,R14*%
X157700000Y-68150000D03*
X157700000Y-69800000D03*
%TD*%
D36*
%TO.C,C16*%
X165650000Y-85600000D03*
X167200000Y-85600000D03*
%TD*%
D37*
%TO.C,U10*%
X178162500Y-65725000D03*
X178162500Y-66375000D03*
X178162500Y-67025000D03*
X178162500Y-67675000D03*
X180437500Y-67675000D03*
X180437500Y-67025000D03*
X180437500Y-66375000D03*
X180437500Y-65725000D03*
%TD*%
D38*
%TO.C,C11*%
X156200000Y-69750000D03*
X156200000Y-68200000D03*
%TD*%
D36*
%TO.C,C10*%
X137790000Y-45100000D03*
X139340000Y-45100000D03*
%TD*%
D39*
%TO.C,R5*%
X136375000Y-77000000D03*
X138025000Y-77000000D03*
%TD*%
D40*
%TO.C,J22*%
X120200000Y-109500000D03*
D41*
X125280000Y-109500000D03*
%TD*%
D39*
%TO.C,R3*%
X136350000Y-71000000D03*
X138000000Y-71000000D03*
%TD*%
D21*
%TO.C,TP1*%
X123300000Y-75100000D03*
%TD*%
D39*
%TO.C,R45*%
X165600000Y-82500000D03*
X167250000Y-82500000D03*
%TD*%
D35*
%TO.C,R1*%
X107500000Y-77650000D03*
X107500000Y-79300000D03*
%TD*%
%TO.C,R6*%
X136300000Y-54400000D03*
X136300000Y-56050000D03*
%TD*%
D26*
%TO.C,R21*%
X182800000Y-95100000D03*
X181150000Y-95100000D03*
%TD*%
D42*
%TO.C,R41*%
X180100000Y-56925000D03*
X180100000Y-55275000D03*
%TD*%
D43*
%TO.C,J23*%
X162600000Y-69300000D03*
D44*
X165100000Y-69300000D03*
%TD*%
D39*
%TO.C,R24*%
X119450000Y-62200000D03*
X121100000Y-62200000D03*
%TD*%
D45*
%TO.C,D5*%
X138000000Y-72500000D03*
X136425000Y-72500000D03*
%TD*%
D46*
%TO.C,Q5*%
X125550000Y-93960000D03*
D47*
X125550000Y-96500000D03*
X125550000Y-99040000D03*
%TD*%
D48*
%TO.C,C2*%
X113000000Y-74450000D03*
X113000000Y-71500000D03*
%TD*%
D35*
%TO.C,R17*%
X136800000Y-61700000D03*
X136800000Y-63350000D03*
%TD*%
D45*
%TO.C,D7*%
X137975000Y-78500000D03*
X136400000Y-78500000D03*
%TD*%
D26*
%TO.C,R22*%
X182000000Y-98400000D03*
X180350000Y-98400000D03*
%TD*%
D49*
%TO.C,C7*%
X113300000Y-55100000D03*
D50*
X110800000Y-55100000D03*
%TD*%
D51*
%TO.C,C1*%
X152200000Y-90300000D03*
D52*
X152200000Y-95300000D03*
%TD*%
D53*
%TO.C,Q1*%
X116300000Y-79500000D03*
X118200000Y-79500000D03*
X117250000Y-77625000D03*
%TD*%
D40*
%TO.C,J16*%
X131520000Y-109400000D03*
D41*
X136600000Y-109400000D03*
%TD*%
D54*
%TO.C,J5*%
X152600000Y-76100000D03*
D55*
X155100000Y-76100000D03*
X157600000Y-76100000D03*
X160100000Y-76100000D03*
X162600000Y-76100000D03*
X165100000Y-76100000D03*
%TD*%
D34*
%TO.C,C21*%
X107100000Y-98600000D03*
X107100000Y-100150000D03*
%TD*%
D56*
%TO.C,J21*%
X199100000Y-96430000D03*
D52*
X199100000Y-92620000D03*
X199100000Y-88810000D03*
X199100000Y-85000000D03*
%TD*%
D57*
%TO.C,JP2*%
X188900000Y-95800000D03*
D58*
X188900000Y-94500000D03*
D59*
X188900000Y-93200000D03*
%TD*%
D60*
%TO.C,Q6*%
X131900000Y-65800000D03*
X131900000Y-63900000D03*
X130025000Y-64850000D03*
%TD*%
D61*
%TO.C,L2*%
X115900000Y-58700000D03*
X115900000Y-61500000D03*
%TD*%
D21*
%TO.C,TP2*%
X112300000Y-67700000D03*
%TD*%
D57*
%TO.C,JP4*%
X188900000Y-100800000D03*
D58*
X188900000Y-99500000D03*
D59*
X188900000Y-98200000D03*
%TD*%
D39*
%TO.C,R47*%
X192450000Y-87200000D03*
X194100000Y-87200000D03*
%TD*%
D26*
%TO.C,R23*%
X185900000Y-100800000D03*
X184250000Y-100800000D03*
%TD*%
D38*
%TO.C,C9*%
X116300000Y-53975000D03*
X116300000Y-52425000D03*
%TD*%
D42*
%TO.C,R36*%
X141500000Y-77600000D03*
X141500000Y-75950000D03*
%TD*%
D34*
%TO.C,C22*%
X108600000Y-98600000D03*
X108600000Y-100150000D03*
%TD*%
D62*
%TO.C,U1*%
X112975000Y-89705000D03*
X112975000Y-88435000D03*
X112975000Y-87165000D03*
X112975000Y-85895000D03*
X108025000Y-85895000D03*
X108025000Y-87165000D03*
X108025000Y-88435000D03*
X108025000Y-89705000D03*
%TD*%
D42*
%TO.C,R31*%
X119900000Y-66200000D03*
X119900000Y-64550000D03*
%TD*%
D26*
%TO.C,R29*%
X126500000Y-77300000D03*
X124850000Y-77300000D03*
%TD*%
D63*
%TO.C,F1*%
X115600000Y-91709140D03*
X115600000Y-95984140D03*
%TD*%
D64*
%TO.C,C5*%
X121500000Y-70400000D03*
X121500000Y-72300000D03*
%TD*%
D42*
%TO.C,R30*%
X134100000Y-65100000D03*
X134100000Y-63450000D03*
%TD*%
D65*
%TO.C,SW2 BOOT*%
X179750000Y-45520000D03*
X179750000Y-53480000D03*
X175250000Y-45520000D03*
X175250000Y-53480000D03*
%TD*%
D34*
%TO.C,C4*%
X113500000Y-82700000D03*
X113500000Y-84250000D03*
%TD*%
D66*
%TO.C,Q2*%
X132825000Y-60050000D03*
X132825000Y-61950000D03*
X134700000Y-61000000D03*
%TD*%
D35*
%TO.C,R35*%
X108300000Y-95550000D03*
X108300000Y-97200000D03*
%TD*%
D39*
%TO.C,R19*%
X137750000Y-51200000D03*
X139400000Y-51200000D03*
%TD*%
D57*
%TO.C,JP3*%
X185300000Y-98400000D03*
D58*
X185300000Y-97100000D03*
D59*
X185300000Y-95800000D03*
%TD*%
D40*
%TO.C,J7*%
X184660000Y-109500000D03*
D41*
X189740000Y-109500000D03*
X194820000Y-109500000D03*
X199900000Y-109500000D03*
%TD*%
D39*
%TO.C,R4*%
X136350000Y-74000000D03*
X138000000Y-74000000D03*
%TD*%
D61*
%TO.C,L1*%
X112500000Y-76500000D03*
X112500000Y-79300000D03*
%TD*%
D67*
%TO.C,C6*%
X138000000Y-66600000D03*
X140950000Y-66600000D03*
%TD*%
D68*
%TO.C,D3*%
X108500000Y-70100000D03*
X108500000Y-74100000D03*
%TD*%
D46*
%TO.C,Q4*%
X119400000Y-93960000D03*
D47*
X119400000Y-96500000D03*
X119400000Y-99040000D03*
%TD*%
D69*
%TO.C,U2*%
X130700000Y-68800000D03*
X128400000Y-68800000D03*
D70*
X128400000Y-75100000D03*
D69*
X126100000Y-68800000D03*
%TD*%
D42*
%TO.C,R33*%
X107700000Y-56550000D03*
X107700000Y-54900000D03*
%TD*%
D71*
%TO.C,C17*%
X139350000Y-52800000D03*
X137800000Y-52800000D03*
%TD*%
D57*
%TO.C,JP1*%
X185300000Y-93000000D03*
D58*
X185300000Y-91700000D03*
D59*
X185300000Y-90400000D03*
%TD*%
D42*
%TO.C,R46*%
X194100000Y-94850000D03*
X194100000Y-93200000D03*
%TD*%
D72*
%TO.C,U12*%
X146200000Y-76050000D03*
X146200000Y-77000000D03*
X146200000Y-77950000D03*
X148475000Y-77950000D03*
X148475000Y-77000000D03*
X148475000Y-76050000D03*
%TD*%
D73*
%TO.C,D10*%
X122250000Y-54800000D03*
X118950000Y-54800000D03*
%TD*%
D53*
%TO.C,Q3*%
X119400000Y-60400000D03*
X121300000Y-60400000D03*
X120350000Y-58525000D03*
%TD*%
D74*
%TO.C,C20*%
X109000000Y-62500000D03*
D50*
X111500000Y-62500000D03*
%TD*%
D40*
%TO.C,J6*%
X142920000Y-109467500D03*
D41*
X148000000Y-109467500D03*
X153080000Y-109467500D03*
X158160000Y-109467500D03*
X163240000Y-109467500D03*
X168320000Y-109467500D03*
X173400000Y-109467500D03*
X178480000Y-109467500D03*
%TD*%
D75*
%TO.C,J3*%
X133775000Y-70380000D03*
D76*
X133775000Y-72920000D03*
X133775000Y-75460000D03*
X133775000Y-78000000D03*
%TD*%
D42*
%TO.C,R32*%
X116900000Y-57150000D03*
X116900000Y-55500000D03*
%TD*%
D77*
%TO.C,Q9*%
X116800000Y-63900000D03*
X114900000Y-63900000D03*
X115850000Y-65775000D03*
%TD*%
D35*
%TO.C,R7*%
X127100000Y-54400000D03*
X127100000Y-56050000D03*
%TD*%
D78*
%TO.C,D1*%
X111300000Y-96300000D03*
X111300000Y-92000000D03*
%TD*%
D21*
%TO.C,TP3*%
X143200000Y-66500000D03*
%TD*%
D42*
%TO.C,R25*%
X108300000Y-94150000D03*
X108300000Y-92500000D03*
%TD*%
D79*
%TO.C,D11*%
X188900000Y-86700000D03*
X188900000Y-83400000D03*
%TD*%
D80*
%TO.C,D2*%
X117500000Y-74500000D03*
X117500000Y-70500000D03*
%TD*%
D26*
%TO.C,R20*%
X182750000Y-93000000D03*
X181100000Y-93000000D03*
%TD*%
D42*
%TO.C,R37*%
X143000000Y-77550000D03*
X143000000Y-75900000D03*
%TD*%
D26*
%TO.C,R10*%
X177275000Y-88500000D03*
X175625000Y-88500000D03*
%TD*%
D40*
%TO.C,J1*%
X108920000Y-109500000D03*
D41*
X114000000Y-109500000D03*
%TD*%
D65*
%TO.C,SW1 RESET*%
X145850000Y-45420000D03*
X145850000Y-53380000D03*
X141350000Y-45420000D03*
X141350000Y-53380000D03*
%TD*%
D81*
%TO.C,U8*%
X178225000Y-71295000D03*
X178225000Y-72565000D03*
X178225000Y-73835000D03*
X178225000Y-75105000D03*
X183175000Y-75105000D03*
X183175000Y-73835000D03*
X183175000Y-72565000D03*
X183175000Y-71295000D03*
%TD*%
D45*
%TO.C,D6*%
X137987500Y-75500000D03*
X136412500Y-75500000D03*
%TD*%
D39*
%TO.C,R9*%
X183075000Y-88500000D03*
X184725000Y-88500000D03*
%TD*%
D82*
%TO.C,J13*%
X123305000Y-48382500D03*
D52*
X119495000Y-48382500D03*
%TD*%
D83*
%TO.C,FB1*%
X149500000Y-62200000D03*
X147375000Y-62200000D03*
%TD*%
D62*
%TO.C,U11*%
X173600000Y-99750000D03*
X173600000Y-98480000D03*
X173600000Y-97210000D03*
X173600000Y-95940000D03*
X173600000Y-94670000D03*
X173600000Y-93400000D03*
X173600000Y-92130000D03*
X168650000Y-92130000D03*
X168650000Y-93400000D03*
X168650000Y-94670000D03*
X168650000Y-95940000D03*
X168650000Y-97210000D03*
X168650000Y-98480000D03*
X168650000Y-99750000D03*
%TD*%
D73*
%TO.C,DZ1*%
X123450000Y-78500000D03*
X120150000Y-78500000D03*
%TD*%
%TO.C,D12*%
X194100000Y-83800000D03*
X190800000Y-83800000D03*
%TD*%
D42*
%TO.C,R15*%
X145700000Y-61750000D03*
X145700000Y-60100000D03*
%TD*%
D38*
%TO.C,C3*%
X110500000Y-84050000D03*
X110500000Y-82500000D03*
%TD*%
%TO.C,C18*%
X144500000Y-77550000D03*
X144500000Y-76000000D03*
%TD*%
D80*
%TO.C,D4*%
X139500000Y-62300000D03*
X139500000Y-58300000D03*
%TD*%
D42*
%TO.C,R2*%
X107400000Y-84050000D03*
X107400000Y-82400000D03*
%TD*%
D39*
%TO.C,R44*%
X165600000Y-80900000D03*
X167250000Y-80900000D03*
%TD*%
M02*
